<svg id="Capa_1" data-name="Capa 1" xmlns="http://www.w3.org/2000/svg" viewBox="0 0 219.64 207.54"><defs><style>.cls-1{fill:#c8895e;}</style></defs><path class="cls-1" d="M120.29,63.36q0-17.7,0-35.39c0-5.32,1.71-7.12,6.9-7.14,13.63,0,27.26,0,40.89,0a8.51,8.51,0,0,1,6.69,2.78c3.94,4.15,8,8.17,12.13,12.16a7.16,7.16,0,0,1,2.29,5.49c0,19.47,0,38.94,0,58.42,0,4.39-1.87,6.19-6.31,6.2q-28,0-56,0c-4.75,0-6.52-1.85-6.52-6.74Q120.27,81.24,120.29,63.36Zm5.55,0q0,17,0,34c0,1.72-.12,3,2.38,3,17.75-.09,35.5-.06,53.24,0,1.62,0,2.19-.53,2.18-2.17q-.06-27,0-53.93c0-1.84-.7-2.37-2.43-2.31-2.86.1-5.72,0-8.59,0s-4.45-1.53-4.54-4.4a71.79,71.79,0,0,1,0-7.9c.21-2.63-.8-3.28-3.32-3.26q-17.85.18-35.72,0c-2.59,0-3.29.72-3.25,3.28C125.91,40.88,125.84,52.1,125.84,63.33Zm48.25-32.27c-1,5.6-.49,6.06,4.54,4.87Z"/><path class="cls-1" d="M84.43,146.22q0,20.43,0,40.86c0,4.95-1.69,5.91-6.13,3.53-11.38-6.1-22.79-12.16-34.12-18.36a14,14,0,0,0-7.48-1.86c-4.46.15-8.92,0-13.39.05-2.44,0-3.54-1.11-3.53-3.55q0-20.76,0-41.54c0-2.55,1.35-3.43,3.66-3.43,4.81,0,9.61-.07,14.42,0a10.86,10.86,0,0,0,5.54-1.41q17.49-9.48,35-18.84c4.39-2.35,6-1.37,6,3.68Q84.45,125.8,84.43,146.22Zm-5.55-38.46c-8.1,4.35-15.71,8-22.9,12.41-8.62,5.24-17.46,8.87-27.77,7.31-2.59-.39-2.95,1-2.92,3.18.1,8.47,0,16.94.07,25.41,0,2.82-1.26,6.46.56,8.25s5.47.71,8.27.49c5.46-.43,10.21,1,14.93,3.74,8.73,5,17.74,9.5,26.53,14.39,2.77,1.54,3.3,1,3.28-2-.1-18.65-.05-37.31-.05-56Z"/><path class="cls-1" d="M104.18,43.48a21.12,21.12,0,0,1-1.79-2.39,2.49,2.49,0,0,1,.74-3.36,2.24,2.24,0,0,1,3.14-.06c2.5,2.35,5,4.74,7.3,7.27,1.19,1.29.74,2.77-.45,4-1.85,1.87-3.72,3.73-5.58,5.59-1.28,1.29-2.69,2.48-4.44,1s-1.11-3.23.35-4.72a6,6,0,0,0,.57-.83c-.73-.93-1.72-.49-2.54-.5q-15.47,0-30.93,0c-8.16,0-13,4.82-13.07,13-.08,11.11,0,22.22,0,33.33,0,1,0,2.07-.07,3.09-.17,1.68-1,2.83-2.84,2.78-1.67,0-2.42-1.13-2.59-2.66a21.31,21.31,0,0,1-.08-2.4c0-11.11,0-22.22,0-33.33,0-12.32,7.16-19.37,19.45-19.38q16,0,32,0A3.87,3.87,0,0,0,104.18,43.48Z"/><path class="cls-1" d="M130.7,171.94a20.18,20.18,0,0,1,1.78,2.45,2.63,2.63,0,0,1-.62,3.42,2.41,2.41,0,0,1-3.44,0c-2.41-2.27-4.82-4.57-7-7-1.26-1.42-.74-3,.55-4.28l5.59-5.58c1.33-1.33,2.81-2.23,4.45-.62,1.41,1.39,1,2.89-.22,4.25-.3.34-.57.69-.85,1,.5,1.07,1.42.6,2.1.61,10.53,0,21.06.06,31.59,0,7.91,0,12.79-5,12.82-12.92.05-11.33,0-22.66,0-34a14.34,14.34,0,0,1,.14-3.08,2.57,2.57,0,0,1,3-2.23,2.44,2.44,0,0,1,2.36,2.49c.09,2,.07,3.89.07,5.84,0,10.3,0,20.6,0,30.9-.07,11.18-7.36,18.48-18.5,18.52-10.87.05-21.75,0-32.62,0A10.5,10.5,0,0,0,130.7,171.94Z"/><path class="cls-1" d="M117.73,151.31c0,5.39-4.07,14.1-11.29,21.42-1.34,1.36-2.88,2.74-4.71,1s-.72-3.41.75-5c13.19-13.94,13.13-31.22-.14-45.38-1.39-1.49-2.46-3-.71-4.71s3.29-.5,4.73.86C113.58,126.41,117.77,136.22,117.73,151.31Z"/><path class="cls-1" d="M102.33,146.37a24.11,24.11,0,0,1-7.19,16.57c-1.36,1.36-2.88,2.18-4.48.71s-.89-3,.4-4.47c7.64-8.85,7.62-17,0-26-1.27-1.49-1.9-3-.31-4.49s3.15-.56,4.45.74A24.08,24.08,0,0,1,102.33,146.37Z"/><path class="cls-1" d="M154.5,58H138.4c-2,0-4-.25-4.06-2.63-.1-2.61,2-3,4.07-3H171c2,0,4.23.19,4.22,2.83S173,58,171,58Z"/><path class="cls-1" d="M154.7,90.63c-5.49,0-11,0-16.47,0-2,0-3.88-.39-3.9-2.76s1.81-2.82,3.86-2.82q16.63.06,33.26,0c2.07,0,3.82.54,3.73,2.93-.08,2.17-1.76,2.65-3.68,2.63C165.9,90.61,160.3,90.63,154.7,90.63Z"/><path class="cls-1" d="M154.66,74.25c-5.49,0-11,0-16.46,0-2,0-3.9-.35-3.87-2.75s1.88-2.83,3.91-2.83q16.45,0,32.91,0c2.12,0,4.14.41,4,3-.1,2.43-2.13,2.57-4.07,2.56C165.63,74.23,160.14,74.25,154.66,74.25Z"/><path class="cls-1" d="M148.2,36.13c3.43,0,6.86,0,10.29,0,1.95,0,3.56.62,3.53,2.78s-1.67,2.79-3.6,2.79H137.85c-2,0-3.53-.76-3.53-2.86s1.66-2.73,3.6-2.71C141.35,36.15,144.78,36.13,148.2,36.13Z"/></svg>