<svg id="Capa_1" data-name="Capa 1" xmlns="http://www.w3.org/2000/svg" viewBox="0 0 282.25 210.74"><defs><style>.cls-1{fill:#fffdfc;}.cls-2{fill:#6c2910;}.cls-3{fill:#c7804d;}.cls-4{fill:#fff;}.cls-5{fill:#dad49d;}.cls-6{fill:#ffc5b9;}.cls-7{fill:#f5a296;}.cls-8{fill:#203259;}.cls-9{fill:#9e986f;}.cls-10{fill:#eaa883;}.cls-11{fill:#d4d4d2;}.cls-12{fill:#d69163;}.cls-13{fill:#ece9ec;}.cls-14{fill:#b5b7bf;}.cls-15{fill:#fdf2f8;}.cls-16{fill:#e1d6f6;}.cls-17{fill:#344676;}.cls-18{fill:#df93b2;}.cls-19{fill:#f8fbfc;}</style></defs><path class="cls-1" d="M46.38,200.43H246.32s23-162.3-105.23-162.3C21.37,38.13,46.38,200.43,46.38,200.43Z"/><circle class="cls-1" cx="222.38" cy="44.33" r="17.49"/><circle class="cls-1" cx="79.19" cy="47.59" r="23.47" transform="translate(-7.59 79.3) rotate(-51.08)"/><circle class="cls-1" cx="190.95" cy="24.12" r="5.5" transform="translate(53.77 159.12) rotate(-51.74)"/><circle class="cls-1" cx="51.86" cy="78.67" r="5.5"/><circle class="cls-1" cx="111.2" cy="20.76" r="10.76" transform="translate(17.89 84.71) rotate(-45)"/><rect class="cls-2" x="123.1" y="55.25" width="103.5" height="143.71" rx="6.3"/><rect class="cls-3" x="128.01" y="61.9" width="91.28" height="126.73"/><rect class="cls-4" x="129.21" y="60.48" width="91.28" height="126.73"/><path class="cls-5" d="M196.12,52.55H185.27a.71.71,0,0,1-.7-.56l-.95-4.38A2.12,2.12,0,0,0,181.55,46h-7.4a2.11,2.11,0,0,0-2.06,1.66l-1,4.38a.72.72,0,0,1-.7.56H159.59a.34.34,0,0,0-.34.34V64.18a2.47,2.47,0,0,0,2.48,2.47H194a2.46,2.46,0,0,0,2.47-2.47V52.89A.34.34,0,0,0,196.12,52.55Zm-18.27-1.88a1.25,1.25,0,1,1,1.25-1.25A1.24,1.24,0,0,1,177.85,50.67Z"/><path class="cls-1" d="M194.67,53H161a.54.54,0,1,0,0,1.08h33.64a.54.54,0,1,0,0-1.08Z"/><path class="cls-1" d="M181.6,46.4h-7.49a.36.36,0,0,0-.36.36.35.35,0,0,0,.36.35h7.49a.35.35,0,0,0,.36-.35A.36.36,0,0,0,181.6,46.4Z"/><path class="cls-2" d="M207,85.86H196.49a1.93,1.93,0,0,1-1.93-1.93V73.42a1.93,1.93,0,0,1,1.93-1.93H207a1.94,1.94,0,0,1,1.93,1.93V83.93A1.94,1.94,0,0,1,207,85.86ZM196.49,72.09a1.34,1.34,0,0,0-1.33,1.33V83.93a1.34,1.34,0,0,0,1.33,1.33H207a1.34,1.34,0,0,0,1.33-1.33V73.42A1.34,1.34,0,0,0,207,72.09Z"/><path class="cls-2" d="M190.65,73.1H141.08a.29.29,0,0,1-.3-.3.3.3,0,0,1,.3-.3h49.57a.3.3,0,0,1,.3.3A.29.29,0,0,1,190.65,73.1Z"/><path class="cls-2" d="M190.65,76.65H141.08a.3.3,0,0,1-.3-.3.29.29,0,0,1,.3-.3h49.57a.29.29,0,0,1,.3.3A.3.3,0,0,1,190.65,76.65Z"/><path class="cls-2" d="M190.65,80.19H141.08a.3.3,0,1,1,0-.6h49.57a.3.3,0,1,1,0,.6Z"/><path class="cls-2" d="M173,83.73H141.08a.29.29,0,0,1-.3-.3.3.3,0,0,1,.3-.3H173a.3.3,0,0,1,.3.3A.29.29,0,0,1,173,83.73Z"/><path class="cls-2" d="M207,105.87H196.49a1.93,1.93,0,0,1-1.93-1.93V93.43a1.93,1.93,0,0,1,1.93-1.93H207a1.94,1.94,0,0,1,1.93,1.93v10.51A1.94,1.94,0,0,1,207,105.87ZM196.49,92.1a1.34,1.34,0,0,0-1.33,1.33v10.51a1.34,1.34,0,0,0,1.33,1.33H207a1.34,1.34,0,0,0,1.33-1.33V93.43A1.34,1.34,0,0,0,207,92.1Z"/><path class="cls-2" d="M190.65,93.12H141.08a.3.3,0,0,1-.3-.3.29.29,0,0,1,.3-.3h49.57a.29.29,0,0,1,.3.3A.3.3,0,0,1,190.65,93.12Z"/><path class="cls-2" d="M190.65,96.66H141.08a.3.3,0,0,1-.3-.3.29.29,0,0,1,.3-.3h49.57a.29.29,0,0,1,.3.3A.3.3,0,0,1,190.65,96.66Z"/><path class="cls-2" d="M190.65,100.2H141.08a.29.29,0,0,1-.3-.3.3.3,0,0,1,.3-.3h49.57a.3.3,0,0,1,.3.3A.29.29,0,0,1,190.65,100.2Z"/><path class="cls-2" d="M179.9,103.75H141.08a.3.3,0,0,1-.3-.3.29.29,0,0,1,.3-.3H179.9a.29.29,0,0,1,.3.3A.3.3,0,0,1,179.9,103.75Z"/><path class="cls-2" d="M207,125.89H196.49a1.93,1.93,0,0,1-1.93-1.94v-10.5a1.93,1.93,0,0,1,1.93-1.94H207a1.94,1.94,0,0,1,1.93,1.94V124A1.94,1.94,0,0,1,207,125.89Zm-10.51-13.78a1.34,1.34,0,0,0-1.33,1.34V124a1.34,1.34,0,0,0,1.33,1.34H207a1.34,1.34,0,0,0,1.33-1.34v-10.5a1.34,1.34,0,0,0-1.33-1.34Z"/><path class="cls-2" d="M190.65,113.13H141.08a.3.3,0,0,1-.3-.3.29.29,0,0,1,.3-.3h49.57a.29.29,0,0,1,.3.3A.3.3,0,0,1,190.65,113.13Z"/><path class="cls-2" d="M190.65,116.67H141.08a.29.29,0,0,1-.3-.3.3.3,0,0,1,.3-.3h49.57a.3.3,0,0,1,.3.3A.29.29,0,0,1,190.65,116.67Z"/><path class="cls-2" d="M190.65,120.22H141.08a.3.3,0,0,1-.3-.3.29.29,0,0,1,.3-.3h49.57a.29.29,0,0,1,.3.3A.3.3,0,0,1,190.65,120.22Z"/><path class="cls-2" d="M158.7,123.76H141.08a.3.3,0,0,1-.3-.3.29.29,0,0,1,.3-.3H158.7a.29.29,0,0,1,.3.3A.3.3,0,0,1,158.7,123.76Z"/><path class="cls-2" d="M207,145.9H196.49a1.93,1.93,0,0,1-1.93-1.94v-10.5a1.92,1.92,0,0,1,1.93-1.93H207a1.93,1.93,0,0,1,1.93,1.93V144A1.94,1.94,0,0,1,207,145.9Zm-10.51-13.77a1.34,1.34,0,0,0-1.33,1.33V144a1.34,1.34,0,0,0,1.33,1.34H207a1.34,1.34,0,0,0,1.33-1.34v-10.5a1.34,1.34,0,0,0-1.33-1.33Z"/><path class="cls-2" d="M190.65,133.14H141.08a.29.29,0,0,1-.3-.3.3.3,0,0,1,.3-.3h49.57a.3.3,0,0,1,.3.3A.29.29,0,0,1,190.65,133.14Z"/><path class="cls-2" d="M190.65,136.68H141.08a.29.29,0,0,1-.3-.3.3.3,0,0,1,.3-.3h49.57a.3.3,0,0,1,.3.3A.29.29,0,0,1,190.65,136.68Z"/><path class="cls-2" d="M190.65,140.23H141.08a.3.3,0,0,1-.3-.3.29.29,0,0,1,.3-.3h49.57a.29.29,0,0,1,.3.3A.3.3,0,0,1,190.65,140.23Z"/><path class="cls-2" d="M164,143.77H141.08a.29.29,0,0,1-.3-.3.3.3,0,0,1,.3-.3H164a.3.3,0,0,1,.3.3A.29.29,0,0,1,164,143.77Z"/><path class="cls-2" d="M207,165.91H196.49a1.93,1.93,0,0,1-1.93-1.93V153.47a1.93,1.93,0,0,1,1.93-1.93H207a1.94,1.94,0,0,1,1.93,1.93V164A1.94,1.94,0,0,1,207,165.91Zm-10.51-13.77a1.34,1.34,0,0,0-1.33,1.33V164a1.34,1.34,0,0,0,1.33,1.33H207a1.34,1.34,0,0,0,1.33-1.33V153.47a1.34,1.34,0,0,0-1.33-1.33Z"/><path class="cls-2" d="M190.65,153.15H141.08a.29.29,0,0,1-.3-.3.3.3,0,0,1,.3-.3h49.57a.3.3,0,0,1,.3.3A.29.29,0,0,1,190.65,153.15Z"/><path class="cls-2" d="M190.65,156.7H141.08a.3.3,0,0,1-.3-.3.29.29,0,0,1,.3-.3h49.57a.29.29,0,0,1,.3.3A.3.3,0,0,1,190.65,156.7Z"/><path class="cls-2" d="M190.65,160.24H141.08a.29.29,0,0,1-.3-.3.3.3,0,0,1,.3-.3h49.57a.3.3,0,0,1,.3.3A.29.29,0,0,1,190.65,160.24Z"/><path class="cls-2" d="M148.2,163.78h-7.12a.29.29,0,0,1-.3-.3.3.3,0,0,1,.3-.3h7.12a.3.3,0,0,1,.3.3A.29.29,0,0,1,148.2,163.78Z"/><path class="cls-3" d="M200.6,82.1a1.2,1.2,0,0,1-.65-.19l-5.74-3.7a1.2,1.2,0,0,1-.36-1.66,1.22,1.22,0,0,1,1.66-.36l5,3.24,11.6-9.29a1.2,1.2,0,0,1,1.5,1.88l-12.28,9.82A1.14,1.14,0,0,1,200.6,82.1Z"/><path class="cls-3" d="M200.6,102.47a1.2,1.2,0,0,1-.65-.19l-5.74-3.7a1.2,1.2,0,0,1,1.3-2l5,3.24,11.6-9.29a1.21,1.21,0,0,1,1.69.19,1.19,1.19,0,0,1-.19,1.68l-12.28,9.83A1.2,1.2,0,0,1,200.6,102.47Z"/><path class="cls-3" d="M200.6,122.84a1.2,1.2,0,0,1-.65-.19l-5.74-3.7a1.2,1.2,0,0,1,1.3-2l5,3.24,11.6-9.29a1.21,1.21,0,0,1,1.69.19,1.19,1.19,0,0,1-.19,1.68l-12.28,9.83A1.2,1.2,0,0,1,200.6,122.84Z"/><path class="cls-3" d="M200.6,143.21A1.2,1.2,0,0,1,200,143l-5.74-3.7a1.2,1.2,0,1,1,1.3-2l5,3.23,11.6-9.28a1.2,1.2,0,1,1,1.5,1.87L201.35,143A1.2,1.2,0,0,1,200.6,143.21Z"/><path class="cls-3" d="M200.6,163.58a1.2,1.2,0,0,1-.65-.19l-5.74-3.7a1.2,1.2,0,1,1,1.3-2l5,3.23,11.6-9.28a1.2,1.2,0,1,1,1.5,1.87l-12.28,9.83A1.2,1.2,0,0,1,200.6,163.58Z"/><polygon class="cls-6" points="109.38 191.29 109.93 193.21 109.5 194.73 116.13 195.97 113.82 193.14 112.21 189.41 109.38 191.29"/><path class="cls-7" d="M113,191.25l-.6-1.4-3,1.65.22.74a.48.48,0,0,0,.58.33l2.47-.68A.47.47,0,0,0,113,191.25Z"/><path class="cls-6" d="M82.68,191.93l-.47,4h4.27L86,195a.85.85,0,0,1-.11-.64l.48-2.44Z"/><path class="cls-7" d="M82.68,191.93l-.11,1a.64.64,0,0,0,.63.72h2.26a.64.64,0,0,0,.63-.52l.23-1.17Z"/><polygon class="cls-3" points="98.82 96.25 103.8 75.25 100.15 53.01 96.07 54.07 97.08 75.16 92.77 92.13 98.82 96.25"/><path class="cls-8" d="M83.13,72.55a6.54,6.54,0,0,1,5.72-2.14c4.3.49,5.26,2.72,5.88,4.22s2.66,9.83.14,14.25a9.11,9.11,0,0,1-6,4.43l-8.23,1-2.38-.85A90.48,90.48,0,0,0,80,82.86C80.33,78.51,78.91,74.11,83.13,72.55Z"/><path class="cls-2" d="M102.25,75.52a1,1,0,0,0-.82.73L96.06,94.11l2.76,2.14,4.61-19.46A1,1,0,0,0,102.25,75.52Z"/><path class="cls-5" d="M101.24,124.73,82,128.8s-2.09-.79-2.66,3.58c-.35,2.69,1.14,7.21,2.33,10.3l.27,49.37a.54.54,0,0,0,.54.54h4.14a.54.54,0,0,0,.54-.48l5.44-50.45L108.4,191a.94.94,0,0,0,1.16.62l3.1-.92a.93.93,0,0,0,.66-1.07Z"/><path class="cls-9" d="M101.82,127.85l-.58-3.12L82,128.8s-2.09-.79-2.66,3.58c-.35,2.69,1.14,7.21,2.33,10.3L81.91,192a.62.62,0,0,0,.62.62.62.62,0,0,0,.63-.61l.62-49.9-.18-8.36a1.77,1.77,0,0,1,1.5-1.79l15.5-2.37A1.46,1.46,0,0,0,101.82,127.85Z"/><rect class="cls-10" x="47.2" y="39.6" width="73.73" height="13.3" transform="translate(-9.54 25.17) rotate(-16.12)"/><rect class="cls-2" x="45.91" y="39.78" width="73.73" height="3.99" transform="translate(-8.35 24.63) rotate(-16.12)"/><rect class="cls-3" x="48.64" y="49.72" width="73.73" height="2.98" transform="translate(-10.86 25.76) rotate(-16.12)"/><rect class="cls-11" x="41.76" y="50.65" width="7.03" height="13.62" transform="translate(104.73 100.09) rotate(163.88)"/><path class="cls-12" d="M34.61,53.46a1.4,1.4,0,0,0-1,1.74l3,10.38a1.39,1.39,0,0,0,1.74,1L43.79,65,40,51.9Z"/><path class="cls-10" d="M34.61,53.46a1.4,1.4,0,0,0-1,1.74l1.5,5.19,6.75-2L40,51.9Z"/><path class="cls-3" d="M36.07,63.59l.58,2a1.39,1.39,0,0,0,1.74,1L43.79,65l-1-3.35Z"/><rect class="cls-13" x="40.63" y="50.81" width="7.03" height="5.48" transform="translate(101.43 92.74) rotate(163.88)"/><rect class="cls-14" x="43.33" y="61.74" width="7.03" height="2.31" transform="translate(109.32 110.3) rotate(163.88)"/><polygon class="cls-15" points="117.64 29.62 121.33 42.4 141.21 29.65 117.64 29.62"/><polygon class="cls-16" points="140.68 29.96 120.22 38.57 121.33 42.4 140.68 29.96"/><polygon class="cls-3" points="134.02 34.26 141.21 29.65 132.91 29.64 134.02 34.26"/><polygon class="cls-3" points="133.33 31.41 141.21 29.65 132.91 29.64 133.33 31.41"/><path class="cls-3" d="M100.09,109.54s2.79-4.81,2.41-6.71S96,92.06,96,92.06L92.1,90.2a3.13,3.13,0,0,0-1.31-.29H85.5a3.22,3.22,0,0,0-1.18.23c-1.32.56-4.62,1.93-6,2.43-1.77.63,0,8.23,0,8.23s4,9.58,4.72,13.38-3.26,15.23-3.26,15.23a54.33,54.33,0,0,0,23-2.56Z"/><path class="cls-3" d="M77.68,100.38,63.1,86,59.64,64.7l4.79-1.15,5,19.14,9.83,9.52s2.49,3.89,1.42,7.39A1.81,1.81,0,0,1,77.68,100.38Z"/><path class="cls-6" d="M63.23,61.4s.44-2,0-2.47-3.59-3.35-3.59-3.35l-.55-1.8a1.95,1.95,0,0,0-3.78.88L55.69,57l.76,1.39,3,3,.74,3.23,3.64-.51Z"/><path class="cls-6" d="M96.6,53.93l-.07-2.08-.89-2,3.88-1.25,1.41-2.29a.81.81,0,0,1,.38-.33s1.41-.67,1.3-.35c-.32,1-.9,2.67-.9,2.67a1,1,0,0,1-.21.46l-2.29,2.92.33,1.5Z"/><path class="cls-6" d="M91.45,94.86a12.33,12.33,0,0,1-3.61-.41c-1.59-.51-3.5-3.86-3.3-4.15a1.13,1.13,0,0,1,.61-.39V83.84h5.73V90a9.78,9.78,0,0,1,2,2.35C93.41,93.43,93.35,94.86,91.45,94.86Z"/><path class="cls-7" d="M89.51,88.82l1.34-.23h0V83.84H85.15v2.31A3.88,3.88,0,0,0,89.51,88.82Z"/><path class="cls-6" d="M93.16,78c-.64.54-3,.52-3.73.35a7.13,7.13,0,0,1-3.7-2c1,1.9-.83,4.85-1.22,5.46L85,84.74a3.92,3.92,0,0,0,4.51,3.2l1.34-.23A3.91,3.91,0,0,0,94,83.2Z"/><path class="cls-7" d="M61.23,59.09l-1.58-1.78a.78.78,0,0,0-.95-.17L57,58.05a.49.49,0,0,0-.11.78l2,2a1,1,0,0,0,1.13.21l.83-.38A1,1,0,0,0,61.23,59.09Z"/><path class="cls-2" d="M98.61,105.07l-10.45,2.09a1.26,1.26,0,0,0-1,1.07l-.21,1.51a1.27,1.27,0,0,0,1.51,1.41l10-2a1.27,1.27,0,0,0,.93-.78l.61-1.56A1.27,1.27,0,0,0,98.61,105.07Z"/><path class="cls-2" d="M68.33,85a2.19,2.19,0,1,0-3.1,3.1l12.45,12.29a1.81,1.81,0,0,0,3-.73A6.46,6.46,0,0,0,81,97.76Z"/><path class="cls-9" d="M110.21,190.44,96.33,136.76a1.72,1.72,0,0,0-2.69-.95l-.17.12-.9,5.73L108.4,191a.94.94,0,0,0,1.81-.52Z"/><path class="cls-7" d="M95.64,49.83l.28.64a.54.54,0,0,0,.68.28L98.71,50a.49.49,0,0,0,.3-.28l.51-1.1Z"/><path class="cls-8" d="M87.69,81.15a.13.13,0,0,1-.14-.13,1.11,1.11,0,0,1,.8-.89c.23-.06.65-.06.94.56a.15.15,0,0,1-.07.19.14.14,0,0,1-.18-.07c-.16-.34-.37-.48-.62-.41a.87.87,0,0,0-.59.6.15.15,0,0,1-.13.15Z"/><path class="cls-8" d="M92.63,80.76a.14.14,0,0,1-.14-.13.82.82,0,0,0-.61-.53c-.2,0-.35.14-.43.48a.15.15,0,0,1-.28-.08c.17-.64.53-.7.73-.68a1.09,1.09,0,0,1,.87.79.13.13,0,0,1-.13.15Z"/><path class="cls-17" d="M94.73,74.63c-.62-1.5-1.58-3.73-5.88-4.22a6.54,6.54,0,0,0-5.72,2.14c-3.79,1.4-3,5.08-3.08,9,.2-.74.4-1.55.52-2.21a1.24,1.24,0,0,1,1-1,2.51,2.51,0,0,0,2.14-1.44A9,9,0,0,0,84,73.48s3.34,2.79,5.29,2.72a17,17,0,0,0,3.3-.48,1.17,1.17,0,0,1,1.28.54A21.41,21.41,0,0,1,96,81,26.57,26.57,0,0,0,94.73,74.63Z"/><path class="cls-8" d="M89.27,79.13a2.76,2.76,0,0,0-1.68-.68c-.76.1-1.49.81-1.28,1s.41-.23.86-.43a1.63,1.63,0,0,1,1.38,0C89,79.21,89.43,79.41,89.27,79.13Z"/><path class="cls-8" d="M90.65,79s.63-.9,1.27-.91,1.37.59,1.24.84c0,.1-.38-.17-.79-.3a1.19,1.19,0,0,0-1.15.15C90.92,79,90.56,79.3,90.65,79Z"/><path class="cls-7" d="M90.63,80.76a19.17,19.17,0,0,1,1.2,2.4c-.07.15-.93.69-1.2.44s.59-.38.54-.7S90.26,80.09,90.63,80.76Z"/><path class="cls-18" d="M93.45,81.62c0,.2-.28.39-.67.42s-.71-.09-.73-.29.28-.39.67-.42S93.43,81.42,93.45,81.62Z"/><path class="cls-18" d="M89.2,82.09c0,.2-.28.39-.66.42s-.72-.09-.73-.29.27-.38.66-.42S89.18,81.9,89.2,82.09Z"/><path class="cls-18" d="M89.58,84.64a15.5,15.5,0,0,0,3-.44,2.44,2.44,0,0,1-1.12,1.28C90.69,85.75,89.75,85,89.58,84.64Z"/><path class="cls-19" d="M90,85.09a15.55,15.55,0,0,0,2.23-.32,3.6,3.6,0,0,0,.31-.57,15.5,15.5,0,0,1-3,.44A1.82,1.82,0,0,0,90,85.09Z"/><path class="cls-8" d="M82.3,195.14a2.08,2.08,0,0,0-.26.8c0,.34-.2,3,0,3h5.73c.26,0,.11-1.12-.18-1.46s-1.07-1.94-1.33-2.28a.36.36,0,0,0-.32-.14Z"/><path class="cls-17" d="M86.35,196.39H83.13a.72.72,0,0,0,0,1.43h3.22a.72.72,0,0,0,0-1.43Z"/><path class="cls-8" d="M119.57,197.7a.5.5,0,0,0-.33-.46l-1.73-.65-2.53-2a2.35,2.35,0,0,1-1.11.46c-.5,0-4.15-1.09-4.15-1.09l-.86,1.47a.68.68,0,0,0,.36,1c2,.72,7.1,2.55,7.41,2.55h2.47a.51.51,0,0,0,.5-.52Z"/><path class="cls-17" d="M118.43,197.69a.61.61,0,0,0,.46,0l.54-.28a.45.45,0,0,0-.19-.14l-1.73-.65s-.52.29-.84.49S118.43,197.69,118.43,197.69Z"/><path class="cls-5" d="M227,199H65.77a1.47,1.47,0,0,0,0,2.94H227a1.47,1.47,0,0,0,0-2.94Z"/><path class="cls-5" d="M57.76,199H41.63a1.47,1.47,0,0,0,0,2.94H57.76a1.47,1.47,0,0,0,0-2.94Z"/><path class="cls-5" d="M251.11,199H235a1.47,1.47,0,0,0,0,2.94h16.14a1.47,1.47,0,0,0,0-2.94Z"/></svg>