<svg xmlns="http://www.w3.org/2000/svg" viewBox="0 0 142.02 142.02"><defs><style>.cls-1{fill:#6c2911;}.cls-2{fill:#fff;}.cls-3{fill:#c7895e;}</style></defs><g id="Capa_2" data-name="Capa 2"><g id="Capa_1-2" data-name="Capa 1"><circle class="cls-1" cx="71.01" cy="71.01" r="71.01"/><circle class="cls-2" cx="71.01" cy="71.01" r="60.69"/><path class="cls-3" d="M65.35,71.14c.11,0,.17-.06.19-.1.65-.92,1.92-1.44,2.33-2.28s-.65-2-.83-3a5.26,5.26,0,0,1,1.44-4.63,2.7,2.7,0,0,0,.84-2q0-12.39,0-24.76c0-1.12-.23-1.68-1.46-1.52a4,4,0,0,1-1.33-.07,1.1,1.1,0,0,1-.89-1.07,1.16,1.16,0,0,1,.73-1.2c2.86-1.33,5.43.31,5.43,3.47,0,7.92,0,15.84,0,23.76,0,.51-.4,1.34.59,1.45S74,59.33,74,58c-.1-3.85,0-7.7,0-11.54,0-1.28.26-2.36,1.56-2.84.66-.23.62-.69.62-1.19,0-1.34,0-2.68,0-4,0-.84.23-1.61,1.27-1.61s1.28.71,1.28,1.59c0,1.28,0,2.56,0,3.84,0,.89.15,1.4,1.17,1.26,1.24-.17,2,.58,2.94,1.27,3.47,2.61,5,5.92,4.28,10.26a25.14,25.14,0,0,0,0,3c0,.8.14,1.18,1.08,1.22,1.11,0,1-.62,1-1.28V29.49c0-2.77.66-3.42,3.45-3.43,1.9,0,3.79,0,5.69,0s2.76.83,2.84,2.72c0,1.23-.37,2.69.17,3.62.64,1.1,2.24.25,3.41.47a2.34,2.34,0,0,1,2.21,2.47c0,.67.05,1.34,0,2-.07.89.1,1.36,1.17,1.52a2.14,2.14,0,0,1,1.73,2.35c0,3.12,0,6.25,0,9.37,0,.85-.25,1.61-1.28,1.61s-1.28-.73-1.28-1.6c0-2.62,0-5.24,0-7.86,0-.94,0-1.65-1.3-1.53-1,.09-1.54-.49-1.52-1.53,0-.17,0-.33,0-.5-.07-3.73-.07-3.73-3.69-3.77-1.92,0-2.16-.3-2.21-2.27,0-1.44.61-3.29-.26-4.2s-2.85-.3-4.33-.33c-2.54,0-2.3-.28-2.3,2.35q0,14,0,27.93a3.87,3.87,0,0,0,.8,2.61,5.44,5.44,0,0,1,.52,6.13c-.39.76-.33,1,.33,1.7a23.81,23.81,0,0,0,5.49,4.2c2.39,1.32,3,4.59,1.66,7.12-.43.83-.55,1.22.39,1.78a5,5,0,0,1,2.43,4q.35,3.5.64,7c.12,1.51-.5,2.51-2.11,2.6-.77,0-.91.4-.9,1,0,2.12,0,4.24,0,6.36,0,.81.29,1.07,1.07,1.07,3.17,0,6.35-.05,9.53,0,1.11,0,1.27-.51,1.26-1.43,0-3.12,0-6.24,0-9.37,0-8,0-15.94,0-23.92,0-1.22-.3-1.63-1.58-1.59-4.11.11-4,.38-3.93-4,0-2.23,0-4.46,0-6.69,0-.93.22-1.74,1.34-1.71s1.22.82,1.23,1.66c0,2.34,0,4.69,0,7,0,.94.3,1.33,1.25,1.25a11.64,11.64,0,0,1,1.67,0,2.34,2.34,0,0,1,2.52,2.67q0,18.41,0,36.8c0,1.26-.5,1.88-1.78,1.83-.73,0-1.45,0-2.18,0H32.43c-2.94,0-2.94,0-2.94-3,0-3.24,0-6.47,0-9.7,0-1,.07-2,1.28-1.94s1.24,1,1.25,2c0,2.9,0,5.8,0,8.7,0,1.06.28,1.48,1.4,1.46,3.4-.06,6.81,0,10.21,0,.93,0,1.28-.28,1.25-1.24-.07-2,0-4,0-6,0-.82-.2-1.18-1.09-1.25a2,2,0,0,1-1.93-2.42c.19-2.44.4-4.89.66-7.32a5.07,5.07,0,0,1,2.41-3.84c.72-.46.93-.72.46-1.62A5.69,5.69,0,0,1,49,72.46a2.33,2.33,0,0,0,1.69-1.35c.51-1.1,2.06-1.53,2.36-2.45s-.87-2-.93-3.23a5.84,5.84,0,0,1,9.7-4.8,5.58,5.58,0,0,1,1.5,6.4c-.58,1.26-.66,2,.68,2.72A6.2,6.2,0,0,1,65.35,71.14ZM49.22,99.29c0-1.29,0-2.57,0-3.85,0-1,0-1.91,1.29-1.89s1.21.94,1.21,1.82c0,2.56,0,5.13,0,7.69,0,.62-.22,1.41.87,1.43s1-.79,1-1.5c0-2.45,0-4.91,0-7.36,0-1.36.39-2.18,1.89-2,.89.09,1.19-.25,1.08-1.14-.22-1.88-.34-3.77-.59-5.65a3,3,0,0,0-3.13-2.86q-2.34-.07-4.68,0a3.17,3.17,0,0,0-3.26,3.13c-.17,1.77-.26,3.55-.47,5.32-.11.86.06,1.3,1,1.2,1.52-.16,1.92.65,1.89,2,0,2.56,0,5.12,0,7.68,0,.72.19,1.17,1,1.2s.91-.56.9-1.19ZM79,99.18c0-1.22,0-2.45,0-3.67,0-.93,0-1.94,1.22-2s1.28,1,1.28,1.92c0,2.45,0,4.9,0,7.35,0,.68-.39,1.7,1,1.66,1.19,0,.88-.94.89-1.59,0-2.46,0-4.91,0-7.36,0-1.3.42-2.07,1.82-1.93,1,.09,1.26-.31,1.15-1.26-.24-1.87-.34-3.77-.6-5.64A3,3,0,0,0,82.69,84c-1.55-.06-3.12,0-4.67,0A3.17,3.17,0,0,0,74.7,87c-.19,1.83-.29,3.67-.49,5.49-.08.79.11,1.19,1,1.1,1.62-.18,2,.71,2,2.12-.06,2.29,0,4.57,0,6.85,0,.81-.38,2,1.11,1.91s.71-1.15.76-1.78C79.08,101.53,79,100.35,79,99.18Zm1.26-27.92a6.56,6.56,0,0,1,2.06-2c.8-.39.65-.79.3-1.43-1.09-2-1.27-4.33.29-5.93s1.52-3.53,1.53-5.49c0-1.34,0-2.67,0-4a6.66,6.66,0,0,0-6.76-6.44c-1,0-1.31.39-1.3,1.38,0,4,0,8,0,12a2.37,2.37,0,0,0,.71,1.77,5.45,5.45,0,0,1,1.51,4.59C78.24,68.73,78.22,68.73,80.27,71.26ZM96.42,99.31c0,1.28,0,2.56,0,3.84,0,.62-.23,1.4.9,1.34s1-.68,1-1.38c0-2.51,0-5,0-7.52,0-1.37.4-2.16,1.9-2,.8.08,1.09-.23,1-1.06-.2-1.88-.28-3.77-.5-5.65a3.14,3.14,0,0,0-3.26-2.94c-1.5,0-3,0-4.51,0a3,3,0,0,0-3.28,2.87c-.26,1.88-.36,3.77-.58,5.65-.11.89.23,1.22,1.1,1.13,1.52-.14,1.9.73,1.88,2.07,0,2.45,0,4.9,0,7.34,0,.73-.12,1.52,1,1.48s.81-.88.81-1.47c0-2.61,0-5.23,0-7.85,0-.85.24-1.62,1.26-1.62s1.28.71,1.27,1.59C96.41,96.53,96.42,97.92,96.42,99.31Zm-29.78,0c0,1.17-.06,2.34,0,3.51,0,.59-.52,1.58.75,1.63s1.11-1,1.11-1.75c0-2.4,0-4.8,0-7.19,0-1.28.36-2.08,1.8-2,.88.08,1.18-.28,1.09-1.16-.2-1.83-.27-3.67-.48-5.5a3.15,3.15,0,0,0-3.22-3q-2.34-.07-4.68,0a3,3,0,0,0-3.16,2.84c-.27,1.87-.36,3.77-.58,5.65-.09.86.18,1.25,1.08,1.16,1.51-.14,1.92.71,1.9,2-.05,2.46,0,4.91,0,7.36,0,.72-.13,1.52,1,1.48s.8-.89.81-1.47c0-2.68,0-5.35,0-8,0-.81.36-1.45,1.27-1.44s1.25.61,1.25,1.45C66.64,96.44,66.63,97.89,66.64,99.34ZM87.83,70.83c-1.38.16-2.89-.34-4.2.55-.82.55-1.4,1-.11,1.89a5.58,5.58,0,0,1,1.87,7.51c-.34.69-.3.94.28,1.58,1.5,1.71,2.65,1.65,4.1,0,.47-.55.68-.72.33-1.43-1.51-3.06-.85-5.72,2-7.74,1-.7.64-1.07,0-1.61C90.8,70.5,89.29,71,87.83,70.83ZM58,70.83c-1.37.16-2.87-.34-4.19.56-.86.59-1.31,1-.06,1.9a5.55,5.55,0,0,1,1.83,7.51c-.46.89,0,1,.45,1.65,1.4,1.75,2.48,1.61,3.81,0,.43-.53.9-.66.47-1.54-1.53-3.05-.84-5.66,2-7.72.83-.61.68-1,.07-1.51C61.09,70.49,59.52,71,58,70.83ZM73,84.1a5.87,5.87,0,0,1,1.91-1.82c.82-.39.6-.76.28-1.4C73.71,78,74.37,75,77,73.26c1.12-.76.81-1.18,0-1.78a2.59,2.59,0,0,0-1.53-.59c-1.83,0-3.67,0-5.5,0a2.51,2.51,0,0,0-1.51.64c-.69.56-1.12,1,0,1.67,2,1.25,3.28,3.34,2.52,5.52C70.17,81.23,70.47,82.86,73,84.1ZM57.87,68.26a3.31,3.31,0,0,0,3.38-3.19,3.39,3.39,0,0,0-3.36-3.41A3.35,3.35,0,0,0,54.61,65,3.26,3.26,0,0,0,57.87,68.26Zm29.85,0A3.3,3.3,0,0,0,91,65a3.33,3.33,0,1,0-6.65,0A3.28,3.28,0,0,0,87.72,68.26ZM65.33,81.34a3.23,3.23,0,0,0,3.33-3.2,3.27,3.27,0,0,0-3.34-3.37,3.29,3.29,0,1,0,0,6.57Zm14.92,0a3.29,3.29,0,0,0,3.34-3.22,3.34,3.34,0,0,0-3.39-3.36A3.27,3.27,0,0,0,77,78.09,3.21,3.21,0,0,0,80.25,81.34Zm14.83,0a3.23,3.23,0,0,0,3.37-3.16,3.27,3.27,0,0,0-3.3-3.41,3.29,3.29,0,0,0-.07,6.57Zm-19-16.4a3.28,3.28,0,1,0-6.56,0,3.28,3.28,0,1,0,6.56,0ZM50.53,81.34A3.29,3.29,0,0,0,53.79,78a3.33,3.33,0,0,0-3.29-3.28,3.28,3.28,0,0,0-3.31,3.4A3.21,3.21,0,0,0,50.53,81.34Zm20.49,19a24.26,24.26,0,0,1,0,2.83c-.19,1.56.82,1.37,1.77,1.36s2,.25,1.89-1.43a32.59,32.59,0,0,1,0-5.5C74.8,96,73.91,96,72.86,96S70.75,96,71,97.65A18.14,18.14,0,0,1,71,100.31Zm-14.86,0c0,1,.06,2,0,3-.12,1.51.93,1.21,1.76,1.2s1.87.39,1.8-1.16a44.38,44.38,0,0,1,0-5.65c.13-1.55-.65-1.73-1.85-1.72s-1.92.25-1.72,1.68A21.43,21.43,0,0,1,56.16,100.3Zm33.31-.08c0-1-.07-2,0-3,.12-1.5-1-1.22-1.78-1.23s-1.84-.22-1.77,1.26a50.09,50.09,0,0,1,0,5.48c-.09,1.35.29,1.81,1.72,1.81s2-.33,1.84-1.84A18.8,18.8,0,0,1,89.47,100.22Z"/><path class="cls-3" d="M47.55,39.21c0-.61,0-1.21,0-1.82,0-.93.15-1.77,1.27-1.75S50,36.56,50,37.45V51c0,.67,0,1.34,0,2s-.25,1.48,1,1.5,1-.85,1.06-1.57c0-.5,0-1,0-1.51.1-1.42.83-2.36,2.3-2.34,1.19,0,1.36-.54,1.35-1.53,0-4.68,0-9.37,0-14,0-1.16.06-2.39,1.29-2.85a7.15,7.15,0,0,1,4.57,0,1,1,0,0,1,.5,1.28A1.2,1.2,0,0,1,61,32.8c-.86.14-2.13-.42-2.51.3s-.22,2-.22,3.1c0,4.35,0,8.7,0,13,0,2.06-.19,2.34-2.15,2.24-1.3-.06-1.57.38-1.55,1.6.09,4.1.39,3.91-3.86,3.89-.44,0-.89,0-1.33,0-1.38.08-1.87-.58-1.85-1.92,0-3.51,0-7,0-10.54a2.57,2.57,0,0,0-.82-2c-2-1.94-3.88-3.93-5.89-6a2.93,2.93,0,0,0-.29,1.86q0,10.88,0,21.75c0,2.23-.18,2.49-2.36,2.38-1.41-.07-1.79.38-1.73,1.76.11,2.78,0,5.57,0,8.36.05,1.61-.63,2.19-2.19,2.16-2.45-.06-2.3-.35-2.3,2.35Q32,82,32,87c0,1-.14,1.94-1.34,1.9s-1.2-1-1.2-1.86c0-4,0-8,0-12.05,0-1.9.85-2.78,2.79-2.69,1.34,0,1.7-.37,1.65-1.68-.09-2.61-.06-5.24,0-7.86,0-1.84.81-2.75,2.63-2.73,1.37,0,1.51-.57,1.51-1.7,0-9.31,0-18.62,0-27.93V29c0-.91.16-1.78,1.29-1.74s1.36.93,1.19,1.81c-.51,2.8.74,4.72,2.78,6.45a52.24,52.24,0,0,1,3.81,3.92Z"/></g></g></svg>