<svg xmlns="http://www.w3.org/2000/svg" viewBox="0 0 142.02 142.02"><defs><style>.cls-1{fill:#6c2911;}.cls-2{fill:#fff;}.cls-3{fill:#c7895e;}</style></defs><g id="Capa_2" data-name="Capa 2"><g id="Capa_1-2" data-name="Capa 1"><circle class="cls-1" cx="71.01" cy="71.01" r="71.01"/><circle class="cls-2" cx="71.01" cy="71.01" r="60.69"/><path class="cls-3" d="M56.14,119.68a2.3,2.3,0,0,1-.91-2.58c.3-1.21.53-2.45.94-3.62s1-2.13,1.6-3.46c-.83,0-1.54-.12-2.26-.12H37.76c-2.72,0-3-.32-3-3,0-1.45,0-2.9,0-4.35-.87-.14-.88.67-1.32.94a1.64,1.64,0,0,1-1.94.07,1.45,1.45,0,0,1-.59-2c1.36-2.43,2.69-4.88,4.2-7.21a1.48,1.48,0,0,1,2.63,0c1.47,2.27,2.79,4.65,4.1,7a1.54,1.54,0,0,1-.57,2.2,1.61,1.61,0,0,1-2.09-.28c-.28-.27-.34-.79-.87-.79a1.3,1.3,0,0,0-.16.37c-.23,3.61-.23,3.61,3.4,3.61,5,0,9.91-.23,14.83.08a13.08,13.08,0,0,0,9.32-3.06,10.34,10.34,0,0,1-3-7.33A9.39,9.39,0,0,1,69,87.51c.74-.28,1.4-.4,1.39-1.46,0-7.59,0-15.18,0-22.77,0-.4,0-.8-.08-1.48a14.74,14.74,0,0,1-1.25,1.34,1.51,1.51,0,0,1-1.94,0,1.43,1.43,0,0,1-.53-1.86,80.59,80.59,0,0,1,4.27-7.39c.89-1.3,2.11-.77,2.85.46,1.22,2,2.37,4.1,3.57,6.14.59,1,.81,2-.35,2.71s-1.86.14-2.44-.81c-.1-.18-.17-.38-.26-.57l-.48.17V85.27c0,.87-.16,1.66,1,2.16,7.46,3.11,9,9.77,3.73,16.1a13.36,13.36,0,0,0,9.29,3.08c5.2-.33,10.44-.09,15.67-.09,2.79,0,2.8,0,2.73-2.86,0-.38.18-.82-.22-1.15-.62,0-.65.66-1,.93a1.61,1.61,0,0,1-2.11.07,1.48,1.48,0,0,1-.46-2c1.34-2.35,2.62-4.76,4.09-7a1.53,1.53,0,0,1,2.76,0c1.43,2.22,2.72,4.54,4,6.85a1.57,1.57,0,0,1-.44,2.23c-1.34.87-2.14-.13-3.23-1.57v4.6c0,3-.32,3.31-3.39,3.31-5.78,0-11.56,0-17.34,0a4,4,0,0,0-2.33.29,27.33,27.33,0,0,1,2.42,6.38,3.66,3.66,0,0,1-.6,3.11Zm29.16-3.36a13.56,13.56,0,0,0-12.36-10.39,13.82,13.82,0,0,0-13.63,8.72c-.31.85-.88,1.7.83,1.69C68.48,116.3,76.81,116.32,85.3,116.32ZM72.05,90.37a6.09,6.09,0,0,0,.11,12.17,6.09,6.09,0,1,0-.11-12.17Z"/><path class="cls-3" d="M39.75,57.67c1.36-2.18,2.56-4.07,2.89-6.56.42-3.1,3-5.06,5.39-6.51,1.68-1,3.47,1.2,5.08,2.18,1,.61.58,1.73.28,2.67-.47,1.46-.94,2.92-1.35,4.39a2.67,2.67,0,0,1-1.11,1.7c-3.53,2.11-4.41,6.12-6.57,9.21-.41.59,0,1,.26,1.52C45.4,67.66,46.24,69,47,70.44c1.12,2.07,2.26,3.66,5,4.37,4.75,1.25,6.78,7.16,4.49,11.44-1,1.93-2.44,2-3.6.17-.74-1.18-1.43-2.39-2.08-3.62a1.3,1.3,0,0,0-1.92-.62,1.26,1.26,0,0,0-.36,2c.73,1.18,1.43,2.39,2.08,3.62,1,1.89.22,3.09-1.95,3a8.27,8.27,0,0,1-7.51-10.66,3.48,3.48,0,0,0-1-4.13l-3.31,5.74c-1.5,2.59-3.06,5.14-4.48,7.77-1,1.77-2.05,2-3.71.94s-3.58-2.13-5.41-3.14c-1.46-.79-1.76-1.8-.91-3.25,2.64-4.5,5.24-9,7.84-13.55a3.55,3.55,0,0,1,2.39-1.84,2.23,2.23,0,0,0,1.61-3.49c-.47-.86-1-1.68-1.45-2.54-1.11-2.09-2.29-3.67-5-4.4-4.78-1.3-6.79-7.16-4.46-11.44,1.06-1.95,2.4-2,3.57-.14.74,1.18,1.44,2.38,2.09,3.61a1.27,1.27,0,0,0,1.89.67,1.31,1.31,0,0,0,.42-2c-.75-1.25-1.51-2.5-2.18-3.8-.9-1.72-.2-2.8,1.77-2.84C36,42.2,40,47.43,38.76,52.51,38.1,55.13,38.1,55.13,39.75,57.67ZM29.37,87c.82-.09.93-.73,1.19-1.18C32.28,82.9,34,79.94,35.67,77c1.48-2.57,1.45-2.52-1.15-4-1.08-.63-1.63-.59-2.26.58-1.69,3.11-3.54,6.14-5.27,9.23-.38.68-1.41,1.51-.81,2.15A14.91,14.91,0,0,0,29.37,87Zm7.14-16.64c1.16-.18,1.26-1,1.57-1.51,2.46-4.2,4.88-8.42,7.3-12.63a4.65,4.65,0,0,1,1.87-2.18c2-.9,2-2.85,2.59-4.51a.84.84,0,0,0-.36-1.08c-.34-.2-.67-.3-.93,0-1,1.21-2.69,2-2.72,3.78a9.25,9.25,0,0,1-1.65,4.63c-2.25,3.84-4.45,7.7-6.67,11.55C37.19,69,36.92,69.59,36.51,70.37ZM44.19,83c1.06-1.28,1.37-3,2.68-4s3.16,0,4.92-.66a3.67,3.67,0,0,0-2.32-.85c-2,.3-2.85-.89-3.65-2.4C44.69,73,43.44,71,42.23,68.87a1.85,1.85,0,0,0-.43,2.86c1,1.57,1.86,3.27,2.85,4.86a2.85,2.85,0,0,1,.11,3.47A3.52,3.52,0,0,0,44.19,83ZM36.64,62.74A1.78,1.78,0,0,0,37.11,60c-.78-1.14-1.36-2.42-2.11-3.58a2.74,2.74,0,0,1-.1-3.27c.81-1.32.72-1.45.38-3.41-1,4-3.35,5.59-7.49,4.58,1.79,2.07,4.64.33,5.7,2.91A50.93,50.93,0,0,0,36.64,62.74Z"/><path class="cls-3" d="M89.63,40.41c-10.26,2.87-20.36,4.28-30.76,1.41-6.28-1.72-5.59,0-5.64-7,0-2-.07-4,0-6.05.06-1.15-.41-1.6-1.44-1.83-1.56-.36-3.09-.8-4.64-1.21A1.7,1.7,0,0,1,45.68,24c0-1,.7-1.46,1.56-1.69Q59,19.2,70.8,16.09a3.84,3.84,0,0,1,2,.22c7.39,2,14.78,3.92,22.16,5.9,2.51.67,2.72,1.33,1.12,3.47a2.41,2.41,0,0,0-.29,1.58c0,1.81,0,3.62,0,5.43s-.13,3.3,1.91,4.06c.8.29.84,1.21.85,2,0,2.44.05,4.87,0,7.31-.06,2.12-1.31,2.83-3,1.61a2,2,0,0,0-2.88,0c-1.63,1.24-3,.54-3-1.51C89.57,44.26,89.63,42.39,89.63,40.41Zm-3.38-7.14a28.62,28.62,0,0,1,0-2.93c.16-1.6-.26-2.06-1.94-1.56-3.53,1.07-7.13,1.87-10.68,2.89a7.39,7.39,0,0,1-4.27,0c-3.75-1.07-7.53-2-11.28-3-1-.28-1.57-.21-1.53,1.07.08,2.3.06,4.6,0,6.9,0,.94.33,1.31,1.26,1.52,7.93,1.81,15.83,2.94,23.93.66C86.17,37.57,86.25,37.84,86.25,33.27Zm2.09-9-.07-.35c-4-1.09-8.09-2-12-3.3a15.15,15.15,0,0,0-9.73,0c-3.94,1.27-8,2.2-12.58,3.44,6,1.58,11.3,3,16.66,4.41a3.74,3.74,0,0,0,1.85,0C77.75,27.1,83,25.67,88.34,24.25ZM89.61,37c2.33-.67,3.2-2,2.89-4.2-.19-1.37,0-2.78-.07-4.17,0-.62.54-1.76-.7-1.73-1,0-2.23.09-2.15,1.81C89.7,31.45,89.61,34.16,89.61,37ZM93,41.13c.44.44-.79,1.69,1,1.76s1.25-1,1.25-1.88.38-2.24-1-2.31C92.62,38.63,93.08,40.06,93,41.13Z"/><path class="cls-3" d="M123.86,68c.3,1.8,0,3.11-2.07,3.91a2.51,2.51,0,0,0-1.2,3.38c1.29,2.6-1,3.39-2.14,4.81a2.52,2.52,0,0,1-3.31.75,2.66,2.66,0,0,0-3.69,1.62c-.83,2.3-2.65,1.56-4.2,1.67s-2.75.15-3.43-1.6A2.71,2.71,0,0,0,100,80.89a2.45,2.45,0,0,1-3.13-.74c-.6-.68-1.27-1.29-1.91-1.93a2,2,0,0,1-.46-2.46,3,3,0,0,0-1.66-4.18,2.31,2.31,0,0,1-1.54-2.43c.06-2.22-.58-4.59,2.53-5.64a2.48,2.48,0,0,0,.81-3.3c-1-1.62,0-2.61,1.12-3.55s2-2.94,4.32-1.85a2.61,2.61,0,0,0,3.71-1.57c.7-1.86,2.08-1.79,3.56-1.71s3.3-.53,4.17,1.74a2.74,2.74,0,0,0,3.92,1.48,2.21,2.21,0,0,1,2.8.58c1.52,1.61,3.74,2.82,2.22,5.75a2.31,2.31,0,0,0,1.23,2.63C124,64.44,124.14,66.05,123.86,68Zm-6.62-8.4c-.29-.84-.57-1.48-1.73-1.22a7.41,7.41,0,0,1-6.76-2.73c-.79-1.2-1.54-1.27-2.3.09-.91,1.6-4.69,3.2-6.42,2.79s-2.11.14-1.7,1.73-1.26,5.53-2.61,6.33-1.49,1.62-.08,2.46,3.09,4.77,2.71,6.28c-.42,1.7.06,2.17,1.79,1.77,1.56-.37,5.45,1.33,6.28,2.75s1.6,1.29,2.45-.14c.75-1.26,4.74-3,6.18-2.64,1.85.43,2.26,0,1.85-1.72-.37-1.56,1.29-5.44,2.7-6.3s1.33-1.64-.12-2.46c-.58-.32-1.15-.66-1.25-1.3C118,63.38,115.77,61.84,117.24,59.6Z"/><path class="cls-3" d="M98.23,67.88a9.4,9.4,0,0,1,9.35-9.48,9.44,9.44,0,1,1,.1,18.88A9.43,9.43,0,0,1,98.23,67.88Zm3.37-.12a6,6,0,0,0,6,6.14,6.07,6.07,0,0,0,.14-12.13A6,6,0,0,0,101.6,67.76Z"/></g></g></svg>