<svg id="Capa_1" data-name="Capa 1" xmlns="http://www.w3.org/2000/svg" viewBox="0 0 219.64 207.54"><defs><style>.cls-1{fill:#c8895e;}</style></defs><path class="cls-1" d="M126.52,115.37c1.11-5.27,2.15-10.29,3.23-15.29.3-1.39-.66-2.06-1.41-2.89-5.46-6.1-4.42-13.31-3.45-20.49a4.41,4.41,0,0,1,2.24-3.39c3.62-1.58,3.29-4.57,3.21-7.59,0-1.51-.07-3,0-4.55a9.1,9.1,0,0,1,18.17-.2c.07.76,0,1.52,0,2.28,0,2.15-.52,4.52.21,6.39.86,2.17,3.58.61,5.4,1.33,3.63,1.43,6.17,3.86,6.4,7.71C161,85.74,161.7,93,155.47,98.4c-1.25,1.09-.8,2.59-.8,3.92,0,12.15,0,24.29,0,36.43,0,10.37-5.23,18.3-14.18,21.61-9.14,3.38-18.19.66-25-7.49-.85-1-1.48-2.3-3.28-3.07v9.94c0,11.76-.06,23.52,0,35.29,0,2.39-.54,3.23-3.11,3.22q-36.42-.15-72.85,0c-2.54,0-3.17-.79-3.12-3.21.15-6.7,0-13.41.06-20.11,0-1.41,0-2.56-1.66-3.36C16.74,164.62,13.43,152,15.29,138.16c3.05-22.8,17.89-39.51,40.13-45.23,2.4-.62,2.89-1.92,3.44-3.76.63-2.13-1.1-2.52-2.29-3.33a17.8,17.8,0,0,1-8-12.38c-.29-1.82-.7-2.65-2.73-3.15-7.91-2-11.54-9.09-8.56-16.71a7.93,7.93,0,0,0,.1-5.13c-3.08-12.46.51-20,12.22-25.34A5.47,5.47,0,0,0,52,20.89C60.29,8.4,74.6,6.25,86.4,15.77a3.57,3.57,0,0,0,3.35,1c9.14-1.87,16.21,1.9,18.66,9.79s-1.38,15.19-9.68,19c-.32.15-.62.34-1,.55,8.74,2.64,12.87,8.45,11,15.4a11.69,11.69,0,0,1-9.36,8.91c-1.85.38-2.34,1.06-2.6,2.83a17.68,17.68,0,0,1-8.44,12.89c-1.21.77-2.49,1.37-1.83,3.19.54,1.47.55,3,2.79,3.47a63.36,63.36,0,0,1,36,21.7A9.57,9.57,0,0,0,126.52,115.37Zm-34,.34.42,1.21c.78.81,1.55,1.64,2.35,2.44,5.89,5.92,5.9,5.92,1.34,13.14a3.84,3.84,0,0,1-.42.63c-2,2.17-2.39,4.75-2.36,7.66.12,12.65.07,25.3,0,38,0,4.68-2.14,7.23-6.35,7.26q-18,.15-36.06,0c-3.76,0-6-2.47-6.18-6.29a19.41,19.41,0,0,1,0-3.41c.33-2.6-1.34-2.4-3.06-2.43s-3.18-.15-3.06,2.42a124.48,124.48,0,0,1,0,12.52c-.15,2.71.74,3.36,3.38,3.34q29.79-.17,59.58,0c3.15,0,4-.76,4-3.94-.16-19.86,0-39.72-.13-59.58,0-2.56.51-3.45,3.28-3.48s3.2,1.35,2.85,3.45c-1.33,7.91,1.41,14.25,7.27,19.46a13.62,13.62,0,0,1,1,1.15c5.07,5.88,11.45,7.83,17.94,5.47s10.2-8.13,10.23-15.74c0-9.74,0-19.48,0-29.23,0-8.74,0-8.51-8.88-8.83-3.42-.12-4.18,1.31-4.75,4.11-2.25,11.15-4.72,22.25-7,33.38-.48,2.32-1.43,2.71-3.61,2.18-2-.49-3.21-.86-2.48-3.39,1-3.4,1.57-6.9,2.27-10.36.3-1.47.58-2.89-.43-4.35a58.81,58.81,0,0,0-16.86-16.18c-1.28-.82-2.41-1.22-2.47.89C104.13,114.52,101.15,118.47,92.54,115.71ZM90.86,60.14c0-3.67-.11-7.34,0-11,.08-2.09-.49-2.92-2.72-2.83-4,.17-8.1,0-12.14,0a13.5,13.5,0,0,1-9.76-3.49c-1.83-1.76-3.59-1.53-5.54-.94-3.84,1.17-6.22,4.52-6.27,9-.08,6.58-.12,13.16,0,19.73a12,12,0,0,0,12,12.11c4,.12,8.1.11,12.14,0,7.07-.18,12-5.23,12.19-12.36C90.92,67,90.85,63.56,90.86,60.14Zm-3,95.45c0-6.83-.21-13.66.09-20.47.15-3.4-1.11-4-4.08-3.8-3.5.23-1.93,2.74-2,4.2-.22,6-2.1,8-8,8H67c-8.08,0-9.44-1.21-9.5-9.38,0-2.54-1-2.81-3.12-2.83s-3.26.39-3,2.88c.22,2.64,0,5.31,0,8,0,7,0,7,6.75,7.44a12.15,12.15,0,0,1,1.13,24.14,22.28,22.28,0,0,1-5.29.12c-2.34-.22-2.72.89-2.64,2.89S51.23,180.06,54,180c10.36-.17,20.72-.12,31.09,0,2.18,0,2.78-.67,2.74-2.79C87.75,170,87.82,162.79,87.82,155.59ZM49,29.83c-5.44,4.12-7.45,8.45-6.44,13.94.21,1.12-.15,3.49,1.78,3.08,1.73-.37,4.18.52,5.21-2.06A14.77,14.77,0,0,1,59.35,36c1-.33,1.86-.53,1.48-2-.26-1-1.17-2.88,1.09-2.7,1.75.14,4.16-1.51,5,2.06,1.16,4.7,4.41,6.88,9.18,6.94,5.69.07,11.38.08,17.06,0,5.1-.07,8.93-3.26,9.7-7.89a8.85,8.85,0,0,0-5.27-9.54c-4.22-1.81-8.3-.41-11.33,4.11-1.22,1.83-2,3.12-4.54,1.36-2.38-1.62-2.37-2.89-.64-4.65,2.41-2.43,1.08-3.79-1.21-5.15a16.38,16.38,0,0,0-25,12.44c-.1,1.35.52,4-2.62,3.39C50.27,33.93,47.45,34.61,49,29.83Zm-8.51,76.72c-13.31,8.52-22,28.27-19.19,43.39a20.83,20.83,0,0,0,13.23,16.33c4.47,1.84,4.67,1.65,4.67-3.26,0-1.4-.1-2.8,0-4.18.2-2.29-.28-3.94-2.52-5.26a7.6,7.6,0,0,1-3.55-6.77c-.06-6.45,0-12.9,0-19.35,0-1.63.54-2.07,2.16-2.23,3-.3,4.22.51,4,3.84-.3,5.68-.1,11.38-.05,17.07,0,2.59,1.61,3.39,4,3.47,3,.12,1.95-2,2-3.4a102.84,102.84,0,0,0,0-11.38c-.22-2.77,1.31-5.47.32-8.14-.65-1.75-.14-2.75,1-4,1.95-2,4.31-3.68,6-6.69-3.43,0-6.91,1-9.08-.26-2.51-1.45-1.43-5.56-2.53-8.35C40.89,107.19,40.75,107,40.52,106.55ZM153.91,88.87h-5.29c-8.34,0-10-1.26-12.28-9.51-.46-1.66-1.47-2.72-3.22-2.54a2.87,2.87,0,0,0-2.72,3.08,63.93,63.93,0,0,0,.11,8.31c.54,4.47,3.36,6.7,7.89,6.71,2.9,0,5.8,0,8.7,0C151.35,94.9,152.9,93.57,153.91,88.87ZM52.27,167.78c1.76,0,3.53.1,5.28,0a6,6,0,0,0-.08-12c-2.38-.13-4.77-.07-7.16,0-5.8.1-4.92-.82-5,5C45.29,167.8,45.33,167.8,52.27,167.78ZM72.92,88.87c-1.88,0-3.77.14-5.64,0s-2.3.84-2.73,2.28c-.5,1.66.2,2.31,1.52,3.26,4.41,3.2,8.59,3.18,13,.07,1.23-.87,2.25-1.39,1.72-3.17-.47-1.58-1-2.7-3-2.44A39.86,39.86,0,0,1,72.92,88.87Zm69.54-22.64c0-1.78.06-3.16,0-4.54-.11-1.89-1.13-3.14-3.06-3.09s-2.88,1.34-2.94,3.23c0,1.38,0,2.76,0,4.14.08,2.59-1,6.42,2.9,6.46C143.55,72.49,142.3,68.5,142.46,66.23ZM91.08,99.75c-.2,2.43-.48,4.9-.57,7.38,0,1-1.33,2.87.88,2.85s4.78,1.39,6.19-.93c2.62-4.32,1.32-7.26-3.5-8.77C93.15,100,92.26,99.36,91.08,99.75ZM69.54,137.43c.63,0,1.26,0,1.88,0,2.09-.08,4.4.85,4.39-3s-2.38-2.92-4.43-3c-1.5,0-3,.07-4.52,0-2.11-.13-3.44,0-3.42,2.88s.93,3.57,3.47,3.21A19.21,19.21,0,0,1,69.54,137.43ZM54.12,99.52c-1.65.59-3.19,1.08-4.68,1.7-3,1.26-3.62,3.81-1.83,7.72.44,1,5.74,1.73,6.92,1,.72-.42.54-1,.49-1.63C54.74,105.52,54.44,102.67,54.12,99.52Zm95.11-16.76h0a6.34,6.34,0,0,0,1.51,0c1.5-.35,4.08,1.28,3.91-2.22-.13-2.7-1.41-3.87-4-3.81-1.63,0-3.27,0-4.9,0-1.9.08-3.16,1.11-3.12,3s1.34,2.88,3.24,2.94C147,82.79,148.1,82.76,149.23,82.76ZM77.3,125.15c-1.15-3.67-2.23-7.11-3.34-10.54-.18-.58-.41-1.25-1.14-1.35-1-.12-1.26.7-1.49,1.39-1.11,3.42-2.18,6.87-3.33,10.5Zm-29-66.71a9,9,0,0,0,0-1.87c-.28-1.34.93-3.47-.86-3.88s-3.26,1.05-4.22,2.64A5.68,5.68,0,0,0,43.51,62c1,1.38,2.46,2.68,4.05,2.27s.49-2.36.76-3.6A11.26,11.26,0,0,0,48.34,58.44ZM97,58.52a9,9,0,0,0,0,1.87c.27,1.35-.9,3.53.84,3.89s3.44-1.19,4.41-3a5.6,5.6,0,0,0-.44-6.36c-1-1.38-2.44-2.68-4-2.29S97.25,55,97,56.27A11.26,11.26,0,0,0,97,58.52ZM64,117.36c.65-1.94,1.25-3.68,1.82-5.42.51-1.57-.45-2.62-1.43-3.59s-1.69-.09-2.35.31c-1.35.83-.41,2-.17,3C62.3,113.55,62.41,115.59,64,117.36Zm17.34.14c1.52-2,1.73-4.06,2.16-6,.23-1,1.15-2.16-.3-2.94-.71-.39-1.52-1.09-2.34-.16s-1.79,1.84-1.37,3.26C80,113.47,80.59,115.23,81.32,117.5Zm6,3-2.12,4.74c3.07-.44,5.28,1,8,1.58C91.54,124,90.54,122.9,87.3,120.5Zm-29.52,0a19.81,19.81,0,0,0-4.54,4.67h6.42A9.33,9.33,0,0,0,57.78,120.45Z"/><path class="cls-1" d="M182.08,28.14c-6.19,0-12.39-.13-18.58.06-2.52.07-2.88-.94-2.86-3.09s.25-3.16,2.82-3.13q18.58.21,37.17,0c2.82,0,2.57,1.43,2.65,3.29s-.24,3-2.61,2.93C194.48,28,188.28,28.14,182.08,28.14Z"/><path class="cls-1" d="M182,46.36c-6.07,0-12.15-.13-18.21,0-2.54.08-3.18-.75-3.15-3.19,0-2.26.53-3,2.95-3q18.39.19,36.79,0c2.39,0,2.94.73,3,3s-.58,3.28-3.14,3.21C194.12,46.23,188.05,46.36,182,46.36Z"/><path class="cls-1" d="M176,64.57c-4.3,0-8.6-.13-12.89.06-2.58.11-2.47-1.32-2.45-3.08s-.23-3.17,2.39-3.12c8.6.14,17.19.12,25.79,0,2.38,0,2.34,1.28,2.23,2.88s.66,3.41-2.18,3.3C184.62,64.46,180.32,64.57,176,64.57Z"/><path class="cls-1" d="M156.67,14.69a21.88,21.88,0,0,1-1.53,2c-3.64,3.68-7.36,7.28-10.95,11-1.26,1.3-2.16,1.4-3.37,0s-2.67-2.68-4-4-3.09-2.19-.81-4.47c2-2,3.36-2.25,5,.08,1,1.43,1.94,1.08,3-.06,2.08-2.2,4.24-4.33,6.44-6.42.73-.69,1.32-2.22,2.71-1.25A36.21,36.21,0,0,1,156.67,14.69Z"/><path class="cls-1" d="M156.43,33.41c-.47.55-.91,1.15-1.42,1.67-3.57,3.58-7.2,7.09-10.69,10.75-1.36,1.43-2.32,1.55-3.63,0a27.21,27.21,0,0,0-4-4c-2.33-1.81-2-3.18.05-5,1.48-1.32,2.48-1.54,3.64.07,1.52,2.13,2.82,1.75,4.4-.06,1.82-2.08,3.87-4,5.88-5.9.66-.63,1.25-2,2.41-1.19A9.69,9.69,0,0,1,156.43,33.41Z"/><path class="cls-1" d="M203.16,61.57c.66,2.73-.82,3-3.1,3.09-2.79.16-2.89-1.18-3-3.35-.11-2.49.87-2.88,3.07-2.91C202.54,58.38,203.77,59,203.16,61.57Z"/><path class="cls-1" d="M70.38,76.72C68.14,77.1,66,77,66.47,73c.23-2.07.91-2.54,2.74-2.41,4.26.3,7.93-.15,9.64-5.17.66-1.94,3.45-1,5.07-.7,1.79.38.64,2.08.34,3.14C82.61,73.71,78,76.71,70.38,76.72Z"/><path class="cls-1" d="M66.57,55.33c-.18,1.86-1.13,3.09-3.07,3.09a2.74,2.74,0,0,1-2.92-2.82,2.77,2.77,0,0,1,3-3.11C65.33,52.48,66.26,53.62,66.57,55.33Z"/><path class="cls-1" d="M78.74,55.57c.12-1.75,1-2.93,2.73-3.07a3,3,0,1,1,.2,5.92C79.93,58.4,79,57.25,78.74,55.57Z"/></svg>