<svg id="Capa_1" data-name="Capa 1" xmlns="http://www.w3.org/2000/svg" viewBox="0 0 282.25 210.74"><defs><style>.cls-1{fill:#fffdfc;}.cls-2{fill:#6c2910;}.cls-3{fill:#c7804d;}.cls-4{fill:#dad49d;}.cls-5{fill:#9e986f;}.cls-6{fill:#96fff4;}.cls-7{fill:#ff9b57;}.cls-8{fill:#222241;}.cls-9{fill:#db8449;}.cls-10{fill:#d17323;}.cls-11{fill:#ffb055;}</style></defs><path class="cls-1" d="M140.48,120.3l-.93,0c.85,4.23-6.39,7.55-6.39,7.55,12.06-.52,18.15-7.91,18.15-7.91,22.14-2,34.88-12,34.88-29.48,0-19.59-16-29.84-43.26-29.84S99.67,70.9,99.67,90.49C99.67,109.48,114.7,119.69,140.48,120.3Z"/><path class="cls-2" d="M176.32,70.33l.93,0c-.85,4.24,6.38,7.56,6.38,7.56-12-.52-18.14-7.91-18.14-7.91-22.14-2-34.89-12-34.89-29.48,0-19.59,16-29.85,43.27-29.85s43.25,10.26,43.25,29.85C217.12,59.51,202.1,69.73,176.32,70.33Z"/><path class="cls-3" d="M101.11,39.59c0,15.13,14.64,22.4,33.29,23.11h0c4.37,4.82-1.59,8.46-1.59,8.46,11.66-.5,19.86-10,19.86-10,12.51-2.92,21.2-9.92,21.2-21.57,0-16-16.29-28.91-36.38-28.91S101.11,23.63,101.11,39.59Z"/><path class="cls-4" d="M208.18,200.67l0,.08H84.79a13,13,0,0,1,6.72-7.41c3.45-1.74,7.35-2.33,11.18-2.9A30.52,30.52,0,0,1,96,177.77c-.91-3.57-.84-8,2.19-10.12,2-1.39,4.71-1.24,7.08-.69a25.92,25.92,0,0,1,11.61,6,52.15,52.15,0,0,1,.93-19.32c.91-3.82,2.8-8.06,6.6-9,3.44-.9,6.94,1.34,9.39,3.92A28.73,28.73,0,0,1,141,162.25c3.85-6.84,7.85-13.86,14-18.71,3.26-2.56,7.8-4.46,11.47-2.53,2.61,1.36,4,4.35,4.29,7.28a26.49,26.49,0,0,1-1.17,8.68q-1.44,5.75-2.87,11.46A42.12,42.12,0,0,1,182,162.6c2.2-.37,4.59-.53,6.53.57,2.68,1.51,3.64,5.07,3,8.09s-2.4,5.64-4.17,8.17l-5,7.12a20.76,20.76,0,0,1,25.73,14.12Z"/><path class="cls-2" d="M127.34,164.07v36.37a.37.37,0,0,0,.73,0V164.06A.37.37,0,0,0,127.34,164.07Z"/><path class="cls-2" d="M163,183.09q-3.35,4.2-6.38,8.65V180.57a.32.32,0,0,0,0-.19c1.67-2.69,3.45-5.32,5.33-7.86.28-.38-.35-.74-.63-.37-1.67,2.25-3.25,4.57-4.75,6.93v-17a.36.36,0,0,0-.72,0v17.73c-2.59-1.25-5.39-2-7.92-3.4a.36.36,0,0,0-.36.63c2.64,1.45,5.59,2.22,8.28,3.58v11c-2.32-1.31-4.6-2.68-6.83-4.13-.4-.25-.76.38-.37.63,2.35,1.53,4.75,3,7.2,4.34V200a.36.36,0,0,0,.72,0V193a.12.12,0,0,0,0-.05q3.24-4.8,6.84-9.34C163.76,183.24,163.25,182.72,163,183.09Z"/><path class="cls-2" d="M134,168.33a95.13,95.13,0,0,0-6.54,9c-.26.39.38.76.63.36a94.78,94.78,0,0,1,6.42-8.87C134.75,168.49,134.24,168,134,168.33Z"/><path class="cls-2" d="M134.65,185.65a100.67,100.67,0,0,0-7.17,8.79c-.28.38.35.74.63.37a98.87,98.87,0,0,1,7.06-8.64C135.48,185.82,135,185.3,134.65,185.65Z"/><path class="cls-2" d="M127.77,186.18A22.53,22.53,0,0,0,125,183l-3-3.27c-.32-.35-.84.16-.52.51l3,3.18,1.46,1.57a11.78,11.78,0,0,1,1.31,1.59C127.39,186.93,128,186.57,127.77,186.18Z"/><path class="cls-2" d="M127.94,170.42q-2.66-3-5.58-5.73c-.34-.32-.86.19-.52.51q2.93,2.75,5.58,5.73C127.73,171.28,128.25,170.77,127.94,170.42Z"/><path class="cls-5" d="M128.42,200.68H12.49c-.56-3.36,2.64-6.4,5.83-7.85a23.87,23.87,0,0,1,16-1.31c-3-3.27-5.79-6.85-7-11.09s-.65-9.28,2.53-12.35c2.88-2.78,7.37-3.43,11.24-2.38s7.18,3.58,10,6.45a29.09,29.09,0,0,1-.08-21c1.2-3.1,3.51-6.36,6.85-6.49a7.83,7.83,0,0,1,4.65,1.7,21.66,21.66,0,0,1,7.49,10.77,64.14,64.14,0,0,1,2.53,13.07A23.74,23.74,0,0,1,79.33,162c3-2.18,7-3.65,10.22-1.89s4.14,5.8,4.36,9.4a46.07,46.07,0,0,1-1.3,13.79,26.48,26.48,0,0,1,13-5.53,18.91,18.91,0,0,1,13.52,3.46C125,185.7,127.12,193.43,128.42,200.68Z"/><path class="cls-6" d="M59.67,188.92V179.4a.25.25,0,0,0,.13-.12A114.73,114.73,0,0,1,66.62,169c.28-.38-.35-.74-.63-.37q-3.39,4.57-6.32,9.47V155.7a.37.37,0,0,0-.73,0v32.38c-2.62-2.71-5.18-5.49-7.64-8.35-.31-.35-.83.16-.52.52q3.94,4.56,8.16,8.89v10.6a.37.37,0,0,0,.73,0v-2.57a63.4,63.4,0,0,1,6.11-7.47c.33-.34-.18-.86-.51-.52a64.79,64.79,0,0,0-5.6,6.76v-6.87A.22.22,0,0,0,59.67,188.92Z"/><path class="cls-6" d="M87.85,178.05a88.56,88.56,0,0,0-5.41,7.74c0-2.06.09-4.12.16-6.18s.12-3.81.19-5.72c0-.46-.71-.46-.73,0q-.34,9.4-.49,18.81a53.31,53.31,0,0,1-6.77-4.44c-.38-.29-.74.35-.37.63a54.67,54.67,0,0,0,7.12,4.64c0,.19,0,.39,0,.59,0,1.91-.05,3.81-.07,5.72,0,.47.72.46.73,0,0-2.15,0-4.29.08-6.44a.33.33,0,0,0,0-.17q0-3.06.12-6.13a.3.3,0,0,0,.15-.13,84.79,84.79,0,0,1,5.81-8.4C88.65,178.21,88.14,177.69,87.85,178.05Z"/><path class="cls-2" d="M44.94,188.81q-2.36,2.82-4.45,5.84.21-3.84.32-7.68c0-.47-.71-.47-.72,0q-.21,6.75-.66,13.47c0,.47.7.47.73,0,.1-1.57.19-3.13.27-4.7a.35.35,0,0,0,.29-.16,77.17,77.17,0,0,1,4.74-6.25C45.75,189,45.25,188.45,44.94,188.81Z"/><path class="cls-5" d="M271,201H155.06c-.55-3.37,2.64-6.41,5.83-7.86a23.87,23.87,0,0,1,16-1.3c-3-3.28-5.79-6.86-7.05-11.09s-.65-9.29,2.53-12.36c2.88-2.77,7.37-3.42,11.24-2.37a22.6,22.6,0,0,1,10,6.44,29.12,29.12,0,0,1-.08-21c1.2-3.11,3.52-6.37,6.85-6.49a7.76,7.76,0,0,1,4.65,1.69,21.64,21.64,0,0,1,7.49,10.78A64.06,64.06,0,0,1,215,170.5a23.61,23.61,0,0,1,6.9-8.15c2.95-2.18,7-3.64,10.22-1.89s4.14,5.8,4.36,9.41a45.68,45.68,0,0,1-1.29,13.78,26.5,26.5,0,0,1,13-5.53,18.87,18.87,0,0,1,13.52,3.47C267.56,186.05,269.69,193.78,271,201Z"/><path class="cls-6" d="M202.24,189.26v-9.51a.43.43,0,0,0,.14-.13,115.32,115.32,0,0,1,6.81-10.3c.28-.38-.35-.74-.63-.37-2.26,3.05-4.37,6.22-6.32,9.48V156.05a.36.36,0,0,0-.72,0v32.38c-2.63-2.71-5.19-5.48-7.65-8.34-.31-.36-.83.16-.52.51q3.94,4.58,8.17,8.89v10.6a.36.36,0,0,0,.72,0v-2.56a63.68,63.68,0,0,1,6.11-7.48c.33-.34-.18-.86-.51-.52a64.79,64.79,0,0,0-5.6,6.76v-6.87A.22.22,0,0,0,202.24,189.26Z"/><path class="cls-2" d="M230.43,178.4a86.41,86.41,0,0,0-5.42,7.73c.05-2.06.09-4.12.16-6.18.06-1.9.12-3.81.19-5.71,0-.47-.71-.47-.73,0q-.34,9.4-.49,18.81a53.31,53.31,0,0,1-6.77-4.44c-.37-.28-.74.35-.37.63a53.66,53.66,0,0,0,7.12,4.64c0,.2,0,.4,0,.59,0,1.91-.05,3.82-.07,5.72a.37.37,0,0,0,.73,0q0-3.23.08-6.45a.29.29,0,0,0,0-.16q0-3.08.12-6.13a.33.33,0,0,0,.15-.14,84.65,84.65,0,0,1,5.81-8.39C231.22,178.55,230.71,178,230.43,178.4Z"/><path class="cls-6" d="M187.51,189.16c-1.57,1.87-3,3.83-4.44,5.83q.19-3.83.32-7.68c0-.47-.72-.46-.73,0q-.21,6.74-.66,13.47c0,.46.7.46.73,0,.11-1.56.19-3.13.27-4.69a.38.38,0,0,0,.29-.16,75.46,75.46,0,0,1,4.74-6.25C188.33,189.32,187.82,188.8,187.51,189.16Z"/><path class="cls-4" d="M99.08,133.14a.09.09,0,0,1,0,.05h0q1.53,21.36,1.85,42.8l0,5.81c0,2.21,0,4.43,0,6.64a34.83,34.83,0,0,1-17.26,5.45,74,74,0,0,1-18.86-1.68,44,44,0,0,1-11.82-3.62q.47-9.37.69-18.75L54.05,152q-5.4-1.51-10.87-2.72l-.19,0-.18,0a163.1,163.1,0,0,1,4.85-22.4c.88-3.08,1.87-6.21,3.87-8.7,3.37-4.19,8.88-5.8,13.63-8.34a9.34,9.34,0,0,0-.19,1.58,11.29,11.29,0,0,0,2.13,7c4.44-1.08,9.38-.8,13.24,1.59l.46.35.11.09c.09-.22.18-.45.26-.67s.26-.31.4-.46a10.55,10.55,0,0,1,6.21-3.12,12,12,0,0,0-3-6.27l18.78,8.75c-.07.18-.12.38-.18.57Q101.22,126.19,99.08,133.14Z"/><path class="cls-4" d="M101,188.44a34.83,34.83,0,0,1-17.26,5.45,74,74,0,0,1-18.86-1.68,44,44,0,0,1-11.82-3.62q.47-9.37.69-18.75L54,152.68l2.54,0,10-21.26,34.19,35.36q.12,4.59.19,9.17l0,5.81C101,184,101,186.23,101,188.44Z"/><path class="cls-2" d="M84.76,109.91a12,12,0,0,1,3,6.27,10.55,10.55,0,0,0-6.21,3.12c-.14.15-.27.3-.4.46.52-1.36,1-2.72,1.42-4.11a9,9,0,0,0,.45-2.11,9.67,9.67,0,0,0-.23-2.27c-.19-1.06-.38-2.12-.56-3.18l.31,0A11.59,11.59,0,0,1,84.76,109.91Z"/><path class="cls-2" d="M68,108.71A99.13,99.13,0,0,0,80.34,120c-3.86-2.39-8.8-2.67-13.24-1.59a11.29,11.29,0,0,1-2.13-7,9.34,9.34,0,0,1,.19-1.58,6.62,6.62,0,0,1,.58-1.67A4.88,4.88,0,0,1,68,105.86C68.05,106.81,68.05,107.76,68,108.71Z"/><path class="cls-7" d="M112.79,122.06c1.43-6.15,2.13-12.44,3.19-18.67s1.86-11.82,4.72-17.51l0-.07A5.58,5.58,0,0,1,124.37,83a18.68,18.68,0,0,1,5.49-.32c2.56,0,5.33-.15,7.25-1.84a11.39,11.39,0,0,1,1.53-1.34,1.67,1.67,0,0,1,1.9,0c.74.61.46,1.8,0,2.66a10.13,10.13,0,0,1-2.53,3.47,15.89,15.89,0,0,1-4,2.09,57.06,57.06,0,0,0-9.61,5.77c.16,11,.31,22.06-.71,33a31.56,31.56,0,0,1-1,6.17,2.94,2.94,0,0,1-3,2.76,22.76,22.76,0,0,1-3.5-.07,163.08,163.08,0,0,1-17.21-2.14.09.09,0,0,0,0-.05q2.15-6.94,4.28-13.91a55.41,55.41,0,0,0,9.36,2.81Z"/><path class="cls-8" d="M101,188.44q0,6.18-.13,12.35H52.35q.42-6.09.72-12.2a44,44,0,0,0,11.82,3.62,74,74,0,0,0,18.86,1.68A34.83,34.83,0,0,0,101,188.44Z"/><path class="cls-2" d="M85.09,83.43a16.46,16.46,0,0,1-3.46,1.19,85.81,85.81,0,0,1-10.26,1.26,4.23,4.23,0,0,0-2,.58,3.27,3.27,0,0,0-1.21,1.91c-.65,2.39.15,4.9.2,7.36a1.72,1.72,0,0,1-.21,1,1.21,1.21,0,0,1-1.69,0,3.54,3.54,0,0,1-.91-1.64l-.9-2.69c-.19-.55-.5-1.2-1.08-1.24a1.15,1.15,0,0,0-.72.27A2.6,2.6,0,0,0,61.93,93l-.09,0A13.86,13.86,0,0,1,60,89.62a6.83,6.83,0,0,1-.28-3.82,3.22,3.22,0,0,1,1.44-2.11,3.58,3.58,0,0,1,2.87,0,6,6,0,0,1,3.58-6,8.79,8.79,0,0,1,4.8-.27c1.6.27,3.16.75,4.77,1A11.37,11.37,0,0,0,86.09,76a8,8,0,0,1,1.2-1,1.75,1.75,0,0,1,1.49-.19,2,2,0,0,1,1,1.89,6.91,6.91,0,0,1-2.6,5.36A11.32,11.32,0,0,1,85.09,83.43Z"/><path class="cls-9" d="M68,105.86a33.24,33.24,0,0,0-.32-3.59,19.26,19.26,0,0,0,3,3.33,10.11,10.11,0,0,0,4.11,2.69,10.35,10.35,0,0,0,3.47.16c1.33-.07,2.66-.16,4-.36.18,1.06.37,2.12.56,3.18a9.67,9.67,0,0,1,.23,2.27,9,9,0,0,1-.45,2.11c-.43,1.39-.9,2.75-1.42,4.11a3.11,3.11,0,0,0-.35.54l-.48-.31A99.13,99.13,0,0,1,68,108.71C68.05,107.76,68.05,106.81,68,105.86Z"/><path class="cls-1" d="M118.52,158.05A20.24,20.24,0,0,1,113.8,171c-.12,4.81,5.51,7.74,5.51,7.74-6.74,2.61-14.76-1.08-14.76-1.08a24.3,24.3,0,0,1-9,1.69c-12.66,0-22.93-9.53-22.93-21.28s10.27-21.28,22.93-21.28S118.52,146.3,118.52,158.05Z"/><path class="cls-7" d="M82.56,108l-.31,0c-1.32.2-2.65.29-4,.36a10.35,10.35,0,0,1-3.47-.16,10.11,10.11,0,0,1-4.11-2.69,19.26,19.26,0,0,1-3-3.33,8.61,8.61,0,0,1-1.14-2.34,6.64,6.64,0,0,1-4.66-5.1,4.37,4.37,0,0,1,0-1.8,2.6,2.6,0,0,1,.93-1.53,1.15,1.15,0,0,1,.72-.27c.58,0,.89.69,1.08,1.24l.9,2.69a3.54,3.54,0,0,0,.91,1.64,1.21,1.21,0,0,0,1.69,0,1.72,1.72,0,0,0,.21-1c-.05-2.46-.85-5-.2-7.36a3.27,3.27,0,0,1,1.21-1.91,4.23,4.23,0,0,1,2-.58,85.81,85.81,0,0,0,10.26-1.26,16.46,16.46,0,0,0,3.46-1.19c.07,2.63.23,5.26.45,7.88a.83.83,0,0,0,.13.47c.23.31.71.21,1.09.25a1.76,1.76,0,0,1,1.39,1.19,4.54,4.54,0,0,1,.18,1.91,47.32,47.32,0,0,1-2.16,10.08,4.76,4.76,0,0,1-.61,1.45A4.12,4.12,0,0,1,82.85,108Z"/><path class="cls-10" d="M85.64,97.2s0,0,0,0a46.12,46.12,0,0,0-3.38-3.75.24.24,0,0,0-.34.34,46.78,46.78,0,0,1,3.27,3.63c-.9.78-1.82,1.54-2.77,2.26a.24.24,0,0,0,0,.34.26.26,0,0,0,.35,0c1-.77,2-1.57,3-2.41A.22.22,0,0,0,85.64,97.2Z"/><path class="cls-1" d="M84.58,102.05a3.44,3.44,0,0,1-3.17,3.58,2.82,2.82,0,0,1-2.93-3.19v0s0,0,0,0h0a.26.26,0,0,1,.23-.21c1.85-.19,3.7-.33,5.56-.41a.22.22,0,0,1,.2.1A.24.24,0,0,1,84.58,102.05Z"/><path class="cls-8" d="M84.47,93.3a1,1,0,0,1-.88.23,1.06,1.06,0,0,1-.65-.59,2.66,2.66,0,0,1-.18-1.67c0-.48.26-.93.82-1s1.06.6,1.22,1.17A1.74,1.74,0,0,1,84.47,93.3Z"/><path class="cls-8" d="M76.43,94a1,1,0,0,1-.88.22,1,1,0,0,1-.65-.58A2.73,2.73,0,0,1,74.71,92c.06-.49.27-.94.83-1s1,.59,1.21,1.17A1.72,1.72,0,0,1,76.43,94Z"/><path class="cls-8" d="M76.31,88.91a.81.81,0,0,0-.52-.21,3,3,0,0,0-3,1.66.81.81,0,0,0-.07.55.73.73,0,0,0,1.33.18,2.06,2.06,0,0,1,.23-.37,2.47,2.47,0,0,1,.28-.28,2.37,2.37,0,0,1,.35-.19,1.64,1.64,0,0,1,.38-.1,1.85,1.85,0,0,1,.47,0,.8.8,0,0,0,.51-.21.74.74,0,0,0,0-1Z"/><path class="cls-8" d="M85.43,88.62a.85.85,0,0,0-.33-.44,3.42,3.42,0,0,0-2.8-.45.72.72,0,0,0-.51.88.75.75,0,0,0,.89.52l.26-.06h.5a3.07,3.07,0,0,1,.52.14,3.3,3.3,0,0,1,.41.23.71.71,0,0,0,.55.07.68.68,0,0,0,.44-.34A.7.7,0,0,0,85.43,88.62Z"/><path class="cls-7" d="M103.85,176.92a2.15,2.15,0,0,1-.07,1.7A6.84,6.84,0,0,1,101,181.8a7.28,7.28,0,0,1-.94.53,20.57,20.57,0,0,1-5.17,1.49c-2.85.56-6,1-8.49-.5a20,20,0,0,1-3.29-3.09c-3.91-3.84-9.6-5.07-14.93-6.35q-7.28-1.75-14.41-4c-2.25-.72-4.48-1.48-6.71-2.28s-4.64-1.87-5.42-4.08a7.94,7.94,0,0,1-.14-3.6q.66-5.32,1.69-10.6,6.76,1.49,13.4,3.44a14,14,0,0,0-.92,4c4.18,1.48,7.78,4.24,11.75,6.23a34.75,34.75,0,0,0,24.42,2.45,3.56,3.56,0,0,1,1.48-.19,1.15,1.15,0,0,1,1,1A1.29,1.29,0,0,1,94,167a7.16,7.16,0,0,1-2.66,1.76,3.12,3.12,0,0,0-2,2.35c0,1.2,1.1,2.09,2.16,2.65a19.07,19.07,0,0,0,9.36,2.25h.11C102.09,176,103.38,176,103.85,176.92Z"/><path class="cls-3" d="M209.1,121.53l6,1.86,6,1.88a12.26,12.26,0,0,1,2.88,1.17,10.2,10.2,0,0,1,2.87,3c3,4.41,4.74,9.57,6.64,14.57,2.15,5.7,4.63,11.44,4.86,17.53h0c0,.14,0,.28,0,.43a9.36,9.36,0,0,0-4.28-2.72,54.74,54.74,0,0,0-7.81-2.07,68.9,68.9,0,0,0-4.18-7.26q-1.11,3.67-2.25,7.35l-2.25,7.1q-.92,2.88-1.86,5.76l-.23.14c1.34,2.23,2.56,4.52,3.77,6.82a20.81,20.81,0,0,1-9.67,4.15,49.25,49.25,0,0,1-10.72.42c-5.38-.23-11-.83-15.48-3.88q2-14.22,4.65-28.34a8.88,8.88,0,0,1-3.8-6.62c-3.18-.65-6.33-1.38-9.47-2.19a129.46,129.46,0,0,1,2.35-13,5,5,0,0,1,.76-1.92c.77-1,2.15-1.27,3.41-1.46,4.7-.7,9.51-1.31,13.81-3.34.89,5.13,2.3,10.25,5.57,14.23A51.58,51.58,0,0,0,209.1,121.53Z"/><path class="cls-2" d="M215.79,170.11l-.23.14c1.34,2.23,2.56,4.52,3.77,6.82a20.81,20.81,0,0,1-9.67,4.15,49.25,49.25,0,0,1-10.72.42c-5.38-.23-11-.83-15.48-3.88l26.32-42.63,12.37,14.77q-1.11,3.67-2.25,7.35l-2.25,7.1Q216.74,167.23,215.79,170.11Z"/><path class="cls-2" d="M226.42,157.34h0l-.09-.17a54.74,54.74,0,0,1,7.81,2.07,9.36,9.36,0,0,1,4.28,2.72c0,1.54-.55,3.72-1.66,4.57s-3.1,1.59-4.51,1.08c-.05-.14-.11-.29-.17-.44-1.34-3.35-3.31-7.52-5.94-9.8v0Z"/><path class="cls-1" d="M206.17,152.93c0,11.8-11.33,17.47-25.76,18h0c-3.38,3.76,1.23,6.6,1.23,6.6-9-.39-15.37-7.81-15.37-7.81-9.68-2.27-16.4-7.73-16.4-16.82,0-12.45,12.6-22.54,28.15-22.54S206.17,140.48,206.17,152.93Z"/><path class="cls-3" d="M183.46,177.76c4.45,3.05,10.1,3.65,15.48,3.88a49.25,49.25,0,0,0,10.72-.42,20.81,20.81,0,0,0,9.67-4.15c.07.13.14.25.2.38,4.74,9,4,23.34,4,23.34H179.11l4.33-23Z"/><path class="cls-2" d="M237.33,113.84c.47,2.3-.72,4.63-2.2,6.45a11,11,0,0,1-3.46,3,11.21,11.21,0,0,1-6.31.81c-2.14-.25-4.23-.82-6.36-1.11a22.33,22.33,0,0,1-3.55-.61,4.78,4.78,0,0,1-2.86-2.07c-1.58-2.83,1.28-6.65-.11-9.49a13.21,13.21,0,0,0,1.93-3.68,21.38,21.38,0,0,0,.37-10.72A15.68,15.68,0,0,0,213.42,92a10.48,10.48,0,0,0-2.59-3.18l.13-.14c3.64-.45,7.72.6,9.88,3.57a13.77,13.77,0,0,1,2.08,6.18,13.56,13.56,0,0,0,1.32,5,9.93,9.93,0,0,0,4.4,3.6,52.75,52.75,0,0,1,5.21,2.47A7.22,7.22,0,0,1,237.33,113.84Z"/><path class="cls-2" d="M212.48,110.78a10.46,10.46,0,0,1-5.3,3.83c0-.07-.05-.13-.07-.2l-.07-.07a23,23,0,0,0,3.85-5.83c.94-2,1.66-4.23,1-6.32-.22-.73-.77-1.52-1.53-1.48a2,2,0,0,0-1.31.86,18.24,18.24,0,0,0-1.89,2.71,6.63,6.63,0,0,0-3.7-4.79,26.63,26.63,0,0,0-6-1.9A12.66,12.66,0,0,1,191.87,95a6.18,6.18,0,0,1-1.09-1.31,10.75,10.75,0,0,1,3.62-4.94,13.39,13.39,0,0,1,6.27-2.56A13.69,13.69,0,0,1,208,87a11.33,11.33,0,0,1,2.83,1.75A10.48,10.48,0,0,1,213.42,92a15.68,15.68,0,0,1,1.36,4.41,21.38,21.38,0,0,1-.37,10.72A13.21,13.21,0,0,1,212.48,110.78Z"/><path class="cls-9" d="M209.1,121.52h0a51.58,51.58,0,0,1-8.36,13.6c-3.27-4-4.68-9.1-5.57-14.23q-.18-1-.33-2.07a6.45,6.45,0,0,0,2.93.32,14.11,14.11,0,0,0,7.95-3.53c.46-.41.9-.84,1.32-1.28l.07.07c0,.07,0,.13.07.2Q208.22,118,209.1,121.52Z"/><path class="cls-7" d="M232.08,167.16q-7.19-1.49-14.43-2.81c-2.84-.51-5.68-1-8.52-1.47v.05a5.43,5.43,0,0,1-3.47-1.1c-.46-.46-.77-1.09-1.34-1.42a3.53,3.53,0,0,0-1.51-.36,7.28,7.28,0,0,1-3.54-1.21,7.5,7.5,0,0,1-1.54-1.59,5.64,5.64,0,0,1-.85-1.51,4,4,0,0,1,1.19-4,7.21,7.21,0,0,1,3.92-1.72,4.94,4.94,0,0,1,2.8.21,4.63,4.63,0,0,1,1.72,1.48c1.18,1.57,1.82,3.54,3.1,5,3.43.23,6.86.4,10.3.49,2.07.06,4.16.09,6.24.09v0C228.77,159.64,230.74,163.81,232.08,167.16Z"/><path class="cls-11" d="M155.44,158.43a5.76,5.76,0,0,1-.52,2.81,6.86,6.86,0,0,1-3.71,3.08,3.42,3.42,0,0,1-2.57-.24,4.72,4.72,0,0,1-1.89-3,9.42,9.42,0,0,1-.31-3.42,6.53,6.53,0,0,1,.27-1.24,9.24,9.24,0,0,1,.86-1.65s0,0,0-.05a4.52,4.52,0,0,1,1.91-1.64,4.08,4.08,0,0,1,4.3,1.08A6.41,6.41,0,0,1,155.44,158.43Z"/><path class="cls-7" d="M194.84,118.83l-.11,0a7.37,7.37,0,0,1-2.73-2.27,20,20,0,0,1-3.21-5.66,7,7,0,0,1-.53-3,3,3,0,0,1,1.58-2.44,29.2,29.2,0,0,1,.87-11.87.54.54,0,0,1,.07.13A6.18,6.18,0,0,0,191.87,95a12.66,12.66,0,0,0,5.65,2.61,26.63,26.63,0,0,1,6,1.9,6.63,6.63,0,0,1,3.7,4.79,18.24,18.24,0,0,1,1.89-2.71,2,2,0,0,1,1.31-.86c.76,0,1.31.75,1.53,1.48.63,2.09-.09,4.35-1,6.32a23,23,0,0,1-3.85,5.83c-.42.44-.86.87-1.32,1.28a14.11,14.11,0,0,1-7.95,3.53A6.45,6.45,0,0,1,194.84,118.83Z"/><path class="cls-10" d="M193.88,109.93a4.8,4.8,0,0,1-2-.72,26,26,0,0,0,2.16-3.94c.12-.28-.3-.53-.42-.24a25.94,25.94,0,0,1-2.28,4.13.24.24,0,0,0,.09.33,5.16,5.16,0,0,0,2.42.92C194.19,110.45,194.19,110,193.88,109.93Z"/><path class="cls-1" d="M198,112.43a7.65,7.65,0,0,1-.9,2.5,2,2,0,0,1-1.76,1c-1.65,0-2.57-1.52-2.89-3a.26.26,0,0,1,.19-.38l5.05-.52a.21.21,0,0,1,.2.08A.27.27,0,0,1,198,112.43Z"/><path class="cls-8" d="M192.3,105.08a.84.84,0,0,1-.91.16,1.24,1.24,0,0,1-.65-.68,2.46,2.46,0,0,1-.14-1.49,1.41,1.41,0,0,1,.2-.69.91.91,0,0,1,.88-.38,1.38,1.38,0,0,1,1.07,1.32A2,2,0,0,1,192.3,105.08Z"/><path class="cls-8" d="M199.78,105.08a.84.84,0,0,1-.91.16,1.27,1.27,0,0,1-.65-.68,2.45,2.45,0,0,1-.13-1.49,1.32,1.32,0,0,1,.2-.69.89.89,0,0,1,.88-.38,1.39,1.39,0,0,1,1.07,1.32A2.07,2.07,0,0,1,199.78,105.08Z"/><path class="cls-8" d="M201.43,100.14a4.14,4.14,0,0,0-3.78-1,.74.74,0,0,0-.52.89.75.75,0,0,0,.89.51l.19,0h0s0,0,0,0h.69l.39.08.33.11.07,0,.17.08.34.22,0,0,.16.14a.75.75,0,0,0,1,0A.72.72,0,0,0,201.43,100.14Z"/><path class="cls-8" d="M198.21,100.45Z"/><path class="cls-8" d="M191.5,100.72h0Z"/><path class="cls-8" d="M192.71,99.65a.7.7,0,0,0-.45-.34,3.42,3.42,0,0,0-1.68.15,3.29,3.29,0,0,0-1.39,1,.77.77,0,0,0-.22.52.73.73,0,0,0,1.24.51,1.76,1.76,0,0,1,.69-.55l.09-.05.07,0,.13,0,.23,0h.09a2.09,2.09,0,0,1,.5,0l-.09,0a.73.73,0,0,0,.52-.07.77.77,0,0,0,.34-.45A.73.73,0,0,0,192.71,99.65Z"/></svg>