<svg id="Capa_1" data-name="Capa 1" xmlns="http://www.w3.org/2000/svg" viewBox="0 0 389.11 229.23"><defs><style>.cls-1{fill:#6c2910;}.cls-2{fill:#fccd74;}.cls-3{fill:#c7804d;}.cls-4{fill:#040927;}.cls-5{fill:#020525;}.cls-6{fill:#f7ac97;}.cls-7{fill:#f7ab96;}.cls-8{fill:#f8ad96;}.cls-9{fill:#f9ad97;}.cls-10{fill:#f8ad97;}.cls-11{fill:#f7ac95;}.cls-12{fill:#d95852;}.cls-13{fill:#dad49d;}.cls-14{fill:#f2a794;}.cls-15{fill:#2d0908;}.cls-16{fill:#340d0b;}.cls-17{fill:#f3af9e;}.cls-18{fill:#eea692;}.cls-19{fill:#b93837;}.cls-20{fill:#580a10;}.cls-21{fill:#b65a4b;}.cls-22{fill:#38100d;}.cls-23{fill:#401811;}.cls-24{fill:#56070f;}.cls-25{fill:#55050e;}.cls-26{fill:#fcfaf7;}.cls-27{fill:#23182a;}.cls-28{fill:#bd5b4c;}.cls-29{fill:#251724;}.cls-30{fill:#da5951;}.cls-31{fill:#fdfaf7;}.cls-32{fill:#2d1322;}.cls-33{fill:#c46253;}.cls-34{fill:#bc5a4b;}.cls-35{fill:#2c1726;}.cls-36{fill:#29111f;}.cls-37{fill:#b85f4d;}.cls-38{fill:#3f1410;}</style></defs><path class="cls-1" d="M278.7,109a21,21,0,0,1,0-3.07c.19-1.34-.46-1.6-1.6-1.86-9.82-2.28-16.61-8-19.07-18-2-8.19.61-15.26,6.49-21.14,4.29-4.3,9.6-6.36,15.58-7,6.19-.67,12.13,0,17.6,3.14,6.29,3.64,10.48,8.9,11.5,16.23,1.59,11.47-4.17,21.14-15,25.44a23,23,0,0,1-5.26,1.43,2,2,0,0,0-1.49,1,46.42,46.42,0,0,1-6.36,7.63c-.13.11-.26.22-.4.32-.5.36-1,1-1.62.76-.8-.33-.44-1.19-.46-1.83,0-1,0-2.05,0-3.07Z"/><path class="cls-2" d="M280.11,111.8c0-2.55,0-4.89,0-7.22,0-1-.25-1.42-1.38-1.63-9.3-1.75-16.15-6.7-19-16A20.55,20.55,0,0,1,269,63.23c9.37-5.69,19.24-5.95,28.77-.44,7,4,10.66,10.35,10.31,18.64-.37,8.68-4.36,15.1-12.19,19a20.53,20.53,0,0,1-7.6,2.35,1.82,1.82,0,0,0-1.42.93A46.11,46.11,0,0,1,280.11,111.8Z"/><path class="cls-1" d="M280.55,86.14q4.8-5.65,9.57-11.3c1.05-1.24,2.07-2.49,3.11-3.73a3.35,3.35,0,0,1,2.08-1.36A2.61,2.61,0,0,1,298,71a2.3,2.3,0,0,1-.17,2.85c-2.16,2.63-4.36,5.22-6.55,7.83l-8,9.48c-.22.26-.45.51-.68.76-1.27,1.36-2.72,1.4-4,.06q-3.85-4.18-7.66-8.41A2.6,2.6,0,1,1,274.82,80C276.73,82,278.61,84.07,280.55,86.14Z"/><path class="cls-1" d="M144.79,95.67a34.48,34.48,0,0,1,1.53-4.27,12,12,0,0,1,8.94-6.73c8.13-1.35,16.33-.36,24.48-.69,1.25,0,2.45.27,3.67.25a5.09,5.09,0,0,1,2.72.7,14.24,14.24,0,0,1,7.47,6.64,19.47,19.47,0,0,1,1.07,13.76,15.28,15.28,0,0,1-10.32,11c-.83.29-1.14.58-.87,1.5.58,2,1,4,1.56,6,.13.49.43,1-.1,1.4s-1,0-1.41-.21a27,27,0,0,1-5.93-4.35,17.91,17.91,0,0,1-1.64-1.62c-1.09-1.3-2.31-2.31-4.15-2.15.26-.33.7,0,.86-.13-5.73-.31-11.62.54-17.43-.78a10.83,10.83,0,0,0-2.79-.73c-4.44-1.84-6.67-5.41-7.65-9.9A23.61,23.61,0,0,1,144.79,95.67Z"/><path class="cls-2" d="M177.24,85.35c2.5.06,5-.07,7.47.66a12.18,12.18,0,0,1,8.77,9.52c1.46,6.23.25,11.89-4.41,16.54a11.93,11.93,0,0,1-6.13,3.17c-1.15.23-1.25.81-1.05,1.69.47,2.1,1,4.19,1.47,6.43a39.32,39.32,0,0,1-7.85-6.81,2.77,2.77,0,0,0-2.29-1c-4.77,0-9.55.23-14.3-.25-4-.4-7.71-1.35-10.33-4.72a14.43,14.43,0,0,1-2.72-7.68,21.15,21.15,0,0,1,1-9.3,11.4,11.4,0,0,1,8.8-7.66c.29-.07.59,0,.82-.28a8.26,8.26,0,0,1,2.5-.39c6,0,11.9.07,17.85-.06A.67.67,0,0,1,177.24,85.35Z"/><path class="cls-1" d="M169.8,103.38a3,3,0,0,1-3-3,3.16,3.16,0,0,1,3.05-3,3.1,3.1,0,0,1,3,3A3,3,0,0,1,169.8,103.38Z"/><path class="cls-1" d="M156.25,100.37a3,3,0,1,1,2.89,3A2.91,2.91,0,0,1,156.25,100.37Z"/><path class="cls-1" d="M180.31,103.37a2.94,2.94,0,0,1-2.95-3,3,3,0,0,1,6,.12A3,3,0,0,1,180.31,103.37Z"/><path class="cls-1" d="M129.68,93.94A31.55,31.55,0,0,1,122.76,86a2.26,2.26,0,0,0-1.91-1.08c-8.77-1.07-19.25-6.74-21.47-18.6C96.82,52.71,105,40.83,118.75,38.39c8-1.41,15.65-.55,22.5,4a22.8,22.8,0,0,1,3.64,35.21,23.08,23.08,0,0,1-10.49,6,11.88,11.88,0,0,0-2.72.44c-.65.09-.46.62-.46,1,0,2.63,0,5.26,0,7.89C131.21,94.58,131.15,94.62,129.68,93.94Z"/><path class="cls-3" d="M129.91,92.64a51.91,51.91,0,0,1-6.61-8.37c-.35-.59-.81-.6-1.38-.66-7.19-.67-13.27-3.54-17.64-9.4C98.15,66,99.06,54,106.16,46.57a23.61,23.61,0,0,1,15.2-7.18c6.49-.67,12.72.29,18.38,3.72C154.15,51.87,153,72.26,139.58,80c-.29.17-.56.37-.85.55A17.82,17.82,0,0,1,131.94,83a6.49,6.49,0,0,1-.88.16c-.68,0-.9.37-.88,1.06,0,2.42,0,4.83,0,7.25C130.18,91.89,130.42,92.37,129.91,92.64Z"/><path class="cls-4" d="M129.91,92.64a81.37,81.37,0,0,0,.11-8.41c0-.79.19-1.15,1-1.24a22.33,22.33,0,0,0,7.69-2.49c-.19.76-.91.84-1.46,1.08a22.82,22.82,0,0,1-5.92,1.77c-1,.13-1,.55-1,1.33,0,2.24,0,4.49,0,6.74C130.32,91.86,130.48,92.38,129.91,92.64Z"/><path class="cls-1" d="M126,72.42c1.62,0,3.24,0,4.86,0,1,0,1.73.4,1.73,1.42s-.7,1.46-1.72,1.42c-4.05-.13-8.09-.14-12.14,0a1.39,1.39,0,0,1-1.64-1.38c-.07-1,.61-1.46,1.54-1.48,1.61,0,3.24-.07,4.85,0,.88,0,1-.27,1-1.08q-.06-8.94,0-17.9c0-.76-.11-1.12-1-1.1-2.89.06-5.79,0-8.89,0,2,4,3.1,8.06,5.14,11.75a2,2,0,0,1,0,2.32,6.21,6.21,0,0,1-6.21,3.63A6.12,6.12,0,0,1,108,65.75a2,2,0,0,1,0-1.69q2.24-5.33,4.43-10.66c.15-.38.46-.65,0-1.18-.66-.75-.29-1.28.79-1.29h11.52c-.42-.58-1.1-.86-1.19-1.56a1.9,1.9,0,0,1,.55-1.87,1.59,1.59,0,0,1,2.3.12c.85.82.73,1.85-.43,3.3,3.54,0,7,0,10.49,0,.47,0,1.06-.22,1.29.49s-.11.84-.6,1.06,0,.51.06.69q2.4,5.75,4.87,11.45a1.22,1.22,0,0,1,.14,1,6.76,6.76,0,0,1-6.35,4.47,6.85,6.85,0,0,1-6.11-4.64.79.79,0,0,1,.07-.7c2.09-3.92,3.44-8.16,5.39-12.44h-2.64c-1.83,0-3.66,0-5.49,0-.42,0-1-.26-1.23.35a19.16,19.16,0,0,0-.08,3.3c0,5,0,10,0,15C125.85,71.51,125.7,72,126,72.42Z"/><path class="cls-5" d="M126,72.42c-.34-.23-.28-.6-.28-.93V53.58a1,1,0,0,1,.21-.84q0,9.15,0,18.28C126,71.48,126,72,126,72.42Z"/><path class="cls-2" d="M131.62,64.75l4.46-10.81,4.63,10.86C137.62,64.22,134.65,64.7,131.62,64.75Z"/><path class="cls-2" d="M118.41,64.65c-2.91.17-5.63-.45-8.34,0-.31,0-.77.14-.52-.47,1.4-3.38,2.81-6.77,4.25-10.23C115.64,57.42,116.53,61.16,118.41,64.65Z"/><path class="cls-2" d="M247.31,115.92a14,14,0,0,1,7.34,1.7c8.14,3.82,13.1,10.44,16.16,18.66a59,59,0,0,1,3.2,16.95c.84,12.68.26,25.36,0,38-.21,9.95-.58,19.9-.84,29.85,0,1.29-.37,1.75-1.8,1.75q-35.33-.09-70.66-.05c-1.79,0-1.82,0-1.72-1.75.22-3.68.48-7.35.71-11,0-.45,0-.91,0-1.36a14.87,14.87,0,0,0,.43-4.3c.23-3.15.45-6.31.7-9.47.14-1.84-.06-3.72.44-5.53.33-1.17.61-1.31,1.58-.73,7.14,4.27,14.43,8.26,21.93,11.84,5.53,2.63,11.14,5.07,17.29,6a10.39,10.39,0,0,0,9.1-2.91c3.27-3.12,5.3-7,7-11.09,4-9.62,6.47-19.71,8.51-29.9.77-3.86,1.47-7.73,2-11.63a16.91,16.91,0,0,0,.36-3.53c-.32,3.8-.94,7.8-1.67,11.78a177.92,177.92,0,0,1-8.27,31.11,40.88,40.88,0,0,1-6,11.23c-3.36,4.19-6.87,5.87-12.54,4.69-6.28-1.31-12.05-3.92-17.76-6.71-6.94-3.4-13.68-7.16-20.33-11.09a43.53,43.53,0,0,0-6.23-3.55c-1.22-.88-2.43-1.8-3.68-2.64s-1.94-1.73-1.18-3.24c.08-.16,0-.42-.07-.64a.67.67,0,0,1,.18-.33,59.4,59.4,0,0,0,2.84-6.55c1.1-2.48,2.5-4.79,3.72-7.21.14-.28.35-.52.29-.86a.39.39,0,0,1,.21-.29,2.47,2.47,0,0,1,2.58-.18,5,5,0,0,0,2.54.66c.65.89,1.75.93,2.65,1.24,7.55,2.58,15.06,5.28,22.6,7.89a58.22,58.22,0,0,1,11.53,5.1,46.3,46.3,0,0,0-7.15-3.57c-.42-.16-1.12-.17-1-.86s.66-.77,1.2-.91a9.54,9.54,0,0,1,4-.47,9.53,9.53,0,0,0-3.93.45c-1.47.4-1.81.08-1.63-1.42.72-6.12,1.63-12.21,2.52-18.31a84.71,84.71,0,0,1,2.74-12.87,23.21,23.21,0,0,1,5.08-9.38,15.71,15.71,0,0,1,9.73-4.92,16.36,16.36,0,0,0-7,2.61c-3.61,2.39-5.71,5.88-7.17,9.83-2.06,5.57-2.87,11.4-3.75,17.22-.71,4.75-1.3,9.51-2,14.26a22.39,22.39,0,0,1-.35,2.42c-.32,1.29-.62,1.55-1.86,1.14-2.72-.89-5.39-1.91-8.09-2.86-4.92-1.72-9.84-3.44-14.78-5.12-1.13-.38-2.39-.55-3.3-1.46a100.62,100.62,0,0,1,3.34-16.11,42.75,42.75,0,0,1,11.24-19.63c1-1,2.14-2,3.21-2.94.85-.46.9.32,1,.74a11.1,11.1,0,0,1,.51,3.08c.06,1.92.06,1.91,1.82,1s3.59-2.13,5.34-3.27c5.06-3.3,10-6.84,15.2-9.89A3,3,0,0,1,247.31,115.92Z"/><path class="cls-3" d="M99.56,140.68a26.3,26.3,0,0,1,10.37,9.86,1.14,1.14,0,0,0,.09.52c.84,1.89.38,2.84-1.75,3.62a.72.72,0,0,1-.34-.22,24,24,0,0,1-1.25-2.42c2.83,5.93,5.91,11.76,8.51,17.8A21.79,21.79,0,0,1,116.76,181c-.51,4.7-1.87,9.33-1.45,14.13a1.24,1.24,0,0,1-.47,1.21c-1.84.75-3.66-.06-5.49-.11a3.33,3.33,0,0,1-2.31-.6c-.17-.17-.34-.39-.28-.6.38-1.34-.44-1.58-1.49-1.81-4.11-.9-8.21-1.83-12.31-2.76A2.53,2.53,0,0,1,91.13,189c-3.93-7.67-7.87-15.35-11.9-23a106.88,106.88,0,0,0-6.81-11.78,18.8,18.8,0,0,0-8.9-7.3c4.69,1.75,7.77,5.26,10.28,9.39,3.21,5.28,6,10.78,8.86,16.25,2.67,5.11,5.29,10.25,8,15.36.81,1.53.68,1.78-1,1.95a11.25,11.25,0,0,0-5.63,2.2,11,11,0,0,1,5.71-2.21c.44,0,1-.25,1.19.3s-.27.79-.66,1.06a17,17,0,0,0-4.79,4.94A18.1,18.1,0,0,1,91,190.67a2.06,2.06,0,0,1,1.69-.31c4.28,1,8.55,2,12.84,2.89a1.28,1.28,0,0,1,1.07,1.81c-.65,2.54-1.34,5.07-1.79,7.65a82.57,82.57,0,0,0-1.52,11.4c0,1.47-.33,1.77-1.78,1.76a74,74,0,0,1-8.91-.86c-3.23-.42-6.42-1.06-9.61-1.78a16.32,16.32,0,0,1-8.78-5.62,100.24,100.24,0,0,1-8.85-12c-3.15-4.94-6.1-10-8.8-15.19-1-1.93-2.13-3.8-2.72-5.25a207.4,207.4,0,0,0,13.74,23.77,85.87,85.87,0,0,0,7.7,9.83c2.89,3.15,6.65,4.45,10.69,5.18a122.1,122.1,0,0,0,12.49,1.71l3.38.25c1.05.08,1.4-.43,1.43-1.32s0-1.82.16-2.72c.06-.48.07-1,.78-.78a4.5,4.5,0,0,0,2.8.25c2.66-.35,5.34-.4,8-.69,1-.12,1.94,0,2,1.3.22,3.12.33,6.26.71,9.37.18,1.43-.32,1.55-1.49,1.55-9.55,0-19.09,0-28.64,0H53.53c-1.63,0-1.62,0-1.19-1.5a61.42,61.42,0,0,0,1.82-20.79c-.65-10.55-3.06-20.82-4.87-31.19a53.5,53.5,0,0,1-1.09-14.07c.49-5.5,2.87-9.76,7.65-12.62.28-.87,1.08-1.05,1.79-1.31a13.19,13.19,0,0,1,6.86-.26,55.74,55.74,0,0,0,11.24,1,22.56,22.56,0,0,1,3.66-.28c5.52,2.66,10.73,5.9,16.3,8.66a2.79,2.79,0,0,0,0-1.81,47.08,47.08,0,0,0-1.7-6.18c-.24-.64-.67-1.36.1-2,1.58-.18,3.17,0,4.75-.1A.83.83,0,0,1,99.56,140.68Z"/><path class="cls-1" d="M79.68,142.16c-5.12,1-10.19.37-15.24-.53a13.06,13.06,0,0,0-8.59,1,22.59,22.59,0,0,1-2.52-2.25c-3.38-4-3.6-8.36-1.68-13a14.5,14.5,0,0,1,2.33-4c4-4.67,5.38-10.26,5.82-16.23a48.33,48.33,0,0,1,2.57-13.61c3.42-9,10.59-14,20.28-14.1a27.36,27.36,0,0,1,13.24,3.14,14.67,14.67,0,0,0,2,.92c6.87,2.43,9.16,9.27,8.46,14.72a23.48,23.48,0,0,1-1.83,6.1c-.82-.06-.84-.76-.92-1.29-.11-.77-.37-1.15-1.22-1-.57.11-1.14,0-1.3-.68s.24-1,.71-1.35c1.62-1.1,1.62-1.1,1.11-3A12.83,12.83,0,0,0,100,91.62c-.51-.55-.87-.76-1.26.11-3.08,7-8.81,11-15.52,13.93a21.7,21.7,0,0,1-2.07.67,3.44,3.44,0,0,1-4.07-1,3.67,3.67,0,0,0-1.48-1,3,3,0,0,0-4.34,2.6,7.25,7.25,0,0,0,5.11,7.49,3.15,3.15,0,0,1,2.59,2.84,53.77,53.77,0,0,0,4.35,13.31A20.37,20.37,0,0,0,88.14,137c1.3,1.13,1.27,1.8-.17,2.76a18,18,0,0,1-7,2.62A2.15,2.15,0,0,1,79.68,142.16Z"/><path class="cls-6" d="M247.31,115.92c-6.84,3.89-13.14,8.61-19.79,12.78-1.16.72-2.34,1.39-3.56,2s-1.46.52-1.47-.89a18.44,18.44,0,0,0-.54-4.31c-.08-.32-.13-.63-.57-.6.65-1.49-.23-2.8-.47-4.19a6.69,6.69,0,0,1-.37-1.83c.5-.77,1.38-1,2.08-1.49a19.34,19.34,0,0,0,6.62-8.62c.5-1.16.83-2.38,1.36-3.47-2.25,4.93-6.54,7.08-11.47,8.37l-5,.57c-3.43.38-5.52-.6-6.29-4.28a74.15,74.15,0,0,1-1.23-9.4c-.08-1.13-.33-1.91-1.66-2a2.89,2.89,0,0,1-1.5-.56,1.54,1.54,0,0,1-.59-2.3c.81-1.48,1.55-3,2.27-4.5a10.6,10.6,0,0,0,1.25-6.13A15.8,15.8,0,0,1,208.12,76c.15-.33.27-.67.4-1,.31-.48.8-.37,1.24-.34a41.08,41.08,0,0,0,10.43-.88,7.59,7.59,0,0,1,1.08-.15c1.92-.08,2.6.69,2.21,2.56a27.78,27.78,0,0,0-.61,3.63,4.92,4.92,0,0,0,1.08,4,7.31,7.31,0,0,1,2.05,6c-.05.6-.13,1.3.66,1.62a1.45,1.45,0,0,0,2-1.06,17,17,0,0,1,.87-2.58A6.61,6.61,0,0,1,231.93,85,4.46,4.46,0,0,1,239,88.4a9.45,9.45,0,0,1-1.47,6.65,2.75,2.75,0,0,0-.32,2.8c1.22,3.16,2.86,5.91,6.38,7a2.35,2.35,0,0,1,.67.46,31.31,31.31,0,0,0,2.64,10.28C247,115.7,247.18,115.8,247.31,115.92Z"/><path class="cls-1" d="M244.28,105.27c-2.27.06-3.8-1.27-5.15-2.84a13.7,13.7,0,0,1-1.94-3.28c-.74-1.63-1.28-3,.14-4.81a7.32,7.32,0,0,0,1-6.53c-.79-3.06-3.63-4.07-6.29-2.31a6.65,6.65,0,0,0-2.87,4.9A1.63,1.63,0,0,1,227.33,92c-1.62,0-2.08-.34-1.92-2a6.77,6.77,0,0,0-2.08-6.17c-1.11-1-1.07-2.54-1-4a19.41,19.41,0,0,1,.76-4.28c.34-1.26-.23-1.63-1.3-1.51-1.58.18-3.15.44-4.72.69a25.25,25.25,0,0,1-8.54.18c-4.57-1.91-5.9-6.89-3.1-11.54.19-.31.42-.6.62-.9.57-.92,1.07-1.16,2.11-.36a6.67,6.67,0,0,0,5.76.82c3.45-.8,6.83-1.88,10.27-2.68a19.68,19.68,0,0,1,13.07,1,11.08,11.08,0,0,1,5.15,4.7,1.71,1.71,0,0,0,1.15,1c4.19,1.06,6.5,4,7.52,8s.5,8.31-.64,12.38a61.33,61.33,0,0,1-3.5,8.86A26.54,26.54,0,0,0,244.28,105.27Z"/><path class="cls-7" d="M79.68,142.16c2.95-.58,5.86-1.26,8.38-3,.7-.5,1-.77.08-1.51-3.4-2.67-5.38-6.33-6.88-10.29a71.77,71.77,0,0,1-3.12-11.15c-.14-.7-.38-.92-1.12-1-3.85-.36-7.21-5.18-6.27-8.91a3.45,3.45,0,0,1,4.41-2.56A3.68,3.68,0,0,1,77.37,105c1,1.63,2.38,1.27,3.79.81,6.85-2.21,12.48-6,16.2-12.35A31.62,31.62,0,0,0,98.91,90a7.93,7.93,0,0,1,2.25,2.22,16.3,16.3,0,0,1,2.7,7.06c.09.57,0,.88-.62.85a1.86,1.86,0,0,0-.66.1c-.58.2-1.47.28-1.25,1.11s1,.31,1.48.17c.94-.28,1.33-.07,1.32,1,0,.64-.3,1.37.36,1.9-.36.58,0,1.39-.55,1.91-.51-.29-.24-1.05-.85-1.37-.38.92.38,1.06.85,1.37a17.6,17.6,0,0,1,.18,10.14,3.75,3.75,0,0,0-.2,2,21.34,21.34,0,0,1-1.86,6.33c-1.49,3.28-3.54,4.33-7.38,3.79-.4-.06-.8-.13-1.2-.23a29.53,29.53,0,0,1-5.73-1.65,18,18,0,0,1-5-3,28.53,28.53,0,0,0,3.08,3.84,16.45,16.45,0,0,0,5.8,3.95,1.62,1.62,0,0,1,1,.72,6.41,6.41,0,0,1,.2,3.19c-.13,1.18.12,2.33.05,3.48-.07,1,1,1.22,1.19,2a53.22,53.22,0,0,1,2.49,9.57c.09.78,0,1.08-.79.65L79.9,142.49C79.79,142.44,79.75,142.27,79.68,142.16Z"/><path class="cls-8" d="M129.09,137.68c1.39-4.73,1.46-9.64,1.95-14.49a16.82,16.82,0,0,1,.72-4.27c.24-.66.55-1.15,1.32-1.15s.87.62,1,1.21a19.67,19.67,0,0,1,.17,4.47c0,2.14,0,4.28,0,6.41,0,.4-.09,1,.37,1.06.63.09.59-.61.65-1,.59-3.3,1.12-6.61,1.71-9.9a11.89,11.89,0,0,1,.73-2.33,1.51,1.51,0,0,1,1.64-1.15c.94.16,1.06,1,1,1.72-.1,1.94-.37,3.87-.54,5.8a48.8,48.8,0,0,0-.63,6.26l.35,0c.31-1.59.63-3.18,1-4.78s.54-2.94.87-4.39c.17-.74.58-1.35,1.51-1.26s1.2.84,1.15,1.57c-.15,1.94-.42,3.87-.65,5.8s-.46,3.59-.66,5.38c0,.33-.19.86.26,1s.62-.46.72-.82a42.56,42.56,0,0,1,2.19-5.69c.28-.68.59-1.37,1.43-1.1s.81.94.67,1.7c-.72,3.83-2.23,7.48-2.72,11.36a30.19,30.19,0,0,1-1.87,8.47c-2.39,5.39-2.63,11.16-3.43,16.83-.52,3.63-1,7.26-1.51,10.89a3.12,3.12,0,0,0,.09,1.46,28.37,28.37,0,0,1-.54,4.11,4.84,4.84,0,0,1-.54,1.52c-.93.68-1.65,0-2.31-.45a32.46,32.46,0,0,1-8.75-9.52,10.8,10.8,0,0,1-1.45-2.75.71.71,0,0,1,.23-.56c1-.83.94-2.13,1.25-3.21A118.79,118.79,0,0,0,130,151.81a2.8,2.8,0,0,0-.43-2.05c-.94-1.49-1.87-3-2.84-4.47a33.34,33.34,0,0,1-3-6.38,26.23,26.23,0,0,0-2.73-5.15c-.4-.59-1.14-1.38-.41-2.06a2.1,2.1,0,0,1,2.43,0,5.75,5.75,0,0,1,1.86,1.78c.56.76,1.07,1.57,1.58,2.36a5.66,5.66,0,0,0,2.26,2.11c3.94.89,6.67,3.08,7.5,6.3a8.7,8.7,0,0,0-6.07-5.89C129.78,138.23,129.27,138.21,129.09,137.68Z"/><path class="cls-9" d="M107.1,195.24a32.45,32.45,0,0,0,7.73.82c.48-.2.52-.95,1.17-.93,2.26,1,4.72.76,7.07.88,3.42.17,6.85.65,10.29.22a.68.68,0,0,1,.37.14c.07.56.41.64.94.73,2.8.47,5.12-.76,7.51-1.9a22.45,22.45,0,0,1,5.67-2.25,2.51,2.51,0,0,1,2.28.48c0,.65-.54.83-1,.86-2.78.18-4.37,1.72-5.24,4.28-.4,1.15-1.38,2-1.93,3.12-.68,1.34-.25,2.08,1.24,2.17a4,4,0,0,0,4-2.11c.91-1.76,2.47-1.75,4-2a2,2,0,0,1,1.48.57c4.08,3.09,8.28,6,11.88,9.7.25.26.58.43.83.7-.06.26-.16.52-.2.79-.26,1.82-1,2.29-2.78,1.72-1.76-1.1-3.25-2.55-4.64-3.46,1,.73,2.26,1.68,3.51,2.7a2.17,2.17,0,0,1,.87,1,1.79,1.79,0,0,1-1.69,2.47c-.35,0-.7-.16-1,0-1.37-1.17-3-2-4.4-3.12,1.42,1.12,3,1.95,4.4,3.13-1,2.16-1.54,2.48-3.28,1.93a15.66,15.66,0,0,1-3.44-1.84c.8.83,2.31,1,3.2,2.14-.1,1.16-.79,1.59-1.9,1.63a15.35,15.35,0,0,1-2.79-.38c.1-1.28.1-2.48-1.3-3.2-.44-.23-.43-.85-.31-1.37a1.52,1.52,0,0,0-1.24-2,1.39,1.39,0,0,1-1.09-1.2,2,2,0,0,0-2.91-1.44,1.26,1.26,0,0,1-1.74-.49,1.92,1.92,0,0,0-3.11-.38c-.14.11-.24.27-.39.37-.6.41-.78,1.33-1.57,1.42s-1-.82-1.52-1.22c-.9-.7-1.72-.14-2.57.07a4.68,4.68,0,0,0-2.67-.21c-2.79.24-5.57.56-8.36.74a30.34,30.34,0,0,1-4.47.31c-.81-.08-.8.55-.86,1.09-.21-1-1-.84-1.71-.79-3.48.27-7,.54-10.42.87-.68.06-1.06,0-1-.75-.75-1.19-.1-2.42.05-3.56A83.21,83.21,0,0,1,106.08,197C106.25,196.36,106.15,195.47,107.1,195.24Z"/><path class="cls-2" d="M164.31,195.29q6.74-1.92,13.48-3.82c6-1.68,11.89-3.6,17.7-5.8a1.34,1.34,0,0,0,.79-.5c1.9.29,3.32,1.46,4.75,2.6.33.26.3.75.26,1.16-.29,3.12-.48,6.24-.71,9.36-.22,2.93-.41,5.87-.65,8.81,0,.54.08,1.1-.38,1.53-9.26,1.8-18.58,3.21-28,4.3-3.44.4-3.44.41-4.34-3.18a2.28,2.28,0,0,1-.8-1.52c-.85-3.51-1.55-7-2.36-10.57A4.08,4.08,0,0,1,164.31,195.29Z"/><path class="cls-3" d="M133.73,196.37a2.11,2.11,0,0,1-1.59.58c-4.69-.23-9.39-.43-14.09-.65a3.17,3.17,0,0,1-2.26-1.07c-.51-.25-.46-.73-.48-1.18a31.72,31.72,0,0,1,.69-7.83,42.23,42.23,0,0,0,.92-7.51A22.9,22.9,0,0,0,114.38,168c-1.89-3.87-3.77-7.74-5.61-11.63-.25-.54-.78-1.07-.33-1.75.24-.37.24-.89.74-1.09,1.25-.5,1.36-1.31.64-2.35a.51.51,0,0,1,.11-.63c4.85,6.49,9.25,13.3,13.91,19.92.4.46.18.93,0,1.4-.68,2.51-1.57,5-1.92,6.65.45-2,1.41-4.8,2.24-7.62.14-.45.17-1.23,1-1.17a7.06,7.06,0,0,1,1.36,2,32.85,32.85,0,0,0,9.23,10.05,2.63,2.63,0,0,0,1.47.67,2.9,2.9,0,0,1,1.11.4c.93.4,1.55.92.95,2-.08.14,0,.35,0,.53A50,50,0,0,1,133.73,196.37Z"/><path class="cls-10" d="M198.48,163.1a.42.42,0,0,1,0,.15,12,12,0,0,1-1.38,2.63A86.6,86.6,0,0,0,192.06,177a4.65,4.65,0,0,1-.66,1.34h-.16c-.58.32-1.23.11-1.83.26-1.53-.57-3.13-.15-4.7-.36a43.14,43.14,0,0,1-8.12-1.72c-2.38-.81-3.23-2.51-2.49-4.88a1.41,1.41,0,0,0-.31-1.37,3.05,3.05,0,0,1-.14-3.8,1.37,1.37,0,0,0-.07-1.62,3,3,0,0,1,.63-3.83,1.23,1.23,0,0,0,.35-1.54c-1-2.76.58-4.74,3.49-4.44,2.08.21,4.16.4,6.23.62.91.09,1.38-.16,1.25-1.21a34.33,34.33,0,0,0-.64-3.48,10.05,10.05,0,0,1,.64-7.42,3.51,3.51,0,0,1,2.86-2,2.82,2.82,0,0,1,1,2.66c-.46,3.84,1,7.05,3.21,10.06a18.49,18.49,0,0,1,2.79,5.4A6.24,6.24,0,0,0,198.48,163.1Z"/><path class="cls-1" d="M93.32,127.81c6,.79,7.15.06,9.25-5.68.46-1.25.42-2.67,1.35-3.74.23,3.24,1.38,6.27,2.14,9.39a21.19,21.19,0,0,1,.67,5.37,6.77,6.77,0,0,1-4.71,6.76c-.8.31-1.64.52-2.46.77a14.36,14.36,0,0,1-5.58.1c-1.39-.23-1.91-1-1.84-2.45.12-2.12.07-4.25.09-6.38-.55-1.22-.15-2.41.16-3.59A.68.68,0,0,1,93.32,127.81Z"/><path class="cls-11" d="M164.31,195.29c.58,4.35,1.78,8.58,2.66,12.87.11.53.19,1.06.28,1.59a1.91,1.91,0,0,1-1.85.8,1.31,1.31,0,0,1-.83-.42,101.7,101.7,0,0,0-11.83-9.58c-.38-.27-.47-1-1.1-.84-1.1.26-2.25.28-3.33.57-.45.12-.55.8-.82,1.21a4.74,4.74,0,0,1-4.37,2.5c-1.63-.07-2.15-1-1.28-2.32a53.44,53.44,0,0,0,3.33-5.78,1.7,1.7,0,0,1,1.24-1c1.64-.37,3.25-.83,4.86-1.3a7.39,7.39,0,0,1,2.79.48c2.38.73,4.75,1.51,7.16,2.14C162.35,196.54,163.58,196.57,164.31,195.29Z"/><path class="cls-3" d="M199.55,208.63c.22-3.47.42-6.94.66-10.41q.3-4.6.68-9.19a1.52,1.52,0,0,0-.88-1.64c-1.27-.7-2.49-1.47-3.73-2.22,0-.1-.07-.21-.1-.31.35-1.05.81-.16,1.08,0,4.28,2.49,8.5,5.1,12.82,7.52,8.41,4.69,16.88,9.3,26.08,12.33a33.21,33.21,0,0,0,6.38,1.41c4.46.52,7.67-1.6,10.28-5,3.78-4.85,5.89-10.52,7.77-16.27a202.2,202.2,0,0,0,7.35-31.68c.34-2.24.45-4.52.67-6.77,0-.43-.05-1.11.56-1.05s.33.7.29,1.1a178.84,178.84,0,0,1-10.17,44.2,37.84,37.84,0,0,1-7,12.25c-3.24,3.62-7.18,4.63-11.84,3.67-6.44-1.31-12.32-4-18.16-6.9q-10-4.92-19.63-10.69c-.27-.16-.5-.4-.88-.35-.55,2-.38,4-.57,6-.4,4.29-.61,8.61-.91,12.91,0,.48.1,1.05-.63,1.16A.2.2,0,0,1,199.55,208.63Z"/><path class="cls-12" d="M219.13,113.68c.11-.61.66-.53,1.06-.67a22.74,22.74,0,0,0,6.6-3.45,9.29,9.29,0,0,0,3.57-5.14c.08-.29.08-.7.54-.6s.34.42.27.68c-1.59,5.73-4,10.9-9.48,14a5.33,5.33,0,0,1-1.15.37Z"/><path class="cls-13" d="M188.39,141.51c-3.82,2-3.94,5.37-3.25,9a32.37,32.37,0,0,1,.75,4.14c.06,1-.27,1.44-1.31,1.33-2.26-.21-4.53-.43-6.79-.54-2.7-.14-3.82,1.48-2.83,4a1.32,1.32,0,0,1-.38,1.67c-1.3,1.22-1.44,2.26-.53,3.87a1.22,1.22,0,0,1,0,1.49,2.78,2.78,0,0,0,.17,3.73,1.2,1.2,0,0,1,.27,1.49c-1,1.93.28,3.85,2.2,4.46A36.58,36.58,0,0,0,188.45,178c.44,0,1.1-.32,1,.61a31.24,31.24,0,0,1-13.11-1.86c-2.55-.87-3.33-2.6-2.54-5.12.18-.56-.07-.84-.31-1.21a3.45,3.45,0,0,1-.13-4.08c.37-.54.15-.87-.09-1.33a3.35,3.35,0,0,1,.71-4.21c.47-.44.43-.73.25-1.27-1-3,.64-5.09,3.8-4.84,2,.16,4.07.35,6.1.6,1,.13,1.3-.18,1-1.18-.32-1.32-.57-2.66-.8-4-.47-2.77-.33-5.46,1.61-7.72C186.53,141.71,187.18,140.67,188.39,141.51Z"/><path class="cls-14" d="M139.49,215.71c-2.28,0-2.45-.07-3-2.3-.09-.34-.15-.52-.59-.53-1.92,0-2.41-.62-2.39-2.64,1.26-1.18,2.29-1.08,3.15.45.54.95.89,1,1.47.09a7.11,7.11,0,0,1,1.72-1.74,1.71,1.71,0,0,1,2.27,0,1.88,1.88,0,0,1,.72,2.41A15.36,15.36,0,0,1,139.49,215.71Z"/><path class="cls-15" d="M139.49,215.71A16.79,16.79,0,0,1,142,212.2c.69-1,1-1.84.09-2.76-.75-.75-1.81-.52-2.83.57-.64.7-1.23,1.44-1.87,2.14-.28.29-.62.7-.77-.15-.41-2.24-1-2.58-3.08-1.76a.31.31,0,0,0-.08-.24c1.11-1.55,2.59-1.16,3.94,1.09,1-.9,1.55-2.25,2.92-2.66s2.22.14,3.11,1.87a2.73,2.73,0,0,1,3.19-.35c1,.55.67,1.71,1.22,2.26s1.92.31,2,1.28a5.39,5.39,0,0,0,1.64,3.88,1.57,1.57,0,0,1-.28,2.1h0c-.86.1-.73-.55-.77-1s0-.88-.43-1.05-.73.37-1.05.65c-.63.57-.69,1.7-1.79,1.81-.19-.08-.45,0-.55-.29-.34-.72.18-1.2.5-1.71a15,15,0,0,0,1.53-2.7c.16-.48.31-1-.23-1.34s-1,0-1.3.38c-.91.94-1.56,2.1-2.37,3.12-.42.53-.85,1.08-1.64.54l0,0c-.55-.63,0-1.09.29-1.53.8-1.15,1.68-2.24,2.44-3.41.38-.58.79-1.25.11-1.82s-1.4-.11-1.9.43c-1,1.13-1.86,2.44-2.85,3.61-.44.53-.89,1.08-1.69.57Z"/><path class="cls-16" d="M151.27,193.63c-.1.78-.82.71-1.27.76-3,.3-5.11,1.65-6.15,4.61a17.19,17.19,0,0,1-1.71,2.78c-.71,1.17-.34,1.84,1.05,1.94a4.94,4.94,0,0,0,4.47-3.22c.29-.68.4-1,1.37-.82s2.3.24,3-1a.39.39,0,0,1,.59-.1c.2.14.12.34,0,.47-.69.87.18,1.08.62,1.39a114.18,114.18,0,0,1,11.31,9.15,10.1,10.1,0,0,1,.81.91.3.3,0,0,0-.05.21c-.56.33-.81-.16-1.11-.46-3.66-3.68-7.93-6.61-12-9.77-1-.78-3.65-.14-4.33,1a5.16,5.16,0,0,1-4.76,2.85c-1.92-.08-2.6-1.37-1.53-3a38.26,38.26,0,0,0,3.11-5.41,2.58,2.58,0,0,1,2.07-1.54,9.7,9.7,0,0,0,3.35-1C150.53,193.4,151,193.14,151.27,193.63Z"/><path class="cls-17" d="M139.48,215.71c.61.21.88-.16,1.2-.6.81-1.15,1.66-2.27,2.52-3.38a6.58,6.58,0,0,1,1.05-1.06,1.49,1.49,0,0,1,2.1-.06,1.56,1.56,0,0,1,.15,2.22c-.94,1.33-1.93,2.63-2.89,3.95a2.12,2.12,0,0,0-.53,1.08c-1.68.65-2.3.38-3-1.26A6.47,6.47,0,0,0,139.48,215.71Z"/><path class="cls-18" d="M143.06,217.84c.58.3.79-.14,1.06-.51.83-1.18,1.69-2.35,2.54-3.52a1.42,1.42,0,0,1,2-.55,1.31,1.31,0,0,1,.46,2c-.79,1.46-1.69,2.87-2.55,4.3-1.17.39-2.3.72-2.8-1C143.68,218.3,143.31,218.09,143.06,217.84Z"/><path class="cls-19" d="M139.35,185.41a1.87,1.87,0,0,0-1.6-2.35.67.67,0,0,1-.46-.61c.29-1.76.58-3.53.86-5.29a.44.44,0,0,1,.45-.41c.32,1.22.63,2.45,1,3.66A6.61,6.61,0,0,1,139.35,185.41Z"/><path class="cls-9" d="M147.12,219.84c.56-.82,1.1-1.64,1.68-2.44.3-.42.57-1,1.29-.66s.75.8.77,1.42c0,.45-.35,1,.3,1.31C149.87,221.56,148.56,221.67,147.12,219.84Z"/><path class="cls-20" d="M125.23,169.72A67.17,67.17,0,0,0,122,179.81c-.13.47-.11,1-.57,1.41-.57-.43-.31-1-.19-1.45.84-3.11,1.71-6.21,2.56-9.31.2-.44.41-.87.6-1.31s.52-.24.8-.05C125.23,169.31,125.23,169.51,125.23,169.72Z"/><path class="cls-21" d="M129.09,137.68c2.77.73,5.15,2,6.65,4.58a11.49,11.49,0,0,1,1.2,3.6c.06.3.16.7-.31.74s-.37-.32-.41-.59c-.51-3.9-2.77-6.28-6.44-7.44-.39-.13-.81-.19-1-.62Z"/><path class="cls-22" d="M162.11,213.51l-5.64-4.26c-.22-.16-.45-.35-.25-.66a.3.3,0,0,1,.47-.08c1.79,1.7,4.16,2.73,5.68,4.76Z"/><path class="cls-23" d="M155.85,218.22a28.32,28.32,0,0,1-4.32-2.46c-.2-.12-.38-.29-.26-.54a.32.32,0,0,1,.55-.09c1.29,1.15,3,1.57,4.27,2.79Z"/><path class="cls-3" d="M203.59,163.59c7,2.19,13.86,4.67,20.75,7.11,1.89.67,3.78,1.33,5.65,2,.8.3,1.13.12,1.25-.76q1-7.56,2.12-15.1c1-6.6,1.79-13.25,4.19-19.53s6.68-10.76,13.61-12.09a14.3,14.3,0,0,1,2.17-.14c.3,0,.74,0,.72.4s-.42.42-.73.42a13.59,13.59,0,0,0-4.68.84c-5.38,1.85-8.46,5.91-10.42,11-2.06,5.33-2.86,11-3.73,16.57-.75,4.79-1.38,9.61-2.05,14.42-.13.9-.21,1.8-.35,2.7s.19.91.91.68a9.54,9.54,0,0,1,5.24-.32,1.75,1.75,0,0,1,1.29.89c-2.61-.4-4.92-.53-7.31.7.8.33,1.44.58,2.07.85a39.4,39.4,0,0,1,7,3.7c.29.2.93.37.61.87s-.68,0-1-.2a39.85,39.85,0,0,0-8.64-4.31l-27.79-9.73c-.46-.16-1.19-.14-.85-1Z"/><path class="cls-13" d="M191.4,178.35a14.33,14.33,0,0,1,1.37-4.08,74,74,0,0,1,4.78-9.75c.26-.46.44-1,1-1.27.43.13.44.37.21.71a77.71,77.71,0,0,0-6.5,13.47C192.07,177.84,192,178.36,191.4,178.35Z"/><path class="cls-24" d="M107.1,195.24a52.83,52.83,0,0,0-2.2,8.92c-.43,2.34-.68,4.73-1,7.09-.11,1.31-.25,2.61-.33,3.92a1.08,1.08,0,0,1-1.32,1.16c-7.21-.5-14.41-1.18-21.34-3.37-3.68-1.17-6.1-4-8.43-6.89-6.69-8.23-12-17.33-16.86-26.69-.82-1.57-1.64-3.15-2.41-4.74-.18-.37-.86-.89-.16-1.23.54-.26.66.47.84.84,1.85,3.85,3.87,7.61,6,11.34a154.83,154.83,0,0,0,13.61,20.54,19.74,19.74,0,0,0,13,7.5c4.94.77,9.86,1.55,14.86,1.85,1.14.07,1.57-.15,1.64-1.41a87.13,87.13,0,0,1,3.28-18.89c.27-1,.16-1.36-.88-1.58-4.13-.89-8.25-1.83-12.36-2.79a2.33,2.33,0,0,0-1.92.35,16.32,16.32,0,0,0-6,6.56c-.17.34-.27,1-.78.71s0-.74.13-1.08A16.88,16.88,0,0,1,89.85,191c.22-.15.45-.3.66-.47.06,0,.07-.16.14-.33a10.86,10.86,0,0,0-6.88,2.48c-.22.17-.4.37-.62.53s-.42.23-.61,0-.05-.45.12-.59a21.19,21.19,0,0,1,2-1.46,11,11,0,0,1,5.4-1.72c.75,0,.83-.25.49-.89-5.75-10.88-11.05-22-17.38-32.59A19.72,19.72,0,0,0,63,147.09c-.37-.13-1.14-.12-.84-.76.22-.46.83-.07,1.23.08a20,20,0,0,1,10,8.51c4.25,6.73,7.75,13.88,11.43,20.93q3.39,6.45,6.71,13a2.22,2.22,0,0,0,1.61,1.29c4.17.89,8.33,1.86,12.49,2.78C107.35,193.27,107.35,193.25,107.1,195.24Z"/><path class="cls-25" d="M108.44,154.61c2,4.18,3.82,8.42,6,12.52a25.68,25.68,0,0,1,2.28,17.44,36.73,36.73,0,0,0-.89,10.66c-.16.46-.09,1.18-1,.83-.3-5,.88-9.93,1.48-14.87a23,23,0,0,0-2.39-13.2c-2.7-5.5-5.31-11-8-16.58-.15-.32-.63-.77-.06-1s.62.36.78.7C107.29,152.25,107.86,153.43,108.44,154.61Z"/><path class="cls-26" d="M215.61,101.19a7.61,7.61,0,0,1-5.4,3.91c-1.07.17-2.69-1.73-2.47-2.79.11-.52.57-.55,1-.58C210.91,101.54,213.11,101.38,215.61,101.19Z"/><path class="cls-27" d="M212.08,82.68a8.63,8.63,0,0,1,4.84,1.41c.44.3,1,.63.57,1.3s-.91.45-1.44.19a9,9,0,0,0-6.62-.52c-.65.18-1.19.17-1.42-.58s.21-1.17.92-1.37A14,14,0,0,1,212.08,82.68Z"/><path class="cls-28" d="M234.72,92.48c-1.95-.62-2-.56-2.56,1.39-.15.55-.07,1.7-.7,1.52s-.13-1.2,0-1.77c.42-1.37-.32-2.87.62-4.2.68-1,1.18-2,2.37-2.51.32-.13.73-.43.93.06s-.3.47-.56.59a4.08,4.08,0,0,0-2.05,2.1c-.45.93-.89,1.8.85,1.72A.94.94,0,0,1,234.72,92.48Z"/><path class="cls-29" d="M212.39,89c0,.81-.16,1.63-1.06,1.68s-1.14-.77-1.13-1.54.13-1.6,1-1.64S212.34,88.26,212.39,89Z"/><path class="cls-30" d="M93.32,127.81c-.79.32-.46,1.08-.64,1.64-.25.81,0,1.71-.45,2.5a9.84,9.84,0,0,1-4.8-2.39,19.75,19.75,0,0,1-5.38-6.23,1.28,1.28,0,0,1-.26-1.18C85,125.39,89,126.89,93.32,127.81Z"/><path class="cls-31" d="M97.26,116.7a37.29,37.29,0,0,1,3.95.18c.91.1.91.47.64,1.17a3.41,3.41,0,0,1-3.13,2.2c-2.09.06-3.47-1.16-4.7-2.6-.54-.63-.29-1,.52-1Z"/><path class="cls-32" d="M95.1,100.27a4.47,4.47,0,0,1,2,.34c.42.17.69.43.53.94a.63.63,0,0,1-.87.41,8.23,8.23,0,0,0-6.39.93c-.23.13-.54.28-.73,0s0-.68.32-.89A8,8,0,0,1,95.1,100.27Z"/><path class="cls-33" d="M100.5,103.46a26.07,26.07,0,0,0,3,7.85,1.46,1.46,0,0,1-.9,2.19,2.84,2.84,0,0,1-1,.36c-.63,0-1.65.66-1.8-.09s1-.37,1.52-.5c1.71-.42,2-1,1.12-2.6a17.32,17.32,0,0,1-2.2-5.4A1.81,1.81,0,0,1,100.5,103.46Z"/><path class="cls-34" d="M76,110.12a1.1,1.1,0,0,0-.75.23c-.22.16-.44.66-.76.26s.1-.74.41-1a1.54,1.54,0,0,1,.48-.24c1.35-.4,1.42-.61.52-1.78A3.25,3.25,0,0,0,74,106.28c-.32-.08-.88-.07-.68-.58s.64-.24,1-.11a4.58,4.58,0,0,1,3.07,3.52,8.37,8.37,0,0,0,.67,2.42c.13.23.3.54,0,.71s-.48-.14-.6-.39-.34-.74-.49-1.12A.89.89,0,0,0,76,110.12Z"/><path class="cls-35" d="M96.41,105.6c0,.73-.17,1.43-1,1.44s-1-.66-1-1.35.18-1.36,1-1.39S96.34,105,96.41,105.6Z"/><path class="cls-36" d="M103.94,106.26c-.5.33-1,.51-1.38-.14a1.58,1.58,0,0,1,0-1.78.66.66,0,0,1,.71-.29.85.85,0,0,1,.7.73,12.19,12.19,0,0,1,0,1.48Z"/><path class="cls-37" d="M133.28,132.29a7.9,7.9,0,0,1,4.39-.06,19.15,19.15,0,0,1,5.08,2.21c.23.14.5.3.33.63a.33.33,0,0,1-.49.08A16.08,16.08,0,0,0,133.28,132.29Z"/><path class="cls-38" d="M159.37,216c-1,0-1.44-.83-2.17-1.24-1.11-.61-2.13-1.37-3.19-2.07-.19-.12-.4-.27-.28-.54a.37.37,0,0,1,.57-.16c1.7,1.19,3.4,2.4,5.09,3.61.06,0,0,.26,0,.4Z"/><path class="cls-1" d="M160.44,19.46h2.17a5,5,0,0,1-.69,2.21,4.14,4.14,0,0,1-1.66,1.52,5.57,5.57,0,0,1-2.59.56,5.1,5.1,0,0,1-2.11-.42,4.54,4.54,0,0,1-1.61-1.2,5.48,5.48,0,0,1-1-1.88,8.16,8.16,0,0,1-.35-2.46V16.74a7.85,7.85,0,0,1,.36-2.46,5.4,5.4,0,0,1,1-1.89,4.3,4.3,0,0,1,1.63-1.2,5.19,5.19,0,0,1,2.13-.42,5.41,5.41,0,0,1,2.56.56,4,4,0,0,1,1.61,1.53,5.47,5.47,0,0,1,.71,2.25h-2.17a4,4,0,0,0-.38-1.4,2,2,0,0,0-.85-.89,3.16,3.16,0,0,0-1.48-.31,3,3,0,0,0-1.3.28,2.41,2.41,0,0,0-.92.82,3.79,3.79,0,0,0-.56,1.32,7.45,7.45,0,0,0-.19,1.79v1.07a8.39,8.39,0,0,0,.17,1.73,3.89,3.89,0,0,0,.52,1.33,2.39,2.39,0,0,0,.9.86,2.67,2.67,0,0,0,1.31.3,3.36,3.36,0,0,0,1.5-.29,2,2,0,0,0,.88-.86A3.92,3.92,0,0,0,160.44,19.46Z"/><path class="cls-1" d="M174.65,16.91v.7a8.11,8.11,0,0,1-.37,2.56,5.58,5.58,0,0,1-1.06,1.94,4.56,4.56,0,0,1-1.66,1.22,5.59,5.59,0,0,1-4.25,0,4.74,4.74,0,0,1-1.66-1.22,5.63,5.63,0,0,1-1.09-1.94,7.82,7.82,0,0,1-.39-2.56v-.7a8.1,8.1,0,0,1,.38-2.56,5.88,5.88,0,0,1,1.08-1.94,4.74,4.74,0,0,1,1.66-1.22,5.24,5.24,0,0,1,2.12-.42,5.34,5.34,0,0,1,2.14.42,4.61,4.61,0,0,1,1.65,1.22,5.53,5.53,0,0,1,1.07,1.94A7.83,7.83,0,0,1,174.65,16.91Zm-2.18.7V16.9a7.5,7.5,0,0,0-.2-1.87,4,4,0,0,0-.6-1.37,2.58,2.58,0,0,0-1-.83,2.84,2.84,0,0,0-1.29-.28,2.77,2.77,0,0,0-1.28.28,2.63,2.63,0,0,0-1,.83,4.21,4.21,0,0,0-.6,1.37,7.47,7.47,0,0,0-.21,1.87v.71a7.52,7.52,0,0,0,.21,1.87,4.16,4.16,0,0,0,.61,1.38,2.68,2.68,0,0,0,1,.84,3.09,3.09,0,0,0,2.57,0,2.57,2.57,0,0,0,1-.84,4.36,4.36,0,0,0,.59-1.38A7.55,7.55,0,0,0,172.47,17.61Z"/><path class="cls-1" d="M179,10.94V23.57h-2.18V10.94Zm6.17,5.28V18h-6.71V16.22Zm1.67-5.28V23.57h-2.17V10.94Z"/><path class="cls-1" d="M191.6,10.94V23.57h-2.18V10.94Zm6.05,0v1.74H191V10.94Zm-.83,5.28v1.7H191v-1.7Zm.87,5.63v1.72H191V21.85Z"/><path class="cls-1" d="M199.46,10.94h4.47a6.17,6.17,0,0,1,2.45.44,3.31,3.31,0,0,1,1.56,1.28,3.79,3.79,0,0,1,.54,2.08,3.83,3.83,0,0,1-.34,1.67,3.49,3.49,0,0,1-1,1.21,4.76,4.76,0,0,1-1.51.76l-.66.32h-4L201,17h3a2.78,2.78,0,0,0,1.3-.27,1.93,1.93,0,0,0,.79-.76,2.2,2.2,0,0,0,.26-1.09,2.47,2.47,0,0,0-.25-1.15,1.71,1.71,0,0,0-.79-.76,3.07,3.07,0,0,0-1.34-.26h-2.29V23.57h-2.18Zm7.21,12.63-3-5.67H206l3,5.57v.11Z"/><path class="cls-1" d="M212.82,10.94V23.57h-2.18V10.94Zm6.05,0v1.74H212.2V10.94ZM218,16.22v1.7H212.2v-1.7Zm.88,5.63v1.72H212.2V21.85Z"/><path class="cls-1" d="M230.7,10.94V23.57h-2.18l-5.66-9v9h-2.18V10.94h2.18L228.54,20V10.94Z"/><path class="cls-1" d="M240.74,19.46h2.17a5,5,0,0,1-.69,2.21,4.07,4.07,0,0,1-1.66,1.52,5.54,5.54,0,0,1-2.59.56,5.13,5.13,0,0,1-2.11-.42,4.5,4.5,0,0,1-1.6-1.2,5.16,5.16,0,0,1-1-1.88,7.85,7.85,0,0,1-.36-2.46V16.74a7.57,7.57,0,0,1,.37-2.46,5.23,5.23,0,0,1,1-1.89,4.3,4.3,0,0,1,1.63-1.2,5.21,5.21,0,0,1,2.14-.42,5.4,5.4,0,0,1,2.55.56,4,4,0,0,1,1.61,1.53,5.47,5.47,0,0,1,.71,2.25h-2.17a4.21,4.21,0,0,0-.37-1.4,2.05,2.05,0,0,0-.86-.89,3.11,3.11,0,0,0-1.47-.31,2.93,2.93,0,0,0-1.3.28,2.52,2.52,0,0,0-.93.82,3.79,3.79,0,0,0-.56,1.32,7.45,7.45,0,0,0-.19,1.79v1.07a8.39,8.39,0,0,0,.17,1.73,4.11,4.11,0,0,0,.52,1.33,2.39,2.39,0,0,0,.9.86A2.67,2.67,0,0,0,238,22a3.36,3.36,0,0,0,1.5-.29,2,2,0,0,0,.88-.86A3.92,3.92,0,0,0,240.74,19.46Z"/><path class="cls-1" d="M247.21,10.94V23.57H245V10.94Z"/><path class="cls-1" d="M255,12.63l-3.78,10.94h-2.28l4.76-12.63h1.45Zm3,6.26v1.73h-6.87V18.89Zm.19,4.68-3.79-10.94-.16-1.69h1.46l4.78,12.63Z"/><path class="cls-1" d="M268.44,10.94V23.57h-2.17V10.94Zm6.05,0v1.74h-6.66V10.94Zm-.83,5.28v1.7h-5.83v-1.7Zm.87,5.63v1.72h-6.7V21.85ZM269.38,10.1l1.69-2.61h2.36l-2.36,2.61Z"/><path class="cls-1" d="M285.64,10.94v1.74H275.58V10.94Zm-4,0V23.57h-2.16V10.94Z"/><path class="cls-1" d="M289.63,10.94V23.57h-2.18V10.94Z"/><path class="cls-1" d="M299.79,19.46H302a5,5,0,0,1-.69,2.21,4.14,4.14,0,0,1-1.66,1.52,5.57,5.57,0,0,1-2.59.56,5.1,5.1,0,0,1-2.11-.42,4.54,4.54,0,0,1-1.61-1.2,5.48,5.48,0,0,1-1-1.88,8.16,8.16,0,0,1-.35-2.46V16.74a7.85,7.85,0,0,1,.36-2.46,5.4,5.4,0,0,1,1-1.89,4.3,4.3,0,0,1,1.63-1.2,5.21,5.21,0,0,1,2.14-.42,5.4,5.4,0,0,1,2.55.56,4,4,0,0,1,1.61,1.53,5.47,5.47,0,0,1,.71,2.25H299.8a4,4,0,0,0-.38-1.4,2,2,0,0,0-.85-.89,3.14,3.14,0,0,0-1.47-.31,3,3,0,0,0-1.31.28,2.41,2.41,0,0,0-.92.82,3.79,3.79,0,0,0-.56,1.32,7.45,7.45,0,0,0-.19,1.79v1.07a8.39,8.39,0,0,0,.17,1.73,3.89,3.89,0,0,0,.52,1.33,2.39,2.39,0,0,0,.9.86A2.67,2.67,0,0,0,297,22a3.36,3.36,0,0,0,1.5-.29,2,2,0,0,0,.88-.86A3.92,3.92,0,0,0,299.79,19.46Z"/><path class="cls-1" d="M308.85,12.63l-3.77,10.94h-2.29l4.76-12.63H309Zm3,6.26v1.73H305V18.89Zm.19,4.68-3.79-10.94-.16-1.69h1.47l4.77,12.63Z"/><path class="cls-1" d="M322.3,10.94V23.57h-2.17V10.94Zm6.05,0v1.74h-6.66V10.94Zm-.83,5.28v1.7h-5.83v-1.7Zm.87,5.63v1.72h-6.7V21.85Z"/><path class="cls-1" d="M340.18,10.94V23.57H338l-5.66-9v9h-2.18V10.94h2.18L338,20V10.94Z"/><path class="cls-1" d="M170.38,28.94V41.57H168.2V28.94Zm5.73,10.91v1.72h-6.34V39.85Z"/><path class="cls-1" d="M182.88,30.63l-3.77,10.94h-2.29l4.76-12.63H183Zm3,6.26v1.73H179V36.89Zm.18,4.68-3.78-10.94-.17-1.69h1.47l4.77,12.63Z"/><path class="cls-1" d="M201.62,37.46h2.17a5,5,0,0,1-.7,2.21,4,4,0,0,1-1.66,1.52,5.54,5.54,0,0,1-2.59.56,5.13,5.13,0,0,1-2.11-.42,4.5,4.5,0,0,1-1.6-1.2,5.16,5.16,0,0,1-1-1.88,7.86,7.86,0,0,1-.35-2.46v-1a7.85,7.85,0,0,1,.36-2.46,5.38,5.38,0,0,1,1-1.89,4.46,4.46,0,0,1,1.63-1.2,5.24,5.24,0,0,1,2.14-.42,5.34,5.34,0,0,1,2.55.56,4.12,4.12,0,0,1,1.62,1.53,5.46,5.46,0,0,1,.7,2.25h-2.16a4.21,4.21,0,0,0-.38-1.4,2.05,2.05,0,0,0-.86-.89,3.09,3.09,0,0,0-1.47-.31,2.93,2.93,0,0,0-1.3.28,2.52,2.52,0,0,0-.93.82,3.79,3.79,0,0,0-.56,1.32,8,8,0,0,0-.19,1.79v1.07a8.39,8.39,0,0,0,.17,1.73,4.35,4.35,0,0,0,.52,1.33,2.55,2.55,0,0,0,.9.86,2.7,2.7,0,0,0,1.31.3,3.44,3.44,0,0,0,1.51-.29,2.06,2.06,0,0,0,.87-.86A4.13,4.13,0,0,0,201.62,37.46Z"/><path class="cls-1" d="M215.83,34.91v.7a8.1,8.1,0,0,1-.38,2.56,5.58,5.58,0,0,1-1.06,1.94,4.61,4.61,0,0,1-1.65,1.22,5.31,5.31,0,0,1-2.14.42,5.24,5.24,0,0,1-2.12-.42,4.74,4.74,0,0,1-1.66-1.22,5.63,5.63,0,0,1-1.09-1.94,8.1,8.1,0,0,1-.38-2.56v-.7a7.83,7.83,0,0,1,.38-2.56,5.54,5.54,0,0,1,1.08-1.94,4.65,4.65,0,0,1,1.66-1.22,5.18,5.18,0,0,1,2.12-.42,5.26,5.26,0,0,1,2.13.42,4.74,4.74,0,0,1,1.66,1.22,5.69,5.69,0,0,1,1.07,1.94A8.1,8.1,0,0,1,215.83,34.91Zm-2.18.7V34.9a8,8,0,0,0-.2-1.87,4.21,4.21,0,0,0-.6-1.37,2.74,2.74,0,0,0-1-.83,3.11,3.11,0,0,0-2.58,0,2.8,2.8,0,0,0-1,.83,4.21,4.21,0,0,0-.6,1.37,7.47,7.47,0,0,0-.21,1.87v.71a7.52,7.52,0,0,0,.21,1.87,4.16,4.16,0,0,0,.61,1.38,2.68,2.68,0,0,0,1,.84,2.94,2.94,0,0,0,1.28.28,3,3,0,0,0,1.3-.28,2.62,2.62,0,0,0,.95-.84,4.36,4.36,0,0,0,.6-1.38A8.06,8.06,0,0,0,213.65,35.61Z"/><path class="cls-1" d="M218,28.94h1.85l.32,8.44v4.19H218Zm.89,0h1.94l3.65,9.75,3.65-9.75h1.94l-4.82,12.63h-1.55Zm10.22,0H231V41.57h-2.17V37.38Z"/><path class="cls-1" d="M240.62,28.94h2.17v8.44a4.38,4.38,0,0,1-.63,2.42,3.94,3.94,0,0,1-1.69,1.46,6.17,6.17,0,0,1-4.82,0A3.91,3.91,0,0,1,234,39.8a4.46,4.46,0,0,1-.61-2.42V28.94h2.17v8.44a3.15,3.15,0,0,0,.31,1.5,1.93,1.93,0,0,0,.88.86,3.06,3.06,0,0,0,1.36.28,3,3,0,0,0,1.35-.28,2,2,0,0,0,.88-.86,3.28,3.28,0,0,0,.31-1.5Z"/><path class="cls-1" d="M255.17,28.94V41.57H253l-5.67-9v9h-2.17V28.94h2.17L253,38V28.94Z"/><path class="cls-1" d="M260.08,28.94V41.57h-2.17V28.94Z"/><path class="cls-1" d="M270.25,37.46h2.17a5,5,0,0,1-.69,2.21,4.14,4.14,0,0,1-1.66,1.52,5.57,5.57,0,0,1-2.59.56,5.06,5.06,0,0,1-2.11-.42,4.54,4.54,0,0,1-1.61-1.2,5.48,5.48,0,0,1-1-1.88,8.16,8.16,0,0,1-.35-2.46v-1a7.85,7.85,0,0,1,.36-2.46,5.4,5.4,0,0,1,1-1.89,4.3,4.3,0,0,1,1.63-1.2,5.19,5.19,0,0,1,2.13-.42,5.34,5.34,0,0,1,2.55.56,4,4,0,0,1,1.62,1.53,5.47,5.47,0,0,1,.71,2.25h-2.17a4,4,0,0,0-.38-1.4,2,2,0,0,0-.85-.89,3.16,3.16,0,0,0-1.48-.31,3,3,0,0,0-1.3.28,2.52,2.52,0,0,0-.93.82,4.2,4.2,0,0,0-.56,1.32,8,8,0,0,0-.18,1.79v1.07a7.75,7.75,0,0,0,.17,1.73,3.89,3.89,0,0,0,.52,1.33,2.39,2.39,0,0,0,.9.86,2.67,2.67,0,0,0,1.31.3,3.39,3.39,0,0,0,1.5-.29,2.09,2.09,0,0,0,.88-.86A3.92,3.92,0,0,0,270.25,37.46Z"/><path class="cls-1" d="M279.31,30.63l-3.78,10.94h-2.28L278,28.94h1.45Zm3,6.26v1.73h-6.87V36.89Zm.19,4.68-3.79-10.94-.16-1.69H280l4.78,12.63Z"/><path class="cls-1" d="M293.53,37.46h2.17a5,5,0,0,1-.69,2.21,4.07,4.07,0,0,1-1.66,1.52,5.54,5.54,0,0,1-2.59.56,5.1,5.1,0,0,1-2.11-.42,4.5,4.5,0,0,1-1.6-1.2,5.16,5.16,0,0,1-1-1.88,7.85,7.85,0,0,1-.36-2.46v-1a7.85,7.85,0,0,1,.36-2.46,5.4,5.4,0,0,1,1-1.89,4.3,4.3,0,0,1,1.63-1.2,5.21,5.21,0,0,1,2.14-.42,5.4,5.4,0,0,1,2.55.56A4,4,0,0,1,295,30.86a5.47,5.47,0,0,1,.71,2.25h-2.17a4.21,4.21,0,0,0-.37-1.4,2.05,2.05,0,0,0-.86-.89,3.14,3.14,0,0,0-1.47-.31,3,3,0,0,0-1.31.28,2.49,2.49,0,0,0-.92.82,3.79,3.79,0,0,0-.56,1.32,7.45,7.45,0,0,0-.19,1.79v1.07a8.39,8.39,0,0,0,.17,1.73,4.11,4.11,0,0,0,.52,1.33,2.39,2.39,0,0,0,.9.86,2.67,2.67,0,0,0,1.31.3,3.36,3.36,0,0,0,1.5-.29,2,2,0,0,0,.88-.86A3.92,3.92,0,0,0,293.53,37.46Z"/><path class="cls-1" d="M300,28.94V41.57h-2.18V28.94Z"/><path class="cls-1" d="M312.77,34.91v.7a8.11,8.11,0,0,1-.37,2.56,5.58,5.58,0,0,1-1.06,1.94,4.61,4.61,0,0,1-1.65,1.22,5.34,5.34,0,0,1-2.14.42,5.24,5.24,0,0,1-2.12-.42,4.74,4.74,0,0,1-1.66-1.22,5.63,5.63,0,0,1-1.09-1.94,7.83,7.83,0,0,1-.38-2.56v-.7a7.83,7.83,0,0,1,.38-2.56,5.54,5.54,0,0,1,1.08-1.94,4.61,4.61,0,0,1,1.65-1.22,5.61,5.61,0,0,1,4.26,0,4.74,4.74,0,0,1,1.66,1.22,5.69,5.69,0,0,1,1.07,1.94A8.11,8.11,0,0,1,312.77,34.91Zm-2.17.7V34.9a7.47,7.47,0,0,0-.21-1.87,3.82,3.82,0,0,0-.6-1.37,2.63,2.63,0,0,0-1-.83,2.89,2.89,0,0,0-1.3-.28,2.62,2.62,0,0,0-2.24,1.11,4.21,4.21,0,0,0-.6,1.37,7.47,7.47,0,0,0-.21,1.87v.71a7.52,7.52,0,0,0,.21,1.87,4.16,4.16,0,0,0,.61,1.38,2.68,2.68,0,0,0,1,.84,3.09,3.09,0,0,0,2.57,0,2.57,2.57,0,0,0,1-.84,4.14,4.14,0,0,0,.59-1.38A7.52,7.52,0,0,0,310.6,35.61Zm-4.11-7.45,1.7-2.62h2.36l-2.36,2.62Z"/><path class="cls-1" d="M325,28.94V41.57h-2.18l-5.66-9v9h-2.18V28.94h2.18L322.8,38V28.94Z"/></svg>