<svg id="Capa_1" data-name="Capa 1" xmlns="http://www.w3.org/2000/svg" viewBox="0 0 219.64 207.54"><defs><style>.cls-1{fill:#c8895e;}</style></defs><path class="cls-1" d="M165.14,165.78c-9.22,0-18.44.1-27.66-.07-1.87,0-2.22,1.17-2.94,2.15q-16.86,22.81-44.91,27C55,199.87,21.11,174.64,16,140.05,10.67,104.59,32.78,72.59,67.82,65a57.56,57.56,0,0,1,15.92-1.16c2.22.13,2.85-.47,3-2.71a48.67,48.67,0,0,1,4.41-17.17c1.07-2.3,2.53-4.08,5.34-2.76,2.56,1.2,2.4,3.35,1.42,5.58-6.2,14.13-5.1,27.73,2.34,41.19,2.64,4.78,1.11,10.19,0,15.3a11.06,11.06,0,0,1-1.08,3.08c-1.65,3-.09,3.35,2.45,3.43a34.09,34.09,0,0,0,15.59-2.89,8.5,8.5,0,0,1,6.62-.38C153,115.76,181.7,94.52,181.3,64c-.39-30-31-50.55-59.31-39.83l-1.69.68c-2.42,1-4.7,1-5.74-1.82-1-2.64.81-4,3-5,29.29-13.27,65.05,6,70.29,37.87,4.55,27.7-12.17,52.64-39.62,58.92-2.33.53-2.82,1.39-2.36,3.68,1.16,5.73,1,5.76,7,5.76q19.49,0,39,0c6.61,0,9.77,3.2,9.79,9.84q0,11.29,0,22.58c0,6-3.22,9.23-9.21,9.27-9.11.06-18.21,0-27.31,0ZM40.35,171.62c2.53-11,7.71-19.57,16.38-25.75,2.2-1.56,2.38-2.38.83-4.67a27.83,27.83,0,0,1,.53-32.07A28.58,28.58,0,0,1,88,98.19c1.84.45,4.32,2.82,5.4,1,1.31-2.21,1.1-5.4.21-8.15a21,21,0,0,0-1-1.91c-1.25-2.89-2.32-5.86-3.72-8.67-1.48-3,.16-7.79-3.51-9-3.25-1.1-7.19-.18-10.83-.13a10.17,10.17,0,0,0-1.44.2c-33.24,5.3-54.42,33.63-49.87,67C25,151.25,30.8,162.09,40.35,171.62ZM81.06,188a57.53,57.53,0,0,0,31.64-9.22c1.42-.9,2.36-1.75,2-3.73-1.63-10.38-6.64-18.56-15.38-24.46a4.06,4.06,0,0,0-4.87-.2c-9,4.8-18.13,4.79-27.08-.06-2-1.08-3.23-.78-4.87.32-8.51,5.73-13.45,13.71-15.2,23.77a3.83,3.83,0,0,0,2.06,4.45A58.18,58.18,0,0,0,81.06,188Zm48.78-42.81c1.11.81,1.76,1.35,2.47,1.78,3.78,2.3,7.64,4.47,6.57,10-.33,1.74,1.24,1.75,2.48,1.75,16.74,0,33.48,0,50.22,0,1.95,0,2.86-.51,2.83-2.67-.11-7.28-.08-14.55,0-21.83,0-1.8-.51-2.64-2.47-2.64q-25.3.07-50.59,0c-1.9,0-2.78.73-2.5,2.55.62,4-1.35,6.39-4.67,8.12A51.18,51.18,0,0,0,129.84,145.16ZM82.1,104.7c-13.18,0-22.53,10-21.92,22.25a20.91,20.91,0,1,0,41.57-4.25c-.71-5.14-1.08-5.49-6.44-6.39a18.2,18.2,0,0,1-3.89-.91c-2.2-.9-3.58-2.75-2.21-4.89,2.44-3.8,0-4.45-2.77-5.07C84.67,105.06,82.86,104.83,82.1,104.7Zm39.72,66.72a49.55,49.55,0,0,0,9-11.3c1.34-2.41,1.31-4.82-1.59-6.49-2.41-1.39-4.69-3-7-4.59-3.79-2.59-3.83-5-.13-7.57,2.4-1.65,4.82-3.26,7.29-4.82,1.31-.82,2.18-1.7,2.13-3.44-.12-4.28,1.92-7.25,6-8.51,2.44-.74,1.69-2.53,1.31-3.79-.5-1.7.7-4.59-2.57-4.77-8.49-.47-16.95-4.26-25.52.16-1.79.92-2.76,1.15-2.24,3.38A26.63,26.63,0,0,1,104,141.81c-1.19,1.68-1.11,2.42.6,3.58a39.92,39.92,0,0,1,14.55,18.23C120.19,166,120.88,168.59,121.82,171.42Z"/><path class="cls-1" d="M129.83,51.33c1.77-4.54,3.12-8.17,4.61-11.74,2.24-5.37,5.83-7.74,10.19-6.89,4.8.94,7.49,4.7,7.52,10.5a8.77,8.77,0,0,1,0,1.45c-.59,3.52.44,4.94,4.44,5.11,6.55.29,10.82,5.14,11.1,11.73a85.64,85.64,0,0,1-.2,12c-.78,7.79-7.56,14.29-15.38,14.4C144.74,88,137.29,89,130,86.75c-.59-.18-1.22-.38-1.73,0-4.79,4-10.47,2-15.76,2.11-3.76,0-6.15-2.85-6.2-6.76q-.16-14.2,0-28.4c0-4.25,2.57-6.78,6.8-7,3.27-.17,6.55-.05,9.83,0C125.87,46.72,128,48.2,129.83,51.33Zm.1,17.26c0,2.3.18,4.62-.05,6.9-.29,2.88.93,4.25,3.67,4.67a82.51,82.51,0,0,0,19.55.22c3-.25,5.15-2.49,6.46-5.32,1.13-2.41.86-5,.87-7.5,0-10.54,0-10.54-10.38-10.75-4.22-.09-5.15-1-5.2-5.13,0-3.15,0-6.3,0-9.45,0-1.06-.33-2-1.47-2.17s-1.48.74-1.79,1.49c-1.33,3.25-2.6,6.51-3.87,9.78-.89,2.3-1.94,4.8-4.21,5.71-3.42,1.37-3.92,3.7-3.59,6.83A46.41,46.41,0,0,1,129.93,68.59Zm-7.34-.49c0-3.63-.14-7.27,0-10.9.13-2.62-.93-3.5-3.37-3.2a6.93,6.93,0,0,1-1.82,0c-2.9-.42-4,.54-3.91,3.71.25,6.16,0,12.35.09,18.52.08,6-1.29,5.39,5.59,5.62,2.82.1,3.56-1,3.41-3.57C122.45,74.89,122.59,71.49,122.59,68.1Z"/><path class="cls-1" d="M108.22,31.16c-.41,2.18-1.56,3.65-3.85,3.51A3.28,3.28,0,0,1,101,30.82a3.24,3.24,0,0,1,3.53-3.3C106.85,27.53,107.93,29,108.22,31.16Z"/><path class="cls-1" d="M170.36,145.1c-.4,2.44-1.68,3.87-3.91,3.72a3.36,3.36,0,0,1-3.39-3.88,3.27,3.27,0,0,1,3.6-3.27C169.05,141.66,170,143.2,170.36,145.1Z"/><path class="cls-1" d="M153.84,145c-.18,2.55-1.51,3.88-3.72,3.81a3.34,3.34,0,0,1-3.46-3.79,3.28,3.28,0,0,1,3.52-3.36A3.36,3.36,0,0,1,153.84,145Z"/><path class="cls-1" d="M186.61,145.08c-.11,2.41-1.42,3.76-3.63,3.75a3.35,3.35,0,0,1-3.54-3.73,3.28,3.28,0,0,1,3.44-3.43C185.21,141.62,186.39,142.92,186.61,145.08Z"/></svg>