<svg id="Capa_1" data-name="Capa 1" xmlns="http://www.w3.org/2000/svg" viewBox="0 0 66.03 62.04"><defs><style>.cls-1{fill:#c8895e;}</style></defs><path class="cls-1" d="M35.69,22.55c-2.83,0-5.67.05-8.5,0-1.05,0-1.24.34-1.23,1.29Q26,37,26,50.19a6.35,6.35,0,0,1-.17,1.94,3.38,3.38,0,0,1-3.41,2.66,3.54,3.54,0,0,1-3-3.18c-.17-1.37-.31-2.74-.48-4.11a2.94,2.94,0,0,0-.33-1.38c-.24,1.89-.44,3.73-.7,5.57a3.4,3.4,0,0,1-3.12,3.1A3.45,3.45,0,0,1,11.52,52a7.15,7.15,0,0,1-.16-1.73c0-4.68,0-9.37,0-14.06A1.05,1.05,0,0,0,10.51,35a5.26,5.26,0,0,1-3.77-5.16c0-2.57-.27-5.17.22-7.72.73-3.9,3.18-5.91,7.14-5.92,5.52,0,11,0,16.57,0,1.16,0,1.38-.35,1.35-1.4-.08-2.43,0-4.87,0-7.31,0-1,.36-1.37,1.35-1.35,2,0,4.07,0,6.11,0,.48,0,1,0,1.22.5s-.08.9-.34,1.29c-.61.9-1.68,1.79-1.7,2.7s1.09,1.7,1.71,2.54c.28.39.61.75.31,1.28s-.69.46-1.14.46H34.6c-.45,0-.87-.05-.86.64s.44.62.88.62h.87a3.2,3.2,0,0,1,2.91,4.94l-.21.38c1.42.39,1.75.3,2.58-.67a3.65,3.65,0,0,1,5.7.06,1.73,1.73,0,0,0,1.71.81c.54-.06,1.09,0,1.63,0,.3,0,.69,0,.8.24.5,1.13,1.47.78,2.31.8,1.2,0,2.4,0,3.6,0a2.45,2.45,0,0,1,2.6,2.6q0,15.42,0,30.85c0,1.74-1.06,2.65-3,2.65H38c-2.33,0-4.66,0-7,0-2,0-2.95-.94-2.95-2.94q0-15.15,0-30.3A2.62,2.62,0,0,1,31,22.65c1.57,0,3.13,0,4.69,0ZM11.36,33.28V23.69a4.83,4.83,0,0,1,.06-1.08.81.81,0,0,1,.89-.65.8.8,0,0,1,.79.77c0,.32,0,.65,0,1q0,13.18,0,26.38a4.72,4.72,0,0,0,.24,1.83A1.5,1.5,0,0,0,14.69,53a1.45,1.45,0,0,0,1.38-1.2,9,9,0,0,0,.28-1.72l1.41-11.9c.07-.55.17-1.14.91-1.13s.88.6.95,1.21c.37,3.25.76,6.49,1.14,9.74.13,1.12.24,2.24.42,3.35.13.83.49,1.61,1.46,1.63s1.33-.77,1.52-1.58a5.22,5.22,0,0,0,.06-1.19V22.33c0-1.3.23-1.53,1.52-1.54h4.14c1.93,0,3.85,0,5.78,0a1.31,1.31,0,0,0,1.45-1.42,1.33,1.33,0,0,0-1.43-1.44c-.25,0-.51,0-.76,0H14.2c-3.13,0-4.91,1.39-5.49,4.46a34.87,34.87,0,0,0-.15,8A3.26,3.26,0,0,0,11.36,33.28Zm20.82,7.4c0,4.29,0,8.57,0,12.86,0,1,.24,1.22,1.21,1.22q10.25-.07,20.49,0c1,0,1.2-.29,1.2-1.23,0-8.5,0-17,0-25.5,0-.25,0-.5,0-.76s-.1-.49-.36-.44c-1.32.26-2.88-.77-4,.71-.22.3-.59.25-.92.25H37.45c-.41,0-.87,0-1-.42s-.64-.59-1.13-.58a15.88,15.88,0,0,1-2.07,0c-.82-.07-1.05.23-1,1C32.2,32.11,32.18,36.39,32.18,40.68Zm25.19.09V37.94c0-4.07,0-8.14,0-12.21,0-.84-.23-1.3-1.17-1.28-1.52,0-3.05,0-4.57,0-.23,0-.59-.11-.59.28s.36.29.6.29c1.3,0,2.61,0,3.92,0,.88,0,1.24.38,1.24,1.24q0,14.44,0,28.89c0,.91-.36,1.33-1.29,1.33H31.75c-.89,0-1.34-.34-1.34-1.28q0-14.44,0-28.88c0-.92.36-1.33,1.3-1.31,1.3,0,2.61,0,3.92,0,.24,0,.57,0,.53-.35s-.33-.21-.52-.22c-1.49,0-3,0-4.47,0-1,0-1.34.35-1.34,1.34q0,14.94,0,29.87c0,1,.34,1.41,1.38,1.41,8.25,0,16.5,0,24.75,0,1.3,0,1.41-.12,1.41-1.44C57.38,50.65,57.37,45.71,57.37,40.77ZM43.5,26c1.63,0,3.26,0,4.89,0,.29,0,.76.15.8-.3a4.65,4.65,0,0,0,0-2c-.21-.57-1-.17-1.47-.27a.81.81,0,0,0-.22,0,1.85,1.85,0,0,1-2.21-1.2,1.84,1.84,0,0,0-3.32.08,1.72,1.72,0,0,1-2,1.13c-.4,0-.8,0-1.2,0s-.75.14-.71.67a5.35,5.35,0,0,1,0,1c-.1.75.17,1,1,1C40.45,26,42,26,43.5,26ZM38.37,7.89c-1.62,0-2.81,0-4,0-.48,0-.61.21-.61.66q0,2,0,4c0,.41.14.59.57.59,1.18,0,2.36,0,4,0C35.8,11.32,36.45,9.68,38.37,7.89Z"/><path class="cls-1" d="M19,15.75a5.61,5.61,0,1,1,5.62-5.62A5.65,5.65,0,0,1,19,15.75Zm0-9.44a3.84,3.84,0,0,0-3.9,3.84A3.86,3.86,0,1,0,19,6.31Z"/><path class="cls-1" d="M40.77,40.88c0,.68,0,1.37,0,2.06a1.45,1.45,0,0,1-1.57,1.57c-1.34,0-2.69,0-4,0a1.39,1.39,0,0,1-1.49-1.42c-.06-1.41-.05-2.83,0-4.24a1.39,1.39,0,0,1,1.46-1.45c1.38,0,2.76-.06,4.14,0A1.45,1.45,0,0,1,40.77,39Zm-2.86-1.74h-2c-.29,0-.5.09-.51.42,0,.17-.06.36.15.47C36.35,40.44,37.25,40.12,37.91,39.14ZM39,40.81,37.37,42.7C39.08,42.83,39.08,42.83,39,40.81Zm-2.28,1.88c-.43-.37-.66-.84-1.21-1C35.18,42.84,35.8,42.85,36.68,42.69Z"/><path class="cls-1" d="M40.77,32.4c0,3.52,0,3.52-3.54,3.52-.69,0-1.37,0-2.06,0a1.41,1.41,0,0,1-1.51-1.5c0-1.34,0-2.68,0-4a1.43,1.43,0,0,1,1.58-1.55c1.31,0,2.61,0,3.92,0,1.07,0,1.56.54,1.62,1.61v2Zm-2.9-1.82h-2c-.34,0-.42.21-.41.5s.15.31.41.37C36.67,31.64,37.49,31.83,37.87,30.58Zm1.05,1.73a6.91,6.91,0,0,0-1.35,1.76C39.12,34.22,39.12,34.22,38.92,32.31Zm-3.45.75c0,1.17,0,1.17,1,.91A2.44,2.44,0,0,0,35.47,33.06Z"/><path class="cls-1" d="M37.24,53.07c-.65,0-1.3,0-2,0-1.09,0-1.61-.5-1.64-1.6,0-1.3,0-2.61,0-3.91A1.44,1.44,0,0,1,35.22,46c1.31,0,2.61,0,3.92,0,1.13,0,1.61.53,1.63,1.7s0,2.39,0,3.59-.5,1.75-1.79,1.77Zm.66-5.3H35.83c-.24,0-.42.11-.41.38s-.06.35.15.47A2,2,0,0,0,37.9,47.77Zm1,1.63-1.51,1.84C39.11,51.39,39.11,51.39,38.93,49.4Zm-3.39.77c-.18,1.25-.13,1.29,1,1Z"/><path class="cls-1" d="M47.92,31.7c-1.45,0-2.9,0-4.35,0-.61,0-1.13-.14-1.14-.84S42.9,30,43.52,30h8.91c.63,0,1.12.25,1.1.92s-.54.84-1.15.84C50.89,31.69,49.41,31.7,47.92,31.7Z"/><path class="cls-1" d="M47.93,34.76H43.58c-.61,0-1.14-.13-1.15-.83S43,33,43.62,33h8.7c.65,0,1.22.17,1.21.91s-.62.86-1.25.85Z"/><path class="cls-1" d="M48,47.14c1.45,0,2.9,0,4.35,0,.65,0,1.22.14,1.21.9s-.53.87-1.14.87H43.58c-.61,0-1.13-.17-1.15-.86s.54-.91,1.19-.9Z"/><path class="cls-1" d="M48,52c-1.45,0-2.89,0-4.34,0-.66,0-1.21-.16-1.2-.92s.53-.84,1.15-.84c2.93,0,5.87,0,8.8,0,.62,0,1.14.16,1.15.85S53,52,52.32,52C50.87,51.94,49.42,52,48,52Z"/><path class="cls-1" d="M48,40.32H43.62c-.64,0-1.21-.17-1.19-.93s.57-.84,1.16-.84h8.69c.62,0,1.24.1,1.25.86s-.58.91-1.22.91Z"/><path class="cls-1" d="M47.93,43.37H43.7c-.62,0-1.24-.08-1.27-.85s.65-.92,1.3-.92H52.2c.65,0,1.34,0,1.32.89s-.7.88-1.35.88Z"/><path class="cls-1" d="M43.57,22c.39,0,.7.19.74.63a.71.71,0,1,1-1.41.21A.71.71,0,0,1,43.57,22Z"/></svg>