<svg id="Capa_1" data-name="Capa 1" xmlns="http://www.w3.org/2000/svg" viewBox="0 0 66.03 62.04"><defs><style>.cls-1{fill:#c8895e;}</style></defs><path class="cls-1" d="M22.28,28a14.56,14.56,0,0,0,1.81-5.56A15.31,15.31,0,0,1,38.41,8.93a15.51,15.51,0,0,1,16,11.89c.1.47.13.95.25,1.4.28,1-.13,2.08.37,3a19,19,0,0,1,1.36,2.85,13.83,13.83,0,0,0,.41-5A17.49,17.49,0,0,0,38.72,6.9a16.88,16.88,0,0,0-8.47,2.55c-.59.36-1.2.46-1.6-.18s-.1-1.23.57-1.59l.25-.16a19.3,19.3,0,0,1,21.7,1.34c6.6,5.26,9.14,12.19,7,20.36S50.57,42.15,42.33,43.65A18.17,18.17,0,0,1,29.69,41.3a1,1,0,0,0-1.43.21q-7,7.05-14,14a4.28,4.28,0,1,1-6.09-6q6.34-6.39,12.73-12.74c.62-.63,1.53-1.16,1.77-1.91s-.67-1.53-1-2.32a19.38,19.38,0,0,1,.77-17.89l.31-.53c.36-.59.85-.93,1.51-.53s.6,1,.24,1.6a17.29,17.29,0,0,0-2.33,6.14A16.29,16.29,0,0,0,22.28,28Zm9.94,7.62c4.22,3.1,11.12,2.68,14.11,0-1,0-1.88,0-2.79,0-.67,0-1.13-.37-1.1-1.06a1,1,0,0,1,1.08-1c.71,0,1.43,0,2.13,0s.77-.19.61-.76a7.13,7.13,0,0,0-13.75-.21c-.22.77,0,1.05.77,1,.6-.06,1.22,0,1.83,0s1.15.27,1.17,1-.5,1-1.2,1.06ZM11,54.93a2.13,2.13,0,0,0,1.54-.6l10.8-10.77c.32-.32.3-.52,0-.81-.76-.73-1.52-1.46-2.22-2.24-.44-.49-.69-.4-1.12,0-2.35,2.39-4.73,4.75-7.1,7.12-1.15,1.16-2.32,2.29-3.44,3.46A2.1,2.1,0,0,0,9,53.65,2.18,2.18,0,0,0,11,54.93ZM23.52,31.55c2.11,6,9.33,10.5,16.31,10.31,6.64-.17,13.8-5,15.34-10.28a2.42,2.42,0,0,0-2.89,1.19,15.36,15.36,0,0,1-25.81,0,2.29,2.29,0,0,0-2.58-1.3Zm12.84-13.4a6.4,6.4,0,0,1,3-.91,6.81,6.81,0,0,1,3,.89,5.37,5.37,0,0,1,4.26-4.95c-4.33-3.14-11.07-2.75-14.48,0A5.33,5.33,0,0,1,36.36,18.15ZM28,29.46H31.1a.89.89,0,0,0,.89-.33,9.09,9.09,0,0,1,3.4-2.84c.17-.08.47-.19.26-.41-.54-.56-.67-1.44-1.39-1.84-3.66-2.06-9.22.59-10,4.73-.1.54,0,.72.6.7C25.92,29.44,26.93,29.46,28,29.46Zm22.75,0c1,0,2-.05,2.95,0,.79.05.91-.22.73-.92a7.18,7.18,0,0,0-9.66-4.64c-.93.4-1,1.36-1.65,2-.25.26.21.35.38.44a4.7,4.7,0,0,1,1.9,1.33c1.19,1.87,2.94,2,4.84,1.8A4.34,4.34,0,0,1,50.7,29.46ZM34.26,18.29a3,3,0,1,0-6.09,0,3,3,0,0,0,6.09,0Zm13.21,3a3,3,0,1,0-3-3.06A3.06,3.06,0,0,0,47.47,21.31ZM42.4,22.37a3,3,0,0,0-3-3.07,3.05,3.05,0,0,0-3.11,3.05,3.1,3.1,0,0,0,3,3A3.06,3.06,0,0,0,42.4,22.37ZM27.1,39.72c0-.24-.22-.33-.36-.46-.44-.42-.9-.81-1.33-1.24-1.5-1.51-1.48-1.5-3,.07-.31.33-.41.52,0,.88.81.75,1.58,1.56,2.37,2.35a1.45,1.45,0,0,0,.39.3A12.69,12.69,0,0,0,27.1,39.72Zm23.56-8.19c-.95,0-1.86-.29-2.42.13-.26.2.14,1.29.25,2,0,.12,0,.28.22.32A10.32,10.32,0,0,0,50.66,31.53ZM30.12,34c.17-.76.3-1.39.44-2,.07-.3.07-.53-.34-.52H28A12.14,12.14,0,0,0,30.12,34ZM26.55,20.57a4.42,4.42,0,0,0-.4,2.15C28.08,21.83,27.82,22.23,26.55,20.57Zm26,2.14a3.65,3.65,0,0,0-.47-2.09C51,22.06,51,22.06,52.57,22.71Z"/><path class="cls-1" d="M26.23,12.3c-.59-.12-1-.43-.94-1.08a1,1,0,0,1,2,.08C27.27,11.92,26.85,12.24,26.23,12.3Z"/><path class="cls-1" d="M39.36,35.58c-.61-.1-1-.43-1-1.06a.93.93,0,0,1,1.06-1,.91.91,0,0,1,.94,1C40.37,35.18,40,35.48,39.36,35.58Z"/></svg>