<svg id="Capa_1" data-name="Capa 1" xmlns="http://www.w3.org/2000/svg" viewBox="0 0 66.03 62.04"><defs><style>.cls-1{fill:#c8895e;}</style></defs><path class="cls-1" d="M54.45,3.89A28,28,0,0,1,53.71,8c-.12.63-.1,1,.61,1.16s1.77.23,2,.8-.7,1.19-1.09,1.8a19.33,19.33,0,0,0-2.22,5,1.32,1.32,0,0,0,.41,1.5c1.26,1.19,2.45,2.46,3.7,3.67.45.43.67.73.07,1.24a2,2,0,0,0-.54,2.33,1.94,1.94,0,0,0,2,1.32c.77,0,.9.35.9,1,0,2.34,0,4.68,0,7,0,.63-.24.79-.81.77a2,2,0,0,0-2,1.22,2,2,0,0,0,.51,2.43c.45.41.43.7,0,1.11C55.47,42,53.73,43.77,52,45.52c-.4.4-.64.27-1-.06a2.07,2.07,0,0,0-2.41-.63,2,2,0,0,0-1.33,2.09c0,.63-.28.79-.84.79q-3.61,0-7.23,0c-.54,0-.64-.23-.65-.7a2.09,2.09,0,0,0-1.35-2.19,2,2,0,0,0-2.41.63c-.42.5-.72.24-1-.08l-5.2-5.17c-.34-.32-.34-.54,0-.85a2.11,2.11,0,0,0,.7-2.48,2,2,0,0,0-2.2-1.33c-.47,0-.64-.22-.65-.63a12,12,0,0,1,0-1.8c.1-.92-.28-1.16-1.15-1.11-1.09.07-2.2,0-3.29,0-.74,0-.77-.34-.78-.9s.13-.89.82-.87c1.2.06,2.41,0,3.62,0,.61,0,.83-.21.77-.8,0-.28,0-.56,0-.85-.1-1.07-.11-1.85,1.43-2a2,2,0,0,0,1-3.36c-.62-.65-.47-1,.07-1.52,1.13-1.08,2.22-2.2,3.32-3.31.23-.23.57-.41.33-.88a8.12,8.12,0,0,1-.5-6.45H31.05c-6.95,0-13.9,0-20.84,0-.85,0-1.16.17-1.16,1.09q0,18.09,0,36.17c0,.8.17,1.05,1,1.05,10.67,0,21.34,0,32,0a4.92,4.92,0,0,1,1.37.15q3.66,1.11,7.33,2.17a2.08,2.08,0,0,1,1.72,2,2,2,0,0,1-1.68,2c-2.48.75-5,1.48-7.44,2.2a4.36,4.36,0,0,1-1.15.13h-32A4.31,4.31,0,0,1,6,55.57a4.06,4.06,0,0,1,1-4.87,1.77,1.77,0,0,0,.37-1.48V11.78c0-1.8.57-2.36,2.35-2.36H31.23a9.53,9.53,0,0,1,1.07,0,1.21,1.21,0,0,0,1.15-.56A7.81,7.81,0,0,1,39.78,6c3.54,0,7.1.19,10.57-.79a14.41,14.41,0,0,0,3.46-1.28ZM31.8,21.61a1.37,1.37,0,0,0-.78,2,3.26,3.26,0,0,1-1.37,4.09c-1.48.71-1.55,1.74-1.46,3a18.44,18.44,0,0,1,0,2.23,1,1,0,0,0,.68,1.12,3.72,3.72,0,0,1,2,5,.84.84,0,0,0,.23,1.09c.95.91,1.88,1.84,2.78,2.78a.84.84,0,0,0,1.09.24,3.76,3.76,0,0,1,5.09,2.1A.86.86,0,0,0,41,46c1.31,0,2.63,0,3.94,0a.85.85,0,0,0,.93-.62A3.74,3.74,0,0,1,51,43.26.84.84,0,0,0,52,43c.92-.94,1.84-1.87,2.79-2.78a.84.84,0,0,0,.24-1.09,3.71,3.71,0,0,1,2.09-5.07.89.89,0,0,0,.61-.95c0-1.28,0-2.55,0-3.83A1,1,0,0,0,57,28.22a3.65,3.65,0,0,1-2.28-3A3.78,3.78,0,0,1,55.13,23c.3-.67-.4-.8-.64-1.17-.1-.15-.32-.25-.42,0a3,3,0,0,1-2.77,1.66,11.46,11.46,0,0,1-.48,15.89A11.31,11.31,0,0,1,36,40.09a11,11,0,0,1-4.11-6.52,11.42,11.42,0,0,1,2.77-10.16A2.94,2.94,0,0,1,31.8,21.61ZM30,56.41c3.75,0,7.51,0,11.26,0,.62,0,.9-.11.87-.81-.06-1.2,0-2.41,0-3.61,0-.65-.18-.84-.83-.84q-11.33,0-22.64,0c-.72,0-.92.26-.9.93,0,1.13.05,2.27,0,3.4,0,.76.26.94,1,.94C22.48,56.4,26.23,56.41,30,56.41ZM49.06,15.66A4.87,4.87,0,0,0,48,12.3c-.71-.82.16-1,.48-1.39.52-.59.72.08.93.35a6.68,6.68,0,0,1,1.42,4.15c0,.38,0,.78,0,1.16A2.65,2.65,0,0,0,51,17.84a17.93,17.93,0,0,1,2.24-6.14c.5-.8.43-1.15-.51-1.29s-1.24-.64-1-1.61a5.57,5.57,0,0,0,.35-2.29,32.84,32.84,0,0,1-5.05,1c-2.58.27-5.17,0-7.75.18a5.88,5.88,0,0,0-5.38,3.71c-1.07,2.4-.41,4.58,1,6.67.32-.24.21-.5.22-.73.18-3.75,3.56-5.59,6.79-3.69l1.86,1.09a3.83,3.83,0,0,0-.89-2.32c-.77-.83-.05-1.2.42-1.58s.75.24,1,.53a7,7,0,0,1,.79,1.38c.14.29.24.56.58.7A12.8,12.8,0,0,1,49.06,15.66Zm0,4.18c.4-1.57-.79-2.5-1.9-3.44-.43-.36-.93-1-1.41-.79s-.18.95-.18,1.46c0,.78-.28.71-.8.39-1.32-.82-2.64-1.64-4-2.4a2.5,2.5,0,0,0-3.87,2A22.79,22.79,0,0,0,37,21.77a6,6,0,0,0,6.9,5C47.19,26.15,49.07,23.71,49.07,19.84Zm.74,4.72a8.08,8.08,0,0,1-3.3,3.16c-.75.39-.47.85.07,1.05a8,8,0,0,1,5.21,5.7C53.28,31.8,52.47,27.06,49.81,24.56Zm-15.66,10a7.8,7.8,0,0,1,5.09-5.71c.56-.21.95-.66.32-1a9.49,9.49,0,0,1-3.44-3.22C33.52,27.15,32.63,31.54,34.15,34.54ZM12.53,53.89c0-3-.21-3.15-2.95-2.68l-.21,0a2.46,2.46,0,0,0-2,2,2.43,2.43,0,0,0,1,2.62,4.61,4.61,0,0,0,3.87.45c.7-.14.16-1.3.29-2A2,2,0,0,0,12.53,53.89ZM36.82,38.36a4.43,4.43,0,0,0-.2-2.54c-.57-1,.29-1.25.73-1.54s.62.37.81.68a3.86,3.86,0,0,1,.48,2c0,.71,0,1.42,0,2.12s.6.89,1.1,1,.48-.47.59-.76c.27-.72.41-1.49.67-2.22a3.1,3.1,0,0,0-.14-2.06c0-.16-.08-.45-.29-.33-.93.51-.85-.36-1-.78a13.38,13.38,0,0,1-.79-2c-.26-.92-.62-.68-1.12-.2a8,8,0,0,0-1.94,3.92A2.06,2.06,0,0,0,36.82,38.36Zm12.31.18c.6-.69,1.37-1,1.29-1.67-.23-2-.69-3.92-2.36-5.29-.41-.33-.58-.22-.75.22-.34.89-.7,1.77-1.06,2.66-.1.23-.15.66-.55.43-.66-.38-.58.17-.7.49-.54,1.45.36,2.68.62,4,.06.29,0,.94.59.77s1.15-.23,1.11-1c0-.6,0-1.21,0-1.81a4.26,4.26,0,0,1,.59-2.54c.16-.25.3-.84.72-.48s1.18.55.8,1.27A6,6,0,0,0,49.13,38.54ZM16,53.76c0-.67,0-1.34,0-2s-.46-.57-.87-.58-.87-.09-.86.59c0,1.35,0,2.69,0,4,0,.44.15.59.61.64.85.08,1.26-.16,1.14-1.08A12,12,0,0,1,16,53.76Zm29.57.08c0-.46,0-.92,0-1.38-.09-.85-.89-.71-1.39-.8s-.3.49-.31.76c0,1,0,2,0,3.06,0,.42.11.5.55.45C45.83,55.79,45.57,54.76,45.55,53.84ZM43,40.7c.91.15,1.28-.12.87-1.07a15.63,15.63,0,0,1-.45-1.52c-.09-.29,0-.75-.42-.77s-.36.44-.45.72a15.63,15.63,0,0,1-.45,1.52C41.66,40.58,42.05,40.85,43,40.7Zm4.86,12c-.28-.06-.46,0-.46.13,0,.63,0,1.27,0,1.9,0,.22.23.23.41.18.91-.27,1.82-.53,2.72-.84.32-.11.34-.42,0-.53C49.62,53.21,48.66,52.94,47.85,52.69ZM43,28.57v0h-.74c-.26,0-.59-.14-.73.23s.16.49.39.65a4.17,4.17,0,0,1,.44.29c.73.72,1.19,0,1.73-.32.21-.12.48-.3.34-.57-.31-.62-.89-.13-1.32-.25A.4.4,0,0,0,43,28.57Zm7.82-7.69c-.08.43,0,.77.7.71s1-.24,1-.84-.48-.85-1.08-.9C50.64,19.8,50.85,20.35,50.81,20.88Zm-15.72-.37c0-.14.21-.71-.58-.66-.6,0-1.08.24-1.08.89s.5.82,1.1.85S35.15,21.21,35.09,20.51ZM43,35.57c.46-.52.4-1.11.6-1.62a.49.49,0,0,0-.24-.62.59.59,0,0,0-.68,0c-.23.14-.37.33-.26.6A4.88,4.88,0,0,0,43,35.57Zm-3-5.31c.71,2.39.71,2.39,1.94,1.29Zm4,1.41c.47.21.91.83,1.19.59a3.21,3.21,0,0,0,.75-1.87A7.87,7.87,0,0,0,44,31.67Z"/><path class="cls-1" d="M20.84,19.86c-2.66,0-5.32,0-8,0-1.45,0-2-.61-2.06-2.08,0-1,0-1.91,0-2.87,0-1.37.63-2,2-2,2.4,0,4.81,0,7.22,0,3,0,6,0,8.94,0,.73,0,1,.2,1,.95s-.37.84-1,.84c-5.14,0-10.28,0-15.42,0-.82,0-1.08.2-1.07,1,.05,2.43,0,2.43,2.42,2.43H28.65c.6,0,1.34-.3,1.33.88s-.82.82-1.38.83C26,19.88,23.42,19.86,20.84,19.86Z"/><path class="cls-1" d="M15.37,28.57c.94.11,2.08-.22,3.19.19a.46.46,0,0,0,.56-.2c.56-.81.92-.27,1.39.14.65.56.13.87-.23,1.15a2.13,2.13,0,0,0-.78,2c.05,1.13,0,2.26,0,3.4,0,1.43-.67,2-2.11,2.07s-3.05,0-4.58,0c-1.37,0-2-.65-2-2q0-2.34,0-4.68c0-1.38.63-2,2-2C13.63,28.56,14.41,28.57,15.37,28.57Zm1.87,2L17,30.3c-1.27,0-2.54,0-3.82,0-.48,0-.69.13-.68.66,0,1.3,0,2.61,0,3.92,0,.51.17.68.67.68,1.28,0,2.55,0,3.82,0,.39,0,.72,0,.71-.55V32.48c-.42.39-.62.57-.81.76-1.86,1.83-1.84,1.81-3.63,0-.44-.45-.4-.71,0-1.09s.71-.86,1.24-.16c.21.27.45.72.93.26S16.66,31.12,17.24,30.58Z"/><path class="cls-1" d="M10.8,43.25c0-.81,0-1.63,0-2.44A1.65,1.65,0,0,1,12.61,39c2,0,4-.26,5.92.18A.52.52,0,0,0,19.1,39c.62-.9,1-.24,1.47.19.66.63-.07.88-.36,1.14a2,2,0,0,0-.71,1.77c.05,1.21,0,2.41,0,3.62a1.78,1.78,0,0,1-2,2c-1.6,0-3.19,0-4.79,0a1.73,1.73,0,0,1-1.91-1.91C10.79,45,10.8,44.1,10.8,43.25Zm6.74-.15-.66.61c-1.8,1.78-1.77,1.76-3.55,0-.48-.48-.45-.74,0-1.17s.75-.75,1.25-.09c.18.24.41.68.83.26.59-.58,1.16-1.17,1.92-2H15c-2.44,0-2.45,0-2.43,2.4,0,.91-.39,2.08.18,2.66s1.74.17,2.65.18c2.67,0,2.67,0,2.31-2.7Z"/><path class="cls-1" d="M17.78,26.85c-2,0-4,0-6.06,0-.64,0-1-.11-.94-.86s.16-.92.88-.92c4.07,0,8.15,0,12.22,0,.67,0,.83.23.83.86s-.14.94-.88.92C21.82,26.81,19.8,26.85,17.78,26.85Z"/><path class="cls-1" d="M21.19,23.34c-1.44,0-2.9,0-4.34,0-.74,0-.88-.29-.88-.94s.21-.85.86-.85c2.93,0,5.87,0,8.8,0,.7,0,.82.29.82.89s-.09.92-.8.9C24.17,23.31,22.68,23.34,21.19,23.34Z"/><path class="cls-1" d="M24.73,40.72c.88,0,1.77,0,2.64,0,.67,0,.86.23.84.86s0,.93-.78.92c-1.83,0-3.66-.05-5.5,0-.8,0-.67-.47-.7-1s.11-.84.75-.81C22.89,40.76,23.81,40.72,24.73,40.72Z"/><path class="cls-1" d="M12.55,23.35a8,8,0,0,0-.85,0c-.66.07-.93-.14-.92-.87s.17-1,.89-.9a10.6,10.6,0,0,0,1.69,0c.67-.06.94.14.92.87s-.17,1-.88.9A6,6,0,0,0,12.55,23.35Z"/><path class="cls-1" d="M23,35.55a8,8,0,0,0-.85,0c-.68.08-.92-.17-.91-.88s.21-1,.9-.89a11.92,11.92,0,0,0,1.69,0c.69-.06.92.18.92.88s-.21,1-.91.89A7.85,7.85,0,0,0,23,35.55Z"/><path class="cls-1" d="M22.94,46a6.09,6.09,0,0,0-.74,0c-.71.09-1-.13-1-.91s.29-.91.93-.86a12.33,12.33,0,0,0,1.49,0c.65,0,1.1,0,1.1.9s-.56.87-1.16.86C23.36,46,23.15,46,22.94,46Z"/><path class="cls-1" d="M27.27,46c-.78.16-.83-.29-.86-.9s.33-.83.95-.86.84.31.86.95S27.91,46.09,27.27,46Z"/><path class="cls-1" d="M27.27,52.94c.78-.16.94.2.95.87s-.24.89-.92.9-.9-.24-.89-.92S26.59,52.75,27.27,52.94Z"/><path class="cls-1" d="M23.83,54.65c-.85.19-.85-.3-.89-.89-.06-.76.29-.84.92-.87s.84.33.85,1S24.5,54.85,23.83,54.65Z"/><path class="cls-1" d="M31.66,53.76c.13.68-.09,1-.82.94s-.95-.15-.92-.88.13-1,.87-.93S31.84,53,31.66,53.76Z"/><path class="cls-1" d="M21.23,53.76c.13.68-.1,1-.83.94s-.94-.15-.92-.88.14-1,.87-.93S21.4,53,21.23,53.76Z"/><path class="cls-1" d="M43,25.1a3.65,3.65,0,0,1-3-1.61c-.16-.23-.54-.56,0-.76s.8-.82,1.39-.34c1.57,1.27,1.7,1.27,3.36,0,.58-.44,1,.18,1.4.37s.08.54-.07.76A3.69,3.69,0,0,1,43,25.1Z"/><path class="cls-1" d="M40.37,19c-.11.51-.38.86-.92.82a.78.78,0,0,1-.78-.92.76.76,0,0,1,.83-.77C40.05,18.16,40.29,18.52,40.37,19Z"/><path class="cls-1" d="M46.51,18.14a.81.81,0,0,1,.77.93A.84.84,0,0,1,45.61,19,.82.82,0,0,1,46.51,18.14Z"/></svg>