<svg id="Capa_1" data-name="Capa 1" xmlns="http://www.w3.org/2000/svg" viewBox="0 0 66.03 62.04"><defs><style>.cls-1{fill:#c8895e;}</style></defs><path class="cls-1" d="M47.92,25.71c1.53-1.54,2.89-2.9,4.24-4.27a3.38,3.38,0,0,1,3.47-1,3.44,3.44,0,0,1,1.49,5.82c-2.62,2.67-5.24,5.34-7.94,7.92a3.82,3.82,0,0,0-1.29,3.12c.07,5.36,0,10.71,0,16.06,0,2.42-1.27,3.68-3.7,3.68h-31q-3.74,0-3.73-3.74V12.07c0-2.44,1.26-3.7,3.68-3.7H44.26c2.41,0,3.66,1.27,3.66,3.71V25.71ZM42.21,39.15,39.8,40.22c-.5.22-1,.49-1.49,0s-.24-1,0-1.57c.44-1,.84-2,1.32-2.95.7-1.43,1-3.08,2.4-4.14.23-.18.19-.45.19-.7q0-8.09,0-16.16c0-.5-.15-.65-.65-.64-1.33,0-2.66,0-4,0-.55,0-.75.15-.87.7a2.83,2.83,0,0,1-2.92,2.34q-5.09,0-10.17,0a2.84,2.84,0,0,1-2.91-2.37c-.12-.57-.36-.69-.88-.67q-1.91,0-3.81,0c-.58,0-.82.09-.82.76q0,17.87,0,35.74c0,.64.21.79.81.78,2.82,0,5.64,0,8.46,0,.69,0,1.35.1,1.36.94s-.62,1-1.32,1H14.72c-1.13,0-1.41-.28-1.41-1.4V13.54c0-1.07.29-1.36,1.35-1.37,1.74,0,3.49-.05,5.23,0,.85,0,.71-.48.71-1s.12-1-.72-1c-2.19.06-4.38,0-6.56,0-1.51,0-1.9.4-1.9,1.91V53.26c0,1.46.41,1.88,1.84,1.88H44.15c1.45,0,1.86-.42,1.86-1.86q0-7.47,0-14.93c0-.26,0-.53,0-.81-1.85.65-1.85.65-1.85,2.5v1.9c0,3.33,0,6.65,0,10,0,.72-.18,1.31-1,1.31q-5.26,0-10.55,0a.89.89,0,0,1-1-1c0-.6.38-.9,1-.94.25,0,.51,0,.76,0H41.5c.39,0,.73,0,.72-.56C42.2,47,42.21,43.12,42.21,39.15ZM28.69,10.28c-1.84,0-3.67,0-5.51,0-.47,0-.69.11-.67.63,0,1,0,2,0,3a1.14,1.14,0,0,0,1.29,1.28h9.77c1,0,1.3-.37,1.33-1.33s0-1.84,0-2.76c0-.64-.15-.88-.84-.86C32.29,10.31,30.49,10.28,28.69,10.28ZM44.12,29.54c.65-.68,1.08-1.15,1.54-1.59A1.14,1.14,0,0,0,46,27c0-5.07,0-10.13,0-15.2a1.35,1.35,0,0,0-1.5-1.55c-2.34,0-4.68,0-7,0-.89,0-.62.58-.65,1s-.1.93.69.9c1.64-.06,3.29,0,4.93,0s1.67.18,1.67,1.71V29.54Zm9.75-2.75c-.14-.17-.25-.31-.38-.44a13.61,13.61,0,0,1-1.13-1.15c-.44-.54-.75-.55-1.26,0-2.07,2.13-4.2,4.21-6.3,6.32-.53.54-1.49,1.15-1.44,1.64s1,1.13,1.5,1.72c.34.39.56.45,1,0,2.54-2.57,5.1-5.11,7.65-7.66C53.6,27.11,53.71,27,53.87,26.79Zm.56-4.56a1.5,1.5,0,0,0-1.13.82c-.3.53.38.69.62,1a11.87,11.87,0,0,0,1,1c.19.18.36.36.63.1a1.68,1.68,0,0,0,.66-1.84C56,22.63,55.46,22.26,54.43,22.23ZM40.86,37.63,42,37.16c1.84-.81,1.84-.81.29-2.18,0,0-.11,0-.2,0Z"/><path class="cls-1" d="M25.87,23.77c0,.92,0,1.84,0,2.75s-.34,1.25-1.18,1.25H19a1,1,0,0,1-1.12-1.11c0-1.92,0-3.85,0-5.78A1,1,0,0,1,19,19.78h5.69c.84,0,1.19.43,1.18,1.24S25.87,22.86,25.87,23.77Zm-1.91,0c0-2.1,0-2.1-2-2.1-2.17,0-2.17,0-2.17,2.14s0,2,2.06,2S24,25.86,24,23.78Z"/><path class="cls-1" d="M25.87,34.32v2.75a1,1,0,0,1-1.18,1.16H19.1c-.82,0-1.23-.37-1.23-1.2,0-1.87,0-3.73,0-5.59,0-.84.4-1.21,1.22-1.21,1.84,0,3.67,0,5.5,0,.87,0,1.29.37,1.28,1.25S25.87,33.37,25.87,34.32Zm-1.91,0c0-2.17,0-2.17-2.12-2.17s-2.06,0-2.06,2,0,2.13,2.17,2.13C24,36.32,24,36.32,24,34.31Z"/><path class="cls-1" d="M21.8,48.68c-.88,0-1.77,0-2.65,0s-1.29-.37-1.28-1.25c0-1.83,0-3.66,0-5.5,0-.88.4-1.26,1.27-1.25,1.83,0,3.67,0,5.5,0,.82,0,1.23.36,1.23,1.19,0,1.87,0,3.73,0,5.6a1.05,1.05,0,0,1-1.22,1.2Zm.08-6.08c-2.1,0-2.1,0-2.1,2,0,2.17,0,2.17,2.13,2.17s2.05,0,2.05-2.06S24,42.6,21.88,42.6Z"/><path class="cls-1" d="M32,44.6c-.1-.11-.21-.25-.34-.38-.31-.32-.64-.62-.94-.95a.92.92,0,0,1-.07-1.36.94.94,0,0,1,1.43,0c.48.41.82,1.19,1.4,1.2s.92-.79,1.39-1.2a1,1,0,1,1,1.37,1.34c-.41.48-1.19.81-1.21,1.39s.78.92,1.18,1.39.53,1,0,1.44-1,.3-1.43-.1-.8-1.23-1.39-1.15-.89.75-1.33,1.15a.94.94,0,0,1-1.43.09c-.47-.46-.35-1,.08-1.43s.63-.62.93-.94C31.82,45,32,44.88,32,44.6Z"/><path class="cls-1" d="M32.24,26.83a.88.88,0,0,1-.39-.16c-.8-.77-1.59-1.54-2.34-2.35a.81.81,0,0,1,.12-1.19A.83.83,0,0,1,30.76,23a3.57,3.57,0,0,1,.43.36c1.24,1.16,1.24,1.16,2.42,0,.73-.74,1.48-1.47,2.21-2.21.45-.47,1-.67,1.49-.19s.33,1.07-.16,1.55q-1.95,1.93-3.88,3.89A1.16,1.16,0,0,1,32.24,26.83Z"/><path class="cls-1" d="M32.3,37.29a.37.37,0,0,1-.24,0,12.61,12.61,0,0,1-2.65-2.66.77.77,0,0,1,.25-1,.81.81,0,0,1,1.13-.07A10.11,10.11,0,0,1,32,34.6c.33.37.55.35.89,0,1-1,2-2,2.94-3,.47-.48,1-.73,1.56-.19s.26,1.07-.21,1.55c-1.28,1.26-2.55,2.54-3.83,3.82A1.21,1.21,0,0,1,32.3,37.29Z"/><path class="cls-1" d="M28.67,53.25c-.56-.12-.94-.44-.88-1a.93.93,0,0,1,1.86.09C29.63,52.9,29.25,53.19,28.67,53.25Z"/></svg>