<svg xmlns="http://www.w3.org/2000/svg" viewBox="0 0 142.02 142.02"><defs><style>.cls-1{fill:#6c2911;}.cls-2{fill:#fff;}.cls-3{fill:#c7895e;}</style></defs><g id="Capa_2" data-name="Capa 2"><g id="Capa_1-2" data-name="Capa 1"><circle class="cls-1" cx="71.01" cy="71.01" r="71.01"/><circle class="cls-2" cx="71.01" cy="71.01" r="60.69"/><path class="cls-3" d="M55.78,72.72c1.5-3.67,3.88-6,7.62-6.83a11.62,11.62,0,0,1,2.29-.22c5.4,0,10.8,0,16.2,0a4.41,4.41,0,0,1,4.32,2.25c.46.84.78.57,1.3.13a10.48,10.48,0,0,1,7.26-2.38c3.45.07,6.89,0,10.33,0a10,10,0,0,1,10.2,10.11c0,1.84,0,3.68,0,5.52A4.16,4.16,0,0,1,111,85.58c-1.16,0-1.59.37-1.89,1.5a9.39,9.39,0,0,1-4.2,5.55c-.42.28-1.09.38-1,1.09s.89.65,1.4.77a13,13,0,0,1,10,12.32c0,1.38-.39,1.65-1.68,1.65-13.42,0-26.83,0-40.25,0-14.9,0-29.8,0-44.7,0-1.53,0-1.91-.43-1.8-1.89a13.1,13.1,0,0,1,2.51-7.1,1.51,1.51,0,0,0,.13-1.89c-3.34-6.37-3.35-13.24-2.07-20,1.16-6.07,5.38-10,11.41-11.47s11.24.3,15.47,4.86C54.8,71.47,55.18,72,55.78,72.72Zm-26,11.68a22.88,22.88,0,0,0,1.8,11c.38.83.71,1.28,1.68.61A10.49,10.49,0,0,1,37.4,94.4c.37-.07.86-.06.91-.66a.84.84,0,0,0-.53-.83c-4.88-2.79-5.55-7.35-5.11-12.33a7.06,7.06,0,0,1,6.79-6.35q3.12-.11,6.23,0a7,7,0,0,1,6.81,6.13c.52,5-.08,9.67-5,12.52-.4.23-.66.51-.54,1s.52.46.84.52a12.42,12.42,0,0,1,3.36,1.12c2,1,2,1,2.89-1.09,1.82-4.31,1.45-8.86,1.39-13.35a12.8,12.8,0,0,0-25.34-2.34A32.69,32.69,0,0,0,29.79,84.4Zm70-7.33c-1.78,0-3.56,0-5.34,0-1.34,0-2,.57-2,1.92,0,1.84,0,3.69,0,5.52a7.1,7.1,0,0,0,14.19,0c.08-1.84,0-3.68,0-5.52,0-1.36-.63-1.94-2-1.92C103.12,77.1,101.45,77.07,99.79,77.07Zm-28.5,0c-1.78,0-3.57,0-5.35,0-1.33,0-2,.56-2,1.92,0,1.84,0,3.68,0,5.52a7.11,7.11,0,0,0,14.2,0c.08-1.84,0-3.68,0-5.52,0-1.36-.63-1.94-2-1.92C74.61,77.1,73,77.07,71.29,77.07ZM49.77,83h-.05c0-.3,0-.6,0-.89,0-3.4-1.62-5-5-5-.77,0-1.54,0-2.31,0-6.08-.4-7.22,1.79-6.94,7.21a7.24,7.24,0,0,0,6.53,7,7.15,7.15,0,0,0,7.6-5.82A20.39,20.39,0,0,0,49.77,83Zm35.6,18c2.24-3.6,5.09-5.84,9-6.6.37-.07.87,0,.95-.61s-.4-.8-.79-1a8.65,8.65,0,0,1-3.72-4C90,86.94,89.52,85,86.9,85.38a1,1,0,0,1-.5-.18c-1.9-1-3.47,1-5.31.62a1.5,1.5,0,0,0-.28.61,9.89,9.89,0,0,1-4.88,6.48.84.84,0,0,0-.53.84c0,.48.4.55.74.61A13.34,13.34,0,0,1,85.37,101Zm-14.43,4.57c3.85,0,7.7,0,11.55,0,1.05,0,1.39-.28,1.06-1.3a10,10,0,0,0-7.36-7c-.78-.21-1.12.06-1.58.65-2,2.6-5,2.61-7,0a1.38,1.38,0,0,0-1.76-.6A10,10,0,0,0,58.77,104c-.41,1.14-.31,1.68,1.15,1.64C63.59,105.5,67.26,105.57,70.94,105.57Zm28.49,0c3.85,0,7.71-.06,11.56,0,1.31,0,1.36-.5,1-1.46a9.9,9.9,0,0,0-7.13-6.79,1.39,1.39,0,0,0-1.77.58c-2,2.63-5,2.64-7,0a1.4,1.4,0,0,0-1.76-.61,10,10,0,0,0-7.15,6.78c-.41,1.17,0,1.5,1.19,1.47C92.09,105.52,95.76,105.57,99.43,105.57Zm-56.85,0c3.79,0,7.59-.06,11.38,0,1.3,0,1.36-.5,1-1.46a9.92,9.92,0,0,0-7.13-6.79,1.39,1.39,0,0,0-1.77.58c-2,2.63-5,2.64-7,0a1.4,1.4,0,0,0-1.76-.61,10,10,0,0,0-7.15,6.78c-.41,1.17,0,1.5,1.18,1.47C35.12,105.52,38.85,105.57,42.58,105.57ZM83.93,73.24c0-.89,0-1.78,0-2.67.06-1.4-.53-2.07-2-2.06-5.57,0-11.15-.05-16.72,0a7.11,7.11,0,0,0-6.94,7.66c0,.33-.09,1,.29.88,1.11-.23,2.47.61,3.32-.92a4,4,0,0,1,3.75-2c3.68,0,7.36,0,11,0a3.82,3.82,0,0,1,3.6,1.9c.83,1.57,2.23,1,3.28.91.78-.06.27-1.3.36-2A15.08,15.08,0,0,0,83.93,73.24Zm15.69-4.72c-2,0-3.92,0-5.87,0a7.14,7.14,0,0,0-6.89,6.08c-.37,2.32.09,2.77,2.38,2.46a1.14,1.14,0,0,0,1-.63,4.53,4.53,0,0,1,4.33-2.25c3.15.06,6.3.08,9.44,0,2.16-.06,4,.37,5.19,2.37.68,1.1,2,.46,3,.48.62,0,.32-1,.31-1.53a7.09,7.09,0,0,0-6.92-7C103.54,68.47,101.58,68.52,99.62,68.52ZM57,100.83a13.13,13.13,0,0,1,9-6.44c.33-.06.74-.07.85-.52s-.15-.76-.55-1a10.08,10.08,0,0,1-4.87-6.49c-.37-1.46-1.71-.65-2.58-.78s-.49.76-.49,1.18a20.19,20.19,0,0,1-2.14,9.63C55.23,98.17,55.27,99.46,57,100.83Zm4.16-19.45c0-.75.22-1.59-1.07-1.48-.94.09-1.69.38-1.71,1.4s.79,1.41,1.81,1.48C61.35,82.85,61.11,82.06,61.12,81.38Zm20,.26c0,.35-.31,1.2.92,1.14,1-.06,1.83-.32,1.84-1.45S83.15,80,82.2,79.9C81,79.78,81.06,80.57,81.12,81.64Zm8.51-.37c0-.71.16-1.45-1-1.37s-1.82.38-1.78,1.51.8,1.29,1.74,1.37C89.91,82.88,89.6,82,89.63,81.27Zm20,.15c0,.72-.15,1.44,1,1.36s1.82-.39,1.78-1.52-.81-1.28-1.75-1.36C109.31,79.8,109.64,80.71,109.61,81.42ZM42.66,94.18c-.79,0-1.6-.24-1.49,1,.08,1,.4,1.79,1.5,1.75S44,96.18,44,95.25C44.16,94,43.43,94.09,42.66,94.18ZM72.53,95c.2-1.27-.86-.74-1.51-.83-.88-.13-1.46,0-1.34,1.15.09.94.43,1.65,1.43,1.64S72.55,96.14,72.53,95Zm26.86-.76c-.26.06-1.27-.54-1.21.86,0,1,.28,1.82,1.39,1.86s1.41-.76,1.48-1.77S100.53,94.07,99.39,94.24Z"/><path class="cls-3" d="M43.89,28.6c4.16,0,8.31,0,12.47,0,.54,0,1.66.43,1-1-.18-.36.4-.67.68-1,1.34-1.36,2.71-2.67,4-4,.56-.59.95-.78,1.76-.25,1.51,1,2.64.53,3-1.22.21-.95.62-1.11,1.44-1.1,1.9,0,3.8,0,5.7,0,.79,0,1.26.08,1.47,1.06.37,1.77,1.5,2.24,3,1.27a1.14,1.14,0,0,1,1.77.2c1.35,1.43,2.76,2.79,4.14,4.17.17.17.49.37.47.52-.36,2.14,1.27,1.3,2.11,1.31,7.78.05,15.55,0,23.33,0,3.5,0,5.08,1.6,5.08,5.14q0,10.59,0,21.19c0,3.4-1.63,5-5,5-4.81,0-9.62,0-14.43,0a2.83,2.83,0,0,0-2.33,1c-1.17,1.26-2.41,2.46-3.64,3.66a3.26,3.26,0,0,1-3.75.83A3.09,3.09,0,0,1,84,62.07c.24-2-.63-2.23-2.28-2.14a34.69,34.69,0,0,1-6.76,0,30.39,30.39,0,0,0-7.8,0,49,49,0,0,1-7.47,0c-1.08,0-1.53.26-1.4,1.38a3.92,3.92,0,0,1-.85,3.17,3.36,3.36,0,0,1-4.51.55,5.17,5.17,0,0,1-1.3-1.21c-2.3-3.25-5.35-4.34-9.32-3.94A100.08,100.08,0,0,1,31.61,60c-2.94,0-4.67-1.72-4.68-4.63q0-11,0-22.09c0-2.91,1.74-4.62,4.67-4.64C35.7,28.58,39.8,28.6,43.89,28.6Zm-1,2.86c-3.62,0-7.24.05-10.86,0-1.7,0-2.32.62-2.31,2.31,0,7,0,14,0,21,0,2.05.3,2.34,2.41,2.34,5,0,10.09,0,15.13,0A3.17,3.17,0,0,1,50,58.15c1.27,1.41,2.66,2.71,4,4,.29.28.57.69,1.05.46s.39-.69.39-1.09a20.83,20.83,0,0,0,0-2.85c-.18-1.4.42-1.68,1.7-1.63,2.78.09,5.57,0,8.36,0,4.31,0,4.28,0,4.24-4.27,0-1-.15-1.63-1.34-1.42-1,.18-1.41-.25-1.6-1.31-.21-1.22-1.36-2-2.36-1.28-1.61,1.21-2.26.15-3.15-.76C60.17,47,59.09,45.85,58,44.8A1.14,1.14,0,0,1,57.75,43c.94-1.42.5-2.67-1.09-3-1.13-.21-1.27-.73-1.25-1.67.05-1.84-.07-3.69.05-5.52.07-1.23-.38-1.46-1.49-1.44C50.29,31.5,46.61,31.46,42.93,31.46Zm40.68,14c3.18.48,3.18.48,3.18,3.79a4.21,4.21,0,0,1,0,.71c-.2,1.23.4,1.43,1.5,1.45s1.39-.37,1.37-1.43c-.07-2.91,0-5.82,0-8.73,0-1,.29-1.34,1.3-1.3,2,.07,3.93.1,5.88,0,1.26-.07,1.45.46,1.43,1.54-.06,2.79,0,5.59,0,8.38,0,1.06.14,1.58,1.41,1.56s1.48-.38,1.47-1.52c-.06-4.75,0-9.5,0-14.25,0-1.07.26-1.46,1.38-1.41a57.66,57.66,0,0,0,5.88,0c1.17-.06,1.36.41,1.35,1.44,0,5.7-.05,11.4,0,17.1,0,1.17-.34,1.49-1.49,1.48q-14.25-.06-28.51,0c-1,0-1.53-.2-1.42-1.36a21.88,21.88,0,0,0,0-3c0-1.22-.81-1.64-1.87-1a1.79,1.79,0,0,0-1,1.58c0,.77-.43,1.1-1.15,1-1.48-.25-1.86.46-1.69,1.78a11.2,11.2,0,0,1,0,1.42c0,2.23.26,2.49,2.43,2.5,2.43,0,4.87,0,7.3,0,1.46,0,3.34-.65,4.26.32.7.74.22,2.59.26,3.94,0,.06,0,.12,0,.18,0,.41-.08.88.39,1.09s.76-.18,1-.46c1.35-1.33,2.74-2.63,4-4a3.17,3.17,0,0,1,2.65-1.07c5.11.05,10.22,0,15.32,0,1.44,0,2.24-.43,2.23-2,0-7.25,0-14.49,0-21.73,0-1.23-.49-1.91-1.78-1.91-7.6,0-15.2,0-22.8,0-.86,0-1.11.26-1.08,1.11,0,2,0,4,0,6.06,0,.84-.18,1.27-1.13,1.41-1.33.19-2.23,1.26-1.49,2.38C85.11,43.79,84.72,44.59,83.61,45.49Zm-12.45,3a2.28,2.28,0,0,0,2.51-1.1,4.36,4.36,0,0,1,4.27-1.64,3.2,3.2,0,0,0,3.23-3.15A4.78,4.78,0,0,1,83,38.07a3.23,3.23,0,0,0,0-4.66,4.8,4.8,0,0,1-1.86-4.55A3.2,3.2,0,0,0,78,25.68a4.8,4.8,0,0,1-4.55-1.87,3.22,3.22,0,0,0-4.66.05,4.8,4.8,0,0,1-4.56,1.81c-1.45-.18-3.35,1.66-3.16,3.08a4.82,4.82,0,0,1-1.89,4.7,3.26,3.26,0,0,0,0,4.55A4.8,4.8,0,0,1,61,42.69a3.26,3.26,0,0,0,3.13,3.1,4.43,4.43,0,0,1,4.43,1.69A2.3,2.3,0,0,0,71.16,48.52Zm35.58-4.26c0-1.95-.08-3.91,0-5.86.07-1.28-.61-1.25-1.52-1.26s-1.39.09-1.38,1.21q.1,6,0,11.9c0,1.18.58,1.19,1.42,1.16s1.52.13,1.47-1.11C106.67,48.29,106.74,46.27,106.74,44.26ZM95.33,47.05c0-1-.07-2,0-3s-.5-1.2-1.38-1.2-1.58,0-1.5,1.27c.11,1.89.08,3.78,0,5.67,0,1.11.1,1.67,1.47,1.68s1.44-.74,1.39-1.75S95.33,47.94,95.33,47.05ZM83.9,50c.26-1.18-.22-1.54-1.39-1.5-1,0-1.53.13-1.45,1.33.06,1,0,1.68,1.37,1.58C83.44,51.37,84.22,51.35,83.9,50Z"/><path class="cls-3" d="M42.47,42.86c-2.85,0-5.7-.06-8.55,0-1.2,0-1.33-.47-1.33-1.46S32.73,40,33.93,40q8.72.11,17.44,0c1.34,0,1.19.7,1.23,1.55s-.13,1.39-1.23,1.37C48.4,42.82,45.44,42.86,42.47,42.86Z"/><path class="cls-3" d="M42.56,48.56c-2.91,0-5.82-.07-8.72,0-1.34,0-1.2-.68-1.24-1.54s.13-1.38,1.23-1.37q8.82.07,17.63,0c1.21,0,1.14.64,1.14,1.45s.08,1.49-1.14,1.46C48.5,48.51,45.53,48.56,42.56,48.56Z"/><path class="cls-3" d="M37,37.16a19.8,19.8,0,0,0-2.67,0c-1.51.21-1.77-.5-1.7-1.8,0-.85.31-1.11,1.14-1.09,2.14,0,4.27.06,6.41,0,1.12,0,1.09.6,1,1.35s.31,1.63-1,1.54C39.1,37.1,38,37.16,37,37.16Z"/><path class="cls-3" d="M48.36,37.16a19.8,19.8,0,0,0-2.67,0c-1.51.22-1.76-.51-1.7-1.8,0-.86.32-1.11,1.15-1.09,2.13,0,4.27.07,6.4,0,1.32-.05,1,.81,1.05,1.53s.11,1.45-1,1.37S49.42,37.16,48.36,37.16Z"/><path class="cls-3" d="M52.55,52.93c.35,1.4-.57,1.29-1.52,1.36-1.21.1-1.3-.47-1.34-1.45-.06-1.21.38-1.46,1.51-1.48S52.79,51.81,52.55,52.93Z"/><path class="cls-3" d="M45.37,54.23c-1.38.34-1.31-.54-1.38-1.51-.08-1.19.44-1.32,1.45-1.35,1.17,0,1.48.34,1.49,1.49S46.51,54.47,45.37,54.23Z"/><path class="cls-3" d="M41.15,52.89c.33,1.33-.47,1.33-1.49,1.41-1.36.11-1.3-.63-1.37-1.6-.08-1.21.48-1.29,1.46-1.33C40.94,51.32,41.41,51.7,41.15,52.89Z"/><path class="cls-3" d="M34.23,54.21c-1.23.26-1.67-.11-1.65-1.34s.3-1.55,1.48-1.5c1,0,1.58.15,1.44,1.34C35.39,53.6,35.73,54.74,34.23,54.21Z"/><path class="cls-3" d="M81.09,35.7a10,10,0,1,1-10-10A10,10,0,0,1,81.09,35.7Zm-2.87.09A7.11,7.11,0,1,0,71,42.84,7.14,7.14,0,0,0,78.22,35.79Z"/><path class="cls-3" d="M71.1,40a4.27,4.27,0,1,1,4.28-4.3A4.29,4.29,0,0,1,71.1,40Zm1.42-4.29a1.38,1.38,0,0,0-1.34-1.36,1.38,1.38,0,1,0,0,2.76A1.38,1.38,0,0,0,72.52,35.71Z"/></g></g></svg>