<svg id="Capa_1" data-name="Capa 1" xmlns="http://www.w3.org/2000/svg" viewBox="0 0 219.64 207.54"><defs><style>.cls-1{fill:#c8895e;}</style></defs><path class="cls-1" d="M67.79,169.37c-1.21,0-2.41.08-3.61,0-3.19-.25-5.64,0-7.22,3.72-1.45,3.41-5.87,4.67-9.63,3.6C41.26,175,35.24,173,29.17,171.26c-2.42-.71-3-2.11-2.23-4.46q7.26-23.56,14.36-47.2c.75-2.49,2.22-3.07,4.44-2.4,7.72,2.33,15.4,4.76,23.14,7,2.8.83,2.91,2.66,2.14,4.83-.68,1.91-.2,2.56,1.81,2.53a12.63,12.63,0,0,0,7.09-1.72,25.6,25.6,0,0,1,33.65,5.58c3.85,4.8,8.26,6.87,14.36,6.71,5.57-.14,11.37-1.22,16.67,1.85,1,.59,2.09-.4,3.05-.84q13.53-6.19,27-12.44c4.22-1.95,8.27-1.47,11.51,1.61,3.08,2.93,4.3,6.49,3,10.7a8.33,8.33,0,0,1-3.26,4.36q-22.51,16.35-45,32.77c-5.15,3.77-10.71,4.33-16.77,2.63-14.68-4.11-29.41-8-44.08-12.18A39.32,39.32,0,0,0,67.79,169.37Zm53.5-5.19c-6.11,0-12.22,0-18.33,0-1.57,0-3-.42-3.09-2.18-.07-2,1.44-2.43,3.15-2.43h12.44c7.42,0,14.85.09,22.26-.07,4.18-.1,6.72-2.88,6.57-6.6-.14-3.56-2.76-5.87-6.83-5.93-3.05,0-6.12-.16-9.16,0-7.67.45-13.59-2.27-18.42-8.44a20.14,20.14,0,0,0-26.48-5,17.84,17.84,0,0,1-11.63,2.94c-2.24-.23-3.26.57-3.88,2.79-2.07,7.33-4.39,14.59-6.59,21.89-1.07,3.53-1,3.45,2.77,3.59,5.31.19,10.66-.59,15.94.89,15.2,4.25,30.46,8.32,45.67,12.54a14.14,14.14,0,0,0,13-2.29q21.77-16,43.62-31.83c2.75-2,3.29-4.15,1.82-6.71a5.38,5.38,0,0,0-7.33-2.22c-8.73,4-17.42,8-26.16,12-1.61.73-2.31,1.44-1.85,3.42,1.72,7.44-3.1,13.52-10.75,13.67C132.43,164.27,126.86,164.18,121.29,164.18Zm-72.44,8c2.85,0,4.33-1.16,5-3.26q5.91-19.17,11.74-38.38c.39-1.28.34-2.2-1.32-2.68-5.54-1.6-11-3.35-16.54-5.06-1.54-.48-2.39-.17-2.8,1.58-.54,2.32-1.38,4.57-2.08,6.86-3.34,10.92-6.7,21.84-10,32.78-.31,1-1.64,2.69.33,3.35C38.55,169.15,44,170.7,48.85,172.18Z"/><path class="cls-1" d="M113.86,119.11c0-2.52-.09-5,0-7.54.15-3.42.36-6.55-4-7.95-2.21-.7-3.17-3.26-3.54-5.59-.5-3.1-2.2-4.63-5.23-5.39-6.36-1.62-8.58-5.43-6.74-11.75.89-3,.15-5.09-2.07-7.23-4.53-4.37-4.55-9,0-13.35,2.39-2.28,2.86-4.45,2-7.56-1.71-5.81.63-10,6.53-11.37,3.35-.79,4.88-2.47,5.65-5.77,1.33-5.65,5.55-8,11.14-6.41,3.18.93,5.48.54,7.86-2,4.22-4.48,8.89-4.5,13.09-.08,2.34,2.46,4.57,3.07,7.82,2.11,5.77-1.72,9.88.69,11.29,6.6.76,3.17,2.28,4.73,5.51,5.51,6.06,1.45,8.3,5.53,6.53,11.63a6.44,6.44,0,0,0,2,7.25c4.69,4.53,4.66,9-.07,13.6a6.19,6.19,0,0,0-1.94,7c1.87,6.51-.29,10.21-6.93,11.9a6,6,0,0,0-5,5.24c-.66,3.6-2.69,6.24-6.38,7.1-2.1.49-1.69,2-1.7,3.32,0,7.1,0,14.2,0,21.29,0,4.71-1.48,5.51-5.52,3.09-3.46-2.07-7-4.1-10.33-6.31a3.27,3.27,0,0,0-4.13,0c-3.19,2.09-6.49,4-9.77,6-1.46.87-2.91,2.32-4.77,1.29s-1.15-2.9-1.19-4.46C113.8,125.88,113.86,122.49,113.86,119.11Zm51.6-69.23A3.67,3.67,0,0,0,162,46c-5.11-.89-8.14-3.83-9.05-9-.56-3.24-2.78-4.19-5.57-3.22-4.82,1.67-8.65.64-12.07-3.12-2.39-2.62-4.26-2.61-6.66,0-3.32,3.63-7,4.75-11.75,3.2-3.54-1.15-5.19-.21-6,3.44-1,4.9-3.9,7.51-8.65,8.62-3.54.82-4.43,2.26-3.39,5.68,1.47,4.81.57,8.67-3.25,12.07-2.56,2.28-2.59,4.14-.08,6.36,4,3.48,4.87,7.48,3.26,12.36-1,3,.28,5,3.33,5.53,5,.9,7.76,3.81,8.86,8.77.77,3.51,2.27,4.32,5.74,3.27,4.66-1.42,8.46-.65,11.81,3.08,2.55,2.83,4.28,2.82,6.84,0,3.25-3.56,6.89-4.56,11.49-3.15,3.82,1.17,5.32.33,6.18-3.52,1.06-4.7,3.67-7.39,8.42-8.37,3.65-.76,4.63-2.41,3.57-5.94-1.42-4.68-.61-8.47,3.12-11.8,2.7-2.41,2.74-4.28.13-6.61-3.82-3.41-4.86-7.31-3.19-12.06A10,10,0,0,0,165.46,49.88ZM144.88,115.7c0-1.86.14-3.73,0-5.56s1.16-4.56-1-5.68c-2.63-1.38-4,1.34-5.64,2.82-3.81,3.49-8.53,3.54-12.31.06a25.71,25.71,0,0,0-2.89-2.65c-2.09-1.36-4.41-.35-4.44,1.93-.07,6.11,0,12.23,0,18.34,0,2.2,1,2.05,2.4,1.17,2.61-1.59,5.3-3.06,7.82-4.78a4.78,4.78,0,0,1,6,0c2.53,1.71,5.2,3.2,7.8,4.81,1.62,1,2.35.67,2.32-1.32C144.83,121.82,144.87,118.76,144.88,115.7Z"/><path class="cls-1" d="M50.35,161.07A6.91,6.91,0,0,1,43.27,168a7.11,7.11,0,0,1-7.07-7,7.21,7.21,0,0,1,7.33-7.13A7,7,0,0,1,50.35,161.07Zm-7-2.28A2,2,0,0,0,41.19,161a1.91,1.91,0,0,0,2.05,2,1.93,1.93,0,0,0,2.17-2.2C45.39,159.58,44.64,158.9,43.31,158.79Z"/><path class="cls-1" d="M132.1,95.27A28.35,28.35,0,1,1,160.37,67,28.28,28.28,0,0,1,132.1,95.27ZM108.57,66.59A23.45,23.45,0,1,0,132.4,43.47,23.25,23.25,0,0,0,108.57,66.59Z"/><path class="cls-1" d="M145.74,56.13c-.39.67-.83,1.54-1.39,2.33q-7.08,10-14.2,20c-2.09,2.92-3,3-5.66.41-1.72-1.67-3.41-3.38-5.09-5.09-1.09-1.12-1.71-2.39-.45-3.72s2.49-.85,3.74.18c1.47,1.22,2.5,3.85,4.34,3.5s2.63-3,3.83-4.65c3.41-4.67,6.74-9.39,10-14.12.85-1.22,1.87-1.85,3.32-1.39C145.3,53.93,145.67,54.83,145.74,56.13Z"/></svg>