<svg id="Capa_1" data-name="Capa 1" xmlns="http://www.w3.org/2000/svg" viewBox="0 0 389.11 229.23"><defs><style>.cls-1{fill:#c7804d;}.cls-2{fill:#fccd74;}.cls-3{fill:#6c2910;}.cls-4{fill:#fec66a;}.cls-5{fill:#9e986f;}.cls-6{fill:#fdb48e;}.cls-7{fill:#fec3a1;}.cls-8{fill:#e9895f;}.cls-9{fill:#fec2a0;}.cls-10{fill:#c6553d;}.cls-11{fill:#fdb691;}.cls-12{fill:#c7563e;}.cls-13{fill:#fdb893;}.cls-14{fill:#ea8b61;}.cls-15{fill:#e8875d;}.cls-16{fill:#423b51;}.cls-17{fill:#e7875c;}.cls-18{fill:#e7865b;}.cls-19{fill:#3d354a;}.cls-20{fill:#3d3549;}.cls-21{fill:#e8875c;}.cls-22{fill:#e8865b;}.cls-23{fill:#e8855a;}.cls-24{fill:#ed8f63;}.cls-25{fill:#443c52;}.cls-26{fill:#403950;}.cls-27{fill:#e48056;}.cls-28{fill:#3e354b;}.cls-29{fill:#3c3349;}.cls-30{fill:#e78459;}</style></defs><path class="cls-1" d="M168.35,158.38a2.46,2.46,0,0,0-.38,1.08,24,24,0,0,1-1.78,4.86,80.38,80.38,0,0,1-5.14,10.14,30.3,30.3,0,0,1-4.31,5.54c-4.3,4.16-9.39,4.56-14.29,1.1-3.84-2.71-6.49-6.44-8.93-10.34-.18-.29-.21-.7-.62-.81a19.05,19.05,0,0,1,.7-5.57,75.76,75.76,0,0,0,1.29-11.54,43,43,0,0,0-2.19-14,17.69,17.69,0,0,0-1.46-4c.24,1,.49,2,.81,2.92a52.62,52.62,0,0,1,2.58,11.75,41.74,41.74,0,0,1-.44,9.14q-.54,4.13-1.28,8.22a15.48,15.48,0,0,0,0,3.6c-.4,7.58.36,15.12.85,22.67.32,5.07.79,10.13,1.28,15.19.08.83-.46,1.2-.9,1.69a1.87,1.87,0,0,1-1.24.55,119,119,0,0,1-17.14,2.16,95,95,0,0,1-10.12.39c-4.29-.22-8.61,0-12.88-.69-1.21-.06-1.69-.77-2.06-1.88-2.4-7.23-5-14.39-7.33-21.64-1-3.08-2.21-6.09-3.36-9.11a3.47,3.47,0,0,1-.25-1.77c1.12-7.71,1.9-15.47,2.79-23.21A66.59,66.59,0,0,0,83,142.12c-.41-5.37-2.24-10.13-6.74-13.5a9.55,9.55,0,0,0-1.46-.9,1,1,0,0,0-.71-.17c.54.45,1.12.67,1.61,1a17,17,0,0,1,6.87,12.09,60,60,0,0,1-.27,13.52c-.68,7.19-1.73,14.34-2.49,21.52-.24,2.29-.43,2.41-2.32,1.2a20.84,20.84,0,0,0-5.25-2.58c.89.67,2,.87,3,1.51.55.38,1.19.63,1.76,1a7.56,7.56,0,0,1,3.07,3.7c2.13,5.25,3.68,10.69,5.54,16,1.76,5.08,3.33,10.22,5.45,15.17a1.93,1.93,0,0,0,.38.63c.85,2,1.52,4,2.27,6a1,1,0,0,1-.05,1.1H74.77a2.18,2.18,0,0,1-.77-.71c-1.46-2.4-3-4.79-4.36-7.22a8.23,8.23,0,0,1-.67-1.63c-1.12-2.46-2.63-4.7-3.91-7.08-2.76-5.13-5.48-10.27-7.73-15.65-2-4.78-2.31-9.78-1.9-14.86Q56,165.66,56.61,159c.34-3.65.71-7.29,1.07-10.93a4.73,4.73,0,0,0,0-.53,3.9,3.9,0,0,1-.09-1.27c.47-4.1.94-8.18,1.73-12.24,1.25-6.37,5-10.84,10.4-14.14a113.68,113.68,0,0,1,11.55-5.72c1-.46,2-1,3-1.43a1.94,1.94,0,0,1,1.21-.34,30.68,30.68,0,0,0,5.77,5.32,25.53,25.53,0,0,0,11.37,4.8,11.93,11.93,0,0,0,8.31-1.54,6.66,6.66,0,0,0,3.24-6.4,1,1,0,0,1,.09-.62.9.9,0,0,1,.91-.05,102.52,102.52,0,0,1,13.38,4.91,17.13,17.13,0,0,1,7.81,7.45,44.67,44.67,0,0,1,2.73,5.66,5.39,5.39,0,0,1,.38,1.43,124.41,124.41,0,0,0,6,13.29,60.23,60.23,0,0,0,3.53,6.22l4.22-6.32c.75-1.12,1.53-2.23,2.24-3.37a1.45,1.45,0,0,1,1.86-.79c.58,0,1,.39,1.41.67a42.64,42.64,0,0,0,10.74,5.3,4.4,4.4,0,0,0,.56.31,1.14,1.14,0,0,1,.86,1.54,12,12,0,0,1-.77,2.63l-.59,1.95A18.26,18.26,0,0,1,168.35,158.38Z"/><path class="cls-2" d="M299.32,192.56a13.37,13.37,0,0,1-3.84,1.51,12.86,12.86,0,0,1-4.93.44c-9.63-.81-18.34-4.42-26.78-8.86-2-1.06-4-2.09-5.95-3.34-.9-.59-1-1-.37-1.84a45.29,45.29,0,0,0,6.95-15.27c.41-1.57.62-1.7,2.15-1.21,5.46,1.75,11,3.1,16.58,4.53,1.34.35,2.69.68,4,1a18.22,18.22,0,0,1,6.77,3.28.78.78,0,0,0,.51.26c-.15-.4-.5-.58-.78-.81-2.64-2.12-5.82-2.95-9-3.71-1.73-.41-1.81-.47-1.69-2.26.39-5.82.88-11.63,1.36-17.44.38-4.56.73-9.16,2.13-13.58,1.46-4.6,3.83-8.55,7.88-11.37a21,21,0,0,0,2.88-1.8,15,15,0,0,0-3.8,2.14c-4.32,3.36-6.63,7.92-7.82,13.12A89.17,89.17,0,0,0,284,149.21c-.37,3.89-.55,7.8-1,11.69-.21,1.9-.21,3.83-.48,5.74-.16,1.13-.37,1.28-1.48,1-6.32-1.57-12.63-3.2-18.79-5.32a16.07,16.07,0,0,0-3.63-.9c1.45.39,2.85.88,4.25,1.4s1.57.73,1.21,2.2a40.93,40.93,0,0,1-6.64,14.81c-1,1.34-1.27,1.4-2.7.5a56.81,56.81,0,0,1-4.9-3.21,2.35,2.35,0,0,0,.91,1.05c8.89,5.91,18.14,11.14,28.39,14.36a42.74,42.74,0,0,0,13.31,2.3c1,0,1.95-.45,3-.14.1,2.42.11,4.83.19,7.24q.25,7.94.68,15.85c0,.57,0,1.14,0,1.71H248.26a1.93,1.93,0,0,1-.36-1.41c0-6.89-.18-13.8,0-20.68.22-6.68,0-13.36.16-20a11.87,11.87,0,0,0-.26-2.53c.05-.52.37-.6.74-.37.94.58,1.43.08,1.87-.69.76-1.33,1.55-2.64,2.24-4,1.12-2.22,2.31-4.41,3.46-6.62.44-.86.31-1.43-.47-1.86a4.94,4.94,0,0,1-2.47-3.77,37.53,37.53,0,0,0-3.14-9.17,3.5,3.5,0,0,1-.38-1.1c.11-2.92.55-5.81.92-8.7.59-4.48,1.41-8.93,2.08-13.4.54-3.57,2.52-6.3,5-8.73,1.1-1.08,2.13-1,3.42.08s2.29,2.24,3.43,3.36a12.23,12.23,0,0,0,1.78,1.52,1.71,1.71,0,0,0,2.57-.22,32.46,32.46,0,0,0,4.6-5.47,43.31,43.31,0,0,0,4.91-8.37,1,1,0,0,1,.63-.67c3.48,1.17,6.81,2.72,10.18,4.17,1.23.53,2.44,1.09,3.66,1.64a15.62,15.62,0,0,1,4.49,2.15,35.14,35.14,0,0,1,6.41,4.58,2.38,2.38,0,0,1,.87,1.18c3.67,3.95,5.17,8.77,5.6,14,.16,1.87.29,3.74.44,5.61.42.48.27,1.08.29,1.63A135.06,135.06,0,0,1,309.41,163a154,154,0,0,1-3.25,17.94c-.79,3.11-1.68,6.2-3.64,8.81C301.66,190.88,300.82,192.11,299.32,192.56Z"/><path class="cls-2" d="M222.2,219.5c-.09-3.58.17-7.14.34-10.7,0-.71,0-1.42,0-2.13a3,3,0,0,1-.19-1.66,31.85,31.85,0,0,0,.24-4.88c.11-3.51.27-7,.33-10.52a1.49,1.49,0,0,1,.16-.72c0-.24.64.21.39-.41s.07-1.31.75-1.78c2.67-1.87,5.38-3.69,7.9-5.76A5.54,5.54,0,0,0,234.6,177c.23-.58.79-.78,1.26-1.09,2-1.27,3.93-2.56,4.95-4.82a.92.92,0,0,1,.63-.49,11.15,11.15,0,0,1,5.87,3,1.35,1.35,0,0,1,.5.9,19.93,19.93,0,0,1,.18,3.62c0,4.84.14,9.68,0,14.52-.3,8.46-.1,16.93-.18,25.39a2.11,2.11,0,0,1-.37,1.52Z"/><path class="cls-3" d="M92.5,212.18a144.35,144.35,0,0,0,21,.45,123.07,123.07,0,0,0,20.06-2.51,2.35,2.35,0,0,1,.53,0c.25,3.13.67,6.25.72,9.4H93.57a55.45,55.45,0,0,0-1.83-5.36c-.2-.56-.38-1.13-.56-1.69C91.51,211.83,92.05,212.23,92.5,212.18Z"/><path class="cls-1" d="M247.41,219.5c0-7.58-.15-15.17.06-22.74.19-7,.06-14.08.14-21.12l0-1.46c.23-.11.42-.13.41.22.63,1.68.42,3.43.42,5.16,0,5.24.16,10.48,0,15.71-.31,8.07-.05,16.15-.17,24.23Z"/><path class="cls-3" d="M69,209.94l5.8,9.56H68.15a56.12,56.12,0,0,1,.5-6.73C68.73,211.83,68.86,210.89,69,209.94Z"/><path class="cls-4" d="M168.4,68.83a41.27,41.27,0,0,0-4.45-.36c-2-.26-4-.29-6-.54a1.17,1.17,0,0,0-1.27.62,34.85,34.85,0,0,1-8.81,8.74,19.93,19.93,0,0,1-3.81,1.9c-.33.12-.74.3-1,0s.14-.57.32-.83c2.59-3.54,3.3-7.62,3.43-11.88,0-.82-.58-.8-1-1a38.41,38.41,0,0,1-11.7-6,21.2,21.2,0,0,1-8.67-14.84c-.72-5.9-.52-11.72,1.76-17.29a22.13,22.13,0,0,1,10.43-11.29,46.91,46.91,0,0,1,13-4.27,105.7,105.7,0,0,1,11-1.56,133.51,133.51,0,0,1,18.54-.53c7.69.3,15.38.84,22.9,2.72,7,1.75,12.58,5.36,16.25,11.66a27.65,27.65,0,0,1,3.38,11A37,37,0,0,1,222,47.82c-1.83,7.82-6.56,13.06-13.87,16.12-2.19.92-4.47,1.6-6.74,2.3a30,30,0,0,1-3.62.91,43.41,43.41,0,0,1-7,1.23,6.54,6.54,0,0,1-3.14,0c-.13,0-.23.14-.33.25h0c-.45.36-1,.12-1.42.08a3.18,3.18,0,0,0-1.23,0,4.82,4.82,0,0,1-2,.19,5.39,5.39,0,0,0-2.08,0,41.92,41.92,0,0,1-4.49.22c-1.41-.1-2.82.23-4.24,0C170.73,69,169.55,69,168.4,68.83Z"/><path class="cls-3" d="M139.45,133.33c-.69-1.48-1.4-2.94-2-4.43a19.62,19.62,0,0,0-12-11.19c-3.67-1.3-7.32-2.66-11.06-3.78a6.76,6.76,0,0,1-2.7-.87.83.83,0,0,1-.51-.86,14.35,14.35,0,0,1,.42-2.61,1.71,1.71,0,0,1,.7-1.14,3.45,3.45,0,0,1,1.69.07c4.64.69,7.94-1.42,10.35-5.11a30.3,30.3,0,0,0,4.44-13.69c.3-2.84.19-5.69.21-8.53,0-.36,0-.72,0-1.07,0-2-1.36-2.4-2.94-2.33-.38,0-.77.12-1.16.17s-.8,0-1-.39a1,1,0,0,1,.2-1.1,3.34,3.34,0,0,1,3.15-1.18,5.08,5.08,0,0,0,1.3.26,19.24,19.24,0,0,0-1.57-6,16.35,16.35,0,0,0-3.33-5.06c-.51-.53-.81-.65-1.22.14a24.53,24.53,0,0,1-9.1,9.4A34.15,34.15,0,0,1,104.76,78a2.14,2.14,0,0,0-1.36,1.11,13.28,13.28,0,0,1-2.93,3.65,4.71,4.71,0,0,1-1.31.9c-1.63.74-2.36.49-3.21-1.07a8.27,8.27,0,0,0-2.59-3.21,4.59,4.59,0,0,0-7,2.44A8.08,8.08,0,0,0,92.09,92c1.39.33,1.41.33,1.36,1.76a42.73,42.73,0,0,1-2.56,14.12,7.51,7.51,0,0,1-4.24,4.42,1.66,1.66,0,0,1-1.23.23c-4.75,2.4-9.77,4.26-14.38,7-3.53,2.06-6.76,4.46-8.94,8a25.32,25.32,0,0,0-2.91,8.95c-.61,3.47-1,7-1.33,10.46a3.38,3.38,0,0,1-.17.6,14,14,0,0,1-5.8-17.1,18,18,0,0,1,4.56-6.5,10.38,10.38,0,0,0,3.28-10.54c-1.6-6.56.76-11.74,5.13-16.37a77.77,77.77,0,0,1,6-5.82c3.87-3.31,5.68-7.6,6.3-12.52C77.82,73,79,67.53,82,62.63,87,54.8,94,50.47,103.3,50.44s17.42,2.85,24,9.52a18.2,18.2,0,0,1,5.26,14.67c-.18,2.38-.5,4.74-.63,7.12a23.56,23.56,0,0,0,3.42,13.31c.56,1,1.14,2,1.62,3a10.91,10.91,0,0,1,.15,9.56,14,14,0,0,0-1.39,4.55,9.28,9.28,0,0,0,1.72,6.12,24.88,24.88,0,0,1,3,5.16C141.62,126.87,140.93,130.14,139.45,133.33Z"/><path class="cls-5" d="M299.32,192.56c4-3,5.49-7.46,6.62-12.06a171.46,171.46,0,0,0,3.25-18.42,142,142,0,0,0,1.5-22.09c.26-.27.16-.61.17-.92.17-4.57.1-9.14.26-13.7a92.84,92.84,0,0,1,1-13,1.16,1.16,0,0,0-.46-1.2c-3.1-2.64-4.18-6.13-4.47-10.09a27.36,27.36,0,0,1,2.5-12.89,22.37,22.37,0,0,1,6.38-8.29A20.46,20.46,0,0,1,320.39,77c1.87-.89,2.64-.64,3.59,1.21a13.81,13.81,0,0,1,1.38,5.21,36.61,36.61,0,0,1-2,16.2,26.39,26.39,0,0,1-5.63,9.18,8.15,8.15,0,0,1-3.82,2.62c-1.08.26-.81,1.21-.88,1.81-.26,2.22-.35,4.45-.48,6.68-.32,5.34-.33,10.69-.49,16-.07,2.13,0,4.27-.17,6.39-.25,3.62-.19,7.25-.2,10.87a3,3,0,0,0,.16,1.17,7.16,7.16,0,0,0,.44-2.45,93.33,93.33,0,0,1,2.2-12.42,66.3,66.3,0,0,1,2.67-8.07c.17-.43.23-.67-.18-1.07a5.07,5.07,0,0,1-1.2-3.76A18.12,18.12,0,0,1,319.15,116a21.31,21.31,0,0,1,7.68-6.88,36.29,36.29,0,0,1,9.26-3c.75-.16,1.13.11,1.07,1a48.61,48.61,0,0,1-1.39,6.87,24,24,0,0,1-7.18,12.33c-2.59,2.42-5.47,4.45-9.17,4.77a1.49,1.49,0,0,0-1.41,1.19,67.28,67.28,0,0,0-3.28,11.55c-.63,3.72-1.24,7.46-1.67,11.21a17.61,17.61,0,0,0-.19,5.06c.28-.95.51-1.76.77-2.55a30.2,30.2,0,0,1,4.16-8.7,1.2,1.2,0,0,0,.18-1,7.36,7.36,0,0,1,2.15-6.42c3.74-4,8.36-4.75,13.46-3.64,1.65.35,2,1.12,1.22,2.62A15.54,15.54,0,0,1,323,149.12a5.73,5.73,0,0,1-3.56-.19c-.47-.22-.67.08-.85.38a34.41,34.41,0,0,0-4.73,11.78c-.12.65-.07,1.34-.23,2s.32.86.94.86c3.28,0,6.56,0,9.83,0,.95,0,1.22.25,1.2,1.19-.06,3.17,0,6.34,0,9.51a24.82,24.82,0,0,1-2.27,10.73,16.33,16.33,0,0,1-2.69,4c-.64.68-1.36,1.3-2,1.95l.16.25c.52,0,1,0,1.56,0,2.88-.15,5.74.28,8.62.22.4,0,.86,0,.89.52s-.4.52-.74.62a1.67,1.67,0,0,1-.61.13c-2.43-.24-4.86.06-7.3-.15a35.67,35.67,0,0,0-6.37.08c-1.31.13-2.54-.15-3.81-.14-3.53,0-7.05,0-10.58,0C300.05,192.78,299.63,192.92,299.32,192.56Z"/><path class="cls-6" d="M249.48,102.4a10.78,10.78,0,0,1-7.64-2.36,12.52,12.52,0,0,1-3.55-5.72,38,38,0,0,1-1.81-9.47c-.24-2.77-.19-5.54-.17-8.31,0-2.27.16-4.54.25-6.81,1.62-1.36,3.39-2.2,5.58-1.59.3.08.69.22.88-.11s-.08-.67-.32-.94a3.66,3.66,0,0,0-3.72-.43,12.81,12.81,0,0,0-1.21.66c-.82.45-1.12.28-1.05-.65a39,39,0,0,1,.8-5.69,21.92,21.92,0,0,1,.83-2.76c.2-.52.47-1,1.15-.89,7.14,2.29,14.27,1.62,21.38-.1,1.55-.38,2-.63,1.7,1.48a12.6,12.6,0,0,0,.85,7.23A6.61,6.61,0,0,0,265,68.33a3.34,3.34,0,0,1,1.12,2.86,15,15,0,0,0,.76,5.36A5.22,5.22,0,0,0,268,78.47c.75.81,1.19.78,1.69-.19a14.55,14.55,0,0,1,2-3,5.22,5.22,0,0,1,9.32,3.1c.66,4.38-2.76,9.62-7.21,10.48a1.31,1.31,0,0,0-1.19,1.27,16.54,16.54,0,0,1-.23,2.22,25.92,25.92,0,0,0,.86,7.06A2.14,2.14,0,0,1,273,102a28.4,28.4,0,0,1-7.46,7.08,55.08,55.08,0,0,0-7.92,6.1,9.37,9.37,0,0,0-1.71,2.3c-.66.69-.79,1.81-1.81,2.19-.57-.08-.75-.54-.87-1-1.07-3.9-2-7.82-3.11-11.71a1.22,1.22,0,0,1,0-.63c.2-.32.53-.33.85-.35,5.39-.28,9.05-3.31,12-7.52.22-.32.38-.68.69-1.07a23.71,23.71,0,0,1-13.24,5.26A1.13,1.13,0,0,1,249.48,102.4Z"/><path class="cls-2" d="M203.34,177v-1a2.54,2.54,0,0,1-.2-1.85,69,69,0,0,1,3.44-14.74c.79-2.34,1.47-4.72,2.28-7.06.46-1.33,1-2.63,1.59-3.93a.76.76,0,0,0,.21-.64c1.28-3.65,2.54-7.3,3.84-10.93a76.38,76.38,0,0,1,5-11.76,21.73,21.73,0,0,1,9.48-8.92c4.76-2.39,9.68-4.44,14.64-6.38.9,0,.78.59.7,1.18-.31,2.22-.69,4.43-1,6.66,0,.21-.07.42-.08.64,0,.43,0,.89.4,1.14a1,1,0,0,0,1.17-.28c1-.91,2.07-1.85,3.1-2.79,2.08-1.88,3-1.7,4,.88.45,1.12.79,2.29,1.31,3.38a1.74,1.74,0,0,1,.07,1.25c-1.79,6.84-2.54,13.85-3.5,20.83-.14,1.06.17,2.23-.58,3.18-.73.07-.72-.58-.88-1-.37-1-.57-2-.9-3a7.56,7.56,0,0,0-.85-1.93,1.47,1.47,0,0,0-2.74.18,3.78,3.78,0,0,0-.36,2.27c.13.84.41,1.65.46,2.5a.7.7,0,0,1-.35.53c-.56.09-.92-.31-1.31-.59-2.64-2-5.12-4.15-7.7-6.22-1.44-1.15-2.86-2-4.74-1.2a1.31,1.31,0,0,1-1-.08,2,2,0,0,0-2.85.81.78.78,0,0,1-.34.25,1.84,1.84,0,0,1-1.37-.5.89.89,0,0,1-.08-.33c0-2.39.3-4.78.44-7.18a32.35,32.35,0,0,0-.61,4.89,7.53,7.53,0,0,1-.21,2.32.76.76,0,0,1-.51.34,2,2,0,0,0-1.41,2.86,2.94,2.94,0,0,1,.25.91.76.76,0,0,1-.1.3c-1.57,1-1.84,2-1.09,3.73.26.61.86,1,.89,1.76a1.55,1.55,0,0,1-.45.47c-1.21,1.27-.89,2.79-.61,4.23a37.79,37.79,0,0,0,1.95,5.75,5.52,5.52,0,0,1,.49,1.73,9.49,9.49,0,0,0,.11,2.66c.14,1.3-.09,1.55-1.35,1.76a10.61,10.61,0,0,1-2.87,0c-2.48-.29-4.78.54-7.06,1.35a11.21,11.21,0,0,0-3,1.45,2.17,2.17,0,0,0,1.06-.36,24.31,24.31,0,0,1,7-2.18c.32,0,.64-.07,1-.08,2,0,2.18.28,1.64,2.13a16,16,0,0,0,1.08,12,8.54,8.54,0,0,0,5.45,4.63c.41.11,1,.16,1,.63s-.41.87-.82,1.14a19.25,19.25,0,0,0-3,2.29c-2.67,1.15-5.28,2.5-8.28,2.54-6.36.11-10.8-3.94-11.92-10.12C203.19,178.7,202.81,177.82,203.34,177Z"/><path class="cls-1" d="M272.39,92.34a10.73,10.73,0,0,1,0-3.25c0-.59.51-.37.81-.43a9.19,9.19,0,0,0,7.42-10.89c-.41-1.9-1.33-3.39-3.29-4a5.1,5.1,0,0,0-5.24,1.55,13,13,0,0,0-2.26,3.34c-.51,1-.95,1.09-1.77.3a7.81,7.81,0,0,1-2-4.69,6.2,6.2,0,0,1-.07-1A9,9,0,0,0,264,67.42c-2.31-2.93-2.22-6.61-1.49-10.3a38.9,38.9,0,0,1-9.41,1.79c-4.61.29-9.24.49-13.65-1.34a14.7,14.7,0,0,1-2.09-.63,4.26,4.26,0,0,1-1.7-1.94,8.19,8.19,0,0,1,1.52-12.44,18.72,18.72,0,0,1,8.32-3,30.25,30.25,0,0,1,14.06,1.53,30.69,30.69,0,0,0,10.75,1.71,9.28,9.28,0,0,1,7.53,3.35,11,11,0,0,1,2.26,4.18,1.37,1.37,0,0,0,.69,1c5.08,3,7,7.56,6.69,13.28-.39,6.57-3.22,12.26-6.41,17.83a37,37,0,0,1-4.83,6.74A17.85,17.85,0,0,1,272.39,92.34Z"/><path class="cls-7" d="M169.23,148.52a38,38,0,0,1-10.07-4.84c-.66-.41-1.28-.88-1.91-1.32.69-1.6,1.35-3.21,2.09-4.78a5.2,5.2,0,0,0,.48-2.57A25,25,0,0,1,161,125c.66-1.76,1.52-3.44,2-5.26a22.75,22.75,0,0,0,.83-6.19,5.24,5.24,0,0,1,.14-1.47,2.06,2.06,0,0,1,3.62-1,6.71,6.71,0,0,1,1.57,3.19l0,.43a2,2,0,0,1,0,2.13l0,.86A8.69,8.69,0,0,1,169,121c-.05.56.09.94.72.85a40.17,40.17,0,0,1,6.1-.32,3.91,3.91,0,0,1,1.08,0c.69.26,1.48-.26,2.14.27l1.05,0c1.67.85,2.24,2,1.74,3.62v.86c-.23.3-.33.69-.66.92a62.09,62.09,0,0,1-10.54,2.12c-.82.09-1.79.3-2.3-.66a2.54,2.54,0,0,1,.44-2.8c.8-1.1,2.05-1.48,3.51-1.91a5.66,5.66,0,0,0-3.66,1.59,2.82,2.82,0,0,0-.24,4,1.23,1.23,0,0,1,.28,1.18,3,3,0,0,0,.32,2.76,1.19,1.19,0,0,1,.06,1.13,2.42,2.42,0,0,0,.53,2.49,2.28,2.28,0,0,1,.52,2.26,1.64,1.64,0,0,0,1,2.22c.08-.4-.24-.57-.41-.79a1.7,1.7,0,0,1-.07-2c.36-.67,1-.47,1.52-.41a41.4,41.4,0,0,0,8.18.06,3.21,3.21,0,0,1,0,1.94,5.71,5.71,0,0,1-3.55,3.08c-1.33.54-2.72.59-4,1a5,5,0,0,0-3.26,3A1.47,1.47,0,0,1,169.23,148.52Z"/><path class="cls-5" d="M304.65,120.37c-3.41-3.39-7.55-5.71-11.77-7.91a9.2,9.2,0,0,0-1.94-2.72,22.33,22.33,0,0,1-4.86-12,1.55,1.55,0,0,1,0-.43c.44-2.15.23-2.86,2.93-2,6.9,2.06,11.54,6.64,14.59,13a22.19,22.19,0,0,1,2.07,7.53A8,8,0,0,1,304.65,120.37Z"/><path class="cls-1" d="M255.66,117.35a14.11,14.11,0,0,1,4.27-4.66c3-2.41,6.42-4.32,9.3-6.91a26.83,26.83,0,0,0,3.83-4.41c.43-.6.07-1.32.19-2a.85.85,0,0,1,.89.4,46.15,46.15,0,0,0,3.6,4.41c.5.59,1.1,1.14.85,2a31.36,31.36,0,0,1-2.77,5.41A76.51,76.51,0,0,1,270,119.8a5.71,5.71,0,0,1-1.14,1.11,1.88,1.88,0,0,1-2.62-.07,28.72,28.72,0,0,1-3-2.75c-.5-.5-1-1-1.51-1.5-1.87-1.72-2.92-1.7-4.77,0C256.6,117,256.34,117.56,255.66,117.35Z"/><path class="cls-1" d="M295.45,194.7a14.59,14.59,0,0,1-5.8.39,56.28,56.28,0,0,1-13.7-3.31A105.06,105.06,0,0,1,259.41,184c-3-1.74-5.9-3.67-8.84-5.52A4.26,4.26,0,0,1,250,178c-.37-.35-.8-.92-.49-1.25s.63.32,1,.52q2.61,1.65,5.2,3.34c.59.4.92,0,1.22-.38a41.5,41.5,0,0,0,4.81-8.51,67.92,67.92,0,0,0,2.23-7.1c.22-.77.06-1.08-.68-1.31a45,45,0,0,0-4.67-1.45c-.3-.06-.87.13-.72-.46.11-.41.58-.46,1-.34,1.09.31,2.2.54,3.27.92,4.34,1.53,8.77,2.78,13.22,3.93,2,.52,4.06,1,6.07,1.56.66.18.79,0,.83-.6q.39-5.08.85-10.16c.48-5.26.78-10.53,1.5-15.75s2.26-10,5.67-14.12a18.47,18.47,0,0,1,6.57-5,1.52,1.52,0,0,1,.4-.16c.27,0,.61-.15.74.22s-.22.39-.42.52c-1.27.85-2.67,1.44-3.9,2.39a20.61,20.61,0,0,0-6.92,10.62A52.77,52.77,0,0,0,285,145.64c-.45,4.26-.71,8.54-1.05,12.81q-.35,4.34-.81,8.66c-.1.89.53.95,1,1a34.2,34.2,0,0,1,6.11,1.78,16.87,16.87,0,0,1,4.26,2.59,2,2,0,0,1,.37.39c.18.25.26.55,0,.76s-.47,0-.65-.18a16.91,16.91,0,0,0-3.93-2.53,27.2,27.2,0,0,0-5.87-1.84c-2.61-.65-5.21-1.35-7.83-2-3.55-.83-7-1.95-10.51-3-.95-.3-1.18,0-1.38.87a44.55,44.55,0,0,1-3.91,10.56,34.79,34.79,0,0,1-3.2,5.14c-.52.65-.37.91.27,1.3a107.76,107.76,0,0,0,17.65,8.67,62.31,62.31,0,0,0,12.83,3.36c2.37.36,4.74,0,7.11,0Z"/><path class="cls-1" d="M255.66,117.35c.86-.4,1.34-1.24,2.09-1.78a2.47,2.47,0,0,1,3.06,0,19.66,19.66,0,0,1,2.9,2.65c.82.78,1.6,1.61,2.5,2.31,1.16.92,1.76,1,2.83-.13a40,40,0,0,0,3.9-4.89A51.17,51.17,0,0,0,278,107c.13-.29.23-.61.58-.74l.45.4a48.12,48.12,0,0,1-6.22,10.5,30,30,0,0,1-3.62,4.18c-1.24,1.15-1.89,1.18-3.25.15a50.1,50.1,0,0,1-4.47-4.27c-1.74-1.69-2.6-1.69-4.24,0a16.24,16.24,0,0,0-4.53,9.71c-.37,3.41-1.09,6.77-1.59,10.16-.37,2.52-.63,5-.93,7.57-.1.88-.17,1.77-.25,2.65a1.26,1.26,0,0,1-.83-1.55,10.41,10.41,0,0,0,.39-3.14c.43-3.44.93-6.87,1.45-10.29a49.35,49.35,0,0,1,1.65-8.85c.79-2.31-.22-4.08-.87-6,0-.16-.15-.32-.21-.49-.83-2.14-1.43-2.29-3.14-.72l-3,2.83a3.56,3.56,0,0,1-.69.48c-1.05.57-1.8.17-1.7-1,.15-1.83.46-3.64.72-5.46a27.46,27.46,0,0,1,.42-2.72c.13-.54-.33-.44-.49-.66.43-.11.77-.48,1.24-.47.58.25.44.74.38,1.19-.29,2.18-.61,4.36-.92,6.53a4.81,4.81,0,0,0-.09,1.23c.51,0,.74-.42,1-.69a24,24,0,0,1,3.68-3.06c1.27-.79,2-.63,2.91.56a10.66,10.66,0,0,1,1.33,3.33,7.93,7.93,0,0,0,.42,1.09c.18.38.43.27.66,0Z"/><path class="cls-1" d="M254.24,119.45l-.62.94c-.44-1.28-.83-2.41-1.21-3.53a5.44,5.44,0,0,0-.32-.91c-1.07-1.81-1.57-2.31-3.36-1A26.35,26.35,0,0,0,245.2,118a4.92,4.92,0,0,1-.63.58c-.19.13-.44.36-.66.17s-.14-.39-.11-.59c.31-2.13.68-4.26.94-6.39.1-.82.52-1.65.1-2.49a42.73,42.73,0,0,1,5.09-4.32.91.91,0,0,1,.32,1.33c1.06,4,2.11,8.08,3.19,12.11C253.55,118.79,253.55,119.4,254.24,119.45Z"/><path class="cls-1" d="M235.64,55l.17-.11c.7,1.62,2.16,2.12,3.7,2.5a.12.12,0,0,1,0,.1s0,0-.07.08c-.49-.19-.6.17-.73.51A33.92,33.92,0,0,0,237,67.61,5.23,5.23,0,0,1,241.31,66a2.41,2.41,0,0,1,2.15,1.65c.24.68-.11,1.18-.77.92-2.16-.84-4,0-5.72,1.05a1.07,1.07,0,0,1-.41.08,3,3,0,0,0-.47-2.46,11.52,11.52,0,0,1-.79-10.67C235.5,56.11,236.08,55.64,235.64,55Z"/><path class="cls-8" d="M250.25,106.25l-.32-1.33-.45-2.52a23.68,23.68,0,0,0,14.8-6C262.27,101.1,256.76,106.56,250.25,106.25Z"/><path class="cls-5" d="M192.93,76.54a30,30,0,0,1,4.27,3,4.67,4.67,0,0,1,1.71,1.71l.85,1.07a13.82,13.82,0,0,1,2.26,4.4,18.64,18.64,0,0,1,.7,8.8c-.29,2.37-1.55,4.32-2.73,6.3-.36.59-.61,1.3-1.3,1.65-1.22.91-2.09,2.18-3.34,3.07a17.43,17.43,0,0,1-8.07,2.94,16.66,16.66,0,0,1-5.68-.24c-5.32-1-9-4.19-11.56-8.88-.34-.62-.28-1.38-.62-2a11.35,11.35,0,0,1-.85-4.49c-.41-.51-.24-1.09-.21-1.65a13.5,13.5,0,0,1,.39-4.19,6.67,6.67,0,0,1,.67-1.43c0-.23,0-.48.22-.64a4.56,4.56,0,0,1,.85-1.92h0a8.11,8.11,0,0,1,3-4.06,15.28,15.28,0,0,1,6.67-4.1,14.19,14.19,0,0,1,4.66-.82,2,2,0,0,1,1.71,0,14.27,14.27,0,0,1,2.35.22A13.53,13.53,0,0,1,192.93,76.54Z"/><path class="cls-5" d="M197.63,174.84c-.63,6.16-3.87,10.52-9.6,12.62s-10.9.71-15.38-3.16a14.37,14.37,0,0,1-4.5-8.6c-1.1-6,1.89-11.86,7.36-15a14.89,14.89,0,0,1,8.23-2.07,5.31,5.31,0,0,1,2.78.42h0a5.16,5.16,0,0,1,2.13.86,6.22,6.22,0,0,0,1.5.64,6.47,6.47,0,0,1,1.71,1.07l.42.43a3.34,3.34,0,0,1,1.5,1.28h0c.34.57.93.93,1.28,1.49a7.92,7.92,0,0,0,1.07,1.93,8.23,8.23,0,0,1,1.5,4.7,9,9,0,0,1,.21,1.71A3.69,3.69,0,0,1,197.63,174.84Z"/><path class="cls-9" d="M182.45,131.25c0,.24,0,.49-.21.65a1.43,1.43,0,0,1-1,1.09,45,45,0,0,1-10,.68c-1.83-.09-2.37-.63-2.35-2.06,0-1.24.41-1.76,1.65-1.94,1.93-.27,3.85-.64,5.76-1a20.55,20.55,0,0,0,4.68-1.41c1.11-.12,1.13.83,1.47,1.48a.49.49,0,0,0,0,.17A5.22,5.22,0,0,1,182.45,131.25Z"/><path class="cls-9" d="M181.86,134.25c0,.53,0,1.05,0,1.58a2.5,2.5,0,0,1-1.32,2.43c-.13.18-.36.13-.53.22a1.67,1.67,0,0,1-.83.13,48.21,48.21,0,0,1-6.79-.46,3,3,0,0,1-2.82-2.48c-.17-1.26.2-1.75,1.45-1.77,2.1,0,4.19-.07,6.28-.2a39.36,39.36,0,0,1,4.32-.48A.64.64,0,0,1,181.86,134.25Z"/><path class="cls-10" d="M132.86,170.55a8.32,8.32,0,0,1-.27-3.75c.63-3.9,1.27-7.8,1.63-11.75a37.38,37.38,0,0,0-1.37-13.32c-.62-2.25-1.35-4.47-2-6.71-.09-.29-.44-.72.07-.92s.61.27.75.64A60.51,60.51,0,0,1,134.75,146a41.63,41.63,0,0,1,.1,11.85,92.23,92.23,0,0,1-1.48,9.2,26.69,26.69,0,0,1-.47,2.91Z"/><path class="cls-11" d="M85.42,112.5c3.61-1.13,5.21-3.89,6.09-7.31a57.4,57.4,0,0,0,1.71-12c0-.6-.12-.76-.71-.85a8.35,8.35,0,0,1-6.63-10,4.85,4.85,0,0,1,4-4A5,5,0,0,1,95,80.49,13.39,13.39,0,0,1,96.44,83a1.31,1.31,0,0,0,1.73.76,5.86,5.86,0,0,0,2.84-1.8,8.1,8.1,0,0,0,1.9-2.55,3,3,0,0,1,2.17-1.76,31.71,31.71,0,0,0,15.14-10.07,19.85,19.85,0,0,0,2.45-4.11c3,1.9,6,8.12,6.15,12.81-1-.51-2-1-3.19-.56a2.73,2.73,0,0,0-1.47,1c-.17.27-.38.54-.16.89s.51.14.77.09a5.42,5.42,0,0,1,3.73.38c.35.19.56.34.58.76.46,7.44.31,14.79-2.85,21.75-1.34,3-3.06,5.62-6,7.26a10.6,10.6,0,0,1-7.87.75,5.1,5.1,0,0,1-2.66-.59,19.07,19.07,0,0,1-8.26-5.31c-.14-.16-.29-.31-.42-.48a1.63,1.63,0,0,1-.15-.2,24,24,0,0,0,2.32,4.46,11.84,11.84,0,0,0,7.38,5.06c.36.08,1,0,.78.72,0,.5.34.6.71.76a11.93,11.93,0,0,1,2.3,1c.65,4-1.8,7.42-6.12,8.53a17.14,17.14,0,0,1-11.13-1.18A29,29,0,0,1,85.73,113,3.16,3.16,0,0,1,85.42,112.5Z"/><path class="cls-12" d="M92.5,212.18c-.43.14-1-.26-1.32.27a6.69,6.69,0,0,1-1.39-2.73c-1.09-3-2-6.05-3.15-9-1.35-3.58-2.39-7.26-3.66-10.86-.84-2.37-1.59-4.78-2.48-7.13A28.82,28.82,0,0,0,79,179.09a6.77,6.77,0,0,0-2.74-2.3,32.29,32.29,0,0,0-4.18-2c-.31-.12-.81-.28-.63-.71s.65-.18,1-.06a26.21,26.21,0,0,1,6.15,3.3c.51.35.62.3.69-.3q.62-5.32,1.28-10.63c.41-3.33.92-6.66,1.23-10a89.8,89.8,0,0,0,.67-13.81,18.54,18.54,0,0,0-5.1-12.19A11.25,11.25,0,0,0,74.18,128c-.33-.15-1-.22-.75-.79s.8-.18,1.12,0a14,14,0,0,1,5.89,5.54,21.85,21.85,0,0,1,2.91,11.5A120.85,120.85,0,0,1,82.29,159c-.49,3.5-.72,7-1.12,10.55-.32,2.84-.69,5.68-1.13,8.51a2.84,2.84,0,0,0,.12,1.54c1.83,4.35,3.31,8.83,4.81,13.29,1.62,4.84,3.3,9.66,5,14.48.38,1.11.8,2.21,1.09,3.34C91.22,211.55,91.54,212.16,92.5,212.18Z"/><path class="cls-11" d="M249.11,145.79a5.16,5.16,0,0,0,.83,1.55A46.1,46.1,0,0,1,253.86,159c.15.84.85,1.28,1.5,1.72,1.72,1.16,1.74,1.18.81,3-1.75,3.37-3.43,6.78-5.36,10.06-1,1.77-1.05,1.76-2.76.67l-.41-.22a14.06,14.06,0,0,0-6.24-3.46c-1.26-.27-1.92-1.32-2.62-2.21a51.7,51.7,0,0,1-4.61-6.92,40.34,40.34,0,0,0-5.71-7.3c-1.29-1.43-2.48-2.93-3.68-4.43-.84-1.05-1.62-2.13-3-2.43a5.14,5.14,0,0,1-1.46-3.64c.09-1.22.51-1.67,1.75-1.83.57,0,.87.45,1.21.77,1.58,1.53,3.27,2.94,4.8,4.53s3.56,3.15,5.31,4.76a22.28,22.28,0,0,1,2.31,2.35,3.84,3.84,0,0,0,1.21,1.13,30.81,30.81,0,0,0-4.88-5.13c-2.3-2-4.37-4.16-6.66-6.12a27.65,27.65,0,0,0-3.29-2.53,3,3,0,0,1-.61-2.19c.2-1.32.78-1.8,2.23-1.93a.44.44,0,0,1,.66.12v.07a141.6,141.6,0,0,1,15.53,14,33,33,0,0,0-4.69-5.05c-2.45-2.33-5.06-4.48-7.64-6.66-.67-.55-1.62-.81-1.94-1.75.88-1.61,1.65-1.92,3.28-1.22a1.28,1.28,0,0,0,1.1,0,3.65,3.65,0,0,1,4,.63c2.82,2.32,5.68,4.59,8.53,6.87.33.26.7.48,1,.71.48.08.68.48,1,.8,1.46,1.65,3.09,3.12,4.69,4.64.05-.44-.29-.64-.52-.9-1.27-1.4-2.75-2.57-4.09-3.89a2.25,2.25,0,0,1-.76-1c-.19-.83-.39-1.65-.56-2.48a3.85,3.85,0,0,1,.42-2.68,1.75,1.75,0,0,1,3.16-.14,17.48,17.48,0,0,1,1.62,4.49A5.43,5.43,0,0,0,249.11,145.79Z"/><path class="cls-1" d="M255.33,128.05c-.69-.15-1.33-.41-1.29-1.32a1.17,1.17,0,0,1,1.26-1.25c.68,0,1.53.75,1.46,1.38C256.68,127.65,256.14,128,255.33,128.05Z"/><path class="cls-1" d="M251.89,204.54a1.39,1.39,0,0,1-1.49-1.43c0-.82.4-1.15,1.19-1.14a1.3,1.3,0,0,1,1.39,1.39C253,204.21,252.51,204.47,251.89,204.54Z"/><path class="cls-1" d="M253.22,148.13c-.7,0-1.55-.72-1.5-1.37a1.22,1.22,0,0,1,1.26-1.19,1.51,1.51,0,0,1,1.42,1.33A1.16,1.16,0,0,1,253.22,148.13Z"/><path class="cls-1" d="M251.63,187.25a1.28,1.28,0,0,1-1.24-1.4c0-.79.33-1.2,1.14-1.18A1.54,1.54,0,0,1,253,186.1,1.25,1.25,0,0,1,251.63,187.25Z"/><path class="cls-13" d="M223,159.66c-.83-2.56-2-5-2.61-7.65a6.29,6.29,0,0,1,.07-3.36c.14-.44.33-.87.87-1,.76-.21,1.17.29,1.6.77a14.09,14.09,0,0,1,2.28,4c.91,2.17,2.19,4.15,3.22,6.26a.71.71,0,0,0,.45.41,7.28,7.28,0,0,0-1.06-2.37c-.41-.74-.83-1.49-1.17-2.27-.1-.23-.22-.53,0-.7s.52.08.69.28c1.43,1.72,2.94,3.38,4.28,5.19,2.07,2.8,3.91,5.76,6.07,8.5a28.54,28.54,0,0,0,2.58,2.69c.25.25.58.43.69.8a7.43,7.43,0,0,1-2.68,3.34,33.15,33.15,0,0,1-3.52,2.35,1.9,1.9,0,0,1-1,.81c-2,.89-3.68.31-5.24-1a8.21,8.21,0,0,1-2.64-3.92,20.93,20.93,0,0,1-1.06-6.8c.45-.45.57,0,.74.28.8,1.16,1.72,2.23,2.62,3.32-1.26-1.78-2.52-3.56-3.63-5.44A11.26,11.26,0,0,1,223,159.66Z"/><path class="cls-1" d="M223,159.66c.59,1.5,1.17,3,1.76,4.51a.19.19,0,0,1-.09.27,19.21,19.21,0,0,1-2.39.53,1.87,1.87,0,0,0-1.69,1.51,15.23,15.23,0,0,0-.09,8.72,11.79,11.79,0,0,0,1.58,3.7,7.42,7.42,0,0,0,5.16,3.46,2.48,2.48,0,0,0,1.76-.18,15.59,15.59,0,0,0,4.24-3.69,3.56,3.56,0,0,0,.47-1.07l1-.52c.21,2-1.12,3.17-2.41,4.23a99.82,99.82,0,0,1-8.22,6c-.78.51-.34,1.21-.48,1.82a1.48,1.48,0,0,0,0,.21c-.27,0-.13-.28-.21-.41,0-.55,0-1.1,0-1.65.48-1.18,1.69-1.54,2.58-2.25a5,5,0,0,0,1.16-1c-.09-.24-.3-.21-.45-.25-3.4-.75-5.48-3-6.75-6.07a16.89,16.89,0,0,1-.09-12.58c-1.39-.6-2.78-.22-4.16.06a23.85,23.85,0,0,0-6.28,2.27c-.33.17-.78.67-1.06,0s.34-.65.71-.82c3-1.45,6.15-2.79,9.62-2.64a21.16,21.16,0,0,0,3.47,0c.72-.09.89-.33.87-1a12.94,12.94,0,0,1-.23-2.32C222.87,160.17,222.76,159.87,223,159.66Z"/><path class="cls-14" d="M241,171.21a16,16,0,0,1-4.24-4.28c-2.46-3.29-4.58-6.83-7.25-10a36.74,36.74,0,0,0-2.81-3.07c.76,1.46,1.55,2.91,2.27,4.39.19.38.83.91.17,1.26s-.78-.46-1-.84c-1.36-2.69-2.82-5.33-4.07-8.08a4.67,4.67,0,0,0-2.73-2.94l.38-.26a2.06,2.06,0,0,1,2.18.92c2.41,3.16,5,6.12,7.68,9.08,1.86,2.08,3.05,4.61,4.57,6.91a25.92,25.92,0,0,0,5.23,6.38Z"/><path class="cls-3" d="M161.88,29c2,1.08,2.75,2.34,2.34,4a3.81,3.81,0,0,1-3.95,2.9c-1.78,0-3.56,0-5.33,0-.65,0-.75-.23-.75-.8q0-5.86-.16-11.72c0-.7.1-1,.91-1,1.77.07,3.55,0,5.32.05,2.43.08,3.82,1.59,3.63,3.88A3.27,3.27,0,0,1,161.88,29Z"/><path class="cls-3" d="M168.44,53.06c-.26.35,0,.95-.5,1a9,9,0,0,1-2,0c-.21,0-.14-.37-.14-.57,0-4.27,0-8.54,0-12.81,0-.6.24-.67.75-.68,1.86,0,1.86-.06,1.86,1.79,0,1.1,0,2.21,0,3.31,0,0,0,.05.12.15a3.66,3.66,0,0,1,2.9-1.41,4,4,0,0,1,4.2,3.06,7.77,7.77,0,0,1,.13,3.8A4.26,4.26,0,0,1,168.44,53.06Z"/><path class="cls-3" d="M183,31.63c-1,0-2,0-3,0-.52,0-.61.22-.48.65A2.15,2.15,0,0,0,181.11,34a2.53,2.53,0,0,0,2.62-.78c.18-.21.19-.73.65-.51a5.14,5.14,0,0,1,1.87,1c.18.2-.16.42-.3.61a4.69,4.69,0,0,1-5.11,1.82,4.51,4.51,0,0,1-3.78-3.71c-.45-2.13-.17-4.09,1.56-5.54a4.82,4.82,0,0,1,5.2-.76A4.61,4.61,0,0,1,186.6,31c-.07.48-.2.66-.71.64-1,0-1.92,0-2.88,0Z"/><path class="cls-3" d="M202.15,49.14c0,2.69-1.27,4.47-3.62,5.08a5,5,0,0,1-5.68-2.28c-1.19-2.2-.71-5.52,1-7a5.3,5.3,0,0,1,6.5-.06A4.85,4.85,0,0,1,202.15,49.14Z"/><path class="cls-3" d="M161.21,52.94a4.11,4.11,0,0,1-3.35,1.4,2.79,2.79,0,0,1-2.74-2.24,2.91,2.91,0,0,1,1.79-3.56,9.84,9.84,0,0,1,3.15-.44c.33,0,.94.36,1-.36a1.41,1.41,0,0,0-.66-1.56,2,2,0,0,0-2.48.57,3.28,3.28,0,0,1-2.49.48c-.32-.22-.14-.54-.08-.77A3.39,3.39,0,0,1,158.05,44a6.18,6.18,0,0,1,3.36.06,3.05,3.05,0,0,1,2.24,2.82c.06,2.2,0,4.41,0,6.62,0,.47-.16.64-.62.59a2.29,2.29,0,0,0-.64,0C161.58,54.24,161.05,54,161.21,52.94Z"/><path class="cls-3" d="M183.39,52.62a4.15,4.15,0,0,1-3.58,1.72,3,3,0,0,1-1-5.74,10.76,10.76,0,0,1,3.25-.5c.34,0,.93.36,1-.33a1.46,1.46,0,0,0-.54-1.52,2.05,2.05,0,0,0-2.58.46,3.4,3.4,0,0,1-2.58.54c-.27-.16-.12-.37-.09-.56a3.14,3.14,0,0,1,2-2.42,5.61,5.61,0,0,1,4.26-.12,3,3,0,0,1,2.08,2.93c0,2.14,0,4.27,0,6.41,0,.43-.09.68-.58.62a2.35,2.35,0,0,0-.53,0C183.73,54.2,183,54.18,183.39,52.62Z"/><path class="cls-3" d="M190.7,27.47c1.28-1.55,2.61-2.07,4.21-1.68s2.55,1.5,2.67,3.64c.12,2,0,4,.08,6,0,.41-.14.59-.55.54h-.22c-1.84.06-1.84.06-1.85-1.81,0-1.31,0-2.63,0-4s-.62-2.12-1.8-2.16A2,2,0,0,0,191,30c-.1,1.67-.09,3.34-.06,5,0,.66-.11.93-.86.92-1.7,0-1.7,0-1.71-1.65,0-2.49,0-5-.07-7.47,0-.72.19-1,.88-.87a1.14,1.14,0,0,0,.32,0C190.42,25.85,191.09,26,190.7,27.47Z"/><path class="cls-3" d="M172.76,34.73a4.21,4.21,0,0,1-3.4,1.48,3.09,3.09,0,0,1-3.11-2.53c-.43-2.4-.11-4.83-.21-7.25,0-.34.16-.44.45-.42h.11c2-.15,2-.15,2,1.86,0,1.28,0,2.56,0,3.84,0,1.52.58,2.11,1.81,2.12a2,2,0,0,0,2.18-2.08c.08-1.6.08-3.21,0-4.81,0-.75.14-1.15,1-1a3.43,3.43,0,0,0,1,0c.46,0,.62.13.62.6q0,4.43.09,8.86c0,.43-.15.58-.55.55a3.76,3.76,0,0,0-.75,0C173.17,36.05,172.56,35.89,172.76,34.73Z"/><path class="cls-3" d="M142.08,49c0-.5,0-1,0-1.49,0-.77.16-1.42-1.06-1.38-.83,0-.28-.89-.41-1.37-.08-.3-.14-.83.45-.71,1.18.24,1.17-.53,1.21-1.3.07-1.47.66-1.88,2.12-1.53.27.06.34.17.31.42a4.56,4.56,0,0,0,0,.64c0,1.62,0,1.65,1.58,1.74.48,0,.56.2.58.63.06,1.51.08,1.55-1.37,1.52-.68,0-.86.2-.83.85.05,1.1,0,2.2,0,3.31S145,52,146.17,52c1.43,0,.66,1,.82,1.57.22.76-.28.83-.89.83-2.95,0-4-1-4-3.92,0-.46,0-.93,0-1.39Z"/><path class="cls-3" d="M190.56,50.3a37.76,37.76,0,0,1-.13,5.18,3.41,3.41,0,0,1-4.23,2.62c-.76-.25-.25-1-.37-1.48-.07-.33,0-.56.48-.61,1.38-.14,1.64-.45,1.65-1.91,0-3,0-6,0-9,0-.91.25-1.2,1.13-1.09.72.1,1.67-.37,1.54,1.1S190.56,48.19,190.56,50.3Z"/><path class="cls-3" d="M151.12,45.48a3.26,3.26,0,0,1,2.54-1.66c.44,0,.68.1.64.58a1.34,1.34,0,0,0,0,.53c.31,1,.12,1.55-1.15,1.61-1.08,0-1.71.91-1.9,2a24.39,24.39,0,0,0-.09,4.68c0,.69-.11.92-.85.91-1.77,0-1.77,0-1.78-1.79,0-2.42,0-4.84,0-7.26,0-.84.25-1.1,1-1a.74.74,0,0,0,.21,0C150.82,43.9,151.28,44.32,151.12,45.48Z"/><path class="cls-3" d="M151.45,33.59c0,1.36,0,2.71,0,4.06,0,.53-.15.64-.65.66-2.34.09-2.34.1-2.33-2.19s0-4.27,0-6.41c0-.6.07-.87.79-.87,2,0,2,0,2,2,0,.92,0,1.85,0,2.77Z"/><path class="cls-3" d="M205.2,40.57c1.62,0,1.58,0,1.47,1.62-.13,2-.23,4.05-.26,6.08,0,.69-.19.91-.91.88-1.46,0-1.45,0-1.51-1.46-.09-2-.13-4-.3-6-.09-.93,0-1.44,1.08-1.16A1.55,1.55,0,0,0,205.2,40.57Z"/><path class="cls-3" d="M205.24,54.33a1.58,1.58,0,0,1-1.7-1.83,1.52,1.52,0,0,1,1.78-1.62A1.64,1.64,0,0,1,207,52.66,1.6,1.6,0,0,1,205.24,54.33Z"/><path class="cls-3" d="M148.25,25.72A1.51,1.51,0,0,1,149.83,24a1.64,1.64,0,0,1,1.82,1.76,1.55,1.55,0,0,1-1.73,1.6A1.48,1.48,0,0,1,148.25,25.72Z"/><path class="cls-3" d="M190.82,41.14c0,1.1-.59,1.64-1.76,1.62a1.61,1.61,0,1,1,0-3.22C190.27,39.53,190.82,40,190.82,41.14Z"/><path class="cls-15" d="M111.34,112.2a.48.48,0,0,0-.44-.39c-5-.9-7.88-4.17-9.79-8.55a4,4,0,0,1-.69-2.06c.65.31.89.9,1.26,1.32,2.78,3.11,6.39,4.73,10.29,5.87.13,0,.26.1.38.15C111.56,109.63,111.72,111,111.34,112.2Z"/><path class="cls-16" d="M252.11,68.82c-.66,0-1.52.35-1.72-.72-.13-.72.52-1.41,1.61-1.47a9,9,0,0,1,7,2.45,2.17,2.17,0,0,1,.43.61c.24.49.7,1,.2,1.55s-.95-.12-1.36-.38A11.78,11.78,0,0,0,252.11,68.82Z"/><path class="cls-17" d="M243.71,86a3.38,3.38,0,0,1-3.3-1.52,1.57,1.57,0,0,1-.13-1.51c1.21-3.07,2.7-6,4.11-9,.12-.25.19-.66.54-.47s.11.51,0,.78c-1,2.42-2,4.85-3,7.27-.08.2-.17.39-.26.58-1.19,2.55.17,2.73,2,3a5.23,5.23,0,0,0,1.57-.18c.28-.05.71-.19.82.24s-.27.49-.58.62A4.9,4.9,0,0,1,243.71,86Z"/><path class="cls-18" d="M246.22,91.72a7.44,7.44,0,0,1-3.4-.8c-.34-.17-.67-.42-.5-.81.25-.56.59-.06.87,0a11.23,11.23,0,0,0,8.35-.55c.39-.18.74-.43,1.12-.62s.58-.39.84,0-.09.57-.36.74a10.24,10.24,0,0,1-4.62,1.75A9.08,9.08,0,0,1,246.22,91.72Z"/><path class="cls-19" d="M254.67,76.07c0,1.23-.69,2.38-1.39,2.37s-1.43-1.28-1.38-2.49.77-2.34,1.48-2.31S254.7,74.82,254.67,76.07Z"/><path class="cls-20" d="M238.41,75.73c0-.27,0-.48.07-.69.26-1.17,1-1.91,1.63-1.78s1.16,1.21,1.06,2.23a4.05,4.05,0,0,1-.27,1.13c-.24.59-.54,1.25-1.3,1.18s-.92-.7-1.08-1.29A4.71,4.71,0,0,1,238.41,75.73Z"/><path class="cls-21" d="M272,82.77c.4-2.82,1.49-5,4.72-5.63.24,0,.52-.24.65.08a.58.58,0,0,1-.32.71,2.82,2.82,0,0,1-.7.27,4.74,4.74,0,0,0-3.28,4.07,4.43,4.43,0,0,1-.17.72c-.09.26-.22.59-.58.49S272,83.06,272,82.77Z"/><path class="cls-22" d="M222,141.72c1.33,0,2.06,1.09,2.88,1.84,3.63,3.35,7.39,6.56,10.83,10.11.51.54,1,1.12,1.47,1.68.13.16.36.31.14.54a.43.43,0,0,1-.66,0,9.07,9.07,0,0,1-1-1c-1.77-2.26-4.1-3.93-6.17-5.86l-2.18-2L222,142Z"/><path class="cls-23" d="M225.59,138.28A109.27,109.27,0,0,1,238.91,150c.47.48.9,1,1.34,1.51.13.16.37.33.19.54a.48.48,0,0,1-.68,0,5.67,5.67,0,0,1-.62-.58c-2.6-2.48-4.95-5.21-7.72-7.5l-5.34-4.39a5.92,5.92,0,0,1-1.75-1.81Z"/><path class="cls-1" d="M224.32,137.72l-.66-.12a34.68,34.68,0,0,1,.34-5.67c.09-.63.11-1.27.22-1.89.05-.28.22-.56.59-.45a.48.48,0,0,1,.33.59,52.18,52.18,0,0,0-.63,7.17C224.51,137.47,224.39,137.59,224.32,137.72Z"/><path class="cls-23" d="M243.79,145c1.88,1.66,3.74,3.36,5.49,5.16.26.28.69.57.33,1s-.69-.08-.91-.31a52.61,52.61,0,0,1-5.19-5.47Z"/><path class="cls-24" d="M180.14,138.3a.54.54,0,0,0,0,.18c-.07.51-.45.47-.81.46a59.81,59.81,0,0,1-7.45-.21c-.35,0-.83-.43-1.08.23s-.46,1.13,0,1.69l.14.16c.32.33,1.19.56.48,1.17s-1-.2-1.38-.59a2,2,0,0,1-.31-2.11,1.51,1.51,0,0,0-.34-1.78,2.58,2.58,0,0,1-.61-3.12.58.58,0,0,0-.1-.76,2.67,2.67,0,0,1-.4-2.8c.1-.36.26-.63-.16-1a2.78,2.78,0,0,1-.38-3.67c1-1.73,2.76-2.22,4.58-2.55a.45.45,0,0,1,.59.32c.05.29-.26.29-.45.34a10.42,10.42,0,0,0-2.48.92,3,3,0,0,0-1.33,1.34c-.83,1.79-.22,2.78,1.71,2.57a51.2,51.2,0,0,0,8.76-1.63c.67-.19,1.37-.32,2.06-.48a.37.37,0,0,0,0,.18c-1.49,1.47-3.52,1.49-5.38,1.93a35.38,35.38,0,0,1-5.43.91c-.92.07-1.26.61-1.24,1.5s0,1.56,1.2,1.73a37.91,37.91,0,0,0,8-.17c1-.07,2-.2,3-.3l.24.63a47.77,47.77,0,0,1-10.33.89c-.46,0-1.14-.32-1.35.24a2.17,2.17,0,0,0,.24,2,3.13,3.13,0,0,0,2.34,1.31A74.73,74.73,0,0,0,180.14,138.3Z"/><path class="cls-24" d="M165.75,138.24a.48.48,0,0,1-.29-.76,7.58,7.58,0,0,1,2.14-2.3c.35-.28.64.09.5.45a7.37,7.37,0,0,1-2.15,2.56S165.82,138.22,165.75,138.24Z"/><path class="cls-2" d="M182.24,94.73a4.68,4.68,0,0,0,0-.53,7.32,7.32,0,0,1,2-6.49,7,7,0,0,0,1.82-5.1c0-.58.11-1.08.72-1.29a1.39,1.39,0,0,1,1.56.37c1.13,1.16,1,2.58.82,4a13.37,13.37,0,0,1-.61,1.92c-.27.79,0,1.31.83,1.31a15.79,15.79,0,0,0,3.29-.13c.83-.17,1.82-.26,2.33.58a2,2,0,0,1-.19,2.47c-.28.3-.13.56,0,.87a1.62,1.62,0,0,1-.42,2.18c-.28.21-.33.34-.17.68.44,1-.26,1.48-.7,2.21-.29.49.31,1.5-.41,2.14a2.45,2.45,0,0,1-1.68.55,68.58,68.58,0,0,1-7.45-.21c-1.31-.14-1.78-.66-1.79-2V94.73Z"/><path class="cls-2" d="M180.74,94.86c0,1.25,0,2.5,0,3.74a1.66,1.66,0,0,1-1.83,1.87,1.47,1.47,0,0,1-.21,0c-2.33.06-3.25.24-3-3.21.12-1.88.11-3.76.16-5.64,0-1.42.42-1.81,1.86-1.83,3.66-.05,3,0,3.05,3C180.75,93.51,180.74,94.19,180.74,94.86Z"/><path class="cls-2" d="M189.42,178.12c.69,1.27.13,2.42-1.28,2.46a37.7,37.7,0,0,1-6.8-.21,1.29,1.29,0,0,1-1.25-1.43c0-2.1,0-4.2,0-6.3a2.18,2.18,0,0,1,.69-1.6,8.15,8.15,0,0,0,2.53-5.46c0-.83.73-1.14,1.55-.74s1.47,2,1.16,3.4a10.18,10.18,0,0,1-.45,1.42c-.3.89-.06,1.29.88,1.32s2.1-.28,3.18-.22c1.43.08,2.06,1.08,1.31,2.28a.74.74,0,0,0,0,.83,1.36,1.36,0,0,1-.37,1.73c-.17.12-.41.24-.24.5C191,177.22,190.25,177.69,189.42,178.12Z"/><path class="cls-2" d="M178.82,175.84c0,1,.06,2.06,0,3.09-.1,1.42-.68,1.54-2.44,1.65-1.19.08-1.61-.47-1.61-1.71,0-1.77,0-3.55,0-5.32s.23-1.92,1.89-1.92h1.06a1,1,0,0,1,1.1,1.12C178.81,173.78,178.82,174.81,178.82,175.84Z"/><path class="cls-25" d="M117.5,100.51a6.77,6.77,0,0,1-5.74-4.71c-.16-.75.12-1.18.94-1.13a7.27,7.27,0,0,1,2.43.72,11.47,11.47,0,0,0,5.59,1.08c.52,0,1.14,0,1.42.5s-.1,1.09-.47,1.52A5.45,5.45,0,0,1,117.5,100.51Z"/><path class="cls-26" d="M115.15,75.42a2.52,2.52,0,0,1,2.12.79.86.86,0,0,1,.2,1.07.78.78,0,0,1-1,.26c-2.05-.84-3.7.21-5.38,1.1-.42.22-.79.83-1.28.36s0-1,.25-1.43C110.91,76.33,113,75.44,115.15,75.42Z"/><path class="cls-27" d="M121.08,81.53a8.91,8.91,0,0,1,1.18,2.57c.73,2,1.49,3.91,2.16,5.88a2.07,2.07,0,0,1-.59,2.59,3.81,3.81,0,0,1-3.24.54.5.5,0,0,1-.41-.65c.12-.33.41-.29.72-.23a3.07,3.07,0,0,0,1,.1c1.22-.14,2.06-.79,1.6-2.2-.85-2.66-1.86-5.28-2.5-8A.58.58,0,0,1,121.08,81.53Z"/><path class="cls-28" d="M115.64,83.64a4.09,4.09,0,0,1-.1.88c-.16.57-.34,1.27-1,1.32s-1-.65-1.22-1.25a3.15,3.15,0,0,1,.12-2.18c.22-.47.49-.93,1-.93s.8.48,1,1A3.88,3.88,0,0,1,115.64,83.64Z"/><path class="cls-21" d="M94,86.79c0,.24,0,.55-.28.6a.63.63,0,0,1-.7-.53c-.14-.48-.18-1-.3-1.45a4.76,4.76,0,0,0-3.15-3.47c-.33-.13-.79-.18-.63-.66s.59-.26.92-.17A5.94,5.94,0,0,1,94,86.79Z"/><path class="cls-29" d="M127.55,83.42a2.3,2.3,0,0,1-.19,1.1c-.16.41-.37.77-.87.79s-.7-.3-.89-.64a2.58,2.58,0,0,1-.23-2.23c.18-.45.42-.86.94-.89s.82.38,1,.82A1.74,1.74,0,0,1,127.55,83.42Z"/><path class="cls-30" d="M229.51,137.56a1.11,1.11,0,0,1,1.29.25c3.59,2.95,7.09,6,10.46,9.19.59.56,1.22,1.08,1.81,1.64.25.23.43.56.16.84s-.56,0-.79-.23c-2.94-2.66-5.88-5.34-8.84-8A46.49,46.49,0,0,1,229.51,137.56Z"/><path class="cls-2" d="M233.74,177.42a.84.84,0,0,1-.09,1.06,12.65,12.65,0,0,1-4.72,4c-1.54.73-3.07-.08-4.42-.84a8.31,8.31,0,0,1-3.63-4.43,15.81,15.81,0,0,1-.5-11c.3-.89.68-1.57,1.73-1.52s1.7-.74,2.65-.38a1.19,1.19,0,0,1,.29,1.55,26,26,0,0,0,1.17,7,7.83,7.83,0,0,0,3,4A4.32,4.32,0,0,0,233.74,177.42Z"/><path class="cls-23" d="M225.05,165.89a5.89,5.89,0,0,0-.29-1.55.47.47,0,0,1,0-.17c1,1.35,1.77,2.89,2.9,4.16l.77.89c.2.23.55.48.22.8s-.68.07-.91-.22c-.4-.5-.78-1-1.13-1.55A9.69,9.69,0,0,1,225.05,165.89Z"/><path class="cls-4" d="M158.58,30.29c.53,0,1.07,0,1.59.12a1.38,1.38,0,0,1,1.34,1.27,1.45,1.45,0,0,1-1.08,1.72,5.08,5.08,0,0,1-3.24.07c-.93-.37-.23-1.68-.41-2.56-.1-.49.2-.61.62-.59s.78,0,1.18,0Z"/><path class="cls-4" d="M158.4,28.1c-1.68,0-1.68,0-1.72-1.74,0-.35,0-.71,0-1.06s.12-.46.44-.44a16.2,16.2,0,0,1,3,.14,1.41,1.41,0,0,1,1.25,1.57c0,.91-.63,1.3-1.42,1.44A14.52,14.52,0,0,1,158.4,28.1Z"/><path class="cls-4" d="M168.36,49c0-2.25,1.53-3.46,3.42-2.71,1.17.47,1.78,2,1.46,3.65a2.4,2.4,0,0,1-2.58,2C169.19,51.94,168.35,50.86,168.36,49Z"/><path class="cls-4" d="M179.54,29.94c.35-1.42,1-2,2.11-2.11a2,2,0,0,1,2.15,1.23c.26.57.28.92-.54.89C182,29.9,180.8,29.94,179.54,29.94Z"/><path class="cls-4" d="M199.59,49.15a3,3,0,0,1-.61,2,2.24,2.24,0,0,1-2.29.82A2.11,2.11,0,0,1,195,50.39a4.33,4.33,0,0,1-.05-2.42,2.32,2.32,0,0,1,2.75-1.76C198.83,46.39,199.58,47.49,199.59,49.15Z"/><path class="cls-4" d="M158.81,52.41a1,1,0,0,1-1.12-.8,1.23,1.23,0,0,1,.66-1.53,7.13,7.13,0,0,1,2.29-.41c.4-.05.45.15.46.49A2.29,2.29,0,0,1,158.81,52.41Z"/><path class="cls-4" d="M182.8,49.64c.32-.06.48.12.39.67a2.46,2.46,0,0,1-2.3,2.09,1.08,1.08,0,0,1-1.19-.83,1.23,1.23,0,0,1,.62-1.45A7.19,7.19,0,0,1,182.8,49.64Z"/></svg>