<svg id="Capa_1" data-name="Capa 1" xmlns="http://www.w3.org/2000/svg" viewBox="0 0 282.25 210.74"><defs><style>.cls-1{fill:#c8895e;stroke:#c8895e;stroke-miterlimit:10;stroke-width:0.5px;}.cls-2{fill:#fff;}.cls-3{fill:#c7804d;}.cls-4{fill:#6c2911;}.cls-5{fill:#dad49d;}.cls-6{fill:#ffb980;}.cls-7{fill:#ffa25c;}.cls-8{fill:#272754;}.cls-9{fill:#9e986f;}</style></defs><path class="cls-1" d="M12.43,154a17.14,17.14,0,0,1,6.06,0c1.78.27,3.55.63,5.35.75a15.7,15.7,0,0,0,13.47-5.91,27.44,27.44,0,0,1,7.89.11,15.81,15.81,0,0,0-9.4,7.26,16,16,0,0,0-2.18,7.56.18.18,0,0,0,.22.18,14.07,14.07,0,0,0,3.82-1.9,20.48,20.48,0,0,0,5.24-5.58,52.78,52.78,0,0,0,3.79-7.22s0,0,0,0a28.35,28.35,0,0,1,9.88,4.21l.91.81a52.57,52.57,0,0,0,4.77,3.63,22.89,22.89,0,0,0-22,6.17.18.18,0,0,0,.12.31l6.05-.12c1.79,0,3.57,0,5.36-.13a21.73,21.73,0,0,0,5.13-.77,9.46,9.46,0,0,0,6.11-4.87l.13,0a52.85,52.85,0,0,0,10.87,5.37c.43.15.63-.53.2-.68a51.94,51.94,0,0,1-9.63-4.61c-.31-.19-.62-.38-.92-.58.24-1.9.47-3.81.56-5.73a28,28,0,0,0-.21-5.41,24.23,24.23,0,0,0-1.46-5.2c-1.32-3.36-3.07-6.62-3.54-10.24,0-.19-.29-.16-.35,0a28.16,28.16,0,0,0-1.35,6.15,29.27,29.27,0,0,0,1,11.17,28.64,28.64,0,0,0,4,8.37A52,52,0,0,1,57.11,153a.17.17,0,0,0-.06-.06l0,0a51.31,51.31,0,0,1-6.64-7.26c-.72-1-1.41-2-2.06-3A26.6,26.6,0,0,0,50.5,138a28.29,28.29,0,0,0,1.59-10.07A27.26,27.26,0,0,0,50,118a.17.17,0,0,0-.3,0,37.37,37.37,0,0,0-1.9,5.35,38.06,38.06,0,0,0-.56,17.59,52.51,52.51,0,0,1-2.95-5.79c-.39-1.66-.68-3.34-1-5-.61-3.69-1.21-7.46-2.86-10.85a13.57,13.57,0,0,0-6.38-6.61.18.18,0,0,0-.26.2c.38,2,.77,3.91,1.22,5.86a44.48,44.48,0,0,0,3.22,9.54,24,24,0,0,0,5.49,7.45c.38.87.78,1.73,1.21,2.58.54,1.06,1.12,2.11,1.73,3.14a27.25,27.25,0,0,0-20.44-5.51c-.16,0-.15.25,0,.33l5.13,3.84a26.34,26.34,0,0,0,4,2.69,15.89,15.89,0,0,0,4.09,1.37,15.71,15.71,0,0,0,8.48-.74,52.57,52.57,0,0,0,6.34,7.86,25.71,25.71,0,0,0-2.37-1.13,27.76,27.76,0,0,0-5.58-1.68,28.64,28.64,0,0,0-9.19-.25,21.16,21.16,0,0,0-16-.66,21.39,21.39,0,0,0-8.84,6.15A.18.18,0,0,0,12.43,154Z"/><path class="cls-1" d="M272.74,174.4a17.14,17.14,0,0,0-6.06,0c-1.78.27-3.55.63-5.35.75a15.7,15.7,0,0,1-13.47-5.91,27.44,27.44,0,0,0-7.89.1,15.94,15.94,0,0,1,9.4,7.26,16.06,16.06,0,0,1,2.18,7.57.18.18,0,0,1-.22.18,14.07,14.07,0,0,1-3.82-1.9,20.48,20.48,0,0,1-5.24-5.58,52.78,52.78,0,0,1-3.79-7.22s0,0,0,0a28.17,28.17,0,0,0-9.88,4.21l-.91.81a52.57,52.57,0,0,1-4.77,3.63,22.89,22.89,0,0,1,22,6.17.18.18,0,0,1-.12.31c-2,0-4-.09-6-.12-1.79,0-3.57,0-5.36-.14a21.21,21.21,0,0,1-5.13-.76,9.46,9.46,0,0,1-6.11-4.87l-.13,0a52.85,52.85,0,0,1-10.87,5.37c-.43.15-.63-.53-.2-.69a51.27,51.27,0,0,0,9.63-4.6c.31-.19.62-.38.92-.58-.24-1.9-.47-3.81-.56-5.73a28,28,0,0,1,.21-5.41,24.07,24.07,0,0,1,1.46-5.2c1.32-3.36,3.07-6.62,3.54-10.24,0-.19.29-.16.35,0a28.16,28.16,0,0,1,1.35,6.15,29.27,29.27,0,0,1-1,11.17,28.64,28.64,0,0,1-4,8.37,50.74,50.74,0,0,0,5.23-4.13l.07-.06,0,0a51.92,51.92,0,0,0,6.64-7.26c.72-1,1.41-1.95,2.06-3a26.6,26.6,0,0,1-2.19-4.68,28.31,28.31,0,0,1-1.59-10.08,27.25,27.25,0,0,1,2.11-10,.17.17,0,0,1,.3,0,37.37,37.37,0,0,1,1.9,5.35,38.06,38.06,0,0,1,.56,17.59,52.51,52.51,0,0,0,3-5.79c.39-1.66.68-3.34.95-5,.61-3.69,1.21-7.46,2.86-10.85a13.57,13.57,0,0,1,6.38-6.61.18.18,0,0,1,.26.2c-.38,2-.77,3.91-1.22,5.86a44.67,44.67,0,0,1-3.22,9.54,24,24,0,0,1-5.49,7.45c-.38.87-.78,1.73-1.21,2.58-.54,1.06-1.12,2.11-1.73,3.14a25.48,25.48,0,0,1,2.59-1.8,27.31,27.31,0,0,1,8.62-3.39,27,27,0,0,1,9.23-.32c.16,0,.15.25,0,.33l-5.13,3.84a26.34,26.34,0,0,1-4,2.69,15.89,15.89,0,0,1-4.09,1.37,15.71,15.71,0,0,1-8.48-.74,52.57,52.57,0,0,1-6.34,7.86,25.8,25.8,0,0,1,2.37-1.14A28.58,28.58,0,0,1,248,168.61a21.16,21.16,0,0,1,16-.66,21.3,21.3,0,0,1,8.84,6.15A.18.18,0,0,1,272.74,174.4Z"/><path class="cls-1" d="M136.63,191.48a17.14,17.14,0,0,1,6.06,0c1.78.27,3.55.62,5.35.75a15.7,15.7,0,0,0,13.47-5.91,27.44,27.44,0,0,1,7.89.1,15.94,15.94,0,0,0-9.4,7.26,16.18,16.18,0,0,0-2.18,7.57.18.18,0,0,0,.22.18,14.07,14.07,0,0,0,3.82-1.9A20.48,20.48,0,0,0,167.1,194a51.69,51.69,0,0,0,3.79-7.22,0,0,0,0,0,0,0,28.2,28.2,0,0,1,9.87,4.21l.91.8a50.9,50.9,0,0,0,4.77,3.64,23.2,23.2,0,0,0-4.13-.65,23,23,0,0,0-9.67,1.47,23.28,23.28,0,0,0-8.16,5.35.18.18,0,0,0,.12.31c2-.05,4-.09,6.06-.12,1.78,0,3.57-.05,5.35-.14a21.14,21.14,0,0,0,5.13-.76,9.49,9.49,0,0,0,6.11-4.87l.13,0a52.85,52.85,0,0,0,10.87,5.37c.43.15.63-.53.2-.69a51.27,51.27,0,0,1-9.63-4.6c-.31-.19-.62-.38-.92-.58.24-1.91.47-3.81.56-5.73a28,28,0,0,0-.21-5.41,24.07,24.07,0,0,0-1.46-5.2c-1.32-3.36-3.07-6.62-3.54-10.24,0-.19-.29-.16-.34,0a27.49,27.49,0,0,0-1.36,6.15,29.27,29.27,0,0,0,1,11.17,28.24,28.24,0,0,0,4,8.36,48.44,48.44,0,0,1-5.24-4.12l-.07-.06,0,0a52.48,52.48,0,0,1-6.64-7.26c-.72-1-1.4-1.95-2.06-3a25.91,25.91,0,0,0,2.19-4.68,28.31,28.31,0,0,0,1.59-10.08,27.44,27.44,0,0,0-2.1-9.95.18.18,0,0,0-.31,0,37.37,37.37,0,0,0-1.9,5.35,38.43,38.43,0,0,0-.56,17.59,52.51,52.51,0,0,1-2.95-5.79c-.39-1.66-.68-3.34-.95-5-.61-3.69-1.21-7.46-2.86-10.86a13.6,13.6,0,0,0-6.38-6.6.18.18,0,0,0-.26.2c.38,1.95.77,3.91,1.22,5.86a44.67,44.67,0,0,0,3.22,9.54,24.29,24.29,0,0,0,5.49,7.45c.38.87.78,1.73,1.21,2.58.54,1.06,1.12,2.11,1.73,3.13a25.38,25.38,0,0,0-2.59-1.79,27.35,27.35,0,0,0-8.61-3.39,27,27,0,0,0-9.23-.32c-.17,0-.16.25-.05.33l5.13,3.84a27.09,27.09,0,0,0,4,2.69,15.89,15.89,0,0,0,4.09,1.37,15.71,15.71,0,0,0,8.48-.74,52,52,0,0,0,6.34,7.85c-.77-.41-1.56-.79-2.37-1.13a28.58,28.58,0,0,0-14.77-1.92,21.16,21.16,0,0,0-16-.66,21.36,21.36,0,0,0-8.84,6.15A.18.18,0,0,0,136.63,191.48Z"/><path class="cls-2" d="M195.45,66.42l-18.2-8.08a29.59,29.59,0,0,1-14.12,3.51c-14.68,0-26.58-10.3-26.58-23s11.9-23,26.58-23,26.57,10.3,26.57,23a21.13,21.13,0,0,1-6,14.58Z"/><path class="cls-1" d="M99.9,58.5l18.2-8.09a29.49,29.49,0,0,0,14.12,3.52c14.68,0,26.58-10.31,26.58-23s-11.9-23-26.58-23-26.57,10.3-26.57,23a21.11,21.11,0,0,0,6,14.58Z"/><path class="cls-3" d="M110.15,173.9l-24.73,6.67-9,24.28H40.13l8.32-48.55s12.71,14.21,61.21,6.8Z"/><polygon class="cls-4" points="111.54 204.85 76.41 204.85 85.42 180.57 110.15 173.9 111.54 204.85"/><path class="cls-5" d="M108.36,134.07l1.3,29c-48.5,7.41-61.21-6.8-61.21-6.8L50.22,146l3.54-20.65S40.35,88.11,44,77a1,1,0,0,1,0-.14.56.56,0,0,0,0-.12C48,66,65,60,65,60s7.22,13.06,15.84,12.66c6.2-.28,5.49-5.4,5.49-5.4l-.2-3.86S99.3,64.5,105.08,73.62s16.65,60.45,16.65,60.45Z"/><path class="cls-4" d="M102.07,103.21a.35.35,0,0,1-.35-.28L98.46,88.31a.36.36,0,0,1,.27-.43.38.38,0,0,1,.44.27l3.25,14.62a.37.37,0,0,1-.27.44Z"/><path class="cls-1" d="M145.86,137.74a4.64,4.64,0,0,1-2,.59,4.56,4.56,0,0,1-1.51,6.53,4.61,4.61,0,0,1-3.47.43l-9.53-2.64L127.29,155a12.31,12.31,0,0,1-.78,2.79,7,7,0,0,1-4.45,4.33A3.33,3.33,0,0,1,118,158l.9-3.27A12.12,12.12,0,0,0,118,146l-.59-1.18a12.13,12.13,0,0,0-4.75-5.06L108.8,137l-2.45-1.75L98,129.27l6.08-22,5.32.32,12.14.75a67.6,67.6,0,0,1,13.85,2.31l9.3,2.57a4.69,4.69,0,0,1,3.49,4.86,4.55,4.55,0,0,1-2.29,3.54l0,0a4.56,4.56,0,0,1,.63,8.22l-.34.18a4.55,4.55,0,0,1-.31,7.72Z"/><polygon class="cls-4" points="102.9 137.33 88.53 133.36 97.32 101.54 108.36 104.59 102.9 137.33"/><path class="cls-6" d="M100,23.29V45.42A14.41,14.41,0,0,1,86,59.78l.18,3.65.2,3.86s.71,5.12-5.49,5.4C72.23,73.09,65,60,65,60L70.28,45a5.09,5.09,0,0,1-3.51-2.06A8.25,8.25,0,0,1,65.3,39a7.59,7.59,0,0,1,.31-3.7,4.4,4.4,0,0,1,.21-.5,4,4,0,0,1,3.37-2.32A2.94,2.94,0,0,1,72,34.41Q74,29,76,23.54c5.71,1,11.5,1.9,17.25,1.3A27,27,0,0,0,100,23.29Z"/><polygon class="cls-7" points="92.97 35.7 89.19 47.28 94.69 47.21 92.97 35.7"/><path class="cls-4" d="M110.05,14.39a7.18,7.18,0,0,1-1.38,2.69A19.35,19.35,0,0,1,100,23.29a27,27,0,0,1-6.72,1.55c-5.75.6-11.54-.33-17.25-1.3Q74,29,72,34.41a2.94,2.94,0,0,0-2.78-1.89,4,4,0,0,0-3.37,2.32,4.4,4.4,0,0,0-.21.5L64,28.83a21.53,21.53,0,0,1-.83-5,7.25,7.25,0,0,1,1.44-4.72,5.59,5.59,0,0,1,5.32-1.88c-.41-2,1-4.09,2.91-5A14.59,14.59,0,0,1,79,11.14l11.71-.35,14.44-.45c1.55,0,3.31,0,4.31,1.17A3.35,3.35,0,0,1,110.05,14.39Z"/><path class="cls-8" d="M86,59.78l.18,3.65h0C78.67,63.46,74.87,55,74.87,55a14.68,14.68,0,0,0,4.76,3.52,14.26,14.26,0,0,0,6,1.3H86"/><path class="cls-8" d="M89.2,47.65a.37.37,0,0,1-.37-.36.37.37,0,0,1,.36-.37l5.08-.07-1.66-11.1a.36.36,0,1,1,.72-.1l1.72,11.5a.38.38,0,0,1-.09.29.34.34,0,0,1-.27.13l-5.49.08Z"/><path class="cls-8" d="M69.19,42.28a1.84,1.84,0,0,1-1.4-.71,3,3,0,0,1-.57-1.78,1.47,1.47,0,0,1,.5-1.35,1.19,1.19,0,0,1,1.53.24,2,2,0,0,1,.48,1.3.36.36,0,0,1-.34.39A.35.35,0,0,1,69,40a1.39,1.39,0,0,0-.29-.86.49.49,0,0,0-.58-.14c-.18.13-.21.47-.2.73a2.36,2.36,0,0,0,.42,1.36,1,1,0,0,0,1.07.39,1.44,1.44,0,0,0,.76-1,5.14,5.14,0,0,0,0-3.44c-.14-.37-.54-1.26-1.31-1.44a1.5,1.5,0,0,0-1.36.44,2.43,2.43,0,0,0-.61,1.47.36.36,0,0,1-.72-.06A3.07,3.07,0,0,1,67,35.6,2.22,2.22,0,0,1,69,35a2.78,2.78,0,0,1,1.82,1.9,5.86,5.86,0,0,1,0,3.94,2.16,2.16,0,0,1-1.19,1.41A1.62,1.62,0,0,1,69.19,42.28Z"/><ellipse class="cls-8" cx="84.75" cy="35.42" rx="2.45" ry="2.06" transform="translate(33.88 111.91) rotate(-79.06)"/><ellipse class="cls-8" cx="96.27" cy="36.15" rx="2.45" ry="2.06" transform="translate(42.5 123.81) rotate(-79.06)"/><path class="cls-8" d="M86.37,30a12.43,12.43,0,0,0-3.28.18c-1.52.3-1.18,2.7.35,2.39a9.69,9.69,0,0,1,2.63-.17C87.62,32.47,87.92,30.08,86.37,30Z"/><path class="cls-8" d="M96,30.51a11.79,11.79,0,0,1,3.23.58c1.47.49.84,2.82-.64,2.33a9.58,9.58,0,0,0-2.59-.5C94.42,32.85,94.42,30.43,96,30.51Z"/><ellipse class="cls-2" cx="83.83" cy="48.48" rx="3.1" ry="2.2" transform="translate(-7.04 81.95) rotate(-50.26)"/><circle class="cls-7" cx="77.9" cy="43.85" r="3.96"/><path class="cls-5" d="M98.81,136.68l-2,16.06S61.59,154.51,51,146.67C41.94,140,40.43,96.47,43.46,79a11.66,11.66,0,0,1,17.41-8.1L61,71a18.31,18.31,0,0,1,8.56,16.41l-1.7,41.48Z"/><path class="cls-6" d="M98.67,137.87,97,151.72s15.61,1,21.35-.61,8.23-4.93,7.71-5.87c0,0,3.85-3.27,3-5.1,0,0,.69-1.6-.52-2.27,0,0,2.33-2.54.52-3S115,138.45,111.51,138c0,0,8.74-6.66,8-8.22s-11.17,4.27-11.17,4.27Z"/><path class="cls-4" d="M88.2,153.29c-11.18,0-30-.86-37.4-6.33a11.34,11.34,0,0,1-3.17-4.25.37.37,0,0,1,.17-.49.38.38,0,0,1,.49.17,10.67,10.67,0,0,0,2.94,4c9.83,7.28,41.82,6.16,45.3,6L98.41,137,67.77,129.2a.36.36,0,0,1-.27-.37l1.7-41.47a.37.37,0,0,1,.38-.35.37.37,0,0,1,.35.38l-1.7,41.18,30.67,7.76a.37.37,0,0,1,.27.4l-2,16.06a.36.36,0,0,1-.34.32C96.44,153.13,93,153.29,88.2,153.29Z"/><path class="cls-4" d="M116.43,142.82a.35.35,0,0,1-.35-.26.35.35,0,0,1,.25-.45,70.4,70.4,0,0,0,12.07-4.67.37.37,0,0,1,.49.17.36.36,0,0,1-.17.48,71.81,71.81,0,0,1-12.19,4.72Z"/><path class="cls-4" d="M116.6,146.16a.36.36,0,0,1-.08-.72A31.36,31.36,0,0,0,128.78,140a.35.35,0,0,1,.5.07.37.37,0,0,1-.07.51,31.93,31.93,0,0,1-12.54,5.6Z"/><path class="cls-4" d="M116.2,149a.36.36,0,0,1-.06-.72,35.48,35.48,0,0,0,9.71-3.19.36.36,0,0,1,.32.65,35.36,35.36,0,0,1-9.91,3.25Z"/><path class="cls-3" d="M234.81,151.37a84.89,84.89,0,0,1,5.44,10c-28.14,7.1-45.86,2.5-51.76.4,2-15.48,4.07-28,4.07-28l-16.79-1.23s11.21-39.79,14.73-44c3.14-3.72,17.24-7.57,19.4-7.94l-.24,2.93s-1.39,9.91,5.78,9.84,14.65-13.85,14.65-13.85a97.09,97.09,0,0,1,13.21,7Z"/><path class="cls-5" d="M250.55,204.85H216.69l-6.79-23.14-22.78-9c.44-3.73.9-7.42,1.37-11,5.9,2.1,23.62,6.7,51.75-.4C250,182.59,250.55,204.85,250.55,204.85Z"/><path class="cls-9" d="M216.69,204.85H184.53c.15-8.81,1.25-20.63,2.59-32.1l22.78,9Z"/><path class="cls-4" d="M195,110.06a.28.28,0,0,1-.13,0,.36.36,0,0,1-.21-.47l5.07-13a.36.36,0,1,1,.67.26l-5.06,13A.37.37,0,0,1,195,110.06Z"/><path class="cls-2" d="M194.37,116.72l-3.12,25.56-6,.53L171.6,144a76.24,76.24,0,0,1-15.84-.27L145,142.4a5.27,5.27,0,0,1-4.7-4.84,5.11,5.11,0,0,1,2-4.33l0,0a5.14,5.14,0,0,1-2.06-9.06,3.12,3.12,0,0,1,.35-.25,5.12,5.12,0,0,1-.94-8.67,5,5,0,0,1,2.12-1,5.14,5.14,0,0,1,4.39-8.6L157.19,107l.27-14.06a13.72,13.72,0,0,1,.41-3.25,7.93,7.93,0,0,1,4.23-5.57A3.64,3.64,0,0,1,165,84a3.82,3.82,0,0,1,2.4,4l-.47,3.79a13.81,13.81,0,0,0,2.39,9.58l.86,1.21a13.65,13.65,0,0,0,6.15,4.85l4.77,2.45,3,1.55Z"/><path class="cls-4" d="M165,144.64a77.24,77.24,0,0,1-9.26-.56l-10.8-1.32a5.6,5.6,0,0,1-5-5.18,5.49,5.49,0,0,1,1.62-4.21,5.57,5.57,0,0,1-3.61-5.86,5.45,5.45,0,0,1,2-3.58,5.48,5.48,0,0,1-.49-9,5.41,5.41,0,0,1,1.69-.9,5.5,5.5,0,0,1,1-7.62,5.59,5.59,0,0,1,4.07-1.13l10.67,1.31.25-13.66a14.39,14.39,0,0,1,.43-3.33A8.33,8.33,0,0,1,162,83.79a4,4,0,0,1,3.15-.09,4.16,4.16,0,0,1,2.63,4.37l-.47,3.8a13.43,13.43,0,0,0,2.33,9.32l.86,1.21a13.27,13.27,0,0,0,6,4.73l18.11,9.26a.37.37,0,0,1,.19.37l-3.12,25.56a.36.36,0,0,1-.33.32l-19.65,1.72Q168.32,144.65,165,144.64ZM145.49,106a4.75,4.75,0,0,0-2.94,1,4.76,4.76,0,0,0-.56,7,.36.36,0,0,1,.08.36.35.35,0,0,1-.27.24,4.77,4.77,0,0,0-1.09,9,.37.37,0,0,1,.2.31.33.33,0,0,1-.17.32l-.31.23a4.75,4.75,0,0,0-1.8,3.18,4.82,4.82,0,0,0,3.71,5.25.36.36,0,0,1,.27.25.35.35,0,0,1-.1.36.48.48,0,0,1-.11.09,4.8,4.8,0,0,0-1.78,4A4.94,4.94,0,0,0,145,142l10.79,1.32a75.43,75.43,0,0,0,15.76.27l19.36-1.69,3.06-25-17.85-9.13a14,14,0,0,1-6.28-5l-.85-1.21a14.14,14.14,0,0,1-2.46-9.83L167,88a3.46,3.46,0,0,0-2.17-3.61,3.29,3.29,0,0,0-2.59.08,7.64,7.64,0,0,0-4,5.34,12.89,12.89,0,0,0-.4,3.15L157.56,107a.38.38,0,0,1-.41.36L146.08,106A3.9,3.9,0,0,0,145.49,106Z"/><polygon class="cls-4" points="187.59 108.53 204.28 110.56 199.77 147.52 186.94 145.96 187.59 108.53"/><line class="cls-2" x1="157.19" y1="107" x2="163.05" y2="107.7"/><path class="cls-4" d="M163.05,108.07h0l-5.86-.7a.38.38,0,0,1-.32-.41.37.37,0,0,1,.41-.31l5.86.7a.37.37,0,0,1,0,.73Z"/><path class="cls-4" d="M147.51,115.27h0l-5.78-.67a.37.37,0,0,1-.32-.41.35.35,0,0,1,.4-.31l5.78.67a.36.36,0,0,1,.32.4A.37.37,0,0,1,147.51,115.27Z"/><path class="cls-4" d="M146.46,124.75h0l-5.91-.5a.36.36,0,0,1-.33-.39.35.35,0,0,1,.39-.33l5.91.49a.37.37,0,0,1,0,.73Z"/><path class="cls-4" d="M146.53,133.8h0l-4.3-.21a.37.37,0,0,1-.35-.38.37.37,0,0,1,.38-.34l4.3.2a.37.37,0,0,1,0,.73Z"/><path class="cls-3" d="M189.08,138.71l.71,13.52s38.64,2.32,45-.86,23.94-55.44,8.49-64.83C227.18,76.74,222.19,136,222.19,136Z"/><path class="cls-6" d="M189.25,142l-8.09-3.16s-7.42-4.7-10-3.68S177,141.8,177,141.8s-13.12.13-16.89-.65,0,3.43,0,3.43-2.37.81-1.27,2.4,2.19,1.48,2.19,1.48-2.28.35-2.19,1.44,3.41,2,6.58,2.48c0,0-3,.17-2.91,1.17s5.55,3.62,27.29-1.74Z"/><path class="cls-4" d="M170.65,146.19a47.61,47.61,0,0,1-10.31-1.13.36.36,0,0,1-.28-.43.37.37,0,0,1,.44-.28,46.19,46.19,0,0,0,11.49,1.1.36.36,0,0,1,.37.35.37.37,0,0,1-.35.38Z"/><path class="cls-4" d="M169.23,149.63a48.94,48.94,0,0,1-8.3-.7.37.37,0,0,1-.3-.42.36.36,0,0,1,.42-.3,47.43,47.43,0,0,0,10.31.65.37.37,0,0,1,.38.35.37.37,0,0,1-.35.38C170.67,149.62,170,149.63,169.23,149.63Z"/><path class="cls-4" d="M169.2,153.1a36,36,0,0,1-4.16-.24.35.35,0,0,1-.32-.4.36.36,0,0,1,.4-.32,36.55,36.55,0,0,0,7.17.1.35.35,0,0,1,.39.33.36.36,0,0,1-.33.39C171.31,153.05,170.25,153.1,169.2,153.1Z"/><path class="cls-4" d="M215.73,153.42c-12,0-25-.77-26-.83a.36.36,0,0,1-.34-.34l-.71-13.52a.36.36,0,0,1,.33-.38l32.82-2.68,4.61-29.95a.36.36,0,0,1,.71.11l-4.64,30.23a.36.36,0,0,1-.33.31L189.46,139l.67,12.85c3.75.21,38.6,2.1,44.51-.84a6.87,6.87,0,0,0,2.18-2.38.36.36,0,0,1,.61.4A7.88,7.88,0,0,1,235,151.7C232.3,153,224.29,153.42,215.73,153.42Z"/><path class="cls-6" d="M230.09,79.53s-7.49,13.79-14.65,13.85-5.78-9.84-5.78-9.84l.24-2.93.36-4.48a13.21,13.21,0,0,1-11.78-11.92l-1.34-15,0-.3a7.8,7.8,0,0,0,1,.42,14.48,14.48,0,0,0,8.37-.18,29.43,29.43,0,0,0,12.8-7.35q1.6,5.79,3.2,11.58a3.3,3.3,0,0,1,2.61-1.47,4.23,4.23,0,0,1,3.62,2.21,5.19,5.19,0,0,1,.47,1.08,7.19,7.19,0,0,1,.16,3.23,9.18,9.18,0,0,1-4.09,6.14c.67,2.11,1.33,4.22,2,6.32C228.26,73.74,229.18,76.63,230.09,79.53Z"/><path class="cls-4" d="M229.28,55.15a5.19,5.19,0,0,0-.47-1.08,4.23,4.23,0,0,0-3.62-2.21,3.3,3.3,0,0,0-2.61,1.47q-1.61-5.79-3.2-11.58a29.43,29.43,0,0,1-12.8,7.35,14.48,14.48,0,0,1-8.37.18,7.8,7.8,0,0,1-1-.42,9.88,9.88,0,0,1-5.46-9.3,4.32,4.32,0,0,1,2-3.75,7,7,0,0,1,3-.32c6.74,0,12.61-5.43,19.35-5.3A13,13,0,0,1,223.67,33a16.11,16.11,0,0,1,5,6.31C230.84,44.2,230.67,49.92,229.28,55.15Z"/><path class="cls-4" d="M241.74,58.41a9.51,9.51,0,1,1-14.39,12.43c-.67-2.1-1.33-4.21-2-6.32a9.18,9.18,0,0,0,4.09-6.14,7.19,7.19,0,0,0-.16-3.23c1.39-5.23,1.56-10.95-.63-15.89a16.11,16.11,0,0,0-5-6.31,7.13,7.13,0,0,1,12.43-.48c1.62,2.64,1.37,6,2.41,8.91A26.27,26.27,0,0,0,241.82,47a13.16,13.16,0,0,1,2.59,5.92C244.64,55.08,243.71,57.49,241.74,58.41Z"/><path class="cls-8" d="M210.26,76.13a11.61,11.61,0,0,0,1.33.07c.38,0,.77,0,1.16,0a13.16,13.16,0,0,0,9.44-5.35s-3,8.47-12.23,9l.3-3.68"/><path class="cls-8" d="M212.3,51.06a12.31,12.31,0,0,1,3.37.36c1.55.39,1.08,2.84-.48,2.44a9.87,9.87,0,0,0-2.7-.31C210.89,53.59,210.7,51.11,212.3,51.06Z"/><path class="cls-8" d="M201.67,51.17a12.7,12.7,0,0,0-3.36.44c-1.54.43-1,2.86.54,2.43a10.22,10.22,0,0,1,2.69-.38C203.14,53.67,203.27,51.18,201.67,51.17Z"/><circle class="cls-7" cx="218.33" cy="63.14" r="3.72"/><path class="cls-2" d="M208,69.52a4,4,0,0,0,7.13-3.35c-.83-1.77-2.17,0-4.14.88S207.15,67.75,208,69.52Z"/><polygon class="cls-7" points="208.73 65.64 204.29 65.53 206.18 54.08 208.73 65.64"/><path class="cls-8" d="M208.07,66h0l-3.78-.11a.42.42,0,0,1-.27-.14.37.37,0,0,1-.08-.29l1.82-10.81a.37.37,0,0,1,.72.12l-1.75,10.4,3.36.1a.38.38,0,0,1,.36.38A.37.37,0,0,1,208.07,66Z"/><path class="cls-8" d="M225.72,61.3a1.38,1.38,0,0,1-.5-.08A2.21,2.21,0,0,1,224,59.77a6,6,0,0,1,0-4.05,2.87,2.87,0,0,1,1.88-1.95,2.26,2.26,0,0,1,2.09.66,3.15,3.15,0,0,1,.84,2,.36.36,0,0,1-.72.06,2.51,2.51,0,0,0-.63-1.52,1.54,1.54,0,0,0-1.42-.46c-.8.18-1.21,1.11-1.36,1.49a5.31,5.31,0,0,0,0,3.56,1.55,1.55,0,0,0,.78,1,1.08,1.08,0,0,0,1.12-.41,2.46,2.46,0,0,0,.44-1.41c0-.27,0-.62-.21-.76a.52.52,0,0,0-.62.14,1.49,1.49,0,0,0-.3.89.34.34,0,0,1-.38.34.35.35,0,0,1-.34-.38,2,2,0,0,1,.49-1.34,1.22,1.22,0,0,1,1.56-.24,1.49,1.49,0,0,1,.52,1.38,3.07,3.07,0,0,1-.59,1.83A1.86,1.86,0,0,1,225.72,61.3Z"/><path class="cls-8" d="M200.52,57.46a3.53,3.53,0,0,1-2.3-.85.37.37,0,0,1,.48-.55,2.74,2.74,0,0,0,4.06-.5.36.36,0,1,1,.6.41,3.51,3.51,0,0,1-2.43,1.47A2.75,2.75,0,0,1,200.52,57.46Z"/><path class="cls-8" d="M213.51,57.05a3.52,3.52,0,0,1-2.3-.86.36.36,0,0,1,0-.51.38.38,0,0,1,.52,0,2.75,2.75,0,0,0,2.14.66,2.83,2.83,0,0,0,1.92-1.16.36.36,0,0,1,.5-.1.37.37,0,0,1,.1.51A3.53,3.53,0,0,1,213.92,57,2.83,2.83,0,0,1,213.51,57.05Z"/></svg>