<svg id="Capa_1" data-name="Capa 1" xmlns="http://www.w3.org/2000/svg" viewBox="0 0 373.81 229.23"><defs><style>.cls-1{fill:#6c2910;}.cls-2{fill:#fccd74;}.cls-3{fill:#c7895e;}.cls-4{fill:#c7804d;}.cls-5{fill:#491a0c;}.cls-6{fill:#c65730;}.cls-7{fill:#79a28d;}.cls-8{fill:#789da9;}.cls-9{fill:#f9ead4;}.cls-10{fill:#284b5e;}</style></defs><path class="cls-1" d="M35.36,159.18,36.8,149a5.44,5.44,0,0,1,.29-.86c.27,2.46,2.08,4,3.5,5.76a.63.63,0,0,0,1,0c2.66-2.7,5.39-5.32,8-8,.76-.78,1.22-1,1.92.05,1.5,2.19,3,4.37,4.65,6.47a23.56,23.56,0,0,0,2.83,3.5c.64.56.85.35,1.32-.08,1.83-1.64,3.17-3.78,5-5.32s1.79-5.3.93-7.19l-5.26,6.37c-.72.88-1.27,1.4-2.24,0-2.55-3.54-5-7.15-7.77-11.2-2.36,2.5-4.72,4.85-6.91,7.37-2.58,3-2.56,3-4.66-.11-.35-.52-.92-1-1-1.57-.14-1-.68.23-.83-.23.37-3.28,1.3-6.46,1.95-9.68,2.22.29,4.44.46,6.66.68,5.95.59,11.93.62,17.89,1.17.44,0,1,.12,1.15-.51.39-1.22-1.19-3.5-2.47-3.55-2.29-.1-4.6-.06-6.86-.37-2-.27-4.06-.14-6.08-.33l-9.43-.85c2-7.1,6-12.63,12.72-16a8.94,8.94,0,0,0,1.22-.93,12.19,12.19,0,0,0,1.5-.38c2.95-1.19,5.91-2.35,8.82-3.64,1.19-.54,1.74-.28,2.29.86,1.24,2.53,2.12,5.22,3.57,7.65a20,20,0,0,0,8.48,7.9c-1-3.23-2.31-6.09-2.83-9.17l.3-.3a34.35,34.35,0,0,0,2.86,5.92A22.76,22.76,0,0,0,86,129.77c.45.3.93.91,1.5.6s.21-1,.23-1.46a21.37,21.37,0,0,0-.58-5.28c-1-4.75-2.89-9.27-3.53-14.11a4,4,0,0,1,1.36,1c1.11,1.3,2.31,2.54,3.52,3.76a163.15,163.15,0,0,1,12.19,13.17c.81,1,1.24,1.08,1.9,0a83.33,83.33,0,0,0,6.91-14,37.88,37.88,0,0,1,4,10.16A34.37,34.37,0,0,0,115,128.9c.2.48.27,1.18.82,1.24s.87-.68,1.07-1.18a25.26,25.26,0,0,0,1.91-8.35c.11-3.25-.19-6.48-.29-9.72,10.77,3,18.63,9.08,21.7,20.3a2.27,2.27,0,0,0-2.3-.59c-4.25.69-8.55,1-12.82,1.44-6.59.61-13.22.89-19.84,1-7,.09-14,.13-21-.16-5.21-.22-10.44-.56-15.67-.43a4.42,4.42,0,0,1-.63,0c-2.35-.24-2.31-.26-1.61,2,.37,1.2.83,2.07,2.3,2.07,7.69,0,15.38.38,23.06.63,8.63.27,17.24-.32,25.86-.64,2.33-.08,4.66-.19,7-.39,3.78-.34,7.56-.72,11.33-1.2,1.76-.22,3.67.1,5.2-1.2a86.62,86.62,0,0,1,2.18,9c.16.8.42,1,1.18,1.06a19.65,19.65,0,0,1,4.94.71c.71.2,1.59.38,1.79,1.3a1.83,1.83,0,0,1-1.07,1.93c-1.18.69-1.12,1.55-.74,2.64.88,2.53,2.65,4.45,4.29,6.49,4,4.95,6.54,10.5,6.66,17a17.87,17.87,0,0,1-2.52,8.9c-1.71.54-2.74,2-4.09,3-.35.26-.46.65.07,1,1.44,1,2.77,2.1,4.57,2.34-.24.26-.58.44-.62.85-2,.21-3.54-1-5.12-1.93-.39-.24-.7-.76-1.22-.47a3.57,3.57,0,0,0-1.8,2,2.41,2.41,0,0,0,1.31,2.11c1.7.8,3.4,1.63,5.36,1.44-.83.64-2.22.56-2.53,1.91,0-.7-.3-.94-1-1a4.63,4.63,0,0,1-3-1.55c-1-1.08-2-1.83-3.23-.23-.35.45-1.2.58-.84,1.42a4.26,4.26,0,0,0,2.43,2.67c.55.2,1.28.18,1.54.9-.37.35-.45,1.06-1.19,1a18.09,18.09,0,0,1-2.79-1.62c-.87-.54-1.31-1.14-.92-2.19s-.17-1.44-1-1.73a4.94,4.94,0,0,0-1.87-.17c-3.78.16-7.56.52-11.36.38a23.5,23.5,0,0,1-8.44-2c-1.57-.67-3.37-.76-4.76-2-.12-.1-.77,0-.88-.49s-.15-1.07.44-1.37a11.51,11.51,0,0,1,1.55-.73c2.36-.84,4.84-1.24,7.18-2.18,1.88-.76,2.57-1.66,2.5-3.64,0-1-.31-1.65-1.56-1.53-3.27.29-6.55.39-9.82.74a17.18,17.18,0,0,0-7.52,2.32c-2.42,1.53-4.69,3.29-7,5a7.24,7.24,0,0,1-5.41,1.57c-3.34-.49-6.69-.81-10-1.09-4.83-.41-9.58-1.34-14.4-1.8-2.21-.21-4.39-.91-6.57-1-4.68-.23-9.44-.43-13.78,2-.28.16-.63.28-.84,0s.07-.56.28-.81A6,6,0,0,1,54.58,184a23.45,23.45,0,0,1,7.86-1c1.15.09,1.66-.13,1.79-1.57a45.71,45.71,0,0,0-.07-6.09c-4.29,0-8.54.25-12.81-.14a89,89,0,0,1-12.82-1.86c-1.31-.31-1.84-.27-1.78,1.33.06,1.4.48,2.9-.35,4.25,0-2.08,0-4.15.07-6.23,0-.74-.06-1.21-1-1.43s-1.26-1.05-1.24-2.08c.05-2.48.57-4.9.81-7.36a3.42,3.42,0,0,0,2.3.78c1.71,0,3.45.16,5.14.37,7.35.92,14.75,1.09,22.14,1.52,1.68.1,2.39-.34,2.54-2.06s0-2.07-1.76-2a91.71,91.71,0,0,1-10.49-.4c-5.65-.48-11.32-.75-16.95-1.48A2.71,2.71,0,0,0,35.36,159.18ZM68,142.65c-.27,1.9.38,3.47.24,5.1a4,4,0,0,0,.78,2.76c1.07,1.55,2.19,3.05,3.35,4.52,1.33,1.67,1.61,1.64,3.13,0,2.31-2.47,4.72-4.85,7.08-7.27.38-.38.79-.8,1.35-.36a7,7,0,0,1,2,1.68c1.55,2.63,3.75,4.7,5.58,7.09.65.85,1.25.71,1.94.07a88.37,88.37,0,0,0,7.81-8.49c1.15-1.38,1.4-1.41,2.57,0,2.23,2.75,4.47,5.48,6.72,8.22a12.32,12.32,0,0,0,.88.89c.39.39.71.29,1-.12,2.32-2.88,4.91-5.54,6.78-8.77.28-.48.48-.73,0-1.3-.88-1-.41-2,.92-2.41s2.6-.06,3.86-.77a11.51,11.51,0,0,0-1.91-2.62c-.61-.83-1.07-.86-1.76,0-2.45,3.18-5,6.29-7.48,9.43-.37.45-.76,1.32-1.41.52s-1.47-1.2-2-1.93c-1.51-2.2-3.36-4.11-5-6.23-1.46-1.94-2.37-2-3.87-.06-2.17,2.83-4.83,5.19-7,8-.73.92-1.16.85-1.84,0-2.16-2.8-4.41-5.53-6.57-8.33-.87-1.14-1.59-1.28-2.62-.16-2.44,2.64-5,5.17-7.43,7.85-.86,1-1.23.83-1.89-.1C71.56,147.49,69.82,145.17,68,142.65Zm45.7,17.75c-.54.52-1.09.11-1.65.12-5.13.17-10.27.42-15.4.49-6,.08-11.9.14-17.85,0-2.87-.09-5.73-.22-8.61-.24-1.74,0-1.87.17-1.86,3,0,1.21,1.09,1,1.76,1,3.81.07,7.62.22,11.43.29,8.47.17,16.94,0,25.41-.18C110.28,164.81,113,164.43,113.69,160.4Z"/><path class="cls-2" d="M318.27,219.44a4.91,4.91,0,0,1-3.93,1.33c-7.85,0-15.7-.12-23.54,0s-15.47.13-23.21.19a12,12,0,0,0-3,0c.08-.2.14-.53-.1-.49-1.49.2-1.24-.8-1.15-1.63a53.53,53.53,0,0,0,.62-6.8c.56-.05,1.13-.14,1.7-.14l11.39.05a3.1,3.1,0,0,0,2.19-.6c1.61-1.36,1.39-3-.68-4.76a46.46,46.46,0,0,1,6.46-.35c0,.8,1.06.25,1.28,1.08a1.15,1.15,0,0,0,2.1.37,2.58,2.58,0,0,0,1-2.36l.05,0,.25-.36a16.2,16.2,0,0,0,.68-2.22,33.51,33.51,0,0,0-1-14,6.89,6.89,0,0,1,1-.32c2.57-.37,5.15-.69,7.72-1.08,2.84-.44,2.66-.29,3.54,2.34a6.56,6.56,0,0,1,.22,1.07,46.32,46.32,0,0,1,1.12,10.19,45.2,45.2,0,0,1-.71,7.26l-.2.23.15.09.08-.29a1.28,1.28,0,0,0,1.56-1.16,31.45,31.45,0,0,0,.59-3.69,45.06,45.06,0,0,0-1.72-14.38c-.67-2.43-.69-2.44,1.86-2.77.1,0,.21,0,.31,0,2.09-.64,4.52-.59,6.22-1.93a17.49,17.49,0,0,1,6.37-3.43c3-.77,5.9-1.89,9.09-1.57a10,10,0,0,0,5-.59,4.48,4.48,0,0,1-1.11-.11,10.84,10.84,0,0,0-6.56-.6,37.69,37.69,0,0,0-10,2.86c-.6.27-1.17.48-1.23-.63-.26-5.14-.61-10.29-1.24-15.4-.59-4.86-.79-9.76-1.64-14.58-.17-1-.12-2.13-1-2.91-.22-.2-.41-.56-.77-.43a.7.7,0,0,0-.32.95,28.7,28.7,0,0,1,.71,4.31c.84,4.51.92,9.1,1.43,13.65.32,2.79.63,5.59.84,8.38s.28,5.31.42,8a1.08,1.08,0,0,1-.84,1.16c-.65.22-1.28.46-1.93.63a143.82,143.82,0,0,1-20.59,3.62,8.84,8.84,0,0,1-2.83-1.61c-2.34-1.89-4.65-3.82-7-5.73A6.9,6.9,0,0,0,271,179l-1-3.59c1.51-.16,3,.1,4.54-.14a1.29,1.29,0,0,0,1.29-1.43q.06-7.07.13-14.12c0-1-.45-1.53-1.53-1.51-1.67,0-3.34,0-5,0a33.32,33.32,0,0,1,2.4-5.56c5.11-11.14,8.53-22.92,13-34.32,1.07.52,2.16,1,3.19,1.58.85.49,1.41.36,1.67-.57.89-3.19,1.68-6.41,2.63-9.58s1-6.33,1.59-9.49a107.79,107.79,0,0,1,11.7,4.89c4.53,2,8.93,4.33,13.34,6.61,6.88,3.55,11.29,9.1,13.92,16.26,2.51,6.86,3.8,14,5,21.16,1.36,8.4,2.58,16.83,3.34,25.31a120.19,120.19,0,0,1,.81,14.83c-.29,8.73-4.29,13.88-13,16.64-3.34,1.06-6.83,1.46-10.22,2.31a.74.74,0,0,0-.8-.37c-1.89.42-3.84.38-5.72.74a61.42,61.42,0,0,1-10.13.58c-4,.08-7.91-.27-11.87-.41-.46,0-1.19-.28-1.27.5s.64.72,1.11.88c1.27.41,2.6.07,3.89.25a58.63,58.63,0,0,0,11.39.23,67.41,67.41,0,0,0,11.92-1.3c1.09-.26,1.12.23,1.12,1,0,2.93,0,5.86,0,8.79l0,.05-.14,0Zm-7.18-76.75c.05.22-.33,1.11.55,1.2s.91-.69,1-1.35.25-1.23.29-1.85a50.82,50.82,0,0,1,3.25-15.52c1.22-3,2.7-6,5.87-7.68.32-.16,1.12-.08.84-.79s-.78-.41-1.32-.21c-3,1.09-4.68,3.55-5.87,6.2C312.86,128.91,311.64,135.57,311.09,142.69Z"/><path class="cls-3" d="M231,51.2c-.5,12.83-7.25,24.67-20,33-10,6.55-20.92,8.34-32.56,6a40,40,0,0,1-11.26-4.2,2.11,2.11,0,0,0-2.3,0c-5.28,2.86-10.59,5.68-15.89,8.51-.37.2-.74.38-1.12.57a1.55,1.55,0,0,1-2-.18,1.52,1.52,0,0,1-.11-1.89q2-4.41,4.06-8.82c1.23-2.66,2.45-5.31,3.72-8a1.51,1.51,0,0,0-.19-1.83,41.38,41.38,0,0,1-8.24-18.9c-1.78-11.16.2-21.57,6.61-30.94,7.49-10.95,18-17.3,31.1-18.68,15.79-1.67,28.87,4,38.93,16.2C228,29.81,231,38.79,231,51.2Zm-63.69-9.87a2.16,2.16,0,0,0-2,.76c-1,1-2,2-3,3-1.61,1.68-1.6,3.1,0,4.76q7.64,7.78,15.28,15.56c2.23,2.27,3.92,2.2,6.11-.07Q195,53.64,206.33,42c2.29-2.36,4.63-4.69,6.9-7.08,1.72-1.82,1.67-3.17,0-4.86-.93-.92-1.83-1.88-2.77-2.78-1.37-1.31-2.72-1.37-4-.06-3.34,3.39-6.61,6.84-9.94,10.24q-7.52,7.7-15.07,15.34c-.36.37-.69.83-1.3.29a40.43,40.43,0,0,1-3.76-3.49c-2.2-2.6-4.8-4.79-7-7.37A2.26,2.26,0,0,0,167.28,41.33Z"/><path class="cls-1" d="M270,175.41l1,3.59a13.67,13.67,0,0,0,1.78,4.09.56.56,0,0,1-.08.78l-11.32-2.14a62.4,62.4,0,0,0-7.68-1.26c-1.14-.08-2.34,0-2.85,1.14s.06,2.34.88,3.29a6.6,6.6,0,0,0,4.45,2c.1.59-.35.52-.69.58a23.21,23.21,0,0,0-4-.68c-1.2,0-2.45.14-2.87,1.38a2.63,2.63,0,0,0,1.4,3.14l.15,1.45c.34,2.82,1.29,3.81,4.3,4.5l.31,1.75c.37,1.86,1.94,2.52,3.37,3.21,6.43,3.07,13.29,4.18,20.35,4.38,2.07,1.78,2.29,3.4.68,4.76a3.1,3.1,0,0,1-2.19.6l-11.39-.05c-.57,0-1.14.09-1.7.14l-1.24-.1c-6.69,0-13.38,0-20.07-.08-4.22,0-8.45.28-12.67-.19a4.8,4.8,0,0,1-3.41-3.33c-1.3-3.44-2.7-6.84-4.05-10.26a8.39,8.39,0,0,0-.28-.89q-6.58-16.52-13.18-33c-.09-.16,0-.48-.37-.35l.05,0c.12-.55-.23-1-.41-1.44-.86-2.32.1-3.78,2.54-3.83l2.8-.05,7.24,0c.72,1.41.53,3.69,3.15,3.26a46.93,46.93,0,0,0,7.59.12h.52a16.33,16.33,0,0,0,3.89,0h3a69.69,69.69,0,0,0,7.37,0h.49l1.71,0h.81c.73,0,1.5.41,2.17-.22-.06-1.16-.13-2.32-.19-3.47,2.66,0,5.32.21,8-.05,2.13.31,4,1,5.26,2.94l4.29,11.33Z"/><path class="cls-4" d="M36.4,178.94c.83-1.35.41-2.85.35-4.25-.06-1.6.47-1.64,1.78-1.33a89,89,0,0,0,12.82,1.86c4.27.39,8.52.16,12.81.14a45.71,45.71,0,0,1,.07,6.09c-.13,1.44-.64,1.66-1.79,1.57a23.45,23.45,0,0,0-7.86,1,6,6,0,0,0-3.23,1.75c-.21.25-.48.49-.28.81s.56.21.84,0c4.34-2.39,9.1-2.19,13.78-2,2.18.11,4.36.81,6.57,1,4.82.46,9.57,1.39,14.4,1.8,3.36.28,6.71.6,10,1.09a7.24,7.24,0,0,0,5.41-1.57c2.3-1.71,4.57-3.47,7-5a17.18,17.18,0,0,1,7.52-2.32c3.27-.35,6.55-.45,9.82-.74,1.25-.12,1.53.5,1.56,1.53.07,2-.62,2.88-2.5,3.64-2.34.94-4.82,1.34-7.18,2.18a11.51,11.51,0,0,0-1.55.73c-.59.3-.56.84-.44,1.37s.76.39.88.49c1.39,1.2,3.19,1.29,4.76,2a23.5,23.5,0,0,0,8.44,2c3.8.14,7.58-.22,11.36-.38a4.94,4.94,0,0,1,1.87.17c.87.29,1.39.77,1,1.73s.05,1.65.92,2.19a18.09,18.09,0,0,0,2.79,1.62l-.05,0-.34.33h0a.58.58,0,0,0-.64.32h0a.68.68,0,0,0-.65.3,2.63,2.63,0,0,1-2.23-.3c.14-.9-.53-.56-.94-.61l0,0c.34-1.35-.17-1.71-1.49-1.41a35,35,0,0,1-12.24.78c-2-.23-4,0-5.89-.59a1,1,0,0,0-1.23.91c-.08.72.63.51,1,.54.68.06,1.37,0,2,.1a40.54,40.54,0,0,0,15.37-.2c.92-.21,1,.2,1.19.73-1.15,1.74-3,2.25-4.84,2.86-3.53,0-7.06.71-10.61,0a11.68,11.68,0,0,0-3.68-.66c-.61.06-1.3.14-1.38.77-.1.79.71.7,1.23.82a48.17,48.17,0,0,0,10.57,1c-.25.31-.6.26-.93.29-4.44,1.42-9.06,1.32-13.62,1.32-5,0-10-.69-15-.62-4.46.06-8.91.77-13.36,1.17s-9,1-13.51,1.34c-5.64.47-11.28.91-16.94,1.14-3.44.13-6.88,0-10.33,0a47.64,47.64,0,0,1-5.55-.56c-3.9-.75-6-3.13-7-6.72a47.83,47.83,0,0,1-1.2-13.81c.25-.61.91-1.22,0-1.82v-.68s.09-.06.08-.07a.64.64,0,0,0-.08-.19A29.17,29.17,0,0,1,36.4,178.94Zm1.06,7.85-.35.16c.08,0,.17.12.25.12a3,3,0,0,0,.39-.13Z"/><path class="cls-4" d="M109.46,113.48a83.33,83.33,0,0,1-6.91,14c-.66,1.08-1.09,1-1.9,0a163.15,163.15,0,0,0-12.19-13.17c-1.21-1.22-2.41-2.46-3.52-3.76a4,4,0,0,0-1.36-1,9.71,9.71,0,0,1-.58-3.81c0-2.09.12-4.18.17-6.27q.22-8.47.44-16.94c.29.11.58.21.86.33a.74.74,0,0,0,1.06-.54c.12-.48-.31-.67-.74-.8s-.86-.39-1.23.12C78.16,79,76.17,75.76,76.7,70.5c.22-2.19,1.08-4.1,3.27-5a5.9,5.9,0,0,1,6.11,1.29,9.55,9.55,0,0,1,2.66,4c.23.56.25,1.44,1.28,1.23.86-.16,1.49-.41,1.72-1.46A13.26,13.26,0,0,1,95.36,64a86.06,86.06,0,0,0,8.7-9.41l.24-.32c2.14.58,4.29.13,6.44.08,4.26-.11,8.6-.73,12.48,1.79l-.09.33c-1,.94,1,2.41-.57,3.32a2.79,2.79,0,0,0,1.2.72v.66s-.1.06-.09.08.06.12.09.19l-.15.67a1.4,1.4,0,0,0-.49,1.83c-.46,2.23.42,4.22,1.19,6.2a46.77,46.77,0,0,1,2.79,8,4.7,4.7,0,0,1-.12,3.2c-1-.85-2.06.28-3.11,0-.68-.2-1.84-.73-2,.34s1.16.8,1.92.9c-.13,1.26-.26,2.52-.4,3.78a4.4,4.4,0,0,1-5.32,1.27c-1.27-.48-2.57-.88-3.87-1.26-.38-.11-.88-.15-1.06.37s.16.78.56,1a15.5,15.5,0,0,0,2.65.87c1.22.35,2.68.07,3.64,1.2l-.06.09.06-.1c.41,0,.88.27,1.2.13,1.52-.63,1.22.12,1.1,1.15-.2,1.61-1,3.07-1,4.71h0c-.62.26-.67.77-.61,1.34-1.16,1.74-2.21,3.57-4.15,4.62a32.28,32.28,0,0,1-8-.9c-.45-.12-.89-.26-1.35-.34-3.85-.7-7.62-1.61-10.78-4.13-1.13-.9-2.28-1.81-3.46-2.65-.44-.31-1-.75-1.54-.15s.09,1.08.45,1.47a45.34,45.34,0,0,0,5.33,5,19.54,19.54,0,0,0,10.87,4.16C108.15,107.32,108.12,110.5,109.46,113.48Zm5.94-52.66a15.91,15.91,0,0,0-5.4.68c-.81.19-1.81.41-1.51,1.57s1.22.74,2,.57a18.27,18.27,0,0,1,7.43-.49c.6.11,1.28.44,1.53-.49s-.3-1.35-1.06-1.64A11.25,11.25,0,0,0,115.4,60.82ZM84.88,72.09A3.09,3.09,0,0,0,83,69.39c-.29-.15-.81-.21-1,.12s.18.65.51.78c1.56.6,1.46,1.72,1,3A7.55,7.55,0,0,0,83,75.89a2.2,2.2,0,0,0,.67,1.69c.26.24.64.54,1,.33s.07-.61-.08-.93a3.28,3.28,0,0,1,0-3.13A3.74,3.74,0,0,0,84.88,72.09Zm31.65-3.19c-.31-.56,0-1.78-.87-1.67s-.62,1.37-.83,2.12c-.12.48,0,1.18.71,1.13C116.42,70.42,116.38,69.59,116.53,68.9Z"/><path class="cls-2" d="M220.86,158.44l-7.24,0c3.11-9.58,6-19.23,8.43-29,2.84-11.53,10.42-18.2,21.24-21.83,3.06-1,6-2.53,9.13-3.2.53.22,1.09-.34,1.64,0-.35,2.1-1.37,4-1.95,6a48.38,48.38,0,0,1-2.58,7.79c-.11.23-.29.51.06.65a.91.91,0,0,0,.88-.19l3.34-2.27A236.8,236.8,0,0,0,262,158c-.88.13-1.79-.24-2.66.14-2.66.26-5.32.05-8,.05.06-1.71-1.06-2.2-2.46-2.31a10.77,10.77,0,0,0-1.36.24c-5.82.36-11.65.18-17.47.22,1.17-1.39.27-3,.46-4.51.39-3.16-.37-6.33-.19-9.53a85.9,85.9,0,0,0-.38-9.06c0-.43-.09-.91-.63-.92a.84.84,0,0,0-.91.87c0,.37,0,.73,0,1.1,0,4.32.31,8.63.61,12.94.2,3-.27,6.06.28,9.07l-6.24.11C221,156.41,221,156.41,220.86,158.44Z"/><path class="cls-5" d="M83.61,82.5Q83.4,91,83.17,99.44c0,2.09-.13,4.18-.17,6.27a9.71,9.71,0,0,0,.58,3.81c.64,4.84,2.55,9.36,3.53,14.11a21.37,21.37,0,0,1,.58,5.28c0,.5.27,1.18-.23,1.46s-1-.3-1.5-.6a22.76,22.76,0,0,1-6.52-7.32,34.61,34.61,0,0,1-2.86-5.91c-.11-.29-.22-.57-.36-.91a1,1,0,0,0,.06,1.2c.52,3.08,1.78,5.94,2.83,9.17a20,20,0,0,1-8.48-7.9c-1.45-2.43-2.33-5.12-3.57-7.65-.55-1.14-1.1-1.4-2.29-.86-2.91,1.29-5.87,2.45-8.82,3.64a12.19,12.19,0,0,1-1.5.38c-.21-5.71,1.14-11.18,2.64-16.6,3-10.85,6.17-21.66,8.28-32.73.11-.56.28-1.1.42-1.65a4.94,4.94,0,0,1,2.8-2.31c3.92-1.59,8.07-2.27,12.16-3.19,3.69-.54,7.36-1.17,11.06-1.61,4-.47,8-.76,12.07-1.13l.18.19A86.06,86.06,0,0,1,95.36,64a13.26,13.26,0,0,0-3.62,6.62c-.23,1-.86,1.3-1.72,1.46-1,.21-1-.67-1.28-1.23a9.55,9.55,0,0,0-2.66-4A5.9,5.9,0,0,0,80,65.55c-2.19.85-3,2.76-3.27,5-.53,5.26,1.46,8.45,6.86,11.11C83.58,81.91,83.6,82.2,83.61,82.5Z"/><path class="cls-4" d="M294.81,71.21c-.7,1.83-.83,3.86-1.93,5.54a13.38,13.38,0,0,1-4.17,4.3c-2.74.69-2.74.69-2.47,3.46,0,.25.05.51.08.76a30.51,30.51,0,0,0,.43,6.33c-.09,1.94.77,3.92-.29,5.81-.64,1.14-1.22,2.31-1.84,3.46-2.11,3.9-5.2,7-8.2,10.21l-.57.63c-1.28,1.29-2.53,2.62-3.86,3.87a17.94,17.94,0,0,1-4,3.42l-1.51-1.68L263,111.63a1.6,1.6,0,0,0-.57-1.26c-.52-2.07-1.34-4.08-1.29-6.27,4.43-.61,8.59-1.87,12.16-4.76,1.41-1.14,3.1-3.14,3.16-4.57a28.47,28.47,0,0,1-15.59,6.35,12.63,12.63,0,0,0-2.88.16c-.56-.49-1.29-.25-1.94-.41a12.67,12.67,0,0,1-9.35-8.43,45.67,45.67,0,0,1-3.2-18.68,15.62,15.62,0,0,0,6.6-.16c.09,1.76-.75,3.39-.67,5.18a3.09,3.09,0,0,0,1.89,3.11,5,5,0,0,0,4.73-.25c.17-.12.24-.32,0-.61l-.53,0c-3.88.48-5.73-1.11-4.6-4.88a5.25,5.25,0,0,0,.33-3.41,8.81,8.81,0,0,0,2.2-5.41c.1-1.44.78-1.61,1.92-1.52s2,.11,2,1.69a10.72,10.72,0,0,0,.4,3.23,6,6,0,0,0,4.14,4.65,18.79,18.79,0,0,0,7.61.35,4.16,4.16,0,0,0,3.17-2.32,13.79,13.79,0,0,0,1.37-4.61c.42-2.57.45-2.46,3-2.46,2,0,3.6.19,3.71,2.7,0,.74.52,1.15,1.37,1.19a1.29,1.29,0,0,0,1.39-1,11.37,11.37,0,0,1,1.85-3.06c1.32-1.64,2.9-2.74,5.13-2.31s3.2,2,3.9,3.89A12.18,12.18,0,0,1,294.81,71.21ZM257,81.24l-.06.09.06-.08.05-.1Zm-1.55,7.48a15.08,15.08,0,0,0,5.28-.75c.42-.11,1.06-.22.9-.86-.2-.82-.76-.19-1.13-.13a27.7,27.7,0,0,1-8.08,0c-.45-.05-1.08-.61-1.27.26-.15.68.48.9,1,1A8.14,8.14,0,0,0,255.45,88.72Zm29.74-11.17a1.93,1.93,0,0,0,2.27-1.77c.45-1.92-.21-4.11,1.52-5.73,1.26-1.18,2.14-1.1,2.85.54.5-.47.82-1,.38-1.63-.26-.37-.57-.89-1.09-.76-1.4.36-2.92.58-3.51,2.21a11.94,11.94,0,0,0-1,3.92A3.87,3.87,0,0,1,285.19,77.55Z"/><path class="cls-1" d="M294.81,71.21a12.18,12.18,0,0,0-.41-3.4c-.7-1.89-1.74-3.47-3.9-3.89s-3.81.67-5.13,2.31a11.37,11.37,0,0,0-1.85,3.06,1.29,1.29,0,0,1-1.39,1c-.85,0-1.34-.45-1.37-1.19-.11-2.51-1.73-2.69-3.71-2.7-2.55,0-2.58-.11-3,2.46a13.79,13.79,0,0,1-1.37,4.61,4.16,4.16,0,0,1-3.17,2.32,18.79,18.79,0,0,1-7.61-.35,6,6,0,0,1-4.14-4.65,10.72,10.72,0,0,1-.4-3.23c.09-1.58-.88-1.6-2-1.69s-1.82.08-1.92,1.52a8.81,8.81,0,0,1-2.2,5.41l-1.18.82a15.62,15.62,0,0,1-6.6.16c-2.94-.7-3.68-3-4.12-5.57-.31-1.79.16-3.59-.24-5.4-.25-1.1.86-1,1.62-1.1l2,0h.88a38.44,38.44,0,0,1,7.8.4c1.1.17,2.26.27,2.21,1.84,0,.31.19.61.43.47,1.22-.67,3.25,1.52,3.94-1.15.15-.57,1-.47,1.55-.5,3.29-.19,6.52.46,9.78.73,2.91.25,5.62,1.46,8.57,1.5,2.19,0,2.45-.27,1.57-2.39a3.27,3.27,0,0,0-.38-.68c-2.26-3-2.72-6.48-2.61-10.1a13.33,13.33,0,0,0-.16-3.28c-.2-.93-.66-1.34-1.67-1.1A51.85,51.85,0,0,1,263.39,49c-5.06.09-10.15.28-14.88-2.07-.56-.27-.82-.24-1,.38-.39,1.18-.85,2.34-1.28,3.51-1.61-2.63-3.56-5.22-2.39-8.56a12.42,12.42,0,0,1,4.29-5.34,15.55,15.55,0,0,1,8.62-3.29c4.62-.41,9.23-1.27,13.88-1,5.5.28,11.09.52,16.12,3.12,3.21,1.67,6.32,3.64,7.14,7.64a1.37,1.37,0,0,0,.46.62,14.15,14.15,0,0,1,4.44,9.84C299.14,60,298.3,65.91,294.81,71.21ZM243.8,63a14.74,14.74,0,0,1-1.88,0c-1-.14-1.26.33-1.41,1.27-.19,1.28.21,2.51.13,3.75-.14,2.18,1,3.48,2.83,4.32a12.4,12.4,0,0,0,4.16.44,3.86,3.86,0,0,0,4-3,14.85,14.85,0,0,0,.66-5.21,1.11,1.11,0,0,0-1.07-1.25A37.21,37.21,0,0,0,243.8,63Zm22.48,11.76c1.87,0,3.93.19,5.11-1.81A14,14,0,0,0,273,66.17a.8.8,0,0,0-.81-.94c-4-.49-7.91-1.45-12-1.31-.87,0-1.3.23-1.45,1.18a15.29,15.29,0,0,0,0,4.22c.37,3.25,2.07,5,5.33,5.31C264.85,74.7,265.53,74.7,266.28,74.74Z"/><path class="cls-1" d="M50,208.47c3.45,0,6.89.09,10.33,0,5.66-.23,11.3-.67,16.94-1.14,4.51-.37,9-.93,13.51-1.34s8.9-1.11,13.36-1.17c5-.07,10,.62,15,.62,4.56,0,9.18.1,13.62-1.32.1,4.08.18,8.15.31,12.23.12,3.76-.38,4.37-4.19,4.4-7.22,0-14.44,0-21.65,0q-26.13.11-52.25.25H54c-3.82,0-4.12-.29-4.1-4.08C49.89,214.12,49.93,211.3,50,208.47Z"/><path class="cls-2" d="M209,164.17q6.59,16.5,13.18,33a8.39,8.39,0,0,1,.28.89c-5,1.73-9.14-.32-13.19-2.91A94.64,94.64,0,0,1,191,179.25c1.79-.83,3.68-1.44,5.41-2.42,4.56-2.57,7.35-6.67,9.72-11.13a2,2,0,0,0-.19-2.62c-1.25,1.72-2.13,3.66-3.25,5.46-3,4.85-7.43,7.74-12.72,9.51-2.22-2.47-4.75-4.7-6-7.91,1.16-.22,1.91-1.2,3-1.59a5,5,0,0,0,2.86-1.17c4.56-2.93,8.12-6.56,8.18-12.47.51-.56.84,0,1.14.25,2.67,2.52,5.32,5.06,8,7.6,0,.32-.13.88.55.5.38.1.55.62,1,.54l-.05,0C208.64,164.07,208.78,164.17,209,164.17Z"/><path class="cls-5" d="M68.24,49.58c1-2.7,1.87-5.44,3.73-7.74a24,24,0,0,1,12.68-8.07A33.46,33.46,0,0,1,89.78,33,50.38,50.38,0,0,1,95,32.55c6.44-.12,12.37,1.85,18.08,4.6,3.07,1.49,5.06,4.1,6.7,7a73.39,73.39,0,0,0-9.37-.65c-4.43.09-8.86.23-13.27.68-.8-.18-1.52.25-2.29.31a144.24,144.24,0,0,0-14.76,2,88,88,0,0,0-10.32,2.84A3.76,3.76,0,0,1,68.24,49.58Z"/><path class="cls-4" d="M198,154.91c-.06,5.91-3.62,9.54-8.18,12.47a5,5,0,0,1-2.86,1.17,3.63,3.63,0,0,0-3.48-2.48c-.44-.57-1.14-.67-1.73-1a17.76,17.76,0,0,1-6.75-5.55c.06-.89.76-.79,1.29-.72,1.44.18,2.11-.66,2.5-1.83a3.25,3.25,0,0,0-.91-3.94,1.39,1.39,0,0,1-.49-1.65c.62-2.16-.29-3.67-2.08-4.87-1-.67-2.21-.59-3.19-1.19a6,6,0,0,1,1.59-1.66c1.21,1.1,2.8,1.38,4.27,1.84a2.12,2.12,0,0,1,1.63,1.66,19.39,19.39,0,0,0,3.52,7.1,7.61,7.61,0,0,0,5.69,3c-1-.82-1.81-1.55-2.69-2.16a9.55,9.55,0,0,1-3.86-4.79,25.28,25.28,0,0,1-1.37-4,2.17,2.17,0,0,0-1.7-2c-2.4-.53-4.85-1-6.46-3.15,0,0-.31.19-.48.3-.79-1.45-.23-2.39,1.15-3s2.69-1.11,4.06-1.59c.78-.28,1.39-.48,1.36-1.55,0-1.26.65-1.21,1.52-.61s1.2,1.45,2.16,1.74c1.82,1.85,3.68,3.68,5.47,5.57a117.32,117.32,0,0,1,8.08,10.38C196.67,153.34,197.31,154.13,198,154.91Z"/><path class="cls-4" d="M246.2,50.82c.43-1.17.89-2.33,1.28-3.51.21-.62.47-.65,1-.38,4.73,2.35,9.82,2.16,14.88,2.07a51.85,51.85,0,0,0,11.28-1.61c1-.24,1.47.17,1.67,1.1a13.33,13.33,0,0,1,.16,3.28c-.11,3.62.35,7.09,2.61,10.1a3.27,3.27,0,0,1,.38.68c.88,2.12.62,2.42-1.57,2.39-2.95,0-5.66-1.25-8.57-1.5-3.26-.27-6.49-.92-9.78-.73-.58,0-1.4-.07-1.55.5-.69,2.67-2.72.48-3.94,1.15-.24.14-.44-.16-.43-.47,0-1.57-1.11-1.67-2.21-1.84a38.44,38.44,0,0,0-7.8-.4c.07-.2.13-.4.2-.6a40,40,0,0,1,6.19.17c.59.08,1.33.55,1.53-.37s-.6-1.09-1.27-1.25a21.11,21.11,0,0,0-5.72-.28Zm16.9,9c-.72,0-1.45,0-2.18.11s-.92.68-1,1.21.46.6.89.57a34.83,34.83,0,0,1,8.81,1c.36.06.75.21.94-.23a.89.89,0,0,0-.28-1,3.37,3.37,0,0,0-1.22-.66A19.84,19.84,0,0,0,263.1,59.85Z"/><path class="cls-4" d="M141,133.72c-1.53,1.3-3.44,1-5.2,1.2-3.77.48-7.55.86-11.33,1.2-2.33.2-4.66.31-7,.39-8.62.32-17.23.91-25.86.64-7.68-.25-15.37-.63-23.06-.63-1.47,0-1.93-.87-2.3-2.07-.7-2.29-.74-2.27,1.61-2a4.42,4.42,0,0,0,.63,0c5.23-.13,10.46.21,15.67.43,7,.29,14,.25,21,.16,6.62-.09,13.25-.37,19.84-1,4.27-.4,8.57-.75,12.82-1.44a2.27,2.27,0,0,1,2.3.59A11.42,11.42,0,0,1,141,133.72Z"/><path class="cls-2" d="M229.93,211.66c4.22.47,8.45.14,12.67.19,6.69.09,13.38.06,20.07.08-.53,2.46-.29,5-.85,7.48-.12.52-1.17.84-.43,1.55l-29.47.08a1.76,1.76,0,0,1-2-2C229.93,216.57,229.92,214.12,229.93,211.66Z"/><path class="cls-6" d="M97.13,44.19c4.41-.45,8.84-.59,13.27-.68a73.39,73.39,0,0,1,9.37.65c2.06,1.34,2.26,3.6,2.7,5.69s.66,3.94,1,5.92c0,.1-.14.24-.22.36-3.88-2.52-8.22-1.9-12.48-1.79-2.15,0-4.3.5-6.44-.08l-.32,0a2.07,2.07,0,0,0-.9-2.51h0c-.29-.7,1.16-1.91-.62-2.19h0a1.38,1.38,0,0,1-.11-2.28c.56-.55-.15-1.13.24-1.61-.14,0-.35-.16-.4-.11-1.13,1-1.93-.17-2.86-.39L99.7,45l-.08-.11-.31.22C98.39,45.27,97.84,44.53,97.13,44.19Zm6.34,1.8c.2-.2.72.2.71-.34,0-.29-.26-.43-.54-.46-.43,0-.53.25-.54.6S103.21,46.17,103.47,46Z"/><path class="cls-6" d="M68.24,49.58a3.76,3.76,0,0,0,1.52-.2,88,88,0,0,1,10.32-2.84c1,1,1.94,0,2.91,0,.31,0,.63-.19.81.18s0,.49-.27.66c-.4.31-.76.69-.26,1.14a1.35,1.35,0,0,0,1.74.13c.39-.24.45-.29-.08-.51-.71-.28-.43-1.09-.43-1.64s.53-.44.89-.36c.68.15.81.74,1,1.29.11.33-.37.68,0,1l3.34-.72c.4-.08.77,0,.9.4s-.24.57-.52.65c-.74.22-1.35.67-2.17.85-1.3.27-1.85,1.86-2.5,3.06h0c-.43.11-.6-.59-1.19-.32.6.9-.24,1.93.38,2.92.2.32-.06.92-.92.9a3.63,3.63,0,0,0-3,1c-4.09.92-8.24,1.6-12.16,3.19a4.94,4.94,0,0,0-2.8,2.31c-.52-3.2,0-6.41,0-9.61C65.74,51.2,67.08,50.48,68.24,49.58Z"/><path class="cls-2" d="M276.42,111.08c3-3.19,6.09-6.31,8.2-10.21.62-1.15,1.2-2.32,1.84-3.46,1.06-1.89.2-3.87.29-5.81,2.32.73,3.51,2.63,4.65,4.56.47.78.61,1.76,1.37,2.38,0,0-.09.09-.08.1a1.29,1.29,0,0,0,.17.16h0a.6.6,0,0,0,.33.64h0a9.69,9.69,0,0,1-.1,1.87c-1.51,5.79-2.85,11.64-4.78,17.31l-1.18-.8c-2.82-1.87-5.64-3.72-8.44-5.61C278,111.72,277.48,110.83,276.42,111.08Z"/><path class="cls-5" d="M109.46,113.48c-1.34-3-1.31-6.16-1.39-9.32.11-1.14-.08-2.32.48-3.4a32.28,32.28,0,0,0,8,.9c.64,3.08,1.29,6.15,1.93,9.23.1,3.24.4,6.47.29,9.72a25.26,25.26,0,0,1-1.91,8.35c-.2.5-.4,1.25-1.07,1.18s-.62-.76-.82-1.24a34.37,34.37,0,0,1-1.52-5.26A37.88,37.88,0,0,0,109.46,113.48Z"/><path class="cls-4" d="M37.7,144c.15.46.69-.79.83.23.08.56.65,1.05,1,1.57,2.1,3.14,2.08,3.08,4.66.11,2.19-2.52,4.55-4.87,6.91-7.37,2.77,4.05,5.22,7.66,7.77,11.2,1,1.35,1.52.83,2.24,0l5.26-6.37c.86,1.89,1.08,5.56-.93,7.19s-3.22,3.68-5,5.32c-.47.43-.68.64-1.32.08a23.56,23.56,0,0,1-2.83-3.5c-1.62-2.1-3.15-4.28-4.65-6.47-.7-1-1.16-.83-1.92-.05-2.64,2.7-5.37,5.32-8,8a.63.63,0,0,1-1,0c-1.42-1.76-3.23-3.3-3.5-5.76A21.44,21.44,0,0,1,37.7,144Z"/><path class="cls-3" d="M276.42,111.08c1.06-.25,1.54.64,2.24,1.12,2.8,1.89,5.62,3.74,8.44,5.61l1.18.8c1.93-5.67,3.27-11.52,4.78-17.31a9.69,9.69,0,0,0,.1-1.87l.65.81c-.58,3.16-.67,6.38-1.59,9.49s-1.74,6.39-2.63,9.58c-.26.93-.82,1.06-1.67.57-1-.59-2.12-1.06-3.19-1.58-.12-1-.9-1.31-1.71-1.59a12.78,12.78,0,0,1-2.71-1.83,1.52,1.52,0,0,0-2.28.06,55.51,55.51,0,0,1-6.79,5c-1.18.7-2.86,1.1-3.21,2.75a33.35,33.35,0,0,0-.65,4.77c-.26,4.26-.46,8.52-.57,12.78-.15,6-.37,12-.7,17.94l-1.3-.1c.23-4.57.42-9.15.68-13.71.19-3.22.43-6.44.56-9.65a138.48,138.48,0,0,1,.93-14.1c0-.37.11-.7-.28-1-2.18-1.45-3.77-3.57-5.82-5.17-.5-.38-.9-.65-1.53-.31-1.1.58-2.22,1.11-3.33,1.67-.84-.2-1.44.51-2.21.59l-3.34,2.27a.91.91,0,0,1-.88.19c-.35-.14-.17-.42-.06-.65a48.38,48.38,0,0,0,2.58-7.79c.58-2,1.6-3.85,1.95-6-.55-.38-1.11.18-1.64,0l3.27-1.66a7.77,7.77,0,0,1-.61,2.41c-1.53,3.31-2.43,6.86-3.67,10.28a.6.6,0,0,0,.19.75,95.92,95.92,0,0,0,9.72-4.88c.43-.24,1-.3,1.11-1a1.6,1.6,0,0,1,.57,1.26c-.14.21-.24.5-.45.62-1.15.67-.85,1.31,0,2a12.19,12.19,0,0,0,1.22,1.17c.94.6,1.48,1.77,2.74,1.88L268,119c.27,1.1.86,1,1.59.44,2.48-1.91,5.21-3.49,7.52-5.64.25-.23.7-.37.53-.83a.83.83,0,0,0-.87-.53c-.63.09-.87-.16-.91-.73Z"/><path class="cls-1" d="M182.5,136.57c-1-.29-1.4-1.22-2.16-1.74s-1.56-.65-1.52.61c0,1.07-.58,1.27-1.36,1.55-1.37.48-2.72,1-4.06,1.59s-1.94,1.52-1.15,3c.19.91,1.35,1.17,1.45,2.15a6,6,0,0,0-1.59,1.66c-.3.37-.61.73-.92,1.1l-5,5.44-.25.27a36.21,36.21,0,0,1-7,3.32c-.24.09-.48.31-.71.09s-.11-.58,0-.86a33.55,33.55,0,0,1,3.5-6.41c1-1.39,2-2.89,3.06-4.25L176,132.65l.73-.59c1.83-1.52,2.25-1.51,4.45.08A3.38,3.38,0,0,1,182.5,136.57Z"/><path class="cls-4" d="M35.36,159.18a2.71,2.71,0,0,1,2.63-.63c5.63.73,11.3,1,16.95,1.48a91.71,91.71,0,0,0,10.49.4c1.77-.05,1.91.33,1.76,2s-.86,2.16-2.54,2.06c-7.39-.43-14.79-.6-22.14-1.52-1.69-.21-3.43-.33-5.14-.37a3.42,3.42,0,0,1-2.3-.78C35.16,161,35.26,160.06,35.36,159.18Z"/><path class="cls-4" d="M40.51,130.58l9.43.85c2,.19,4.05.06,6.08.33,2.26.31,4.57.27,6.86.37,1.28.05,2.86,2.33,2.47,3.55-.2.63-.71.55-1.15.51-6-.55-11.94-.58-17.89-1.17-2.22-.22-4.44-.39-6.66-.68A10,10,0,0,1,40.51,130.58Z"/><path class="cls-2" d="M262.43,110.37c-.07.67-.68.73-1.11,1a95.92,95.92,0,0,1-9.72,4.88.6.6,0,0,1-.19-.75c1.24-3.42,2.14-7,3.67-10.28a7.77,7.77,0,0,0,.61-2.41,4.68,4.68,0,0,1,2.3-1.5,12.63,12.63,0,0,1,2.88-.16l.27,3C261.09,106.29,261.91,108.3,262.43,110.37Z"/><path class="cls-4" d="M176,132.65l-11.2,11.41c.13-3.22,2.08-5.28,4.66-6.73.91-.51.68-.71.31-1.26a16.52,16.52,0,0,1-2-3.87,2.39,2.39,0,0,1,.43-2.62c.73-.71,1.69-.34,2.47.08C172.43,130.62,174.18,131.65,176,132.65Z"/><path class="cls-3" d="M318.29,219.16c0-2.93,0-5.86,0-8.79,0-.79,0-1.28-1.12-1a67.41,67.41,0,0,1-11.92,1.3,58.63,58.63,0,0,1-11.39-.23c-1.29-.18-2.62.16-3.89-.25-.47-.16-1.18-.19-1.11-.88s.81-.51,1.27-.5c4,.14,7.92.49,11.87.41a61.42,61.42,0,0,0,10.13-.58c1.88-.36,3.83-.32,5.72-.74a.74.74,0,0,1,.8.37c0,3.11,0,6.21,0,9.31C318.59,218.1,318.82,218.71,318.29,219.16Z"/><path class="cls-6" d="M171.19,146.46c.31-.37.62-.73.92-1.1,1,.6,2.19.52,3.19,1.19,1.79,1.2,2.7,2.71,2.08,4.87a1.39,1.39,0,0,0,.49,1.65,3.25,3.25,0,0,1,.91,3.94c-.39,1.17-1.06,2-2.5,1.83-.53-.07-1.23-.17-1.29.72-.39-.51-.94-.5-1.52-.55-1.13-.1-2.26-.27-2.91-1.41a10.48,10.48,0,0,1,2.16.21,8.89,8.89,0,0,0,4.16-.25c1.27-.35,1.33-1.51,1.18-2.38s-.94-1.7-1.82-1.41c-1.46.5-2.84.16-4.27.17-1.14,0-2.37-1.05-3.46.13-.36-1.31-1.79-1.18-2.58-1.9l.25-.27c2.73.35,5.48.63,8.2,1.08,1.51.25,2-.52,2.21-1.73.31-1.93-.2-2.7-2.1-3.45C173.39,147.37,172.29,146.91,171.19,146.46Z"/><path class="cls-4" d="M158.3,189.08c-1.8-.24-3.13-1.38-4.57-2.34-.53-.35-.42-.74-.07-1,1.35-1,2.38-2.5,4.09-3a2.45,2.45,0,0,1,3.12.44,2.83,2.83,0,0,1,.37,3.19A4.48,4.48,0,0,1,158.3,189.08Z"/><path class="cls-3" d="M190,178.05c5.29-1.77,9.68-4.66,12.72-9.51,1.12-1.8,2-3.74,3.25-5.46a2,2,0,0,1,.19,2.62c-2.37,4.46-5.16,8.56-9.72,11.13-1.73,1-3.62,1.59-5.41,2.42Z"/><path class="cls-4" d="M168.51,154.07c1.09-1.18,2.32-.13,3.46-.13,1.43,0,2.81.33,4.27-.17.88-.29,1.69.67,1.82,1.41s.09,2-1.18,2.38a8.89,8.89,0,0,1-4.16.25,10.48,10.48,0,0,0-2.16-.21h.05l-.33-.33h0l-.33-.65,0,0-.38-.33A3.68,3.68,0,0,1,168.51,154.07Z"/><path class="cls-4" d="M156.21,193.1c-2,.19-3.66-.64-5.36-1.44a2.41,2.41,0,0,1-1.31-2.11,3.57,3.57,0,0,1,1.8-2c.52-.29.83.23,1.22.47,1.58,1,3.1,2.14,5.12,1.93.65,1.19.6,2.2-.77,2.85-.29,0-.59,0-.74.32Z"/><path class="cls-6" d="M142.33,199c-.22-.53-.27-.94-1.19-.73a40.54,40.54,0,0,1-15.37.2c-.66-.11-1.35,0-2-.1-.42,0-1.13.18-1-.54a1,1,0,0,1,1.23-.91c1.94.55,3.94.36,5.89.59a35,35,0,0,0,12.24-.78c1.32-.3,1.83.06,1.49,1.41C142.73,197.88,142.57,198.52,142.33,199Z"/><path class="cls-4" d="M149.59,197.19c-.26-.72-1-.7-1.54-.9a4.26,4.26,0,0,1-2.43-2.67c-.36-.84.49-1,.84-1.42,1.24-1.6,2.27-.85,3.23.23a4.63,4.63,0,0,0,3,1.55c.72.09,1,.33,1,1v0l-.33.33h0l-.13,0a.88.88,0,0,0,.07.23C152.43,196.93,151,197,149.59,197.19Z"/><path class="cls-6" d="M133.62,203.79a48.17,48.17,0,0,1-10.57-1c-.52-.12-1.33,0-1.23-.82.08-.63.77-.71,1.38-.77a11.68,11.68,0,0,1,3.68.66c3.55.72,7.08,0,10.61,0A11.84,11.84,0,0,1,133.62,203.79Z"/><path class="cls-6" d="M120,89.73c-1-1.13-2.42-.85-3.64-1.2a15.5,15.5,0,0,1-2.65-.87c-.4-.2-.72-.48-.56-1s.68-.48,1.06-.37c1.3.38,2.6.78,3.87,1.26a4.4,4.4,0,0,0,5.32-1.27,26.76,26.76,0,0,1-2.13,9.41c0-1.64.83-3.1,1-4.71.12-1,.42-1.78-1.1-1.15-.32.14-.79-.08-1.2-.13Z"/><path class="cls-1" d="M244.57,59.32a21.11,21.11,0,0,1,5.72.28c.67.16,1.46.37,1.27,1.25s-.94.45-1.53.37a40,40,0,0,0-6.19-.17C242.94,60,244,59.74,244.57,59.32Z"/><path class="cls-3" d="M261.39,221c-.74-.71.31-1,.43-1.55.56-2.47.32-5,.85-7.48l1.24.1a53.53,53.53,0,0,1-.62,6.8c-.09.83-.34,1.83,1.15,1.63.24,0,.18.29.1.49H263a.58.58,0,0,0-.91,0Z"/><path class="cls-3" d="M183.47,166.07a3.63,3.63,0,0,1,3.48,2.48c-1.06.39-1.81,1.37-3,1.59A4,4,0,0,1,183.47,166.07Z"/><path class="cls-1" d="M286.32,85.27c0-.25-.06-.51-.08-.76-.27-2.77-.27-2.77,2.47-3.46A10.94,10.94,0,0,1,286.32,85.27Z"/><path class="cls-6" d="M123.84,82.52c-.76-.1-2,.22-1.92-.9s1.27-.54,2-.34c1,.3,2.09-.83,3.11,0C126.18,82.33,125,82.4,123.84,82.52Z"/><path class="cls-6" d="M123.76,60.5a2.79,2.79,0,0,1-1.2-.72c1.54-.91-.45-2.38.57-3.32Z"/><path class="cls-6" d="M36.22,185.56c.92.6.26,1.21,0,1.82Z"/><path class="cls-4" d="M242.76,61.64l-2,0A5,5,0,0,1,242.76,61.64Z"/><path class="cls-6" d="M123.12,63.93a1.4,1.4,0,0,1,.49-1.83C123.44,62.71,123.28,63.32,123.12,63.93Z"/><path class="cls-6" d="M120.71,97c-.06-.57,0-1.08.61-1.34A2.27,2.27,0,0,1,120.71,97Z"/><path class="cls-6" d="M143.57,198.13c.41.05,1.08-.29.94.61C144.13,198.64,143.66,198.68,143.57,198.13Z"/><path class="cls-7" d="M207.66,163.26c-.68.38-.51-.18-.55-.5Z"/><path class="cls-8" d="M262,221a.58.58,0,0,1,.91,0Z"/><path class="cls-6" d="M170,156.63l.33.65A.6.6,0,0,1,170,156.63Z"/><path class="cls-6" d="M156.17,193.1c.15-.32.45-.31.74-.32A.71.71,0,0,1,156.17,193.1Z"/><path class="cls-6" d="M147.38,198.75a.58.58,0,0,1,.64-.32C147.94,198.8,147.67,198.81,147.38,198.75Z"/><path class="cls-6" d="M146.74,199a.68.68,0,0,1,.65-.3C147.29,199.1,147,199,146.74,199Z"/><path class="cls-7" d="M293.17,99.44a.6.6,0,0,1-.33-.64Z"/><path class="cls-6" d="M170.28,157.27l.33.33Z"/><path class="cls-6" d="M36.23,184.62a.64.64,0,0,1,.08.19s-.05,0-.08.07A.39.39,0,0,1,36.23,184.62Z"/><path class="cls-6" d="M169.61,156.33l.38.33C169.75,156.68,169.69,156.5,169.61,156.33Z"/><path class="cls-6" d="M153.33,195.57a.88.88,0,0,1-.07-.23l.13,0Z"/><path class="cls-7" d="M292.86,98.8a1.29,1.29,0,0,1-.17-.16s.05-.07.08-.1A.58.58,0,0,1,292.86,98.8Z"/><path class="cls-6" d="M148,198.44l.34-.33C148.5,198.49,148.23,198.44,148,198.44Z"/><path class="cls-6" d="M123.76,61.43c0-.07-.07-.13-.09-.19s.06-.05.09-.08A.42.42,0,0,1,123.76,61.43Z"/><path class="cls-7" d="M318.27,219.44l-.08-.2.14,0A.32.32,0,0,1,318.27,219.44Z"/><path class="cls-6" d="M153.35,195.3l.33-.33C153.67,195.18,153.65,195.37,153.35,195.3Z"/><path class="cls-4" d="M68,142.65c1.83,2.52,3.57,4.84,5.23,7.22.66.93,1,1.07,1.89.1,2.41-2.68,5-5.21,7.43-7.85,1-1.12,1.75-1,2.62.16,2.16,2.8,4.41,5.53,6.57,8.33.68.88,1.11.95,1.84,0,2.21-2.78,4.87-5.14,7-8,1.5-2,2.41-1.88,3.87.06,1.6,2.12,3.45,4,5,6.23.49.73,1.36,1.19,2,1.93s1-.07,1.41-.52c2.5-3.14,5-6.25,7.48-9.43.69-.9,1.15-.87,1.76,0a11.51,11.51,0,0,1,1.91,2.62c-1.26.71-2.63.37-3.86.77s-1.8,1.4-.92,2.41c.5.57.3.82,0,1.3-1.87,3.23-4.46,5.89-6.78,8.77-.33.41-.65.51-1,.12a12.32,12.32,0,0,1-.88-.89c-2.25-2.74-4.49-5.47-6.72-8.22-1.17-1.43-1.42-1.4-2.57,0a88.37,88.37,0,0,1-7.81,8.49c-.69.64-1.29.78-1.94-.07-1.83-2.39-4-4.46-5.58-7.09a7,7,0,0,0-2-1.68c-.56-.44-1,0-1.35.36-2.36,2.42-4.77,4.8-7.08,7.27-1.52,1.63-1.8,1.66-3.13,0-1.16-1.47-2.28-3-3.35-4.52a4,4,0,0,1-.78-2.76C68.37,146.12,67.72,144.55,68,142.65Z"/><path class="cls-4" d="M113.69,160.4c-.73,4-3.41,4.41-6.77,4.47-8.47.15-16.94.35-25.41.18-3.81-.07-7.62-.22-11.43-.29-.67,0-1.75.19-1.76-1,0-2.85.12-3,1.86-3,2.88,0,5.74.15,8.61.24,5.95.19,11.9.13,17.85,0,5.13-.07,10.27-.32,15.4-.49C112.6,160.51,113.15,160.92,113.69,160.4Z"/><path class="cls-4" d="M272.76,183.09A13.67,13.67,0,0,1,271,179a6.9,6.9,0,0,1,6.88,1.16c2.33,1.91,4.64,3.84,7,5.73a8.84,8.84,0,0,0,2.83,1.61l1.62,1.18a33.51,33.51,0,0,1,1,14,16.2,16.2,0,0,1-.68,2.22l-.25.36-.05,0-4.34.91a46.46,46.46,0,0,0-6.46.35c-7.06-.2-13.92-1.31-20.35-4.38-1.43-.69-3-1.35-3.37-3.2,1.42.33,2.82.73,4.25,1,2.85.54,5.72,1,8.59,1.49.57.1,1.34-.17,1.39-.75.06-.75-.75-.7-1.29-.73a58.28,58.28,0,0,1-13.25-2.76c-3-.69-4-1.68-4.3-4.5,5.94,3,12.52,2.83,18.89,3.74a1.4,1.4,0,0,0,1.63-.71c-2.92-1.21-6-1-9-1.39A35.25,35.25,0,0,1,250,191.29a2.63,2.63,0,0,1-1.4-3.14c.42-1.24,1.67-1.41,2.87-1.38a23.21,23.21,0,0,1,4,.68,15.28,15.28,0,0,0,1.6.58,86.78,86.78,0,0,0,12.05,2.5c.51.05,1.36.81,1.57-.15.17-.79-.85-.72-1.38-1a2,2,0,0,0-.61-.09c-4.21-.68-8.4-1.39-12.54-2.44a6.6,6.6,0,0,1-4.45-2c-.82-1-1.43-2.09-.88-3.29s1.71-1.22,2.85-1.14a62.4,62.4,0,0,1,7.68,1.26l11.32,2.14,4.16,1.56C275.63,184.34,274.54,183.08,272.76,183.09Zm5,2.76-.12-.07.12.06.21.2.07-.13Z"/><path class="cls-3" d="M289.29,188.68l-1.62-1.18a143.82,143.82,0,0,0,20.59-3.62c.65-.17,1.28-.41,1.93-.63a1.08,1.08,0,0,0,.84-1.16c-.14-2.66-.21-5.32-.42-8s-.52-5.59-.84-8.38c-.51-4.55-.59-9.14-1.43-13.65a28.7,28.7,0,0,0-.71-4.31.7.7,0,0,1,.32-.95c.36-.13.55.23.77.43.86.78.81,1.92,1,2.91.85,4.82,1.05,9.72,1.64,14.58.63,5.11,1,10.26,1.24,15.4.06,1.11.63.9,1.23.63a37.69,37.69,0,0,1,10-2.86,10.84,10.84,0,0,1,6.56.6,4.48,4.48,0,0,0,1.11.11,10,10,0,0,1-5,.59c-3.19-.32-6.11.8-9.09,1.57a17.49,17.49,0,0,0-6.37,3.43c-1.7,1.34-4.13,1.29-6.22,1.93-.1,0-.21,0-.31,0-2.55.33-2.53.34-1.86,2.77a45.06,45.06,0,0,1,1.72,14.38,31.45,31.45,0,0,1-.59,3.69,1.28,1.28,0,0,1-1.56,1.16l0,0a45.2,45.2,0,0,0,.71-7.26,46.32,46.32,0,0,0-1.12-10.19,6.56,6.56,0,0,0-.22-1.07c-.88-2.63-.7-2.78-3.54-2.34-2.57.39-5.15.71-7.72,1.08A6.89,6.89,0,0,0,289.29,188.68Z"/><path class="cls-1" d="M283,116.71c.81.28,1.59.58,1.71,1.59-4.42,11.4-7.84,23.18-13,34.32a34.22,34.22,0,0,0-2.41,5.56l-2.47,0c1-2.17,2-4.33,3-6.51,3.47-7.65,6.27-15.55,9.07-23.46Q281,122.46,283,116.71Z"/><path class="cls-6" d="M266.9,158.16l2.47,0c1.68,0,3.35,0,5,0,1.08,0,1.54.49,1.53,1.51q-.06,7.07-.13,14.12a1.29,1.29,0,0,1-1.29,1.43c-1.51.24-3,0-4.54.14-.35-1-.7-2-1.06-3a6.58,6.58,0,0,1,2.17,0c.11.83.85.69,1.34.72.31,0,.51-.42,0-.71l.58-.24c.64-.83,0-1.93.59-2.79.07-.1-.4-.11-.62,0v-.78c.16.13.37.26.4-.05s0-.52-.39-.47v-1c.58-.71.59-1,0-1.26a25.48,25.48,0,0,1,0-3.27c.14-1.21-.28-1.74-1.46-1.7l1.1-.47h-7.34c-.25,0-.31.22-.32.44l-.42.13c-1.23-1.92-3.13-2.63-5.26-2.94.87-.38,1.78,0,2.66-.14.76.46,1.54.14,2.31,0l.49,0,1.3.1Z"/><path class="cls-3" d="M311.09,142.69c.55-7.12,1.77-13.78,4.58-20,1.19-2.65,2.87-5.11,5.87-6.2.54-.2,1.06-.42,1.32.21s-.52.63-.84.79c-3.17,1.64-4.65,4.63-5.87,7.68a50.82,50.82,0,0,0-3.25,15.52c0,.62-.22,1.23-.29,1.85s-.22,1.42-1,1.35S311.14,142.91,311.09,142.69Z"/><path class="cls-3" d="M285,206.23l4.34-.91a2.58,2.58,0,0,1-1,2.36,1.15,1.15,0,0,1-2.1-.37C286,206.48,285,207,285,206.23Z"/><path class="cls-7" d="M302.25,208.17l-.08.29-.15-.09.2-.23Z"/><path class="cls-7" d="M289.36,205.27l.25-.36Z"/><path class="cls-1" d="M167.28,41.33a2.26,2.26,0,0,1,2.05.9c2.2,2.58,4.8,4.77,7,7.37a40.43,40.43,0,0,0,3.76,3.49c.61.54.94.08,1.3-.29q7.55-7.66,15.07-15.34c3.33-3.4,6.6-6.85,9.94-10.24,1.29-1.31,2.64-1.25,4,.06.94.9,1.84,1.86,2.77,2.78,1.72,1.69,1.77,3,0,4.86-2.27,2.39-4.61,4.72-6.9,7.08Q195,53.67,183.73,65.34c-2.19,2.27-3.88,2.34-6.11.07Q170,57.64,162.34,49.85c-1.64-1.66-1.65-3.08,0-4.76,1-1,2-2,3-3A2.16,2.16,0,0,1,167.28,41.33Z"/><path class="cls-9" d="M230.08,156.3c5.82,0,11.65.14,17.47-.22a10.77,10.77,0,0,1,1.36-.24c1.4.11,2.52.6,2.46,2.31.06,1.15.13,2.31.19,3.47-.72.07-1.48-.19-2.17.22h-.81a1.71,1.71,0,0,0-1.71,0h-.49a28.86,28.86,0,0,0-7.37,0h-1.76c-.14-.19-.27-.19-.41,0H236a9.11,9.11,0,0,0-3.89,0h-.52a44.75,44.75,0,0,0-7.59-.12c-2.62.43-2.43-1.85-3.15-3.26.09-2,.09-2,2.21-2.07l6.24-.11Z"/><path class="cls-9" d="M271.07,172.41a6.58,6.58,0,0,0-2.17,0L264.61,161l.42-.13.6.08,1.89,0,.32,0h1.56c.64,0,1.31.25,1.9-.2l.28.13c1.19,0,1.61.49,1.47,1.7a25.48,25.48,0,0,0,0,3.27l0,1.26v1c0,.18,0,.36,0,.53v.78l0,2.75-.57.24Z"/><path class="cls-6" d="M250,191.29a35.25,35.25,0,0,0,11.71,3.09c3,.36,6,.18,9,1.39a1.4,1.4,0,0,1-1.63.71c-6.37-.91-12.95-.7-18.89-3.74Z"/><path class="cls-6" d="M254.48,197.24A58.28,58.28,0,0,0,267.73,200c.54,0,1.35,0,1.29.73,0,.58-.82.85-1.39.75-2.87-.45-5.74-.95-8.59-1.49-1.43-.26-2.83-.66-4.25-1Z"/><path class="cls-6" d="M256.16,186.87c4.14,1,8.33,1.76,12.54,2.44a2,2,0,0,1,.61.09c.53.26,1.55.19,1.38,1-.21,1-1.06.2-1.57.15a86.78,86.78,0,0,1-12.05-2.5,15.28,15.28,0,0,1-1.6-.58C255.81,187.39,256.26,187.46,256.16,186.87Z"/><path class="cls-6" d="M272.76,183.09c1.78,0,2.87,1.25,4.08,2.34l-4.16-1.56A.56.56,0,0,0,272.76,183.09Z"/><path class="cls-4" d="M224,161.7a44.75,44.75,0,0,1,7.59.12A46.93,46.93,0,0,1,224,161.7Z"/><path class="cls-4" d="M239,161.88a28.86,28.86,0,0,1,7.37,0A69.69,69.69,0,0,1,239,161.88Z"/><path class="cls-4" d="M232.12,161.82a9.11,9.11,0,0,1,3.89,0A16.33,16.33,0,0,1,232.12,161.82Z"/><path class="cls-4" d="M249.39,161.84c.69-.41,1.45-.15,2.17-.22C250.89,162.25,250.12,161.82,249.39,161.84Z"/><path class="cls-4" d="M246.87,161.87a1.71,1.71,0,0,1,1.71,0Z"/><path class="cls-9" d="M209,164.17c-.23,0-.37-.1-.37-.35C209,163.69,208.92,164,209,164.17Z"/><path class="cls-4" d="M236.84,161.87c.14-.18.27-.18.41,0Z"/><path class="cls-6" d="M37.46,186.79l.29.15a3,3,0,0,1-.39.13c-.08,0-.17-.08-.25-.12Z"/><path class="cls-6" d="M108.55,100.76c-.56,1.08-.37,2.26-.48,3.4A19.54,19.54,0,0,1,97.2,100a45.34,45.34,0,0,1-5.33-5c-.36-.39-.94-.88-.45-1.47s1.1-.16,1.54.15c1.18.84,2.33,1.75,3.46,2.65,3.16,2.52,6.93,3.43,10.78,4.13C107.66,100.5,108.1,100.64,108.55,100.76Z"/><path class="cls-10" d="M115.4,60.82a11.25,11.25,0,0,1,2.95.2c.76.29,1.29.72,1.06,1.64s-.93.6-1.53.49a18.27,18.27,0,0,0-7.43.49c-.74.17-1.68.51-2-.57s.7-1.38,1.51-1.57A15.91,15.91,0,0,1,115.4,60.82Z"/><path class="cls-6" d="M84.88,72.09a3.74,3.74,0,0,1-.3,1.76,3.28,3.28,0,0,0,0,3.13c.15.32.5.67.08.93s-.71-.09-1-.33A2.2,2.2,0,0,1,83,75.89a7.55,7.55,0,0,1,.51-2.58c.43-1.3.53-2.42-1-3-.33-.13-.77-.35-.51-.78s.72-.27,1-.12A3.09,3.09,0,0,1,84.88,72.09Z"/><path class="cls-10" d="M116.53,68.9c-.15.69-.11,1.52-1,1.58-.7,0-.83-.65-.71-1.13.21-.75-.13-2,.83-2.12S116.22,68.34,116.53,68.9Z"/><path class="cls-6" d="M83.61,82.5c0-.3,0-.59,0-.89.37-.51.79-.26,1.23-.12s.86.32.74.8a.74.74,0,0,1-1.06.54C84.19,82.71,83.9,82.61,83.61,82.5Z"/><path class="cls-10" d="M104,54.23l.32,0-.24.32-.18-.19A.54.54,0,0,0,104,54.23Z"/><path class="cls-6" d="M120,89.72l-.06.1.06-.09Z"/><path class="cls-1" d="M264.32,158c-.77.09-1.55.41-2.31,0a236.8,236.8,0,0,1-8.2-41.55c.77-.08,1.37-.79,2.21-.59a71,71,0,0,0,1.11,10.28A252.81,252.81,0,0,0,264.32,158Z"/><path class="cls-3" d="M230.08,156.3l-.77,0c-.55-3-.08-6-.28-9.07-.3-4.31-.64-8.62-.61-12.94,0-.37,0-.73,0-1.1a.84.84,0,0,1,.91-.87c.54,0,.61.49.63.92a85.9,85.9,0,0,1,.38,9.06c-.18,3.2.58,6.37.19,9.53C230.35,153.29,231.25,154.91,230.08,156.3Z"/><path class="cls-4" d="M104,54.23a.54.54,0,0,1-.1.16c-4,.37-8.06.66-12.07,1.13-3.7.44-7.37,1.07-11.06,1.61a3.63,3.63,0,0,1,3-1c.86,0,1.12-.58.92-.9-.62-1,.22-2-.38-2.92.59-.27.76.43,1.19.32,0,.26.57.6-.16.74s-.46.48-.16.83c0,.31.14.64.53.57s.14-.36.11-.57c.43-.12.59.58,1.17.34-.37-.76-.38-1.73-1.49-1.91.65-1.2,1.2-2.79,2.5-3.06.82-.18,1.43-.63,2.17-.85.28-.08.65-.25.52-.65s-.5-.48-.9-.4l-3.34.72c-.42-.34.06-.69,0-1-.19-.55-.32-1.14-1-1.29-.36-.08-.9,0-.89.36s-.28,1.36.43,1.64c.53.22.47.27.08.51a1.35,1.35,0,0,1-1.74-.13c-.5-.45-.14-.83.26-1.14.22-.17.41-.37.27-.66s-.5-.2-.81-.18c-1,.05-1.93,1.07-2.91,0a144.24,144.24,0,0,1,14.76-2c.77-.06,1.49-.49,2.29-.31.71.34,1.26,1.08,2.18.92v0c.93.22,1.73,1.43,2.86.39,0-.05.26.07.4.11-.39.48.32,1.06-.24,1.61a1.38,1.38,0,0,0,.11,2.28l-1.25.31c-.07-.4-.09-.83-.55-1-.06,0-.28.19-.28.29,0,.55.39.66.82.71-.08.47-.81.5-.74,1.08,2.06-.08,2.06-.08,2-1.39,1.78.28.33,1.49.62,2.19l-.39.12.08.12.32-.23A2.07,2.07,0,0,1,104,54.23ZM88.32,51.4v-.31c.19,0,.42,0,.46-.3,0,0-.12-.17-.17-.16-.25,0-.26.26-.3.46,0,0-.12.07-.11.08a1.63,1.63,0,0,0,.11.23l.13.07Zm15.35,2.08c0-.24-.16-.32-.32-.22a.4.4,0,0,0-.16.24c0,.17.09.31.26.25S103.61,53.55,103.67,53.48ZM87.61,54.69l-.11.24c.08,0,.18.12.24.09s.07-.15.11-.23Zm2.72-1.36a1.21,1.21,0,0,0,.14-.2s0-.09,0-.14-.18,0-.18.07A1.08,1.08,0,0,0,90.33,53.33Zm11-6.44,0,.22s.08-.06.08-.1S101.38,46.93,101.36,46.89Z"/><path class="cls-6" d="M76.28,116.83a1,1,0,0,1-.06-1.2c.14.34.25.62.36.91Z"/><path class="cls-6" d="M261.14,104.1l-.27-3a28.47,28.47,0,0,0,15.59-6.35c-.06,1.43-1.75,3.43-3.16,4.57C269.73,102.23,265.57,103.49,261.14,104.1Z"/><path class="cls-2" d="M275.85,111.71c0,.57.28.82.91.73a.83.83,0,0,1,.87.53c.17.46-.28.6-.53.83-2.31,2.15-5,3.73-7.52,5.64-.73.56-1.32.66-1.59-.44a17.94,17.94,0,0,0,4-3.42C273.32,114.33,274.57,113,275.85,111.71Z"/><path class="cls-6" d="M250.1,73.6l1.18-.82a5.25,5.25,0,0,1-.33,3.41c-1.13,3.77.72,5.36,4.6,4.88l.53,0c.21.29.14.49,0,.61a5,5,0,0,1-4.73.25,3.09,3.09,0,0,1-1.89-3.11C249.35,77,250.19,75.36,250.1,73.6Z"/><path class="cls-6" d="M255.45,88.72a8.14,8.14,0,0,1-3.34-.41c-.48-.14-1.11-.36-1-1,.19-.87.82-.31,1.27-.26a27.7,27.7,0,0,0,8.08,0c.37-.06.93-.69,1.13.13.16.64-.48.75-.9.86A15.08,15.08,0,0,1,255.45,88.72Z"/><path class="cls-6" d="M285.19,77.55a3.87,3.87,0,0,0,1.41-3.22,11.94,11.94,0,0,1,1-3.92c.59-1.63,2.11-1.85,3.51-2.21.52-.13.83.39,1.09.76.44.64.12,1.16-.38,1.63-.71-1.64-1.59-1.72-2.85-.54-1.73,1.62-1.07,3.81-1.52,5.73A1.93,1.93,0,0,1,285.19,77.55Z"/><path class="cls-3" d="M266.48,117.32c-1.26-.11-1.8-1.28-2.74-1.88a12.19,12.19,0,0,1-1.22-1.17c-.82-.71-1.12-1.35,0-2,.21-.12.31-.41.45-.62Z"/><path class="cls-6" d="M257,81.25l-.06.08.06-.09Z"/><path class="cls-6" d="M257,81.24l.05-.09-.05.1Z"/><path class="cls-4" d="M266.28,74.74c-.75,0-1.43,0-2.11-.11-3.26-.34-5-2.06-5.33-5.31a15.29,15.29,0,0,1,0-4.22c.15-.95.58-1.14,1.45-1.18,4.06-.14,8,.82,12,1.31a.8.8,0,0,1,.81.94,14,14,0,0,1-1.63,6.76C270.21,74.93,268.15,74.73,266.28,74.74Zm-.66-5.57c0-1.6-.5-2.63-1.3-2.68s-1.59,1.09-1.51,2.54c.05,1,.2,2.07,1.4,2.09S265.48,70,265.62,69.17Z"/><path class="cls-4" d="M243.8,63a37.21,37.21,0,0,1,7.46.33,1.11,1.11,0,0,1,1.07,1.25,14.85,14.85,0,0,1-.66,5.21,3.86,3.86,0,0,1-4,3,12.4,12.4,0,0,1-4.16-.44C244.19,69.23,243.85,66.1,243.8,63ZM247,66.92c.11,1,.05,2.29,1.39,2.28s1.35-1.29,1.37-2.25-.14-2.13-1.29-2.16S247.13,66,247,66.92Z"/><path class="cls-9" d="M243.8,63c0,3.12.39,6.25-.33,9.34-1.87-.84-3-2.14-2.83-4.32.08-1.24-.32-2.47-.13-3.75.15-.94.38-1.41,1.41-1.27A14.74,14.74,0,0,0,243.8,63Z"/><path class="cls-6" d="M173.7,143.7c-.1-1-1.26-1.24-1.45-2.15.17-.11.47-.31.48-.3,1.61,2.17,4.06,2.62,6.46,3.15a2.17,2.17,0,0,1,1.7,2,25.28,25.28,0,0,0,1.37,4,9.55,9.55,0,0,0,3.86,4.79c.88.61,1.68,1.34,2.69,2.16a7.61,7.61,0,0,1-5.69-3,19.39,19.39,0,0,1-3.52-7.1,2.12,2.12,0,0,0-1.63-1.66C176.5,145.08,174.91,144.8,173.7,143.7Z"/><path class="cls-1" d="M263.1,59.85a19.84,19.84,0,0,1,6,1,3.37,3.37,0,0,1,1.22.66.89.89,0,0,1,.28,1c-.19.44-.58.29-.94.23a34.83,34.83,0,0,0-8.81-1c-.43,0-1,0-.89-.57s.29-1.14,1-1.21S262.38,59.88,263.1,59.85Z"/><path class="cls-4" d="M103.47,46c-.26.18-.37.07-.37-.2s.11-.64.54-.6c.28,0,.54.17.54.46C104.19,46.19,103.67,45.79,103.47,46Z"/><path class="cls-4" d="M99.31,45.11l.31-.22.08.11-.38.13Z"/><path class="cls-2" d="M266.9,158.16h-.79c.33-6,.55-12,.7-17.94.11-4.26.31-8.52.57-12.78a33.35,33.35,0,0,1,.65-4.77c.35-1.65,2-2,3.21-2.75a55.51,55.51,0,0,0,6.79-5,1.52,1.52,0,0,1,2.28-.06,12.78,12.78,0,0,0,2.71,1.83q-2,5.75-4,11.48c-2.8,7.91-5.6,15.81-9.07,23.46C268.93,153.83,267.91,156,266.9,158.16ZM272.7,128c0-.75-.3-1.2-1.09-1.17s-1.41.44-1.37,1.31a1.21,1.21,0,0,0,1.37,1.17C272.51,129.31,272.74,128.75,272.7,128Zm-1.58,17.75c-.21-.28.15-1.14-.89-1.09-.86.05-1.45.45-1.47,1.3,0,.68.23,1.32,1.19,1.28S271.17,146.77,271.12,145.73Z"/><path class="cls-2" d="M264.32,158a252.81,252.81,0,0,1-7.19-31.91A71,71,0,0,1,256,115.82c1.11-.56,2.23-1.09,3.33-1.67.63-.34,1-.07,1.53.31,2.05,1.6,3.64,3.72,5.82,5.17.39.26.33.59.28,1a138.48,138.48,0,0,0-.93,14.1c-.13,3.21-.37,6.43-.56,9.65-.26,4.56-.45,9.14-.68,13.71Z"/><path class="cls-4" d="M171.19,146.46c1.1.45,2.2.91,3.3,1.34,1.9.75,2.41,1.52,2.1,3.45-.2,1.21-.7,2-2.21,1.73-2.72-.45-5.47-.73-8.2-1.08Z"/><path class="cls-6" d="M277.73,185.85l.28.06-.07.13-.21-.2Z"/><path class="cls-6" d="M277.73,185.84l-.12-.06.12.07Z"/><path class="cls-10" d="M269.4,161h-.3a.81.81,0,0,0-1.26,0l-.32,0a1.49,1.49,0,0,0-1.89,0l-.6-.08c0-.22.07-.44.32-.44h7.34l-1.1.47-.29-.13C270.65,160.7,270,160.5,269.4,161Z"/><path class="cls-10" d="M271.07,172.41h1.39c.46.29.26.74,0,.71C271.92,173.1,271.18,173.24,271.07,172.41Z"/><path class="cls-10" d="M273,172.18l0-2.75c.22-.15.69-.14.62,0C273.05,170.25,273.67,171.35,273,172.18Z"/><path class="cls-10" d="M273,167.16l0-1.26C273.6,166.15,273.59,166.45,273,167.16Z"/><path class="cls-10" d="M273,168.65c0-.17,0-.35,0-.53.37,0,.41.28.39.48S273.16,168.78,273,168.65Z"/><path class="cls-6" d="M269.4,161c.59-.5,1.25-.3,1.9-.2C270.71,161.25,270,161,269.4,161Z"/><path class="cls-6" d="M265.63,161a1.49,1.49,0,0,1,1.89,0Z"/><path class="cls-6" d="M267.84,161a.81.81,0,0,1,1.26,0Z"/><path class="cls-6" d="M85.17,54.23c-.3-.35-.52-.71.16-.83s.17-.48.16-.74h0c1.11.18,1.12,1.15,1.49,1.91-.58.24-.74-.46-1.17-.34h0c-.21-.31-.42-.3-.62,0Z"/><path class="cls-6" d="M102.45,49.52c.06,1.31.06,1.31-2,1.39-.07-.58.66-.61.74-1.08h0l1.25-.31Z"/><path class="cls-6" d="M101.19,49.83c-.43,0-.84-.16-.82-.71,0-.1.22-.31.28-.29.46.17.48.6.55,1Z"/><path class="cls-6" d="M103.67,53.48c-.06.07-.12.23-.22.27s-.28-.08-.26-.25a.4.4,0,0,1,.16-.24C103.51,53.16,103.62,53.24,103.67,53.48Z"/><path class="cls-6" d="M85.81,54.23c0,.21.29.5-.11.57s-.48-.26-.53-.57h.64Z"/><path class="cls-6" d="M88.31,51.09c0-.2,0-.42.3-.46,0,0,.18.12.17.16,0,.26-.27.26-.46.3Z"/><path class="cls-6" d="M87.61,54.69l.24.1c0,.08,0,.21-.11.23s-.16-.05-.24-.09Z"/><path class="cls-6" d="M90.33,53.33a1.08,1.08,0,0,1-.07-.27s.12-.05.18-.07,0,.1,0,.14A1.21,1.21,0,0,1,90.33,53.33Z"/><path class="cls-6" d="M101.36,46.89s.06.08.06.12,0,.07-.08.1S101.35,47,101.36,46.89Z"/><path class="cls-6" d="M103.08,51.72l-.32.23-.08-.12.39-.12Z"/><path class="cls-6" d="M88.32,51.4l.12.07-.13-.07Z"/><path class="cls-6" d="M88.32,51.09v.31h0a1.63,1.63,0,0,1-.11-.23s.07-.05.11-.08Z"/><path class="cls-1" d="M265.62,69.17c-.14.79-.15,2-1.41,2S262.86,70,262.81,69c-.08-1.45.64-2.59,1.51-2.54S265.64,67.57,265.62,69.17Z"/><path class="cls-1" d="M247,66.92c.18-.9.18-2.17,1.47-2.13S249.73,66,249.71,67s-.06,2.23-1.37,2.25S247.06,68,247,66.92Z"/><path class="cls-2" d="M272.7,128c0,.78-.19,1.34-1.09,1.32a1.21,1.21,0,0,1-1.37-1.17c0-.87.53-1.29,1.37-1.31S272.72,127.23,272.7,128Z"/><path class="cls-3" d="M271.12,145.73c.05,1-.3,1.45-1.17,1.49s-1.21-.6-1.19-1.28c0-.85.61-1.25,1.47-1.3C271.27,144.59,270.91,145.45,271.12,145.73Z"/><path class="cls-4" d="M85.8,54.23h-.62C85.38,53.93,85.59,53.92,85.8,54.23Z"/></svg>