<svg id="Capa_1" data-name="Capa 1" xmlns="http://www.w3.org/2000/svg" xmlns:xlink="http://www.w3.org/1999/xlink" viewBox="0 0 373.81 229.23"><defs><style>.cls-1,.cls-10,.cls-11,.cls-12,.cls-13,.cls-14,.cls-15,.cls-16,.cls-17,.cls-18,.cls-19,.cls-2,.cls-20,.cls-21,.cls-22,.cls-23,.cls-24,.cls-25,.cls-26,.cls-28,.cls-29,.cls-3,.cls-30,.cls-4,.cls-5,.cls-6,.cls-7,.cls-8,.cls-9{fill-rule:evenodd;}.cls-1{fill:url(#linear-gradient);}.cls-2{fill:#6c2910;}.cls-3{fill:#e7b897;}.cls-4{fill:#c57b59;}.cls-5{fill:#c7895e;}.cls-32,.cls-6{fill:#fccd74;}.cls-16,.cls-7{fill:#3d3d3c;}.cls-27,.cls-8{fill:#fff;}.cls-9{fill:url(#GradientFill_3);}.cls-10{fill:#2f2e2c;}.cls-11{fill:url(#GradientFill_5);}.cls-12{fill:url(#GradientFill_5-2);}.cls-13{fill:#814c2e;}.cls-14{fill:#734326;}.cls-15{fill:#985d3b;}.cls-16{stroke:#3d3d3c;stroke-miterlimit:22.93;stroke-width:0.22px;}.cls-17{fill:#542600;}.cls-18{fill:url(#GradientFill_3-2);}.cls-19{fill:url(#GradientFill_4);}.cls-20{fill:#ffec00;}.cls-21{fill:#3c1e00;}.cls-22{fill:#dd976b;}.cls-23{fill:#693101;}.cls-24{fill:url(#GradientFill_3-3);}.cls-25{fill:#c8662c;}.cls-26{fill:url(#GradientFill_3-4);}.cls-28{fill:url(#GradientFill_3-5);}.cls-29{fill:#44190c;}.cls-30{fill:url(#GradientFill_3-6);}.cls-31{fill:#dad49d;}</style><linearGradient id="linear-gradient" x1="243.26" y1="174.08" x2="316.57" y2="174.08" gradientUnits="userSpaceOnUse"><stop offset="0.24" stop-color="#e7b897"/><stop offset="1" stop-color="#bd7f5d"/></linearGradient><linearGradient id="GradientFill_3" x1="310.42" y1="190.59" x2="365.82" y2="190.59" gradientUnits="userSpaceOnUse"><stop offset="0" stop-color="#e7b897"/><stop offset="1" stop-color="#bd7f5d"/></linearGradient><linearGradient id="GradientFill_5" x1="70.47" y1="181.33" x2="157.38" y2="150.97" gradientUnits="userSpaceOnUse"><stop offset="0" stop-color="#985d3b"/><stop offset="1" stop-color="#542600"/></linearGradient><linearGradient id="GradientFill_5-2" x1="147.75" y1="170.88" x2="201.01" y2="220.77" xlink:href="#GradientFill_5"/><linearGradient id="GradientFill_3-2" x1="53.15" y1="155.86" x2="74.46" y2="188.83" xlink:href="#GradientFill_3"/><linearGradient id="GradientFill_4" x1="44.73" y1="150.13" x2="47.62" y2="169.92" gradientUnits="userSpaceOnUse"><stop offset="0" stop-color="#e7b897"/><stop offset="1" stop-color="#c57b59"/></linearGradient><linearGradient id="GradientFill_3-3" x1="90.9" y1="163.39" x2="70.15" y2="196.07" xlink:href="#GradientFill_3"/><linearGradient id="GradientFill_3-4" x1="38.9" y1="174.66" x2="29.53" y2="214.72" xlink:href="#GradientFill_3"/><linearGradient id="GradientFill_3-5" x1="281.9" y1="154.01" x2="259.17" y2="201.46" xlink:href="#GradientFill_3"/><linearGradient id="GradientFill_3-6" x1="215.8" y1="167.39" x2="196.19" y2="206.03" xlink:href="#GradientFill_3"/></defs><path class="cls-1" d="M318.84,156c-.18,6.2-5,13.6-5.7,20L303.09,186.7A34.7,34.7,0,0,1,291,192.1c-6.37,1.2-26.35-4.68-26.35-4.68s1.15-.15-3.06.3a15.26,15.26,0,0,1-5-.58,24.81,24.81,0,0,1-7-2.81c-.73-.51-2-1.46-1.18-1.78,1.05-.43,4.61.49,4.61.49s.66-.26,0-.48c-1.82-.59-6.58-2-7.27-3.83-.29-.79,0-1.45,1-1.2,8.42,2.25,6.47,1.24,6.47,1.24s-6.65-2.65-6.35-4.49,7.57,1,7.57,1-3.38-1.93-5.29-3.12-.53-3.51,2.37-2.13c4.87,2.31,5.31,2.07,8.79,3.6,0,0,.37-.16-.55-3.14s1.72-2.84,1.72-2.84,2.82,4.4,3.9,6a14.69,14.69,0,0,1,1.63,4.34s11.49-.42,15.7-1.21a74.67,74.67,0,0,1,10.26-.83s10.08-6.93,16.06-14.19C313,156.85,315.61,155.52,318.84,156Z"/><path class="cls-2" d="M315.24,140.58c-11.74,5.71-17.5,8.13-19.82,11.8s-10.9,23.49-10.9,23.49,14.25,9.07,22.56,4.26S321.71,143.73,315.24,140.58Z"/><path class="cls-3" d="M310.75,107.22c-.43-3.79-5.45-6.53-6.09-2.68s2.78,13,5,12S310.75,107.22,310.75,107.22Z"/><path class="cls-4" d="M309.67,107.73c.5,2.45,0,5.27-1.57,5.25-1.26,0-2.69-4.78-2.06-6.9C306.59,104.2,309.18,105.28,309.67,107.73Z"/><path class="cls-5" d="M336.55,139.69c10.14,4.17,15.57,6.31,19,9.88,5.63,5.88,5.76,14.14,12.27,30.8l-10.1,2.31-12,1.84c.26,0-1.87,7.55-2.54,13.75-.4,3.66,3.4,6.81,3.62,7.68.28,1.12,2.95,1.2,4.05,2.82,1.46,2.17-.54,4.22-.54,4.22-15.83,16.73-59.47,11.63-58.63-6.7.08-1.64,5.09-4.13,5.2-6,.3-5.19-.33-12.09.32-18.16,1.4-22.61,1.9-36.46,20.67-42.53a4.55,4.55,0,0,1,1.4,1.33C324.83,139.49,330.9,139.52,336.55,139.69Z"/><path class="cls-6" d="M326,151.71l-1.48,0-3.32,16.43-4.39-.7,3.89-19.66,1.79-1.07s.53,0,3.35-.1Z"/><path class="cls-2" d="M353.87,183.27l-7.08,1.08c-1.72-.88-2.86-1.48-2.86-1.48-.68-23.8,2.76-23.4,2.76-23.4S348.13,172.36,353.87,183.27Z"/><path class="cls-3" d="M343.27,126.84c-1.2,1.45-3.81,13.7-3,14.76,1,1.35,1.74,2.54-.09,4.11-6.22,5.31-11,5.82-14.85,5.71-5.29-.15-8.82-2.59-10.06-6.61-.35-1.16,2.26-6.06,2.11-7.29-.39-3-1.35-4.17-2.93-6.76C308.13,120.48,343.27,126.84,343.27,126.84Z"/><path class="cls-4" d="M344.14,124.71c-1.61,3.52-2.34,5-2.78,7.37-1.83,9.86-20.06,14.42-23.46,5.89a57.86,57.86,0,0,0-4-7.81C307.64,119.88,344.14,124.71,344.14,124.71Z"/><path class="cls-3" d="M357.27,113.56c-4.5,6.66-8.81,4.84-8.81,4.84-3,9.91-13,21.48-24.73,18.95-3.55-.76-6.52-3.38-9-5.92-7.37-7.51-5.14-22.18-4.48-31.76.44-6.41.73-3.8,1.18-7.76,1.74-15.32,20.81-18.57,32.07-13,10,4.93,11.31,14.45,8.24,23.25a28.49,28.49,0,0,0-1,6.4C356.29,100.8,361.78,106.9,357.27,113.56Z"/><path class="cls-7" d="M321.05,107.09c-1.17-2.07-3.11-4.81-5.95-3.81-1.79.63-2.47,2.34-2.81,4l.53-.93c2.47-4.25,5.28-2.67,7.17,1.13a.56.56,0,0,0,.74.31A.57.57,0,0,0,321.05,107.09Z"/><path class="cls-7" d="M331.69,107.76c.22-2.77,5.64-4.89,7.66-.86a17.47,17.47,0,0,1,.85,2.47c.28-7.68-9.05-6.54-9.66-1.64a.57.57,0,0,0,.56.59A.58.58,0,0,0,331.69,107.76Z"/><path class="cls-7" d="M333.63,96.49c-.31,3.18-.59,4.12,2.42,4.19a37,37,0,0,1,7.64,1.44S342.1,96.19,333.63,96.49Z"/><path class="cls-7" d="M321.58,96c.1,1.9.2,3.73-1.52,3.78s-6.62-.1-6.62-.1S314.34,96.4,321.58,96Z"/><path class="cls-4" d="M321.64,116.52a11.88,11.88,0,0,0,6.1-.48c1.3-.46.31,3.53-2.59,4S319.09,116.84,321.64,116.52Z"/><path class="cls-7" d="M324.17,119.37c-.77-.31-2.89-1.08-3.37-2l-.16-1c1.91-2.24,2.3-3,2.66-5.76a2.29,2.29,0,0,1,.21-1c.91,2.5-.28,5-1.7,7a5.81,5.81,0,0,0,2.72,1.29.7.7,0,1,1-.36,1.36Z"/><path class="cls-8" d="M320,122.82c2.1.54,7,1.28,9.85-.42s1.61,6-4,5.7S318.7,124.58,320,122.82Z"/><path class="cls-8" d="M324.22,113.42a1.06,1.06,0,0,1,.23.57,2.28,2.28,0,0,1-.21,1.42.62.62,0,0,1-.85.17c-.24-.21.14-.62.37-1.11S324.12,113.33,324.22,113.42Z"/><path class="cls-4" d="M352.17,109.55c-1.13,2-1.35,4.68.23,5.14,1.27.37,3.93-3.42,3.85-5.49C356.18,107.36,353.29,107.53,352.17,109.55Z"/><path class="cls-4" d="M327.28,129.33a6.83,6.83,0,0,1-3.52.5c-.8-.1.26,2,2,2S328.78,129.19,327.28,129.33Z"/><path class="cls-2" d="M338.45,189.86c-.06,8.42.91,14.76,3.48,17.69s1.61,8-2.63,12.48a30.43,30.43,0,0,0,11-7s2-2.05.54-4.22c-1.1-1.62-3.77-1.7-4.05-2.82-.22-.87-4-4-3.62-7.68,0-.35.08-.71.12-1.07A29.1,29.1,0,0,1,338.45,189.86Z"/><path class="cls-2" d="M345.16,168.49c-1,1.13-10.71,14.29-20.31,13.88s-18-.88-18-.88-1.48,2.16,5,3.17,22.12,2.55,25.16,6.16a15.43,15.43,0,0,1,1.53,2.21c0-1,5,9.08,5,8-.67-1.4.54-14.15,2.52-18.77S345.75,169.92,345.16,168.49Z"/><path class="cls-9" d="M365.76,187.26c-.88,8.29-10.95,14-27.35,14-4.52,0-18.11-.52-23.45-6.36-.8-.88-4.3-3-4.52-4.1-.16-.82.76-.71.79-1.49.06-1.29.57-1.84,2.1-1.34a80.35,80.35,0,0,0,10.07,2.2s-4.77-2.19-4.42-3.39,2.77-.7,4.77-.25a12.2,12.2,0,0,1,4.37,1.74c.93.63,1.69,2.55,2.29,2.64,4.12.57,10.37-1.58,16.74-7a13.55,13.55,0,0,1,2.81-1.84C357.25,178.52,366.67,178.63,365.76,187.26Z"/><path class="cls-6" d="M317.18,136.59c.06,6,5.07,13.46,5.07,13.46l-7.43,6.73S310.79,141.17,317.18,136.59Z"/><path class="cls-6" d="M323.65,150.14l4.82,9.92s14.77-13.77,14-19.12-1.77-4.92-1.77-4.92C335.85,142.88,330.53,145.37,323.65,150.14Z"/><path class="cls-10" d="M128.52,119.65c1-3.75,1.85-42.16,1-43-4.83-4.88-11.06-4-12.29-.57a4.19,4.19,0,0,0,0,2.56c-2.16.13-3.88,1.18-4.46,2.8a5,5,0,0,0,.71,4.21,4,4,0,0,0-4.18,1.8c-.8,1.56-.12,3.62,1.54,5.13a3.49,3.49,0,0,0-.55,1,4.48,4.48,0,0,0,.14,3,4.25,4.25,0,0,0-2.92,2c-1,1.94.45,4.32,3.26,5.39a3.52,3.52,0,0,0,.36,3.11,3.74,3.74,0,0,0-1.32,1.73c-.69,1.91.35,5,3.51,6.87a6.48,6.48,0,0,0-.21,1.52,7.67,7.67,0,0,0,7.32,7.51,5.85,5.85,0,0,0,2.84,2.06c2.85,1,6,.08,7.15-2.05C131.36,122.94,130.51,120.86,128.52,119.65Z"/><path class="cls-10" d="M152.64,124.91c1.63-4.2,26.08-41.94,27.3-42.28,7.19-2,11.76,2.32,10.56,6.32a6,6,0,0,1-1.66,2.49,4.83,4.83,0,0,1,1.86,5.22,6.75,6.75,0,0,1-3.35,3.68,3.81,3.81,0,0,1,2.28,4.08c-.35,2-2.27,3.59-4.63,4.12a4.23,4.23,0,0,1-.19,1.26,6.06,6.06,0,0,1-2.09,2.86,4.28,4.28,0,0,1,1.11,3.58c-.44,2.44-3.21,3.93-6.23,3.4a4.74,4.74,0,0,1-2.34,2.82,4.43,4.43,0,0,1,0,2.42c-.67,2.23-3.58,4.68-7.41,4.7a9.21,9.21,0,0,1-.82,1.59c-2,3.16-6.84,5.55-11,3.19a5.93,5.93,0,0,1-3.71.41c-3-.62-5.07-3.3-4.58-6A4.94,4.94,0,0,1,152.64,124.91Z"/><path class="cls-11" d="M118.2,146.67c1.46,6-1.25,14.43-.22,20.82l-6.88,12.95a34.73,34.73,0,0,1-10.28,8.41c-5.83,2.83-26.65,2.44-26.65,2.44s1.07-.46-2.88,1.09a15,15,0,0,1-5,.77,24.86,24.86,0,0,1-7.5-.86c-.85-.3-2.27-.89-1.61-1.41.9-.68,4.57-.74,4.57-.74s.57-.43-.12-.46c-1.92-.09-6.87-.16-8-1.78-.49-.68-.35-1.41.62-1.41,8.71-.06,6.56-.51,6.56-.51s-7.1-.8-7.3-2.66,7.56-1,7.56-1-3.77-1-5.93-1.61-1.43-3.25,1.73-2.68c5.31.94,5.66.59,9.43,1.15,0,0,.31-.26-1.36-2.88s.91-3.2.91-3.2,3.87,3.51,5.36,4.8a14.81,14.81,0,0,1,2.71,3.75s11-3.43,14.82-5.29a73.89,73.89,0,0,1,9.68-3.51s7.9-9.34,11.75-17.92C112.75,149.05,115,147.06,118.2,146.67Z"/><path class="cls-5" d="M150.64,141.55c10.09,4.27,15.5,6.48,18.88,10.08,5.57,5.94,5.61,14.2,11.95,30.93l-10.13,2.2-12,1.71c.27,0-2,7.54-2.69,13.73-.44,3.65,3.33,6.84,3.54,7.72.27,1.12,2.94,1.23,4,2.86,1.44,2.18-.58,4.22-.58,4.22-12.44,12.86-44.87,13.87-53.83,1.5,0,0-5.05-3.12-4.72-8.83.09-1.64,5.13-4.07,5.26-6,.36-5.18-.21-12.08.51-18.15-7.93-1.93-12.44-14.86-12.44-14.86,2.24-2.51,3.21-4,5.18-6.57,5.57-7.16,8.07-12.55,11.49-15.15s6.21-3.26,9.69-4.1c2.27-.55,4.64-1,7.21-1.63a4.38,4.38,0,0,1,1.37,1.34C138.92,141.23,145,141.32,150.64,141.55Z"/><path class="cls-6" d="M179.84,178.07c.5,1.43,1,2.92,1.63,4.49l-10.13,2.2-11,1.56a19.41,19.41,0,0,1,1.08-4.65C162,181.51,173.75,179.24,179.84,178.07Z"/><path class="cls-6" d="M155.63,147.44c14.64,7.32,15.26,10.11,17.67,20.86.81,3.59,1.82,8.1,3.66,14l-1.2.37c-1.86-6-2.88-10.5-3.69-14.14-2.31-10.28-2.91-12.95-17-20Z"/><path class="cls-6" d="M157.39,145.37c13.51,5,15.17,11.1,19.14,25.59.94,3.43,2,7.35,3.44,11.91l-1.21.38c-1.4-4.5-2.49-8.47-3.44-12-3.85-14-5.46-19.93-18.37-24.74Z"/><path class="cls-8" d="M150.64,141.55c3.31,1.4,6.12,2.58,8.51,3.66-9.77,7.79-18,10.37-26,7-4.42-1.85-7.38-5.79-9.2-9.15,2.53-.65,5.17-1.11,8.06-1.84a4.38,4.38,0,0,1,1.37,1.34C138.92,141.23,145,141.32,150.64,141.55Z"/><path class="cls-6" d="M127.39,144.34c-9.34,2.32-10.81,4.23-13.31,7.46l-.4.51a55.42,55.42,0,0,0-3.13,4.7A99.64,99.64,0,0,1,100,171.43L99,170.6a98.75,98.75,0,0,0,10.43-14.26c1.15-1.84,2.13-3.41,3.21-4.8l.4-.51c2.67-3.46,4.25-5.49,14-7.91Z"/><path class="cls-2" d="M152.13,134c8.57,1.93,15.22,9.65,14.58,12.65s-30.24,9.22-30.24,9.22-21.66-12-17.58-15.87S133,132.93,133,132.93Z"/><path class="cls-2" d="M167.49,185.31l-7.08,1c-1.72-.9-.06-2.26-.06-2.26-.43-23.81,1.28-21.45,1.28-21.45A58.5,58.5,0,0,0,167.49,185.31Z"/><path class="cls-6" d="M167.49,185.31l-7.08,1h0a19.64,19.64,0,0,1,1.08-4.64c.19-.06,1.79-.38,4-.82A47,47,0,0,0,167.49,185.31Z"/><path class="cls-12" d="M178.41,183.15c-.24,2.32-.42,4.45-.66,6.38-.74,5.89-4.64,15.61-12.25,13.75-9.77-2.37-18.57-24.14-19.68-25.12s-5.57-3.47-9.24-6.37c-2.15-1.7-4.75-3.72-4-5,.06-.11.5-.52.8-.46s2,2.2,2.23,2-2.22-2.75-2.48-3.5a1.06,1.06,0,0,1,.81-1.24c.36.06,1.13,1,1.94,1.65,1.27,1,2.62,2,2.62,2s-4.72-4.88-3.81-5.74a1.48,1.48,0,0,1,2.06.13,29.13,29.13,0,0,0,4.65,3.78s-4.32-4.05-4.26-5.33c0-.59,1.11-1,1.74-.62a17,17,0,0,1,2.38,2.18c2.92,2.46,5.36,4.94,8.55,3.67.54-.22,3.81-4.51,5.95-4s1.51,1.39-.21,3.32c-2.15,2.42-1,4-1,5.47a13.45,13.45,0,0,1-1,3.8l12.17,11.32Z"/><path class="cls-13" d="M157.4,128.23c-1.21,5.17-3.21,9.11-4.83,12.77-.36.81,0,1,.35,1.31,1.12,1.05,4.1,1,2.2,2.32-6.72,4.72-13.49,9.07-17.67,8.76-5.63-.42-7.64-7-8.48-11.12-.24-1.19,2.85-1.27,2.81-2.51-.09-3.06-2.14-6.68-3.47-9.41C123,119.51,157.4,128.23,157.4,128.23Z"/><path class="cls-14" d="M157.4,128.23a54.14,54.14,0,0,1-3.63,10.1c-.38.85-12.26,6.15-16.21,5.94-4.47-.25-5.66-.67-5.78-4.51-.09-3.06-2.14-6.68-3.47-9.41C123,119.51,157.4,128.23,157.4,128.23Z"/><path class="cls-10" d="M127.91,83.91c-3.26,1.5-3.74,3.54-3.62,7.9.09,3.27,2,14.24,2,14.24L132.68,86Z"/><path class="cls-15" d="M168.23,110.56c5.14-1.29,8.25,3.22,2.89,8.68s-8,2.15-8,2.15a33.46,33.46,0,0,1-8.15,12.76c-11.47,10.81-34,1.84-31-19,1.46-10.31,4.35-28.65,6.57-29.88,3.11-1.71,32.81,6.12,33.35,7.83s.54,12.12.54,12.12l1.18,7.93Z"/><path class="cls-7" d="M162.33,93.51l-.75,9.76,3.21,12s14.16-20,11.37-24.45-5.36-2.9-5.36-2.9-3-9.54-7.29-11.36-6.22,1.18-6.22,1.18-2.36-3.65-5.25-4.18a2.3,2.3,0,0,0-3,2.14s-6.11-5.9-9-4.4a3.69,3.69,0,0,0-2.15,4.19s-6.43-4.62-8.47-2.9,0,5.15,0,5.15-1.72-.32-3.54,2.68C120.41,89.42,157.74,93.18,162.33,93.51Z"/><path class="cls-8" d="M147.85,106.65c-2.4,2.81-1.47,5.26,2.08,5.79,2.8.42,6.25-.53,4.21-4.26C153.31,106.64,150.27,106,147.85,106.65Z"/><path class="cls-8" d="M129.93,102.54c-.86,1-2,3.34-.68,4.91s4.2,1.25,4.76.53S134,101.52,129.93,102.54Z"/><path class="cls-10" d="M136.64,106.38c-.77-2.24-2.19-5.29-5.17-4.81-1.87.3-2.85,1.86-3.48,3.47l.68-.82c3.19-3.74,5.67-1.68,6.85,2.4a.57.57,0,1,0,1.12-.24Z"/><path class="cls-10" d="M147,109c.71-2.69,6.43-3.8,7.69.52a16.13,16.13,0,0,1,.39,2.59c1.65-7.5-7.72-8-9.2-3.34a.56.56,0,0,0,.44.67A.57.57,0,0,0,147,109Z"/><path class="cls-10" d="M133.15,102c1.5.34,2.38,2.1,2,3.93s-2,3-3.45,2.7-2.38-2.1-2-3.93S131.66,101.68,133.15,102Z"/><path class="cls-10" d="M151.38,106.07c1.5.34,2.38,2.1,2,3.93-1,4.37-6.41,3.14-5.42-1.22C148.34,107,149.89,105.74,151.38,106.07Z"/><path class="cls-10" d="M150.27,99c-.87,3.08-1.31,4,1.64,4.55a37.47,37.47,0,0,1,7.25,2.79S158.66,100.19,150.27,99Z"/><path class="cls-10" d="M137.55,96.2c-.25,1.89-.48,3.71-2.18,3.45s-6.49-1.28-6.49-1.28S130.36,95.31,137.55,96.2Z"/><path class="cls-8" d="M130.71,102.52c.57-.29,1.13-.32,1.25-.08s-.23.67-.8,1-1.13.33-1.25.09S130.14,102.81,130.71,102.52Z"/><path class="cls-8" d="M148.58,107.18c.56-.29,1.12-.33,1.25-.08s-.23.67-.8,1-1.13.33-1.25.09S148,107.47,148.58,107.18Z"/><path class="cls-14" d="M135.54,115.77a11.91,11.91,0,0,0,6.08.62c1.36-.22-.32,3.53-3.28,3.52S133,115.63,135.54,115.77Z"/><path class="cls-10" d="M137.52,119c-.71-.44-2.66-1.58-3-2.58v-1c2.28-1.86,2.8-2.5,3.65-5.19a2.51,2.51,0,0,1,.38-.92c.44,2.62-1.17,4.88-2.93,6.63a5.77,5.77,0,0,0,2.44,1.77.7.7,0,1,1-.59,1.26Z"/><path class="cls-8" d="M135,124.14c2,.48,6.8,1,9.95-.75s1.54,6.67-4,6.57S133.32,126,135,124.14Z"/><path class="cls-8" d="M138.63,113.18a1.08,1.08,0,0,1,.12.6,2.36,2.36,0,0,1-.45,1.36.63.63,0,0,1-.87,0c-.21-.25.24-.59.55-1S138.55,113.07,138.63,113.18Z"/><path class="cls-14" d="M141.81,132.34a7,7,0,0,1-3.56-.14c-.77-.24-.1,2.06,1.6,2.29S143.3,132.47,141.81,132.34Z"/><path class="cls-2" d="M112.42,171.47c-.39,2.68-.73,5.38-1,7.72,0,.36-.93,6.67-.45,3.42-1.19-.23-2.14-.11-3.17-.73-2.8-1.7-4.74-4.51-6.28-7a8.15,8.15,0,0,0,2-2.36c1-1.43,2.62-3.82,4.18-5.91,4.35-5.88,9.14-11.6,7.4-7.35C114,161.87,113.13,166.65,112.42,171.47Z"/><path class="cls-10" d="M171.24,92.51c2.93,5.51,6.16-.94,6.19.37.2,7.22-1.28,24.94-3.28,28-1.57,2.41-11.28,2.3-11.28,2.3l-1.29-19.94s0-.22.73-9.71c1.38.1,3.34,1.51,5.38,2.06C170.42,96.35,169.43,91.21,171.24,92.51Z"/><path class="cls-7" d="M181.09,93.11c-4.26-.87-43.11-18.46-43.52-19.61-2.45-6.82,1.61-12.17,5.64-11.69A5,5,0,0,1,145.78,63a5.39,5.39,0,0,1,5.06-2.8,5.68,5.68,0,0,1,3.85,2.67,4.4,4.4,0,0,1,3.91-3c2,0,3.68,1.62,4.35,3.88a4.43,4.43,0,0,1,1.26,0,5.2,5.2,0,0,1,3,1.57,4.8,4.8,0,0,1,3.48-1.75c2.44,0,4.09,2.49,3.74,5.6A4,4,0,0,1,177.32,71a4.54,4.54,0,0,1,2.4-.4c2.26.27,4.86,2.74,5.1,6.55a7.68,7.68,0,0,1,1.62.53A7.82,7.82,0,0,1,190.25,88a5.66,5.66,0,0,1,.63,3.62c-.44,3.13-3,5.66-5.67,5.66C183,97.32,181.3,95.53,181.09,93.11Z"/><path class="cls-7" d="M151.2,72.3,155,81l8.34,8.42s3.46-24.63-1-26.84-6.09.45-6.09.45-7-6.44-11.67-5.66-5,4.37-5,4.37S135.77,59.89,133,61s-1.69,3.44-1.69,3.44-8.13-1.68-10,1.16,0,4.7,0,4.7-7.83-.41-8.86,2.14,2.35,4.35,2.35,4.35-1.67.66-1.93,4.19C112,91.56,147,74.51,151.2,72.3Z"/><path class="cls-16" d="M158.71,83.25l3.78-8.54,5.33-1.43s6.47,15.69,2,18.19-6.09.13-6.09.13-7,6.74-11.67,6.42-5-3.67-5-3.67-3.76,2.05-6.58,1.25-1.7-3.1-1.7-3.1-8.13,2.33-10-.18a3.36,3.36,0,0,1,0-4.45s-7.83,1.11-8.86-1.21,2.35-4.33,2.35-4.33-1.68-.47-1.93-3.79C119.54,68.61,154.48,81.55,158.71,83.25Z"/><path class="cls-6" d="M110.84,183.53c-7.93-1.93-12.44-14.86-12.44-14.86.95-1.06,1.66-1.94,2.33-2.8,4,11,10.65,12.8,10.65,12.8C111.18,180.47,110.83,183.65,110.84,183.53Z"/><path class="cls-6" d="M110.75,183.51c-4.12-1-7.31-5.06-9.41-8.65a9.88,9.88,0,0,0,2.18-2.37l.26-.4c3.65,5.53,7.6,6.58,7.6,6.58-.08.74-.19,1.71-.29,2.59S110.85,182.86,110.75,183.51Z"/><path class="cls-17" d="M62.78,117.54c-.08,14.91,4.32,14.2,8,22s-2.43,11.27-7.57,14.59,3,8.21,3,8.21-16.27,5.34-27.29-4.23-22.23-24.33-17.11-37.8S62.78,117.54,62.78,117.54Z"/><path class="cls-17" d="M15.69,116c.08,14.92-4.31,14.21-8,22s2.43,11.28,7.57,14.6-3,8.21-3,8.21,16.27,5.34,27.29-4.23,22.23-24.33,17.11-37.8S15.69,116,15.69,116Z"/><path class="cls-3" d="M79.73,176.44a58.46,58.46,0,0,1-17.36,9L32.8,181.35l-1.32-.13L28,178.39l-4.54,10.25-5.72-14.59s-2.51-15.38,7.75-17.41,32-3.44,32-3.44,3.74,4.44,7.63,5.86c3.65,1.32,3,1.34,4.72,4.67C73.3,170.62,79.73,176.44,79.73,176.44Z"/><path class="cls-18" d="M80,176.54c-3.26,2.53-4.63,9.52-7.63,10.92-.62.29-4.56-4.1-5.13-3.86a32.37,32.37,0,0,1-4.85,1.8l-5.28-.72c-2.14-5.87,4.53-3.81,2.53-18.8,3-.21-2.11-12.68-2.11-12.68A27.32,27.32,0,0,1,64.13,155c3.34,1.32,5.38,2.86,7,6.19C74.62,168.09,80,176.54,80,176.54Z"/><path class="cls-19" d="M32.1,140.4a41.07,41.07,0,0,1,4.74,11c.47,2.16.51,3.11-2.11,3.91-.81.24-3.08-.15-2.74.5,5.56,10.78,14,16.22,19.6,15.46,10-1.36,6.61-14.58,7.07-17.42.08-.46-1.27-.43-2.3-.63s-1.67-.59-1.67-1.06c0-2.31,1.41-5.06,2.33-7.12C60.69,136.83,32.1,140.4,32.1,140.4Z"/><path class="cls-4" d="M32.1,140.4a42.74,42.74,0,0,1,4.58,10.34,23.35,23.35,0,0,0,16.88,1.72c.39-.11.77-.24,1.13-.38,0-2.3,1.42-5,2.33-7C60.69,136.83,32.1,140.4,32.1,140.4Z"/><path class="cls-6" d="M60.74,153.5,63.35,162s7.84,8.95,9.05,12.86-3,9.89-3.82,15.39-.56,8.77.84,11.28,5.5,5.88,5.5,5.88c-8.47,21.66-36.58,16-50.78,1.8,15.45-12,14.4-17.06,3.59-30.08,0,0,4.95-1.16,4.95-5.82s-1.14-11.78-2.26-14a6.86,6.86,0,0,1-1-3.32l3.39-.51c5.45,11.3,15.54,17.5,21.39,15.27,4.28-1.64,5.14-9.9,3.19-17.59Z"/><path class="cls-20" d="M62.13,158l.76,2.49-4.51.28c0-.82,0-1.67-.12-2.52l3.87-.25Zm1.19,3.87,0,.13s1.84,2.09,3.86,4.69l-9.92.63a15.75,15.75,0,0,0,1.05-5.13l5-.32Zm-30.89,7c-.18-1.71-.43-3.46-.73-5l6.39-.4a28.71,28.71,0,0,0,5.3,4.73l-11,.69Zm-1-6.41a20.39,20.39,0,0,0-.7-2.49l4.51-.29c.56.85,1.14,1.66,1.75,2.43Z"/><path class="cls-3" d="M59.68,99.91c.31,2.35,2.58,6.11,4.63,11.32,3.13,7.94,4,18.81.22,27.18-2,4.34-4.62,8.59-10.11,10.19C39.64,152.89,28.09,140,28.09,140c-9.26.34-13-9.57-10-10.83,2.73-1.17,6.68.39,6.68.39L37.31,91S50.67,84.59,59.68,99.91Z"/><path class="cls-4" d="M62.72,107.49c.52,1.15,1.06,2.4,1.59,3.74a38.91,38.91,0,0,1,1.87,6.33c-3.48-6.06-8.43-8.47-12.77-10.06-5.27-1.92-6-1.92-6-1.92s-4.45,11-8.8,16.5a55.36,55.36,0,0,1-9.73,9.32s-.89-5.59-1.43-10.18l4.46-13.73a15.67,15.67,0,0,1,10.14-5.76c9.72-1,8-3.44,15.9,2.23C59.88,105.33,61.44,106.44,62.72,107.49Z"/><path class="cls-4" d="M24.4,132.18c1.39,1.63,2,4,.65,4.64-1.12.54-4.23-2.42-4.51-4.29C20.3,130.87,23,130.55,24.4,132.18Z"/><path class="cls-8" d="M45.89,122.76c2.24,2.68,1.33,5-2,5.44-2.65.37-5.91-.56-3.94-4.07C40.74,122.69,43.61,122.16,45.89,122.76Z"/><path class="cls-8" d="M62.85,119.46c.81,1,1.85,3.17.59,4.64s-4,1.13-4.49.45S59,118.45,62.85,119.46Z"/><path class="cls-21" d="M56.48,123c.75-2.11,2.13-5,4.93-4.49,1.77.31,2.67,1.79,3.25,3.31l-.63-.78c-3-3.56-5.34-1.64-6.49,2.19a.54.54,0,0,1-.65.41A.53.53,0,0,1,56.48,123Z"/><path class="cls-21" d="M46.68,124.94c-.65-2.55-6-3.65-7.27.41a16.88,16.88,0,0,0-.4,2.43c-1.47-7.1,7.39-7.51,8.73-3a.54.54,0,0,1-.43.64A.55.55,0,0,1,46.68,124.94Z"/><path class="cls-21" d="M59.82,118.93c-1.42.3-2.26,1.95-1.89,3.69a3,3,0,0,0,3.23,2.59,3.28,3.28,0,0,0-1.34-6.28Z"/><path class="cls-21" d="M42.56,122.18a3,3,0,0,0-1.9,3.68c.89,4.13,6,3,5.14-1.09A3,3,0,0,0,42.56,122.18Z"/><path class="cls-21" d="M43.09,115.14c.79,2.91,1.2,3.74-1.6,4.28A35.46,35.46,0,0,0,34.62,122S35.15,116.21,43.09,115.14Z"/><path class="cls-21" d="M54.22,112.76c.21,1.78.41,3.51,2,3.28s6.14-1.14,6.14-1.14S61,112,54.22,112.76Z"/><path class="cls-8" d="M62.3,119.57c-.53-.28-1.06-.32-1.18-.09s.21.64.74.92,1.06.32,1.18.1S62.83,119.85,62.3,119.57Z"/><path class="cls-8" d="M45.2,123.3c-.53-.28-1.06-.32-1.18-.09s.21.64.74.92,1.06.32,1.18.09S45.73,123.58,45.2,123.3Z"/><path class="cls-4" d="M58.3,129.78A11.32,11.32,0,0,1,53,132c-1.29.16,1.23,3.1,3.9,2.31S60.59,129,58.3,129.78Z"/><path class="cls-21" d="M57.37,133.25c.52-.59,2-2.13,2-3.12l-.28-.88c-2.55-1.08-3.2-1.52-4.68-3.73a2.23,2.23,0,0,0-.59-.73c.29,2.49,2.36,4.11,4.42,5.23-.51,1.18-.72,1.21-1.75,2.24a.66.66,0,1,0,.88,1Z"/><path class="cls-8" d="M54.81,128.25a1,1,0,0,0,0,.58,2.16,2.16,0,0,0,.77,1.11.59.59,0,0,0,.79-.21c.12-.29-.37-.47-.77-.78S54.86,128.14,54.81,128.25Z"/><path class="cls-17" d="M28.09,91.69c.41-1.85,2.51-3.27,9.22-3.21,22,.19,32.3,12.23,29.56,32.18-4.48-16.23-15.3-13.93-23.18-19Z"/><path class="cls-17" d="M26,90.77c8.91,2.73,18.83,8.38,19.84,11.31,1.86,5.37-5.84,18.28-9.51,22.53,1.32-2.31,4.38-11.89,4.6-12.14,0,0-6.12,11.07-9.11,15.06a16.27,16.27,0,0,0-3.29,7.59s-2.29-3.87-4.48-5.53c-1.45-1.1-4-.86-5.7-.45,0,0-4.5-6.73-5.52-11.6S16.65,90,26,90.77Z"/><path class="cls-21" d="M46.79,138.35c2.54,3,6.42,2.82,9.23.34a2.42,2.42,0,0,0,1-2.14,7,7,0,0,1-.51.88c-1.95,2.39-6.42,3.13-8.62.19a.66.66,0,1,0-1.1.73Z"/><path class="cls-22" d="M53.1,142.22a6.56,6.56,0,0,1-3.35-.17c-.72-.24-.12,1.94,1.48,2.18S54.51,142.35,53.1,142.22Z"/><path class="cls-23" d="M61.24,104.27c-9.56-2.17-18.61-6.88-24.78-10.71-2.65-1.64-4.77-3.12-6.17-4.17,1.41-.6,3.63-.94,7-.91,15.51.13,25.2,6.15,28.62,16.68-.39-.08-.78-.15-1.18-.21C63.58,104.76,62.41,104.54,61.24,104.27Z"/><path class="cls-23" d="M29.89,113.78a28.08,28.08,0,0,1-17.11.08c.74-8,5.41-23.7,13.19-23.09.72.22,1.45.46,2.18.72A68.74,68.74,0,0,1,36,94.85a48.82,48.82,0,0,1,6.28,3.69C50.2,104.14,34.78,112.2,29.89,113.78Z"/><path class="cls-5" d="M24.14,209.2c15-11.65,14.44-16.77,4.5-29l-.91-1.1.09,0a7.77,7.77,0,0,0,3.23-1.84,18.91,18.91,0,0,0,3.24,4.29,15.49,15.49,0,0,0,1.47,1.3c3.91,3.12,10,5.26,19.34,3.91,9.87-1.42,10.52-1.72,11-.79.94,1.84-9.33,4.93-12.71,5.26-7.65.75-13.12,4.87-15.45,12.53-2.41,8-3.28,9.94,4.73,16.41A44.93,44.93,0,0,1,24.14,209.2Z"/><path class="cls-3" d="M31.05,177.26a7.81,7.81,0,0,1-3.32,1.86c.11.14-3.76,8.46-4.25,9.52l-1.42-1.28-.89-.8c4.71-6.64,7.6-15.69,7.6-15.69A19.7,19.7,0,0,0,31.05,177.26Z"/><path class="cls-24" d="M78.45,171.13c2.93-4,6.06-8.23,8.6-12.52,1-1.62,1.31-2.45,1.35-2.44a8.77,8.77,0,0,1,1.43-1.81c.74-.7,2.56-1.44,3.33-2.49,1.42-1.92,1.92-2.69,2.63-3.72s1.23-1,1.33-.33c.14.91-.79,2.92-.57,2.65a19.51,19.51,0,0,0,2.2-4.49.67.67,0,0,1,1.33,0,30.92,30.92,0,0,1-.53,3.38c0,.27,1.28-2.83,1.5-3.17.38-.55,1-.59,1.12-.2.19.73-.54,3.32-.44,3.33s.93-2.61,1.44-3.33a.48.48,0,0,1,.83.07,15.44,15.44,0,0,1-3.63,9c-5.34,6-7,2.67-8.44,7.39-1.12,7.44-4.27,23.78-10.64,26.88-2.61,1.28-4.51,1.54-5.77,1C65.07,185.77,76.19,174.25,78.45,171.13Z"/><path class="cls-25" d="M25.14,139.2A1.15,1.15,0,1,0,24,138.05,1.16,1.16,0,0,0,25.14,139.2Z"/><path class="cls-26" d="M18.35,167.25c-1.94,6.42-.22,24.93,7,31.32,1.71,1.5,2.51,4,5,3.56,11-1.7,16.29-18.41,18.78-24.15.26-.6,5.17-3,8.79-5.56,2.54-1.81,4.83-4.3,2.86-3.87-.52.12-1.81.71-1.84.65s4.84-2.91,4.36-4.15c-.32-.84-7,2.53-7,2.53s5.07-4.84,4.23-5.63-7.07,4.39-7.07,4.39,3.87-6.3,1.91-5.72c-2.78.84-6.32,7.95-9.76,6.81-1-.34-3.51-4.13-5.82-4.13s.69,3.34,1.63,5.93a8.69,8.69,0,0,1,.78,3.3c0,3.41-5.64,6.61-9.63,9.73-.8.62,0-14.26-.52-13.79Z"/><path class="cls-6" d="M90.37,76.22C85.72,85,77.68,88.79,67.47,91a15,15,0,0,0,3.74-7.6c.49-4.22-.16-5.63-.16-5.63Z"/><path class="cls-6" d="M72.63,84.11c17.84,0,32.4-10.06,32.4-22.41S90.47,39.3,72.63,39.3s-32.4,10.06-32.4,22.4S54.79,84.11,72.63,84.11Z"/><path class="cls-27" d="M57,63.41l1.48-1.9-2.18-.62.4-1.19,2.15.85-.12-2.42H60l-.13,2.46L62,59.76l.38,1.2-2.21.63,1.45,1.86-1,.73-1.29-2-1.27,2Z"/><path class="cls-27" d="M63.33,63.41l1.49-1.9-2.18-.62L63,59.7l2.15.85-.12-2.42h1.27l-.12,2.46,2.12-.83.38,1.2-2.22.63L68,63.45l-1,.73-1.28-2-1.27,2Z"/><path class="cls-27" d="M69.71,63.41l1.48-1.9L69,60.89l.39-1.19,2.15.85-.12-2.42h1.28l-.12,2.46,2.11-.83.38,1.2-2.21.63,1.45,1.86-1,.73-1.29-2-1.27,2Z"/><path class="cls-27" d="M76.08,63.41l1.49-1.9-2.18-.62.4-1.19,2.15.85-.12-2.42H79.1L79,60.59l2.12-.83.38,1.2-2.21.63,1.44,1.86-1,.73-1.28-2-1.27,2Z"/><path class="cls-27" d="M82.46,63.41l1.48-1.9-2.17-.62.39-1.19,2.15.85-.12-2.42h1.28l-.12,2.46,2.11-.83.38,1.2-2.21.63,1.45,1.86-1,.73-1.29-2-1.27,2Z"/><path class="cls-2" d="M241,143.08c11.8,5.57,17.59,7.93,20,11.58S272.14,178,272.14,178s-14.16,9.22-22.52,4.5S234.61,146.29,241,143.08Z"/><path class="cls-28" d="M274.91,161.61c1-1.62,1.31-2.44,1.35-2.44a9.07,9.07,0,0,1,1.43-1.81c.74-.69,2.56-1.44,3.33-2.48,1.42-1.93,1.92-2.7,2.63-3.73s1.23-1,1.33-.33c.14.91-.79,2.93-.57,2.65a19.51,19.51,0,0,0,2.2-4.49.67.67,0,0,1,1.33,0,31.07,31.07,0,0,1-.53,3.37c0,.27,1.28-2.83,1.5-3.16.38-.56,1-.59,1.12-.21.19.74-.54,3.32-.44,3.34s.93-2.62,1.44-3.34a.48.48,0,0,1,.83.07c.12,1.35.07,7.41-2.66,10.49-5.35,6-7,2.67-8.44,7.4-1.13,7.43-5,22.05-11.4,25.16-2.61,1.28-2.69,1.33-3.95.77-5.2-2.27-8.06-8-6.33-11.8a9.49,9.49,0,0,1,2.44-5C265.45,171.59,272.84,165.1,274.91,161.61Z"/><path class="cls-3" d="M244.11,105.79c.5-3.41,5.11-5.7,5.57-2.22s-2.92,11.59-4.89,10.67S244.11,105.79,244.11,105.79Z"/><path class="cls-4" d="M245.06,106.28c-.52,2.19-.16,4.74,1.24,4.78,1.14,0,2.58-4.22,2.09-6.15C248,103.2,245.59,104.09,245.06,106.28Z"/><path class="cls-2" d="M219.72,142.4c-10.09,4.28-15.5,6.49-18.88,10.09-5.57,5.94-5.61,14.2-12,30.93l10.13,2.2,12,1.71c-.27,0,1.95,7.54,2.69,13.72.44,3.66-3.33,6.85-3.54,7.73-.27,1.12-2.94,1.22-4,2.86-1.44,2.18.58,4.21.58,4.21,12.44,12.87,44.87,13.88,53.83,1.5,0,0,5.05-3.11,4.73-8.82-.1-1.64-5.14-4.08-5.27-6-.36-5.18.21-12.09-.51-18.15-1.64-22.6-2.29-36.44-21.12-42.31a4.31,4.31,0,0,0-1.38,1.34C231.44,142.08,225.37,142.17,219.72,142.4Z"/><path class="cls-29" d="M202.87,186.17l7.08,1,2.85-1.51c.43-23.81-3-23.38-3-23.38S208.49,175.19,202.87,186.17Z"/><path class="cls-30" d="M192,184c-1.4,4.61,1.71,13.19,3.86,16.51,5,7.78,12.18,5.09,17.74-.5,4.77-4.8,6.84-12.89,9.68-19.17l0,0a20.92,20.92,0,0,1,1.31-2.68c.67-1.12.62-.32,3.24-4.19,1.53-2.28,4.37-9.34,3.3-10.33-.09-.08-.64-.34-.91-.19s-1.22,2.7-1.51,2.6,1.28-3.29,1.31-4.09a1.05,1.05,0,0,0-1.15-.93c-.33.16-.78,1.28-1.35,2.16-.9,1.37-1.91,2.65-1.91,2.65s3-6.08,1.89-6.62a1.48,1.48,0,0,0-1.92.75c-.78,1.64-1.88,3.6-2.52,4.7l-.49.85s.17-.38.41-.95c.72-1.67,2.09-5.06,1.76-6-.2-.56-1.35-.59-1.84-.06a16.84,16.84,0,0,0-1.61,2.79,10.8,10.8,0,0,0-.57,1.26c-.62,1.49-1.52,3.75-2.33,4.4-.47.37-.93-1.51-1.72-2.38a1.12,1.12,0,0,0-.84-.44c-.78,0-1.63.49-1.12,1.39s.4,4.79.76,6.56c0,.14.06.27.09.4a10.34,10.34,0,0,1,.56,2.43,2.5,2.5,0,0,1-.19.88l-.11-.07L204.65,186Z"/><path class="cls-3" d="M211.89,128.34c1.33,1.33,5.1,13.27,4.42,14.41-.86,1.43-1.5,2.69.48,4.08,15.78,11.06,23.24,3.88,24.7-3.27.25-1.2-4-1.7-4-2.94.09-3.06,2.13-8.4,3.46-11.13C246.26,118.65,211.89,128.34,211.89,128.34Z"/><path class="cls-4" d="M210.82,126.3c1.94,3.36,2.8,4.77,3.47,7.08,2.82,9.82,19.06,10.69,22,6.54a10,10,0,0,0,1.89-2.92,58.16,58.16,0,0,1,3.19-8.15C246.69,118,210.82,126.3,210.82,126.3Z"/><path class="cls-23" d="M241.88,82.62c8.45,1.79,8.81,15.57,3.09,21.95l-7.18-20.74Z"/><path class="cls-3" d="M200,105.28c-5-1.72-8.5,2.5-3.62,8.41s7.84,2.81,7.84,2.81c3.72,9.07,7,11.35,12.62,15.75,4.75,3.73,10,6.37,15.68,4.56,3.46-1.1,6.16-4,8.4-6.75a21.31,21.31,0,0,0,5.12-12.28s-3.34-32.56-6.29-34.53-33.21,3.32-33.89,5-1.56,12-1.56,12l-1.84,7.81Z"/><path class="cls-8" d="M220.67,103.1c2.15,3,1,5.37-2.56,5.6-2.83.18-6.19-1.06-3.85-4.61C215.23,102.63,218.3,102.29,220.67,103.1Z"/><path class="cls-8" d="M238.86,100.53c.78,1.08,1.71,3.49.27,4.94s-4.29.89-4.79.13S234.89,99.17,238.86,100.53Z"/><path class="cls-21" d="M231.86,103.78c1-2.17,2.63-5.08,5.55-4.36,1.85.46,2.69,2.1,3.18,3.75l-.61-.87c-2.86-4-5.51-2.15-7,1.81a.59.59,0,0,1-.72.39A.58.58,0,0,1,231.86,103.78Z"/><path class="cls-21" d="M221.33,105.47c-.49-2.74-6.08-4.33-7.71-.13a17.79,17.79,0,0,0-.61,2.54c-1-7.61,8.38-7.37,9.46-2.55a.57.57,0,1,1-1.14.14Z"/><path class="cls-21" d="M235.7,99.73c-1.52.21-2.54,1.89-2.28,3.75s1.69,3.2,3.21,3,2.55-1.89,2.29-3.75S237.22,99.52,235.7,99.73Z"/><path class="cls-21" d="M217.19,102.23c-1.52.21-2.54,1.89-2.28,3.75.61,4.43,6.11,3.67,5.5-.76C220.15,103.36,218.71,102,217.19,102.23Z"/><path class="cls-23" d="M218.32,94.44c.62,3.13,1,4-2,4.39a37.6,37.6,0,0,0-7.46,2.17S209.86,95,218.32,94.44Z"/><path class="cls-23" d="M230.27,92.79c.08,1.89.16,3.73,1.87,3.62s6.58-.73,6.58-.73S237.51,92.5,230.27,92.79Z"/><path class="cls-8" d="M238.09,100.44c-.53-.34-1.09-.42-1.24-.19s.18.69.72,1,1.09.42,1.24.19S238.63,100.78,238.09,100.44Z"/><path class="cls-8" d="M219.89,103.57c-.54-.34-1.09-.42-1.23-.19s.17.69.71,1,1.09.42,1.24.19S220.43,103.91,219.89,103.57Z"/><path class="cls-4" d="M232.16,113.23a12,12,0,0,1-6.11.11c-1.34-.34,0,3.53,3,3.78S234.74,113.31,232.16,113.23Z"/><path class="cls-21" d="M229.92,116.31c.74-.39,2.78-1.35,3.17-2.32l.06-1c-2.11-2-2.57-2.74-3.19-5.48a2.45,2.45,0,0,0-.31-1c-.66,2.57.76,5,2.36,6.85a5.71,5.71,0,0,1-2.58,1.55.7.7,0,0,0,.49,1.32Z"/><path class="cls-8" d="M234.38,119.34c-2,.74-6.86,2-9.85.53s-1,6.11,4.55,5.29S235.87,121,234.38,119.34Z"/><path class="cls-8" d="M229.3,110.39a1.12,1.12,0,0,0-.17.59,2.29,2.29,0,0,0,.34,1.39.61.61,0,0,0,.86.09c.23-.23-.19-.6-.46-1.07S229.39,110.29,229.3,110.39Z"/><path class="cls-4" d="M201.11,109.21c1.32,1.9,1.79,4.53.26,5.13-1.23.49-4.24-3-4.36-5.1C196.91,107.4,199.8,107.3,201.11,109.21Z"/><path class="cls-4" d="M226.86,129.41a7,7,0,0,0,3.56.16c.79-.17-.07,2.06-1.79,2.15S225.37,129.41,226.86,129.41Z"/><path class="cls-23" d="M244.87,101.78c-.87-5.38.5-10.82,0-16.81-.37-4.07-1.61-9.08-5-11.8-11-8.75-32.36-7-39.37,14.43-.61,1.85-3.7,2.42-4.21,3.89-.42,1.18-.2,2.57.2,4.59,1.09,5.6,6.78,16,6.78,16s1.46-5.73,3.46-13.12c1.13-4.16-3.45-8.08,3.73-9.84,7.34-1.81,22.51-2.83,27.8-3.14,1.48-.09,3,4.2,3.52,5.33Z"/><path class="cls-29" d="M218.35,192.6c.15,8.41-.74,14.76-3.28,17.72s-1.53,8.06,2.76,12.46a30.66,30.66,0,0,1-11.09-6.93s-2-2-.58-4.21c1.08-1.64,3.75-1.74,4-2.86.21-.88,4-4.07,3.54-7.73,0-.35-.09-.7-.14-1.06A28.92,28.92,0,0,0,218.35,192.6Z"/><path class="cls-29" d="M221.92,184c1,1.12,3,1.38,10,1,12.23-.64,18-1.07,18-1.07s1.5,2.15-4.93,3.22-22.09,2.79-25.09,6.43a14.86,14.86,0,0,0-1.51,2.23c0-1,0-2,0-3.09C219.68,189.85,220.78,186.81,221.92,184Z"/><path class="cls-23" d="M203.86,109.17c.45,9,13.48,21.2,21.45,22.19,1.86.24-1-1.5.27-2.54.47-.39,2.25,0,4-.14,6.44-.32,2.68.75,3.65,1.5s6.65-2.78,8.69-6.43,3.53-8.15,3.21-11.37a50.41,50.41,0,0,1-.1-6.86s1.6,7.08,3,9.76,1.5,4.72.43,6.22-.33,2.57-.33,5.15c0,2.12-1.09,3.29-3.22,4.54a11.14,11.14,0,0,1-1.55,3.23c-1.37,2-2.86,2.15-3.6,2.08a9.85,9.85,0,0,1-2.24,1.73c-4.4,2.57-5.68-.54-7.4-.54s-3.11,2.79-7.83,1.61c-3.09-.78-3.88-2.06-4.42-3.24a8.59,8.59,0,0,1-3.46-1.21,5.38,5.38,0,0,1-1.59-1.87c-1.72-.41-3.39-.92-3.82-2a10.67,10.67,0,0,1-.55-2c-2.07-1-3.23-3-2.8-5.85-1.43-1.52-3.09-3.49-3.09-5.14A64.3,64.3,0,0,1,203.86,109.17Z"/><path class="cls-2" d="M211.69,146c5.92-2.87,2.29-8.06,4.11-7,.2.11.11.8.45,1,1.64,1.18,6.11,3.77,13.56,3.14,2.53-.22,1.65,1.82,2.09,5.37.21-.25.59.41.8.16,0-2.42-.85-5.05.85-6.6l4.41-4,1.66,3.54,5.25,3.06s-1.71,10.93-9,11.1S211.1,146.21,211.69,146Z"/><path class="cls-2" d="M184,61.8c-.77,8.81,5,12.57,13.8,14.78a10.48,10.48,0,0,1,.94-7.6c2.12-4.22,3.63-5.63,3.63-5.63Z"/><path class="cls-2" d="M201.72,69.7c17.85,0,32.4-10.07,32.4-22.41s-14.55-22.41-32.4-22.41-32.39,10.06-32.39,22.41S183.88,69.7,201.72,69.7Z"/><path class="cls-31" d="M188.24,49.06h-.92a9.49,9.49,0,0,0-2.26.24c-.81.2-1.22.49-1.22.87a3.77,3.77,0,0,0,.18,1.1c.11.39.23.78.35,1.18a3.52,3.52,0,0,1,.19,1.09,2.92,2.92,0,0,1-.05.54,3.91,3.91,0,0,1-.15.63L184,53.42c-.25-.82-.44-1.44-.55-1.86a7.23,7.23,0,0,1-.29-1.2,2.11,2.11,0,0,1,1.7-2.31,11.42,11.42,0,0,1,2.06-.34,7.79,7.79,0,0,0-.61-.59,1.28,1.28,0,0,0-.8-.32A.92.92,0,0,0,185,47a2.4,2.4,0,0,0-.45.43l-.36-.23a3.62,3.62,0,0,1,.53-.93,1.51,1.51,0,0,1,1.16-.58,1.65,1.65,0,0,1,1,.36,4.26,4.26,0,0,1,.8.83,9.59,9.59,0,0,1,.6.87Z"/><path class="cls-31" d="M196,49.06a2.85,2.85,0,0,1-.73,1.77,5.92,5.92,0,0,1-1.58,1.39,3,3,0,0,1-1.49.56,5,5,0,0,1-1.16-.15,10.37,10.37,0,0,1-1.13-.37l-1.11-.42.13-.31,1.07.21a5.39,5.39,0,0,0,1,.1,4,4,0,0,0,2.07-.64,5.88,5.88,0,0,0,1.67-1.47,2.34,2.34,0,0,0,.34-2.89,5.93,5.93,0,0,0-.81-1.12l.44-1.22a4.09,4.09,0,0,1,.94,1.18,3.17,3.17,0,0,1,.34,1.49Z"/><path class="cls-31" d="M199.79,45.93l-.45,0-.45,0a8,8,0,0,0-1.12.09l-1.1.2a3.39,3.39,0,0,1,.58-1.14,2.75,2.75,0,0,1,2-.57,20.48,20.48,0,0,1,2.1.21,9.34,9.34,0,0,0,1.27.11,5.23,5.23,0,0,0,.67-.06,4.74,4.74,0,0,1,.65,0L203.61,46a22.59,22.59,0,0,0-2.79.64,8.1,8.1,0,0,0-2.67,1.29A2.81,2.81,0,0,0,197,50.15a2.7,2.7,0,0,0,1.75,2.51,9.53,9.53,0,0,0,4,.73h1.43l0,.08-1.75,1.24H202a10.51,10.51,0,0,1-2.8-.31,3.94,3.94,0,0,1-2-1.2,3.77,3.77,0,0,1-.78-2.49,4.5,4.5,0,0,1,.62-2.34,5.39,5.39,0,0,1,1.36-1.5C198.6,46.72,199.06,46.41,199.79,45.93Z"/><path class="cls-31" d="M216.34,49.06h-7.41a4.75,4.75,0,0,1-2.38-.52,2.21,2.21,0,0,1-1.11-2,3.79,3.79,0,0,1,.32-1.47c.08-.19.27-.53.56-1l.24.15c-.12.24-.23.48-.34.72a2.58,2.58,0,0,0-.22,1,1.57,1.57,0,0,0,1,1.43,4.71,4.71,0,0,0,2.19.45h6.58V47.5a4,4,0,0,0-.21-1.42,2.16,2.16,0,0,0-.71-.94l.59-1.27.42.54a5,5,0,0,1,.52,2.53ZM211.89,51l-.61,1.12L210,51.42l.58-1.13Z"/><path class="cls-31" d="M219,47.08a3.31,3.31,0,0,1-.22,1.2,7.93,7.93,0,0,1-.51,1l-.14-.08c0-.15,0-.32,0-.52a3.73,3.73,0,0,0,0-.4q0-.81-.12-2.25c-.09-1-.19-2-.31-3q-.12-1-.24-2c.1-.23.22-.48.35-.74s.26-.52.38-.75c.08.59.18,1.4.31,2.43s.23,2,.3,2.77C218.92,45.78,219,46.55,219,47.08Z"/><path class="cls-5" d="M140.18,47.82c17.84,0,32.39-10.07,32.39-22.41S158,3,140.18,3s-32.4,10.07-32.4,22.41S122.33,47.82,140.18,47.82Z"/><path class="cls-5" d="M154.27,40.79c-4.65,8.81-12.69,12.56-22.9,14.77a15,15,0,0,0,3.74-7.6c.49-4.22-.16-5.63-.16-5.63Z"/><path class="cls-27" d="M124.85,24.22a1.29,1.29,0,0,1,.38-.94,1.59,1.59,0,0,1,2.06,0,1.29,1.29,0,0,1,.38.94,1.26,1.26,0,0,1-.38.92,1.59,1.59,0,0,1-2.06,0A1.26,1.26,0,0,1,124.85,24.22Z"/><path class="cls-27" d="M130.25,24.22a1.29,1.29,0,0,1,.38-.94,1.59,1.59,0,0,1,2.06,0,1.29,1.29,0,0,1,.38.94,1.26,1.26,0,0,1-.38.92,1.59,1.59,0,0,1-2.06,0A1.26,1.26,0,0,1,130.25,24.22Z"/><path class="cls-27" d="M135.65,24.22a1.29,1.29,0,0,1,.38-.94,1.59,1.59,0,0,1,2.06,0,1.29,1.29,0,0,1,.38.94,1.26,1.26,0,0,1-.38.92,1.59,1.59,0,0,1-2.06,0A1.26,1.26,0,0,1,135.65,24.22Z"/><path class="cls-27" d="M141.05,24.22a1.29,1.29,0,0,1,.38-.94,1.59,1.59,0,0,1,2.06,0,1.29,1.29,0,0,1,.38.94,1.26,1.26,0,0,1-.38.92,1.59,1.59,0,0,1-2.06,0A1.26,1.26,0,0,1,141.05,24.22Z"/><path class="cls-27" d="M146.45,24.22a1.25,1.25,0,0,1,.38-.94,1.41,1.41,0,0,1,1-.38,1.42,1.42,0,0,1,1,.38,1.29,1.29,0,0,1,.38.94,1.26,1.26,0,0,1-.38.92,1.42,1.42,0,0,1-1,.38,1.41,1.41,0,0,1-1-.38A1.22,1.22,0,0,1,146.45,24.22Z"/><path class="cls-27" d="M151.85,24.22a1.25,1.25,0,0,1,.38-.94,1.39,1.39,0,0,1,1-.38,1.42,1.42,0,0,1,1,.38,1.29,1.29,0,0,1,.38.94,1.26,1.26,0,0,1-.38.92,1.42,1.42,0,0,1-1,.38,1.39,1.39,0,0,1-1-.38A1.22,1.22,0,0,1,151.85,24.22Z"/><path class="cls-5" d="M299.59,78.56c16.84,0,30.58-10.22,30.58-22.76S316.43,33,299.59,33,269,43.27,269,55.8,282.74,78.56,299.59,78.56Z"/><path class="cls-5" d="M278.49,71.47c7.09,8.88,16.88,11.36,28.78,11.66,0,0-4.35-3.09-5.8-7.71s-1-6.33-1-6.33Z"/><path class="cls-32" d="M280,54.3a2.37,2.37,0,0,1,0,2.94,1.88,1.88,0,0,1-1.52.67,1.9,1.9,0,0,1-1.54-.67,2.37,2.37,0,0,1,0-2.94,1.9,1.9,0,0,1,1.54-.67A1.88,1.88,0,0,1,280,54.3Zm-2.67.31a2,2,0,0,0,0,2.32,1.38,1.38,0,0,0,1.15.53,1.35,1.35,0,0,0,1.13-.53,2,2,0,0,0,0-2.32,1.35,1.35,0,0,0-1.13-.53A1.39,1.39,0,0,0,277.32,54.61Zm.17,5.18a.47.47,0,0,0,.09.33.54.54,0,0,0,.34.08h4.55c.15,0,.23.07.23.22a.21.21,0,0,1-.23.23h-4.63a.94.94,0,0,1-.66-.22.81.81,0,0,1-.22-.59V58.66a.32.32,0,0,1,.08-.23.24.24,0,0,1,.36,0,.29.29,0,0,1,.09.23Zm5.94-3.7c.16,0,.23.08.23.22s-.07.24-.23.24h-1v2a.25.25,0,0,1-.09.2.27.27,0,0,1-.36,0,.28.28,0,0,1-.08-.2V53.64c0-.16.09-.24.26-.24s.27.08.27.24v2.45Z"/><path class="cls-32" d="M285.74,53.65a.29.29,0,0,1,.18-.07.24.24,0,0,1,.18.07.22.22,0,0,1,.09.19v2.61a.44.44,0,0,0,.1.32.4.4,0,0,0,.31.11c.72,0,1.35,0,1.86-.05a8.18,8.18,0,0,0,1.56-.2.28.28,0,0,1,.24,0,.2.2,0,0,1,.11.14.26.26,0,0,1-.19.32,10.58,10.58,0,0,1-1.67.18c-.51,0-1.16,0-1.94,0a.88.88,0,0,1-.7-.26.75.75,0,0,1-.21-.55V53.85A.28.28,0,0,1,285.74,53.65Zm5.48,4.91a1.1,1.1,0,0,1,.71,1,1.07,1.07,0,0,1-.71.94,4.88,4.88,0,0,1-2.23.4,5,5,0,0,1-2.24-.4,1.08,1.08,0,0,1-.7-.94,1.11,1.11,0,0,1,.7-1,5.13,5.13,0,0,1,2.24-.4A5,5,0,0,1,291.22,58.56Zm-4.08.32q-.57.24-.57.66t.57.63a5.16,5.16,0,0,0,1.85.26,5.1,5.1,0,0,0,1.84-.26c.39-.16.58-.37.58-.63s-.19-.5-.58-.66a5.13,5.13,0,0,0-1.84-.25A5.19,5.19,0,0,0,287.14,58.88Zm4.64-.93a.29.29,0,0,1-.18.07.29.29,0,0,1-.19-.07.33.33,0,0,1-.08-.22V56.1h-2.44a.31.31,0,0,1-.22-.08.15.15,0,0,1-.06-.15.19.19,0,0,1,.07-.16.35.35,0,0,1,.23-.07h2.42v-1H289a.31.31,0,0,1-.22-.07.23.23,0,0,1-.08-.16.18.18,0,0,1,.05-.16.27.27,0,0,1,.19-.07h2.41v-.58a.23.23,0,0,1,.08-.18.29.29,0,0,1,.19-.07.29.29,0,0,1,.18.07.21.21,0,0,1,.08.17v4.09A.33.33,0,0,1,291.78,58Z"/><path class="cls-32" d="M299.19,54.89a.19.19,0,0,1,.07.16.2.2,0,0,1-.06.15.25.25,0,0,1-.19.07h-4.26c-.17,0-.25-.07-.25-.22s.08-.23.25-.23H299A.26.26,0,0,1,299.19,54.89Zm-.72,1.74a2.31,2.31,0,0,1,0,2.92,2.17,2.17,0,0,1-3.14,0,2.15,2.15,0,0,1-.53-1.46,2.11,2.11,0,0,1,.53-1.46,2.2,2.2,0,0,1,3.14,0Zm-2.75.31a1.88,1.88,0,0,0,0,2.29,1.58,1.58,0,0,0,2.36,0,1.88,1.88,0,0,0,0-2.29,1.6,1.6,0,0,0-2.36,0Zm2.58-3.15a.2.2,0,0,1-.23.23h-2.36c-.17,0-.25-.08-.25-.23s.08-.22.25-.22h2.34C298.22,53.57,298.3,53.64,298.3,53.79Zm3.43,3.12c.14,0,.21.07.21.22a.19.19,0,0,1-.21.22h-1v3.26a.21.21,0,0,1-.09.18.24.24,0,0,1-.36,0,.23.23,0,0,1-.08-.18v-7a.26.26,0,0,1,.08-.19.3.3,0,0,1,.36,0,.23.23,0,0,1,.09.19v3.26Z"/><path class="cls-32" d="M305.46,53.66a.24.24,0,0,1,.18-.06.24.24,0,0,1,.17.06.26.26,0,0,1,.09.21,8.93,8.93,0,0,1-.07,1.07q-.07.66-.21,1.5c.4.58.75,1.11,1,1.61a14,14,0,0,1,.81,1.65.3.3,0,0,1,0,.24.2.2,0,0,1-.12.13.25.25,0,0,1-.19,0,.28.28,0,0,1-.15-.18q-.36-.81-.72-1.5c-.27-.48-.54-.93-.83-1.36a10,10,0,0,1-.52,1.52,7.27,7.27,0,0,1-.89,1.48.29.29,0,0,1-.18.11.2.2,0,0,1-.17,0,.16.16,0,0,1-.08-.14.31.31,0,0,1,.08-.23,7.53,7.53,0,0,0,1.16-2.36,11.76,11.76,0,0,0,.51-3.5A.25.25,0,0,1,305.46,53.66Zm3.18,7.13a.23.23,0,0,1-.18.08.21.21,0,0,1-.17-.08.24.24,0,0,1-.08-.2V56.88h-1.62a.29.29,0,0,1-.22-.08.2.2,0,0,1-.07-.16.19.19,0,0,1,.05-.16.3.3,0,0,1,.2-.06h1.66V53.65a.21.21,0,0,1,.08-.18.24.24,0,0,1,.17-.07.27.27,0,0,1,.18.07.2.2,0,0,1,.09.18v6.94A.25.25,0,0,1,308.64,60.79Zm1.65,0a.25.25,0,0,1-.17.08.22.22,0,0,1-.18-.08.24.24,0,0,1-.08-.2V53.65a.21.21,0,0,1,.08-.18.25.25,0,0,1,.18-.07.28.28,0,0,1,.17.07.22.22,0,0,1,.08.18v6.94A.28.28,0,0,1,310.29,60.79Z"/><path class="cls-32" d="M314.83,57.75c.18,0,.26.08.26.25v1.79h2.64V58q0-.24.27-.24a.23.23,0,0,1,.26.25v1.8h1.61a.32.32,0,0,1,.2.07.24.24,0,0,1,.07.16.26.26,0,0,1-.07.16.25.25,0,0,1-.19.07h-7a.18.18,0,0,1-.15-.07.23.23,0,0,1,0-.16.24.24,0,0,1,.07-.16.29.29,0,0,1,.19-.07h1.62V58C314.56,57.83,314.65,57.74,314.83,57.75Zm3.91-3.56a1.77,1.77,0,0,1,.78,1.49,1.72,1.72,0,0,1-.78,1.46,4.84,4.84,0,0,1-4.67,0,1.72,1.72,0,0,1-.78-1.46,1.77,1.77,0,0,1,.78-1.49,4.77,4.77,0,0,1,4.67,0Zm-4.29.32a1.34,1.34,0,0,0-.64,1.17,1.31,1.31,0,0,0,.64,1.15,3.62,3.62,0,0,0,2,.46,3.54,3.54,0,0,0,1.94-.46,1.31,1.31,0,0,0,.65-1.15,1.33,1.33,0,0,0-.65-1.17,3.46,3.46,0,0,0-1.94-.46A3.53,3.53,0,0,0,314.45,54.51Z"/></svg>