<svg id="Capa_1" data-name="Capa 1" xmlns="http://www.w3.org/2000/svg" viewBox="0 0 66.03 62.04"><defs><style>.cls-1{fill:#c8895e;stroke:#c8895e;stroke-miterlimit:10;stroke-width:0.75px;}</style></defs><path class="cls-1" d="M18.07,46.94l-4.69-2.35a2.72,2.72,0,0,1-1.52-3.87,10.75,10.75,0,0,0,.57-3.56c0-2.24-.23-4.5.38-6.71a11.74,11.74,0,0,1,5-6.88c.48-.31,1-.67,1.42,0s-.15.92-.6,1.22a10.15,10.15,0,0,0-4.75,8.63c0,1.14,0,2.28,0,3.42a11.51,11.51,0,0,1-.74,4.61,1.15,1.15,0,0,0,.57,1.64c1.69.86,3.39,1.69,5.07,2.55.58.29.68,0,.68-.47s0-1,0-1.57a1.05,1.05,0,0,0-.5-1,8.51,8.51,0,0,1-3.43-7.22c0-.56,0-1.11,0-1.67-.05-1.48.9-2.38,1.9-3.24a.62.62,0,0,1,.89,0,.72.72,0,0,1,.14.9,1,1,0,0,1-.18.23c-.53.6-1.26,1.05-1.26,2,0,1.93-.11,3.86.92,5.62A7.11,7.11,0,0,0,31,37.61a16.1,16.1,0,0,0,.22-3.6c0-.64-.43-.43-.75-.41a14.61,14.61,0,0,1-6.08-.74A10.68,10.68,0,0,1,19,28.61c-.29-.45-.46-.92.11-1.27s.83,0,1.11.43c2.29,3.36,5.6,4.53,9.49,4.37,2.89-.12,3,0,3.08,2.89a8.89,8.89,0,0,1-3.52,7.68,4.72,4.72,0,0,0-.33,3c.16.2.35.09.51,0,1.75-.88,3.51-1.74,5.24-2.64a1,1,0,0,0,.54-1.32c-1-2.37-.81-4.86-.81-7.34a13.6,13.6,0,0,0-.23-2.92c-.11-.5,0-1,.54-1.07s.79.3.89.8a16.1,16.1,0,0,1,.31,3c0,2.44-.21,4.88.75,7.25a2.41,2.41,0,0,1-1.45,3c-1.58.83-3.18,1.61-5,2.51,1.56.72,2.92,1.4,4.32,2a4.26,4.26,0,0,1,2.92,4.57c0,.62,0,1.24,0,1.86a.73.73,0,0,1-.7.8c-.52,0-.77-.33-.78-.81,0-.81,0-1.63,0-2.44a2.44,2.44,0,0,0-1.53-2.4c-.86-.4-1.74-.76-2.58-1.18a1.39,1.39,0,0,0-1.38,0c-1.52.74-3.07,1.42-4.59,2.18a3.53,3.53,0,0,1-3.45,0c-1.51-.76-3.07-1.44-4.59-2.19a1.41,1.41,0,0,0-1.38,0c-.81.41-1.65.78-2.49,1.14A2.53,2.53,0,0,0,12.32,53v2.15c0,.53-.1,1-.77,1s-.72-.47-.7-1a2.8,2.8,0,0,0,0-.29c-.5-3.37.88-5.51,4.14-6.53A27.37,27.37,0,0,0,18.07,46.94Zm9.26-3.15a8.71,8.71,0,0,1-5.91.16c-.64-.2-.45.33-.44.56a3.51,3.51,0,0,1-2,3.71l4.62,2.17a1.25,1.25,0,0,0,1.05,0c1.55-.69,3.08-1.43,4.78-2.22C27.39,47.27,27.21,45.64,27.33,43.79Z"/><path class="cls-1" d="M29.68,10.72A9.38,9.38,0,1,1,20.27,20,9.42,9.42,0,0,1,29.68,10.72Zm7.84,9.45a7.88,7.88,0,1,0-8,7.8A7.83,7.83,0,0,0,37.52,20.17Z"/><path class="cls-1" d="M47.76,6a7.81,7.81,0,1,1-7.85,7.75A7.81,7.81,0,0,1,47.76,6Zm-.1,14.12a6.32,6.32,0,1,0-6.25-6.43A6.32,6.32,0,0,0,47.66,20.13Z"/><path class="cls-1" d="M42.79,30.74c-.1-.9-.14-1.77,1.26-1.93a1.35,1.35,0,0,0,1-1.66A1.59,1.59,0,0,0,42,26.86c-.19.55-.13,1.45-1,1.13s-.52-1.14-.3-1.76a3,3,0,0,1,3-2,3.14,3.14,0,0,1,2.85,2.3,2.92,2.92,0,0,1-1.36,3.37,1.41,1.41,0,0,0-.89,1.67,2.89,2.89,0,0,1,0,.59.65.65,0,0,1-.7.66.67.67,0,0,1-.72-.65C42.76,31.75,42.79,31.29,42.79,30.74Z"/><path class="cls-1" d="M44.21,35.23a.71.71,0,1,1-.72-.74A.69.69,0,0,1,44.21,35.23Z"/><path class="cls-1" d="M28.88,20.82c-.09-.75-.09-1.56,1.18-1.73a1,1,0,0,0,.76-1.3,1.11,1.11,0,0,0-1-1,1.15,1.15,0,0,0-1.32.76l0,.09c-.15.55-.22,1.33-1.06,1s-.5-1-.29-1.6a2.69,2.69,0,0,1,2.66-1.77,2.74,2.74,0,0,1,2.48,2,2.61,2.61,0,0,1-1.15,3c-.49.29-.8.56-.74,1.19s.1,1.32-.75,1.3-.7-.77-.71-1.34C28.87,21.26,28.88,21.13,28.88,20.82Z"/><path class="cls-1" d="M29.61,25.37c-.42-.07-.72-.29-.72-.75a.67.67,0,0,1,.74-.71.65.65,0,0,1,.67.68C30.32,25.06,30.05,25.28,29.61,25.37Z"/><path class="cls-1" d="M47.72,9.36a2.56,2.56,0,0,1,2.44,1.77,2.39,2.39,0,0,1-.93,2.76,1.27,1.27,0,0,0-.76,1.37c.06.5-.08,1-.68,1s-.77-.47-.77-1,0-.78,0-1.17c0-.64.16-1.08.87-1.17a1,1,0,0,0,.88-1.09.94.94,0,0,0-1-.94,1,1,0,0,0-1.1.87c-.09.55-.31,1-.94.83s-.59-.69-.49-1.2A2.52,2.52,0,0,1,47.72,9.36Z"/><path class="cls-1" d="M47.71,17.17a.69.69,0,0,1,.75.71.65.65,0,0,1-.67.7.64.64,0,0,1-.74-.7A.65.65,0,0,1,47.71,17.17Z"/></svg>