<svg id="Capa_1" data-name="Capa 1" xmlns="http://www.w3.org/2000/svg" viewBox="0 0 282.25 210.74"><defs><style>.cls-1{fill:#6c2910;}.cls-2{fill:#c7804d;}.cls-3{fill:#c99e59;}.cls-4{fill:#dad49d;}.cls-5{fill:#a15e4c;}.cls-6{fill:#f5b89f;}.cls-7{fill:#f1baa5;}.cls-8{fill:#f6b6a2;}.cls-9{fill:#ad683a;}.cls-10{fill:#9a6050;}.cls-11{fill:#e3bbb3;}.cls-12{fill:#e7bbb1;}.cls-13{fill:#251426;}.cls-14{fill:#824132;}.cls-15{fill:#9a6156;}.cls-16{fill:#f7b094;}</style></defs><path class="cls-1" d="M228.14,86.62c-12.52-.15-25-.46-37.56-.46a2.71,2.71,0,0,0-2.13.88q-9.21,9-18.47,18c-.24.23-.42.59-.86.57-.3-.35-.14-.77-.14-1.15,0-5.65,0-11.3.06-17,0-1-.22-1.41-1.33-1.39-3.46.08-6.93.06-10.39.06a11.7,11.7,0,0,1-11.93-11.72q-.07-27.12,0-54.22A11.46,11.46,0,0,1,156.74,9Q205.85,9,255,9a11.82,11.82,0,0,1,9.56,5c2.69,3.84,1.91,9,2,13.4l.59,33.16c0,5.67,1,11.89-.55,17.42a12.6,12.6,0,0,1-8.39,8.14c-5.39,1.71-12,.67-17.59.61Q234.36,86.7,228.14,86.62Z"/><path class="cls-2" d="M110.28,191.33a161.76,161.76,0,0,1,.07-23.09c.13-1.7-1.14-2.65-1.08-4.3.21-5.91.27-11.83.71-17.73.41-1.2-1.07-2.84.85-3.7,3.36-.29,6.71.25,10.08.16,3.64-.11,7.29,0,10.9-.64a2.76,2.76,0,0,1,2.72.5c.7,7.4,1.64,14.87,1,22.23-.69,7.75-1,15.55-2.28,23.25-.2,1.19.23,2.51-.68,3.57a5.93,5.93,0,0,1-5-.07c-.89-1.33-.79-2.89-1-4.37-.73-5.58-1.23-11.19-1.77-16.8-.1-1,0-2.15-.93-2.83-1.25-.92-2.84,0-3.25,1.79-1.44,6.43-2.67,12.91-4.06,19.36-.24,1.12-.3,2.36-1.47,3.05C113.48,192.15,111.82,192.45,110.28,191.33Z"/><path class="cls-1" d="M134.53,142.53c-4,.21-7.87,1-11.86.92a88.89,88.89,0,0,1-11.88-.64,3.65,3.65,0,0,0-.46-3.79,4.27,4.27,0,0,1-.56-3.13,1.62,1.62,0,0,1,.37-.78c2.36-1.4,2.63-3.74,2.38-6.05s-.29-4.76-.35-7.14c0-.31.22-.94-.56-.68-.59.48-1,1.08-1.61,1.58a3.73,3.73,0,0,0-1.1,4.24,24.82,24.82,0,0,1,1.13,5.18,3.69,3.69,0,0,1-.36,2.19,3.62,3.62,0,0,1-4.35,1.17,116.42,116.42,0,0,1-5.11-10.77c-.7-1.62-.13-3.07.64-4.5,2-3.76,4.54-7.2,6.86-10.76.78-1,1.73-.52,2.6-.24,1.3.41,2.56,1,3.86,1.38,3.81,1.22,6.08.42,8.2-2.91a3.19,3.19,0,0,1,.9-1.1c.7-.38,1.59-.29,2.24-.84,1.71-2.15,2-2.19,4.34-.84a7.73,7.73,0,0,1,3.42,3.87c2,3.33,3.14,6.84,2.16,10.78a2.12,2.12,0,0,1-.36.94c-1.06,0-1.07.87-1.24,1.6-.86,3.72-.12,7.41.27,11.09.23,2.26.64,4.49,1,6.74A2.54,2.54,0,0,1,134.53,142.53Z"/><path class="cls-1" d="M39.47,191.82c-.71-.79-.27-1.7-.23-2.54Q40.59,162.1,42,134.91c0-.35,0-.69,0-1a1.34,1.34,0,0,1,.56-.44c2.77-.21,5.44.59,8.16.86a8.25,8.25,0,0,0,4.22-.46c2.13-.19,4.23-1.08,6.4-.27.77.75.28,1.57,0,2.29-2,5.71-3.41,11.56-4.93,17.39-1.26,3-1.75,6.19-2.48,9.32-2.16,9.24-4.26,18.49-6.46,27.71-.35,1.48-.87,2.64-2.68,2.47S41.14,192.69,39.47,191.82Z"/><path class="cls-3" d="M138.87,196.71a3.64,3.64,0,0,1,2-.4,78.91,78.91,0,0,1,13.71,1.25c.54.1,1.3.19,1.33.74,0,.76-.78.83-1.37.89-4.84.48-9.66,1.12-14.54,1.33-7,.3-14,.55-21,.81-20.8.79-41.6.28-62.4.26-6.65,0-13.32-.4-20-.79a164.52,164.52,0,0,1-16.56-1.61c-.54-.09-1.26-.16-1.33-.75s.68-.75,1.19-.85a39,39,0,0,1,4.65-.81c4.72-.35,9.45-.59,14.17-.87a3.23,3.23,0,0,0,3.48,1.84c2.65-.11,5.32-.09,8,0-.34-.75-1.23-1.22-.9-2.17a1.5,1.5,0,0,1,1.2-.7c3.45-.2,6.89-.81,10.37-.49a3,3,0,0,1,1.7.61c.66,2.12,2.12,2.54,4.21,2.36,2.9-.23,5.83,0,8.79-.1.06-1.22-1.5-1.14-1.39-2.18l33.41,0c.93,0,2,.24,2.56-.83.81.66.3,1.52.35,2.3,0,.61,0,1.39.82,1.4,3,0,6.1.56,9.33.09-.47-1.21-2-1.17-2.3-2.29a.79.79,0,0,1,.28-.59,2.08,2.08,0,0,1,1.71-.56c2.35.4,4.78-.16,7.09.59a1.92,1.92,0,0,1,.77,1.4,1.41,1.41,0,0,0,1.46,1.17,65.31,65.31,0,0,0,7.4.44C138.23,198.16,138.78,197.79,138.87,196.71Z"/><path class="cls-1" d="M56,153.42c.6-5.56,2.61-10.76,4.16-16.07a9.65,9.65,0,0,1,1.3-3.45.91.91,0,0,1,.55-.34,13.82,13.82,0,0,0,3.68-.36c.78-.2,1.63-.48,2.31.29,1.49,18.86,1.55,37.75,1.45,56.65,0,.54-.08,1.09-.12,1.63-2.41,1-4.87.72-7.33.28a3.68,3.68,0,0,1-1.07-2.6c-1.75-11-3.4-22-5.23-33A4.53,4.53,0,0,1,56,153.42Z"/><path class="cls-2" d="M123.53,107c-2.2,4.68-5.13,5.85-10.16,4.13-1.85-.63-3.57-1.78-5.66-1.56-2.14-4.17-2-5.57,1.16-9a7.48,7.48,0,0,0,1.78-5.32,21.91,21.91,0,0,1,1.07-7.91,9.15,9.15,0,0,1,10.87-6c.53.11,1.06.27,1.6.37,5.88,1.13,8,4.84,5.9,10.54-1.27.1-1-1-1.17-1.63a10.73,10.73,0,0,0-1.35-3.43c-.55-.74-1.17-.8-1.58.06a18.43,18.43,0,0,1-4,5.19,4.3,4.3,0,0,0-.94,4.06,28.7,28.7,0,0,0,2,5.39C123.73,103.54,124.71,105.2,123.53,107Z"/><path class="cls-2" d="M68,133.49c-1.2-.22-2.26.37-3.39.59-.94.19-1.87.46-2.72-.25A5.9,5.9,0,0,1,61.2,130a107.57,107.57,0,0,0-.43-12.95c-.43-6-.54-12-1.14-17.91-.23-2.33,1.13-4.4,1.07-6.69,2.09-.47,3.65.83,5.36,1.62a33.8,33.8,0,0,1,2,12.44c-.57,2.92.13,5.82.21,8.73.15,5.43.38,10.85.63,16.28A2.37,2.37,0,0,1,68,133.49Z"/><path class="cls-2" d="M68.11,106.55c-1.24-2.88-.75-6.06-1.61-9-.3-1-1.44-2.14-.44-3.41,3.07,1.36,6.18,2.67,9.22,4.11a3.56,3.56,0,0,0,3.49-.09c3.54-1.83,7.14-3.55,10.69-5.37A6.15,6.15,0,0,1,92.4,92a3,3,0,0,1,1.49,3.51c-.46,1.23-1.57,1.88-2.48,2.68a104,104,0,0,1-10,7.87,7.4,7.4,0,0,1-6,1.49C73,107,70.55,106.85,68.11,106.55Z"/><path class="cls-4" d="M60.7,92.49a1,1,0,0,1,.69,1.62c-2,4.13-.64,8.39-.51,12.58.28,8.85.79,17.7,1.19,26.55a1.79,1.79,0,0,1-.16.59l-.43.07-6.62.36c-.69-.32-.67-1-.73-1.58-.45-4.67-.28-9.35-.35-14a150.64,150.64,0,0,0-1.05-16,6.17,6.17,0,0,1-.13-1,8,8,0,0,0-3.07-6.87c-.73-.63-2-1.24-1.22-2.67l2-.87.28.06c1.52,1.21,3,2.44,5.06,2.69.64,0,1.3-.27,1.92.13C59,94.15,59.51,92.69,60.7,92.49Z"/><path class="cls-5" d="M57.62,94.07a2,2,0,0,1-1.79.42,15.68,15.68,0,0,1-5.49-3.31h0c0-1.51,0-3,0-4.53a.83.83,0,0,1,.54-.19c.9.2,1.25,1,1.86,1.57,1.37,1.2,2.7,2.52,4.75,2.46.13-.77-.37-.84-.72-.91A8.32,8.32,0,0,1,51,85.34a2.35,2.35,0,0,0-1-.75,4,4,0,0,1-1.55-2.12c-.41-1.13-.14-2.17,1-2.51s1.9.39,2,1.64a26.94,26.94,0,0,1-.11-4.12c.11-.94.34-1.85,1.41-2a36.15,36.15,0,0,1,8.17-.64c.21,0,.36.19.51.33,1,3.74,1.83,7.48.78,11.36-.32,1.15-.65,2.29-2.18,2.33-.78,0-1.07.52-1,1.26A5.81,5.81,0,0,1,57.62,94.07Z"/><path class="cls-2" d="M48.31,92.06A1.22,1.22,0,0,0,49,93.27c3.66,2.66,4.34,6.53,4.65,10.71.75,9.89,1,19.79,1.06,29.7a1.8,1.8,0,0,0,.19.58c-1.06,1.39-2.53.81-3.82.68-2.85-.28-5.69-.75-8.54-1.14-.59-.83.14-1.09.65-1.36a12.77,12.77,0,0,1,2.52-.89c4.72-1.26,4.49-2.61,3.42-5.92a1.43,1.43,0,0,1,.24-.88c1.44-.6,1.87.47,2.16,1.45a6.76,6.76,0,0,1-.63,6c-.24.37-.73.77-.24,1.26.19.2.52.14.79.08a1,1,0,0,0,.76-1.07c-.07-3.36.5-6.75-.38-10.09a1.63,1.63,0,0,1,0-.82c1.42-5.9.78-11.74-.57-17.55a6.32,6.32,0,0,1,0-2.87c.57-2.44-.91-5.18-3.49-6.6-1.27-.7-3.94,0-5.52,1.4a23.4,23.4,0,0,0-3.43,4.39c-2.58,3.83-4.41,8.07-6.51,12.16a1.85,1.85,0,0,0,.19,2.11,44.83,44.83,0,0,0,7.38,8.06c1.73,1.49,2.67,1.83,4.15-.09a1.12,1.12,0,0,1,.71-.39c1.14.33,1.21,1.19,1.11,2.15-1.23,2.33-2.62,3.12-4.52,2.58-.17-.89-.89-1.33-1.51-1.88q-4.46-4-8.54-8.34a4,4,0,0,1-.85-4.72,91.31,91.31,0,0,1,9.23-16.5C41.66,92.58,45.08,92.35,48.31,92.06Z"/><path class="cls-1" d="M135.07,120.61c-.66-1-.16-2,0-2.94.61-3.28-1.07-5.9-2.46-8.61,1-.68,1.64.07,2.29.64.88.77,1.67,1.62,2.51,2.42,1.39,1.33,2.58,1,3.78-.12.91-.81,1.59-1.87,2.54-2.66,1.43-1.18,2.58-2.75,4.55-3.15a3.18,3.18,0,0,1,2.91,2.86,2,2,0,0,1-.37,2.08,95.48,95.48,0,0,1-6.9,8.39C140.48,123.07,139.66,123.16,135.07,120.61Z"/><path class="cls-1" d="M50.69,86.64l-.35,0a65.16,65.16,0,0,1-3.56-5.79c-2.39-4.88,0-9.84,5.35-11.18a17.4,17.4,0,0,0,4.67-1.58c2.65-1.52,4.57-1.23,5.82.7,1.46,2.27,1,4.49-1.2,6.34-2.66.24-5.32.55-8,.7-1.19.06-1.56.55-1.52,1.65,0,1.42,0,2.84,0,4.27-.2,0-.35,0-.44-.07-.63-.44-.74-1.61-1.84-1.34a1,1,0,0,0-.87,1c.15,1.25.49,2.44,1.93,2.84C51.59,85,51.87,85.84,50.69,86.64Z"/><path class="cls-6" d="M123.53,107a11.87,11.87,0,0,0-1.7-6.47,10.77,10.77,0,0,1-1.46-4.47,4.92,4.92,0,0,1,1.69-4.61,10.28,10.28,0,0,0,3.59-5.15c.34-1.2.92-.94,1.62-.4a6.36,6.36,0,0,1,2,3.7c.25.9,0,1.93.78,2.69a11.76,11.76,0,0,0-.35,4.26,4.41,4.41,0,0,1-1.77,3.9c-1.34.51-2.1,1.33-1.64,2.87.32,1.11-.18,2.15-.28,3.22A5,5,0,0,1,123.53,107Z"/><path class="cls-1" d="M74.25,195.1a3.09,3.09,0,0,0,.51.32c1.09.43,2.59.9,2.26,2.21-.27,1.06-1.8.4-2.74.44-2.88.1-5.75.07-8.63.09s-2.83,0-2.94-2.68a2.32,2.32,0,0,1,.83-3.07c1.78.08,3.59-.3,5.36.19A15.25,15.25,0,0,0,74.25,195.1Z"/><path class="cls-1" d="M49.45,196c.57.76,1.61,1.08,2,2.16-.76.57-1.67.29-2.5.3-2.54,0-5.1-.14-7.63,0-2.06.14-3.13-.3-2.57-2.58L39.9,193c1.56-.65,3.2,0,4.78-.34A9.71,9.71,0,0,1,49.45,196Z"/><path class="cls-7" d="M151.22,109.05a9.24,9.24,0,0,0-2.91-2.86A1.68,1.68,0,0,0,149.6,105c.65-1.88,1.39-3.58,3.73-4.19,1.52-.4,2.58-2,4.52-2.65-.48,1.65-1.57,2.15-2.45,2.87-.51.41-1.17.77,0,1.47,1.55.93,1.42,2.41-.24,3.28A10.33,10.33,0,0,0,151.22,109.05Z"/><path class="cls-8" d="M105.32,135.6a6.73,6.73,0,0,0,4.09-1.39c.72.34.28,1.26.83,1.68a5.2,5.2,0,0,0,1.21,3.9c.77,1.07,1.21,2.38-.67,3-.86,1-.18,2.35-.8,3.4,0-.2,0-.48-.13-.59-2.38-2.15-2.62-2.68-2.87-6.75A3.61,3.61,0,0,0,105.32,135.6Z"/><path class="cls-1" d="M118.55,195.79a9,9,0,0,1,3,1.68c.26.23.52.5.4.86s-.49.41-.85.41a53.78,53.78,0,0,1-7.18-.11c-.33,0-.66-.21-1-.23-1-.06-2.32.94-3-.33-.46-.93-.06-2.15.19-3.23a2.46,2.46,0,0,0,0-.61l.14-.67c.43-.73,1-.3,1.37-.05A16,16,0,0,0,118.55,195.79Z"/><path class="cls-9" d="M49.46,125.59c1.74,3.52.9,5.17-2.88,6.32-1.41.43-3.18.3-4.08,1.89l-.55.08c-1.14-2.25-.67-4.65-.67-7,1.86-.05,3-1.17,4.1-2.53C47.22,123.18,48.37,124.31,49.46,125.59Z"/><path class="cls-1" d="M138.87,196.71c.32.55,1.35.81.93,1.62-.31.61-1.12.37-1.72.36-3.08,0-6.16-.12-9.25-.15-.85,0-1.28-.28-1.19-1.2.06-.61,0-1.23,0-1.85a1.83,1.83,0,0,1,.26-2.1c.9-.41,1.54.22,2.25.55a15.28,15.28,0,0,0,6.14,1.86Z"/><path class="cls-10" d="M93.89,95.47c-.11-1.34-1.32-2.21-1.49-3.52,1.86-2.14,7.14-4.76,9.5-4.65-.57,1.47-2,1.78-3.13,2.42-.71.39-1,.67-.52,1.55,1,2,.61,2.57-1.56,3.2C95.74,94.75,94.61,94.55,93.89,95.47Z"/><path class="cls-1" d="M126.05,106.54a8.38,8.38,0,0,0-.37-3.34c1.29-.72,2.19.24,3.2.74,3.59,1.8,5.89,5.06,8.69,7.74,1.2,1.15,2,1.33,3.18.08a8.78,8.78,0,0,1,3-2.42,4.48,4.48,0,0,1-.38.72c-3.33,4.25-4.45,4.3-8.3.39a3.85,3.85,0,0,0-2.44-1.39,6.4,6.4,0,0,0-2.86-3.57C127.52,104.06,127.07,104.16,126.05,106.54Z"/><path class="cls-11" d="M136.34,195.8c-1.52.93-2.94.15-4.31-.38s-2.59-1.24-3.88-1.87a1.65,1.65,0,0,1-.45-2.26l4.86.29C132.35,194.3,134.63,194.8,136.34,195.8Z"/><path class="cls-12" d="M118.55,195.79c-2.44,1.09-4.34-.51-6.4-1.3-.63-.24-1-.94-1.79-.93,0-.74,0-1.49-.08-2.23h5c0,2.22,1.9,3,3.31,4.13C118.56,195.57,118.56,195.68,118.55,195.79Z"/><path class="cls-13" d="M128.88,103.94l-3.2-.74c-.37-3-.36-3,2.29-2.75A7.71,7.71,0,0,0,128.88,103.94Z"/><path class="cls-1" d="M45,193a6.52,6.52,0,0,1-5.09,0,.88.88,0,0,0-.43-1.14,14.89,14.89,0,0,1,5.6.46A.51.51,0,0,1,45,193Z"/><path class="cls-1" d="M68.9,192.6c-1.79.46-3.57.93-5.35,0-.64-.09-1.65.49-1.55-.89l7.35.06Z"/><path class="cls-4" d="M234.19,47.64C234.12,63.7,220.8,77.09,205,77a29.75,29.75,0,0,1-29.33-29.8c.08-16,13.51-29.4,29.32-29.3A29.31,29.31,0,0,1,234.19,47.64Z"/><path class="cls-1" d="M110.39,135.14c0-.27-.16-.6,0-.81,2.07-4.42,1.85-9,1.17-13.69.25-.39.47-1,1-.86s.28.7.27,1.07a87.59,87.59,0,0,0,.39,9.58c.16,1.92-.87,3.36-1.9,4.83C110.79,136,110.67,135.25,110.39,135.14Z"/><path class="cls-2" d="M50.34,91.18l5.49,3.31C53.58,94.1,51.55,93.32,50.34,91.18Z"/><path class="cls-14" d="M50.69,86.64a2,2,0,0,0,0-2.41c1.24.88,1.52,2.53,2.93,3.4a10.49,10.49,0,0,0,3.54,1.42c.89.17,1.69.41,1.35,1.54s-1.29.77-1.91.57a9.87,9.87,0,0,1-5-3.47C51.35,87.32,51,87,50.69,86.64Z"/><path class="cls-2" d="M44.52,122.26c-1.22,2.68-2.07,3-4.24,1.41a32.64,32.64,0,0,1-7.29-7.5c-2.1-3.06-2.06-3,.07-6.32.61-1,.78-2.19,1.33-3.2a98.88,98.88,0,0,1,5.9-9.55,9.25,9.25,0,0,1,6.17-3.68,1.65,1.65,0,0,1,1.53.44c1.53,1.52,3.45,2.74,4.07,5,.13.46.38.9.13,1.38-1.24,2.37-.22,4.65.29,6.95a14.87,14.87,0,0,1,.63,3.62c-.15,3.3.48,6.65-.57,9.9-.09.26-.3.62-.21.78,1.23,2.08-.18,4.41.64,6.52a2.69,2.69,0,0,1-.12,2.38,1.56,1.56,0,0,0-.08,1.74,1.17,1.17,0,0,1-.49,1.88,2.41,2.41,0,0,1-2.56-.12c-.9-.67,0-1.22.37-1.67,1.68-1.9,1.29-4.06.81-6.21a1.47,1.47,0,0,0-1.42-1.28c-1.06,0-1.12-.9-1.38-1.52-1.91-4.51-3.79-9-4.3-14a.81.81,0,0,0-.31-.6c-1.17.8-1.55,2.2-2.34,3.28-1.59,1.88-1.59,2.13,0,3.92,1.16,1.58,2.1,3.31,3.2,4.93C44.69,121.23,45,121.73,44.52,122.26Z"/><path class="cls-9" d="M40.71,112c.47-1.93,1.75-3.33,3.28-5.18a54.42,54.42,0,0,0,5.49,17.89c0,.28,0,.56,0,.84-1.36-.45-2.49-1.63-4.09-1.25-.05-.79.07-1.65-.86-2.08l-3.73-6.2A3.57,3.57,0,0,1,40.71,112Z"/><path class="cls-15" d="M43.68,127.67A2.3,2.3,0,0,1,46,125.6c1.36,0,3.06,1.36,3,2.56a2.75,2.75,0,0,1-2.53,2.74C45.21,131.11,43.73,129.45,43.68,127.67Z"/><path class="cls-16" d="M195.13,52.15c0-2.59,0-5.19,0-7.78,0-.54-.16-1.22.56-1.43,2.25-.69,3.58-2.43,4.88-4.2,1.65-2.24,3.23-4.54,4.68-6.93,1.32-2.18,1.56-4.59,1.76-7,.11-1.42.79-1.89,2.12-1.33a4.1,4.1,0,0,1,2.21,2.2c1.27,2.82.9,5.64.06,8.46-.33,1.12-.61,2.26-1,3.36-.42,1.27-.08,1.76,1.3,1.73,3-.08,6,0,9,0,3.46,0,4.93,2.59,3.16,5.6a.86.86,0,0,0,.05,1.08c1.57,2.39,1.54,3.12-.22,5.23a1,1,0,0,0-.15,1.19,3.17,3.17,0,0,1-1.31,4.34c-.68.42-.65.68-.38,1.4a3,3,0,0,1-2.83,4.41,110.72,110.72,0,0,1-18.57-.05c-1.55-.15-3.06-.72-4.6-1-.84-.16-.71-.74-.72-1.27,0-2.65,0-5.29,0-7.94Z"/><path class="cls-2" d="M193.69,52.19c0,3.3,0,6.61,0,9.91,0,1-.33,1.33-1.32,1.31-2.39-.06-4.78-.06-7.17,0-.86,0-1.14-.29-1.14-1.15q0-10.08,0-20.15c0-.76.21-1.11,1-1.09,2.5,0,5,.06,7.48,0,1,0,1.07.5,1.07,1.24,0,3.31,0,6.62,0,9.93Z"/><path class="cls-1" d="M190.84,60.44c-.06,1-.49,1.58-1.46,1.66s-1.49-.6-1.57-1.48A1.4,1.4,0,0,1,189.24,59C190.26,58.92,190.67,59.56,190.84,60.44Z"/><path class="cls-1" d="M242.8,118.23a97.77,97.77,0,0,0,7.47-10.13c-1.92,0-3.38.63-4.92.84-.78.1-1.5.13-1.71-.82s.43-1.31,1.2-1.48q3.72-.87,7.46-1.69a1.46,1.46,0,0,1,2,1.24c.52,2.43,1.08,4.85,1.62,7.28.17.8.28,1.7-.72,2-1.16.3-1.41-.67-1.62-1.51-.34-1.44-.65-2.9-1.06-4.71a63.46,63.46,0,0,1-4.41,6.06,16,16,0,0,0-4.64,12.32c.25,6.63-2.63,12.61-7.05,17.66-.84,1-1,1.68-.22,2.67a4.84,4.84,0,0,1,.7,1.18c1.06,2.42,2.25,4.07,5.55,3.49,2.81-.5,5.18,1.29,6.64,3.75,3.6,6.08,7.16,12.19,10.6,18.37a8,8,0,0,1-3,10.94q-3.51,2.17-7.14,4.13a8,8,0,0,1-11.07-3.05c-3.5-5.91-6.92-11.87-10.32-17.85a8,8,0,0,1,1-9.8,1.41,1.41,0,0,0,.2-2c-.85-1.32-1.31-3.18-2.49-3.92s-2.87.69-4.32,1.13a29.77,29.77,0,1,1,19.54-37.87Zm-9.27,7.26a19.6,19.6,0,1,0-33.31,14.36A3.9,3.9,0,0,0,203.9,141a58.36,58.36,0,0,0,27.68-11.77C233,128.14,234,127,233.53,125.49Zm24.81,52.75a5.14,5.14,0,0,0-.9-2.77c-3.36-5.83-6.7-11.68-10.11-17.48a5.7,5.7,0,0,0-8.23-2.29c-2.23,1.22-4.44,2.51-6.62,3.82-3,1.85-4,5-2.23,8.09q5.06,9,10.28,17.84a5.66,5.66,0,0,0,8,2.21c2.36-1.27,4.66-2.64,7-4A5.76,5.76,0,0,0,258.34,178.24Zm-60-36.7c-7.21-8.71-8.74-17.85-3-27.31,5-8.14,12.75-11.71,22.18-10,11.36,2,17.14,9.62,18.61,21.38,1.33-1.46,2.3-2.68,3.45-3.73a2.71,2.71,0,0,0,.8-3.13c-3.25-10.53-10.1-17.42-20.92-19.65-11-2.26-20.36,1.21-27.19,10.07s-7.48,18.54-3,28.72c1.2,2.7,2.74,4.29,5.89,3.69A18.33,18.33,0,0,1,198.35,141.54Zm-4.53,2.39c5,6.85,18.09,12.37,30.52,7.21C235.25,146.6,243.22,133.77,241,124c-1.43,1.34-2.76,2.66-4.17,3.9a4.2,4.2,0,0,0-1.42,2.46c-2.9,14.13-18.53,21.77-31.31,15C200.64,143.48,197.41,144.16,193.82,143.93Zm11.55-.74c5,3.06,12.46,2.88,18.1-.23,4.61-2.55,8.76-7.83,8.77-11.26A59.1,59.1,0,0,1,205.37,143.19Zm31.51,10.62c-.4-.7-.81-1.44-1.24-2.18-1.91-3.31-1.85-3.21-5-1.28-1.45.91-1.6,1.55-.7,3,2.43,4,2.61,4.07,6.33,1.21C236.55,154.36,236.86,154.23,236.88,153.81Z"/><path class="cls-1" d="M217.57,122.61c0-2.55,0-5.11,0-7.66,0-1.44.58-2,2-2,7.35.13,5.95-.94,6.07,5.71.06,3.87,0,7.73,0,11.6,0,1.63-.58,2.21-2.19,2.17-6.86-.18-5.8,1-5.9-5.72C217.55,125.36,217.57,124,217.57,122.61Zm5.7,0c0-2-.07-3.93,0-5.89.05-1.2-.5-1.44-1.52-1.37s-1.85-.18-1.83,1.29c.05,4.06.06,8.11,0,12.17,0,1.53,1,1.16,1.85,1.24,1,.1,1.55-.17,1.5-1.36C223.2,126.69,223.27,124.66,223.27,122.63Z"/><path class="cls-1" d="M215.82,125.25c0,1.76,0,3.53,0,5.3,0,1.33-.49,1.94-1.85,1.9s-3,0-4.52,0c-1.15,0-1.68-.5-1.68-1.65,0-3.73,0-7.46,0-11.19,0-1.18.63-1.63,1.73-1.62,1.51,0,3,0,4.52,0s1.84.66,1.8,2C215.78,121.71,215.82,123.48,215.82,125.25Zm-2.37.08c0-1.18-.08-2.36,0-3.53.12-1.34-.57-1.47-1.64-1.47s-1.74.13-1.69,1.47c.09,2.15.08,4.31,0,6.47,0,1.27.21,1.84,1.68,1.85s1.76-.6,1.65-1.85C213.38,127.29,213.45,126.31,213.45,125.33Z"/><path class="cls-1" d="M206,127.58c-.06,5.57.72,4.81-4.93,4.85-3.09,0-3.09,0-3.09-3.16,0-1.56,0-3.13,0-4.7-.05-1.38.41-2.09,1.91-2s2.88.06,4.31,0,1.9.56,1.83,1.88C206,125.49,206,126.54,206,127.58Zm-5.65-.31v.51c0,1.19-.36,2.4,1.73,2.36s1.47-1.29,1.54-2.33c0-.39,0-.79,0-1.17.22-1.38-.37-1.69-1.71-1.74C199.68,124.8,200.56,126.37,200.36,127.27Z"/><path class="cls-1" d="M249.82,168.81a1.2,1.2,0,0,1-.69,1.09,1,1,0,0,1-1.39-.37c-1.79-3-3.54-6.09-5.29-9.16a1,1,0,0,1,.45-1.5,1,1,0,0,1,1.41.25c1.83,3.08,3.61,6.2,5.4,9.31A2.11,2.11,0,0,1,249.82,168.81Z"/></svg>