<svg id="Capa_1" data-name="Capa 1" xmlns="http://www.w3.org/2000/svg" viewBox="0 0 66.03 62.04"><defs><style>.cls-1{fill:#c8895e;}</style></defs><path class="cls-1" d="M12,39.51c-3.16-4.17-3.36-7.74-.63-10.81a7.51,7.51,0,0,1,9.31-1.53c3.63,2.09,4.5,5.48,2.68,10.8A10.54,10.54,0,0,0,27,35.47c2.72-2.7,5.4-5.44,8.14-8.12a3.57,3.57,0,0,1,6.11,1.59,3.69,3.69,0,0,1-1.23,3.69c-4.52,4.5-9,9-13.54,13.51a3.38,3.38,0,0,0-1.1,2.69c0,3.4,0,6.8,0,10.2,0,.75-.17,1-1,1q-9.85,0-19.71,0c-.78,0-1-.23-1-1,0-3.09,0-6.17,0-9.26a10.28,10.28,0,0,1,7.41-10ZM17,58.13c1.88,0,3.75,0,5.63,0,.76,0,1-.19,1-1-.05-2.89,0-5.79,0-8.68A4.45,4.45,0,0,1,25,45c4.34-4.29,8.64-8.62,13-12.94a12.11,12.11,0,0,0,1.21-1.27,1.65,1.65,0,0,0-.6-2.57c-1-.45-1.64,0-2.29.66l-8,8a12.72,12.72,0,0,1-5.78,3.45,2.74,2.74,0,0,0-2.25,2c-.87,2.66-3.59,3.4-5.48,1.7a3.86,3.86,0,0,1-1.23-2c-.18-.83-.57-.83-1.25-.69a8.5,8.5,0,0,0-6.57,8c0,2.34,0,4.69,0,7,0,1.65,0,1.59,1.68,1.67,1,0,1.17-.27,1.15-1.17,0-3,0-6.1,0-9.15,0-.75.17-1,1-1s1,.29.95,1c0,3.13,0,6.26,0,9.39,0,.73.21.93.92.91C13.19,58.09,15.07,58.13,17,58.13Zm0-30.05a5.63,5.63,0,1,0,5.65,5.67A5.66,5.66,0,0,0,17,28.08Zm0,13.15H15.81c-.31,0-.57.07-.42.45a1.92,1.92,0,0,0,1.43,1.39,1.73,1.73,0,0,0,1.74-1.41c0-.95-.83-.23-1.24-.43A1,1,0,0,0,17,41.23Z"/><path class="cls-1" d="M46.1,27c-1.87-1.24-3.57-2.28-5.17-3.46a5.46,5.46,0,0,0-3.68-1.14c-1.11,0-2.09-.09-2.91,1a3,3,0,0,1-2.8.89,3,3,0,0,0-2.06.63c-1.89,1.3-3.82,2.55-5.93,3.95,0-1.36,0-2.51,0-3.66,0-.71-.16-.94-.9-.93-2.39.05-4.78,0-7.16,0a3.79,3.79,0,0,1-4.16-4.15q0-4.35,0-8.68a3.77,3.77,0,0,1,4.11-4.08c5.13,0,10.25,0,15.38,0,.83,0,1.2-.1,1.21-1.1a4.55,4.55,0,0,1,4.6-4.53q10.38-.06,20.77,0a4.61,4.61,0,0,1,4.64,4.63q.08,5.7,0,11.38a4.63,4.63,0,0,1-4.75,4.64c-3.29,0-6.58.07-9.86,0-1.19,0-1.47.35-1.36,1.44S46.1,25.79,46.1,27Zm-1.89-3.53a11.11,11.11,0,0,0,0-1.56c-.19-1.15.27-1.42,1.39-1.39,3.83.07,7.67,0,11.5,0a2.79,2.79,0,0,0,3.08-2.81c0-3.76,0-7.51,0-11.26a2.73,2.73,0,0,0-2.84-2.81q-10.33,0-20.65,0a2.7,2.7,0,0,0-2.77,2.75c0,3.79,0,7.59,0,11.38a2.75,2.75,0,0,0,2.78,2.75,14.74,14.74,0,0,0,1.88,0,3.2,3.2,0,0,1,2.28.68C41.87,22,43,22.65,44.21,23.48ZM25.44,25.34l1.6-1c1.54-1,3-2.34,5.09-1.89a1.25,1.25,0,0,0,.76-.23c.63-.35,1-.72.28-1.42A4.38,4.38,0,0,1,32,17.54c0-2.43,0-4.85,0-7.28,0-.75-.19-1-1-1-5.2,0-10.41,0-15.61,0-1.52,0-2.2.7-2.21,2.24,0,2.85,0,5.71,0,8.56,0,1.68.66,2.33,2.36,2.33,2.93,0,5.87,0,8.8,0,.79,0,1.16.15,1.06,1A17,17,0,0,0,25.44,25.34Z"/><path class="cls-1" d="M50,41.12c-4.16-1.77-6.06-4.47-5.77-8.07A7.57,7.57,0,0,1,50,26.41a7.48,7.48,0,0,1,8.18,3.42c1.86,3.06,1.38,6.23-1.47,9.64.24.35.67.35,1,.51A7.08,7.08,0,0,1,62,46.55c.08,4.18,0,8.37,0,12.55,0,.72-.18.93-.91.93-4.73,0-9.47,0-14.2,0-.75,0-.89-.26-.9-.94,0-.92.45-2.18-.21-2.67s-1.79-.16-2.73-.16c-1.91,0-3.83,0-5.75,0a3.29,3.29,0,1,1,0-6.57c2.62,0,5.24,0,7.86,0,.84,0,1.16-.27,1.31-1.05s.48-1.73.69-2.61A8.57,8.57,0,0,1,50,41.12ZM60.18,51.93c0-1.68,0-3.36,0-5a5.45,5.45,0,0,0-10.76-1.44c-.49,1.72-1,3.45-1.4,5.2a1,1,0,0,1-1.19.93c-3,0-6.1,0-9.15,0-1.25,0-1.91.51-1.9,1.41s.65,1.39,1.91,1.4H47.91c1.94,0,2.28-.25,2.88-2,.86-2.56,1.74-5.1,2.55-7.67.22-.71.46-.92,1.22-.64s.83.56.59,1.26c-.94,2.69-1.82,5.4-2.72,8.11a3.7,3.7,0,0,1-3.7,2.85c-.8,0-.76.41-.76,1s0,1,.75,1c3.56,0,7.12,0,10.68,0,.63,0,.8-.2.79-.81C60.16,55.53,60.18,53.73,60.18,51.93ZM51.79,28.08a5.63,5.63,0,1,0,5.57,5.74A5.67,5.67,0,0,0,51.79,28.08Z"/><path class="cls-1" d="M47,13c3.41,0,6.81,0,10.21,0,.75,0,1.12.08,1.1,1s-.34.93-1,.93q-10.28,0-20.54,0c-.69,0-1-.08-1-.92s.33-1,1.09-1C40.23,13.06,43.63,13,47,13Z"/><path class="cls-1" d="M46.92,18.68c-3.41,0-6.81,0-10.21,0-.79,0-1-.24-1-1s.18-.93.92-.93q10.4,0,20.77,0c.75,0,.91.24.92.93s-.2,1-1,1C53.88,18.66,50.4,18.68,46.92,18.68Z"/><path class="cls-1" d="M45.28,9.28c2.77,0,5.55,0,8.33,0,.79,0,1,.24,1,1s-.18.93-.92.93q-8.5,0-17,0c-.75,0-.91-.24-.92-.93s.2-1,1-1C39.56,9.31,42.42,9.28,45.28,9.28Z"/><path class="cls-1" d="M50.79,7.41c-2.19,0-4.38,0-6.57,0-.78,0-1-.23-1-1s.17-.94.91-.93q6.63.06,13.26,0c.74,0,.91.23.92.93s-.19,1-1,1C55.17,7.38,53,7.41,50.79,7.41Z"/><path class="cls-1" d="M37.62,6.46c.19.82-.21,1-.94,1s-.93-.32-.94-1,.22-.92.93-.92S37.82,5.63,37.62,6.46Z"/><path class="cls-1" d="M39.53,6.34c-.23-1,.51-.75,1.07-.82,1-.13.74.57.81,1.12.12.91-.5.72-1,.79C39.46,7.55,39.45,7,39.53,6.34Z"/><path class="cls-1" d="M58.29,10.23c.19.83-.23.94-.95,1s-.92-.34-.94-1,.24-.91.94-.91S58.48,9.41,58.29,10.23Z"/><path class="cls-1" d="M22.73,14.92c2.15,0,4.31,0,6.46,0,.79,0,1,.25,1,1s-.18.94-.92.93q-6.63,0-13.26,0c-.74,0-.9-.23-.91-.93s.19-1,1-1C18.27,15,20.5,14.92,22.73,14.92Z"/><path class="cls-1" d="M22.73,18.68c2.15,0,4.31,0,6.46,0,.79,0,1,.24,1,1s-.18.94-.92.93q-6.63,0-13.26,0c-.74,0-.9-.23-.91-.93s.19-1,1-1C18.27,18.71,20.5,18.68,22.73,18.68Z"/><path class="cls-1" d="M24.58,11.16c1.61,0,3.21,0,4.81,0,.81,0,.75.43.75,1s.05,1-.75,1c-3.28,0-6.57,0-9.85,0-.87,0-.66-.54-.69-1s-.06-.92.69-.9C21.22,11.2,22.9,11.16,24.58,11.16Z"/><path class="cls-1" d="M16.06,13c-.79.18-1-.18-1-.93s.28-1,1-1,1,.19.93.92S16.92,13.23,16.06,13Z"/></svg>