<svg id="Capa_1" data-name="Capa 1" xmlns="http://www.w3.org/2000/svg" viewBox="0 0 219.64 207.54"><defs><style>.cls-1{fill:#c8895e;stroke:#c8895e;stroke-miterlimit:10;}</style></defs><path class="cls-1" d="M28.6,129.89V70.45c0-6,1.34-7.38,7.4-7.39,16.69,0,33.39,0,50.08-.06a7.66,7.66,0,0,1,6,2.55q11,11.2,22.17,22.17a7.31,7.31,0,0,1,2.36,5.7q-.11,48,0,96.08c0,5.75-1.43,7.15-7.24,7.15H36.07c-6.1,0-7.46-1.34-7.46-7.33Q28.6,159.62,28.6,129.89Zm3.29-.06q0,29.7,0,59.4c0,2.34-.06,4.21,3.27,4.19q37.44-.13,74.86,0c2.45,0,3.34-.85,3.34-3.32q-.07-47.4,0-94.8c0-2.36-.75-3-3-2.93-5.69.14-11.39.1-17.08,0-4.23,0-5.94-1.74-6-5.91-.07-5.42-.24-10.86.07-16.27.19-3.38-1.07-4-4.11-3.93q-23.39.21-46.79,0c-3.54,0-4.65.94-4.62,4.56C32,90.5,31.89,110.16,31.89,129.83ZM90.54,69.34V86.58c0,1.36.4,2.48,2,2.49,5.83,0,11.67,0,17.78,0Z"/><path class="cls-1" d="M188.26,89.74q0,23.81,0,47.61c0,5.77-1.42,7.17-7.2,7.18-18.59,0-37.17,0-55.76-.06-1.27,0-3.66,1.28-3.76-1.5s2.34-1.65,3.61-1.66c18.45-.09,36.9-.15,55.35,0,3.63,0,4.57-1.09,4.55-4.63q-.18-46.2,0-92.39c0-3.58-1.13-4.26-4.35-4.1-5.28.26-10.58.13-15.87,0-4.19-.06-5.86-1.77-5.91-6-.07-5.7-.12-11.4,0-17.09.06-2.27-.58-3-2.94-3q-24.42.13-48.83,0c-2.94,0-3.69,1.09-3.68,3.83.1,15.33,0,30.66,0,46,0,.95,0,1.9,0,2.85,0,1.13-.43,1.74-1.69,1.72s-1.56-.79-1.56-1.85c0-3.8,0-7.6,0-11.39q0-18.72,0-37.45c0-5.47,1.49-6.92,7-6.93,16.82,0,33.64.05,50.46-.06a7.64,7.64,0,0,1,6,2.56q11,11.21,22.16,22.17a7.24,7.24,0,0,1,2.35,5.7C188.22,57.45,188.26,73.59,188.26,89.74ZM180.54,37c-6-6-12.39-12.38-18.34-18.31,0,4.46.06,9.86,0,15.25,0,2.27.88,3.13,3.12,3.09C170.69,36.94,176.09,37,180.54,37Z"/><path class="cls-1" d="M129.58,56.57c4.31,0,6.21,2.2,8.23,4.21,6.46,6.44,6.46,6.43,13-.08a28.63,28.63,0,0,1,2.66-2.51,7.19,7.19,0,0,1,9.63.42,7.08,7.08,0,0,1,.66,9.9,81.07,81.07,0,0,1-7.11,7.25c-1.52,1.42-1.73,2.43,0,3.88,1.94,1.68,3.68,3.59,5.49,5.43,4,4.13,4.43,8.47,1.07,11.73s-7.47,2.75-11.43-1.12c-1.84-1.81-3.76-3.54-5.43-5.49s-2.68-1.57-4.17.1a87.63,87.63,0,0,1-6.32,6.32c-3.36,3.07-7.59,3-10.55.09s-2.87-7.11.12-10.56c2.54-2.94,7.6-5.2,7.39-8.54-.18-2.88-4.74-5.48-7.33-8.23-2.37-2.5-3.13-5.35-1.6-8.56A7,7,0,0,1,129.58,56.57Zm8,20.74c0,1.5-1,2.13-1.7,2.88-2.57,2.61-5.17,5.18-7.75,7.77-2,2-2.7,4.2-.49,6.39s4.42,1.4,6.39-.56c2.69-2.68,5.44-5.3,8-8.06,1.59-1.7,2.81-1.61,4.36,0,2.6,2.76,5.34,5.39,8,8.06,2,2,4.21,2.7,6.39.49s1.4-4.42-.57-6.39c-2.68-2.69-5.29-5.44-8.06-8-1.69-1.59-1.6-2.8.05-4.35,2.76-2.6,5.38-5.34,8.05-8,2-2,2.69-4.22.49-6.4s-4.42-1.39-6.39.58c-2.69,2.67-5.44,5.29-8,8.06-1.59,1.68-2.8,1.6-4.36,0-2.69-2.85-5.5-5.6-8.33-8.33-1.92-1.85-4.08-2.25-6.09-.22s-1.55,4.19.3,6.1c2.64,2.72,5.36,5.36,8,8.07C136.61,76,137.16,76.74,137.63,77.31Z"/><path class="cls-1" d="M73.21,33.48c-2.1-2.64-3.3-5.11-1.06-7.67s4.78-2.55,7.15-.34c3.27,3.05,6.41,6.25,9.52,9.47,2.41,2.5,2.25,5.1-.13,7.54-2.55,2.63-5.2,5.16-7.75,7.8-2.31,2.4-4.81,4.48-8.06,1.87s-2-5.48.21-8.19c-4.56-.29-7.86,2.28-8.53,6.59a15.25,15.25,0,0,0-.09,2c-.14,5-1.79,7.35-5.11,7.2s-4.72-2.4-4.69-7.2C54.71,41.75,61.1,35,73.21,33.48Zm.85,6.77c1.51.45,4-1.09,4.92,1.14s-1.8,3-2.85,4.48a7.8,7.8,0,0,1-.57.58c-.81.9-2,1.8-.64,3,1.12,1,2,.09,2.76-.67,2.79-2.77,5.53-5.59,8.36-8.33,1.38-1.33,1.34-2.44,0-3.75-2.54-2.45-5-5-7.51-7.45-1-.91-1.91-3-3.57-1.46s.47,2.5,1.24,3.59c1,1.47,3.71,2.33,2.79,4.49s-3.4.75-5.17,1.1a1.78,1.78,0,0,1-.4,0c-9.34.12-15.56,6.42-15.42,15.69,0,1.37-.61,3.5,1.52,3.58s1.63-2,1.68-3.43C61.49,44.59,65.75,40.32,74.06,40.25Z"/><path class="cls-1" d="M152.64,165.13c-1.44,12.44-8.85,18.92-20.46,18.52-3.32-.12-5.71-1.4-5.73-4.9s2.35-4.83,5.68-4.94c7.45-.26,10.08-2.48,10.24-8.66-.74.5-1.35,1-2,1.35a4.55,4.55,0,0,1-6.24-.89,4.38,4.38,0,0,1-.06-6.29c3.31-3.58,6.74-7.08,10.37-10.33,2.25-2,4.8-1.5,6.93.6q4.49,4.42,8.92,8.91c2.06,2.09,2.73,4.48.78,6.91s-4.35,2.49-6.87.8Zm-6.76-1.63c.36,5.87-1.7,10.11-6.8,12.62-2.13,1-4.46,1-6.77,1-1.13,0-2.41.08-2.48,1.46-.1,1.72,1.34,1.66,2.58,1.77,9.24.78,16.42-5.62,16.77-14.81.07-2.07-1.16-5,.9-6,2.62-1.33,3.52,2.19,5.35,3.32a1.92,1.92,0,0,1,.29.28c.73.68,1.53,1.29,2.48.47,1.16-1,.53-1.94-.29-2.76q-4.31-4.34-8.63-8.64c-.8-.8-1.76-1.58-2.8-.57-3.32,3.2-6.56,6.48-9.79,9.77a1.38,1.38,0,0,0,.08,2.15,1.48,1.48,0,0,0,2.17-.09c.62-.53,1.14-1.18,1.78-1.67,1.31-1,2.1-3.39,4.22-2.4C146.76,160.22,145.58,162.31,145.88,163.5Z"/><path class="cls-1" d="M97,121.16A7.41,7.41,0,0,1,94.53,127c-7.2,7.19-14.35,14.44-21.61,21.57-3.54,3.48-6.81,3.48-10.33.09q-6.17-5.94-12.09-12.09c-3.06-3.18-3.09-7.09-.3-9.74s6.37-2.39,9.47.47a56.16,56.16,0,0,1,5.16,5.19c2,2.36,3.38,2.64,5.67.15,4.88-5.28,10.08-10.26,15.21-15.3A6.57,6.57,0,0,1,97,121.16Zm-3.3.46a3.13,3.13,0,0,0-2-2.81c-1.83-.81-3.09.23-4.28,1.42C81.69,126,75.9,131.67,70.24,137.49c-1.84,1.88-3.26,1.93-5,0-2.38-2.58-5-5-7.43-7.49-1.58-1.6-3.32-2.63-5.25-.74s-1,3.64.62,5.25c3.84,3.81,7.7,7.61,11.47,11.49,2.15,2.22,4.05,2.2,6.22,0,7-7.13,14.14-14.18,21.22-21.27A4.17,4.17,0,0,0,93.71,121.62Z"/></svg>