<svg id="Capa_1" data-name="Capa 1" xmlns="http://www.w3.org/2000/svg" viewBox="0 0 389.11 229.23"><defs><style>.cls-1{fill:#6c2910;}.cls-2{fill:#c7804d;}.cls-3{fill:#e9a16e;}.cls-4{fill:#fccd74;}.cls-5{fill:#5e432f;}.cls-6{fill:#c15c33;}.cls-7{fill:#c66c3d;}.cls-8{fill:#2e5f37;}.cls-9{fill:#513928;}.cls-10{fill:#2b603a;}.cls-11{fill:#ca6e3e;}.cls-12{fill:#c46939;}.cls-13{fill:#c36939;}.cls-14{fill:#5a3e2b;}.cls-15{fill:#593f2b;}.cls-16{fill:#c66c3c;}.cls-17{fill:#c36839;}.cls-18{fill:#593d2a;}.cls-19{fill:#5a3d2a;}.cls-20{fill:#dad49d;}.cls-21{fill:#5c412d;}.cls-22{fill:#d08432;}.cls-23{fill:#f4bd64;}.cls-24{fill:#9f401f;}.cls-25{fill:#86371c;}.cls-26{fill:#f4bd63;}.cls-27{fill:#f4be65;}</style></defs><path class="cls-1" d="M29.34,155.29c.28-6.83.87-13.61,5.15-19.37,3.33-4.49,8-7.17,13.11-9.11,5.31-2,10.65-3.91,16-5.87.58.12.85.59,1.17,1,5.23,7,12.3,9.81,20.92,9.19,1.91-.13,3.78-.78,5.72-.51a1,1,0,0,1,.36.27,1.34,1.34,0,0,1,.2.67c0,2,1.11,2.9,2.87,3.33a2.2,2.2,0,0,1,1.36.7c.51,1,.18,2.05.44,3.07a7.74,7.74,0,0,0,.75,2.1,8.37,8.37,0,0,0,2.48,3,8,8,0,0,1,2.62,2.85c.48,1.09,1.17,1.1,2.09.78a43.85,43.85,0,0,0,10.16-4.83c.32-.21.66-.4,1-.6,1,.21,1.29,1.09,1.71,1.77q5.41,8.81,10.73,17.65c2.06,3.42,4.27,6.76,6.42,10.13.9,1.42,1.65,2.92,2.27,4.07a90.52,90.52,0,0,0-4.68-8c-5-7.84-9.72-15.84-14.66-23.72-.49-.8-.82-2-2.17-1.91a2,2,0,0,1-.87-1c-1.33-3-2.94-5.88-2.72-9.32a19,19,0,0,0-.39-4.31c-.12-.7-.31-1.44.28-2,6.72,1.87,12.67,5,16.55,11,2.58,4,4,8.61,5.39,13.17,2.87,9.39,5.6,18.82,7.53,28.45.95,4.77,1.16,9.54-.43,14.28a12,12,0,0,1-12.88,8.54,5,5,0,0,1-.81-.24s.08-.1.1-.1c.17.08.32,0,.13,0-4.58-.74-7.6-3.67-10.3-7.17s-4.24-7.52-5.57-11.66c-1.54-4.77-3.22-9.48-4.73-14.25s-3-9.46-4.36-14.23c-.12-.4-.09-.83-.17-1.24a54.53,54.53,0,0,0,2.13,8c1.78,5.65,3.61,11.28,5.53,16.89a2.3,2.3,0,0,1,.2,1.27,1.31,1.31,0,0,1-.5.86c-2.34,1.69-4.52,3.61-7,5.09-.68.43-1.41.13-2.12.13-6.89,0-13.77-.2-20.66-.44-6-.2-12-.59-17.94-.46a9.27,9.27,0,0,1-1.58-.13c-1.64-.26-1.93-.56-2.13-2.22-.37-3-1.1-6-1.68-8.94-1-5.1-2.16-10.17-3.08-15.28a62.38,62.38,0,0,0-2.28-8.34,44.3,44.3,0,0,0-2.22-5.16,22.43,22.43,0,0,0-4.61-6.34A23.43,23.43,0,0,1,49.49,145a68.83,68.83,0,0,1,4.38,15.51c1.14,6.15,2.46,12.28,3.76,18.4.17.81.21,1.62.33,2.43.22,1.51-.12,2-1.65,2a18.66,18.66,0,0,0-6.93,1.26c3.27-1.21,6.67-1.27,10.09-1.31,6-.07,12.06.27,18.09.42,7,.17,14,.59,21.09.52a3.58,3.58,0,0,1,1.81.4,20.26,20.26,0,0,1,2.67,9.63c.08,1.4,0,2.8,0,4.2s.15,1.67,1.66,1.65a28,28,0,0,0,11.85-2.84,6.3,6.3,0,0,1,2-.77,3.29,3.29,0,0,1,2.84,2.37q0,7.15.08,14.3c0,2.27-.28,2.57-2.59,2.55-1.59,0-3.17,0-4.76-.06a1.55,1.55,0,0,0-.85-.12c-9.76,0-19.52,0-29.28,0a1.75,1.75,0,0,0-.85.1l-30.37.05H43.78c-1.56,0-2-.43-2-1.93,0-2.26,0-4.53.06-6.79,1.57-.13,3,.6,4.5.82a77.51,77.51,0,0,0,17,.37c5.14-.37,10.26-1,15.36-1.66,4.28-.56,8.53-1.29,12.78-2.09,3.35-.63,6.67-1.42,10-2a3.76,3.76,0,0,1,.75-.07c-2.72.32-5.6,1.1-8.52,1.65-5.09,1-10.19,1.87-15.33,2.51S67.87,207.66,62.57,208a93.54,93.54,0,0,1-11,.06,34.56,34.56,0,0,1-8.7-1.19,2.39,2.39,0,0,1-1.12-.6c-2.68-1-4.34-3.14-5.71-5.5-2.29-3.94-3.25-8.32-4.14-12.72a131.47,131.47,0,0,1-2.27-15.44c0-.38,0-.76,0-1.15a6.25,6.25,0,0,0-.3-3.45v-.33C29.51,163.58,29.52,159.44,29.34,155.29Z"/><path class="cls-2" d="M46.57,13.64c8.5.2,17.09,1.63,24.11,6.64s10.44,12,9.64,20.82C79.7,48,76.84,53.69,71,57.35S58.37,62.77,51.5,63.66a57.56,57.56,0,0,1-9.82.57c-.92,0-.92.41-.83,1,.45,3.12,1.06,6.17,3.1,8.73.3.37.9.86.51,1.37a1.73,1.73,0,0,1-1.89.36,16.49,16.49,0,0,1-6.69-3.86,23.93,23.93,0,0,1-5.62-7.1,1.89,1.89,0,0,0-1.58-1.16C21,62.4,13.84,59.9,8.34,54A22,22,0,0,1,10.8,21.93c4.71-3.84,10.23-5.81,16.09-7a74,74,0,0,1,12.34-1.22C41.64,13.62,44.1,13.58,46.57,13.64Z"/><path class="cls-3" d="M111.62,125.3c.33,2.87.34,5.78.74,8.61a16.81,16.81,0,0,0,3.33,8h0c.09.65-.49.77-.86,1a44.59,44.59,0,0,1-10.42,4.87c-1,.36-1.81.51-2.22-.94s-1.66-2.08-2.71-2.91a7.17,7.17,0,0,1-2.36-2.85,10.35,10.35,0,0,1-.42-5.21,7.43,7.43,0,0,0-.24-3.27,2.8,2.8,0,0,0-.09,1.52c0,.5.27,1.07-.4,1.37-.51-.1-1-.18-1.53-.32-2.43-.67-3.11-1.73-2.8-4.28a4.28,4.28,0,0,1,3.53-4c1.64-.34,3.32-.5,5-.86-2,.44-4.17.48-6.19,1.12a3.87,3.87,0,0,0-2,1.95c-.23.36-.44.84-1,.72s-.69-.66-.68-1.15a9.33,9.33,0,0,1,.8-4.36,2.66,2.66,0,0,1,1.8-1.57c3.34-.62,6.64-1.71,10.12-1.13-3.57-.62-7,.44-10.39,1.1-1.57.31-1.9,2.05-2.22,3.46-.16.69-.13,1.43-.23,2.14a1.47,1.47,0,0,0,.91,1.76c.36.13.74.29.55.82-1.95.21-3.9.48-5.86.63-9.41.71-17-2.51-22.16-10.6,4-1.11,4.64-4.27,4.83-7.71.09-1.73,0-3.46,0-5.19a2.28,2.28,0,0,1-.44-1.76c0-1.16-.48-1.78-1.68-1.77-.29-.62-.92-.63-1.45-.81-4.31-1.42-6.13-4.91-7.13-8.92-.47-1.85.43-3.47,1.76-4.8a4,4,0,0,1,5.14-1.58,8.31,8.31,0,0,1,3,2.5c.84,1,1.26,1,1.8-.08,1.93-4,3.18-8.09,1.65-12.55-.46-1.33,1.13-4.07,2.48-4.34a1.74,1.74,0,0,1,1.23.32c2.92,1.64,5.85,1.37,8.76,0a2.36,2.36,0,0,1,2.19-.09,8.4,8.4,0,0,0,10.14-1.82c.61-.62,1-1.8,2.09-1.52a4.57,4.57,0,0,1,3.25,2.24A43.15,43.15,0,0,1,104,82.37a2.69,2.69,0,0,1-.12,1.28,88,88,0,0,1,1.35,17.82,36.51,36.51,0,0,1-1.67,10.61c-.47.66-.93.29-1.35,0-2.15-1.67-4.48-1.5-6.84-.64A17.74,17.74,0,0,0,90,114.27a5.36,5.36,0,0,0-1.74,2.27c-.28.74-.4,1.46.19,2a2.24,2.24,0,0,0,2,.51c.5-.1,1.07-.75,1.54-.07.29.43-.74,1.8-1.45,1.91a7.4,7.4,0,0,1-2.3-.1,25.13,25.13,0,0,1-10-3.92,37.36,37.36,0,0,1-3.83-2.76,26.42,26.42,0,0,0,6,6,12.37,12.37,0,0,0,9.19,2.23A1.57,1.57,0,0,0,91,121.21a7.9,7.9,0,0,1,5.4-4.46,14.22,14.22,0,0,1,5-.07c.89.1,1.79.22,2.87.44-2.63-.89-5.15-.56-7.64-.52a5.45,5.45,0,0,0-2.51,1.06,11.43,11.43,0,0,1-3.53,1.24,1.93,1.93,0,0,1-2.1-.63,2,2,0,0,1,.14-2.19,4.86,4.86,0,0,1,1.4-1.65,16.44,16.44,0,0,1,7.8-3.59,6.28,6.28,0,0,1,4.36,1.21c.6.38,1.12.92,1.91.9.62.37,1.21.79,1.85,1.11,3.15,1.56,4.22,4.42,4.85,7.59C111,122.87,111.34,124.08,111.62,125.3Z"/><path class="cls-4" d="M221.09,123.57a33.79,33.79,0,0,1-33.15,33.9c-19.91.55-33.66-15.08-34.83-31.64A33.93,33.93,0,0,1,185,89.45C205.51,88.34,221.35,104.14,221.09,123.57Z"/><path class="cls-4" d="M219.93,17a34.81,34.81,0,0,1,35.48,34.89c.11,20.49-15.7,36.27-36.25,36.13-18.23-.13-34.74-14.77-34.91-35.73C184.07,30.87,201.67,16.71,219.93,17Z"/><path class="cls-4" d="M127.87,63.39c-.37-1.59-.73-3.17-1.12-4.75-.89-3.58-3.12-6.38-5.37-9.17-3.13-3.9-5.2-8.19-5.13-13.35a17.87,17.87,0,0,1,8.6-15.52c6.45-4.16,13.47-4.76,20.42-1.37a18.7,18.7,0,0,1,9.81,23.14A22.62,22.62,0,0,1,151,49.63a26.25,26.25,0,0,0-6,13,4.43,4.43,0,0,1-.3.81c-1.82.85-3.68.52-5.54.22-.69-.46-.6-1.19-.54-1.84.34-3.94.47-7.89.75-11.84a2.06,2.06,0,0,1,1.32-1.9,8.22,8.22,0,0,0,3-2.19,4.43,4.43,0,0,0,.91-1.46,3.18,3.18,0,0,0-1.51-4.07,3.09,3.09,0,0,0-3.74,1.93,15.73,15.73,0,0,0-.83,3.51c-.27,1.5-.84,1.89-2.58,1.81-1.42-.07-1.75-.39-1.83-2A7.66,7.66,0,0,0,133,41.71a2.78,2.78,0,0,0-3.3-1.45,3.26,3.26,0,0,0-2.17,3.26,4.63,4.63,0,0,0,3,4.28c2.2.88,2.7,2.41,2.72,4.53,0,3.52.28,7,.51,10.55a.68.68,0,0,1-.31.74C131.57,63.93,129.7,64.29,127.87,63.39Z"/><path class="cls-5" d="M103.87,83.65a76.34,76.34,0,0,0-2.86-10c-.53-1.56-2.26-1.67-3.29-2.64-.28-.26-.45.19-.59.42-1.58,2.59-4.07,3.66-6.91,4.25a6.65,6.65,0,0,1-4.81-1.1,1.28,1.28,0,0,0-1.48-.06c-3.23,1.62-6.51,2-9.71-.1-.55-.36-.71-.22-1.13.18a4.16,4.16,0,0,0-1.32,4.87c1.23,4.3-.17,8.45-2.35,12.28-.48.85-1,1.07-1.65.07a9.78,9.78,0,0,0-.85-1c-2.52-3-4.25-3.17-7.43-.87a22,22,0,0,1-3.26-13.38,7.86,7.86,0,0,1,3.63-6.25,4.37,4.37,0,0,0,1.87-2.45,11.38,11.38,0,0,1,10.58-7.74,3.13,3.13,0,0,0,2-.79c4.52-3.47,9.4-4.5,14.65-1.7a6.3,6.3,0,0,0,4.22.84c2.71-.44,6.17,2,7.67,5a3.55,3.55,0,0,0,1.17,1.58c4,2.72,4.88,4.83,3.53,9.46-.73,2.48-.32,5.08-1.15,7.51A4.31,4.31,0,0,1,103.87,83.65Z"/><path class="cls-6" d="M127.87,63.39l5.75-.06a1.39,1.39,0,0,1,1.2-.42c.78,0,1.56,0,2.34,0a2,2,0,0,1,1.72.47l5.77,0c1.21,1.54,1.55,3.06-.05,4.56-.39.36-.07.56.12.83,1.57,2.24.53,4.47-2.2,4.75-.42,0-.88-.11-1.24.23a2.35,2.35,0,0,1-1.72.57q-3.52,0-7,0a2.1,2.1,0,0,1-1.71-.6c-.4-.39-.91-.19-1.36-.21A2.92,2.92,0,0,1,127,71.6a2.27,2.27,0,0,1,.4-2.66c.25-.32.85-.48.32-1.14A3.15,3.15,0,0,1,127.87,63.39Z"/><path class="cls-2" d="M174.58,57.32,172,60a1.08,1.08,0,0,1-1.29.32,1.25,1.25,0,0,1-.78-1.11c-.13-.94.44-2.21-.27-2.73s-1.85-.21-2.81-.24c-1.53-.06-3.07-.08-4.6-.16-.46,0-1,.17-1.37-.24-.59-1.47-.31-3-.38-4.53a4.81,4.81,0,0,0-.09-1.56c0-1,.74-1.11,1.48-1.15,2.31-.12,4.62-.28,6.93-.34.87,0,1.22-.28,1.12-1.17-.08-.62,0-1.26,0-1.88a1.24,1.24,0,0,1,.82-1.24,1.07,1.07,0,0,1,1.28.38c.74.81,1.51,1.6,2.27,2.4a40.54,40.54,0,0,0,4,4.26c1,1.08,1,1.28,0,2.35A38.75,38.75,0,0,0,174.58,57.32Z"/><path class="cls-7" d="M104.09,113c-.56.57-1,.06-1.4-.21-3.19-2.38-6.36-1.57-9.48.07a11.89,11.89,0,0,0-3.71,2.74c-.58.7-1.28,1.54-.78,2.44s1.65.58,2.51.41a5.86,5.86,0,0,0,2.14-.85c2.86-2,6-1.57,9.18-1.29a17.06,17.06,0,0,1,2,.43c.38.07.94.1.88.54-.09.61-.72.36-1.09.31a41.67,41.67,0,0,0-5.59-.56c-3.88,0-6.24,1.52-7.65,5.15-.25.64-.61.58-1.08.66-5.88,1-10.15-1.89-13.9-5.9a15.53,15.53,0,0,1-2.92-3.82c.75-.21,1,.35,1.39.65,4.53,3.55,9.35,6.4,15.32,6.81,1.35.09,1.4-.83,1.92-1.51-.64.16-1.15.68-1.85.58a2.57,2.57,0,0,1-2.15-1.26c-.64-1.2,0-2.27.62-3.1,1.85-2.54,8.46-5.89,12-4.62a5.2,5.2,0,0,1,1.77.9c.37.31.7.89,1.36.56C103.4,112.57,103.84,112.7,104.09,113Z"/><path class="cls-2" d="M41.77,206.31a44.72,44.72,0,0,0,9.17,1.18c2.07,0,4.17.13,6.26.2A96.86,96.86,0,0,0,68.5,207c5.91-.47,11.77-1.23,17.62-2.14,4.93-.77,9.83-1.75,14.72-2.73,1-.2,2.14.24,3-.63a1.85,1.85,0,0,1-1.56,1.07c-4.51.91-9,1.92-13.54,2.72-5,.87-10.05,1.63-15.1,2.24-4.87.59-9.75,1.14-14.63,1.32-5.8.21-11.65.25-17.21-1.93Z"/><path class="cls-2" d="M121.51,198.77a11.5,11.5,0,0,0-2.64-2.07,23.46,23.46,0,0,1-5.76-8,64.53,64.53,0,0,1-3.33-9.38c-.12-.37,0-.76-.16-1.13-.9-3.59-2.33-7-3.4-10.57-1.66-5.5-3.82-10.87-4.76-16.65.83.63.79.64,1.18,2q.84,3.06,1.8,6.09c1.41,4.49,2.8,9,4.32,13.45,1.93,5.63,3.33,11.47,6.1,16.77a23.08,23.08,0,0,0,9.87,10.21,7.7,7.7,0,0,0,3.1.77c-.24.37-.61.1-.86.26C125,200.47,123.28,199.49,121.51,198.77Z"/><path class="cls-1" d="M130.82,73.74l10.46,0a3,3,0,0,1-.75,2.4A5.64,5.64,0,0,1,134.42,78,4.43,4.43,0,0,1,130.82,73.74Z"/><path class="cls-8" d="M83.26,215.54c2-.59,4-.27,6-.29,7.82-.09,15.65,0,23.47.05.5,0,1.07-.23,1.5.26Z"/><path class="cls-9" d="M66.31,104.52c1.8-.73,1.82-.74,2,1.09.08.81.06,1.63.09,2.44C66.78,107.44,66.68,105.9,66.31,104.52Z"/><path class="cls-2" d="M174.58,57.32c.62-1.64,2.14-2.5,3.25-3.72,1.34-1.46,1.39-1.42,0-2.81-.92-.91-1.84-1.82-2.74-2.74-.36-.36-.84-.67-.8-1.29,1.47,1.45,2.92,2.91,4.4,4.34a1.31,1.31,0,0,1,0,2.19C177.3,54.62,175.94,56,174.58,57.32Z"/><path class="cls-10" d="M29.34,155.29a63,63,0,0,1,0,12.43Q29.06,161.51,29.34,155.29Z"/><path class="cls-2" d="M160.41,49.76c.52,1.35.13,2.76.23,4.14.06.81.07,1.6,1.44,1.79l-1.2.16c-.57-.15-.49-.62-.52-1.05A25.72,25.72,0,0,1,160.41,49.76Z"/><path class="cls-10" d="M29.35,168.05c1.08,1,.31,2.37.57,3.54l-.27-.09Z"/><path class="cls-3" d="M109.62,178.17c.92,1.06,1,2.44,1.4,3.69,1.59,5.26,3.76,10.18,7.63,14.2a.7.7,0,0,1,.22.64c-1,.45-2,.89-3,1.35a28.59,28.59,0,0,1-11.92,2.46c-1,0-1.34-.27-1.27-1.28a30.59,30.59,0,0,0-1.33-12c-.31-.9-1-1.66-1-2.68.49-.73,1.67.14,2-.88C104.78,181.84,107.35,180.19,109.62,178.17Z"/><path class="cls-2" d="M102.37,183.69c-.11,1.58-1.35.59-2,.88q-10.47.06-20.91-.55c-2.64-.15-5.3.08-7.93-.07-4.92-.28-9.84-.22-14.76-.29A25.51,25.51,0,0,0,49,185.13c-.37.11-.84.57-1.07-.06s.33-.66.75-.84a18.41,18.41,0,0,1,7.61-1.41c1.1,0,1.51-.19,1.29-1.49-1.1-6.34-2.61-12.59-3.76-18.92-.81-4.43-1.5-8.94-3.12-13.18s-3.28-8.45-6.61-11.71c-.57-.57-1.24-1-1.8-1.71a3.42,3.42,0,0,1,2.79,1.34,26.59,26.59,0,0,1,4.07,5.9,62.15,62.15,0,0,1,5.06,16.74c.47,2.65,1.19,5.25,1.66,7.9.79,4.48,2.05,8.88,2.51,13.43.09.85.33,1.5,1.45,1.51,3.69.05,7.37.18,11,.31l19.44.75c3.75.14,7.52-.17,11.27.21A2.42,2.42,0,0,0,102.37,183.69Z"/><path class="cls-2" d="M115.69,142c.19-.92.44-.42.77-.06a35.49,35.49,0,0,1,3.9,5.88c3.55,5.72,7.13,11.43,10.66,17.17,2,3.23,3.95,6.5,5.82,9.81.38.68,1.15,1.61,0,2.56-.27-2.26-1.55-3.93-2.62-5.63-3.72-6-7.48-11.87-11.07-17.91-2.38-4-4.71-8.05-7.47-11.82Z"/><path class="cls-11" d="M96,135.55a8.74,8.74,0,0,0-.21-2.79c0-.44-.16-1,.42-1a.84.84,0,0,1,.95.87,9.8,9.8,0,0,1,.09,2.85,19.82,19.82,0,0,0-.1,5.7C95.86,139.46,96.12,137.46,96,135.55Z"/><path class="cls-12" d="M91.6,130.92c-.3-.78-1.41-.41-1.72-1.42-.53-1.67.33-5.77,1.75-6.83,1-.75,2.29-.61,3.45-.86,3.18-.69,6.39-1.2,9.65-.26-.4.61-1,.4-1.47.36-3.52-.28-6.89.62-10.3,1.22a2.24,2.24,0,0,0-1.65,1.67,9.32,9.32,0,0,0-.51,4.89c.24-.08.39-.09.41-.14.94-3,3.54-3.19,6-3.48,1.44-.17,2.89-.68,4.52-.21-.42.66-1,.63-1.54.71-1.52.2-3,.42-4.56.67A4,4,0,0,0,92.22,130a5.48,5.48,0,0,1-.58,1Z"/><path class="cls-13" d="M92.31,101.14c1.37-.4,2.5-.76,3.66-1.06,1.42-.37,1.41-1.33.88-2.34-.94-1.83-2-3.58-3-5.41a18.86,18.86,0,0,1-1.8-5.2c.82.29,1,1,1.23,1.62,1.17,2.65,2.58,5.16,4,7.68,1.58,2.81.85,4.33-2.3,5.11A3.58,3.58,0,0,1,92.31,101.14Z"/><path class="cls-14" d="M86.69,83a.8.8,0,0,1-.84.59,22.77,22.77,0,0,0-6.93,1.83c-.36.13-.78.36-1-.08a.81.81,0,0,1,.41-1.1,12.19,12.19,0,0,1,7.65-2A.82.82,0,0,1,86.69,83Z"/><path class="cls-15" d="M99.41,82.56a14.3,14.3,0,0,0-3.58.18c-.32.06-.73.17-.86-.27s.14-.62.42-.84c1.22-.95,5.34-1.11,6.69-.26.3.19.54.42.44.81s-.5.36-.82.37C100.94,82.57,100.17,82.56,99.41,82.56Z"/><path class="cls-16" d="M61.19,95.73c.69-.78.71-2.06,1.88-1.78a2.37,2.37,0,0,1,1.87,2.46,3,3,0,0,0,1.17,2.8c.25.18.41.46.17.74s-.62.15-.89-.07a3.89,3.89,0,0,1-1.58-3.11c0-1.66,0-1.65-1.52-1.14A5.16,5.16,0,0,1,61.19,95.73Z"/><path class="cls-17" d="M88.05,107.9c1.16-1.92,6.52-2.85,9.28-1.56C94.06,106.88,91,106.75,88.05,107.9Z"/><path class="cls-18" d="M82.32,89.51c-.06-.85.24-1.77,1.19-1.75,1.2,0,1.38,1.2,1.43,2.17s-.28,1.84-1.26,1.81C82.45,91.69,82.34,90.58,82.32,89.51Z"/><path class="cls-19" d="M100.24,88c-.11.93-.23,2-1.26,2s-1.14-1-1.18-1.78.14-1.89,1.21-2S100,87.32,100.24,88Z"/><path class="cls-1" d="M193.42,108.37a5.66,5.66,0,0,1,1.82-.4c6.48-.27,11.69,3.85,13.22,10.41a20.9,20.9,0,0,1-1.39,13.41c-2.29,5.26-5.4,9.93-10.27,13.15-3.13,2.06-6.38,1.86-9.55-.06-.34-.21-.56-.61-1.1-.23-4.68,3.25-8.6,1-12.13-2-4.64-4-7-9.39-8.1-15.3a23.93,23.93,0,0,1,.25-10.48c1.64-6.39,8.37-10.51,14.32-8.81a14.85,14.85,0,0,1,4.61,2.62c1,.61.62,1.53.55,2.38-.26.89-1.08.81-1.76,1a8.85,8.85,0,0,0,2.46.22,20.37,20.37,0,0,0,2.71-.2c-.8-.46-1.89-.22-2.27-1.21a2.41,2.41,0,0,1,.66-2.09,13.32,13.32,0,0,0,4.77-2.09A1.69,1.69,0,0,1,193.42,108.37Z"/><path class="cls-20" d="M193.42,108.37c-1.83,1.07-3.37,2.78-5.77,2.59a1.38,1.38,0,0,1-.53-1.26c.09-1.53-.43-3.1.22-4.6,1.92-2.68,4.77-4.22,7.41-6,.69-.46.68.34.7.75.09,2.77-.09,5.47-1.73,7.87A4.3,4.3,0,0,0,193.42,108.37Z"/><path class="cls-21" d="M187.34,105.1c.5,1.93.13,3.91.31,5.86-.22.65-.43,1.31-.65,2a1.16,1.16,0,0,1-1.63.28c-.21-.84.11-1.73-.27-2.55a14.75,14.75,0,0,0-2.71-7.78c-.53-.73-1.1-1.52-.24-2.28a1.92,1.92,0,0,1,2.74.15A9.48,9.48,0,0,1,187.34,105.1Z"/><path class="cls-20" d="M209.38,29.46c6.43-2.86,12.9-2.7,19.4-.29-.23.87-1,.59-1.54.64C225,30,225,30,225.5,32.12a7.16,7.16,0,0,1,.05,2.73,3,3,0,0,1-1.88,2.52c-1.63.75-2.17,1.71-1.69,2.72s1.63,1.29,3.18.62a13.09,13.09,0,0,0,5-3.38c.37-.45.76-1,1.44-.75s.72.83.81,1.41c.26,1.68.43,1.74,1.8.65,1.67-1.34,2.33-1.13,2.91.9a5,5,0,0,1,.21,1.14c.16,2.81-.36,3.84-3.4,3.39a30.38,30.38,0,0,1-3.27-.62c-2.75-.71-4-.23-5.58,2.08-.38.56-.72,1.15-1.07,1.73a4.9,4.9,0,0,0-.07,5.35c1.08,1.84,2.93,2.12,4.8,2.08,3.23-.06,3.64.3,3.71,3.5a28.17,28.17,0,0,1-.65,6.48A5.81,5.81,0,0,0,232,68c.63,1.72,2.15,2.06,3.37.7a17.68,17.68,0,0,0,4-7,11,11,0,0,1,2.4-5,2.74,2.74,0,0,0,.32-3.38,23.36,23.36,0,0,0-2.33-3.66A11.68,11.68,0,0,1,238.23,47a1,1,0,0,1,.08-1.22c.44-.39.81,0,1.14.27a11.12,11.12,0,0,1,1.44,1.21c1,1.06,2.42,1.58,3.53,2.49a24,24,0,0,1-5.76,19.49c-9.52,11.17-26.17,11-36.26,1.37a23.92,23.92,0,0,1-7.8-19.44,23.52,23.52,0,0,1,1.48-7.49c.66.08.5.61.51,1a6.79,6.79,0,0,0,2.1,4.63,30.18,30.18,0,0,0,3.8,3.34c1.46,1.13,2.28,2.46,1.83,4.37-.09.37,0,.77-.12,1.15a2.65,2.65,0,0,0,1.53,3.12,6.36,6.36,0,0,1,3.5,5.15c.33,2,.33,4.15,1.24,6.08a3.37,3.37,0,0,0,.64,1.12,1.35,1.35,0,0,0,1.59.34c.65-.35.4-.92.15-1.39-.76-1.38,0-2.43.77-3.42,1.43-1.76,2.83-3.54,4.32-5.25.84-1,.85-2.21,1.34-3.3a.94.94,0,0,0-.65-1.28c-2.28-.63-3.49-2.52-4.88-4.14-2.17-2.52-2.8-2.78-6-1.82a7.73,7.73,0,0,1-1.25.35c-1.27.19-2.12-.42-2.12-1.7a3.57,3.57,0,0,0-2.67-3.67c-1.46-.54-1.63-1.24-.75-2.52,1.36-2,2.65-2.2,4.63-.81.28.19.52.43.82.6,1,.53,1.7.15,1.87-.94a3.17,3.17,0,0,0,0-.87,3.31,3.31,0,0,1,1.86-3.6c1.34-.76,2.51-1.52,2.8-3.25.15-.93,1-.8,1.78-.47.55.24,1.11.76,1.74.29s.41-1.31.33-2a4.55,4.55,0,0,0-.66-1.89c-1-1.49-1.45-1.61-2.87-.58a4.83,4.83,0,0,1-5.45.28c-1.19-.62-1.17-1.41,0-2.16C208.31,30.08,209,30,209.38,29.46Z"/><path class="cls-1" d="M244.42,49.75c-2.13-.15-3.27-1.89-4.81-3-.38-.27-.59-.76-1.21-.85a5.12,5.12,0,0,0,1.38,3A29.6,29.6,0,0,1,242.45,53c.81,1.39.9,2.93-.27,4-1.54,1.38-1.85,3.2-2.37,5a19.47,19.47,0,0,1-4.28,7.29,2.2,2.2,0,0,1-3.85-.71,5.26,5.26,0,0,1-.45-3.37,28.17,28.17,0,0,0,.75-7.87c-.1-2.1-.61-2.42-2.7-2.19-3.94.42-6.82-1.28-6.49-5.57a8.79,8.79,0,0,1,4-6.41c1.11-.78,2.63-.48,3.92-.06a26.68,26.68,0,0,0,4.68.75,1.19,1.19,0,0,0,1.46-1.21,8,8,0,0,0-.53-4c-.28-.68-.58-.66-1-.26s-1,.86-1.52,1.33a1,1,0,0,1-1.16.26c-.54-.17-.57-.53-.63-1-.1-.72.4-1.78-.49-2.07s-1,.88-1.5,1.35a15.18,15.18,0,0,1-5.72,3.28,2.24,2.24,0,0,1-2.92-1.43,2.47,2.47,0,0,1,1.41-2.86c.75-.38,1.85-.32,2.11-1.31a6.77,6.77,0,0,0,0-4.38c-.74-1.82-.53-2.06,1.4-2.11a6.18,6.18,0,0,0,2.49-.24,24.67,24.67,0,0,1,12,10.1A22.8,22.8,0,0,1,244.42,49.75Z"/><path class="cls-1" d="M209.38,29.46c-.14.89-1,1-1.56,1.34s-.87.83,0,1.34a4.44,4.44,0,0,0,5.49-.43c1.32-1.1,1.74-1,2.82.3a7.53,7.53,0,0,1,1.31,3.75,1.64,1.64,0,0,1-.76,1.62c-.54.41-1.11.11-1.62-.18-1.55-.85-1.57-.86-1.94.87A2.8,2.8,0,0,1,211.35,40c-1.93.9-3.18,2.12-2.58,4.49a1.63,1.63,0,0,1-2.87,1.31,4.42,4.42,0,0,0-1.14-.87,2.88,2.88,0,0,0-4,2.15c-.1.86.65.75,1,.87a3.72,3.72,0,0,1,2.94,3,2.93,2.93,0,0,1,.06.84c-.14,1.34.49,1.83,1.79,1.47,1.56-.44,3.05-1.2,4.77-.75a2.5,2.5,0,0,1,1.54,1,31.29,31.29,0,0,0,3.52,4,3.14,3.14,0,0,0,2.17,1.27,1.22,1.22,0,0,1,1.17,1.52,9.89,9.89,0,0,1-2.68,5.31c-1.34,1.51-2.58,3.11-3.82,4.71a1.5,1.5,0,0,0-.13,2c.53.72,1,1.57-.12,2.22a2.3,2.3,0,0,1-2.68-1.07c-1.16-2.19-1.2-4.63-1.58-7-.35-2.19-1.19-3.89-3.35-4.83a2.62,2.62,0,0,1-1.66-3.41c1.08-3.45-1.16-5.07-3.43-6.8-2-1.54-3.72-3.32-4.21-6-.12-.62.49-1.22-.07-1.78A24.8,24.8,0,0,1,207.9,29.94,7.32,7.32,0,0,1,209.38,29.46Z"/><path class="cls-22" d="M134.88,63.34h-1.26a1.71,1.71,0,0,1-.52-1.15c-.11-3.61-.29-7.21-.39-10.82,0-1.32-.22-2.27-1.77-2.8a5.55,5.55,0,0,1-3.87-4.32,3.93,3.93,0,0,1,2.38-4.45c1.76-.59,3.21.12,4.23,2.06a7.26,7.26,0,0,1,.87,3.76c-.05.9,0,1.69,1.25,1.51.95-.14,2.21.45,2.26-1.37a8.94,8.94,0,0,1,1-4c1-1.88,3-2.59,4.6-1.75A3.82,3.82,0,0,1,145,44.79a7.18,7.18,0,0,1-4.11,3.68c-1,.36-1.07.83-1.12,1.68-.26,4.41-.58,8.81-.88,13.22h-1.71c-.58-.3-.57-.82-.57-1.37,0-3.18.21-6.34.54-9.5a9.93,9.93,0,0,0,.08-1.44c0-.65-.15-1.15-1-1.09s-1.14.37-1,1.09c.26,1.91,0,3.85.28,5.76a30.87,30.87,0,0,1,.14,4.9A1.64,1.64,0,0,1,134.88,63.34Z"/><path class="cls-23" d="M134.88,63.34a16.48,16.48,0,0,0,.13-6c-.24-2.2,0-4.41-.38-6.61-.19-1.17.55-1.51,2.53-1.4,1.05,0,.56.87.54,1.3-.18,3.93-.42,7.86-.68,11.79a2.82,2.82,0,0,0,.15,1Z"/><path class="cls-24" d="M134.42,68.82l-5.6-.25v-.45c5-.32,10.05-.25,15.41-.09a2.57,2.57,0,0,1-1.63.57,62.25,62.25,0,0,1-6.26.21,6.5,6.5,0,0,0-1.7.53c-.29.09-.09,1-.63.39S134.34,69.19,134.42,68.82Z"/><path class="cls-25" d="M185.37,113.21l1.63-.28a7.73,7.73,0,0,0,2.58.74c.24.07.5.07.52.37s-.26.36-.48.41a19.88,19.88,0,0,1-6.16.13c-.3,0-.71-.2-.67-.62s.45-.4.77-.43C184.17,113.47,184.83,113.67,185.37,113.21Z"/><path class="cls-26" d="M132.51,45.73c.09.92-.16,1.26-1.14.88a3,3,0,0,1-1.88-3.9,1.06,1.06,0,0,1,1-.9,1.18,1.18,0,0,1,1.19.63A8.65,8.65,0,0,1,132.51,45.73Z"/><path class="cls-27" d="M140.14,45.76c.26-1.14.2-2.24.85-3.14.41-.56.91-.9,1.6-.57a1.13,1.13,0,0,1,.53,1.59,4.93,4.93,0,0,1-2,2.52c-.23.15-.49.41-.78.25S140.16,45.9,140.14,45.76Z"/><path class="cls-1" d="M165.66,169.43h2.11v8.23a4.21,4.21,0,0,1-.61,2.35,3.88,3.88,0,0,1-1.65,1.43,6,6,0,0,1-4.7,0,3.8,3.8,0,0,1-1.64-1.43,4.38,4.38,0,0,1-.59-2.35v-8.23h2.11v8.23a3,3,0,0,0,.31,1.46,1.89,1.89,0,0,0,.86.84,3.34,3.34,0,0,0,2.63,0,1.89,1.89,0,0,0,.86-.84,3.13,3.13,0,0,0,.31-1.46Z"/><path class="cls-1" d="M176.56,178.57a1.78,1.78,0,0,0-.12-.67,1.27,1.27,0,0,0-.4-.54,3,3,0,0,0-.81-.48,9.54,9.54,0,0,0-1.32-.48,13.77,13.77,0,0,1-1.62-.6A6.69,6.69,0,0,1,171,175a3.19,3.19,0,0,1-.85-1,2.73,2.73,0,0,1-.31-1.34,3,3,0,0,1,.32-1.37,3.26,3.26,0,0,1,.9-1.07,4.59,4.59,0,0,1,1.4-.7,6.1,6.1,0,0,1,1.77-.25,5.15,5.15,0,0,1,2.37.51,3.83,3.83,0,0,1,1.53,1.36,3.55,3.55,0,0,1,.53,1.89h-2.1a2.21,2.21,0,0,0-.26-1.08,1.81,1.81,0,0,0-.78-.74,2.83,2.83,0,0,0-1.31-.27,3.08,3.08,0,0,0-1.26.23,1.57,1.57,0,0,0-1,1.49,1.19,1.19,0,0,0,.17.63,1.62,1.62,0,0,0,.49.53,4,4,0,0,0,.83.45,10.39,10.39,0,0,0,1.17.41,11.43,11.43,0,0,1,1.79.67,5,5,0,0,1,1.26.83,3,3,0,0,1,.77,1.06,3.46,3.46,0,0,1,.25,1.33,3.2,3.2,0,0,1-.31,1.4,3,3,0,0,1-.9,1,4,4,0,0,1-1.38.67,6.32,6.32,0,0,1-1.8.24,6.54,6.54,0,0,1-1.75-.24A5.29,5.29,0,0,1,171,181a3.6,3.6,0,0,1-1.11-1.22,3.4,3.4,0,0,1-.42-1.72h2.12a2.28,2.28,0,0,0,.21,1,1.85,1.85,0,0,0,.58.69,2.47,2.47,0,0,0,.87.39,4,4,0,0,0,1.06.13,3.26,3.26,0,0,0,1.25-.21,1.62,1.62,0,0,0,.75-.6A1.52,1.52,0,0,0,176.56,178.57Z"/><path class="cls-1" d="M190.39,175.25v.68a8.06,8.06,0,0,1-.37,2.5,5.54,5.54,0,0,1-1,1.89,4.55,4.55,0,0,1-1.62,1.19,5.43,5.43,0,0,1-4.14,0,4.55,4.55,0,0,1-1.62-1.19,5.43,5.43,0,0,1-1.06-1.89,7.5,7.5,0,0,1-.38-2.5v-.68a7.77,7.77,0,0,1,.37-2.5,5.63,5.63,0,0,1,1.05-1.88,4.63,4.63,0,0,1,1.62-1.2,5.13,5.13,0,0,1,2.07-.41,5.22,5.22,0,0,1,2.08.41,4.51,4.51,0,0,1,1.61,1.2,5.63,5.63,0,0,1,1.05,1.88A8.06,8.06,0,0,1,190.39,175.25Zm-2.13.68v-.7a7.19,7.19,0,0,0-.2-1.82,3.77,3.77,0,0,0-.58-1.33,2.6,2.6,0,0,0-.94-.81,2.84,2.84,0,0,0-1.26-.27,2.77,2.77,0,0,0-1.25.27,2.6,2.6,0,0,0-.94.81,4,4,0,0,0-.59,1.33,7.68,7.68,0,0,0-.2,1.82v.7a7.62,7.62,0,0,0,.2,1.82,4,4,0,0,0,.6,1.34,2.64,2.64,0,0,0,.94.83,2.83,2.83,0,0,0,1.25.27,2.78,2.78,0,0,0,1.26-.27,2.46,2.46,0,0,0,.93-.83,3.83,3.83,0,0,0,.58-1.34A7.14,7.14,0,0,0,188.26,175.93Z"/><path class="cls-1" d="M198.93,169.43v12.32h-2.12V169.43Zm5.89,0v1.69h-6.49v-1.69Zm-.81,5.14v1.66h-5.68v-1.66Zm.86,5.49v1.69h-6.54v-1.69Z"/><path class="cls-1" d="M213.07,178.57a1.78,1.78,0,0,0-.12-.67,1.27,1.27,0,0,0-.4-.54,3.07,3.07,0,0,0-.8-.48,10.25,10.25,0,0,0-1.33-.48,15.24,15.24,0,0,1-1.62-.6,6.69,6.69,0,0,1-1.29-.78,3.32,3.32,0,0,1-.85-1,2.85,2.85,0,0,1-.31-1.34,3,3,0,0,1,.32-1.37,3.18,3.18,0,0,1,.91-1.07,4.43,4.43,0,0,1,1.39-.7,6.1,6.1,0,0,1,1.77-.25,5.15,5.15,0,0,1,2.37.51,3.83,3.83,0,0,1,1.53,1.36,3.46,3.46,0,0,1,.53,1.89h-2.1a2.21,2.21,0,0,0-.26-1.08,1.81,1.81,0,0,0-.78-.74,2.8,2.8,0,0,0-1.31-.27,3,3,0,0,0-1.25.23,1.72,1.72,0,0,0-.75.61,1.66,1.66,0,0,0-.24.88,1.18,1.18,0,0,0,.16.63,1.62,1.62,0,0,0,.49.53,4,4,0,0,0,.83.45,10.39,10.39,0,0,0,1.17.41,11.43,11.43,0,0,1,1.79.67,5.27,5.27,0,0,1,1.27.83,3.14,3.14,0,0,1,.76,1.06,3.29,3.29,0,0,1,.25,1.33A2.92,2.92,0,0,1,214,181a4,4,0,0,1-1.39.67,6.32,6.32,0,0,1-1.8.24,6.54,6.54,0,0,1-1.75-.24,5.29,5.29,0,0,1-1.56-.72,3.7,3.7,0,0,1-1.11-1.22A3.4,3.4,0,0,1,206,178h2.13a2.28,2.28,0,0,0,.2,1,1.85,1.85,0,0,0,.58.69,2.47,2.47,0,0,0,.87.39,4,4,0,0,0,1.06.13,3.26,3.26,0,0,0,1.25-.21,1.65,1.65,0,0,0,.76-.6A1.59,1.59,0,0,0,213.07,178.57Z"/><path class="cls-1" d="M226,169.43v1.69h-9.8v-1.69Zm-3.87,0v12.32H220V169.43Z"/><path class="cls-1" d="M227.63,169.43H232a6.12,6.12,0,0,1,2.39.42,3.32,3.32,0,0,1,1.52,1.25,3.73,3.73,0,0,1,.53,2,3.64,3.64,0,0,1-.34,1.62,3.13,3.13,0,0,1-1,1.18,4.42,4.42,0,0,1-1.47.74L233,177H229.1v-1.68H232a2.68,2.68,0,0,0,1.27-.27,1.9,1.9,0,0,0,.77-.74,2.18,2.18,0,0,0,.25-1.06,2.34,2.34,0,0,0-.25-1.12,1.65,1.65,0,0,0-.76-.74,2.94,2.94,0,0,0-1.31-.26h-2.23v10.63h-2.13Zm7,12.32-2.89-5.54H234l2.94,5.43v.11Z"/><path class="cls-1" d="M243.33,171.07l-3.68,10.68h-2.22l4.63-12.32h1.42Zm2.9,6.11v1.68h-6.7v-1.68Zm.18,4.57-3.69-10.68-.16-1.64H244l4.65,12.32Z"/><path class="cls-1" d="M257.86,169.43v1.69h-9.8v-1.69Zm-3.86,0v12.32h-2.11V169.43Z"/><path class="cls-1" d="M261.61,169.43v12.32h-2.13V169.43Zm5.89,0v1.69H261v-1.69Zm-.81,5.14v1.66H261v-1.66Zm.85,5.49v1.69H261v-1.69Zm-5-11.45,1.65-2.54h2.3l-2.3,2.54Z"/><path class="cls-1" d="M278.73,175.45v4.71a4.14,4.14,0,0,1-.82.75,5,5,0,0,1-1.47.71,7.39,7.39,0,0,1-2.27.3,5.65,5.65,0,0,1-2.13-.4,4.55,4.55,0,0,1-1.66-1.15,5.49,5.49,0,0,1-1.08-1.86,7.68,7.68,0,0,1-.38-2.5v-.85a8.27,8.27,0,0,1,.35-2.49,5.53,5.53,0,0,1,1-1.86,4.26,4.26,0,0,1,1.6-1.15,5.27,5.27,0,0,1,2.12-.4,5.5,5.5,0,0,1,2.51.51,3.69,3.69,0,0,1,1.53,1.39,5.15,5.15,0,0,1,.69,2h-2.08a3.2,3.2,0,0,0-.4-1.15,2,2,0,0,0-.83-.8A2.84,2.84,0,0,0,274,171a2.92,2.92,0,0,0-1.29.27,2.46,2.46,0,0,0-.93.83,4,4,0,0,0-.55,1.31,7.42,7.42,0,0,0-.19,1.78V176a6.52,6.52,0,0,0,.22,1.8,3.81,3.81,0,0,0,.62,1.33,2.76,2.76,0,0,0,1,.82,3.16,3.16,0,0,0,1.33.27,4.85,4.85,0,0,0,1.19-.12,2.47,2.47,0,0,0,.74-.3,1.78,1.78,0,0,0,.43-.33V177h-2.56v-1.59Z"/><path class="cls-1" d="M283.34,169.43v12.32h-2.13V169.43Z"/><path class="cls-1" d="M293.25,177.74h2.11a4.94,4.94,0,0,1-.67,2.15,4.07,4.07,0,0,1-1.62,1.48,5.43,5.43,0,0,1-2.53.55,5,5,0,0,1-2.05-.41,4.65,4.65,0,0,1-1.57-1.17,5.37,5.37,0,0,1-1-1.83,7.88,7.88,0,0,1-.35-2.41v-1a7.56,7.56,0,0,1,.36-2.4,5.2,5.2,0,0,1,1-1.84,4.35,4.35,0,0,1,1.58-1.17,5.76,5.76,0,0,1,4.57.13,3.88,3.88,0,0,1,1.58,1.5,5.23,5.23,0,0,1,.69,2.19h-2.11a4,4,0,0,0-.37-1.36,2,2,0,0,0-.84-.87,3,3,0,0,0-1.43-.3,2.8,2.8,0,0,0-1.27.27,2.48,2.48,0,0,0-.91.8,3.8,3.8,0,0,0-.54,1.29,7.63,7.63,0,0,0-.18,1.74v1a7.89,7.89,0,0,0,.16,1.69,3.93,3.93,0,0,0,.51,1.3,2.49,2.49,0,0,0,.87.84,2.58,2.58,0,0,0,1.28.29,3.29,3.29,0,0,0,1.47-.28,2,2,0,0,0,.85-.85A3.64,3.64,0,0,0,293.25,177.74Z"/><path class="cls-1" d="M307.1,175.25v.68a8.07,8.07,0,0,1-.36,2.5,5.56,5.56,0,0,1-1,1.89,4.51,4.51,0,0,1-1.61,1.19,5.22,5.22,0,0,1-2.08.41,5.13,5.13,0,0,1-2.07-.41,4.73,4.73,0,0,1-1.62-1.19,5.6,5.6,0,0,1-1.06-1.89,7.77,7.77,0,0,1-.38-2.5v-.68a7.77,7.77,0,0,1,.38-2.5,5.46,5.46,0,0,1,1.05-1.88,4.51,4.51,0,0,1,1.61-1.2,5.46,5.46,0,0,1,4.15,0,4.46,4.46,0,0,1,1.62,1.2,5.44,5.44,0,0,1,1,1.88A7.77,7.77,0,0,1,307.1,175.25Zm-2.12.68v-.7a7.68,7.68,0,0,0-.2-1.82,4,4,0,0,0-.58-1.33,2.63,2.63,0,0,0-.95-.81A2.84,2.84,0,0,0,302,171a2.8,2.8,0,0,0-1.25.27,2.49,2.49,0,0,0-.93.81,3.78,3.78,0,0,0-.59,1.33,7.19,7.19,0,0,0-.2,1.82v.7a7.14,7.14,0,0,0,.2,1.82,3.84,3.84,0,0,0,.59,1.34,2.67,2.67,0,0,0,.95.83,2.77,2.77,0,0,0,1.25.27,2.84,2.84,0,0,0,1.26-.27,2.46,2.46,0,0,0,.93-.83,4,4,0,0,0,.58-1.34A7.62,7.62,0,0,0,305,175.93Z"/><path class="cls-1" d="M160.87,186.06v12.32h-2.12V186.06Zm1.45,12.32h-2.63l0-1.68h2.61a3.52,3.52,0,0,0,1.92-.5,3.2,3.2,0,0,0,1.17-1.43,5.72,5.72,0,0,0,.39-2.22v-.67a6.8,6.8,0,0,0-.22-1.77,3.57,3.57,0,0,0-.66-1.29,2.87,2.87,0,0,0-1.07-.79,3.64,3.64,0,0,0-1.45-.27h-2.76v-1.7h2.76a6,6,0,0,1,2.24.41,5.19,5.19,0,0,1,1.76,1.18,5.27,5.27,0,0,1,1.13,1.85,6.71,6.71,0,0,1,.4,2.4v.65a6.71,6.71,0,0,1-.4,2.4,5,5,0,0,1-1.14,1.84,5.14,5.14,0,0,1-1.77,1.18A6.24,6.24,0,0,1,162.32,198.38Z"/><path class="cls-1" d="M172.18,186.06v12.32h-2.13V186.06Zm5.89,0v1.7h-6.49v-1.7Zm-.81,5.15v1.65h-5.68v-1.65Zm.85,5.49v1.68h-6.53V196.7Z"/><path class="cls-1" d="M186.27,186.06v12.32h-2.13V186.06Zm5.89,0v1.7h-6.49v-1.7Zm-.81,5.15v1.65h-5.68v-1.65Zm.85,5.49v1.68h-6.53V196.7Z"/><path class="cls-1" d="M199,194.68v-8.62h2.11v8.62a3.93,3.93,0,0,1-.52,2.09,3.43,3.43,0,0,1-1.43,1.32,4.46,4.46,0,0,1-2.06.46,5.21,5.21,0,0,1-2.08-.4,3.11,3.11,0,0,1-1.43-1.22,3.86,3.86,0,0,1-.51-2.08h2.13a2.43,2.43,0,0,0,.23,1.17,1.39,1.39,0,0,0,.66.65,2.38,2.38,0,0,0,1,.19,1.88,1.88,0,0,0,1-.25,1.7,1.7,0,0,0,.67-.73A2.7,2.7,0,0,0,199,194.68Z"/><path class="cls-1" d="M205.68,186.06v12.32h-2.13V186.06Zm5.89,0v1.7h-6.49v-1.7Zm-.81,5.15v1.65h-5.68v-1.65Zm.85,5.49v1.68h-6.53V196.7Z"/><path class="cls-1" d="M213.34,186.06h1.8l.31,8.22v4.1h-2.11Zm.86,0h1.9l3.56,9.5,3.55-9.5h1.89l-4.7,12.32h-1.5Zm10,0H226v12.32h-2.13v-4.1Z"/><path class="cls-1" d="M233.16,193.79H230V192.1h3.2a3,3,0,0,0,1.36-.27,1.7,1.7,0,0,0,.75-.75,2.25,2.25,0,0,0,.25-1.09,2.43,2.43,0,0,0-.25-1.1,1.91,1.91,0,0,0-.75-.82,2.61,2.61,0,0,0-1.36-.31h-2.55v10.62h-2.12V186.06h4.67a5.33,5.33,0,0,1,2.44.51,3.64,3.64,0,0,1,1.52,1.38,3.9,3.9,0,0,1,.53,2,3.84,3.84,0,0,1-.53,2.05,3.43,3.43,0,0,1-1.52,1.31A5.93,5.93,0,0,1,233.16,193.79Z"/><path class="cls-1" d="M241.66,186.06v12.32h-2.12V186.06Zm5.59,10.64v1.68h-6.18V196.7Z"/><path class="cls-1" d="M258.17,191.88v.68a8.06,8.06,0,0,1-.37,2.5,5.54,5.54,0,0,1-1,1.89,4.55,4.55,0,0,1-1.62,1.19,5.18,5.18,0,0,1-2.08.41,5.12,5.12,0,0,1-2.06-.41,4.55,4.55,0,0,1-1.62-1.19,5.61,5.61,0,0,1-1.07-1.89,7.77,7.77,0,0,1-.37-2.5v-.68a7.77,7.77,0,0,1,.37-2.5,5.63,5.63,0,0,1,1.05-1.88,4.6,4.6,0,0,1,1.62-1.19,5,5,0,0,1,2.07-.42,5.05,5.05,0,0,1,2.08.42,4.48,4.48,0,0,1,1.61,1.19,5.63,5.63,0,0,1,1.05,1.88A8.06,8.06,0,0,1,258.17,191.88Zm-2.13.68v-.69a7.22,7.22,0,0,0-.2-1.83,3.72,3.72,0,0,0-.58-1.32,2.62,2.62,0,0,0-.94-.82,2.91,2.91,0,0,0-1.26-.27,2.84,2.84,0,0,0-1.26.27,2.68,2.68,0,0,0-.93.82,3.92,3.92,0,0,0-.59,1.32,7.71,7.71,0,0,0-.2,1.83v.69a7.71,7.71,0,0,0,.2,1.83,4.13,4.13,0,0,0,.6,1.34,2.71,2.71,0,0,0,.94.82,2.83,2.83,0,0,0,1.25.27,2.78,2.78,0,0,0,1.26-.27,2.52,2.52,0,0,0,.93-.82,3.91,3.91,0,0,0,.58-1.34A7.22,7.22,0,0,0,256,192.56Z"/><path class="cls-1" d="M266.76,195.21a1.79,1.79,0,0,0-.12-.68,1.27,1.27,0,0,0-.4-.54,3.59,3.59,0,0,0-.81-.48,13.14,13.14,0,0,0-1.32-.48,13.77,13.77,0,0,1-1.62-.6,5.82,5.82,0,0,1-1.29-.78,3.26,3.26,0,0,1-.85-1,2.79,2.79,0,0,1-.31-1.34,2.94,2.94,0,0,1,.32-1.37,3.07,3.07,0,0,1,.9-1.07,4.4,4.4,0,0,1,1.4-.71,6.1,6.1,0,0,1,1.77-.25,5.15,5.15,0,0,1,2.37.51,3.83,3.83,0,0,1,1.53,1.36,3.46,3.46,0,0,1,.53,1.89h-2.1a2.21,2.21,0,0,0-.26-1.08,1.81,1.81,0,0,0-.78-.74,2.8,2.8,0,0,0-1.31-.27,3,3,0,0,0-1.25.23,1.62,1.62,0,0,0-.75.62,1.64,1.64,0,0,0-.24.88,1.23,1.23,0,0,0,.16.63,1.59,1.59,0,0,0,.49.52,4,4,0,0,0,.83.45,10.39,10.39,0,0,0,1.17.41,12.52,12.52,0,0,1,1.79.67,5.3,5.3,0,0,1,1.26.83,3.23,3.23,0,0,1,.77,1.06,3.46,3.46,0,0,1,.25,1.33,2.93,2.93,0,0,1-1.21,2.46,4,4,0,0,1-1.38.66,6.32,6.32,0,0,1-1.8.24,6.54,6.54,0,0,1-1.75-.24,5.29,5.29,0,0,1-1.56-.72,3.6,3.6,0,0,1-1.11-1.22,3.39,3.39,0,0,1-.42-1.71h2.13a2.26,2.26,0,0,0,.2,1,1.85,1.85,0,0,0,.58.69,2.47,2.47,0,0,0,.87.39,4,4,0,0,0,1.06.13,3.26,3.26,0,0,0,1.25-.21,1.62,1.62,0,0,0,.75-.59A1.57,1.57,0,0,0,266.76,195.21Z"/><path class="cls-1" d="M276.25,186.06l2.86,5.88,2.85-5.88h2.36l-4.15,7.78v4.54H278v-4.54l-4.14-7.78Z"/><path class="cls-1" d="M294.75,187.7l-3.68,10.68h-2.22l4.63-12.32h1.43Zm2.9,6.11v1.68H291v-1.68Zm.18,4.57-3.69-10.68-.16-1.64h1.43l4.65,12.32Z"/><path class="cls-1" d="M311.21,186.06v12.32h-2.12l-5.52-8.82v8.82h-2.13V186.06h2.13l5.54,8.84v-8.84Z"/><path class="cls-1" d="M318.68,187.7,315,198.38h-2.22l4.63-12.32h1.42Zm2.9,6.11v1.68h-6.7v-1.68Zm.18,4.57-3.69-10.68-.16-1.64h1.43L324,198.38Z"/><path class="cls-1" d="M327.49,186.06v12.32h-2.12V186.06Zm5.59,10.64v1.68H326.9V196.7Z"/><path class="cls-1" d="M344,191.88v.68a8.07,8.07,0,0,1-.36,2.5,5.4,5.4,0,0,1-1,1.89,4.42,4.42,0,0,1-1.61,1.19,5.46,5.46,0,0,1-4.15,0,4.73,4.73,0,0,1-1.62-1.19,5.6,5.6,0,0,1-1.06-1.89,7.77,7.77,0,0,1-.37-2.5v-.68a7.77,7.77,0,0,1,.37-2.5,5.63,5.63,0,0,1,1.05-1.88,4.51,4.51,0,0,1,1.62-1.19,5,5,0,0,1,2.06-.42,5.07,5.07,0,0,1,2.09.42,4.48,4.48,0,0,1,1.61,1.19,5.63,5.63,0,0,1,1.05,1.88A8.07,8.07,0,0,1,344,191.88Zm-2.12.68v-.69a7.71,7.71,0,0,0-.2-1.83,3.91,3.91,0,0,0-.58-1.32,2.62,2.62,0,0,0-.94-.82,2.92,2.92,0,0,0-1.27-.27,2.83,2.83,0,0,0-1.25.27,2.68,2.68,0,0,0-.93.82,3.92,3.92,0,0,0-.59,1.32,7.71,7.71,0,0,0-.2,1.83v.69a7.71,7.71,0,0,0,.2,1.83,3.93,3.93,0,0,0,.6,1.34,2.62,2.62,0,0,0,.94.82,3.05,3.05,0,0,0,2.51,0,2.52,2.52,0,0,0,.93-.82,3.91,3.91,0,0,0,.58-1.34A7.71,7.71,0,0,0,341.87,192.56Z"/><path class="cls-1" d="M355.56,192.09v4.7a4.06,4.06,0,0,1-.81.76,5.3,5.3,0,0,1-1.47.7,7.41,7.41,0,0,1-2.28.3,5.41,5.41,0,0,1-2.12-.4,4.55,4.55,0,0,1-1.66-1.15,5.33,5.33,0,0,1-1.08-1.86,7.68,7.68,0,0,1-.38-2.5v-.85a8.27,8.27,0,0,1,.35-2.49,5.37,5.37,0,0,1,1-1.86,4.29,4.29,0,0,1,1.6-1.15,6.11,6.11,0,0,1,4.62.11,3.65,3.65,0,0,1,1.54,1.39,5,5,0,0,1,.68,2h-2.08a3.26,3.26,0,0,0-.39-1.15,2.06,2.06,0,0,0-.83-.8,2.84,2.84,0,0,0-1.39-.29,2.79,2.79,0,0,0-1.29.28,2.29,2.29,0,0,0-.93.82,3.78,3.78,0,0,0-.55,1.32,7.33,7.33,0,0,0-.19,1.77v.87a7.09,7.09,0,0,0,.21,1.81,4,4,0,0,0,.63,1.32,2.63,2.63,0,0,0,1,.82,3.21,3.21,0,0,0,1.34.27,4.9,4.9,0,0,0,1.19-.12,2.78,2.78,0,0,0,.74-.29,2.38,2.38,0,0,0,.43-.34v-2.44h-2.56v-1.58Z"/><path class="cls-1" d="M360.17,186.06v12.32h-2.12V186.06Zm-2.09-.82,1.65-2.54H362l-2.3,2.54Z"/><path class="cls-1" d="M367.76,187.7l-3.68,10.68h-2.22l4.63-12.32h1.42Zm2.9,6.11v1.68H364v-1.68Zm.18,4.57-3.69-10.68-.16-1.64h1.43l4.65,12.32Z"/><path class="cls-1" d="M380.93,195.21a1.79,1.79,0,0,0-.12-.68,1.27,1.27,0,0,0-.4-.54,3.59,3.59,0,0,0-.81-.48,13.14,13.14,0,0,0-1.32-.48,13.77,13.77,0,0,1-1.62-.6,5.82,5.82,0,0,1-1.29-.78,3.26,3.26,0,0,1-.85-1,2.79,2.79,0,0,1-.31-1.34,2.94,2.94,0,0,1,.32-1.37,3.07,3.07,0,0,1,.9-1.07,4.4,4.4,0,0,1,1.4-.71,6.1,6.1,0,0,1,1.77-.25,5.15,5.15,0,0,1,2.37.51,3.83,3.83,0,0,1,1.53,1.36,3.55,3.55,0,0,1,.53,1.89h-2.1a2.21,2.21,0,0,0-.26-1.08,1.81,1.81,0,0,0-.78-.74,2.83,2.83,0,0,0-1.31-.27,3.08,3.08,0,0,0-1.26.23,1.57,1.57,0,0,0-1,1.5,1.23,1.23,0,0,0,.16.63,1.59,1.59,0,0,0,.49.52,4,4,0,0,0,.83.45,10.39,10.39,0,0,0,1.17.41,12.52,12.52,0,0,1,1.79.67,5.3,5.3,0,0,1,1.26.83,3.23,3.23,0,0,1,.77,1.06,3.46,3.46,0,0,1,.25,1.33,3.17,3.17,0,0,1-.31,1.4,3,3,0,0,1-.9,1.06,4,4,0,0,1-1.38.66,6.32,6.32,0,0,1-1.8.24,6.54,6.54,0,0,1-1.75-.24,5.29,5.29,0,0,1-1.56-.72,3.6,3.6,0,0,1-1.11-1.22,3.39,3.39,0,0,1-.42-1.71H376a2.26,2.26,0,0,0,.21,1,1.85,1.85,0,0,0,.58.69,2.47,2.47,0,0,0,.87.39,4,4,0,0,0,1.06.13,3.26,3.26,0,0,0,1.25-.21,1.67,1.67,0,0,0,.75-.59A1.57,1.57,0,0,0,380.93,195.21Z"/></svg>