<svg id="Capa_1" data-name="Capa 1" xmlns="http://www.w3.org/2000/svg" viewBox="0 0 389.11 229.23"><defs><style>.cls-1{fill:#9e986f;}.cls-2{fill:#c7804d;}.cls-3{fill:#6c2910;}.cls-4{fill:#dad49d;}.cls-5{fill:#fdb78d;}.cls-6{fill:#b25d38;}.cls-7{fill:#b25d37;}.cls-8{fill:#a04b2c;}.cls-9{fill:#a14d2c;}.cls-10{fill:#fdb88f;}.cls-11{fill:#93492f;}.cls-12{fill:#011434;}.cls-13{fill:#d96442;}.cls-14{fill:#6c331f;}.cls-15{fill:#6c321e;}.cls-16{fill:#af4c28;}.cls-17{fill:#fcdbc2;}.cls-18{fill:#422824;}.cls-19{fill:#552b1f;}.cls-20{fill:#fccd74;}.cls-21{fill:#081d3d;}.cls-22{fill:#051c3a;}</style></defs><path class="cls-1" d="M285.19,111a1.25,1.25,0,0,1,1.22.39,33.68,33.68,0,0,1,4.6,6.33,2.51,2.51,0,0,1-.51,1.33c-3.55,5.51-6.95,11.11-10.13,16.84-.81,1.46-1.08,1.53-2.35.51-2-1.62-4-3.23-5.85-5-.85-.82-1.06-.83-1.75.11a42.5,42.5,0,0,0-2.76,4.14,1.57,1.57,0,0,0,1.12-.88c.56-.83,1.15-1.64,1.75-2.46s1-.74,1.65-.15c1.37,1.26,2.88,2.37,4.2,3.69a11.13,11.13,0,0,0,2.12,1.62c.89.54,1.3.45,1.85-.43,1-1.64,1.9-3.38,2.86-5.06,2.47-4.34,5.15-8.54,7.76-12.8.29-.48.61-.71,1.16-.53,6.1,2.71,12.29,5.2,18.41,7.85,8.82,3.82,13.9,10.37,15.9,19.65,1.61,7.48,3,15,4,22.58a215.18,215.18,0,0,1,2,22.67,88.9,88.9,0,0,1-1.31,16.11,104.44,104.44,0,0,1-3.2,14.09c-.07.21-.16.41-.24.62H302c-.4-.46-.24-1-.16-1.5.68-4.3,1.49-8.59,2.21-12.89a121.11,121.11,0,0,0,1.68-13.18c.36-6.52-.4-12.94-1-19.38-.52-5.23-1.19-10.44-1.52-15.68a34.39,34.39,0,0,1,3.26-17.81,18.3,18.3,0,0,1,6.2-7.47,1.35,1.35,0,0,0,.27-.2.25.25,0,0,0,0-.26,2.33,2.33,0,0,0-1.24.6,16.86,16.86,0,0,0-5.35,6.63,33,33,0,0,0-3.58,13.74,89.64,89.64,0,0,0,.75,12.58c.57,6,1.27,11.92,1.77,17.9.69,8.3-.45,16.43-2,24.54a29.35,29.35,0,0,1-.81,3.81c-.71.32-1-.32-1.35-.67a143.89,143.89,0,0,1-9.93-10.87,241.07,241.07,0,0,1-17.78-24c-2.48-3.81-4.85-7.68-7-11.68a3.09,3.09,0,0,1-.48-1.24.72.72,0,0,1,.19-.51,1.26,1.26,0,0,0,.35-1.76c-.39-.7-1-.42-1.57-.33a.6.6,0,0,1-.36-.24,23.06,23.06,0,0,1-2.54-6c-.07-3.34.67-6.59,1-9.88A75,75,0,0,1,265,135.91a11.72,11.72,0,0,1,2-3.71,53.43,53.43,0,0,1,9.15-9.91,88.26,88.26,0,0,0,8.07-7.88,2.64,2.64,0,0,0,.76-2.54A.78.78,0,0,1,285.19,111Z"/><path class="cls-1" d="M240,222.25c.41-11.54.65-23.08.65-34.62-.28-.71.11-1.39.07-2.1-.18-3.46-.18-6.92-.36-10.38-.16-3.09-.37-6.18-.55-9.26-.39-6.71-.06-13.42-.27-20.12a15.23,15.23,0,0,0,0,1.79c.14,3.51-.29,7-.24,10.51.1,5.88.44,11.76.86,17.63.26,3.54.32,7.08.27,10.62a2.56,2.56,0,0,1-.38,1.38c-3.53,4.12-7.38,7.9-12.52,9.94-5.36,2.13-10.53.56-14.57-3.95-3.23-3.59-4.7-8-5.79-12.49a113.43,113.43,0,0,1-2.49-16.51,6.63,6.63,0,0,1-.19-1.77.72.72,0,0,0,.08-.32c.05-1.23.05-1.24,1.25-1.15a25.79,25.79,0,0,0,14.3-3.14c1.46-.77,2-1.22,2.38-2.06a30.74,30.74,0,0,1-3.76,2.3,25.15,25.15,0,0,1-13,2.46c-1.07-.08-1.34-.44-1.4-1.48,0-.19.15-.43-.11-.58a35.74,35.74,0,0,1-.86-6.44c-.07-1,.62-1.58,1.56-1.85,1,1.32,2.33,1,3.66.84a27.74,27.74,0,0,0,5.05-.84,10.38,10.38,0,0,0,6.08-3.81c1.33-.29,1.68.63,1.95,1.61a126.9,126.9,0,0,0,4.06,12.13c.12.3.14.65.43.86a4.52,4.52,0,0,1,.59,1.44c1.12,3.4,2.3,6.77,3.65,10.08a30.51,30.51,0,0,1,1.12,4.4,9.37,9.37,0,0,0-.82-4.62q-1.83-4.92-3.53-9.88a8,8,0,0,1-.53-2.37,33.38,33.38,0,0,1,2-4.93c2.34-5.38,5-10.63,7.4-15.95,2.85-6.24,7.81-10.15,13.65-13.24.56.3.55.85.55,1.36.13,12.65,3.74,24.46,8.69,35.94.6,1.41,1.27,2.78,1.87,4.18a2.74,2.74,0,0,1,.34,1.4,17.15,17.15,0,0,0-.08,2.68q0,24.08,0,48.17a2.93,2.93,0,0,1-.4,2.14Z"/><path class="cls-2" d="M69.71,222.25c.88-4.48,1.61-9,2.23-13.52,1.35-10,1.14-20,1.09-30.09,0-2.94-.26-5.87-.4-8.81.58.11.59.61.69,1a136.17,136.17,0,0,0,7.07,22.23,37.22,37.22,0,0,0,6.68,10.78c4.75,5.2,10.34,6.51,17.3,4.35,5.34-1.65,10-4.63,14.53-7.77,3.1-2.13,6.13-4.36,9-6.77,2.4-2,4.81-4,7.09-6.15a74.13,74.13,0,0,0,6.74-7c.73-.89,1.39-1.84,2.11-2.74a1.82,1.82,0,0,0,.26-1.8c-.15-.47-.5-.95-.09-1.47.84.08,1.37-.48,2-.93.83-.63,1.24-.54,1.54.46a4,4,0,0,1,0,3.44c-.35.62-.1,1.46-.16,2.2a130.29,130.29,0,0,1-2,13.47,3.08,3.08,0,0,0,0,1.65c.18-1.12.38-2.24.64-3.34.11-.43.18-.88.32-1.3s.16-.91.69-.88.46.52.54.87a40.28,40.28,0,0,0,1.62,4.73,1.45,1.45,0,0,0,0-1.23c-.47-1.41-.75-2.89-1.28-4.28-1-2.49-.46-5-.25-7.51a22.39,22.39,0,0,0,.08-3.57c-.06-.66.09-1,.87-.62a5,5,0,0,0,3.18.31,16.16,16.16,0,0,0,5.93-1.89,7.52,7.52,0,0,0,3.72-5c-.57,0-.54.75-1,.61a13,13,0,0,1-1.06-3.8,1.66,1.66,0,0,1,1.09-2c2.48,5.68,5.23,11.25,7.36,17.08a16.58,16.58,0,0,1-.22,13.14,11.29,11.29,0,0,1-14.5,5.68,17.49,17.49,0,0,1-6.57-4.49L145.22,196c-.25,4.21-.34,8.25-.21,12.29.14,4.65.44,9.29.79,13.93Z"/><path class="cls-1" d="M300.66,222.25H261.72a2.47,2.47,0,0,1-.4-1.81c0-3.69.1-7.39,0-11.07-.3-9.14-.26-18.27-.16-27.4,0-3.57.08-7.16.27-10.72.31-.86.67-.49.95,0,.6,1,1.15,2.09,1.69,3.15a123.4,123.4,0,0,0,8.47,13.4c3.52,5.09,7.21,10.05,11,15a163.19,163.19,0,0,0,16.27,18.09C300.16,221.21,300.77,221.52,300.66,222.25Z"/><path class="cls-3" d="M300.66,222.25c-1.77-1.8-3.54-3.62-5.33-5.41a182.31,182.31,0,0,1-17.59-21.23,214.37,214.37,0,0,1-12.69-18.77c-1.16-2-2.21-4-3.31-6.07a3.65,3.65,0,0,1-.92-1.8c-1.43-3.47-3.06-6.85-4.44-10.35a108.48,108.48,0,0,1-5.87-21.81,51.9,51.9,0,0,1-.71-9.23,9.87,9.87,0,0,0-.16-1.2,35.63,35.63,0,0,1,5-2.44c.42.67.05,1.3-.13,1.91a64.1,64.1,0,0,0-1.45,6.39,9.74,9.74,0,0,0-.12,2.22c0,1,.28,1.15,1.24.72.37-.17.72-.39,1.07-.59a1.16,1.16,0,0,1,1.16-.15,1.81,1.81,0,0,1,.5,1.21,77.44,77.44,0,0,0,4.2,16.6c.18.48.32,1,.49,1.47.31.9.55,1.83.81,2.74a31.79,31.79,0,0,0,2.69,6.09,3.6,3.6,0,0,1,1.11,2.6,201.48,201.48,0,0,0,13.4,21.34c4.06,5.8,8.45,11.32,13,16.74,3.06,3.65,6.34,7.11,9.67,10.51.33.44.18.94.14,1.41-.2,2.19-.66,4.34-1,6.51a1.19,1.19,0,0,1-.3.59Z"/><path class="cls-4" d="M301.11,222.25c.1-2.87.82-5.66,1.12-8.51.36-1.88.74-3.75,1.08-5.64,1.14-6.33,2.09-12.67,1.82-19.14-.18-4.22-.52-8.43-1.05-12.63-.33-2.57-.48-5.17-.74-7.75s-.69-5.15-.85-7.74a43.22,43.22,0,0,1,.41-10.53,31,31,0,0,1,5.85-13.58,12.51,12.51,0,0,1,4-3.33.61.61,0,0,1,.95.21c.24.41-.07.67-.35.8-2.63,1.23-4.24,3.48-5.65,5.83a30.45,30.45,0,0,0-3.95,11.85c-.66,5-.09,9.84.45,14.74.34,3,.58,6.06.95,9.07.51,4.17.77,8.35,1.06,12.53a66.82,66.82,0,0,1-.36,9.69c-.29,3.74-1.05,7.4-1.64,11.1-.42,2.63-1,5.25-1.41,7.88-.29,1.71-.53,3.43-.8,5.15Z"/><path class="cls-4" d="M260.82,169a2.91,2.91,0,0,1,.92,1.8c0,1.9,0,3.81,0,5.7-.36,8.08-.27,16.17-.15,24.25.1,7.18.14,14.35.17,21.53H260.6q0-16.55,0-33.1c0-6.14,0-12.28,0-18.42A6.53,6.53,0,0,1,260.82,169Z"/><path class="cls-2" d="M138.13,127.84c1.3.54,2.62,1,3.9,1.61a19.55,19.55,0,0,1,8.42,7.43,5,5,0,0,1-1.86,2.79c-.42.15-.7-.12-1-.32a2.61,2.61,0,0,0-3.78.44,6.45,6.45,0,0,0-1.23,1.84,57.44,57.44,0,0,0-4.82,13.51c-.33,1.64-.29,3.33-.52,5a10.66,10.66,0,0,1-.49,2.17,1.18,1.18,0,0,0,.14,1.26c.1.59-.27.86-.72,1.09-1.8-.91-3.17.14-4.58,1-7.18,4.48-14.35,9-21.7,13.19-2.24,1.27-4.53,2.43-6.8,3.66-1,.52-1.19.36-1.27-.75A18.11,18.11,0,0,0,101,178c-1.4-4.95-2.55-10-3.62-15a86.33,86.33,0,0,0-4-14.65A15.81,15.81,0,0,0,90,143,3.43,3.43,0,0,0,88.32,142a.75.75,0,0,0,.35.65c2.89,2.4,4.27,5.68,5.42,9.1a97,97,0,0,1,2.74,10.73q1.68,7.81,3.62,15.57c1.08,4.33,1.44,3.13-2.3,5.28-1.42.82-2.85,1.62-4.21,2.53-.21.14-.47.26-.5.63.55.1.9-.27,1.28-.52a54.86,54.86,0,0,1,5.62-3.23c.53-.26,1.27-.8,1.45.48.08.57.56.15.79.05,2.11-1,4.13-2.08,6.15-3.2,8.17-4.57,16.06-9.62,24-14.53,1.7-1,1.89-1,3.44.26a26.71,26.71,0,0,1,7.18,9.59,2.45,2.45,0,0,1-.34,2.88,72.67,72.67,0,0,1-8.79,9.35c-4.2,3.76-8.54,7.34-13.08,10.67a75.78,75.78,0,0,1-12.72,7.89c-3.34,1.55-6.76,2.75-10.54,2.56a13.67,13.67,0,0,1-8.48-3.29c-4.52-3.85-7.13-8.92-9.34-14.27a138.26,138.26,0,0,1-5.6-17.21c-.74-2.82-1.23-5.68-2-8.5a1.68,1.68,0,0,0-.31-.71c0-2.76-.77-5.44-1.08-8.17a43.9,43.9,0,0,1,.57-15.29c0-1.73.94-3.12,1.76-4.52a19.67,19.67,0,0,1,7.52-7,45.06,45.06,0,0,1,13.1-4.66c1.53-.33,3-.94,4.51-1.23.53.13.75.59,1,1,3.81,5.92,9.46,9,16.17,10.35a16,16,0,0,0,8.36-.72c4.21-1.44,5.71-4.79,4.06-8.92-.09-.24-.24-.48-.05-.73a1.86,1.86,0,0,1,1.41.09c2.49.75,5,1.42,7.48,2.24C137.45,127.31,137.9,127.39,138.13,127.84Z"/><path class="cls-3" d="M98.62,124c-1.93,1-4.08,1.31-6.16,1.82A39.77,39.77,0,0,0,79,131.41a19.14,19.14,0,0,0-7.26,9.86A10.57,10.57,0,0,1,70.27,135c.06-5.19,2.39-9.42,5.62-13.26,2.35-2.79,5.06-5.25,7.31-8.14a29.36,29.36,0,0,0,5.74-14.51c.76-5.59,1.07-11.26,2.47-16.75,1.66-6.56,4.67-12.27,10.48-16.14a26.28,26.28,0,0,1,11.79-4c6.83-.8,13.1.89,19.12,4a24.19,24.19,0,0,1,6.45,4.08c4.54,4.53,4.8,9.37,3.19,14.79,0,.1-.13.16-.2.24-.51-.48-.47-1.16-.58-1.76a18.45,18.45,0,0,0-3.39-8.42c-.75-.94-1.64-1.73-2.46-2.59-.45-.47-.77-.49-1.07.17a34.52,34.52,0,0,1-7.49,10.37,56,56,0,0,1-15,10.61c-1,.49-1.32.37-1.79-.73a5.39,5.39,0,0,0-2.86-3.12,4.51,4.51,0,0,0-6.39,3.42,9.08,9.08,0,0,0,3.06,8.77,4.81,4.81,0,0,0,4.47,1.17,8.58,8.58,0,0,1,1-.18c.46,0,.94-.08,1.07.51s-.24.82-.68,1a6.91,6.91,0,0,1-1.49.44c-1.31.29-1.45.42-1.46,1.78a58.41,58.41,0,0,1-.79,8.34,10.27,10.27,0,0,1-3.54,6.76A8.9,8.9,0,0,1,98.62,124Z"/><path class="cls-5" d="M98.62,124c.13-.26.4-.31.64-.4,4.26-1.56,6.39-4.71,6.95-9.12.36-2.93.64-5.85.75-8.79,0-.67.17-1,.94-.94a4.83,4.83,0,0,0,2.36-.59c.3-.15.52-.34.41-.69s-.46-.33-.74-.23a5.52,5.52,0,0,1-5.68-.79,9.56,9.56,0,0,1-3.42-6.2,7.94,7.94,0,0,1,0-3.22,4.9,4.9,0,0,1,4.24-3.89,5.31,5.31,0,0,1,5.42,3.15c.75,1.59.76,1.62,2.29.81,7.36-3.91,13.86-8.86,18.79-15.67a27.71,27.71,0,0,0,3.3-6c4.81,3.37,6.7,8.27,7.32,13.84a26.92,26.92,0,0,1,.19,4.21,2.44,2.44,0,0,1-.23,1.19c-.65.46-.36,1,0,1.44.91,1.36,1.8,2.72,2.66,4.11a21,21,0,0,1,1.62,3.17c.6,1.47.13,2.33-1.43,2.71a8.76,8.76,0,0,1-2,.28c-.35,0-.74-.11-1,.22.19.38.71.23.9.59a6.51,6.51,0,0,1-.94,3.63,5.74,5.74,0,0,1-3.28.91,10.42,10.42,0,0,1-5.38-1.18,3.49,3.49,0,0,0-.7-.34.32.32,0,0,0-.23,0c0,.38.28.48.52.61a9.53,9.53,0,0,0,8.26.73c.27-.11.53-.29.84-.15a14.12,14.12,0,0,1-2.23,8.16l-.72,1.24a4.93,4.93,0,0,1-4,1.91,28.52,28.52,0,0,1-8.71-1.17,26.32,26.32,0,0,1-7.6-3.81c-.11.6.25.87.4,1.22a14,14,0,0,0,5.5,4.34c.5.22,1.08.35,1.25,1,.11,1.32-.48,2.52-.68,3.79s-.5,2.31-.81,3.66c.47-1.33.39-2.61,1.06-3.68a2.48,2.48,0,0,1,2.69.84c2.41,3.84.75,8.2-3.78,9.81-4.32,1.54-8.57,1.13-12.85-.35A23.69,23.69,0,0,1,98.62,124Z"/><path class="cls-6" d="M285.19,111c.82,2-.37,3.33-1.63,4.67-2.75,2.9-5.74,5.53-8.69,8.21a45.49,45.49,0,0,0-9.59,11.68c-.46.11-.54-.31-.75-.55a27.87,27.87,0,0,1-2.63-5.87c-1.14-2.89-2.12-5.85-3-8.83a1.67,1.67,0,0,1-.15-1.18,22.3,22.3,0,0,0,4.73-1.84,18,18,0,0,0,5.16-4,1.16,1.16,0,0,0,.36-1.21,27.25,27.25,0,0,1-11.24,5.22,11.49,11.49,0,0,1-8.79,0c-2.58-1.08-3.4-3.5-4-6a13.75,13.75,0,0,1-.46-4.09,4.57,4.57,0,0,0-1.17-3.52,2.92,2.92,0,0,1,2.2-.59c2.79,0,5.58-.08,8.37-.24a6.73,6.73,0,0,0,1-.07c.36-.08.84,0,.93-.48s-.32-.83-.75-1a15.37,15.37,0,0,0-4.7-.91,9.56,9.56,0,0,1-2-.11c-.45-.12-1-.16-1-.84a.29.29,0,0,0-.34-.33c-.18,0-.24.16-.24.32,0,.86-.63.93-1.24.93a3.23,3.23,0,0,1-2.16-.29,11.85,11.85,0,0,1-3.08-.48,1.58,1.58,0,0,1-1.21-1.76,7.76,7.76,0,0,1,1.71-4.06c1.24-1.76,2.54-3.49,3.76-5.26a5.47,5.47,0,0,0,1.09-3.94,20,20,0,0,1,3.14-13,5.38,5.38,0,0,1,2.42-2.81c.47-.35.94-.11,1.28.3,3.29,4.08,7.83,5.16,12.75,5.33,1.59.06,1.83.3,1.44,1.79a14.15,14.15,0,0,0-.09,6.21,6,6,0,0,0,2.26,3.88c1.71,1.23,1.92,2.8,1.63,4.62A2.28,2.28,0,0,0,271,93a1.41,1.41,0,0,0,2.37-.11c.41-.53.64-1.18,1-1.74a5.22,5.22,0,0,1,5.12-2.55A5,5,0,0,1,284,92.4a8.13,8.13,0,0,1-.29,5.17,11.49,11.49,0,0,1-3.35,5.06,5.57,5.57,0,0,1-5.76,1c-.31-.1-.59-.33-1-.21a1.12,1.12,0,0,0,.84.75,5.89,5.89,0,0,0,4.46,0c1.37-.67,1.5-.64,2.07.78a7.47,7.47,0,0,0,3.58,3.65A9.39,9.39,0,0,0,285.19,111Z"/><path class="cls-3" d="M284.51,108.55a4.36,4.36,0,0,1-3.3-2.4,8,8,0,0,1-.73-1.5c-.24-.67-.45-.83-1.16-.42a5.56,5.56,0,0,1-5.73-.16c-.36-.2-.88-.51-.59-1s.79-.18,1.18,0a5.26,5.26,0,0,0,6.67-1.29,10.8,10.8,0,0,0,3.06-7.91,5,5,0,0,0-9.1-2.79,14,14,0,0,0-.93,1.65c-.42.81-.95,1.51-2,1.29a2.24,2.24,0,0,1-1.82-1.89,4.17,4.17,0,0,1,.05-1.11c.18-1.73.2-3.26-1.56-4.48A6.31,6.31,0,0,1,266.15,82a13.52,13.52,0,0,1,.34-6.29c.27-.79.07-1-.7-1a21.51,21.51,0,0,1-8.1-1.37,11.92,11.92,0,0,1-5.38-4c-.43-.58-.74-.61-1.21-.13-.77.81-1.54,1.61-2.32,2.41-3.48-3.83-2.28-9.5,2.34-11a7.1,7.1,0,0,1,4.28.15,5.94,5.94,0,0,0,4.3-.4,26.46,26.46,0,0,1,23.84.85,12.44,12.44,0,0,1,6.87,8.19,1.61,1.61,0,0,0,.68,1c4.45,3.06,5.81,7.44,5.2,12.56a30,30,0,0,1-3.54,9.9c-2.36,4.62-4.93,9.14-6.92,13.94A4.79,4.79,0,0,1,284.51,108.55Z"/><path class="cls-7" d="M219.69,146.85a2.57,2.57,0,0,1-1.41,2,17.67,17.67,0,0,1-8.76,2.9c-.88.09-1.78.11-2.66.2-1,.11-1.92,0-2-1.3a20.15,20.15,0,0,0-1-4.68,2.76,2.76,0,0,0-.77-1.21c-4-3.85-6.64-8.63-8.82-13.68-1.56-3.61-3.12-7.21-4.65-10.83a6.75,6.75,0,0,1-.73-3.12,1.54,1.54,0,0,1,1.84-1.65A3.34,3.34,0,0,1,192,117.1c1.26,2.58,2.83,5,4.26,7.48.4.71.83,1.37-.05,2.13,3.4-2.3,7.08-3.91,10.56-6-1.14.38-1.54-.33-2-1.14a82.36,82.36,0,0,0-6.94-10.93,1.88,1.88,0,0,0-1.08-.89c2.25,3,4.23,6.13,6.15,9.27.6,1,1.18,2,1.81,3a1,1,0,0,1-.43,1.63c-.63.32-1.23.71-1.83,1.08a1,1,0,0,1-1.57-.4c-1-1.64-1.88-3.3-2.92-4.89a89.49,89.49,0,0,0-5.43-8.2,1.29,1.29,0,0,1-.16-.41c0-2.09.84-3.22,2.35-2.7,1.18.42,2.06.72,3.22,0,.6-.38,1.43.13,2,.6a12.36,12.36,0,0,1,2.58,2.92c2.91,4.23,5.8,8.48,8.71,12.71.61.89,1.29,1.72,1.94,2.58,0,.58-.52.68-.88.91a10.59,10.59,0,0,0-3.87,11.6c-.7-5.28.75-9.48,5.35-12.29.58-1.78.46-3.68.9-5.48a11.62,11.62,0,0,1,1.43-4,3.85,3.85,0,0,1,1.52-1.45c1.3-.59,2.29,0,2.24,1.4-.15,4.85.18,9.68.4,14.52a18.22,18.22,0,0,1-1.87,9.53,1.24,1.24,0,0,0-.1.86C218.76,142.65,219.08,144.78,219.69,146.85Z"/><path class="cls-3" d="M145.11,8.57c5.25-.06,10.5.27,15.75.39a30.58,30.58,0,0,1,7.38,1c6.53,1.81,10.41,6.18,11.7,12.7a37.37,37.37,0,0,1-.65,17.8c-2,6.77-6.59,10.8-13.31,12.63a57.53,57.53,0,0,1-11.66,1.74,1.69,1.69,0,0,0-1.78,1.37,26.69,26.69,0,0,1-6.25,10.41A15.16,15.16,0,0,1,145,67.8c-.25.21-.54.43-.89.16s-.24-.54-.18-.9a22.85,22.85,0,0,0-.79-11,1.16,1.16,0,0,0-1.31-1c-7.79.09-15.58-.07-23.36-.43a87.75,87.75,0,0,1-14.08-1.52c-7.88-1.66-12.85-6.86-14-14.88A41.15,41.15,0,0,1,90.38,23C92,15.59,96.83,11.31,104.19,10c6.28-1.16,12.66-1.23,19-1.38a1.49,1.49,0,0,0,.66.08h20.58A1.5,1.5,0,0,0,145.11,8.57Z"/><path class="cls-3" d="M250.08,9.41a121.73,121.73,0,0,1,17.39.92,35.79,35.79,0,0,1,12.73,3.76c5.45,3,8.27,7.74,9,13.79a28.49,28.49,0,0,1-1,12.58C286.11,47,281.43,50.88,275,52.84a53.3,53.3,0,0,1-12.44,1.79c-6.66.41-13.33.24-20,0l-.44,0c-2.16-.13-2.12-.12-2.54,2.11a18.63,18.63,0,0,0,.69,10.53c.13.33.2.62-.14.88s-.62.1-.92-.06a15.66,15.66,0,0,1-4.34-3.81,25.49,25.49,0,0,1-4.79-9.47,1.55,1.55,0,0,0-1.41-1.25,27.23,27.23,0,0,1-6.78-2.11c-6-2.77-9.17-7.69-10.26-14a31.85,31.85,0,0,1,.25-13.08c1.7-7,6.4-10.92,13.16-12.64,7.56-1.93,15.3-2.11,23-2.25Z"/><path class="cls-8" d="M72.21,164.73c1,.33.86,1.36,1,2.05a136.49,136.49,0,0,0,4.56,17.11,71.35,71.35,0,0,0,6.17,14.44c2.06,3.46,4.55,6.62,8.14,8.55,4.36,2.33,8.91,1.87,13.4.17,5.94-2.25,11.11-5.83,16.19-9.55A167.84,167.84,0,0,0,136,185.58a59.84,59.84,0,0,0,7.2-8.05,1.17,1.17,0,0,0,.21-1.33,26.17,26.17,0,0,0-8.08-10.76,1.41,1.41,0,0,0-1.88,0c-3,1.89-6,3.8-9.1,5.66-6.19,3.78-12.33,7.67-18.79,11-1,.53-2,1.13-3.08,1.57-.34.14-.66.5-1,.19s0-.73.15-1.13c-.69-.24-1.13.25-1.57.49a53.9,53.9,0,0,0-5.48,3.23,3,3,0,0,1-.66.41c-.3.11-.66.28-.9-.11s0-.66.29-.86c.55-.39,1.11-.76,1.69-1.09,1.81-1,3.62-2.07,5.45-3.05.51-.27.56-.53.42-1.05-1.55-5.77-2.91-11.58-4.17-17.42A94.53,94.53,0,0,0,93.15,150a16.11,16.11,0,0,0-4.47-7,9.37,9.37,0,0,1-.71-.7c-.2-.22-.49-.46-.23-.76s.55-.15.83,0A8,8,0,0,1,91.21,144c2.19,2.83,3.24,6.18,4.21,9.54,1.59,5.5,2.51,11.15,3.86,16.7.86,3.5,1.78,7,2.7,10.46a4.19,4.19,0,0,1,0,2.07c3-1.66,5.91-3.21,8.75-4.81,7.6-4.27,14.89-9,22.33-13.57a2.39,2.39,0,0,1,3,.17,6.48,6.48,0,0,1,2.43,1.87,31.82,31.82,0,0,1,5.39,7.71.94.94,0,0,1,.05.47c.92,1.77.44,3.13-.81,4.7A83.08,83.08,0,0,1,133,189.74,141.22,141.22,0,0,1,121.47,199a76.3,76.3,0,0,1-13.21,8.07c-3.45,1.55-7,2.69-10.88,2.39a13.85,13.85,0,0,1-7.53-2.73c-5-3.77-7.89-9-10.22-14.63A145.27,145.27,0,0,1,73.2,172a5.76,5.76,0,0,0-.57-2.13A35,35,0,0,1,72.21,164.73Z"/><path class="cls-9" d="M144,174.58l-.21-.24a3.17,3.17,0,0,1,1.82-1.87c5.47-3.13,9-7.94,11.75-13.43,2.69-5.33,5.29-10.7,7.53-16.23a3.82,3.82,0,0,0,.4-1.28.89.89,0,0,0-.52-.91.77.77,0,0,0-1,.31,7.4,7.4,0,0,0-.92,1.53c-1.34,2.71-2.87,5.31-4.32,8a2.46,2.46,0,0,1-.51.73.74.74,0,0,1-1,.14.77.77,0,0,1-.33-1,15.8,15.8,0,0,1,.88-1.68c2.14-3.93,4.46-7.76,6.23-11.88a4.11,4.11,0,0,0,.43-1.5.6.6,0,0,0-1-.53,5.44,5.44,0,0,0-1.26,1.56c-2.21,3.67-4.43,7.34-6.71,11a3.9,3.9,0,0,1-.74,1c-.27.23-.56.41-.91.2a.81.81,0,0,1-.37-1A5,5,0,0,1,154,146c2.72-4.24,5.28-8.57,7.89-12.87a5.37,5.37,0,0,0,.69-1.4c.16-.67-.16-.94-.79-.8a2.8,2.8,0,0,0-1.6,1.15,42.87,42.87,0,0,0-2.63,3.76c-2,3.13-4,6.18-6.2,9.17a4.11,4.11,0,0,1-1,1.15.74.74,0,0,1-.84.09c-.34-.21-.33-.55-.25-.89a2.58,2.58,0,0,1,.52-1c3.1-4.25,5.79-8.78,8.83-13.06a.39.39,0,0,0,.06-.4,3.25,3.25,0,0,0-1.86,1.06,28.65,28.65,0,0,0-3.28,3.51,120.75,120.75,0,0,0-9.09,12.47,25.24,25.24,0,0,1-1.48,2.63c-.32.41-.7.93-1.27.58s-.3-.93-.09-1.4a48.08,48.08,0,0,1,5-8.19c.29-.41.79-.8.26-1.36a1.32,1.32,0,0,0-1.65-.18,3,3,0,0,0-1.14,1.2,28.38,28.38,0,0,0-2.62,5.68c-1.19,3.21-2.52,6.39-2.81,9.86-.11,1.26-.16,2.53-.38,3.78s-.08,2.44-1.42,3.06c-.58.06-.81-.29-.62-.74,1.1-2.53.78-5.26,1.24-7.88a53.85,53.85,0,0,1,3.32-10.13,29,29,0,0,1,2-4.33c1.05-1.75,2.53-2.49,4.14-2a1.07,1.07,0,0,1,.58.29c.77,1.08,1.26.56,1.73-.26.35-.61,1-1,1.21-1.71l2.79-3.32a15.8,15.8,0,0,1,3.63-3.44c1-.64,2.18-1.22,3.41-.35.24.16.41,0,.62-.09,1-.39,1.95-.63,2.79.21s.43,1.72.12,2.61c0,.1-.06.21-.09.31,2.07.82,2.38,1.52,1.65,3.68-.07.21-.14.42-.22.62-.43,1-1.22,1.88.6,2.46.95.29,1.17,1.63.73,2.85-.67,1.85-1.43,3.66-2.15,5.48a24,24,0,0,1-2.12,5.16,112,112,0,0,1-6.5,12.24,21.66,21.66,0,0,1-6.19,6.53c-.85.58-1.26,1.18-.87,2.22a4.39,4.39,0,0,1,.29,1.75c0,1.06.49,1.19,1.38,1.17a13.05,13.05,0,0,0,7.46-2.31,7.36,7.36,0,0,0,1.87-2.06c.22-.33.33-.76.77-.9.32-.42-.12-1.52.8-1.28s.41,1.12.2,1.69a7.67,7.67,0,0,1-3.59,4.26,15.48,15.48,0,0,1-8,2,2.49,2.49,0,0,1-2-.81c.48,2.7-.06,5.23-.28,7.76-.17,2,.63,3.85,1.1,5.74.28,1.08.64,2.13,1,3.2.12.38.39.85-.18,1s-.77-.37-.88-.77c-.49-1.7-1.34-3.28-1.56-5.36-1,2.26-.89,4.52-1.71,6.73-.82-1.1-.44-2-.29-2.89a108.9,108.9,0,0,0,1.94-13,6.4,6.4,0,0,0,.05-2.31c-.16-.57.67-.76.65-1.32a10.71,10.71,0,0,0-.49-2.63c-.17-.59-.42-.46-.77-.15s-.82.64-1.21,1A.78.78,0,0,1,144,174.58Z"/><path class="cls-10" d="M160.42,171.7a7,7,0,0,1-3.2,3.73,13.7,13.7,0,0,1-7.82,1.84c-.3,0-.72.16-.71-.51a11.07,11.07,0,0,0-.57-3.51c-.12-.41-.18-.74.3-1,4.23-2.62,7-6.52,9.23-10.82,2.07-3.91,4.06-7.86,5.87-11.9.25-.54.54-1.06.81-1.59a28.4,28.4,0,0,1-.93,7.57,50.9,50.9,0,0,1-2.9,9.43,2,2,0,0,0-.17,1,2.59,2.59,0,0,0-.64,2.82A11.52,11.52,0,0,1,160.42,171.7Z"/><path class="cls-3" d="M126.13,117.22c1.85.37,3.7.79,5.56,1.08,2.61.42,5.14.28,7.34-1.45a24.83,24.83,0,0,1,.08,8.07,13,13,0,0,1-1,2.92c-3.34-.92-6.6-2.11-10-2.9a6.88,6.88,0,0,0-2.74-.68.34.34,0,0,1-.47-.05l.75-4a7.58,7.58,0,0,1,.1-2.33A.82.82,0,0,1,126.13,117.22Z"/><path class="cls-1" d="M258.81,119.19c1.47,4.68,3.06,9.31,5,13.83.29.68.68,1.31,1,2-.46.54-.7,0-.94-.23a32.43,32.43,0,0,1-3-3.28c-.77-1-1-1-2-.28a27.73,27.73,0,0,0-3.22,2.6,3.61,3.61,0,0,1-.91.63c-.86.44-1.22.24-1.31-.74a15.93,15.93,0,0,1,.61-5.19c.33-1.48.95-2.9.8-4.47,0-.13.19-.22.23-.37,1.27-1,1.89-2.44,2.88-3.62.26-.31.47-.66.71-1C258.72,119,258.8,119,258.81,119.19Z"/><path class="cls-6" d="M191.14,115a8.24,8.24,0,0,1-1.07-4.09,2,2,0,0,1,1.24-1.9,1.9,1.9,0,0,1,1.6,1c2.35,3.5,4.47,7.15,6.66,10.74,1.69,2.77,1.78,2.29-.88,4.16-1.16.82-1.4.78-2.07-.43C194.84,121.33,193,118.2,191.14,115Z"/><path class="cls-3" d="M191.14,115c1.3,1.17,2,2.79,2.82,4.24,1.08,1.78,2.1,3.6,3.08,5.43.36.68.66.63,1.18.23a13.57,13.57,0,0,1,1.83-1.27c.56-.32.63-.62.29-1.14-2.72-4.14-5.08-8.5-7.87-12.59a2,2,0,0,0-1.16-.89c.34-.15.76.06,1.06-.25,1.28.87,1.9,2.26,2.7,3.49,2.09,3.22,4.16,6.45,6,9.8.35.64.65.77,1.27.33a12.81,12.81,0,0,1,1.94-1.11c.56-.26.57-.56.27-1-2.33-3.68-4.53-7.44-7.06-11-.23-.33-.54-.61-.77-1s-.78-.64-.39-1,.83.1,1.1.43c.75.92,1.5,1.85,2.17,2.83a78.27,78.27,0,0,1,5.69,9.46c.32.62.67.54,1.16.35.29-.11.68-.34.85.14s-.18.52-.46.66a80.1,80.1,0,0,0-10.3,5.79c-.27.18-.58.45-.87.05s.11-.64.37-.77c.61-.34.48-.65.17-1.15-1.9-3.15-3.79-6.31-5.41-9.63Z"/><path class="cls-4" d="M255,123.66c.45,2.23-.68,4.22-1,6.33a23.62,23.62,0,0,0-.31,3.75c0,.77.3.86.84.46,1.2-.93,2.37-1.89,3.55-2.84.32-.25.66-.49,1-.75a1.06,1.06,0,0,1,1.77.28,48.13,48.13,0,0,0,3.69,4.13s.21,0,.31,0c.17.2.33.41.49.61a2.8,2.8,0,0,1-.26,2.25c-1.12,3.25-1.2,6.68-1.72,10a56.41,56.41,0,0,0-.93,8.59,7.58,7.58,0,0,1-1.06-2.5c-.18-3.29.72-6.47,1.08-9.7a27.27,27.27,0,0,1,1.35-7.1,1.1,1.1,0,0,0-.38-1.29,28.66,28.66,0,0,1-2.95-3.19c-.49-.63-.92-.71-1.55-.13a10.33,10.33,0,0,1-2.54,2c-.94.09-1.54.83-2.36,1.17-1.07.45-1.42.26-1.43-.88,0-3.5,1-6.78,1.91-10.1.06-.25.11-.51.16-.76Z"/><path class="cls-4" d="M292.13,118.68c-.25.22-.61.14-.85.53-3.63,5.93-7.3,11.84-10.62,18-.7,1.27-1.17,1.39-2.39.56a69.73,69.73,0,0,1-6-5.11c-.8-.69-1.2-.6-1.73.2-.68,1-1.4,2-2.14,3-.18.24-.41.63-.81.37s-.22-.69,0-1c1-1.5,2.09-3,3.11-4.47.45-.66.88-.3,1.2,0,1.74,1.73,3.69,3.22,5.53,4.84s1.86,1.69,3-.38q5-8.88,10.58-17.43C291.22,118.26,291.71,118.44,292.13,118.68Z"/><path class="cls-4" d="M240,187.7c0-1.87,0-3.73,0-5.59-.09-5-.66-9.93-.84-14.9a120.68,120.68,0,0,1-.11-14.61c.19-2.1.05-4.24.06-6.37,0-.26,0-.52,0-.78s0-1,.53-.93.36.57.36.93c0,4.1.05,8.2,0,12.3-.07,4.58.23,9.14.5,13.7.21,3.38.39,6.75.45,10.13,0,1.26.16,2.52.18,3.78a4.8,4.8,0,0,1-.47,2.27Z"/><path class="cls-3" d="M243.37,100.09h3.26c-.15-.56-.92-.89-.21-1.32a1.19,1.19,0,0,1,1.45.16c.51.43-.26.55-.32.93,2,.28,4.1.1,6.08.65a7.08,7.08,0,0,1,2,.66,1.36,1.36,0,0,1,.7,1.42c-.11.65-.72.46-1.1.48-2.49.17-5,.38-7.47.36a27.74,27.74,0,0,0-4.46.25A3.7,3.7,0,0,1,243.37,100.09Z"/><path class="cls-11" d="M258.81,119.19l-.22-.14a2.59,2.59,0,0,0-.87-1.76c.25-.53.79-.54,1.24-.65a22.75,22.75,0,0,0,9-4.29c.17-.14.37-.26.54-.4s.59-.37.89-.06.2.67-.05,1a19.52,19.52,0,0,1-9.76,6.36C259.34,119.33,259.06,119.21,258.81,119.19Z"/><path class="cls-4" d="M204.2,159c0-.11,0-.25.05-.32.27-.29.15.08.16.12.27,1.95.27,1.87,2.3,2a25.22,25.22,0,0,0,10.76-2,15,15,0,0,0,4.47-2.68c.31-.27.71-.74,1.12-.26s-.12.81-.42,1.09a16.71,16.71,0,0,1-5.8,3.25,24.26,24.26,0,0,1-10.36,1.66,1.2,1.2,0,0,1-.33,0c-1.06-.38-1.59,0-1.69,1.1A20.28,20.28,0,0,1,204.2,159Z"/><path class="cls-4" d="M226.61,160.5q1.44,4.08,2.89,8.16a51.22,51.22,0,0,1,2.33,7,12.15,12.15,0,0,1,.12,2c0,.29-.08.52-.43.53a.41.41,0,0,1-.45-.39c-.62-5.43-3.5-10.14-4.86-15.34-.08-.31-.28-.62-.08-1S226.47,160.83,226.61,160.5Z"/><path class="cls-2" d="M142.89,103.21c-.53-.2-1.54.37-1.55-.55s1-.46,1.55-.58c.72-.14,1.48-.12,2.2-.27,1.19-.24,1.53-.87,1.14-2a24.67,24.67,0,0,0-2.88-5.26c-.62-1-1.29-1.91-1.86-2.91-.42-.73-.23-1.15.71-.93,1.25,2,2.51,4,3.74,6a10.85,10.85,0,0,1,1.28,2.71c.54,1.84-.07,3-1.92,3.39C144.51,103,143.69,103.08,142.89,103.21Z"/><path class="cls-3" d="M213.81,125.11c-.1.44-.49.63-.81.88a10.56,10.56,0,0,0-4.18,10.9,2.13,2.13,0,0,1,.07.44c0,.28.11.66-.29.74s-.47-.32-.55-.59a10.07,10.07,0,0,1,.09-6.35,10.4,10.4,0,0,1,5.07-6.24Z"/><path class="cls-2" d="M142,107.45a6.26,6.26,0,0,1-4.44,1.09,10,10,0,0,1-5.18-1.55c-.42-.27-1-.6-.6-1.2s.79,0,1.16.18a10,10,0,0,0,8.06,1c.31-.09.61-.31,1-.17Z"/><path class="cls-12" d="M145.11,8.57c-.28.27-.63.18-1,.18h-20c-.33,0-.68.08-1-.18C130.51,8.41,137.81,8.48,145.11,8.57Z"/><path class="cls-4" d="M314.46,187.78c.34,0,.65,0,.7.32s-.24.5-.51.64a16.66,16.66,0,0,0-5,3.64c-.34.39-.65.81-1,1.19s-.43.62-.81.29a.67.67,0,0,1-.06-.92,8.41,8.41,0,0,1,.8-1.06,21.75,21.75,0,0,1,4.75-3.68A2.12,2.12,0,0,1,314.46,187.78Z"/><path class="cls-4" d="M264.93,144.79c.15-.7.34-1.35,1.31-1.32a1.16,1.16,0,0,1,1.19,1.31,1.4,1.4,0,0,1-1.13,1.56C265.76,146.42,264.93,145.42,264.93,144.79Z"/><path class="cls-4" d="M266.17,165.15l-1.11-2.6a1,1,0,0,1,1.72,0C267.35,163.38,267.17,164.1,266.17,165.15Z"/><path class="cls-4" d="M263.51,203c0-.73.18-1.25,1-1.28a1.69,1.69,0,0,1,1.44,1.56c0,.69-.6,1.56-1.14,1.54S263.53,203.84,263.51,203Z"/><path class="cls-4" d="M265,186c-.85,0-1.33-.64-1.3-1.6,0-.73.37-1.11,1.11-1.09s1.63.82,1.53,1.5A1.19,1.19,0,0,1,265,186Z"/><path class="cls-1" d="M256.32,134.51c.77-1.21,2.11-1.81,3.07-2.83.26-.27.49-.09.72.18a42.61,42.61,0,0,0,3.94,4.23c.23.22.37.42.2.77-1.2,2.62-1.23,5.47-1.64,8.24-.43,3-.87,5.91-1.3,8.86a87.35,87.35,0,0,1-4.69-17.25C256.5,136,256.42,135.25,256.32,134.51Z"/><path class="cls-5" d="M136.81,163.6c1.16-1.4,1.23-3.12,1.29-4.77.18-5.34,2.28-10.12,4.23-15a14,14,0,0,1,1.92-3.52,1.88,1.88,0,0,1,2.81-.5.93.93,0,0,1,.1,1.5,47.4,47.4,0,0,0-5.35,8.49c-.19.39-.6.87,0,1.15s.76-.33,1-.71c3-5.86,7.25-10.9,11.35-16a18.33,18.33,0,0,1,2.91-2.93,3.15,3.15,0,0,1,2.4-.87c-.07.61-.55.89-.82,1.29-3,4.4-5.78,9-9,13.24-.24.32-.58.77-.12,1.07s.79-.17,1.06-.53c2.67-3.59,5.08-7.36,7.53-11.09.64-1,1.32-1.9,2-2.81a2.72,2.72,0,0,1,1.94-1.19c.82-.06,1.16.35.92,1.08a9.56,9.56,0,0,1-.93,1.9q-4.11,6.73-8.24,13.43c-.12.19-.26.37-.36.57a.56.56,0,0,0,.2.86c.35.19.57,0,.73-.29.73-1.13,1.45-2.26,2.15-3.4,1.79-2.93,3.56-5.86,5.35-8.78a5.8,5.8,0,0,1,1.16-1.5,1,1,0,0,1,1.14-.15.85.85,0,0,1,.42,1.05,13.45,13.45,0,0,1-1.45,3.73c-2,3.68-4,7.34-5.95,11-.2.36-.69.78-.09,1.14s.83-.22,1-.63c1.71-3.14,3.43-6.28,5.12-9.42.36-.66.82-1.17,1.59-.84a1.25,1.25,0,0,1,.65,1.78c-3.36,8.17-6.91,16.25-11.79,23.65a23.35,23.35,0,0,1-7.24,6.57,18,18,0,0,0-2.71,2.13,32.53,32.53,0,0,0-7.66-9.81Z"/><path class="cls-3" d="M136.72,85a4.84,4.84,0,0,1,1.75.19c.33.17.55.39.5.77s-.32.43-.65.45a18.65,18.65,0,0,0-8.14,2.75c-.38.22-.79.54-1.18,0s0-.93.33-1.23A11.74,11.74,0,0,1,136.72,85Z"/><path class="cls-13" d="M126.11,118a7.83,7.83,0,0,1-.41,2.24,16.67,16.67,0,0,1-6.17-4.25c-.24-.28-.55-.5-.64-.89.28-.25.57-.13.83,0a28.88,28.88,0,0,0,5.76,2.44A1.56,1.56,0,0,1,126.11,118Z"/><path class="cls-14" d="M105.06,92.42c2.29,0,5,3.12,4.72,5.45,0,.37-.14.68-.58.64s-.53-.37-.53-.72a4.59,4.59,0,0,0-1.74-3.47,2.45,2.45,0,0,0-2.84-.7c-.29.14-.58.23-.74-.14s.09-.57.32-.75A2.25,2.25,0,0,1,105.06,92.42Z"/><path class="cls-15" d="M126.11,118a23.11,23.11,0,0,1-6.6-2.67,3.29,3.29,0,0,0-.62-.23c-.27-.48-1.12-.9-.59-1.47s1,.23,1.47.53a26.58,26.58,0,0,0,6.36,3.1C126.12,117.47,126.11,117.71,126.11,118Z"/><path class="cls-2" d="M134.22,95.14a4,4,0,0,1-1.94-.43c-.36-.18-1-.29-.68-.89s.69-.28,1.06-.09a1.8,1.8,0,0,0,.21.08A2.93,2.93,0,0,0,137,92c.16-.42.25-.85.79-.66s.33.65.21,1A4,4,0,0,1,134.22,95.14Z"/><path class="cls-16" d="M125,124.21l.47.05a13.33,13.33,0,0,1-1.12,4.42A11,11,0,0,1,125,124.21Z"/><path class="cls-3" d="M250.65,80.79a9.57,9.57,0,0,1,6.5,2.75c.43.43.87,1,.41,1.56s-1,.17-1.5-.14a14.22,14.22,0,0,0-7.34-1.9c-.55,0-1.26.1-1.41-.59s.52-1,1.06-1.25A4.79,4.79,0,0,1,250.65,80.79Z"/><path class="cls-17" d="M245.83,107.7a3.88,3.88,0,0,1-.18-1.85c0-.54.39-.55.77-.56a35.91,35.91,0,0,0,6.54-.67c.32-.07.51,0,.49.35.13.55-.24.86-.59,1.11a10.79,10.79,0,0,1-6.2,1.91A1.21,1.21,0,0,1,245.83,107.7Z"/><path class="cls-11" d="M281.54,92.87c-.05.37-.33.47-.64.46a4.73,4.73,0,0,0-4.56,3c-.17.36-.44.67-.86.51s-.47-.59-.35-1c.56-2.12,3.64-4,5.7-3.53A.86.86,0,0,1,281.54,92.87Z"/><path class="cls-18" d="M252.3,89.11c0,.34,0,.46,0,.57-.11,1.1-.79,1.91-1.56,1.86s-1.15-.85-1.09-2a2.18,2.18,0,0,1,0-.44c.22-.81.32-1.84,1.48-1.72S252.2,88.52,252.3,89.11Z"/><path class="cls-19" d="M245.83,107.7a13.05,13.05,0,0,0,5.17-.93,5,5,0,0,0,2.45-1.8c.65-.29.63,0,.44.48a4.37,4.37,0,0,1-1.44,1.66,7.62,7.62,0,0,1-5.65,1.45C246.3,108.51,245.85,108.33,245.83,107.7Z"/><path class="cls-20" d="M145.53,65.33a26,26,0,0,0-1.21-10.14,1.83,1.83,0,0,0-2-1.51c-5.73,0-11.47,0-17.21-.23a144.89,144.89,0,0,1-18.14-1.29,22.23,22.23,0,0,1-8.2-2.71c-3.91-2.38-5.92-6.09-6.82-10.42a41.11,41.11,0,0,1-.24-15.32C92.82,17,97.73,12.42,104.9,11.23A122.89,122.89,0,0,1,120.71,10c9.61-.36,19.23-.24,28.85,0,3.76.1,7.52.17,11.29.29a26.3,26.3,0,0,1,8.43,1.41A14,14,0,0,1,178.55,23a35.65,35.65,0,0,1-.83,17.76c-2,6.29-6.71,9.65-12.93,11.2a72,72,0,0,1-11,1.55c-1.79.16-1.79.13-2.38,1.89A24.7,24.7,0,0,1,145.53,65.33Z"/><path class="cls-20" d="M238.24,65.69a21.64,21.64,0,0,1-6.27-9.5,7.48,7.48,0,0,1-.58-1.79c-.15-1.56-1.1-2-2.5-2.27a24.36,24.36,0,0,1-7.84-2.71,16.08,16.08,0,0,1-7.8-11,30.49,30.49,0,0,1,0-13.64c1.42-6.13,5.46-9.76,11.37-11.51a57.93,57.93,0,0,1,12.19-2,172.76,172.76,0,0,1,17.77-.44c6.22.19,12.43.46,18.5,2a23.73,23.73,0,0,1,8.47,3.8c3.84,2.83,5.7,6.77,6.32,11.37a26.84,26.84,0,0,1-.95,12.14c-2.12,6.36-6.82,9.9-13.09,11.58-5,1.36-10.22,1.45-15.39,1.62-6,.19-11.92.06-17.87-.29-1.22-.07-1.66.33-1.93,1.5A24.54,24.54,0,0,0,238.24,65.69Z"/><path class="cls-3" d="M107.58,22.42a3.46,3.46,0,0,1,3-.26c.43.29.34.7.34,1.1,0,2,0,4,0,6,0,.65.19.81.81.8,2.13,0,4.25,0,6.38.1.77,0,.92-.22.91-.92,0-2.09.08-4.18.06-6.26,0-.85.32-1.09,1.13-1.08,2.27,0,2.28,0,2.27,2.23,0,5.29-.09,10.59-.07,15.88,0,1-.35,1.35-1.29,1.27a6.8,6.8,0,0,0-1,0c-.89.08-1.17-.35-1.15-1.2,0-2,0-4.1,0-6.15,0-.64-.17-.81-.8-.8-2.42,0-4.85,0-7.27,0a3.7,3.7,0,0,0-.13,1.75c0,1.78,0,3.57,0,5.36,0,.69-.27.89-.9.94-2.17.16-2.24.11-2.24-2.05V23.64A4.16,4.16,0,0,0,107.58,22.42Z"/><path class="cls-3" d="M132.45,35.69c-1.08,0-2.16.05-3.24,0-.73-.05-.69.26-.55.77a3.09,3.09,0,0,0,3.08,2.27,6.56,6.56,0,0,0,2.93-.54c1-.4,1.35.3,1.78.9s-.11,1.07-.54,1.32a7.65,7.65,0,0,1-7.76.21c-2.63-1.46-3.45-4.05-3.11-6.89s1.63-5,4.51-5.75c4.92-1.23,7.85,1.62,7.7,6.51A1.11,1.11,0,0,1,136,35.63h-3.58Z"/><path class="cls-3" d="M151.83,34.5c0-4,2.77-6.88,6.63-6.87A6.46,6.46,0,0,1,165,34.48c0,4.13-2.8,7-6.79,7C154.39,41.41,151.8,38.59,151.83,34.5Z"/><path class="cls-3" d="M139.52,31.81c0-2.83,0-5.67,0-8.5,0-1.18.23-1.35,1.63-1.34s1.76.18,1.75,1.35c-.08,5.55-.19,11.1-.26,16.66,0,1-.37,1.38-1.34,1.25a2.91,2.91,0,0,0-.78,0c-.79.1-1-.24-1-1C139.54,37.4,139.51,34.61,139.52,31.81Z"/><path class="cls-21" d="M149.2,40.56c-.51,1.31-1.6.49-2.4.6s-.57-.63-.57-1.08c-.06-5.58-.09-11.15-.18-16.73,0-1,.3-1.36,1.27-1.35,1.82,0,2.05.14,2.05,1.37q0,8,0,16.07c0,.38.18.82-.2,1.15-.51-.51-.41-1.17-.41-1.8q0-7,0-14a8.46,8.46,0,0,0-.06-1.33c-.09-.6-.54-.63-1-.64a.68.68,0,0,0-.8.71c0,.34,0,.67,0,1,0,4.69,0,9.39,0,14.09,0,1.54-.18,2.17,1.91,1.81A.72.72,0,0,1,149.2,40.56Z"/><path class="cls-22" d="M107.58,22.42c.3.35.17.78.17,1.18,0,5.38,0,10.77,0,16.16,0,1,.26,1.3,1.25,1.25,1.88-.1,1.66.15,1.68-1.7s0-3.41,0-5.12c0-.36-.12-.76.25-1,0,2.38,0,4.77,0,7.15,0,.79-.27,1-1,1.07-2.34.09-2.34.12-2.34-2.2q0-8,0-16C107.52,22.93,107.56,22.68,107.58,22.42Z"/><path class="cls-3" d="M233.08,30.9h.11c1.1-.07,2.58.48,3.2-.22s.36-2.12.45-3.23.22-2.45.27-3.67c0-.82.33-1.19,1.22-1.19,2.5,0,2.5,0,2.3,2.45-.38,4.6-.71,9.21-1.07,13.81,0,.37-.11.73-.16,1.1-.25,1.78-1.21,2.34-2.94,1.71a1.05,1.05,0,0,1-.72-1.22c.15-1.86.26-3.71.44-5.57.08-.76,0-1.12-.94-1.09-1.63,0-3.27-.07-4.91-.17-.74,0-1,.12-1.07.94-.08,2.05-.29,4.08-.42,6.13,0,.63-.29,1-.92,1l-1.23.06c-.9,0-1.35-.26-1.27-1.31.41-5.67.76-11.36,1.11-17,0-.64.3-.86.89-.85,2.9.05,2.74-.17,2.53,2.44-.13,1.63-.24,3.27-.42,4.89-.08.73,0,1.11.87,1S232.19,30.9,233.08,30.9Z"/><path class="cls-3" d="M271.74,40.14a5.32,5.32,0,0,1-5.34,1.52,2.82,2.82,0,0,1-2-1.91c-1-3,.89-5.68,4.19-5.93a18.34,18.34,0,0,1,2.46,0c.62,0,.74-.22.75-.78,0-1.76-1.08-2.55-2.93-2a4.65,4.65,0,0,0-1.73,1c-.45.38-.89.73-1.43.13s-.8-1.08-.32-1.78a5.21,5.21,0,0,1,4.11-2.12,10,10,0,0,1,1.34,0c2.89.07,4.37,1.8,4,4.65a47.24,47.24,0,0,0-.37,5.58c0,.56.1,1,.81.84a.73.73,0,0,1,1,.64c.09.63.15,1.25-.57,1.65A2.65,2.65,0,0,1,271.74,40.14Z"/><path class="cls-3" d="M255,34.07A9.37,9.37,0,0,1,254,38.56a6.31,6.31,0,0,1-7.7,3c-2.25-.83-3.13-2.65-3.24-4.87a9.24,9.24,0,0,1,1.35-5.53A6.23,6.23,0,0,1,252,28.7C253.91,29.48,255,31.44,255,34.07Z"/><path class="cls-3" d="M257.46,39c.37-5.22.84-10.33,1-15.46,0-1,.7-1.33,2.19-1.17A1.27,1.27,0,0,1,261.89,24q-.61,7-1.19,14c-.05.6.07,1,.82,1,.56,0,.81.33.88.81s.17,1.11-.38,1.53a3.84,3.84,0,0,1-4.23-.56A2.58,2.58,0,0,1,257.46,39Z"/><path class="cls-20" d="M131.35,33.2c-.74,0-1.49,0-2.23,0-.54,0-.62-.23-.52-.68a2.79,2.79,0,0,1,2.91-2.1,2.58,2.58,0,0,1,2.61,2.14c.09.47,0,.69-.54.67-.74,0-1.48,0-2.23,0Z"/><path class="cls-20" d="M155.44,34.52a10,10,0,0,1,0-1.34,2.83,2.83,0,0,1,2.74-2.72,2.72,2.72,0,0,1,3.1,2.39,7,7,0,0,1,0,3.53,3,3,0,0,1-3.09,2.35,2.72,2.72,0,0,1-2.64-2.43,14.9,14.9,0,0,1-.16-1.78Z"/><path class="cls-3" d="M149.2,40.56a3.84,3.84,0,0,1-1.13.43c-1.45.08-1.6,0-1.6-1.5,0-5.22,0-10.43,0-15.64,0-.92,0-1.57,1.25-1.47,1.42.12,1.45,0,1.45,1.45l0,16.76Z"/><path class="cls-20" d="M269,39.08c-.59,0-1.12-.2-1.24-.88a1.69,1.69,0,0,1,1-2,4.37,4.37,0,0,1,1.4-.29c1.32-.12,1.52.15,1.15,1.45A3.08,3.08,0,0,1,269,39.08Z"/><path class="cls-20" d="M251.44,34.2a7.4,7.4,0,0,1-.48,3,2.71,2.71,0,0,1-1.38,1.52c-1.59.73-2.85.09-3.12-1.61A8.71,8.71,0,0,1,247,32.9a2.55,2.55,0,0,1,1.5-1.55,2,2,0,0,1,3,1.84C251.45,33.53,251.44,33.86,251.44,34.2Z"/></svg>