<svg xmlns="http://www.w3.org/2000/svg" xmlns:xlink="http://www.w3.org/1999/xlink" viewBox="0 0 225.92 195.87"><defs><style>.cls-1{mask:url(#mask);}.cls-2,.cls-4{mix-blend-mode:multiply;}.cls-2{fill:url(#linear-gradient);}.cls-3{mask:url(#mask-2);}.cls-4{fill:url(#radial-gradient);}.cls-5{fill:url(#Degradado_sin_nombre_24);}.cls-6{mask:url(#mask-3);}.cls-7{fill:url(#Degradado_sin_nombre_24-2);}.cls-8{fill:url(#Degradado_sin_nombre_24-3);}.cls-9{fill:url(#Degradado_sin_nombre_24-4);}.cls-10{fill:#c8895e;}.cls-11{fill:url(#Degradado_sin_nombre_17);}.cls-12{fill:url(#Degradado_sin_nombre_17-2);}.cls-13{fill:url(#Degradado_sin_nombre_17-3);}.cls-14{fill:url(#Degradado_sin_nombre_17-4);}.cls-15{fill:url(#Degradado_sin_nombre_17-5);}.cls-16{mask:url(#mask-4);}.cls-17{fill:url(#radial-gradient-2);}.cls-18{fill:url(#Degradado_sin_nombre_17-6);}.cls-19{fill:#fff;opacity:0.18;}.cls-20{fill:#6c2910;}.cls-21{filter:url(#luminosity-noclip-2);}.cls-22{filter:url(#luminosity-noclip);}</style><filter id="luminosity-noclip" x="22.63" y="-1569.65" width="190.75" height="32766" filterUnits="userSpaceOnUse" color-interpolation-filters="sRGB"><feFlood flood-color="#fff" result="bg"/><feBlend in="SourceGraphic" in2="bg"/></filter><mask id="mask" x="22.63" y="-1569.65" width="190.75" height="32766" maskUnits="userSpaceOnUse"><g class="cls-22"/></mask><linearGradient id="linear-gradient" x1="118" y1="0.04" x2="118" y2="186.07" gradientUnits="userSpaceOnUse"><stop offset="0" stop-color="#fff"/><stop offset="0.21"/><stop offset="0.82" stop-color="gray"/><stop offset="0.85" stop-color="#8e8e8e"/><stop offset="0.9" stop-color="#b3b3b3"/><stop offset="0.97" stop-color="#efefef"/><stop offset="0.99" stop-color="#fff"/></linearGradient><filter id="luminosity-noclip-2" x="108.13" y="-1569.65" width="107.48" height="32766" filterUnits="userSpaceOnUse" color-interpolation-filters="sRGB"><feFlood flood-color="#fff" result="bg"/><feBlend in="SourceGraphic" in2="bg"/></filter><mask id="mask-2" x="108.13" y="-1569.65" width="107.48" height="32766" maskUnits="userSpaceOnUse"><g class="cls-21"/></mask><radialGradient id="radial-gradient" cx="-1321.33" cy="-2141.5" r="58.17" gradientTransform="matrix(0.92, 0, 0, 0.94, 1378.23, 2163.6)" gradientUnits="userSpaceOnUse"><stop offset="0.28" stop-color="#666"/><stop offset="0.49" stop-color="#474747"/><stop offset="1"/></radialGradient><linearGradient id="Degradado_sin_nombre_24" x1="22.63" y1="93.05" x2="213.38" y2="93.05" gradientUnits="userSpaceOnUse"><stop offset="0" stop-color="#fccd74"/><stop offset="0.21" stop-color="#fff"/><stop offset="0.82" stop-color="#fccd74"/><stop offset="0.99" stop-color="#fccd74"/></linearGradient><mask id="mask-3" x="22.63" y="0.04" width="190.75" height="186.03" maskUnits="userSpaceOnUse"><g class="cls-1"><path class="cls-2" d="M184.09,44.71C188,30.93,194.24,15.56,205.81,6.25,208.15,4.37,211.37,2,213.38,0,207.9.18,201.5.77,196,1.11l-82.65,5.1-28,1.73C74.52,8.61,65.78,20.62,61,29.28,55.52,39.06,52.4,50,50.31,60.93c-2.83,14.83-6,86.85-6.74,93.52-1.31,11.8-6,30.69-20.94,30.82,6,0,119.18.81,128,.8,10.28,0,16.33-8.15,19.76-16.91,4.21-10.75,5.31-57.21,5.88-69.26S182.34,50.93,184.09,44.71Z"/></g></mask><linearGradient id="Degradado_sin_nombre_24-2" x1="118" y1="0.04" x2="118" y2="186.07" xlink:href="#Degradado_sin_nombre_24"/><linearGradient id="Degradado_sin_nombre_24-3" x1="75.75" y1="155.4" x2="75.75" y2="205.27" xlink:href="#Degradado_sin_nombre_24"/><linearGradient id="Degradado_sin_nombre_24-4" x1="128.3" y1="97.92" x2="219.21" y2="97.92" xlink:href="#Degradado_sin_nombre_24"/><radialGradient id="Degradado_sin_nombre_17" cx="88.23" cy="33.06" r="10.62" gradientTransform="translate(118.85 -56.89) rotate(86.69)" gradientUnits="userSpaceOnUse"><stop offset="0.01" stop-color="#dad49d"/><stop offset="0.47" stop-color="#dad49d"/><stop offset="0.62" stop-color="#c4be8c"/><stop offset="0.84" stop-color="#9e986f"/><stop offset="0.98" stop-color="#9e986f"/><stop offset="1" stop-color="#9e986f"/></radialGradient><radialGradient id="Degradado_sin_nombre_17-2" cx="78.51" cy="62.23" r="11.46" gradientTransform="translate(95.09 -37.7) rotate(59.79)" xlink:href="#Degradado_sin_nombre_17"/><radialGradient id="Degradado_sin_nombre_17-3" cx="73.9" cy="89.65" r="11.46" gradientTransform="translate(160.36 8.19) rotate(85.22)" xlink:href="#Degradado_sin_nombre_17"/><radialGradient id="Degradado_sin_nombre_17-4" cx="71.98" cy="118.75" r="11.46" gradientTransform="translate(186.2 34.93) rotate(84.27)" xlink:href="#Degradado_sin_nombre_17"/><radialGradient id="Degradado_sin_nombre_17-5" cx="74.11" cy="147.98" r="11.46" gradientTransform="translate(217.2 59.12) rotate(84.27)" xlink:href="#Degradado_sin_nombre_17"/><mask id="mask-4" x="108.13" y="86.31" width="107.48" height="109.56" maskUnits="userSpaceOnUse"><g class="cls-3"><ellipse class="cls-4" cx="161.87" cy="141.09" rx="53.55" ry="54.94" transform="translate(-39.45 66.41) rotate(-20.72)"/></g></mask><radialGradient id="radial-gradient-2" cx="-1321.33" cy="-2141.5" r="58.17" gradientTransform="matrix(0.92, 0, 0, 0.94, 1378.23, 2163.6)" gradientUnits="userSpaceOnUse"><stop offset="0.28" stop-color="#729eb1"/><stop offset="1" stop-color="#abc0c3"/></radialGradient><radialGradient id="Degradado_sin_nombre_17-6" cx="1086.01" cy="825.72" r="64.7" gradientTransform="translate(741.52 -1130.88) rotate(77.23)" xlink:href="#Degradado_sin_nombre_17"/></defs><g id="Capa_2" data-name="Capa 2"><g id="Capa_1-2" data-name="Capa 1"><path class="cls-5" d="M184.09,44.71C188,30.93,194.24,15.56,205.81,6.25,208.15,4.37,211.37,2,213.38,0,207.9.18,201.5.77,196,1.11l-82.65,5.1-28,1.73C74.52,8.61,65.78,20.62,61,29.28,55.52,39.06,52.4,50,50.31,60.93c-2.83,14.83-6,86.85-6.74,93.52-1.31,11.8-6,30.69-20.94,30.82,6,0,119.18.81,128,.8,10.28,0,16.33-8.15,19.76-16.91,4.21-10.75,5.31-57.21,5.88-69.26S182.34,50.93,184.09,44.71Z"/><g class="cls-6"><path class="cls-7" d="M184.09,44.71C188,30.93,194.24,15.56,205.81,6.25,208.15,4.37,211.37,2,213.38,0,207.9.18,201.5.77,196,1.11l-82.65,5.1-28,1.73C74.52,8.61,65.78,20.62,61,29.28,55.52,39.06,52.4,50,50.31,60.93c-2.83,14.83-6,86.85-6.74,93.52-1.31,11.8-6,30.69-20.94,30.82,6,0,119.18.81,128,.8,10.28,0,16.33-8.15,19.76-16.91,4.21-10.75,5.31-57.21,5.88-69.26S182.34,50.93,184.09,44.71Z"/></g><path class="cls-8" d="M147.57,194.36c-5.86-1.34-9.8-4.87-13-9.85a32.78,32.78,0,0,1-5.17-12c-.77-4.39.25-7.63,4.48-10-4.28,0-126.27,1.08-128.1,1.1-3.78,0-5.7,3.82-5.78,7.11a24.25,24.25,0,0,0,2.27,9.67,26.86,26.86,0,0,0,8.42,11.16,20.48,20.48,0,0,0,11.9,4l128.91.31C149.9,195.42,149,194.68,147.57,194.36Z"/><path class="cls-9" d="M218.7,3.44c-1-2.51-3.86-4.24-6.52-3.06a35.91,35.91,0,0,0-12.76,10c-8.51,10.11-13.5,23.41-16.87,36a204.82,204.82,0,0,0-5.8,34.46c-.77,8.44-1.19,16.93-1.49,25.4-.42,11.92-.62,23.86-1.24,35.77-.47,9.12-1.32,19.09-4.81,27.61-4.08,10-19.88,23.93-27.81,8.73-2.06-3.93-1.86-8.38-3.35-12.45a5.37,5.37,0,0,0-2.49-3.16c-3.42-1.56-6.62,2.38-7.09,5.32-1.08,6.8,3,15.45,7.41,20.48a21.82,21.82,0,0,0,11.92,6.92,23,23,0,0,0,11.95-1.22C168.34,191,174.44,183.22,178,175a75.46,75.46,0,0,0,5.19-21.21c1.8-15.54,1.57-31.27,2.13-46.89.29-8.27.7-16.55,1.44-24.79a224.84,224.84,0,0,1,5-31.93c2.56-10.73,6.42-22.48,13.57-31.08a30.8,30.8,0,0,1,11.15-8.69C219.27,9.16,219.75,6,218.7,3.44Z"/><path class="cls-10" d="M114.13,41.12A6.28,6.28,0,0,1,114,28.56l40-.64a6.28,6.28,0,0,1,.26,12.56l-40,.63Z"/><circle class="cls-11" cx="89.56" cy="34.52" r="8.51" transform="translate(49.92 121.94) rotate(-86.69)"/><circle class="cls-12" cx="80.33" cy="63.85" r="8.51" transform="translate(-15.26 101.14) rotate(-59.79)"/><circle class="cls-13" cx="75.72" cy="91.26" r="8.51" transform="translate(-21.53 159.12) rotate(-85.22)"/><circle class="cls-14" cx="73.8" cy="120.37" r="8.51" transform="translate(-53.33 181.79) rotate(-84.27)"/><path class="cls-10" d="M104.9,70.44a6.28,6.28,0,0,1-.13-12.55l40-.64A6.28,6.28,0,1,1,145,69.8l-40,.64Z"/><path class="cls-10" d="M100.3,97.86a6.28,6.28,0,0,1-.13-12.56l40-.63a6.28,6.28,0,0,1,.26,12.55l-40,.64Z"/><path class="cls-10" d="M98.37,127a6.28,6.28,0,0,1-.13-12.56l31.21-.64a6.28,6.28,0,0,1,.25,12.56L98.5,127Z"/><circle class="cls-15" cx="75.93" cy="149.6" r="8.51" transform="translate(-80.5 210.22) rotate(-84.27)"/><path class="cls-10" d="M98.57,156.19a6.28,6.28,0,0,1-.12-12.55l31.2-.64a6.28,6.28,0,1,1,.26,12.55l-31.2.64Z"/><g class="cls-16"><ellipse class="cls-17" cx="161.87" cy="141.09" rx="53.55" ry="54.94" transform="translate(-39.45 66.41) rotate(-20.72)"/></g><circle class="cls-18" cx="176.04" cy="117.92" r="49.88" transform="translate(5.09 243.1) rotate(-70.03)"/><path class="cls-19" d="M139.86,106.63c-.74,1.72-1.75,3.22-3.35,3-1.2-.13-2-1.36-2.26-2.53-.71-2.83.34-5.79,1.68-8.38a38.51,38.51,0,0,1,11.9-13.88,5.75,5.75,0,0,1,2.62-1.11,2.49,2.49,0,0,1,2.45,1.18c1.29,2.57-4.15,7-5.64,8.75a39.9,39.9,0,0,0-5.93,9C140.92,103.55,140.49,105.17,139.86,106.63Z"/><path class="cls-20" d="M171,138.49a6.36,6.36,0,0,1-4.46-1.94l-16.35-17a6.35,6.35,0,0,1,9.15-8.81l11.94,12.39,24.47-23.6a6.35,6.35,0,0,1,8.82,9.15l-29.05,28A6.34,6.34,0,0,1,171,138.49Z"/></g></g></svg>