<svg id="Capa_1" data-name="Capa 1" xmlns="http://www.w3.org/2000/svg" viewBox="0 0 389.11 229.23"><defs><style>.cls-1{fill:#6c2910;}.cls-2{fill:#fccd74;}.cls-3{fill:#2a4931;}.cls-4{fill:#223f2b;}.cls-5{fill:#163e26;}.cls-6{fill:#c7804d;}.cls-7{fill:#eaa371;}.cls-8{fill:#eaa370;}.cls-9{fill:#ad481d;}.cls-10{fill:#c06232;}.cls-11{fill:#eaa270;}.cls-12{fill:#c16536;}.cls-13{fill:#c15d2d;}.cls-14{fill:#57402f;}.cls-15{fill:#c26737;}.cls-16{fill:#ac4a23;}.cls-17{fill:#c06434;}.cls-18{fill:#c36737;}.cls-19{fill:#533e2d;}.cls-20{fill:#563f2d;}.cls-21{fill:#c16535;}.cls-22{fill:#403b32;}.cls-23{fill:#c36636;}.cls-24{fill:#403c32;}.cls-25{fill:#c06333;}.cls-26{fill:#c36839;}.cls-27{fill:#543d2b;}.cls-28{fill:#c36736;}.cls-29{fill:#4d3828;}.cls-30{fill:#3d3930;}.cls-31{fill:#3b3830;}</style></defs><path class="cls-1" d="M262.48,89.43,260.22,96h-1.36l2.84-7.56h.88Zm1.78,3.75v1h-4.11v-1Zm.11,2.8-2.26-6.55-.1-1h.88L265.74,96Z"/><path class="cls-1" d="M266.25,93.23v-.11A4.23,4.23,0,0,1,266.4,92a3,3,0,0,1,.45-.91,2,2,0,0,1,.71-.59,2.16,2.16,0,0,1,.94-.2,2.06,2.06,0,0,1,.93.19,1.86,1.86,0,0,1,.65.57,2.69,2.69,0,0,1,.4.87,6.82,6.82,0,0,1,.23,1.13v.34a6.44,6.44,0,0,1-.23,1.1,3.07,3.07,0,0,1-.43.87,1.84,1.84,0,0,1-.65.56,2,2,0,0,1-.91.2,2,2,0,0,1-.93-.22,2.13,2.13,0,0,1-.71-.6,2.92,2.92,0,0,1-.45-.9A4.14,4.14,0,0,1,266.25,93.23Zm3.82-2.87h1.13v5.47a2.36,2.36,0,0,1-.32,1.28,2,2,0,0,1-.9.81,3,3,0,0,1-1.33.28,3.29,3.29,0,0,1-.72-.09,3.46,3.46,0,0,1-.75-.3,1.87,1.87,0,0,1-.61-.54l.58-.74a1.94,1.94,0,0,0,.67.53,1.79,1.79,0,0,0,.76.16,1.55,1.55,0,0,0,.74-.16,1.1,1.1,0,0,0,.47-.46,1.57,1.57,0,0,0,.16-.75V91.63Zm-2.57,2.76v.11a3.24,3.24,0,0,0,.08.72,1.68,1.68,0,0,0,.23.58,1.27,1.27,0,0,0,.4.4,1.22,1.22,0,0,0,.59.14,1.3,1.3,0,0,0,.72-.18,1.28,1.28,0,0,0,.44-.51,2.9,2.9,0,0,0,.22-.72v-.94a2.63,2.63,0,0,0-.13-.57,1.72,1.72,0,0,0-.26-.46,1,1,0,0,0-.4-.31,1.34,1.34,0,0,0-.58-.12,1.13,1.13,0,0,0-.59.15,1.3,1.3,0,0,0-.41.4,2.07,2.07,0,0,0-.23.59A3.38,3.38,0,0,0,267.5,93.12Z"/><path class="cls-1" d="M273.75,91.43V96H272.5V90.36h1.2Zm1.72-1.11v1.17a.88.88,0,0,0-.24,0H275a1.6,1.6,0,0,0-.56.09,1,1,0,0,0-.41.26,1.13,1.13,0,0,0-.25.41,1.67,1.67,0,0,0-.1.53l-.29,0a4.34,4.34,0,0,1,.1-1,2.73,2.73,0,0,1,.32-.8,1.58,1.58,0,0,1,.53-.53,1.38,1.38,0,0,1,.74-.19,1,1,0,0,1,.24,0Z"/><path class="cls-1" d="M279.4,92.56v.78h-.9a2.8,2.8,0,0,0-.61.06,1.49,1.49,0,0,0-.44.19,1,1,0,0,0-.27.3.87.87,0,0,0-.08.4.8.8,0,0,0,.1.41.76.76,0,0,0,.3.29,1.07,1.07,0,0,0,.49.1,1.3,1.3,0,0,0,.67-.16,1.26,1.26,0,0,0,.46-.39.76.76,0,0,0,.17-.43l.41.55a1.59,1.59,0,0,1-.22.46,2,2,0,0,1-1.74,1,2.11,2.11,0,0,1-1-.23,1.67,1.67,0,0,1-.67-.59,1.5,1.5,0,0,1-.25-.86,1.8,1.8,0,0,1,.17-.79,1.54,1.54,0,0,1,.5-.58,2.51,2.51,0,0,1,.81-.35,4,4,0,0,1,1.09-.13Zm-.18,2.29V92.17a1.21,1.21,0,0,0-.11-.52.75.75,0,0,0-.33-.33,1.15,1.15,0,0,0-.55-.12,1.22,1.22,0,0,0-.53.1.82.82,0,0,0-.35.28.71.71,0,0,0-.13.4H276a1.35,1.35,0,0,1,.16-.64,1.66,1.66,0,0,1,.47-.56,2.3,2.3,0,0,1,.73-.38,3.21,3.21,0,0,1,2.08.07,1.73,1.73,0,0,1,.77.64,1.9,1.9,0,0,1,.29,1.07v2.5a3.6,3.6,0,0,0,0,.69,2.37,2.37,0,0,0,.16.53V96h-1.28a1.93,1.93,0,0,1-.14-.52A4.3,4.3,0,0,1,279.22,94.85Z"/><path class="cls-1" d="M281.56,93.23v-.11a4.23,4.23,0,0,1,.15-1.16,2.74,2.74,0,0,1,.43-.91,2,2,0,0,1,.7-.59,2.11,2.11,0,0,1,.92-.2,2,2,0,0,1,.9.19,2,2,0,0,1,.65.57,2.72,2.72,0,0,1,.43.87A5.25,5.25,0,0,1,286,93v.34a5,5,0,0,1-.23,1.1,2.83,2.83,0,0,1-.43.87,1.93,1.93,0,0,1-.65.56,2,2,0,0,1-.91.2,1.94,1.94,0,0,1-.91-.22,2,2,0,0,1-.7-.6,2.69,2.69,0,0,1-.43-.9A4.14,4.14,0,0,1,281.56,93.23Zm1.25-.11v.11a3.26,3.26,0,0,0,.07.72,1.89,1.89,0,0,0,.22.58,1.15,1.15,0,0,0,.39.4,1.18,1.18,0,0,0,.58.14,1.23,1.23,0,0,0,.7-.18,1.36,1.36,0,0,0,.44-.51,2.53,2.53,0,0,0,.21-.72v-.94a2.15,2.15,0,0,0-.13-.57,1.69,1.69,0,0,0-.25-.46,1,1,0,0,0-.4-.31,1.22,1.22,0,0,0-.56-.12,1.06,1.06,0,0,0-.58.15,1.15,1.15,0,0,0-.39.4,2.07,2.07,0,0,0-.23.59A3.38,3.38,0,0,0,282.81,93.12Zm2.4,1.7V88h1.26v8h-1.14Z"/><path class="cls-1" d="M290.26,96.09a2.92,2.92,0,0,1-1.13-.21,2.65,2.65,0,0,1-.85-.57,2.77,2.77,0,0,1-.54-.87,3.14,3.14,0,0,1-.18-1.08v-.2a3.51,3.51,0,0,1,.19-1.2,3,3,0,0,1,.53-.92,2.32,2.32,0,0,1,.81-.58,2.78,2.78,0,0,1,2.07,0,1.92,1.92,0,0,1,.75.57,2.4,2.4,0,0,1,.45.87,3.82,3.82,0,0,1,.15,1.11v.54h-4.35v-.9h3.11v-.1a1.92,1.92,0,0,0-.13-.64,1.14,1.14,0,0,0-.37-.47,1.07,1.07,0,0,0-.67-.19,1.1,1.1,0,0,0-.55.14,1,1,0,0,0-.4.38,1.84,1.84,0,0,0-.25.6,3.12,3.12,0,0,0-.09.79v.2a2.17,2.17,0,0,0,.11.69,1.41,1.41,0,0,0,.29.54,1.44,1.44,0,0,0,.48.37,1.47,1.47,0,0,0,.64.13,1.79,1.79,0,0,0,.81-.18,1.85,1.85,0,0,0,.61-.51l.66.64a2.72,2.72,0,0,1-.47.5,2.41,2.41,0,0,1-.71.39A2.63,2.63,0,0,1,290.26,96.09Z"/><path class="cls-1" d="M295.77,95.09a1.28,1.28,0,0,0,.56-.12,1.21,1.21,0,0,0,.4-.34,1,1,0,0,0,.17-.51h1.18a1.73,1.73,0,0,1-.33,1,2.1,2.1,0,0,1-.82.71,2.43,2.43,0,0,1-1.14.27,2.6,2.6,0,0,1-1.12-.23,2.11,2.11,0,0,1-.8-.61,2.62,2.62,0,0,1-.47-.89,3.57,3.57,0,0,1-.16-1.1v-.18A3.55,3.55,0,0,1,293.4,92a2.58,2.58,0,0,1,.47-.9,2.11,2.11,0,0,1,.8-.61,2.88,2.88,0,0,1,2.3,0,2,2,0,0,1,.8.75,2.08,2.08,0,0,1,.31,1.1H296.9a1.18,1.18,0,0,0-.16-.56,1.08,1.08,0,0,0-1-.56,1.23,1.23,0,0,0-.63.16,1,1,0,0,0-.39.41,2.16,2.16,0,0,0-.2.59,3.71,3.71,0,0,0-.06.67v.18a3.74,3.74,0,0,0,.06.68,1.73,1.73,0,0,0,.2.58,1,1,0,0,0,.39.41A1.14,1.14,0,0,0,295.77,95.09Z"/><path class="cls-1" d="M301.51,96.09a2.92,2.92,0,0,1-1.13-.21,2.65,2.65,0,0,1-.85-.57,2.58,2.58,0,0,1-.53-.87,2.92,2.92,0,0,1-.19-1.08v-.2A3.51,3.51,0,0,1,299,92a2.8,2.8,0,0,1,.54-.92,2.15,2.15,0,0,1,.81-.58,2.43,2.43,0,0,1,1-.2,2.46,2.46,0,0,1,1.05.2,1.92,1.92,0,0,1,.75.57,2.4,2.4,0,0,1,.45.87,3.82,3.82,0,0,1,.15,1.11v.54h-4.34v-.9h3.1v-.1a1.7,1.7,0,0,0-.13-.64,1.14,1.14,0,0,0-.37-.47,1.07,1.07,0,0,0-.67-.19,1.12,1.12,0,0,0-.55.14,1,1,0,0,0-.4.38,1.84,1.84,0,0,0-.25.6,3.15,3.15,0,0,0-.08.79v.2a2.17,2.17,0,0,0,.1.69,1.3,1.3,0,0,0,.3.54,1.4,1.4,0,0,0,.47.37,1.47,1.47,0,0,0,.64.13,1.79,1.79,0,0,0,.81-.18,1.85,1.85,0,0,0,.61-.51l.66.64a2.72,2.72,0,0,1-.47.5,2.41,2.41,0,0,1-.71.39A2.63,2.63,0,0,1,301.51,96.09Z"/><path class="cls-1" d="M306,91.43V96h-1.25V90.36h1.19Zm1.72-1.11v1.17a1,1,0,0,0-.25,0h-.26a1.62,1.62,0,0,0-.57.09,1,1,0,0,0-.41.26,1.13,1.13,0,0,0-.25.41,1.67,1.67,0,0,0-.1.53l-.29,0a4.32,4.32,0,0,1,.11-1A2.47,2.47,0,0,1,306,91a1.68,1.68,0,0,1,.53-.53,1.38,1.38,0,0,1,.74-.19,1.1,1.1,0,0,1,.25,0Z"/><path class="cls-1" d="M312.48,88v8h-1.26V88Z"/><path class="cls-1" d="M317.2,92.56v.78h-.9a2.74,2.74,0,0,0-.61.06,1.56,1.56,0,0,0-.45.19,1,1,0,0,0-.26.3.87.87,0,0,0-.09.4.92.92,0,0,0,.1.41.79.79,0,0,0,.31.29,1,1,0,0,0,.48.1,1.37,1.37,0,0,0,.68-.16,1.23,1.23,0,0,0,.45-.39.87.87,0,0,0,.18-.43l.4.55a1.84,1.84,0,0,1-.21.46,2.07,2.07,0,0,1-.39.46,2.13,2.13,0,0,1-.58.37,2,2,0,0,1-.77.14,2.08,2.08,0,0,1-1-.23,1.7,1.7,0,0,1-.68-.59,1.57,1.57,0,0,1-.24-.86,1.8,1.8,0,0,1,.17-.79,1.54,1.54,0,0,1,.5-.58,2.55,2.55,0,0,1,.8-.35,4.1,4.1,0,0,1,1.1-.13ZM317,94.85V92.17a1.21,1.21,0,0,0-.1-.52.87.87,0,0,0-.33-.33,1.19,1.19,0,0,0-.56-.12,1.25,1.25,0,0,0-.53.1.89.89,0,0,0-.35.28.7.7,0,0,0-.12.4h-1.25a1.48,1.48,0,0,1,.16-.64,1.78,1.78,0,0,1,.47-.56,2.41,2.41,0,0,1,.73-.38,2.93,2.93,0,0,1,1-.14,2.88,2.88,0,0,1,1.13.21,1.79,1.79,0,0,1,.77.64,1.89,1.89,0,0,1,.28,1.07v2.5a3.54,3.54,0,0,0,.06.69,1.94,1.94,0,0,0,.16.53V96H317.2a2.39,2.39,0,0,1-.14-.52A4.3,4.3,0,0,1,317,94.85Z"/><path class="cls-1" d="M325.22,93.16h-2v-1h2a1.77,1.77,0,0,0,.83-.17,1,1,0,0,0,.47-.46,1.44,1.44,0,0,0,.15-.67,1.53,1.53,0,0,0-.15-.67,1.21,1.21,0,0,0-.47-.51,1.55,1.55,0,0,0-.83-.19h-1.57V96h-1.3V88.42h2.87a3.26,3.26,0,0,1,1.5.31,2.14,2.14,0,0,1,.93.85,2.53,2.53,0,0,1,0,2.5,2.1,2.1,0,0,1-.93.8A3.56,3.56,0,0,1,325.22,93.16Z"/><path class="cls-1" d="M330.27,91.43V96H329V90.36h1.19ZM332,90.32v1.17a1,1,0,0,0-.25,0h-.26a1.6,1.6,0,0,0-.56.09,1,1,0,0,0-.41.26,1,1,0,0,0-.25.41,1.66,1.66,0,0,0-.11.53l-.28,0a4.34,4.34,0,0,1,.1-1,2.72,2.72,0,0,1,.31-.8,1.68,1.68,0,0,1,.53-.53,1.41,1.41,0,0,1,.74-.19,1.1,1.1,0,0,1,.25,0Z"/><path class="cls-1" d="M335.15,96.09a2.87,2.87,0,0,1-1.12-.21,2.54,2.54,0,0,1-.85-.57,2.45,2.45,0,0,1-.54-.87,3.14,3.14,0,0,1-.19-1.08v-.2a3.51,3.51,0,0,1,.2-1.2,2.61,2.61,0,0,1,.53-.92,2.32,2.32,0,0,1,.81-.58,2.43,2.43,0,0,1,1-.2,2.48,2.48,0,0,1,1.06.2,1.92,1.92,0,0,1,.75.57,2.4,2.4,0,0,1,.45.87A4.21,4.21,0,0,1,337.4,93v.54h-4.34v-.9h3.11v-.1a1.71,1.71,0,0,0-.14-.64,1.07,1.07,0,0,0-.37-.47,1,1,0,0,0-.66-.19,1.1,1.1,0,0,0-.55.14,1.07,1.07,0,0,0-.41.38,1.84,1.84,0,0,0-.24.6,3.12,3.12,0,0,0-.09.79v.2a2.17,2.17,0,0,0,.1.69,1.57,1.57,0,0,0,.3.54,1.35,1.35,0,0,0,.48.37,1.47,1.47,0,0,0,.64.13,1.71,1.71,0,0,0,.8-.18,1.88,1.88,0,0,0,.62-.51l.65.64a2.42,2.42,0,0,1-.47.5,2.29,2.29,0,0,1-.71.39A2.63,2.63,0,0,1,335.15,96.09Z"/><path class="cls-1" d="M338.16,93.23v-.11a4.23,4.23,0,0,1,.15-1.16,3,3,0,0,1,.45-.91,1.92,1.92,0,0,1,.71-.59,2.16,2.16,0,0,1,.94-.2,2.06,2.06,0,0,1,.93.19A1.86,1.86,0,0,1,342,91a2.91,2.91,0,0,1,.4.87,6,6,0,0,1,.22,1.13v.34a5.63,5.63,0,0,1-.22,1.1,3.07,3.07,0,0,1-.43.87,1.84,1.84,0,0,1-.65.56,2.12,2.12,0,0,1-1.84,0,2,2,0,0,1-.71-.6,2.92,2.92,0,0,1-.45-.9A4.14,4.14,0,0,1,338.16,93.23ZM342,90.36h1.14v5.47a2.36,2.36,0,0,1-.32,1.28,2,2,0,0,1-.9.81,3,3,0,0,1-1.33.28,3.22,3.22,0,0,1-.72-.09,3.75,3.75,0,0,1-.76-.3,2.1,2.1,0,0,1-.61-.54l.59-.74a1.85,1.85,0,0,0,.67.53,1.79,1.79,0,0,0,.76.16,1.49,1.49,0,0,0,.73-.16,1,1,0,0,0,.47-.46,1.46,1.46,0,0,0,.17-.75V91.63Zm-2.56,2.76v.11a3.26,3.26,0,0,0,.07.72,1.69,1.69,0,0,0,.24.58,1.18,1.18,0,0,0,.4.4,1.22,1.22,0,0,0,.59.14,1.33,1.33,0,0,0,.72-.18,1.28,1.28,0,0,0,.44-.51,2.53,2.53,0,0,0,.21-.72v-.94a2.62,2.62,0,0,0-.12-.57,1.72,1.72,0,0,0-.26-.46,1,1,0,0,0-.41-.31,1.26,1.26,0,0,0-.57-.12,1.13,1.13,0,0,0-.59.15,1.21,1.21,0,0,0-.41.4,2.07,2.07,0,0,0-.23.59A2.84,2.84,0,0,0,339.41,93.12Z"/><path class="cls-1" d="M348,93.49h.42a4.3,4.3,0,0,1-.12,1,2.43,2.43,0,0,1-.38.83,1.86,1.86,0,0,1-.67.54,2.43,2.43,0,0,1-1.72.08,1.56,1.56,0,0,1-.59-.37,1.82,1.82,0,0,1-.39-.65,3.05,3.05,0,0,1-.13-1V90.36h1.25V94a1.74,1.74,0,0,0,.07.51.88.88,0,0,0,.2.33.64.64,0,0,0,.29.18,1,1,0,0,0,.36,0,1.49,1.49,0,0,0,.84-.21,1.14,1.14,0,0,0,.44-.57A2.24,2.24,0,0,0,348,93.49Zm-.17,1.17v-4.3H349V96h-1.18Z"/><path class="cls-1" d="M351.56,91.56V96h-1.25V90.36h1.18Zm-.22,1.4h-.4a3.79,3.79,0,0,1,.16-1.1,2.82,2.82,0,0,1,.46-.86,2.12,2.12,0,0,1,.71-.55,2.06,2.06,0,0,1,.91-.19,2.11,2.11,0,0,1,.73.11,1.32,1.32,0,0,1,.57.36,1.57,1.57,0,0,1,.36.65,3.35,3.35,0,0,1,.13,1V96h-1.26V92.35a1.48,1.48,0,0,0-.12-.65.68.68,0,0,0-.34-.33,1.24,1.24,0,0,0-.54-.11,1.21,1.21,0,0,0-.58.14,1.27,1.27,0,0,0-.43.37,2,2,0,0,0-.27.54A2.27,2.27,0,0,0,351.34,93Z"/><path class="cls-1" d="M358.82,90.36v.92h-3.17v-.92ZM356.57,89h1.25v5.45a.9.9,0,0,0,.07.4.37.37,0,0,0,.21.18,1,1,0,0,0,.32,0l.25,0,.19,0v1l-.36.08a3.3,3.3,0,0,1-.47,0,1.86,1.86,0,0,1-.77-.16,1.14,1.14,0,0,1-.52-.5,2,2,0,0,1-.18-.92Z"/><path class="cls-1" d="M363.14,92.56v.78h-.9a2.74,2.74,0,0,0-.61.06,1.56,1.56,0,0,0-.45.19,1,1,0,0,0-.26.3.87.87,0,0,0-.09.4.81.81,0,0,0,.11.41.7.7,0,0,0,.3.29,1,1,0,0,0,.48.1,1.34,1.34,0,0,0,.68-.16,1.23,1.23,0,0,0,.45-.39.87.87,0,0,0,.18-.43l.4.55a1.84,1.84,0,0,1-.21.46,2.07,2.07,0,0,1-.39.46,2,2,0,0,1-.58.37,2,2,0,0,1-.77.14,2.08,2.08,0,0,1-1-.23,1.7,1.7,0,0,1-.68-.59,1.57,1.57,0,0,1-.24-.86,1.8,1.8,0,0,1,.17-.79,1.54,1.54,0,0,1,.5-.58,2.55,2.55,0,0,1,.8-.35,4.1,4.1,0,0,1,1.1-.13ZM363,94.85V92.17a1.21,1.21,0,0,0-.11-.52.87.87,0,0,0-.33-.33,1.19,1.19,0,0,0-.56-.12,1.25,1.25,0,0,0-.53.1.79.79,0,0,0-.34.28.64.64,0,0,0-.13.4h-1.25a1.36,1.36,0,0,1,.17-.64,1.63,1.63,0,0,1,.46-.56,2.35,2.35,0,0,1,.74-.38,2.83,2.83,0,0,1,.95-.14,2.88,2.88,0,0,1,1.13.21,1.79,1.79,0,0,1,.77.64,1.89,1.89,0,0,1,.28,1.07v2.5a3.54,3.54,0,0,0,.06.69,1.94,1.94,0,0,0,.16.53V96h-1.29a2.39,2.39,0,0,1-.14-.52A4.26,4.26,0,0,1,363,94.85Z"/><path class="cls-1" d="M259.26,160.45h2.67a3.75,3.75,0,0,1,1.47.26,1.93,1.93,0,0,1,.93.77,2.2,2.2,0,0,1,.33,1.24,2.26,2.26,0,0,1-.21,1,2,2,0,0,1-.59.73,2.92,2.92,0,0,1-.9.45l-.39.19h-2.41v-1H262a1.67,1.67,0,0,0,.78-.17,1.08,1.08,0,0,0,.47-.45,1.28,1.28,0,0,0,.16-.65,1.47,1.47,0,0,0-.15-.69,1,1,0,0,0-.47-.45,1.74,1.74,0,0,0-.81-.16h-1.37V168h-1.3Zm4.31,7.56-1.77-3.4h1.36l1.81,3.33V168Z"/><path class="cls-1" d="M268.31,168.12a2.92,2.92,0,0,1-1.13-.21,2.54,2.54,0,0,1-.85-.57,2.77,2.77,0,0,1-.54-.87,3.14,3.14,0,0,1-.19-1.08v-.2a3.51,3.51,0,0,1,.2-1.2,2.61,2.61,0,0,1,.53-.92,2.46,2.46,0,0,1,.81-.58,2.78,2.78,0,0,1,2.07,0,2,2,0,0,1,.75.57,2.4,2.4,0,0,1,.45.87,3.93,3.93,0,0,1,.14,1.11v.54h-4.34v-.9h3.11v-.1a1.92,1.92,0,0,0-.13-.64,1.17,1.17,0,0,0-.38-.47,1.08,1.08,0,0,0-.66-.18,1.09,1.09,0,0,0-.55.13,1.14,1.14,0,0,0-.41.38,2,2,0,0,0-.24.6,3.18,3.18,0,0,0-.09.79v.2a2.5,2.5,0,0,0,.1.69,1.72,1.72,0,0,0,.3.55,1.44,1.44,0,0,0,.48.36,1.47,1.47,0,0,0,.64.13,1.71,1.71,0,0,0,.8-.18,1.88,1.88,0,0,0,.62-.51l.66.64a2.48,2.48,0,0,1-.48.5,2.31,2.31,0,0,1-.71.4A2.8,2.8,0,0,1,268.31,168.12Z"/><path class="cls-1" d="M271.3,165.26v-.1a4.25,4.25,0,0,1,.15-1.17,2.74,2.74,0,0,1,.43-.91,2.19,2.19,0,0,1,.7-.59,2.12,2.12,0,0,1,.93-.2,1.85,1.85,0,0,1,.89.2,1.74,1.74,0,0,1,.65.56,2.72,2.72,0,0,1,.43.87,5.25,5.25,0,0,1,.23,1.13v.34a5.19,5.19,0,0,1-.23,1.11,2.77,2.77,0,0,1-.43.86,1.93,1.93,0,0,1-.65.56,2.08,2.08,0,0,1-1.82,0,2.19,2.19,0,0,1-.7-.59,2.84,2.84,0,0,1-.43-.91A4.14,4.14,0,0,1,271.3,165.26Zm1.25-.1v.1a3.26,3.26,0,0,0,.07.72,2.06,2.06,0,0,0,.22.59,1.12,1.12,0,0,0,.39.39,1.09,1.09,0,0,0,.58.14,1.23,1.23,0,0,0,.7-.18,1.36,1.36,0,0,0,.44-.51,2.56,2.56,0,0,0,.21-.71v-.94a2.59,2.59,0,0,0-.12-.58,1.72,1.72,0,0,0-.26-.46,1.11,1.11,0,0,0-.4-.31,1.22,1.22,0,0,0-.56-.11,1.06,1.06,0,0,0-.58.14,1.15,1.15,0,0,0-.39.4,2.07,2.07,0,0,0-.23.59A3.41,3.41,0,0,0,272.55,165.16Zm2.4,1.69V160h1.26v8h-1.14Z"/><path class="cls-1" d="M277.52,160.92a.65.65,0,0,1,.19-.48.7.7,0,0,1,.53-.19.69.69,0,0,1,.52.19.65.65,0,0,1,.19.48.6.6,0,0,1-.19.46.69.69,0,0,1-.52.19.7.7,0,0,1-.53-.19A.6.6,0,0,1,277.52,160.92Zm1.34,1.47V168H277.6v-5.62Z"/><path class="cls-1" d="M281.49,163.46V168h-1.25v-5.62h1.19Zm1.72-1.1v1.16a1,1,0,0,0-.25,0h-.26a1.66,1.66,0,0,0-.57.09,1,1,0,0,0-.4.26,1.15,1.15,0,0,0-.26.41,1.67,1.67,0,0,0-.1.53l-.29,0a4.32,4.32,0,0,1,.11-1,2.56,2.56,0,0,1,.31-.79,1.61,1.61,0,0,1,.53-.54,1.38,1.38,0,0,1,.74-.19,1.1,1.1,0,0,1,.25,0A.72.72,0,0,1,283.21,162.36Z"/><path class="cls-1" d="M286.37,168.12a2.87,2.87,0,0,1-1.12-.21,2.43,2.43,0,0,1-1.39-1.44,2.92,2.92,0,0,1-.19-1.08v-.2a3.77,3.77,0,0,1,.19-1.2,2.8,2.8,0,0,1,.54-.92,2.46,2.46,0,0,1,.81-.58,2.6,2.6,0,0,1,1-.2,2.71,2.71,0,0,1,1.06.2,2,2,0,0,1,.75.57,2.38,2.38,0,0,1,.44.87,3.92,3.92,0,0,1,.15,1.11v.54h-4.34v-.9h3.11v-.1a1.93,1.93,0,0,0-.14-.64,1.07,1.07,0,0,0-.37-.47,1.1,1.1,0,0,0-.66-.18,1.13,1.13,0,0,0-.56.13,1.11,1.11,0,0,0-.4.38,2,2,0,0,0-.25.6,3.77,3.77,0,0,0-.08.79v.2a2.17,2.17,0,0,0,.1.69,1.72,1.72,0,0,0,.3.55,1.44,1.44,0,0,0,.48.36,1.42,1.42,0,0,0,.63.13,1.72,1.72,0,0,0,1.42-.69l.66.64a2.72,2.72,0,0,1-.47.5,2.31,2.31,0,0,1-.71.4A2.86,2.86,0,0,1,286.37,168.12Z"/><path class="cls-1" d="M291.89,167.12a1.23,1.23,0,0,0,.55-.12,1,1,0,0,0,.4-.34,1,1,0,0,0,.17-.51h1.18a1.72,1.72,0,0,1-.32,1,2.2,2.2,0,0,1-.83.71,2.4,2.4,0,0,1-1.14.27,2.8,2.8,0,0,1-1.12-.22,2.3,2.3,0,0,1-.79-.61,2.78,2.78,0,0,1-.48-.9,3.88,3.88,0,0,1-.16-1.09v-.19a3.88,3.88,0,0,1,.16-1.09,2.78,2.78,0,0,1,.48-.9,2.18,2.18,0,0,1,.79-.61,2.6,2.6,0,0,1,1.12-.22,2.48,2.48,0,0,1,1.18.27,2,2,0,0,1,.81.74,2.2,2.2,0,0,1,.3,1.1H293a1.29,1.29,0,0,0-.15-.56,1,1,0,0,0-.39-.4,1.1,1.1,0,0,0-.59-.15,1.16,1.16,0,0,0-.62.15,1,1,0,0,0-.39.41,1.87,1.87,0,0,0-.2.59,3.71,3.71,0,0,0-.06.67v.19a3.71,3.71,0,0,0,.05.67,2.16,2.16,0,0,0,.2.59,1.21,1.21,0,0,0,.4.41A1.18,1.18,0,0,0,291.89,167.12Z"/><path class="cls-1" d="M297.44,167.12A1.28,1.28,0,0,0,298,167a1.19,1.19,0,0,0,.4-.34,1,1,0,0,0,.16-.51h1.18a1.65,1.65,0,0,1-.32,1,2.17,2.17,0,0,1-.82.71,2.46,2.46,0,0,1-1.14.27,2.73,2.73,0,0,1-1.12-.22,2.33,2.33,0,0,1-.8-.61,2.58,2.58,0,0,1-.47-.9,3.55,3.55,0,0,1-.16-1.09v-.19a3.55,3.55,0,0,1,.16-1.09,2.58,2.58,0,0,1,.47-.9,2.22,2.22,0,0,1,.8-.61,2.56,2.56,0,0,1,1.11-.22,2.52,2.52,0,0,1,1.19.27,2,2,0,0,1,.8.74,2.1,2.1,0,0,1,.3,1.1h-1.18a1.29,1.29,0,0,0-.15-.56,1,1,0,0,0-.38-.4,1.13,1.13,0,0,0-.59-.15,1.18,1.18,0,0,0-.63.15,1,1,0,0,0-.39.41,1.87,1.87,0,0,0-.2.59,3.71,3.71,0,0,0-.06.67v.19a3.71,3.71,0,0,0,.06.67,1.65,1.65,0,0,0,.2.59,1.09,1.09,0,0,0,.39.41A1.2,1.2,0,0,0,297.44,167.12Z"/><path class="cls-1" d="M300.7,160.92a.65.65,0,0,1,.19-.48.82.82,0,0,1,1.05,0,.65.65,0,0,1,.19.48.6.6,0,0,1-.19.46.82.82,0,0,1-1.05,0A.6.6,0,0,1,300.7,160.92Zm1.34,1.47V168h-1.26v-5.62Z"/><path class="cls-1" d="M303.17,165.26v-.12a3.37,3.37,0,0,1,.18-1.12,2.69,2.69,0,0,1,.51-.91,2.38,2.38,0,0,1,.82-.61,3,3,0,0,1,2.2,0,2.42,2.42,0,0,1,.83.61,2.69,2.69,0,0,1,.51.91,3.37,3.37,0,0,1,.18,1.12v.12a3.39,3.39,0,0,1-.18,1.13,2.79,2.79,0,0,1-.51.91,2.32,2.32,0,0,1-.82.6,2.77,2.77,0,0,1-1.1.22,2.73,2.73,0,0,1-1.1-.22,2.27,2.27,0,0,1-.83-.6,2.79,2.79,0,0,1-.51-.91A3.39,3.39,0,0,1,303.17,165.26Zm1.25-.12v.12a3.24,3.24,0,0,0,.08.72,1.57,1.57,0,0,0,.25.59,1.15,1.15,0,0,0,.42.4,1.21,1.21,0,0,0,.62.15,1.16,1.16,0,0,0,.6-.15,1.1,1.1,0,0,0,.43-.4,1.74,1.74,0,0,0,.24-.59,2.73,2.73,0,0,0,.09-.72v-.12a2.69,2.69,0,0,0-.09-.7,1.8,1.8,0,0,0-.24-.6,1.4,1.4,0,0,0-.43-.41,1.2,1.2,0,0,0-.61-.14,1.17,1.17,0,0,0-.61.14,1.27,1.27,0,0,0-.42.41,1.62,1.62,0,0,0-.25.6A3.19,3.19,0,0,0,304.42,165.14Z"/><path class="cls-1" d="M310.69,163.59V168h-1.25v-5.62h1.18Zm-.23,1.4h-.4a3.52,3.52,0,0,1,.17-1.1,2.48,2.48,0,0,1,.46-.85,2,2,0,0,1,.7-.56,2.09,2.09,0,0,1,.91-.19,2.45,2.45,0,0,1,.74.11,1.23,1.23,0,0,1,.56.36,1.71,1.71,0,0,1,.37.65,3.38,3.38,0,0,1,.12,1V168h-1.26v-3.63a1.65,1.65,0,0,0-.11-.65.68.68,0,0,0-.34-.33,1.29,1.29,0,0,0-.55-.1,1.24,1.24,0,0,0-.58.13,1.15,1.15,0,0,0-.42.37,1.71,1.71,0,0,0-.27.54A2.27,2.27,0,0,0,310.46,165Z"/><path class="cls-1" d="M318.72,164.59v.78h-.9a2.74,2.74,0,0,0-.61.06,1.39,1.39,0,0,0-.44.19,1,1,0,0,0-.27.3.9.9,0,0,0-.09.4.81.81,0,0,0,.11.41.76.76,0,0,0,.3.29,1,1,0,0,0,.49.1,1.31,1.31,0,0,0,1.12-.54.9.9,0,0,0,.18-.44l.41.55a2.37,2.37,0,0,1-.22.46,2.07,2.07,0,0,1-.39.46,2,2,0,0,1-.58.37,2,2,0,0,1-.77.14,2.21,2.21,0,0,1-1-.22,1.8,1.8,0,0,1-.68-.6,1.57,1.57,0,0,1-.24-.86,1.83,1.83,0,0,1,.17-.79,1.54,1.54,0,0,1,.5-.58,2.51,2.51,0,0,1,.81-.35,4,4,0,0,1,1.09-.13Zm-.18,2.29V164.2a1.21,1.21,0,0,0-.11-.52.75.75,0,0,0-.33-.33,1.16,1.16,0,0,0-.56-.12,1.25,1.25,0,0,0-.53.1.86.86,0,0,0-.34.28.64.64,0,0,0-.13.4H315.3a1.35,1.35,0,0,1,.16-.64,1.72,1.72,0,0,1,.46-.56,2.35,2.35,0,0,1,.74-.38,2.83,2.83,0,0,1,.95-.14,2.88,2.88,0,0,1,1.13.21,1.79,1.79,0,0,1,.77.64,1.92,1.92,0,0,1,.28,1.07v2.5a3.54,3.54,0,0,0,.06.69,1.94,1.94,0,0,0,.16.53V168h-1.29a1.88,1.88,0,0,1-.13-.51A3.31,3.31,0,0,1,318.54,166.88Z"/><path class="cls-1" d="M322.36,163.46V168h-1.25v-5.62h1.19Zm1.72-1.1v1.16a1,1,0,0,0-.25,0h-.26a1.7,1.7,0,0,0-.57.09,1,1,0,0,0-.4.26,1.15,1.15,0,0,0-.26.41,2,2,0,0,0-.1.53l-.29,0a4.32,4.32,0,0,1,.11-1,2.56,2.56,0,0,1,.31-.79,1.61,1.61,0,0,1,.53-.54,1.41,1.41,0,0,1,.74-.19,1.1,1.1,0,0,1,.25,0A.72.72,0,0,1,324.08,162.36Z"/><path class="cls-1" d="M328.85,160v8h-1.26v-8Z"/><path class="cls-1" d="M333.57,164.59v.78h-.9a2.8,2.8,0,0,0-.61.06,1.39,1.39,0,0,0-.44.19,1,1,0,0,0-.27.3.9.9,0,0,0-.09.4.81.81,0,0,0,.11.41.76.76,0,0,0,.3.29,1,1,0,0,0,.49.1,1.31,1.31,0,0,0,1.12-.54.81.81,0,0,0,.18-.44l.41.55a2.37,2.37,0,0,1-.22.46,2.07,2.07,0,0,1-.39.46,2,2,0,0,1-.58.37,2,2,0,0,1-.77.14,2.24,2.24,0,0,1-1-.22,1.7,1.7,0,0,1-.67-.6,1.5,1.5,0,0,1-.25-.86,1.83,1.83,0,0,1,.17-.79,1.54,1.54,0,0,1,.5-.58,2.51,2.51,0,0,1,.81-.35,4,4,0,0,1,1.09-.13Zm-.18,2.29V164.2a1.21,1.21,0,0,0-.11-.52.75.75,0,0,0-.33-.33,1.15,1.15,0,0,0-.55-.12,1.19,1.19,0,0,0-.53.1.82.82,0,0,0-.35.28.64.64,0,0,0-.13.4h-1.24a1.35,1.35,0,0,1,.16-.64,1.64,1.64,0,0,1,.47-.56,2.19,2.19,0,0,1,.73-.38,3.21,3.21,0,0,1,2.08.07,1.73,1.73,0,0,1,.77.64,1.92,1.92,0,0,1,.29,1.07v2.5a3.6,3.6,0,0,0,.05.69,2.37,2.37,0,0,0,.16.53V168h-1.29a2.34,2.34,0,0,1-.13-.51A3.31,3.31,0,0,1,333.39,166.88Z"/><path class="cls-1" d="M261.43,176.1A1.23,1.23,0,0,0,262,176a1,1,0,0,0,.4-.34,1,1,0,0,0,.17-.51h1.18a1.77,1.77,0,0,1-.32,1,2.4,2.4,0,0,1-.83.71,2.52,2.52,0,0,1-1.14.26,2.76,2.76,0,0,1-1.12-.22,2.18,2.18,0,0,1-.79-.61,2.78,2.78,0,0,1-.48-.9,3.83,3.83,0,0,1-.16-1.09v-.18a3.9,3.9,0,0,1,.16-1.1,2.78,2.78,0,0,1,.48-.9,2.18,2.18,0,0,1,.79-.61,2.6,2.6,0,0,1,1.12-.22,2.48,2.48,0,0,1,1.18.27,2.07,2.07,0,0,1,.81.74,2.23,2.23,0,0,1,.3,1.1h-1.18a1.33,1.33,0,0,0-.15-.56,1,1,0,0,0-.39-.4,1.1,1.1,0,0,0-.59-.15,1.22,1.22,0,0,0-.63.15,1.13,1.13,0,0,0-.39.42,2.09,2.09,0,0,0-.2.58,3.75,3.75,0,0,0-.05.68v.18a3.71,3.71,0,0,0,.05.67,2,2,0,0,0,.2.59,1.18,1.18,0,0,0,.39.41A1.24,1.24,0,0,0,261.43,176.1Z"/><path class="cls-1" d="M264.45,174.25v-.12a3.43,3.43,0,0,1,.17-1.13,2.79,2.79,0,0,1,.51-.91,2.27,2.27,0,0,1,.83-.6,2.56,2.56,0,0,1,1.09-.22,2.62,2.62,0,0,1,1.11.22,2.24,2.24,0,0,1,.82.6,2.64,2.64,0,0,1,.52.91,3.72,3.72,0,0,1,.17,1.13v.12a3.65,3.65,0,0,1-.17,1.12,2.64,2.64,0,0,1-.52.91,2.24,2.24,0,0,1-.82.6,2.86,2.86,0,0,1-2.2,0,2.24,2.24,0,0,1-.82-.6,2.64,2.64,0,0,1-.52-.91A3.37,3.37,0,0,1,264.45,174.25Zm1.25-.12v.12a2.71,2.71,0,0,0,.08.71,1.8,1.8,0,0,0,.24.6,1.18,1.18,0,0,0,.43.4,1.31,1.31,0,0,0,.61.14,1.28,1.28,0,0,0,.61-.14,1.24,1.24,0,0,0,.42-.4,1.81,1.81,0,0,0,.25-.6,3.22,3.22,0,0,0,.08-.71v-.12a3.22,3.22,0,0,0-.08-.71,1.9,1.9,0,0,0-.25-.6,1.1,1.1,0,0,0-.43-.4,1.17,1.17,0,0,0-.61-.15,1.2,1.2,0,0,0-.61.15,1.15,1.15,0,0,0-.42.4,1.89,1.89,0,0,0-.24.6A2.71,2.71,0,0,0,265.7,174.13Z"/><path class="cls-1" d="M272,172.57V177h-1.25v-5.62h1.18Zm-.22,1.41h-.41a3.72,3.72,0,0,1,.17-1.09A2.53,2.53,0,0,1,272,172a2.09,2.09,0,0,1,.7-.56,2.13,2.13,0,0,1,.92-.19,2.38,2.38,0,0,1,.73.11,1.54,1.54,0,0,1,.57.36,1.57,1.57,0,0,1,.36.65,3.35,3.35,0,0,1,.13,1V177h-1.26v-3.63a1.4,1.4,0,0,0-.12-.64.7.7,0,0,0-.34-.34,1.24,1.24,0,0,0-.54-.1,1.21,1.21,0,0,0-.58.13,1.39,1.39,0,0,0-.43.37,2,2,0,0,0-.27.54A2.34,2.34,0,0,0,271.74,174Z"/><path class="cls-1" d="M277.42,171.37l1.4,4.65.07,1h-.81l-2-5.62Zm1.05,4.63,1.38-4.63h1.3l-2,5.62h-.81Z"/><path class="cls-1" d="M284.33,177.1a2.87,2.87,0,0,1-1.12-.21,2.31,2.31,0,0,1-.86-.57,2.58,2.58,0,0,1-.53-.87,2.9,2.9,0,0,1-.19-1.07v-.21a3.51,3.51,0,0,1,.19-1.2,2.75,2.75,0,0,1,.54-.91,2.35,2.35,0,0,1,.81-.59,2.75,2.75,0,0,1,2.06,0,2.09,2.09,0,0,1,.76.57,2.74,2.74,0,0,1,.44.87,3.92,3.92,0,0,1,.15,1.11v.54h-4.34v-.9h3.1v-.1a1.65,1.65,0,0,0-.13-.63,1,1,0,0,0-.37-.48,1.13,1.13,0,0,0-.67-.18,1.12,1.12,0,0,0-.55.13,1.21,1.21,0,0,0-.4.38,2,2,0,0,0-.25.6,3.84,3.84,0,0,0-.08.79v.21a2.15,2.15,0,0,0,.1.68,1.72,1.72,0,0,0,.3.55,1.38,1.38,0,0,0,.47.36,1.47,1.47,0,0,0,.64.14,1.67,1.67,0,0,0,.81-.19,1.85,1.85,0,0,0,.61-.51l.66.64a2.76,2.76,0,0,1-.47.51,2.41,2.41,0,0,1-.71.39A2.86,2.86,0,0,1,284.33,177.1Z"/><path class="cls-1" d="M288.81,172.44V177h-1.25v-5.62h1.19Zm1.72-1.1v1.16l-.25,0H290a1.62,1.62,0,0,0-.57.09,1.15,1.15,0,0,0-.41.26,1.29,1.29,0,0,0-.25.41,1.78,1.78,0,0,0-.1.53l-.29,0a4.32,4.32,0,0,1,.11-1,2.66,2.66,0,0,1,.31-.79,1.61,1.61,0,0,1,.53-.54,1.38,1.38,0,0,1,.74-.19l.25,0A.72.72,0,0,1,290.53,171.34Z"/><path class="cls-1" d="M294.47,175.47a.67.67,0,0,0-.1-.34.87.87,0,0,0-.35-.28,4.06,4.06,0,0,0-.78-.22,7.12,7.12,0,0,1-.81-.24,2.28,2.28,0,0,1-.64-.34,1.38,1.38,0,0,1-.41-.46,1.28,1.28,0,0,1-.15-.63,1.47,1.47,0,0,1,.15-.65,1.87,1.87,0,0,1,.44-.54,2.09,2.09,0,0,1,.68-.36,2.83,2.83,0,0,1,.9-.14,2.78,2.78,0,0,1,1.21.24,1.78,1.78,0,0,1,.78.64,1.56,1.56,0,0,1,.27.9h-1.25a.88.88,0,0,0-.11-.42.85.85,0,0,0-.34-.31,1.16,1.16,0,0,0-.56-.13,1.19,1.19,0,0,0-.53.11.66.66,0,0,0-.41.61.49.49,0,0,0,.05.25.6.6,0,0,0,.18.21,2,2,0,0,0,.36.17,5.64,5.64,0,0,0,.57.15,5.41,5.41,0,0,1,1.11.34,1.74,1.74,0,0,1,.71.54,1.33,1.33,0,0,1,.25.84,1.45,1.45,0,0,1-.16.68,1.53,1.53,0,0,1-.46.53,2.2,2.2,0,0,1-.72.35,3,3,0,0,1-.93.13,2.87,2.87,0,0,1-1.3-.27,2.06,2.06,0,0,1-.8-.71,1.63,1.63,0,0,1-.27-.89h1.21a.94.94,0,0,0,.19.56,1,1,0,0,0,.44.29,1.61,1.61,0,0,0,.54.09,1.55,1.55,0,0,0,.57-.09.77.77,0,0,0,.35-.25A.56.56,0,0,0,294.47,175.47Z"/><path class="cls-1" d="M300.14,173.58v.77h-.9a2.22,2.22,0,0,0-.61.07,1.19,1.19,0,0,0-.44.18.88.88,0,0,0-.27.31.84.84,0,0,0-.09.4.77.77,0,0,0,.11.4.65.65,0,0,0,.3.29,1,1,0,0,0,.49.11,1.35,1.35,0,0,0,1.12-.55.9.9,0,0,0,.18-.44l.4.56a1.79,1.79,0,0,1-.21.45,2.37,2.37,0,0,1-.39.47,2.2,2.2,0,0,1-.58.36,2,2,0,0,1-.77.14,2.21,2.21,0,0,1-1-.22,1.8,1.8,0,0,1-.68-.6,1.56,1.56,0,0,1-.24-.85,1.85,1.85,0,0,1,.17-.8,1.54,1.54,0,0,1,.5-.58,2.51,2.51,0,0,1,.81-.35,4.43,4.43,0,0,1,1.09-.12Zm-.18,2.29v-2.68a1.17,1.17,0,0,0-.11-.52.83.83,0,0,0-.33-.34,1.16,1.16,0,0,0-.56-.12,1.43,1.43,0,0,0-.53.1,1,1,0,0,0-.34.28.66.66,0,0,0-.13.4h-1.25a1.36,1.36,0,0,1,.17-.64,1.72,1.72,0,0,1,.46-.56,2.35,2.35,0,0,1,.74-.38,3.11,3.11,0,0,1,.95-.14,2.88,2.88,0,0,1,1.13.21,1.86,1.86,0,0,1,.77.64,1.93,1.93,0,0,1,.28,1.08v2.5a3.51,3.51,0,0,0,.06.68,1.84,1.84,0,0,0,.16.53V177h-1.29a1.88,1.88,0,0,1-.13-.51A3.27,3.27,0,0,1,300,175.87Z"/><path class="cls-1" d="M304.82,176.1a1.23,1.23,0,0,0,.55-.12,1,1,0,0,0,.4-.34,1,1,0,0,0,.17-.51h1.18a1.77,1.77,0,0,1-.32,1,2.4,2.4,0,0,1-.83.71,2.52,2.52,0,0,1-1.14.26,2.76,2.76,0,0,1-1.12-.22,2.18,2.18,0,0,1-.79-.61,2.78,2.78,0,0,1-.48-.9,3.83,3.83,0,0,1-.16-1.09v-.18a3.9,3.9,0,0,1,.16-1.1,2.78,2.78,0,0,1,.48-.9,2.18,2.18,0,0,1,.79-.61,2.6,2.6,0,0,1,1.12-.22,2.48,2.48,0,0,1,1.18.27,2.07,2.07,0,0,1,.81.74,2.23,2.23,0,0,1,.3,1.1h-1.18a1.33,1.33,0,0,0-.15-.56,1,1,0,0,0-.39-.4,1.1,1.1,0,0,0-.59-.15,1.22,1.22,0,0,0-.63.15,1.13,1.13,0,0,0-.39.42,2.09,2.09,0,0,0-.2.58,3.75,3.75,0,0,0,0,.68v.18a3.71,3.71,0,0,0,0,.67,2,2,0,0,0,.2.59,1.18,1.18,0,0,0,.39.41A1.24,1.24,0,0,0,304.82,176.1Z"/><path class="cls-1" d="M308.08,169.9a.68.68,0,0,1,.18-.48.83.83,0,0,1,1.06,0,.69.69,0,0,1,.19.48.67.67,0,0,1-.19.47.87.87,0,0,1-1.06,0A.66.66,0,0,1,308.08,169.9Zm1.34,1.47V177h-1.26v-5.62Z"/><path class="cls-1" d="M310.55,174.25v-.12a3.72,3.72,0,0,1,.17-1.13,2.64,2.64,0,0,1,.52-.91,2.16,2.16,0,0,1,.82-.6,2.86,2.86,0,0,1,2.2,0,2.24,2.24,0,0,1,.82.6,2.64,2.64,0,0,1,.52.91,3.72,3.72,0,0,1,.17,1.13v.12a3.65,3.65,0,0,1-.17,1.12,2.64,2.64,0,0,1-.52.91,2.24,2.24,0,0,1-.82.6,2.56,2.56,0,0,1-1.09.22,2.62,2.62,0,0,1-1.11-.22,2.24,2.24,0,0,1-.82-.6,2.64,2.64,0,0,1-.52-.91A3.65,3.65,0,0,1,310.55,174.25Zm1.25-.12v.12a3.22,3.22,0,0,0,.08.71,1.8,1.8,0,0,0,.24.6,1.18,1.18,0,0,0,.43.4,1.32,1.32,0,0,0,.62.14,1.27,1.27,0,0,0,.6-.14,1.24,1.24,0,0,0,.42-.4,1.62,1.62,0,0,0,.25-.6,3.22,3.22,0,0,0,.08-.71v-.12a3.22,3.22,0,0,0-.08-.71,1.9,1.9,0,0,0-.25-.6,1.15,1.15,0,0,0-.42-.4,1.34,1.34,0,0,0-1.23,0,1.15,1.15,0,0,0-.42.4,1.89,1.89,0,0,0-.24.6A3.22,3.22,0,0,0,311.8,174.13Zm.7-3.55,1-1.56h1.42l-1.42,1.56Z"/><path class="cls-1" d="M318.06,172.57V177h-1.25v-5.62H318Zm-.22,1.41h-.4a3.72,3.72,0,0,1,.16-1.09,2.71,2.71,0,0,1,.46-.86,2,2,0,0,1,.71-.56,2.06,2.06,0,0,1,.91-.19,2.38,2.38,0,0,1,.73.11,1.54,1.54,0,0,1,.57.36,1.57,1.57,0,0,1,.36.65,3.35,3.35,0,0,1,.13,1V177h-1.26v-3.63a1.4,1.4,0,0,0-.12-.64.7.7,0,0,0-.34-.34,1.43,1.43,0,0,0-1.12,0,1.39,1.39,0,0,0-.43.37,2.27,2.27,0,0,0-.27.54A2.34,2.34,0,0,0,317.84,174Z"/><path class="cls-1" d="M37.48,46.26H34.27V44.57h3.21a2.89,2.89,0,0,0,1.35-.27,1.67,1.67,0,0,0,.76-.75,2.39,2.39,0,0,0,.24-1.09,2.56,2.56,0,0,0-.24-1.1,1.89,1.89,0,0,0-.76-.83,2.55,2.55,0,0,0-1.35-.31H34.92V50.86H32.79V38.52h4.69a5.32,5.32,0,0,1,2.43.51,3.63,3.63,0,0,1,1.53,1.39,3.88,3.88,0,0,1,.53,2,3.84,3.84,0,0,1-.53,2.05,3.35,3.35,0,0,1-1.53,1.31A5.76,5.76,0,0,1,37.48,46.26Z"/><path class="cls-1" d="M43.86,38.52h4.37a6.11,6.11,0,0,1,2.39.43,3.28,3.28,0,0,1,1.53,1.25,3.73,3.73,0,0,1,.52,2,3.78,3.78,0,0,1-.33,1.62,3.34,3.34,0,0,1-1,1.18,4.68,4.68,0,0,1-1.48.75l-.64.31H45.34l0-1.69h2.94a2.68,2.68,0,0,0,1.27-.27,1.84,1.84,0,0,0,.77-.74,2.19,2.19,0,0,0,.26-1.06,2.51,2.51,0,0,0-.25-1.13,1.76,1.76,0,0,0-.77-.73,2.94,2.94,0,0,0-1.31-.26H46V50.86H43.86Zm7,12.34L48,45.32h2.22l2.94,5.44v.11Z"/><path class="cls-1" d="M64.62,44.35V45a8.13,8.13,0,0,1-.36,2.51,5.56,5.56,0,0,1-1,1.89,4.55,4.55,0,0,1-1.62,1.19,5.46,5.46,0,0,1-4.15,0,4.55,4.55,0,0,1-1.62-1.19,5.45,5.45,0,0,1-1.07-1.89A7.84,7.84,0,0,1,54.39,45v-.68a7.77,7.77,0,0,1,.37-2.5A5.58,5.58,0,0,1,55.81,40a4.6,4.6,0,0,1,1.62-1.19,5.48,5.48,0,0,1,4.16,0A4.48,4.48,0,0,1,63.2,40a5.26,5.26,0,0,1,1,1.89A7.77,7.77,0,0,1,64.62,44.35ZM62.49,45v-.69a7.22,7.22,0,0,0-.2-1.83,3.77,3.77,0,0,0-.58-1.33,2.46,2.46,0,0,0-1-.81,2.72,2.72,0,0,0-1.26-.28,2.68,2.68,0,0,0-1.25.28,2.5,2.5,0,0,0-.94.81,4.18,4.18,0,0,0-.59,1.33,7.71,7.71,0,0,0-.2,1.83V45a7.71,7.71,0,0,0,.2,1.83,4,4,0,0,0,.6,1.34,2.59,2.59,0,0,0,1,.83,2.77,2.77,0,0,0,1.25.27A2.84,2.84,0,0,0,60.78,49a2.46,2.46,0,0,0,.93-.83,3.83,3.83,0,0,0,.58-1.34A7.22,7.22,0,0,0,62.49,45Z"/><path class="cls-1" d="M75.45,38.52v1.7H65.64v-1.7Zm-3.87,0V50.86H69.47V38.52Z"/><path class="cls-1" d="M86.68,44.35V45a7.84,7.84,0,0,1-.37,2.51,5.38,5.38,0,0,1-1,1.89,4.55,4.55,0,0,1-1.62,1.19,5.46,5.46,0,0,1-4.15,0,4.55,4.55,0,0,1-1.62-1.19,5.45,5.45,0,0,1-1.07-1.89A7.84,7.84,0,0,1,76.45,45v-.68a7.77,7.77,0,0,1,.37-2.5A5.58,5.58,0,0,1,77.87,40a4.6,4.6,0,0,1,1.62-1.19,5,5,0,0,1,2.07-.41,5.1,5.1,0,0,1,2.09.41A4.48,4.48,0,0,1,85.26,40a5.41,5.41,0,0,1,1,1.89A7.77,7.77,0,0,1,86.68,44.35ZM84.55,45v-.69a7.22,7.22,0,0,0-.2-1.83,3.77,3.77,0,0,0-.58-1.33,2.46,2.46,0,0,0-1-.81,2.72,2.72,0,0,0-1.26-.28,2.68,2.68,0,0,0-1.25.28,2.5,2.5,0,0,0-.94.81,4.18,4.18,0,0,0-.59,1.33,7.71,7.71,0,0,0-.2,1.83V45a7.71,7.71,0,0,0,.2,1.83,4,4,0,0,0,.6,1.34,2.59,2.59,0,0,0,1,.83,2.77,2.77,0,0,0,1.25.27A2.84,2.84,0,0,0,82.84,49a2.46,2.46,0,0,0,.93-.83,3.83,3.83,0,0,0,.58-1.34A7.22,7.22,0,0,0,84.55,45Z"/><path class="cls-1" d="M96.08,46.84H98.2A4.82,4.82,0,0,1,97.52,49a4,4,0,0,1-1.62,1.49,5.41,5.41,0,0,1-2.53.54,5.05,5.05,0,0,1-2.06-.41,4.52,4.52,0,0,1-1.56-1.17,5.18,5.18,0,0,1-1-1.84,7.77,7.77,0,0,1-.34-2.4v-1a7.56,7.56,0,0,1,.35-2.4,5.2,5.2,0,0,1,1-1.84,4.3,4.3,0,0,1,1.59-1.18,5.16,5.16,0,0,1,2.09-.4,5.27,5.27,0,0,1,2.49.54,3.94,3.94,0,0,1,1.58,1.5,5.53,5.53,0,0,1,.69,2.19H96.09a4,4,0,0,0-.37-1.36,2,2,0,0,0-.83-.87,3,3,0,0,0-1.44-.3,2.8,2.8,0,0,0-1.27.27,2.4,2.4,0,0,0-.91.8,4,4,0,0,0-.55,1.29,7.66,7.66,0,0,0-.18,1.75v1a8,8,0,0,0,.17,1.69,4,4,0,0,0,.51,1.3,2.41,2.41,0,0,0,.87.84,2.58,2.58,0,0,0,1.28.29,3.24,3.24,0,0,0,1.47-.28,2,2,0,0,0,.86-.85A3.9,3.9,0,0,0,96.08,46.84Z"/><path class="cls-1" d="M110,44.35V45a7.84,7.84,0,0,1-.37,2.51,5.54,5.54,0,0,1-1,1.89,4.55,4.55,0,0,1-1.62,1.19,5.46,5.46,0,0,1-4.15,0,4.67,4.67,0,0,1-1.63-1.19,5.6,5.6,0,0,1-1.06-1.89A7.83,7.83,0,0,1,99.72,45v-.68a7.77,7.77,0,0,1,.38-2.5A5.58,5.58,0,0,1,101.15,40a4.6,4.6,0,0,1,1.62-1.19,5,5,0,0,1,2.07-.41,5.1,5.1,0,0,1,2.09.41A4.48,4.48,0,0,1,108.54,40a5.41,5.41,0,0,1,1,1.89A7.77,7.77,0,0,1,110,44.35Zm-2.13.68v-.69a7.22,7.22,0,0,0-.2-1.83,4,4,0,0,0-.58-1.33,2.46,2.46,0,0,0-1-.81,2.72,2.72,0,0,0-1.26-.28,2.65,2.65,0,0,0-1.25.28,2.5,2.5,0,0,0-.94.81,4,4,0,0,0-.59,1.33,7.71,7.71,0,0,0-.2,1.83V45a7.71,7.71,0,0,0,.2,1.83,4,4,0,0,0,.6,1.34,2.64,2.64,0,0,0,.94.83,3.08,3.08,0,0,0,2.52,0,2.46,2.46,0,0,0,.93-.83,3.83,3.83,0,0,0,.58-1.34A7.22,7.22,0,0,0,107.83,45Z"/><path class="cls-1" d="M114.2,38.52V50.86h-2.12V38.52Zm5.6,10.65v1.69h-6.19V49.17Z"/><path class="cls-1" d="M130.73,44.35V45a8.13,8.13,0,0,1-.36,2.51,5.56,5.56,0,0,1-1,1.89,4.55,4.55,0,0,1-1.62,1.19,5.46,5.46,0,0,1-4.15,0,4.55,4.55,0,0,1-1.62-1.19,5.45,5.45,0,0,1-1.07-1.89A7.84,7.84,0,0,1,120.5,45v-.68a7.77,7.77,0,0,1,.37-2.5,5.58,5.58,0,0,1,1-1.89,4.6,4.6,0,0,1,1.62-1.19,5.48,5.48,0,0,1,4.16,0A4.6,4.6,0,0,1,129.32,40a5.4,5.4,0,0,1,1,1.89A7.77,7.77,0,0,1,130.73,44.35ZM128.6,45v-.69a7.22,7.22,0,0,0-.2-1.83,3.77,3.77,0,0,0-.58-1.33,2.5,2.5,0,0,0-.94-.81,2.79,2.79,0,0,0-1.27-.28,2.68,2.68,0,0,0-1.25.28,2.5,2.5,0,0,0-.94.81,4.18,4.18,0,0,0-.59,1.33,7.71,7.71,0,0,0-.2,1.83V45a7.71,7.71,0,0,0,.2,1.83,4,4,0,0,0,.6,1.34,2.59,2.59,0,0,0,.95.83,2.77,2.77,0,0,0,1.25.27,2.81,2.81,0,0,0,1.26-.27,2.46,2.46,0,0,0,.93-.83,3.83,3.83,0,0,0,.58-1.34A7.22,7.22,0,0,0,128.6,45Z"/><path class="cls-1" d="M141.84,46.26h-3.21V44.57h3.21a2.93,2.93,0,0,0,1.36-.27,1.72,1.72,0,0,0,.76-.75,2.39,2.39,0,0,0,.24-1.09,2.56,2.56,0,0,0-.24-1.1,2,2,0,0,0-.76-.83,2.58,2.58,0,0,0-1.36-.31h-2.55V50.86h-2.13V38.52h4.68a5.33,5.33,0,0,1,2.44.51,3.63,3.63,0,0,1,1.53,1.39,3.87,3.87,0,0,1,.52,2,3.83,3.83,0,0,1-.52,2.05,3.35,3.35,0,0,1-1.53,1.31A5.78,5.78,0,0,1,141.84,46.26Z"/><path class="cls-1" d="M151.87,40.17l-3.69,10.69H146l4.65-12.34H152Zm2.9,6.11V48h-6.71V46.28Zm.18,4.58-3.69-10.69-.17-1.65h1.44l4.66,12.34Z"/><path class="cls-1" d="M158.57,38.52h4.36a6.13,6.13,0,0,1,2.4.43,3.31,3.31,0,0,1,1.52,1.25,3.73,3.73,0,0,1,.53,2,3.78,3.78,0,0,1-.34,1.62,3.34,3.34,0,0,1-1,1.18,4.63,4.63,0,0,1-1.47.75l-.65.31H160l0-1.69H163a2.66,2.66,0,0,0,1.27-.27,1.84,1.84,0,0,0,.77-.74,2.19,2.19,0,0,0,.26-1.06,2.38,2.38,0,0,0-.25-1.13,1.71,1.71,0,0,0-.77-.73,2.94,2.94,0,0,0-1.31-.26h-2.24V50.86h-2.12Zm7,12.34-2.9-5.54h2.23l2.94,5.44v.11Z"/><path class="cls-1" d="M174.29,40.17,170.6,50.86h-2.22L173,38.52h1.42Zm2.91,6.11V48h-6.71V46.28Zm.17,4.58-3.69-10.69-.16-1.65H175l4.66,12.34Z"/><path class="cls-1" d="M190,46.26h-3.21V44.57H190a2.89,2.89,0,0,0,1.35-.27,1.67,1.67,0,0,0,.76-.75,2.39,2.39,0,0,0,.24-1.09,2.56,2.56,0,0,0-.24-1.1,1.89,1.89,0,0,0-.76-.83,2.55,2.55,0,0,0-1.35-.31h-2.56V50.86H185.3V38.52H190a5.32,5.32,0,0,1,2.43.51A3.63,3.63,0,0,1,194,40.42a3.88,3.88,0,0,1,.53,2,3.84,3.84,0,0,1-.53,2.05,3.35,3.35,0,0,1-1.53,1.31A5.76,5.76,0,0,1,190,46.26Z"/><path class="cls-1" d="M196.37,38.52h4.37a6.11,6.11,0,0,1,2.39.43,3.28,3.28,0,0,1,1.53,1.25,3.73,3.73,0,0,1,.52,2,3.78,3.78,0,0,1-.33,1.62,3.34,3.34,0,0,1-1,1.18,4.68,4.68,0,0,1-1.48.75l-.64.31h-3.92l0-1.69h2.94a2.68,2.68,0,0,0,1.27-.27,1.84,1.84,0,0,0,.77-.74,2.19,2.19,0,0,0,.26-1.06,2.51,2.51,0,0,0-.25-1.13,1.76,1.76,0,0,0-.77-.73,2.94,2.94,0,0,0-1.31-.26H198.5V50.86h-2.13Zm7,12.34-2.89-5.54h2.22l2.94,5.44v.11Z"/><path class="cls-1" d="M209.42,38.52V50.86h-2.13V38.52Zm5.9,0v1.7h-6.5v-1.7Zm-.81,5.16v1.66h-5.69V43.68Zm.86,5.49v1.69h-6.55V49.17Z"/><path class="cls-1" d="M226.57,44.56v4.71a4.14,4.14,0,0,1-.82.75,5,5,0,0,1-1.47.71A7.41,7.41,0,0,1,222,51a5.5,5.5,0,0,1-2.13-.4,4.55,4.55,0,0,1-1.66-1.15,5.18,5.18,0,0,1-1.08-1.86,7.46,7.46,0,0,1-.38-2.5v-.86a8.27,8.27,0,0,1,.35-2.49,5,5,0,0,1,1-1.86,4.21,4.21,0,0,1,1.6-1.16,6.27,6.27,0,0,1,4.63.11,3.72,3.72,0,0,1,1.54,1.39,5.19,5.19,0,0,1,.69,2h-2.09a3.53,3.53,0,0,0-.39-1.16,2.2,2.2,0,0,0-.83-.8,3,3,0,0,0-1.4-.29,2.79,2.79,0,0,0-1.29.28,2.52,2.52,0,0,0-.93.82,4,4,0,0,0-.55,1.32,7.42,7.42,0,0,0-.19,1.78v.88a6.62,6.62,0,0,0,.22,1.8,3.81,3.81,0,0,0,.62,1.33,2.76,2.76,0,0,0,1,.82,3.16,3.16,0,0,0,1.33.27,4.93,4.93,0,0,0,1.2-.12,2.47,2.47,0,0,0,.74-.3,2,2,0,0,0,.43-.33V46.14h-2.57V44.56Z"/><path class="cls-1" d="M235.83,38.52H238v8.25a4.21,4.21,0,0,1-.61,2.35,3.76,3.76,0,0,1-1.65,1.43,6,6,0,0,1-4.71,0,3.74,3.74,0,0,1-1.64-1.43,4.29,4.29,0,0,1-.6-2.35V38.52h2.12v8.25a3,3,0,0,0,.31,1.46,1.89,1.89,0,0,0,.86.84,3.36,3.36,0,0,0,2.64,0,1.89,1.89,0,0,0,.86-.84,3.13,3.13,0,0,0,.3-1.46Z"/><path class="cls-1" d="M250.05,38.52V50.86h-2.13L242.39,42v8.84h-2.13V38.52h2.13l5.55,8.86V38.52Z"/><path class="cls-1" d="M261.27,38.52v1.7h-9.81v-1.7Zm-3.87,0V50.86h-2.11V38.52Z"/><path class="cls-1" d="M267,40.17l-3.68,10.69h-2.23l4.64-12.34h1.43Zm2.91,6.11V48h-6.71V46.28Zm.18,4.58-3.7-10.69-.16-1.65h1.43l4.66,12.34Z"/><path class="cls-1" d="M280.22,47.68a1.83,1.83,0,0,0-.11-.68,1.52,1.52,0,0,0-.4-.54,3.59,3.59,0,0,0-.81-.48,12.21,12.21,0,0,0-1.33-.47A15.77,15.77,0,0,1,276,44.9a5.82,5.82,0,0,1-1.29-.78,3.44,3.44,0,0,1-.86-1,2.92,2.92,0,0,1-.3-1.35,2.85,2.85,0,0,1,.32-1.37,3.16,3.16,0,0,1,.9-1.07,4.28,4.28,0,0,1,1.4-.7,5.78,5.78,0,0,1,1.77-.25,5.12,5.12,0,0,1,2.37.5,3.82,3.82,0,0,1,1.54,1.37,3.55,3.55,0,0,1,.53,1.89h-2.11A2.21,2.21,0,0,0,280,41a1.86,1.86,0,0,0-.78-.74,2.75,2.75,0,0,0-1.32-.28,3,3,0,0,0-1.25.23,1.59,1.59,0,0,0-1,1.5,1.34,1.34,0,0,0,.16.63,1.77,1.77,0,0,0,.5.53,4,4,0,0,0,.83.45,10.39,10.39,0,0,0,1.17.41,12.08,12.08,0,0,1,1.79.67,5.39,5.39,0,0,1,1.27.84,2.94,2.94,0,0,1,.76,1,3.34,3.34,0,0,1,.26,1.34,3.2,3.2,0,0,1-.31,1.4,3,3,0,0,1-.9,1.06,4.38,4.38,0,0,1-1.39.67A6.71,6.71,0,0,1,278,51a6.54,6.54,0,0,1-1.75-.24,5.29,5.29,0,0,1-1.56-.72,3.73,3.73,0,0,1-1.12-1.22,3.4,3.4,0,0,1-.41-1.72h2.12a2.34,2.34,0,0,0,.21,1,1.85,1.85,0,0,0,.58.69,2.47,2.47,0,0,0,.87.39,4,4,0,0,0,1.06.13,3.23,3.23,0,0,0,1.25-.21,1.6,1.6,0,0,0,.76-.6A1.52,1.52,0,0,0,280.22,47.68Z"/><path class="cls-1" d="M290.68,38.52V50.86h-2.13V38.52Zm1.45,12.34H289.5l0-1.69h2.61a3.39,3.39,0,0,0,1.92-.5,3,3,0,0,0,1.17-1.43,5.54,5.54,0,0,0,.4-2.22v-.67a6.38,6.38,0,0,0-.23-1.77,3.57,3.57,0,0,0-.66-1.29,2.82,2.82,0,0,0-1.07-.8,3.64,3.64,0,0,0-1.45-.27h-2.76v-1.7h2.76a5.85,5.85,0,0,1,2.25.42,4.88,4.88,0,0,1,1.75,1.18A5.11,5.11,0,0,1,297.35,42a6.81,6.81,0,0,1,.4,2.41V45a6.81,6.81,0,0,1-.4,2.41,5,5,0,0,1-1.14,1.84,5.18,5.18,0,0,1-1.78,1.18A6.2,6.2,0,0,1,292.13,50.86Z"/><path class="cls-1" d="M302.15,38.52V50.86H300V38.52Z"/><path class="cls-1" d="M306.92,38.52V50.86h-2.13V38.52Zm5.73,0v1.7h-6.28v-1.7Zm-.7,5.4v1.69h-5.58V43.92Z"/><path class="cls-1" d="M316.62,38.52V50.86h-2.13V38.52Z"/><path class="cls-1" d="M326.55,46.84h2.11A4.81,4.81,0,0,1,328,49a4.09,4.09,0,0,1-1.62,1.49,5.48,5.48,0,0,1-2.54.54,5,5,0,0,1-2.05-.41,4.55,4.55,0,0,1-1.57-1.17,5.18,5.18,0,0,1-1-1.84,7.77,7.77,0,0,1-.34-2.4v-1a7.86,7.86,0,0,1,.35-2.4,5.36,5.36,0,0,1,1-1.84,4.3,4.3,0,0,1,1.59-1.18,5.19,5.19,0,0,1,2.09-.4,5.27,5.27,0,0,1,2.49.54A3.88,3.88,0,0,1,328,40.4a5.23,5.23,0,0,1,.69,2.19h-2.12a4,4,0,0,0-.36-1.36,2,2,0,0,0-.84-.87,3,3,0,0,0-1.44-.3,2.8,2.8,0,0,0-1.27.27,2.48,2.48,0,0,0-.91.8,3.8,3.8,0,0,0-.54,1.29,7.66,7.66,0,0,0-.18,1.75v1a8,8,0,0,0,.16,1.69,4,4,0,0,0,.51,1.3,2.44,2.44,0,0,0,.88.84,2.54,2.54,0,0,0,1.27.29,3.24,3.24,0,0,0,1.47-.28,2,2,0,0,0,.86-.85A4.12,4.12,0,0,0,326.55,46.84Z"/><path class="cls-1" d="M332.86,38.52V50.86h-2.13V38.52Z"/><path class="cls-1" d="M337.63,38.52V50.86H335.5V38.52Zm5.6,10.65v1.69H337V49.17Z"/><path class="cls-1" d="M347,38.52V50.86h-2.13V38.52Zm5.9,0v1.7h-6.51v-1.7Zm-.81,5.16v1.66h-5.7V43.68Zm.85,5.49v1.69h-6.55V49.17Z"/><path class="cls-1" d="M361.16,47.68A1.83,1.83,0,0,0,361,47a1.4,1.4,0,0,0-.4-.54,3.59,3.59,0,0,0-.81-.48,12,12,0,0,0-1.32-.47,15.77,15.77,0,0,1-1.62-.61,5.67,5.67,0,0,1-1.3-.78,3.41,3.41,0,0,1-.85-1,2.8,2.8,0,0,1-.31-1.35,3,3,0,0,1,.32-1.37,3.08,3.08,0,0,1,.91-1.07,4.23,4.23,0,0,1,1.39-.7,5.89,5.89,0,0,1,1.78-.25,5.18,5.18,0,0,1,2.37.5,3.85,3.85,0,0,1,1.53,1.37,3.47,3.47,0,0,1,.54,1.89h-2.11A2.21,2.21,0,0,0,360.9,41a1.75,1.75,0,0,0-.78-.74A2.75,2.75,0,0,0,358.8,40a3,3,0,0,0-1.25.23,1.79,1.79,0,0,0-.75.62,1.66,1.66,0,0,0-.24.88,1.23,1.23,0,0,0,.16.63,1.73,1.73,0,0,0,.49.53,4.24,4.24,0,0,0,.83.45,10.62,10.62,0,0,0,1.18.41,12.52,12.52,0,0,1,1.79.67,5.6,5.6,0,0,1,1.27.84,3.07,3.07,0,0,1,.76,1,3.34,3.34,0,0,1,.25,1.34,3.06,3.06,0,0,1-.31,1.4,3.12,3.12,0,0,1-.89,1.06,4.38,4.38,0,0,1-1.39.67,6.71,6.71,0,0,1-1.8.23,6.43,6.43,0,0,1-1.75-.24,5.07,5.07,0,0,1-1.56-.72,3.63,3.63,0,0,1-1.12-1.22,3.4,3.4,0,0,1-.42-1.72h2.13a2.34,2.34,0,0,0,.21,1,1.76,1.76,0,0,0,.58.69,2.34,2.34,0,0,0,.86.39,4.08,4.08,0,0,0,1.07.13,3.3,3.3,0,0,0,1.25-.21,1.57,1.57,0,0,0,.75-.6A1.52,1.52,0,0,0,361.16,47.68Z"/><path class="cls-1" d="M259.24,129.62h2.67a3.75,3.75,0,0,1,1.47.26,1.93,1.93,0,0,1,.93.77,2.2,2.2,0,0,1,.33,1.24,2.26,2.26,0,0,1-.21,1,2,2,0,0,1-.59.73,2.92,2.92,0,0,1-.9.45l-.39.19h-2.41v-1h1.8a1.67,1.67,0,0,0,.78-.17,1.08,1.08,0,0,0,.47-.45,1.28,1.28,0,0,0,.16-.65,1.47,1.47,0,0,0-.15-.69,1,1,0,0,0-.47-.45,1.74,1.74,0,0,0-.81-.16h-1.37v6.52h-1.3Zm4.31,7.56-1.77-3.39h1.36l1.8,3.34v.06Z"/><path class="cls-1" d="M268.29,137.29a2.88,2.88,0,0,1-1.13-.21,2.54,2.54,0,0,1-.85-.57,2.6,2.6,0,0,1-.54-.87,3.14,3.14,0,0,1-.19-1.08v-.2a3.51,3.51,0,0,1,.2-1.2,2.57,2.57,0,0,1,.53-.91,2.35,2.35,0,0,1,.81-.59,2.6,2.6,0,0,1,1-.2,2.64,2.64,0,0,1,1.06.2,2.14,2.14,0,0,1,.75.57,2.4,2.4,0,0,1,.45.87,4.32,4.32,0,0,1,.14,1.11v.54h-4.34v-.9h3.11v-.1a1.81,1.81,0,0,0-.13-.63,1.13,1.13,0,0,0-.38-.48,1.08,1.08,0,0,0-.66-.18,1.09,1.09,0,0,0-.55.13,1.07,1.07,0,0,0-.41.38,2,2,0,0,0-.24.6,3.18,3.18,0,0,0-.09.79v.2a2.17,2.17,0,0,0,.1.69,1.72,1.72,0,0,0,.3.55,1.44,1.44,0,0,0,.48.36,1.47,1.47,0,0,0,.64.13,1.71,1.71,0,0,0,.8-.18,1.88,1.88,0,0,0,.62-.51l.66.64a2.79,2.79,0,0,1-.48.5,2.12,2.12,0,0,1-.71.4A2.8,2.8,0,0,1,268.29,137.29Z"/><path class="cls-1" d="M273.8,136.29a1.2,1.2,0,0,0,.55-.12,1,1,0,0,0,.4-.34.92.92,0,0,0,.17-.51h1.18a1.7,1.7,0,0,1-.32,1,2.19,2.19,0,0,1-.83.7,2.39,2.39,0,0,1-1.13.27,2.73,2.73,0,0,1-1.12-.22,2.22,2.22,0,0,1-.8-.61,2.58,2.58,0,0,1-.47-.9,3.55,3.55,0,0,1-.16-1.09v-.19a3.55,3.55,0,0,1,.16-1.09,2.58,2.58,0,0,1,.47-.9,2.22,2.22,0,0,1,.8-.61,2.56,2.56,0,0,1,1.11-.22,2.52,2.52,0,0,1,1.19.27,2,2,0,0,1,.8.74,2.1,2.1,0,0,1,.3,1.1h-1.18a1.33,1.33,0,0,0-.15-.56,1,1,0,0,0-.38-.4,1.15,1.15,0,0,0-.59-.15,1.18,1.18,0,0,0-.63.15,1,1,0,0,0-.39.41,2,2,0,0,0-.2.59,3.71,3.71,0,0,0-.06.67v.19a3.71,3.71,0,0,0,.06.67,1.65,1.65,0,0,0,.2.59,1.09,1.09,0,0,0,.39.41A1.2,1.2,0,0,0,273.8,136.29Z"/><path class="cls-1" d="M279.64,131.56v.92h-3.17v-.92Zm-2.26-1.37h1.25v5.44a.86.86,0,0,0,.08.4.37.37,0,0,0,.21.18,1,1,0,0,0,.32,0l.24,0,.2,0v1a2.45,2.45,0,0,1-.36.08,3.17,3.17,0,0,1-.47,0,1.67,1.67,0,0,1-.76-.16,1.09,1.09,0,0,1-.52-.5,1.88,1.88,0,0,1-.19-.92Z"/><path class="cls-1" d="M280.6,130.09a.65.65,0,0,1,.19-.48.74.74,0,0,1,.53-.19.74.74,0,0,1,.52.19.66.66,0,0,1,.2.48.61.61,0,0,1-.2.46.69.69,0,0,1-.52.19.7.7,0,0,1-.53-.19A.6.6,0,0,1,280.6,130.09Zm1.34,1.47v5.62h-1.26v-5.62Z"/><path class="cls-1" d="M286.16,131.56v.92h-3.27v-.92ZM285,137.18h-1.26V131A2.09,2.09,0,0,1,284,130a1.48,1.48,0,0,1,.68-.65,2.74,2.74,0,0,1,1.41-.2,2,2,0,0,1,.35.07l0,1-.22,0h-.26a1.09,1.09,0,0,0-.5.1.84.84,0,0,0-.31.31,1.12,1.12,0,0,0-.1.5Z"/><path class="cls-1" d="M287.07,130.09a.65.65,0,0,1,.19-.48.73.73,0,0,1,.53-.19.74.74,0,0,1,.52.19.65.65,0,0,1,.19.48.6.6,0,0,1-.19.46.82.82,0,0,1-1.05,0A.6.6,0,0,1,287.07,130.09Zm1.34,1.47v5.62h-1.26v-5.62Z"/><path class="cls-1" d="M292.08,136.29a1.26,1.26,0,0,0,.55-.12,1.1,1.1,0,0,0,.4-.34,1,1,0,0,0,.17-.51h1.18a1.85,1.85,0,0,1-.32,1,2.27,2.27,0,0,1-.83.7,2.4,2.4,0,0,1-1.14.27,2.76,2.76,0,0,1-1.12-.22,2.31,2.31,0,0,1-.8-.61,2.76,2.76,0,0,1-.47-.9,3.55,3.55,0,0,1-.16-1.09v-.19a3.55,3.55,0,0,1,.16-1.09,2.76,2.76,0,0,1,.47-.9,2.31,2.31,0,0,1,.8-.61,2.6,2.6,0,0,1,1.12-.22,2.48,2.48,0,0,1,1.18.27,1.91,1.91,0,0,1,.8.74,2.11,2.11,0,0,1,.31,1.1H293.2A1.21,1.21,0,0,0,293,133a1,1,0,0,0-.38-.4,1.1,1.1,0,0,0-.59-.15,1.22,1.22,0,0,0-.63.15,1.18,1.18,0,0,0-.39.41,2.28,2.28,0,0,0-.2.59,3.71,3.71,0,0,0-.06.67v.19a3.71,3.71,0,0,0,.06.67,1.87,1.87,0,0,0,.2.59,1.27,1.27,0,0,0,.39.41A1.24,1.24,0,0,0,292.08,136.29Z"/><path class="cls-1" d="M298.68,133.77v.77h-.89a2.83,2.83,0,0,0-.62.06,1.62,1.62,0,0,0-.44.19.81.81,0,0,0-.26.3.91.91,0,0,0-.09.41.79.79,0,0,0,.1.4.67.67,0,0,0,.31.29,1,1,0,0,0,.48.1,1.41,1.41,0,0,0,.67-.15,1.38,1.38,0,0,0,.46-.39.79.79,0,0,0,.17-.44l.41.55a1.7,1.7,0,0,1-.21.46,2.13,2.13,0,0,1-.4.47,2.31,2.31,0,0,1-.57.36,2.07,2.07,0,0,1-.77.14,2.18,2.18,0,0,1-1-.22,1.73,1.73,0,0,1-.68-.6,1.57,1.57,0,0,1-.24-.86,1.83,1.83,0,0,1,.16-.79,1.63,1.63,0,0,1,.5-.58,2.51,2.51,0,0,1,.81-.35,4.49,4.49,0,0,1,1.09-.12Zm-.18,2.29v-2.68a1,1,0,0,0-.11-.52.72.72,0,0,0-.33-.34,1.12,1.12,0,0,0-.55-.12,1.25,1.25,0,0,0-.53.1.91.91,0,0,0-.35.28.7.7,0,0,0-.12.4h-1.25a1.35,1.35,0,0,1,.16-.64,1.76,1.76,0,0,1,.47-.56,2.3,2.3,0,0,1,.73-.38,3.18,3.18,0,0,1,1-.14,2.83,2.83,0,0,1,1.12.21,1.76,1.76,0,0,1,.78.64,2,2,0,0,1,.28,1.08v2.49a4.65,4.65,0,0,0,.05.69,2.22,2.22,0,0,0,.16.53v.08h-1.28a1.85,1.85,0,0,1-.14-.51A4.42,4.42,0,0,1,298.5,136.06Z"/><path class="cls-1" d="M302.32,132.63v4.55h-1.25v-5.62h1.2Zm1.72-1.1v1.16l-.24,0h-.27a1.6,1.6,0,0,0-.56.09,1.15,1.15,0,0,0-.41.26,1.13,1.13,0,0,0-.25.41,2.07,2.07,0,0,0-.11.53l-.28,0a4.34,4.34,0,0,1,.1-1,2.56,2.56,0,0,1,.32-.79,1.52,1.52,0,0,1,.53-.54,1.38,1.38,0,0,1,.74-.19l.24,0A.64.64,0,0,1,304,131.53Z"/><path class="cls-1" d="M309.77,136.29a1.23,1.23,0,0,0,.55-.12,1,1,0,0,0,.4-.34,1,1,0,0,0,.17-.51h1.18a1.77,1.77,0,0,1-.32,1,2.27,2.27,0,0,1-.83.7,2.4,2.4,0,0,1-1.14.27,2.76,2.76,0,0,1-1.12-.22,2.18,2.18,0,0,1-.79-.61,2.78,2.78,0,0,1-.48-.9,3.88,3.88,0,0,1-.16-1.09v-.19a3.88,3.88,0,0,1,.16-1.09,2.78,2.78,0,0,1,.48-.9,2.18,2.18,0,0,1,.79-.61,2.6,2.6,0,0,1,1.12-.22,2.48,2.48,0,0,1,1.18.27,2,2,0,0,1,.81.74,2.2,2.2,0,0,1,.3,1.1h-1.18a1.33,1.33,0,0,0-.15-.56,1,1,0,0,0-.39-.4,1.1,1.1,0,0,0-.59-.15,1.22,1.22,0,0,0-.63.15,1.07,1.07,0,0,0-.38.41,2,2,0,0,0-.2.59,3.71,3.71,0,0,0-.06.67v.19a3.71,3.71,0,0,0,.05.67,2.16,2.16,0,0,0,.2.59,1.27,1.27,0,0,0,.39.41A1.24,1.24,0,0,0,309.77,136.29Z"/><path class="cls-1" d="M312.79,134.43v-.11a3.67,3.67,0,0,1,.17-1.13,2.55,2.55,0,0,1,.52-.91,2.29,2.29,0,0,1,.82-.61,2.72,2.72,0,0,1,1.09-.21,2.78,2.78,0,0,1,1.11.21,2.38,2.38,0,0,1,.82.61,2.55,2.55,0,0,1,.52.91,3.67,3.67,0,0,1,.17,1.13v.11a3.67,3.67,0,0,1-.17,1.13,2.64,2.64,0,0,1-.52.91,2.24,2.24,0,0,1-.82.6,2.86,2.86,0,0,1-2.2,0,2.24,2.24,0,0,1-.82-.6,2.64,2.64,0,0,1-.52-.91A3.67,3.67,0,0,1,312.79,134.43Zm1.25-.11v.11a2.74,2.74,0,0,0,.08.72,1.74,1.74,0,0,0,.24.59,1.1,1.1,0,0,0,.43.4,1.2,1.2,0,0,0,.61.15,1.17,1.17,0,0,0,.61-.15,1.15,1.15,0,0,0,.42-.4,1.75,1.75,0,0,0,.25-.59,3.24,3.24,0,0,0,.08-.72v-.11a3.22,3.22,0,0,0-.08-.71,1.81,1.81,0,0,0-.25-.6,1.21,1.21,0,0,0-.43-.41,1.28,1.28,0,0,0-.61-.14,1.34,1.34,0,0,0-.61.14,1.27,1.27,0,0,0-.42.41,1.8,1.8,0,0,0-.24.6A2.71,2.71,0,0,0,314,134.32Z"/><path class="cls-1" d="M320.3,132.76v4.42h-1.25v-5.62h1.18Zm-.22,1.4h-.41a3.84,3.84,0,0,1,.17-1.1,2.57,2.57,0,0,1,.46-.85,2.09,2.09,0,0,1,.7-.56,2.13,2.13,0,0,1,.92-.19,2.38,2.38,0,0,1,.73.11,1.42,1.42,0,0,1,.57.36,1.57,1.57,0,0,1,.36.65,3.35,3.35,0,0,1,.13,1v3.63h-1.26v-3.63a1.4,1.4,0,0,0-.12-.64.7.7,0,0,0-.34-.34,1.24,1.24,0,0,0-.54-.1,1.21,1.21,0,0,0-.58.13,1.27,1.27,0,0,0-.43.37,2,2,0,0,0-.27.54A2.27,2.27,0,0,0,320.08,134.16Z"/><path class="cls-1" d="M329.92,136.29a1.28,1.28,0,0,0,.56-.12,1.19,1.19,0,0,0,.4-.34,1,1,0,0,0,.17-.51h1.17a1.7,1.7,0,0,1-.32,1,2.24,2.24,0,0,1-.82.7,2.46,2.46,0,0,1-1.14.27,2.76,2.76,0,0,1-1.12-.22,2.22,2.22,0,0,1-.8-.61,2.58,2.58,0,0,1-.47-.9,3.55,3.55,0,0,1-.16-1.09v-.19a3.55,3.55,0,0,1,.16-1.09,2.58,2.58,0,0,1,.47-.9,2.22,2.22,0,0,1,.8-.61,2.59,2.59,0,0,1,1.11-.22,2.52,2.52,0,0,1,1.19.27,1.91,1.91,0,0,1,.8.74,2,2,0,0,1,.3,1.1h-1.17a1.34,1.34,0,0,0-.16-.56,1,1,0,0,0-.38-.4,1.13,1.13,0,0,0-.59-.15,1.22,1.22,0,0,0-.63.15,1,1,0,0,0-.39.41,2.28,2.28,0,0,0-.2.59,3.71,3.71,0,0,0-.06.67v.19a3.71,3.71,0,0,0,.06.67,1.87,1.87,0,0,0,.2.59,1.09,1.09,0,0,0,.39.41A1.22,1.22,0,0,0,329.92,136.29Z"/><path class="cls-1" d="M334.52,129.2v8h-1.26v-8Z"/><path class="cls-1" d="M339.24,133.77v.77h-.9a2.8,2.8,0,0,0-.61.06,1.49,1.49,0,0,0-.44.19,1,1,0,0,0-.27.3,1.07,1.07,0,0,0-.08.41.79.79,0,0,0,.1.4.7.7,0,0,0,.3.29,1.07,1.07,0,0,0,.49.1,1.41,1.41,0,0,0,.67-.15,1.49,1.49,0,0,0,.46-.39.79.79,0,0,0,.17-.44l.41.55a1.7,1.7,0,0,1-.21.46,2.44,2.44,0,0,1-.4.47,2.31,2.31,0,0,1-.57.36,2.07,2.07,0,0,1-.77.14,2.25,2.25,0,0,1-1-.22,1.77,1.77,0,0,1-.67-.6,1.58,1.58,0,0,1-.25-.86,1.83,1.83,0,0,1,.17-.79,1.63,1.63,0,0,1,.5-.58,2.51,2.51,0,0,1,.81-.35,4.49,4.49,0,0,1,1.09-.12Zm-.18,2.29v-2.68a1.14,1.14,0,0,0-.11-.52.72.72,0,0,0-.33-.34,1.15,1.15,0,0,0-.55-.12,1.22,1.22,0,0,0-.53.1.91.91,0,0,0-.35.28.7.7,0,0,0-.12.4h-1.25a1.35,1.35,0,0,1,.16-.64,1.76,1.76,0,0,1,.47-.56,2.3,2.3,0,0,1,.73-.38,3.13,3.13,0,0,1,1-.14,2.83,2.83,0,0,1,1.12.21,1.68,1.68,0,0,1,.77.64,1.93,1.93,0,0,1,.29,1.08v2.49a4.65,4.65,0,0,0,.05.69,2.22,2.22,0,0,0,.16.53v.08h-1.28a1.85,1.85,0,0,1-.14-.51A4.42,4.42,0,0,1,339.06,136.06Z"/><path class="cls-1" d="M342.88,132.63v4.55h-1.25v-5.62h1.2Zm1.72-1.1v1.16l-.24,0h-.27a1.6,1.6,0,0,0-.56.09,1.07,1.07,0,0,0-.41.26,1.13,1.13,0,0,0-.25.41,1.72,1.72,0,0,0-.11.53l-.28,0a4.34,4.34,0,0,1,.1-1,2.56,2.56,0,0,1,.32-.79,1.52,1.52,0,0,1,.53-.54,1.38,1.38,0,0,1,.74-.19l.24,0A.64.64,0,0,1,344.6,131.53Z"/><path class="cls-1" d="M345.39,130.09a.65.65,0,0,1,.19-.48.72.72,0,0,1,.52-.19.74.74,0,0,1,.53.19.65.65,0,0,1,.19.48.6.6,0,0,1-.19.46.7.7,0,0,1-.53.19.68.68,0,0,1-.52-.19A.6.6,0,0,1,345.39,130.09Zm1.34,1.47v5.62h-1.26v-5.62Z"/><path class="cls-1" d="M347.87,134.43v-.1a4.25,4.25,0,0,1,.15-1.17,2.85,2.85,0,0,1,.44-.91,2.05,2.05,0,0,1,.69-.59,2.18,2.18,0,0,1,.93-.2,1.8,1.8,0,0,1,.89.2,1.87,1.87,0,0,1,.66.56,3,3,0,0,1,.43.87,7,7,0,0,1,.23,1.13v.34a6.78,6.78,0,0,1-.23,1.11,3,3,0,0,1-.43.86,1.87,1.87,0,0,1-.66.56,2,2,0,0,1-.9.2,1.87,1.87,0,0,1-.92-.22,2.05,2.05,0,0,1-.69-.59,2.85,2.85,0,0,1-.44-.91A4.14,4.14,0,0,1,347.87,134.43Zm1.25-.1v.1a4,4,0,0,0,.07.72,2.06,2.06,0,0,0,.22.59,1.07,1.07,0,0,0,.4.39,1,1,0,0,0,.57.14,1.29,1.29,0,0,0,.71-.18,1.43,1.43,0,0,0,.43-.51,2.27,2.27,0,0,0,.22-.71v-.94a3.29,3.29,0,0,0-.13-.58,1.72,1.72,0,0,0-.26-.46,1.11,1.11,0,0,0-.4-.31,1.18,1.18,0,0,0-.55-.11,1.2,1.2,0,0,0-.59.14,1.15,1.15,0,0,0-.39.4,1.81,1.81,0,0,0-.22.59A3.4,3.4,0,0,0,349.12,134.33Zm2.41,1.69V129.2h1.25v8h-1.13Z"/><path class="cls-1" d="M357.44,133.77v.77h-.89a2.83,2.83,0,0,0-.62.06,1.62,1.62,0,0,0-.44.19.83.83,0,0,0-.35.71.79.79,0,0,0,.1.4.67.67,0,0,0,.31.29,1,1,0,0,0,.48.1,1.41,1.41,0,0,0,.67-.15,1.38,1.38,0,0,0,.46-.39.9.9,0,0,0,.18-.44l.4.55a1.7,1.7,0,0,1-.21.46,2.37,2.37,0,0,1-.39.47,2.58,2.58,0,0,1-.58.36,2,2,0,0,1-.77.14,2.18,2.18,0,0,1-1-.22,1.73,1.73,0,0,1-.68-.6,1.57,1.57,0,0,1-.24-.86,1.7,1.7,0,0,1,.17-.79,1.51,1.51,0,0,1,.49-.58,2.51,2.51,0,0,1,.81-.35,4.49,4.49,0,0,1,1.09-.12Zm-.18,2.29v-2.68a1,1,0,0,0-.11-.52.72.72,0,0,0-.33-.34,1.12,1.12,0,0,0-.55-.12,1.25,1.25,0,0,0-.53.1,1,1,0,0,0-.35.28.7.7,0,0,0-.12.4H354a1.35,1.35,0,0,1,.16-.64,1.9,1.9,0,0,1,.47-.56,2.3,2.3,0,0,1,.73-.38,3.18,3.18,0,0,1,1-.14,2.8,2.8,0,0,1,1.12.21,1.76,1.76,0,0,1,.78.64,2,2,0,0,1,.28,1.08v2.49a4.65,4.65,0,0,0,.05.69,2.22,2.22,0,0,0,.16.53v.08h-1.28a1.85,1.85,0,0,1-.14-.51A4.42,4.42,0,0,1,357.26,136.06Z"/><path class="cls-1" d="M359.6,134.43v-.1a4.25,4.25,0,0,1,.15-1.17,2.85,2.85,0,0,1,.44-.91,2.05,2.05,0,0,1,.69-.59,2.15,2.15,0,0,1,.93-.2,1.83,1.83,0,0,1,.89.2,1.87,1.87,0,0,1,.66.56,3,3,0,0,1,.43.87,7,7,0,0,1,.23,1.13v.34a6.78,6.78,0,0,1-.23,1.11,3,3,0,0,1-.43.86,1.87,1.87,0,0,1-.66.56,2,2,0,0,1-.9.2,1.87,1.87,0,0,1-.92-.22,2.05,2.05,0,0,1-.69-.59,2.85,2.85,0,0,1-.44-.91A4.14,4.14,0,0,1,359.6,134.43Zm1.25-.1v.1a4,4,0,0,0,.07.72,2.06,2.06,0,0,0,.22.59,1.12,1.12,0,0,0,.39.39,1.11,1.11,0,0,0,.58.14,1.29,1.29,0,0,0,.71-.18,1.43,1.43,0,0,0,.43-.51,2.26,2.26,0,0,0,.21-.71v-.94a2.59,2.59,0,0,0-.12-.58,1.72,1.72,0,0,0-.26-.46,1.11,1.11,0,0,0-.4-.31,1.37,1.37,0,0,0-1.14,0,1.15,1.15,0,0,0-.39.4,2.07,2.07,0,0,0-.23.59A4.21,4.21,0,0,0,360.85,134.33Zm2.41,1.69V129.2h1.25v8h-1.13Z"/><path class="cls-1" d="M239.87,134.16a7.77,7.77,0,0,1,7.33-7.77,7.69,7.69,0,0,1,8.05,7.46,7.83,7.83,0,0,1-7.67,7.92A7.75,7.75,0,0,1,239.87,134.16Z"/><path class="cls-2" d="M251.87,131.92a.71.71,0,0,1-.3.61l-4.39,4.33a.71.71,0,0,1-1.17,0c-.65-.69-1.33-1.36-2-2-.37-.38-.67-.79-.26-1.3a1.13,1.13,0,0,1,1.43.06,6.08,6.08,0,0,1,.91.92c.38.48.64.52,1.09,0,1-1.1,2.13-2.14,3.2-3.21a.78.78,0,0,1,.92-.27C251.72,131.22,251.8,131.55,251.87,131.92Z"/><path class="cls-1" d="M240.45,168.27c1.69-4.66,7.87-6.3,11.85-3.14a7.62,7.62,0,0,1,2.49,8.65,7.7,7.7,0,0,1-14.59-.47,13.4,13.4,0,0,0-.23-1.77A10.66,10.66,0,0,1,240.45,168.27Z"/><path class="cls-3" d="M240.45,168.27a6.33,6.33,0,0,1-.31,1.77,7.31,7.31,0,0,0,.13,2.72.53.53,0,0,1-.07.55A7.41,7.41,0,0,1,240.45,168.27Z"/><path class="cls-2" d="M248.15,168.13a.54.54,0,0,1,.88-.06c1,.8,1.94,1.59,2.91,2.38.42.33.4.61,0,.93L249,173.73c-.18.14-.37.35-.63.19s-.19-.37-.2-.58c0-1.18,0-1.18-1.27-1.18h-1.23a1.18,1.18,0,0,0-1.35,1.23c0,.46-.23.66-.68.63s-.6-.28-.57-.69c0-.63.05-1.26.11-1.88a2.14,2.14,0,0,1,1-1.63,1.32,1.32,0,0,1,.86-.21c.8,0,1.6,0,2.4,0,.48,0,.58-.16.57-.6C248,168.75,247.88,168.41,248.15,168.13Z"/><path class="cls-4" d="M248.15,168.13c0,.39,0,.78,0,1.17s-.12.4-.45.4a15,15,0,0,0-3.48.13c0-.34.31-.26.52-.26.85,0,1.71,0,2.56,0,.51,0,.75-.13.69-.68C248,168.64,247.83,168.32,248.15,168.13Z"/><path class="cls-1" d="M247.52,85.21a7.75,7.75,0,0,1,7.81,7.68,7.72,7.72,0,1,1-15.44-.26A7.55,7.55,0,0,1,247.52,85.21Z"/><path class="cls-2" d="M246.05,91.73a2.16,2.16,0,0,0,1.67-2.29c0-.25-.19-.66.33-.68s.86,0,1,.59a3.63,3.63,0,0,1-.36,2.5c.78,0,1.49,0,2.19,0,.21,0,.51-.11.6.22s.21.63-.07.91c-.1.1-.27.15-.12.35a.58.58,0,0,1-.09.86c-.07.07-.12.15-.07.23.39.64-.28,1-.44,1.45-.08.23-.37.27-.62.27-1.07,0-2.15,0-3.23,0-.52,0-.61-.37-.8-.69A15.68,15.68,0,0,1,246.05,91.73Z"/><path class="cls-2" d="M245.1,94.09c0,.49,0,1,0,1.48s-.34.57-.7.58-.94.1-1-.55c0-1.07,0-2.15,0-3.22,0-.23.09-.37.34-.38h.06c1.2-.14,1.26-.1,1.27,1.12Z"/><path class="cls-5" d="M246.05,91.73l0,3.75-.06,0A11.63,11.63,0,0,1,246.05,91.73Z"/><path class="cls-2" d="M37.89,151.76a32.85,32.85,0,0,1-4.69-7.87,43.68,43.68,0,0,1-3.88-19.63c.43-14.26,6-26.05,17.23-35a42.25,42.25,0,0,1,20.94-8.89,45,45,0,0,1,34.25,8.76,41.08,41.08,0,0,1,16.7,27.71,51.47,51.47,0,0,1-.85,21c-.09.34-.15.7-.22,1.05a1.29,1.29,0,0,1-.39,1.07c-.91,1.26-1.69,2.59-2.53,3.89-.24.38-.39,1-1,.83s-.63-.74-.64-1.27a2.48,2.48,0,0,1,.06-.54,2.24,2.24,0,0,0,0-1.06,1,1,0,0,0-1.67-.49,4,4,0,0,0-.78,1,22,22,0,0,0-3.31,11.29c0,.67.4,1.31.11,2A25.82,25.82,0,0,0,105,158c-.29.33-.58.73-1.08.59s-.45-.61-.53-1a83.83,83.83,0,0,0-4.31-13.79A13.84,13.84,0,0,0,92,136.32a72.63,72.63,0,0,0-11.17-4.22,1.12,1.12,0,0,1-.51-1.41,1.77,1.77,0,0,1,1-.95,8.64,8.64,0,0,0,4.29-5.07,29.91,29.91,0,0,0,2.23-12,20.43,20.43,0,0,1,.38-5.46,10.8,10.8,0,0,0,1.2-5.88,2.73,2.73,0,0,1,.19-1.41,10,10,0,0,0,.26-4.73c-.27-2.42-1.88-3.81-4-4.7a29.21,29.21,0,0,0-14-2.5,12.34,12.34,0,0,0-4.89,1.48,3.55,3.55,0,0,0-1.79,1.85,2.42,2.42,0,0,1-1.83,1.56c-4.29.93-6.37,5.71-5.86,9.48a22.29,22.29,0,0,0,1,4.78,2.11,2.11,0,0,1,.13,1.29,7,7,0,0,0-1.61,3.76,7.18,7.18,0,0,0,2.38,6.33,2.9,2.9,0,0,0,2.08.76A1.26,1.26,0,0,1,63,120.45c.34,3,.61,6-.62,8.82a7.29,7.29,0,0,1-1.48,2.16,5.83,5.83,0,0,1-2.3.95,51.62,51.62,0,0,0-11.48,4.67c-4.22,2.3-6.69,6-8,10.59-.29,1-.46,2.1-.71,3.14C38.34,151.16,38.36,151.6,37.89,151.76Z"/><path class="cls-6" d="M206.53,140.45a48.49,48.49,0,0,1,7.94,3.25c5.66,3,8.93,7.73,10.5,13.8A54.57,54.57,0,0,1,226.62,170c.12,5.62.15,11.24.24,16.86,0,.64,0,1-.85,1-3.07-.06-6.13,0-9.2,0-2.85-.31-5.71,0-8.57-.07-1.05,0-1.32-.37-1.32-1.3,0-4.85,0-9.7,0-14.55a26.71,26.71,0,0,0-.11-4.73,9.41,9.41,0,0,0-.45,3.66c.19,3-.07,5.89,0,8.84q.06,3,0,6.1c-.05,1.89,0,2-2,2-5.22,0-10.44-.06-15.66,0-9.07.14-18.13.08-27.2.09a4.31,4.31,0,0,0-1.19.08.62.62,0,0,1-.38,0c-1-.17-2,.07-2.93-.15-.47-.39-.24-.87-.17-1.33A83.06,83.06,0,0,1,160,174.34c.95-2.84,1.45-5.81,2.66-8.57.85-1.93,1.46-4,2.86-5.62a6.69,6.69,0,0,0,1.22-3.34c.29-1.8,1-3.57.67-5.44A1.45,1.45,0,0,1,168,150a10.31,10.31,0,0,1,2.27-1.33c.38-.15.8-.26,1.07.17s0,.76-.27,1.07a6.46,6.46,0,0,1-1.13.88c-.37.28-.72.61-.41,1.1s.77.22,1.14,0a4.93,4.93,0,0,0,1.8-5.32,1,1,0,0,0-1.22-.69,11.56,11.56,0,0,0-3.57.94c-.6.24-1.17.53-1.78.72s-1.16.39-1.44-.33.22-1.05.73-1.32a16.25,16.25,0,0,1,2.26-1.1c.75-.27,1.51-.5,2.27-.75.45-.14,1.19,0,1.06-.81a1.14,1.14,0,0,0-1.41-1,13.46,13.46,0,0,0-4.2.83c-.84.37-1.68.76-2.55,1-.56.19-1.26.49-1.57-.24s.31-1.1.81-1.41a15.62,15.62,0,0,1,5.78-2.22c.47-.08,1.3.23,1.26-.66a1.17,1.17,0,0,0-1.47-1.08c-1.74.27-3.55.21-5.19,1a20.74,20.74,0,0,0-2.32,1.25,1.67,1.67,0,0,1-1.35.34,1.13,1.13,0,0,1-.86-.59c-.18-.44.21-.65.47-.86a12.19,12.19,0,0,1,4.14-2.1c1.16-.25,2.3-.6,3.48-.74a6.1,6.1,0,0,1,4.12.75,2.41,2.41,0,0,1,1,2c0,.16,0,.37.05.47,1,1.23,1.44,2.78,2.18,4.13a7.54,7.54,0,0,1,1.21,3.63c0,.61.22,1,.9,1,3.25.11,6.51.28,9.7-.65A22.71,22.71,0,0,0,196.87,140a3.94,3.94,0,0,1,1.85-1.45,29.07,29.07,0,0,1,7.21,1.36A.92.92,0,0,1,206.53,140.45Z"/><path class="cls-7" d="M198.67,138.74c-.53.58-1.13,1.07-1.64,1.69a22.9,22.9,0,0,1-14.58,8.5c-2.55.38-5.07.07-7.6.17-.76,0-1-.29-.91-1,.09-1,.2-2.28-.51-2.86-1.57-1.28-.84-3.8-2.79-4.76a.46.46,0,0,1-.18-.63c.33-.8-.13-1.37-.54-2A13.93,13.93,0,0,0,171,135c.7-.38,1.4,0,2.1.05,3.44.08,6.21-1.5,8.87-3.4a15.13,15.13,0,0,0,2.89-2.56c-4.32,2.64-8.94,4.92-14.43,4.21a9.57,9.57,0,0,1-1.94-.53,2.13,2.13,0,0,0-2.71.7A17.44,17.44,0,0,0,163,137a2.19,2.19,0,0,1-.78.87c-1.51.77-3.16,1.3-4.39,2.52.63.65,1.22.59,2,0a12,12,0,0,1,5.37-2.14,9.33,9.33,0,0,1,2.33-.2,1.89,1.89,0,0,1,2,1.92c.07.66-.37.49-.68.5a14.44,14.44,0,0,0-6.59,2.12,3.32,3.32,0,0,0-.69.46c-.19.22-.55.45-.34.81s.55.18.85.06a16,16,0,0,0,2.09-.85c1.72-1,3.66-1,5.52-1.36.74-.13,1.54.75,1.63,1.61s-.61.86-1.24,1a18.77,18.77,0,0,0-5,2c-.3.17-.55.38-.39.76s.56.34.9.2c2-.78,3.83-1.75,6-1.88.72-.05,1,.1,1.25.71a5.58,5.58,0,0,1-1.81,6,1.56,1.56,0,0,1-1.65.38c-.39-.22-.42-.83-.37-1.32s.65-.63,1-.92,1.55-.69,1.16-1.35-1.07.23-1.61.46a2.47,2.47,0,0,0-1.71,2.92c.16,1.71-.58,3.48-.81,5.25-.3,2.28-2.17,3.72-2.95,5.76a73.94,73.94,0,0,0-2.61,7.41c-1.13,4.26-2.7,8.4-3.6,12.72-.29,1.4-.58,2.8-.86,4.2,1,.3,2.06-.09,3.07.2h.27a9.51,9.51,0,0,1,2.61-.1q11.37,0,22.72,0c.42,0,.88-.15,1.27.16-.35,0-.7.12-1,.13l-52.63,0-.48,0c.2-.69.83-.62,1.27-.54,2.26.43,3.34-.67,4.12-2.67a83.94,83.94,0,0,1,3.91-8c2.17-4.31,4.47-8.56,6.6-12.9a14.9,14.9,0,0,1,.9-1.67c2.19-3.53,2.91-7.49,3.61-11.5.56-3.25.6-6.57,1.54-9.75,1.89-4.07,3.72-8.18,7.11-11.31a3.53,3.53,0,0,1,1.88-1.18c.53.14,1-.15,1.53-.17a2.26,2.26,0,0,1,2.71,1.93c.07.26,0,.57.27.84a2.6,2.6,0,0,0,.53-1.67c0-1.31-.92-1.95-2.29-1.7-.9.16-1.64.84-2.61.76-2.17-1.93-3.26-4.5-4.24-7.12a41.3,41.3,0,0,1-2.28-11.1A67.21,67.21,0,0,1,157.26,99a1.91,1.91,0,0,1,1.64-2,37.4,37.4,0,0,0,16.55-9.45c.43-.42.8-.89,1.21-1.33.84-.93,1.36-.87,1.76.33a41.23,41.23,0,0,0,3,6.4,16.87,16.87,0,0,0,7.16,7.34,3.65,3.65,0,0,1,2.05,2.63,7.15,7.15,0,0,0,.88,2.21c.34.56.73.7,1.24.19a4.87,4.87,0,0,1,1.35-1c2.48-1.21,4.69-.51,6.17,1.84a7.07,7.07,0,0,1,.47,7c-1.34,3.07-3.42,5.27-6.93,5.72-.66.09-1,.53-1.3,1.08-2.39,4-2,8.17-1.3,12.43a5,5,0,0,0,2.34,3.33,19,19,0,0,0,3.91,2.06C197.9,138,198.52,138.06,198.67,138.74Z"/><path class="cls-1" d="M37.89,151.76A41.27,41.27,0,0,1,39.28,146a17,17,0,0,1,9-10,80.69,80.69,0,0,1,12.38-4.67c.46,0,.59.39.69.72a8.51,8.51,0,0,0,4.19,4.69c3.55,2.1,7.28,3.11,11.4,1.81,2.94-.94,4.19-2.61,4.19-5.85a1.93,1.93,0,0,1-.17-.79,28.39,28.39,0,0,1,6.33,2c2.47,1.05,5.09,1.81,7.28,3.5a16.55,16.55,0,0,1,5.64,8.1c1.26,3.74,2.51,7.47,3.44,11.3a15.46,15.46,0,0,1,.21,1.64,11.12,11.12,0,0,0,2.17-2.3c.28-.35.52-.72,1-.65a1.24,1.24,0,0,1,.62.69,9.22,9.22,0,0,0,5.22,4.23c1.25.48,2.63.54,3.79,1.3.42.19,1,.16.61,1a33.08,33.08,0,0,1-5.29,8.3c-2,2.17-4.48,3.33-7.49,2.45a7.15,7.15,0,0,1-5.29-6.25c-.32-2.11.64-3.85,2-5.73a45.69,45.69,0,0,1-4,2.65.28.28,0,0,0-.23,0c-1.49.64-1.54.61-1.55-1,0-2.23-.09-4.46-.07-6.67,0-1-.29-1.85-.27-2.79s-.09-2.07,0-3.1a.67.67,0,0,0-.48-.76c-.38.17-.28.54-.24.82.16,1.43-.12,2.88,0,4.28.29,3-.37,5.93,0,8.89.19,1.68.13,1.68-1.38,2.46-.34.17-.76.23-1,.61a35.43,35.43,0,0,1-9.87,3.3c-9.3,1.78-18.14.16-26.68-3.65a.84.84,0,0,1-.18-.15c-.06-.11-.14-.22-.25-.24-2-.46-2.38-1.76-2.22-3.62a49.62,49.62,0,0,0,0-6.68,4.26,4.26,0,0,0-.31-1.73c0,2.94,0,5.66-.14,8.38,0,.76.18,1.63-.67,2.14A42.27,42.27,0,0,1,37.89,151.76Z"/><path class="cls-1" d="M198.67,138.74c-1.46-.7-3-1.23-4.41-2.08-2.09-1.25-3.61-2.81-3.71-5.43s-.69-5.08,0-7.61c.42-1.66,1.51-3.06,2-4.74.11-.44.71-.29,1.07-.31,4.46-.25,7.72-5.37,7.49-9a6.85,6.85,0,0,0-2.06-4.46c-1.55-1.55-4.69-1.25-6.2.63-.72.91-1.07.52-1.49-.12a8.38,8.38,0,0,1-1-2.66,2.66,2.66,0,0,0-1.31-2c-4.24-2-6.86-5.56-8.89-9.66a41.4,41.4,0,0,1-2.34-5.81,28.76,28.76,0,0,1-7.4,6.73,36.3,36.3,0,0,1-11.82,5.3c-.55.14-.77.28-.82.89a65.31,65.31,0,0,0,.5,15.62c.77,5.1,2.22,9.95,5.59,14a1.5,1.5,0,0,1,.12.44.34.34,0,0,1-.22.22c-3.42,2.34-5.36,5.8-7.15,9.38-.48,1-1,1.91-1.47,2.86a12.13,12.13,0,0,1-4.51,1.64,17.15,17.15,0,0,1-4.09-8.34A20.17,20.17,0,0,1,147.49,123a56.4,56.4,0,0,0,3-17.56,36.92,36.92,0,0,1,5.72-19.21,24.6,24.6,0,0,1,16-11,18.33,18.33,0,0,1,12.12,1.28,10.92,10.92,0,0,0,4.11,1.07,11.18,11.18,0,0,1,6.73,3.29,24.91,24.91,0,0,1,6.34,10.24c1.52,4.2,1.9,8.61,2.39,13a47.85,47.85,0,0,0,2.78,12.77,38.24,38.24,0,0,1,3.22,13.75,16.36,16.36,0,0,1-3.38,9.87A74.82,74.82,0,0,0,198.67,138.74Z"/><path class="cls-6" d="M150.51,142.6A16.16,16.16,0,0,1,155,141c-.77,5-1.41,10.09-2.36,15.08a18.35,18.35,0,0,1-2.91,6.46c-.41,0-.54-.41-.8-.79-1.08,2.21-2.29,4.21-3.18,6.38-1.05,2.56-2,5.15-3.06,7.72a2.22,2.22,0,0,0-.33,1.13c-1.44,2.95-3,5.84-4.25,8.89a2.92,2.92,0,0,1-3.61,2.14,2.89,2.89,0,0,0-1.76.14c-.79-.12-.25-.66-.2-.9q1.49-6.21,3-12.39c1.66-6.64,3.37-13.25,5.2-19.84A19.07,19.07,0,0,1,150.51,142.6Z"/><path class="cls-8" d="M116.73,161.76a13.61,13.61,0,0,1-8-3.51,6.07,6.07,0,0,1-1.64-2.71,16,16,0,0,1,1.53-10.36,22.3,22.3,0,0,1,1.82-3.62c.55-.77,1.09-1.5,2.1-.93a1.62,1.62,0,0,1,.6,2.28c-.73.59-.65,1.49-.88,2.27-.13.45-.28.91-.43,1.35a7.84,7.84,0,0,0,.6-2.09c.1-.42,0-1,.66-1.09,0,.38-.15.9.32,1.05s.53-.48.71-.75a57.78,57.78,0,0,1,3.24-4.81c1.2-1.19,2.26-2.54,3.86-3.25s2.32-.44,2.86.87c0,1.41-1.06,2.07-2,2.73a16.81,16.81,0,0,0-4.78,5.12c-.26.41-.57.82.12,1.15a9.27,9.27,0,0,1,4.65,5.12,55.14,55.14,0,0,1,4.75-6.08c-1.58,1.21-2.6,2.66-3.9,3.8-.42.36-.76,1.31-1.51.59s-1.5-1.84-.66-2.69c1.34-1.35,2.39-3,4-4,1-.62,1.51-1.78,2.7-2.1.92.23.87.92.71,1.6a8.8,8.8,0,0,1-.55,1.45c-.15.35-.38.56.25.83.79.34.69,1.14.43,1.87a32.4,32.4,0,0,1-3.37,6,48.4,48.4,0,0,1-7,9A13.8,13.8,0,0,1,116.73,161.76Z"/><path class="cls-6" d="M215.28,76.77a10,10,0,0,1,5.26,1.16,8,8,0,0,1,1.31,13.74c-.83.62-1.64,1.27-2.51,1.83a6,6,0,0,0-2.89,5.07c0,.65-.19.84-.8.7a21,21,0,0,0-3-.25c-2-.2-1.72-.07-1.51-1.91a9.43,9.43,0,0,1,3.94-6.45c1.12-.89,2.26-1.76,3.37-2.67a3.56,3.56,0,0,0,1.19-3.68A3.22,3.22,0,0,0,217,81.87c-3.54-1-5.87.45-6.36,4-.08.54-.15.75-.77.62-1.21-.25-2.44-.38-3.66-.58-.27,0-.72.07-.62-.47.73-4.13,2.26-7.31,6.78-8.42A9.25,9.25,0,0,1,215.28,76.77Z"/><path class="cls-9" d="M186.92,188l-18.25,0-8.35,0a1.66,1.66,0,0,1,1.36-.3c4.26.18,8.53,0,12.79.06,2,0,4,0,5.94,0a2.09,2.09,0,0,0,2.07-.92c-.41.88,0,.92.59.91,4,0,7.9,0,11.84,0h8.82a5.52,5.52,0,0,0,1.87-.13c.52-.19.42-.88.42-1.37,0-3,.13-6.07,0-9.09A53.72,53.72,0,0,0,206,171c-.18-1.23.26-2.55.18-3.86,0-.36.41-.7.84-.73.67,0,.29.47.36.76.41,1.77-.05,3.54,0,5.31.07,2.94-.19,5.89,0,8.81.07.86-.37,1.57-.14,2.44a10.65,10.65,0,0,1,0,3c0,.67.12.78.84.84,2.61.23,5.21-.25,7.81.06.31,0,.64-.06.9.21Z"/><path class="cls-6" d="M217.31,105.62a3.31,3.31,0,0,1-3.32,3.47,3.54,3.54,0,0,1-3.67-3.46,3.37,3.37,0,0,1,3.58-3.49A3.25,3.25,0,0,1,217.31,105.62Z"/><path class="cls-10" d="M127.45,140.05c-2.13,2.18-4.61,4-6.51,6.41-.36.45.27,2.39.81,2.46.3.05.35-.27.52-.42,1.43-1.32,2.57-2.94,4.13-4.13.24-.18.38-.58.77-.22s-.09.57-.23.74c-1.09,1.32-2.21,2.62-3.33,3.9a4.62,4.62,0,0,0-1.12,1.94c-.06.23,0,.5-.39.48s-.26-.24-.34-.42c-1-2.35-2.38-4.28-4.92-5.14-.72-.24-.38-.68-.12-1.12a19,19,0,0,1,6-6.32,4.14,4.14,0,0,0,1.32-1.75v.9a2.32,2.32,0,0,1-.87,2c-1.3,1.35-2.87,2.43-4,4-.35.5-1.4.85-.51,1.73.71.7,1,.66,1.95-.31,1.31-1.34,2.44-2.85,3.87-4.07.62-.52,1.23-1.24,2.21-.71Z"/><path class="cls-11" d="M126.79,140a2.55,2.55,0,0,0-2,.95c-1.5,1.54-3,3.06-4.43,4.68-.51.59-.75.55-1.29.15-1.54-1.13-1.52-1.08-.27-2.49a41.33,41.33,0,0,1,3.63-3.62,5.85,5.85,0,0,0,1.65-2.28c.05,0,.12.13.16.13,2.42-.45,2.65-.24,2.42,2.28C126.67,139.83,126.75,139.9,126.79,140Z"/><path class="cls-6" d="M92.11,166.87c.12-.77.91-.65,1.37-1s.79-.41.72-1c-.15-1-.11-2.09-.31-3.15a6.11,6.11,0,0,1,.24-2.06c.25-1.11-.41-2.32.38-3.36a.23.23,0,0,0,0-.21c-1-.89-.14-2-.3-3s0-1.93-.12-2.89c0-.49-.25-1.06.5-1a1,1,0,0,1,1,1.12,7.43,7.43,0,0,0,0,2.44c.07.95-.6,2.38,1.31,2.73-1.6,0-1.06.87-1,1.7.11,2,0,4,0,6,0,.39,0,.77,0,.88.76,1.24.61-1.66,1.42,0A32.87,32.87,0,0,1,92.11,166.87Z"/><path class="cls-6" d="M51.83,164.62c.62-2.08.32-4.23.44-6.34.09-1.62,0-3.24,0-5a1.79,1.79,0,0,1,1,1.61c.24,3.24,0,6.47,0,9.71,0,.58.37.48.56.69.43.49,1.41.16,1.57,1.06A22.5,22.5,0,0,1,51.83,164.62Z"/><path class="cls-8" d="M81.49,132.41c.08,4.14-1.61,6.16-6,6.85-5.24.82-9.59-1-13.2-4.78a9.38,9.38,0,0,1-1.62-3.16c2.69-3.32,2.3-7.17,1.91-11,0-.44-.21-.59-.65-.65-2.74-.39-4.37-2-5.09-4.8a9.1,9.1,0,0,1,.51-5.26c.21-.6.84-.82,1.27-1.22a2.32,2.32,0,0,1,3.21.61,11.37,11.37,0,0,1,.95,1.52c.15.23.31.5.64.48a.65.65,0,0,0,.58-.66c.12-2.07,1.22-3.77,2-5.62A12.92,12.92,0,0,0,66.72,99c-.1-1.7.22-1.93,1.93-1.56,2.72.6,5.41,1.38,8.2,1.71a28.49,28.49,0,0,0,8.09-.41c2-.33,2.23-.26,2.81,1.72a19.55,19.55,0,0,1,.89,5.53,5,5,0,0,1-.19,1.28c-.44,4.5.23,9.1-1.2,13.52a33.48,33.48,0,0,1-1.84,5.29,9.87,9.87,0,0,1-4.9,4.51,1.52,1.52,0,0,1-1.25.59,15.43,15.43,0,0,1-8.14-1.37c-1.38-.7-2.9-1.13-4.12-2.4,2.08,2,4.5,3.22,6.63,4.87a7.13,7.13,0,0,0,7.44.12C81.2,132.35,81.34,132.28,81.49,132.41Z"/><path class="cls-1" d="M88.45,107.31A32.1,32.1,0,0,0,87,99.49c-.18-.48-.24-.71-.88-.56A29.81,29.81,0,0,1,71,98.48c-1-.28-2.08-.54-3.13-.79-.59-.14-1-.23-.9.75a12.85,12.85,0,0,1-1.64,8.5,5.61,5.61,0,0,0-.84,3.06,1.42,1.42,0,0,1-1,1.59c-.7.16-.94-.58-1.21-1.09-1.05-2-1.89-2.52-3.68-2.14a23.46,23.46,0,0,1-1.44-5.9A9.77,9.77,0,0,1,60,94.17a7.47,7.47,0,0,1,3.49-1.73c.55-.14,1.12-.25,1.26-.93.32-1.52,1.51-2.16,2.76-2.74a16.14,16.14,0,0,1,8.67-1.17,27.62,27.62,0,0,1,10.64,2.93A7.73,7.73,0,0,1,90,100.06a2.24,2.24,0,0,0-.16,1.35A9.17,9.17,0,0,1,88.45,107.31Z"/><path class="cls-12" d="M81.49,132.41c-1.36,1.94-3.36,1.4-5.2,1.23a8.28,8.28,0,0,1-4.11-1.94,57.26,57.26,0,0,1-5.31-4c-.29-.27-.59-.49-.59-.9,4.32,2.89,8.84,5,14.23,3.84.12.44-.29,1.07.47,1.27C81.17,132.05,81.51,132.05,81.49,132.41Z"/><path class="cls-13" d="M113.1,143.35a5.68,5.68,0,0,0-.46,1.81c-.12,1.3-.2,1.39-1.5,2.45.47-1.52.87-2.86,1.31-4.19.1-.28.28-.59.7-.51Z"/><path class="cls-14" d="M162.26,137.84a15.29,15.29,0,0,1,4.12-5.44,1.1,1.1,0,0,1,1.36-.27c.85.43,1.87.33,2.68.87a1.58,1.58,0,0,1,.68,2,2.59,2.59,0,0,1-1.18,2.88,7.59,7.59,0,0,0-5.91-.32A3.87,3.87,0,0,1,162.26,137.84Z"/><path class="cls-9" d="M160.05,187.89c-1-.09-2.08.32-3.07-.2C158,187.77,159.05,187.43,160.05,187.89Z"/><path class="cls-15" d="M171.1,135c-.22-.66-.45-1.33-.68-2a21.8,21.8,0,0,0,8.73-1.3,26.77,26.77,0,0,0,3.35-1.78l3.2-1.53a18.82,18.82,0,0,1-8.26,6.23A8.69,8.69,0,0,1,171.1,135Z"/><path class="cls-16" d="M142.38,176.94c-.45-.38-.09-.78,0-1.08.66-1.45.84-3.09,1.54-4.47,1.23-2.43,2-5.07,3.38-7.41.51-.84,1-1.72,1.44-2.58.11-.2.19-.5.5-.36s.23.31.13.51c-.2.44.24.64.34.95Q146.08,169.73,142.38,176.94Z"/><path class="cls-17" d="M170.59,117.51c-2.2,0-3.81-1.56-3.2-3.8a38.33,38.33,0,0,1,2.46-5.64c.2-.43.37-.87.59-1.29a.43.43,0,0,1,.49-.25c.22.07.24.26.26.47a2.84,2.84,0,0,1-.39,1.82,22.68,22.68,0,0,0-2.05,4.81c-.67,1.85.34,2.9,2.31,2.56.79-.14,2-.59,2.17.42s-1.18.47-1.8.76A2.62,2.62,0,0,1,170.59,117.51Z"/><path class="cls-18" d="M196.69,109a1.71,1.71,0,0,0,.29.08c.4.07,1-.09,1,.52s-.65.43-1.05.46a3.24,3.24,0,0,0-3.09,3.12c0,.65,0,1.31,0,2.12a1.63,1.63,0,0,1-1-1.19,6,6,0,0,1,3.59-6.45c.35-.15.79-.66,1.15-.12s-.42.53-.53.87S196.65,108.64,196.69,109Z"/><path class="cls-19" d="M179,98.8a7.08,7.08,0,0,1,5.31,2.11c.2.19.57.42.34.79a.69.69,0,0,1-.87.18,14.91,14.91,0,0,1-1.63-.72,8.22,8.22,0,0,0-5.08-.82c-.5.07-1,.21-1.17-.42s.46-.77.91-.9A6.56,6.56,0,0,1,179,98.8Z"/><path class="cls-20" d="M165,99.33c.08,0,.48,0,.87.08s.83.22.79.71a.8.8,0,0,1-.82.73,7.54,7.54,0,0,0-5.19,1.69.66.66,0,0,1-1-.1c-.38-.49-.12-.94.24-1.27A7,7,0,0,1,165,99.33Z"/><path class="cls-21" d="M173.26,120.62a11,11,0,0,1,3.42.79c.41.12,1,.52.79,1s-.74.33-1.15.18a8.41,8.41,0,0,0-6.48,0c-.39.18-.87.21-1-.24s.31-.82.7-1A11,11,0,0,1,173.26,120.62Z"/><path class="cls-22" d="M181.07,106.75c0,1.39-.61,2.33-1.52,2.33S178,108.16,178,107s.74-2.26,1.64-2.26S181.07,105.61,181.07,106.75Z"/><path class="cls-23" d="M163.64,128.72l.22-.22a9.81,9.81,0,0,1,2.73-1.16,1.84,1.84,0,0,1,2.34,1.12c.38,1,.12,2.77-.56,3.23-.27.17-.63.47-.71-.25-.31-2.68-.39-2.73-3.06-2.72Z"/><path class="cls-24" d="M165.27,106.91c-.16.88,0,2-1.23,2.17-.86.13-1.58-1-1.58-2.29a2.44,2.44,0,0,1,0-.47c.15-.79.48-1.57,1.34-1.63s1.22.74,1.38,1.52A5.56,5.56,0,0,1,165.27,106.91Z"/><path class="cls-25" d="M115,152.58c.2,1.35-.59,2.23-1.48,3.06a.5.5,0,0,1-.65.06c-.28-.21,0-.46.08-.62,1.88-2.38.62-4.54-.47-6.7-.17-.33-.72-.63-.27-1s.76.22,1,.51A8,8,0,0,1,115,152.58Z"/><path class="cls-26" d="M82.58,121.71A4.29,4.29,0,0,1,78.27,125c-2.35.06-4.4-.38-5.8-2.47-.21-.32-.43-.64-.22-1s.56-.15.87-.1A30.81,30.81,0,0,0,82.58,121.71Z"/><path class="cls-17" d="M78.68,119.42c-.5-.16-1.48.28-1.49-.58,0-1,1-.48,1.6-.62a5.47,5.47,0,0,1,.71,0c1.41-.14,1.87-1,1.23-2.23-.43-.85-.94-1.66-1.36-2.51a4.47,4.47,0,0,1-.52-2.3c0-.38.12-.75.56-.8s.57.36.58.64c0,1.7,1.1,2.94,1.77,4.36,1,2.21.12,3.84-2.32,4.07C79.21,119.44,79,119.42,78.68,119.42Z"/><path class="cls-27" d="M72.56,105.54a5.14,5.14,0,0,1,2.51.6c.24.16.64.33.4.72a.66.66,0,0,1-.85.22c-1.56-.73-3-.22-4.49.31-.4.15-.93.49-1.18,0s.38-.71.69-1A5,5,0,0,1,72.56,105.54Z"/><path class="cls-28" d="M58.78,111.41a2,2,0,0,1,2.31,1A4.38,4.38,0,0,1,62,116c0,.2,0,.57-.28.57A.59.59,0,0,1,61,116a6.64,6.64,0,0,0-1-2.52A12,12,0,0,0,58.78,111.41Z"/><path class="cls-29" d="M83.88,105.58a6.37,6.37,0,0,1,2.52.65.61.61,0,0,1,.37.69c-.1.35-.43.35-.69.28a7.86,7.86,0,0,0-4.22-.1.43.43,0,0,1-.49-.25c-.15-.28.07-.46.26-.58A5.22,5.22,0,0,1,83.88,105.58Z"/><path class="cls-30" d="M84.54,111.43c-.09.64-.41,1.22-1.13,1.24s-1-.68-1.07-1.31a1.19,1.19,0,0,1,1.29-1.26C84.49,110.09,84.41,110.82,84.54,111.43Z"/><path class="cls-31" d="M71.38,111.3c.09-.51-.06-1.24.85-1.24a1.2,1.2,0,0,1,1.28,1.26,1.11,1.11,0,0,1-1.09,1.29C71.62,112.65,71.37,112.05,71.38,111.3Z"/></svg>