<svg id="Capa_1" data-name="Capa 1" xmlns="http://www.w3.org/2000/svg" viewBox="0 0 389.11 229.23"><defs><style>.cls-1{fill:#fccd74;}.cls-2{fill:#6c2910;}.cls-3{fill:#eca46c;}.cls-4{fill:#c7804d;}.cls-5{fill:#f6d6a9;}.cls-6{fill:#eba46c;}.cls-7{fill:#583f2b;}.cls-8{fill:#c6612f;}.cls-9{fill:#ae7019;}.cls-10{fill:#ca6f31;}.cls-11{fill:#ad7019;}.cls-12{fill:#eca56e;}.cls-13{fill:#fcfdf9;}.cls-14{fill:#819375;}.cls-15{fill:#e7b658;}.cls-16{fill:#fdfdf8;}.cls-17{fill:#0f3a20;}.cls-18{fill:#a5ae93;}.cls-19{fill:#093a1f;}.cls-20{fill:#3a271b;}.cls-21{fill:#c26629;}.cls-22{fill:#3b281a;}.cls-23{fill:#3a271a;}.cls-24{fill:#36251a;}.cls-25{fill:#15482e;}.cls-26{fill:#3e3429;}.cls-27{fill:#2d140a;}.cls-28{fill:#2c130b;}.cls-29{fill:#32190d;}.cls-30{fill:#423123;}.cls-31{fill:#30190d;}.cls-32{fill:#2b1308;}.cls-33{fill:#b52a02;}.cls-34{fill:#b42e03;}.cls-35{fill:#124126;}.cls-36{fill:#281108;}.cls-37{fill:#af711a;}.cls-38{fill:#cc7434;}.cls-39{fill:#ad6f19;}.cls-40{fill:#af7119;}.cls-41{fill:#af721a;}.cls-42{fill:#b0731b;}.cls-43{fill:#ae711a;}.cls-44{fill:#dad49d;}.cls-45{fill:#15492f;}.cls-46{fill:#103c21;}.cls-47{fill:#13472d;}.cls-48{fill:#154329;}.cls-49{fill:#123f25;}.cls-50{fill:#c2662c;}.cls-51{fill:#58402b;}.cls-52{fill:#553f2a;}.cls-53{fill:#b35328;}.cls-54{fill:#c1632a;}.cls-55{fill:#58402a;}.cls-56{fill:#563f2a;}.cls-57{fill:#c3682a;}.cls-58{fill:#c4682b;}.cls-59{fill:#c66a2d;}.cls-60{fill:#4e3c29;}.cls-61{fill:#2e5764;}.cls-62{fill:#f7f5e8;}.cls-63{fill:#d7410a;}.cls-64{fill:#fbebd3;}.cls-65{fill:#fdfdfa;}.cls-66{fill:#184027;}.cls-67{fill:#edbb60;}</style></defs><path class="cls-1" d="M109.12,201.57a1.29,1.29,0,0,1-1.41,1c-7.13.23-14.26.26-21.39-.15A128.57,128.57,0,0,1,71.8,201c-1.83-.31-3.63-.74-5.43-1.23-5-1.38-7.24-4.94-7.86-9.87-.55-4.39-.08-8.75.15-13.13.27-5.13.79-10.24,1.47-15.33,1.26-9.41,2.47-18.84,5.18-28a17.32,17.32,0,0,1,7-9.72c6.48-4.46,13.69-7.31,21.13-9.66.54.18.67.67.85,1.12,1.81,4.58,4.47,8.74,6.65,13.14a1.42,1.42,0,0,0,.14.23c1.13,1.73,1.36,1.78,2.9.45,1.84-1.59,3.67-3.19,5.49-4.82,1.63-1.46,2.46-1.42,3.84.32s2.6,3.37,3.87,5.07c.9,1.23.63,2.66.71,4,.31,5.52,1,11,1.15,16.55.21,5.83.61,11.66.74,17.5.12,5.66,0,11.32.1,17-.2.48-.65.58-1.08.68-1.89.44-3.66,1.27-5.56,1.71a4.09,4.09,0,0,0-2.34,1.65,9.2,9.2,0,0,0-1.89,5.16,21.73,21.73,0,0,0,.37,6.07A1.85,1.85,0,0,1,109.12,201.57Z"/><path class="cls-1" d="M128.64,110.79a9.09,9.09,0,0,1,2.48,3.19,5,5,0,0,1,.68,2.5c0,2.92,0,5.84,0,8.76,0,.63.22,1.48-.54,1.77s-1.19-.43-1.67-.87c-1.07-1-2-2.11-3.19-3-.77-.58-1.28-.64-1.76.31-1,2-2,3.91-3,6.14a1.91,1.91,0,0,0,.89-1.21c.65-1.45,1.32-2.9,2-4.33.33-.71.81-1.16,1.53-.54,1.26,1.08,2.79,1.86,3.78,3.28.37.53,1,.61,1.59.84s.63-.37.61-.73c-.15-3,.12-5.93-.16-8.89a12.81,12.81,0,0,0-.24-2.63c-.28-.84.35-.69.74-.84,6.58,2,12.87,4.64,18.42,8.8,2.59,1.94,3.88,4.76,5,7.68.43,1.15.85,2.3,1.28,3.46.73.46.72,1.31,1,2,2.64,8.12,5.22,16.25,7.66,24.43a8.13,8.13,0,0,1,.39,1.81,3.57,3.57,0,0,0,.3,2.19c.5,1.09.1,1.74-.85,2.27-1.66.92-3.4,1.67-5.12,2.47-.43.19-.94.27-1.23.72.8,0,2-.42,4.23-1.69a42.11,42.11,0,0,0,4-2.3c.8-1,2-1.36,3.1-1.94,3.79-2.05,7.72-3.85,11.51-5.93,1-.54,2-.78,2.86.25a41.18,41.18,0,0,1,2.36,5,15.9,15.9,0,0,0,4.44,6.32c.55.49,1.29.8,1.54,1.58.74,1.23.45,2-.76,2.91-5.58,4-11,8.37-16.72,12.17-3.73,2.46-7.57,4.8-12.1,5.5a12.05,12.05,0,0,1-11.13-4c-1.17-1.26-2.12-2.72-3.18-4.08a1.57,1.57,0,0,1-.21-1c.36-6.57.69-13.15,1.11-19.72.32-5.08.32-10.17.41-15.25a34.57,34.57,0,0,0-.16-6.12c-.14,2.81-.19,5.33-.19,7.84q0,7.75-.45,15.51c-.22,3.53-.52,7.06-.66,10.59a47.53,47.53,0,0,0-.09,8.18l-.87,7.76c-.1.91-.6,1.13-1.46,1s-1.73-.71-2.69-.53c-.76.14-1-.44-1.22-.95a9.46,9.46,0,0,0-4.08-4.55c-1.15-.65-2.24-1.41-3.39-2.07-4.19-2.4-8.55-2-13-.77-.72.21-1.41.56-2.16.12a3.88,3.88,0,0,1-.38-2.45c.18-3.54.15-7.09,0-10.63-.2-5.35-.16-10.71-.71-16-.23-2.15-.16-4.33-.27-6.5-.28-5.71-1-11.38-1.19-17.09a5.62,5.62,0,0,0-1.13-2.95,33.39,33.39,0,0,0-4.23-5.11c-1.11-1.09-1.2-1.06-2.44-.16-2.19,1.6-4.06,3.55-6.12,5.29-1.35,1.13-1.91,1.21-2.69-.28-2.44-4.62-5.29-9-7.12-14-.15-.39-.05-.79-.2-1.16a13.55,13.55,0,0,1,6.3-7.77c1-.25,1,.58.89,1-.78,2.54.86,4,2.24,5.73a22.32,22.32,0,0,0,8.09,6.53,7.08,7.08,0,0,1,3.13,3c1.47,2.43,3.2,4.68,4.62,7.14.13.22.24.53.55.5s.42-.42.49-.71c.52-2.15,1.2-4.26,1.9-6.36a10.37,10.37,0,0,1,1.71-3.56,4.52,4.52,0,0,0,.68-3.56,1.59,1.59,0,0,1,.8-1.51,2.27,2.27,0,0,0,1.15-1.9A2.29,2.29,0,0,1,128.64,110.79Z"/><path class="cls-2" d="M301.86,47.53a2.07,2.07,0,0,1,1,1.58,3.35,3.35,0,0,0-.07,1.18q0,41.34,0,82.67a4,4,0,0,0,.07,1.19,2.65,2.65,0,0,1-2.35,2.38,3.18,3.18,0,0,0-1.19-.08c-16.84,0-33.68,0-50.53,0q-17,0-34,0c-.72,0-.63-.51-.45-.92.66-1.57,1.49-3.07,2.22-4.61a1,1,0,0,1,1.07-.62,44.81,44.81,0,0,1,5.31-.08h71.52c.31,0,.62,0,.93,0,.85,0,1.22-.37,1.19-1.21-.05-1.24,0-2.48,0-3.72q0-34.89,0-69.79c0-2.43,0-2.43-2.37-2.43H166.59c-2.49,0-2.5,0-2.5,2.45,0,20.61,0,41.21,0,61.82,0,3.76-.08,7.53,0,11.3,0,1.49.11,1.59,1.6,1.59,8.15,0,16.3,0,24.46,0,7.17,0,14.35,0,21.53,0a3.45,3.45,0,0,1,1.31.19c.71.35.56.93.29,1.45-.68,1.27-1.31,2.57-2,3.81a1.85,1.85,0,0,1-1.47,1c-15.87.06-31.74,0-47.62,0a7.77,7.77,0,0,0-2,.13,2.14,2.14,0,0,1-1.22-.18,2,2,0,0,1-1.15-2c.14-4.64.05-9.28.05-13.92,0-4.42.1-8.84-.06-13.26a1.39,1.39,0,0,1,0-.5c.2-2.51.1-5,.09-7.54,0-5.38.09-10.76-.07-16.14a2,2,0,0,1,0-.49,82,82,0,0,0,0-8.59,1.48,1.48,0,0,1,0-.47,56.22,56.22,0,0,0,0-7,1.48,1.48,0,0,1,0-.47,38.9,38.9,0,0,0,0-6,1.83,1.83,0,0,1,0-.47c.16-2.3,0-4.6.07-6.9a26.35,26.35,0,0,1,.18-4.07c.2-1,1-1.44,1.79-1.9a1.26,1.26,0,0,1,.51-.11q37.77,0,75.53,0h25.83a9,9,0,0,0,1.72-.07,1.46,1.46,0,0,1,.51,0,10.17,10.17,0,0,0,2,.08h31A10.16,10.16,0,0,1,301.86,47.53Z"/><path class="cls-3" d="M128.64,110.79l-2.06,1c-1.19,1-2.66.81-4,.82a20.74,20.74,0,0,1-14.85-6.09c2,2.51,3.92,4.85,6.63,6.36s5.79,2.71,9.13,2a2.26,2.26,0,0,1,1.31.11,3.49,3.49,0,0,1-.44,3.74c-1.66,1.92-1.89,4.33-2.73,6.52-.48,1.27-.73,2.63-1.1,3.94-.08.28-.13.75-.46.71a1.24,1.24,0,0,1-.94-.57c-1.63-2.62-3.37-5.18-5-7.8a5.66,5.66,0,0,0-2.62-2.48c-4.6-1.84-7.56-5.51-10.48-9.25a3.17,3.17,0,0,1-.3-2.65c.09-.61.59-1.42-.45-1.78,1-.48.58-1.37.61-2.11,0-1.13,0-2.26,0-3.4a12.73,12.73,0,0,1,.07-2.47c.27-1-.91-.92-1.16-1.52a10.9,10.9,0,0,1-7.84-8,6.83,6.83,0,0,1,.87-5.57c.25-.4.66-.74.59-1.29.31-1.27,1.39-1.54,2.42-1.75a5.67,5.67,0,0,1,5.78,3.16c.24.47.4,1,.66,1.45.15.27.3.58.67.56s.57-.36.7-.7a3.53,3.53,0,0,0,.2-.91,35.05,35.05,0,0,1,2.3-8.57,14.51,14.51,0,0,0,1.23-8.55c-.25-1.28.16-1.68,1.18-1.3a18.8,18.8,0,0,0,9.58.59,14.61,14.61,0,0,1,6.67.63,15.93,15.93,0,0,0,9.8.06,1.7,1.7,0,0,1,2.22.88,11.71,11.71,0,0,1,1.62,5.56,29.36,29.36,0,0,1-.35,8,76,76,0,0,1-2.17,19.94,20.57,20.57,0,0,1-3.39,7.56A7.16,7.16,0,0,1,128.64,110.79Z"/><path class="cls-4" d="M232.86,190.79c-.05-.55-.75-.58-.9-1.1.59-.59,1.28-.25,1.86-.13,3.25.66,6.54,1,9.81,1.52.79.12,1.62.16,1.85,1.17s-.45,1.56-1.17,2c-1.09.67-2.2,1.3-3.3,2a2.79,2.79,0,0,1-1.38,1.2C229,203.39,218.51,209.73,208,216a8.49,8.49,0,0,1-6.38,1.13c-12.62-2.4-25.26-4.68-37.91-7-4.62-.83-9.24-1.69-13.85-2.55-2.65-.49-3.13-.12-3.56,2.59a11.13,11.13,0,0,0,0,3.31,2.12,2.12,0,0,0,1.92,2c7.31,1.41,14.62,2.81,21.89,4.37,10.79,2.31,21.67,4.15,32.5,6.22a2.85,2.85,0,0,0,2.3-.28c5.77-3.91,12-7.1,17.87-10.77s11.86-7.43,17.92-10.93a4,4,0,0,0,1.87-1.66l.93.05c.76,0,1.69-.27,2,.81s-.3,1.69-1.19,2.22c-4,2.39-7.92,4.84-11.88,7.25q-13.24,8.08-26.47,16.18a4.67,4.67,0,0,1-3.63.6c-12.48-2.48-25-4.9-37.44-7.36-6.19-1.22-12.38-2.5-18.57-3.7a4,4,0,0,1-3.28-3,12.8,12.8,0,0,1,.33-8.82,4,4,0,0,1,2.24-2.29c13-5.76,26-11.81,39.23-17,1.07-.42,2.15-.8,3.22-1.21.19,1-.71,1.1-1.27,1.38q-6.61,3.36-13.27,6.64a5.07,5.07,0,0,0-2.9,3.56,4.07,4.07,0,0,0,2.9,4.94,24.85,24.85,0,0,0,3.62.79c1.66.22,3.17,1,4.83,1.21h0a11.58,11.58,0,0,1,4.79.57,16.63,16.63,0,0,0,3.84.68,12.49,12.49,0,0,1,4.7,1.15h0c1.19.35,2.44,0,3.65.33a12.53,12.53,0,0,1,3.29.89c.93.55,2-.09,2.86.24,2.51.94,4.43-.07,6.48-1.46,7-4.75,14.05-9.53,21.19-14.13C234.08,192,234.09,191.84,232.86,190.79Z"/><path class="cls-2" d="M254,205.94a12.09,12.09,0,0,1-3.4-1,2.32,2.32,0,0,1-1.62-1.9,14.25,14.25,0,0,0-.22-4.47c-.57-4.81-.9-9.65-1.44-14.46q-.54-5.64-1.12-11.28c0-.43,0-.87.3-1.08s.72.18,1,.46c.78.92,1.88.6,2.84.8,1.89.45,3.84.5,5.73.94a12.66,12.66,0,0,1,4.11.44c1.77,0,3.54-.07,5.31.06.64,0,1.28-.08,1.92-.11a18.73,18.73,0,0,0,6.12-.9,5.63,5.63,0,0,0,3.65-1.22,3.88,3.88,0,0,1,1.32-.83c.59,1,.05,2,0,3a48.74,48.74,0,0,1-.75,6.69,63,63,0,0,0-.88,9.5c-.38,4-.79,8.05-1.13,12.09a2.66,2.66,0,0,1-1.83,2.33,12.25,12.25,0,0,1-3.4,1,2.67,2.67,0,0,0-1.43,0,47.53,47.53,0,0,1-13.58,0A3.05,3.05,0,0,0,254,205.94Z"/><path class="cls-5" d="M242.57,202.47c.08.88-.47,1.3-1.13,1.7-4.33,2.59-8.7,5.11-12.94,7.84-6.85,4.41-14.11,8.13-20.89,12.64a9.69,9.69,0,0,1-7.85,1.41c-14.48-2.66-28.9-5.59-43.32-8.52-3-.61-6-1.19-9-1.7a1.4,1.4,0,0,1-1.21-1,9.48,9.48,0,0,1,.45-7.35,1,1,0,0,1,1.27-.63c7.91,1.45,15.83,2.87,23.74,4.32q16.11,2.94,32.22,5.92a2.94,2.94,0,0,0,2.13-.5q11.59-6.86,23.2-13.69c3.89-2.27,7.84-4.46,11.76-6.68,1.57-.07,1.56-.07,1.56,1.82Z"/><path class="cls-2" d="M138.07,80.23c0-2.12,0-4.24,0-6.37a13.54,13.54,0,0,0-1.91-7.47c-.27-.43-.44-.62-1-.4a14.54,14.54,0,0,1-9.63.34,18.82,18.82,0,0,0-8.49-.75,15.94,15.94,0,0,1-9.57-1.13c1.37,4.33-.06,8-1.59,11.75a25.85,25.85,0,0,0-1.57,7,4.16,4.16,0,0,1-.32,1.27,1.23,1.23,0,0,1-1.17.74,1,1,0,0,1-1-.79c-.09-.3-.2-.59-.3-.88-1.49-4-4.86-5-8.17-2.43a19.81,19.81,0,0,1-1.57-7.81,6.67,6.67,0,0,0,.07-2.09,16.52,16.52,0,0,1,1.51-8,8.79,8.79,0,0,1,3.48-3.69,2.07,2.07,0,0,0,1-1.13c1.91-5.23,6.14-7.31,11.21-8.23.69-.12,1.4-.14,2.1-.21,2.43.07,4.85.21,7.27.36.85.48,1.81.24,2.71.36a31.54,31.54,0,0,1,10.23,2.69c2.49,1.25,5,2.55,7.56,3.58,2,.79,2.62,2.45,1.91,5a18.09,18.09,0,0,0-.72,6.84A24.11,24.11,0,0,1,138.07,80.23Z"/><path class="cls-2" d="M182,204.66a45.3,45.3,0,0,1-9.32-1.87,3.85,3.85,0,0,1-2.58-3.83,4.88,4.88,0,0,1,2.68-4.82c3.21-1.67,6.46-3.27,9.69-4.89,1.46-.73,2.94-1.42,4.39-2.17.45-.24,1-.35,1.23-.93a91,91,0,0,0,11-5.41c2-1.14,4-.79,6-.5,9.31,1.37,18.61,2.79,27.92,4.17.57.08,1.18,0,1.32.78s-.42,1.1-.94,1.42l-15,9.27c-2.82,1.75-5.64,3.48-8.43,5.26a2.33,2.33,0,0,1-1.86.37c-1.63-.32-3.27-.56-5-.85a2,2,0,0,1,1.63-.73c.41-.06.66-.16.65-.62s-.39-.54-.73-.57a2.74,2.74,0,0,0-2.69,1.09,1.06,1.06,0,0,1-1.32.47c-1.5-.33-3-.52-4.63-.78.31-.82,1-.69,1.55-.77s.88-.22.81-.82-.57-.45-.93-.46a2.88,2.88,0,0,0-2.47,1.06,1.21,1.21,0,0,1-1.34.56c-1.42-.28-2.85-.54-4.32-.82a1.4,1.4,0,0,1,1.61-.79c.51,0,.6-.22.61-.63s-.17-.65-.61-.68a3,3,0,0,0-2.63,1,1.62,1.62,0,0,1-1.75.53l-5-.84c.29-.7.92-.62,1.44-.69s.82,0,.77-.62-.4-.67-.82-.66a2.76,2.76,0,0,0-2.36,1,1.49,1.49,0,0,1-1.73.55c-.87-.15-1.73-.34-2.6-.48a2.63,2.63,0,0,0-3,2.14,2.52,2.52,0,0,0,2.06,2.81c.56.12,1.12.22,1.69.32,1.12.19,2.13.36,2.49,1.8C179.72,204.14,181,204.35,182,204.66Z"/><path class="cls-6" d="M120.46,184.15c1.4.08,2.58-.71,3.93-.92,3.62-.56,7.14-.91,10.56.91a61.18,61.18,0,0,1,5.73,3.53,7.52,7.52,0,0,1,2.66,3.69,1.81,1.81,0,0,0,.87,1.11c.1.87.56,1.76-.06,2.62-.69.13-.91-.44-1.19-.85-2.76-4.05-7-6-11.27-7.81a3.33,3.33,0,0,0-1-.22c-.47,0-.94-.07-1.32-.07a23.85,23.85,0,0,1,14.52,9.71,16.37,16.37,0,0,1,0,1.85c-.07.73-.5,1.35-1.24,1.32-1,0-1.33.38-1.71,1.2a1.58,1.58,0,0,1-2.22.84c-.29-.12-.66-.53-1,0-1.39,2.25-3.49,1.63-5.45,1.21-1.64-.35-3.22-.92-4.84-1.38a8.17,8.17,0,0,0-4,0c-4,.9-8.11,1.83-12.31,1-.65-.12-1.29-.3-1.93-.44a33.57,33.57,0,0,1-.59-8c.29-2.78,1.18-5.34,3.75-6.76a24.12,24.12,0,0,1,4.67-1.54c.91-.28,1.84-.53,2.76-.79A.56.56,0,0,1,120.46,184.15Z"/><path class="cls-6" d="M193.36,171.69a14.64,14.64,0,0,1-5.36-5.81c-1.22-2.23-1.93-4.68-3.16-6.9a1.16,1.16,0,0,1,.39-.82c2.67-2.4,4.35-5.58,6.59-8.32a19.22,19.22,0,0,1,6.55-5.3c1.52-.73,3-1.57,4.53-2.23a5.06,5.06,0,0,1,4.35-.18c0,1.7-.32,3.29-1.92,4.29a6.76,6.76,0,0,0-3.93,3.84c-1.12,2.39-1.71,5-3.42,7.13a9.38,9.38,0,0,1-2.47,2.44,1.78,1.78,0,0,1,2.22-.13.58.58,0,0,1,.11.24c.21,1.75.21,1.75,2,2.12a1,1,0,0,1,.35.17,4.15,4.15,0,0,1,.92,1,5.1,5.1,0,0,0,6.08.92c-2.94.59-5.32,0-7.14-2.15a1.5,1.5,0,0,1,.08-1.26,2.58,2.58,0,0,1,2.65-.75,20.32,20.32,0,0,0,6.55-.54,32.24,32.24,0,0,1-6.8.46,7,7,0,0,1-.92-.08,2.42,2.42,0,0,1-2-2.09,2.2,2.2,0,0,1,1.78-2.19,16.4,16.4,0,0,1,3.42-.41c2.18-.15,4.3-.6,6.44-.94.49-.08,1-.41,1.44.21,1.39,1.88.54,3.51-.64,5a2.14,2.14,0,0,0-.55,1.67c.16,1.57-.8,2.68-1.88,3.62a25,25,0,0,1-9.32,4.91A63,63,0,0,0,193.36,171.69Z"/><path class="cls-7" d="M205,146.16c1-.71,1.83-1.49,1.68-2.9,0-.34.25-.72.4-1.08a1.34,1.34,0,0,1,.22-1.12,43.1,43.1,0,0,1,2.53-4.44,2.27,2.27,0,0,1,.28-.26c1.46-1.64,2.17-3.71,3.19-5.6a1.81,1.81,0,0,1,.3-1.26c2.23-4.26,4.55-8.48,6.84-12.71a4.89,4.89,0,0,0,1.09-2c1.69-3.22,3.46-6.39,5.28-9.53a6.81,6.81,0,0,1,.58-.89,1.4,1.4,0,0,1,1.66-.51,1.46,1.46,0,0,1,1,1.57,4.37,4.37,0,0,1-.52,1.64c-1.19,2.72-2.62,5.32-3.94,8a11.2,11.2,0,0,0-1.06,2q-3.21,6.15-6.34,12.33c-.22.43-.38.92-1,1-1,2-1.9,3.89-2.84,5.84,0,.16-.19.2-.25.33l-2.79,5.81a1.82,1.82,0,0,1-1,1.63,40.24,40.24,0,0,1-4.79,2.49.58.58,0,0,1-.51-.05A.23.23,0,0,1,205,146.16Z"/><path class="cls-1" d="M256.1,174.31c-2-.34-4-.22-5.85-1a4,4,0,0,1-.53-3.73c-.62-3.87-1.26-7.74-1.82-11.62a2.27,2.27,0,0,1,2-2.65,2.39,2.39,0,0,1,2.75,1.91c.2,1,.16,1.95,1.71,1.79.69-.08,1.34.65,1.51,1.46.57,2.57,1.11,5.15,1.65,7.73a2.67,2.67,0,0,1,.72,1.78,1.16,1.16,0,0,1-1.17,1.4,1.15,1.15,0,0,1-1.45-1c-.13-.55-.07-1.13-.24-1.67-.54-1.9-.79-3.86-1.17-5.63.32,1.69.65,3.54,1,5.37.27,1.5.73,2.95,1,4.46A1.77,1.77,0,0,1,256.1,174.31Z"/><path class="cls-4" d="M273.63,173.5c-.41.94-1.27.75-2,.87a12.56,12.56,0,0,1-4.1.25,1.07,1.07,0,0,1-.32-.83c.13-1.52.13-3,.4-4.56a2.14,2.14,0,0,1,.52-1c.61-2.67.62-5.42,1-8.12.16-1,.25-2,.37-3,2.07.46,4.23.35,6.25,1-.44,3.72-1.22,7.39-1.51,11.13A4.74,4.74,0,0,1,273.63,173.5Z"/><path class="cls-8" d="M265.67,174.87h-5.8a9.91,9.91,0,0,1-.06-6.71l0,.07a6.32,6.32,0,0,0,.15-2.33c.05-3.21-.07-6.42.06-9.62a8.66,8.66,0,0,1,5.44.21c.2,3.21,0,6.42.09,9.62a4.36,4.36,0,0,0,.1,1.57l.05.53c.87,1.25.41,2.67.47,4C266.24,173.12,266.42,174.1,265.67,174.87Z"/><path class="cls-9" d="M120.46,184.15l-.75.33c-.66-1.75-.18-3.56-.25-5.34-.16-3.77.14-7.55-.2-11.33-.16-1.86,0-3.75-.11-5.62-.2-4.32-.42-8.63-.69-12.94-.31-5-.68-9.91-1-14.87a7.32,7.32,0,0,1,0-1.41c.33-2.63-1.46-4.22-2.78-6-.69-1-1.41-1.89-2.18-2.76a1.41,1.41,0,0,0-2.31-.18c-2.29,2.07-4.7,4-7,6.12-.85.79-1.24.44-1.77-.24a47.48,47.48,0,0,1-2.9-5.22A63.64,63.64,0,0,1,93.39,114a.86.86,0,0,0,.56-.81c1.61,3,2.66,6.23,4.49,9.1,1.32,2.08,2.19,4.42,3.62,6.45.32.47.53.67,1,.16,1.59-1.83,3.73-3.06,5.33-4.93a18.93,18.93,0,0,1,2.66-2c.39-.32.58.09.76.25,2.71,2.42,5.21,5.06,6.45,8.52.51,1.42.27,3.12.35,4.68.25,5,1,9.9,1,14.86s.54,9.78.67,14.67c.11,4.15.16,8.29.3,12.44C120.67,179.65,120.47,181.9,120.46,184.15Z"/><path class="cls-2" d="M232.86,190.79c.26,0,.53,0,.79.07a1.06,1.06,0,0,1,.88.89c.09.43-.3.6-.58.79-2,1.28-3.93,2.55-5.87,3.85q-9,6-18.06,12.07a4.12,4.12,0,0,1-3.56.75c-3.71-.89-7.53-1.24-11.24-2.17l.66.05c.38,0,.76,0,.86-.41a.66.66,0,0,0-.55-.78,1.63,1.63,0,0,1-1.32-1.4c1.57.25,3.11.52,4.66.74a1.33,1.33,0,0,1,1.26,1.1,2.67,2.67,0,0,0,2.34,2c.32.05.75.2.85-.34s0-.81-.53-.9a1.65,1.65,0,0,1-1.47-1.41c1.91.3,3.78.54,5.63.92a2,2,0,0,0,1.7-.35q10.6-7,21.23-14Z"/><path class="cls-10" d="M205,146.16l0,.32c.08.34-.15.58-.28.85-.54,1.16-.22,1.67,1.09,1.52a28.3,28.3,0,0,0,5.3-1.07c.63-.19,1.35-.62,1.88.23a1.89,1.89,0,0,1,0,.23c.36,1.1-.47,1.3-1.19,1.48a54.43,54.43,0,0,1-7.71,1.4,2.37,2.37,0,0,0-1.94,1c-.63,1-.38,1.6.75,1.79a7.61,7.61,0,0,0,2.65,0c1.83-.32,3.69-.47,5.49-1,.93-.26,1.68-.07,2,1l-.38.49c-1.42.24-2.84.45-4.25.73-1.86.37-3.76.43-5.64.63a7.14,7.14,0,0,0-.93.06c-1,.25-2,.63-1.89,2s1,1.65,2.16,1.71a29.84,29.84,0,0,0,7.36-.64c.37-.08.86-.36,1,.15s-.36.74-.8.84a20.07,20.07,0,0,1-7.07.57,2.86,2.86,0,0,0-2.38.44c-.74-.7-1.47-1.45-2.64-1.06-1.11-.28-2,.46-3.1.57a17.12,17.12,0,0,0,3.68-4c1.36-1.95,1.82-4.28,2.84-6.37A6.56,6.56,0,0,1,205,146.16Z"/><path class="cls-3" d="M213.12,153.87a2.4,2.4,0,0,0-2.53-.45,26.46,26.46,0,0,1-7.19,1c-.8,0-1.79.09-2-1a2.37,2.37,0,0,1,1.63-2.44c2.32-.49,4.72-.6,7-1.18.73-.18,1.46-.34,2.2-.5.53-.12.88-.4.86-1C214.86,150.77,214.86,151.65,213.12,153.87Z"/><path class="cls-11" d="M149.23,184.24c-.89-1.43-.65-3-.47-4.53.29-2.4.22-4.81.39-7.21q.47-6.78.69-13.61c.15-4.7.1-9.4.19-14.1a9.91,9.91,0,0,0,0-2.61c-.09-.41,0-.83.61-.78s.64.35.63.83c0,3.35-.12,6.7-.05,10.06s-.23,6.75-.39,10.12-.43,6.83-.51,10.24c0,1.84-.31,3.65-.38,5.49-.07,2,.24,4.11-.48,6.09l-.12,0Z"/><path class="cls-12" d="M213.05,148c-.52-.39-1.05-.09-1.51.08a36.93,36.93,0,0,1-5.38,1.19c-.84.17-1.95.17-2.22-.63a2.1,2.1,0,0,1,1.12-2.17c1.56-.8,3.1-1.63,4.67-2.4a4.68,4.68,0,0,0,1.63-1.65c1.3,0,3.5,2.12,3.5,3.39S213.94,147.51,213.05,148Z"/><path class="cls-13" d="M160.14,47l-.3,0c.42-.82,1.19-.51,1.82-.51H298.81c.57,0,1.26-.31,1.71.37a3.36,3.36,0,0,1-1.44.14H161.33c-.22,0-.45,0-.67,0A1.14,1.14,0,0,1,160.14,47Z"/><path class="cls-14" d="M160.36,46.92a7.41,7.41,0,0,1,3-.22q36.42,0,72.84,0h62.47c.62,0,1.23.07,1.85.11a.33.33,0,0,1,0,.13,1.51,1.51,0,0,1-1,.15H264.91a2,2,0,0,1-1-.12h-.31a3.15,3.15,0,0,1-1.43.11H161.92A2.69,2.69,0,0,1,160.36,46.92Z"/><path class="cls-1" d="M265.47,156.46a17.71,17.71,0,0,1-5.34-.18c-.13.13-.22.11-.26-.08a7,7,0,0,1,.62-3.34c.5-1.73,1.14-3.43,1.7-5.14.12-.35.24-.69.64-.75a.7.7,0,0,1,.8.55c.69,2.95,2.06,5.74,2,8.85l-.08.09Z"/><path class="cls-11" d="M132.44,114.54c-.05.31-.67.07-.53.59.81,3,.51,6.12.54,9.19a13.51,13.51,0,0,1-.19,4.16c-1,0-1.52-1.32-2.65-1,0-1.42-1.43-1.57-2.12-2.38a3.3,3.3,0,0,0-.6-.51c-1.55-1.15-1.57-1.16-2.43.62-.57,1.18-1.09,2.4-1.59,3.62a4.29,4.29,0,0,1-1.36,1.79,2.11,2.11,0,0,1,.15-2.15c.94-2,1.92-3.93,2.94-5.86.4-.77.91-.74,1.6-.2,1.47,1.16,2.72,2.52,4,3.8.28.27.56.72,1,.5s.16-.65.16-1c0-3.19,0-6.37,0-9.56,0-.77-.47-1.43-.3-2.2Z"/><path class="cls-15" d="M275.75,158.1a18.53,18.53,0,0,1-5-.39,2.39,2.39,0,0,1-1.27-.65,12.44,12.44,0,0,1,1.82-4.84c1.23-.39,2.35.26,3.53.36A20.23,20.23,0,0,1,275.75,158.1Z"/><path class="cls-2" d="M195.25,207.05c-4.47-.65-8.92-1.41-13.33-2.4.54-.61.77-1.1-.32-1.37a1.5,1.5,0,0,1-1.17-1.35l5.56,1c.57.1.57.62.72,1a2.7,2.7,0,0,0,1.94,1.81c.35.07.83.33,1-.21s-.08-.81-.59-1A1.45,1.45,0,0,1,188,203.3l5.06.83c.34.06.35.35.41.6A4.19,4.19,0,0,0,195.25,207.05Z"/><path class="cls-16" d="M158.05,135a2.24,2.24,0,0,0,1,1.4c-.3.78-.82.19-1.24.19l-.66-2.07c.58-.5.32-1.17.32-1.75q0-40.81,0-81.62c0-.59-.26-1.25.29-1.76A2.89,2.89,0,0,1,158,51c0,5.79,0,11.59,0,17.38q0,18.47,0,36.93c0,9.62,0,19.23,0,28.84A1.19,1.19,0,0,1,158.05,135Z"/><path class="cls-17" d="M214.15,136.62l.25-.33c11.42,0,22.84,0,34.26,0q21.71,0,43.42.07c2.35,0,4.7,0,7,0,.47,0,1-.16,1.41.21-6.34,0-12.67.06-19,.07Z"/><path class="cls-18" d="M158,134.48a2.43,2.43,0,0,1-.25-1.54q0-40.66,0-81.33c0-.75,0-1.5.05-2.26a.57.57,0,0,0,.18,0,3,3,0,0,1,.16,1.8c0,3,.16,5.9-.1,8.84v.3a31.67,31.67,0,0,1,0,6.08v.3a44.79,44.79,0,0,1,0,7.14v.31a68.89,68.89,0,0,1,0,8.74v.32a.81.81,0,0,1,.08.25q0,11.68,0,23.36a1.25,1.25,0,0,1-.07.26l0,.31a1.68,1.68,0,0,1,.11.91q0,12.62,0,25.23C158.12,133.81,158.23,134.18,158,134.48Z"/><path class="cls-19" d="M302.88,134.15a11.6,11.6,0,0,1-.18-3.94q0-39.78,0-79.56c0-.51-.16-1.07.19-1.54q0,13.55.06,27.11,0,28.23,0,56.48C302.94,133.18,302.9,133.67,302.88,134.15Z"/><path class="cls-20" d="M259.81,168.16l.06,6.71a10,10,0,0,0-3.77-.56l-1.26-5.8a.49.49,0,0,1,.73,0c.39.38.26.89.31,1.36s0,1.23.95,1.14,1.23-.36.94-1.26a9.91,9.91,0,0,1-.26-1.54Z"/><path class="cls-21" d="M143.85,195.85a15.56,15.56,0,0,1-3-3.07,11.07,11.07,0,0,0-2.91-2.46c-1.47-.81-2.92-1.66-4.36-2.51a11.83,11.83,0,0,0-5.15-1.3,2.68,2.68,0,0,1,3.24-.47c4.68,1.84,9.17,4,12,8.46a4.8,4.8,0,0,0,.51.59A1.07,1.07,0,0,1,143.85,195.85Z"/><path class="cls-22" d="M249.72,169.55c.18,1.24.35,2.49.53,3.73-1.35,0-2.82.39-3.61-1.38a115.74,115.74,0,0,0,1,12c-.11.15-.19.37-.45.24-.37-3.43-.7-6.87-1.11-10.29-.24-2,.05-2.66,1.89-3.55C248.51,170.07,249.12,169.81,249.72,169.55Z"/><path class="cls-23" d="M273.63,173.5c.2-1.42.41-2.85.61-4.27,1.6.38,3.26.61,4.25,2.17-1.06,1.67-2.76,2.19-4.57,2.49C273.85,173.9,273.73,173.64,273.63,173.5Z"/><path class="cls-24" d="M265.67,174.87l.06-6.66,2.36,0-.6,6.43A3.24,3.24,0,0,1,265.67,174.87Z"/><path class="cls-25" d="M263.87,47l36.69,0a3.1,3.1,0,0,1,1.3.6c-12.2-.76-24.41-.1-36.61-.34C264.79,47.18,264.27,47.38,263.87,47Z"/><path class="cls-26" d="M274.85,152.58c-1.25.61-2.36-.19-3.53-.36l1.48-3.3c.12-.25.26-.46.58-.4a.66.66,0,0,1,.49.56A21.13,21.13,0,0,1,274.85,152.58Z"/><path class="cls-27" d="M247.14,184.19l.45-.24c.45,5.51.93,11,1.58,16.51a4.41,4.41,0,0,1-.16,2.59q-.84-8.73-1.67-17.45C247.3,185.12,247,184.69,247.14,184.19Z"/><path class="cls-28" d="M254,205.94c1.31-.61,2.6,0,3.88.14a44.25,44.25,0,0,0,10.54-.23,2.6,2.6,0,0,1,2,.11A48.08,48.08,0,0,1,254,205.94Z"/><path class="cls-29" d="M131.41,53.33c-1.78-.34-3.34-1.31-5.15-1.64-2.34-.42-4.67-.84-7.05-1a1.78,1.78,0,0,1-.57-.28c-.1,0-.14-.08-.11-.12s.07-.06.1-.06a65.22,65.22,0,0,1,7.1,1A14.66,14.66,0,0,1,131.41,53.33Z"/><path class="cls-30" d="M99.77,95.93c1.79.41,1.86.48,1.45,2.4-.12.53.11,1.15-.36,1.59C100.43,98.61,99.58,97.41,99.77,95.93Z"/><path class="cls-31" d="M276.84,190.56c-.67-1.57.05-3.13.09-4.68.05-1.8.36-3.58.56-5.39.05.06.13.11.15.18a1.69,1.69,0,0,1,.08.39C277.43,184.23,277.14,187.39,276.84,190.56Z"/><path class="cls-32" d="M93.4,63.18c.29.24.11.49,0,.7A13.75,13.75,0,0,0,92,70.79a4.62,4.62,0,0,1-.2,2.47c-.08-2.63-.28-5.27.52-7.84A8.21,8.21,0,0,1,93.4,63.18Z"/><path class="cls-33" d="M259.87,156.2l.26.08q0,5.22,0,10.45c0,.51.17,1.07-.28,1.5Z"/><path class="cls-34" d="M265.47,156.46a.19.19,0,0,1,.19-.09q0,5.65,0,11.31c-.34-.32-.23-.74-.23-1.13C265.45,163.19,265.46,159.82,265.47,156.46Z"/><path class="cls-35" d="M158,60,158,49.32l.1-.48c.39.46.19,1,.2,1.53q0,4.17,0,8.34C158.23,59.13,158.4,59.6,158,60Z"/><path class="cls-36" d="M118.63,50.2a1.28,1.28,0,0,0,0,.19,51.36,51.36,0,0,1-7.44-.47A41,41,0,0,1,118.63,50.2Z"/><path class="cls-37" d="M77.34,179.14a15.4,15.4,0,0,1,5.62.33c.93.15.86-.12.85-.85-.1-5,.36-10,.74-14.92.41-5.4,1.11-10.79.79-16.21a25.16,25.16,0,0,0-1.68-7.7,23.6,23.6,0,0,0-6.26-9.44,7.3,7.3,0,0,0-3.65-1.92c-.43-.07-1-.31-.92-.77s.77-.4,1.13-.36a7.26,7.26,0,0,1,3.55,1.7,23.07,23.07,0,0,1,7.43,10.88,33.09,33.09,0,0,1,1.66,10.89c0,3.53-.66,7.06-.79,10.6-.15,4.07-.8,8.11-.8,12.2,0,1.57,0,3.17-.19,4.75A1.38,1.38,0,0,0,86.19,180a38.63,38.63,0,0,1,6.27,1.49c2.26.7,4.57,1.27,6.78,2.1a17.28,17.28,0,0,0,6.1,1.11,21.32,21.32,0,0,1,5.1.62c.42.1,1.12.13,1,.83s-.83.5-1.23.36c-2.29-.81-4.72-.54-7.06-1a1.1,1.1,0,0,0-1.28.64,11.56,11.56,0,0,0-1.75,4.67c-.25,2.28-1.21,4.48-.73,6.89a14.54,14.54,0,0,1,0,2.39.8.8,0,0,1-.63.87c-.46,0-.37-.44-.41-.79a26.44,26.44,0,0,1,2-13.84c.45-1-.09-1.27-.78-1.51a107.15,107.15,0,0,0-13.07-3.62c-3-.6-6-.9-9-1.29-1.2-.15-2.27.56-3.45.6-.49,0-1.23.37-1.4-.18s.64-.73,1.07-1C74.84,178.79,76.12,179.32,77.34,179.14Z"/><path class="cls-38" d="M124.76,115.05c-3,1-5.92.38-8.74-.81a20.17,20.17,0,0,1-9.12-8.51c2.94,2,5.62,4.42,9.13,5.5a21.58,21.58,0,0,0,10.55.58c1,1.14-.72,1.3-.76,2.07C124.84,113.7,125.09,114.64,124.76,115.05Z"/><path class="cls-39" d="M179.36,163.19a19.66,19.66,0,0,0,3.33,9.05,18.38,18.38,0,0,0,4.43,4.5c.19.14.39.24.32.5s-.4.28-.66.28c-.74,0-1.21-.59-1.67-1a19.6,19.6,0,0,1-5.63-8.41,21,21,0,0,1-1.26-4.81c-.05-.58-.2-1.39.59-1.43S179.23,162.72,179.36,163.19Z"/><path class="cls-40" d="M165.92,162.94c.27.88.52,1.76.8,2.63.14.45.25,1,.84,1.06-1.93,1.74-4.4,2.55-6.64,3.76a13,13,0,0,1-1.16.63c-.44.21-.89.24-1.13-.28s.09-.74.49-.92l4.69-2.11a5.53,5.53,0,0,0,.61-.24c2-1.15,2-1.16,1.45-3.42C165.78,163.67,165.57,163.29,165.92,162.94Z"/><path class="cls-41" d="M126.21,173.66c0,1.27-1,2.59-1.6,2.59a3.18,3.18,0,0,1-1.68-2.14c.07-.85.42-1.66,1.42-1.56C125.19,172.63,126.45,172.49,126.21,173.66Z"/><path class="cls-42" d="M121.26,138.65c0-1.34.38-1.89,1.51-1.84a1.48,1.48,0,0,1,1.6,1.4,1.65,1.65,0,0,1-1.73,1.73A1.6,1.6,0,0,1,121.26,138.65Z"/><path class="cls-43" d="M123.6,158.47c-.63-.9-1.64-1.47-1.37-2.75.18-.85.72-1.15,1.41-1s1.63,0,1.42,1.28c-.11.68,0,1.41-.94,1.58C123.8,157.66,123.67,158.09,123.6,158.47Z"/><path class="cls-44" d="M220.78,116.89l-7.44,13.87-21.13,0c-9.06,0-18.12,0-27.19,0-1.11,0-1.51-.2-1.51-1.43q.08-25.71.05-51.4c0-7.92,0-15.84,0-23.77,0-1.34.34-1.67,1.69-1.66q40.47.06,80.94,0,24.86,0,49.71,0c.92,0,1.23.24,1.22,1.18Q297,74,297,94.22q0,11.1,0,22.19c0,4.33,0,8.66,0,13,0,1-.21,1.33-1.32,1.33q-33.56-.06-67.11,0c-3.39,0-6.79,0-10.18,0-.42,0-.9.17-1.23-.26l7-13.57a3.27,3.27,0,0,1,.59-.3c.45-.19,1.19.14,1.34-.55s-.7-.59-.88-1c1.27-2.62,2.55-5.23,3.81-7.84a12.47,12.47,0,0,0,.55-1.48,1.14,1.14,0,0,0-.64-1.54c-.68-.27-1.14.11-1.49.73q-2.44,4.45-4.93,8.89c-.24.42-.53.81-.79,1.21-.76.41-.79-.27-.91-.67a6,6,0,0,1-.12-1.85q0-12.89,0-25.79c0-2.33-.14-2.47-2.49-2.49-1.51,0-3,0-4.52,0-1.75,0-2,.3-2.06,2,0,2.75,0,5.5,0,8.25,0,6,0,12,0,17.95a9.52,9.52,0,0,1-.09,1.85c-.1.57-.36,1.07-.95,1.15a7.18,7.18,0,0,1-4.3-.24,2.72,2.72,0,0,1-.33-1.91c0-6.27,0-12.55,0-18.82,0-.7.08-1.43-.53-2a2.21,2.21,0,0,0-1.4-.3c-1.9,0-3.79,0-5.69,0-1.59,0-1.83.26-1.84,1.88-.05,4.59,0,9.18,0,13.77,0,1.81,0,3.62,0,5.43a2.82,2.82,0,0,1-.42,1.9,6.08,6.08,0,0,1-4.61,0,3.11,3.11,0,0,1-.47-2.28c0-4.69,0-9.38,0-14.08,0-2-.32-2.36-2.4-2.41a35.32,35.32,0,0,0-5,.08c-1.79.23-1.91.39-1.92,2.19,0,4.73,0,9.47,0,14.21a3.66,3.66,0,0,1-.37,2.18c-1.51.8-3.1.48-4.67.29-.61-.07-.83-.6-.92-1.16a12,12,0,0,1-.08-2V67a13.24,13.24,0,0,0-.07-2c0-.27-.14-.56-.45-.59s-.5.31-.55.62a7.42,7.42,0,0,0-.07,1.33c.12,7.89-.06,15.77.06,23.66q.09,6.51-.06,13c-.1,3.9.18,7.79,0,11.69-.05,1.39.19,1.59,1.63,1.62,5.67.11,11.35,0,17,0,5.36,0,10.72,0,16.08,0,3.19,0,6.38-.07,9.57,0C219.47,116.43,220.21,116.3,220.78,116.89Z"/><path class="cls-45" d="M160.36,46.92l27.09,0h46.62l1.85,0v.18c-8.86,0-17.72,0-26.57,0h-48c-.43,0-.89.14-1.26-.23A.79.79,0,0,1,160.36,46.92Z"/><path class="cls-46" d="M210.13,136.61H161.47c-.53,0-1.06,0-1.59-.07.24-.26.56-.21.87-.21h49.14a2.3,2.3,0,0,1,.26,0A.72.72,0,0,0,210.13,136.61Z"/><path class="cls-47" d="M235.93,47.16a1.09,1.09,0,0,1,0-.18l27.64,0a4.73,4.73,0,0,1-2.58.22C252.63,47.2,244.28,47.17,235.93,47.16Z"/><path class="cls-48" d="M158,134.48l0-27.15c.44.4.24.93.24,1.38q0,12.69,0,25.38c0,.31.06.63-.21.87Z"/><path class="cls-48" d="M158,107q0-11.94,0-23.87a1.25,1.25,0,0,1,.23,1q0,10.93,0,21.86C158.25,106.36,158.32,106.73,158,107Z"/><path class="cls-48" d="M158,82.83c0-2.91,0-5.83,0-8.74.48.58.25,1.28.22,1.91C158.15,78.27,158.52,80.57,158,82.83Z"/><path class="cls-49" d="M158,73.78c0-2.38,0-4.76,0-7.14A21.66,21.66,0,0,1,158,73.78Z"/><path class="cls-35" d="M158,66.34V60.26A15.75,15.75,0,0,1,158,66.34Z"/><path class="cls-50" d="M123.25,95.37a2.56,2.56,0,0,1,2.38-.46,3.42,3.42,0,0,0,1.56,0c1.94-.46,2.37-1.18,1.87-3.14-.57-2.22-1.43-4.33-2.2-6.48-.11-.34-.24-.67-.35-1s-.44-.89.22-1.08.76.32.91.74c.33.91.65,1.83,1,2.74a36.26,36.26,0,0,1,1.7,5.42c.41,2.17-.57,3.73-2.77,4A6,6,0,0,1,123.25,95.37Z"/><path class="cls-51" d="M117.24,75.76a8.9,8.9,0,0,1,4.08,1c.27.16.58.36.49.71s-.49.28-.79.24a16.89,16.89,0,0,0-8.84,1c-.33.14-.71.31-.93-.11a.86.86,0,0,1,.24-1.09,6.53,6.53,0,0,1,2.22-1.15A16.13,16.13,0,0,1,117.24,75.76Z"/><path class="cls-52" d="M133.12,75.66a6,6,0,0,1,4.08,2c.18.18.39.4.28.69s-.49.34-.79.32a2.47,2.47,0,0,1-.89-.21,7.91,7.91,0,0,0-5.51-.66c-.31.08-.77.3-.95-.12s.21-.72.56-.92A8.22,8.22,0,0,1,133.12,75.66Z"/><path class="cls-53" d="M117.82,100.11a4.51,4.51,0,0,1,3,0c2,.72,4.09.24,6.14.25a6.11,6.11,0,0,1,1,0c.55.11.5.4.12.7a1.08,1.08,0,0,1-.45.26c-3,.55-5.93.94-8.74-.61-.24-.12-.45-.27-.68-.41Z"/><path class="cls-54" d="M97.1,84.47A2.21,2.21,0,0,1,99,85.94a6.63,6.63,0,0,1,.48,2.32,4.53,4.53,0,0,0,.53,2.55c.12.2.35.49,0,.7s-.51,0-.74-.13a2.08,2.08,0,0,1-.89-1.82c-.05-.52,0-1-.08-1.58-.2-2.25-.2-2.25-2.45-2.49-.29,0-.7.06-.69-.38s.33-.37.6-.41Z"/><path class="cls-55" d="M131.33,83.51c.06-1.34.73-2.3,1.61-2.2a1.46,1.46,0,0,1,1.3,1.69c0,1.17-.88,2.33-1.66,2.21A1.38,1.38,0,0,1,131.33,83.51Z"/><path class="cls-56" d="M117.92,83.18c0,1.36-.57,2.3-1.47,2.31s-1.34-.52-1.33-1.43c0-1.26.79-2.37,1.68-2.36S117.91,82.15,117.92,83.18Z"/><path class="cls-57" d="M125.38,190.32a1.18,1.18,0,0,1,1-.5,11.16,11.16,0,0,1,5.78,1c2.76,1.54,5.65,2.92,8,5.1.62.58,1.92,1.25,1.35,2s-1.37-.49-1.91-1a30.9,30.9,0,0,0-7.72-5,13.64,13.64,0,0,0-5.25-1.13C126.17,190.72,125.72,190.78,125.38,190.32Z"/><path class="cls-58" d="M137.39,200.21a19.76,19.76,0,0,1-3.71-2.21,12.2,12.2,0,0,0-7.41-2.4,19.16,19.16,0,0,1-2.5-.21c-.31,0-.68,0-.68-.45a.57.57,0,0,1,.63-.55c3.86.06,7.66.29,10.83,2.93a22,22,0,0,0,2.17,1.5C137.21,199.15,137.73,199.43,137.39,200.21Z"/><path class="cls-59" d="M200.35,162.05c1.84,1.44,3.82,2.36,6.25,1.74.15,0,.73-.4.91.25s-.22.8-.63,1a5.8,5.8,0,0,1-6.63-2.6A.24.24,0,0,1,200.35,162.05Z"/><path class="cls-60" d="M200.35,162.05c0,.12-.07.24-.1.36h-.4c-2.37.11-2.77-.38-2.17-2.66,1.48-1,1.75-.94,2.64,1.06Z"/><path class="cls-2" d="M220.78,116.89l-20.17-.06c-8.41,0-16.81,0-25.22,0-1.22,0-1.39-.58-1.39-1.55q0-8.69,0-17.37,0-11.81,0-23.61,0-4.52,0-9a2.91,2.91,0,0,1,0-.66c.14-.56.34-1.2,1-1.14a1.09,1.09,0,0,1,1,1.2c0,1.77,0,3.54,0,5.32q0,21.78,0,43.57c0,1.1.23,1.61,1.45,1.48s2.48-.07,3.72-.1a1.82,1.82,0,0,1,1.36-.42q3.78-.06,7.58,0a1.91,1.91,0,0,1,1.35.45l4.62,0a1.1,1.1,0,0,1,.82-.37,62.54,62.54,0,0,1,9.08.12,3.87,3.87,0,0,1,.43.27c1.2,0,2.4,0,3.59,0,.93.06,1.2-.27,1.19-1.19,0-7.22,0-14.43,0-21.65,0-2.25,0-4.51,0-6.77A1.53,1.53,0,0,1,213,83.67c2.17,0,4.34,0,6.51,0,1.55,0,1.83.35,1.83,1.9q0,14.07,0,28.14c0,.42-.44,1.14.49,1.24A2.48,2.48,0,0,1,220.78,116.89Z"/><path class="cls-61" d="M225.31,115c.38,0,.83-.15,1.12.17a1.37,1.37,0,0,1,.33,1.21c-.09.53-.56.45-.94.47l-1.56,0C224.68,116.28,224.62,115.43,225.31,115Z"/><path class="cls-62" d="M255.57,168.47l-.73,0c-.4-2.16-.78-4.33-1.2-6.49,0-.28-.15-.54.2-.63s.37.25.42.49C254.7,164.08,255.13,166.27,255.57,168.47Z"/><path class="cls-2" d="M261,116.88q-12.63,0-25.24,0c-1.08,0-1.54-.07-1.52-1.48.12-7.66.07-15.33.05-23s-.09-15.22-.11-22.82c0-1.64.11-3.27.12-4.9,0-.65.13-.83.89-.86,4.77-.18,9.54.06,14.31,0,6.2-.1,12.39,0,18.59,0,3.84,0,7.69,0,11.53,0,2.33,0,4.67,0,7-.09.9,0,1.19.25,1.19,1.2q0,25.25,0,50.49c0,1.32-.5,1.48-1.6,1.48C277.8,116.87,269.39,116.88,261,116.88Z"/><path class="cls-4" d="M206.13,115l-10,0q0-10.83-.06-21.65c0-1.21.52-1.77,1.78-1.74,2.26,0,4.52,0,6.78,0,.42,0,.9-.11,1.24.29a2,2,0,0,1,.42,1.22c0,7.17,0,14.34,0,21.5A.78.78,0,0,1,206.13,115Z"/><path class="cls-1" d="M191.49,115l-10.29,0c0-5.66,0-11.32-.06-17,0-1.23.33-1.82,1.7-1.94a60.75,60.75,0,0,1,6.88,0c1.29,0,1.82.63,1.8,2C191.45,103.68,191.49,109.34,191.49,115Z"/><path class="cls-2" d="M221.51,69.09a39.55,39.55,0,0,1-.44,4.6c-.32,1.23-.87,1.42-1.87.68-2.11-1.56-2.1-1.54-4,.17-3.32,3-6.68,5.94-10,9a1.56,1.56,0,0,1-2.49,0c-1.78-1.6-3.63-3.12-5.37-4.76a1.29,1.29,0,0,0-2.09,0c-3.76,3.29-7.58,6.53-11.38,9.77a2.06,2.06,0,0,1-1.62.76A2.1,2.1,0,0,1,180.7,88c-.34-.63.22-1,.6-1.31,4.74-4,9.5-8,14.22-12,.7-.6,1.18-.32,1.75.1a60.43,60.43,0,0,1,5.36,4.75c.93.85,1.48.81,2.4-.08,2.84-2.73,5.78-5.37,8.74-8,.89-.78,1-1.26,0-2a8.87,8.87,0,0,1-1.57-1.61c-.64-.81-.43-1.35.58-1.64a3.39,3.39,0,0,1,1.17-.17c2.07.16,4.15.33,6.21.57C221.6,66.86,221.71,67.91,221.51,69.09Z"/><path class="cls-63" d="M206.13,115c0-7.11,0-14.23,0-21.34,0-.63-.3-1.15-.31-1.75.84.36.56,1.12.56,1.74q0,10.68,0,21.35Z"/><path class="cls-64" d="M284.59,106.26l-9.07-10.89c-.48-.58-1-1.15-1.49-1.69-1.34-1.36-2.54-1.39-3.86,0-1.54,1.64-3,3.37-4.48,5.06-.76.48-1-.22-1.33-.62-1.18-1.55-2.29-3.15-3.41-4.74-1.63-2.32-3.34-4.58-5-6.87-1.31-1.81-2.16-1.83-3.43,0-2.65,3.71-5.38,7.36-8,11.06l-6,8.41a2.16,2.16,0,0,1-1.55,1.14c-.74,0-.55-.55-.56-1,0-1.37,0-2.75,0-4.12V67.76c0-1.79,0-1.79,1.75-1.79h46c1.48,0,1.48,0,1.48,1.53,0,2,0,3.9,0,5.85-.18,10.26.43,20.52.27,30.79,0,.53,0,1.06,0,1.59C285.66,106.54,285.27,106.71,284.59,106.26Z"/><path class="cls-44" d="M237.26,106.79Q242.65,99.4,248,92c1.46-2,2.89-4,4.34-6,1.29-1.76,2.35-1.79,3.62,0,2.91,4,14,19.33,15.29,21.21s2.64,3.37,4,5a8.24,8.24,0,0,1,1.43,2.6c-.35.45-34.17.07-35.49,0a38.22,38.22,0,0,0-4.54.08c-.69.07-.73-.22-.73-.73a28.24,28.24,0,0,1,.08-3,17.21,17.21,0,0,1,.29-3C236.38,107.86,237.26,106.82,237.26,106.79Z"/><path class="cls-65" d="M237.26,106.79l-1.07,1.6V79c0-4,0-8.06,0-12.1,0-.82.21-1,1-1q23.73,0,47.46,0c.74,0,1.09.1,1.09,1-.05,7.35,0,14.7-.05,22.06a2.37,2.37,0,0,1,.24,1.28c0,5.32,0,10.63,0,16,0,.47.11,1-.27,1.39l-1.06-1.25c1,.23.81-.48.81-1V75.45c0-2.66-.06-5.32,0-8,0-1.14-.37-1.4-1.44-1.4q-23,0-46,0c-1.16,0-1.54.36-1.54,1.53q.06,19.14,0,38.29C236.44,106.53,236.48,107,237.26,106.79Z"/><path class="cls-66" d="M285.89,89V85.59h.31V93.5q0,6.5,0,13c0,.38.13.81-.3,1.08-.21-3.09-.07-6.19-.07-9.28S285.67,92.11,285.89,89Z"/><path class="cls-64" d="M285.89,89v18.56l-.23-.07q0-9.32.05-18.62Z"/><path class="cls-66" d="M286,84.61V75h.11v9.69Z"/><path class="cls-66" d="M286.13,66.41v5.75H286V66.41Z"/><path class="cls-67" d="M263.52,79.86c0-4.13,2.82-7.1,6.77-7.11a6.71,6.71,0,0,1,6.57,6.78,6.82,6.82,0,0,1-6.65,7A6.73,6.73,0,0,1,263.52,79.86Z"/><path class="cls-2" d="M91.49,5.15l-3.77,11H85.43L90.19,3.47h1.46Zm3,6.26v1.73H87.59V11.41Zm.19,4.69-3.79-11L90.7,3.47h1.47L96.94,16.1Z"/><path class="cls-2" d="M103.15,11.39H99.86V9.66h3.29a3,3,0,0,0,1.39-.28,1.72,1.72,0,0,0,.77-.76,2.41,2.41,0,0,0,.25-1.13,2.52,2.52,0,0,0-.25-1.12,2,2,0,0,0-.77-.85,2.72,2.72,0,0,0-1.39-.32h-2.62V16.1H98.35V3.47h4.8a5.53,5.53,0,0,1,2.49.51,3.7,3.7,0,0,1,1.57,1.43,3.94,3.94,0,0,1,.54,2.07,4,4,0,0,1-.54,2.1,3.46,3.46,0,0,1-1.57,1.34A6,6,0,0,1,103.15,11.39Z"/><path class="cls-2" d="M119.76,9.44v.69a8.22,8.22,0,0,1-.37,2.57,5.55,5.55,0,0,1-1.07,1.93,4.5,4.5,0,0,1-1.65,1.22,5.59,5.59,0,0,1-4.25,0,4.53,4.53,0,0,1-1.66-1.22,5.43,5.43,0,0,1-1.09-1.93,7.93,7.93,0,0,1-.39-2.57V9.44a8.17,8.17,0,0,1,.38-2.57,5.83,5.83,0,0,1,1.08-1.93,4.62,4.62,0,0,1,1.66-1.22,5.59,5.59,0,0,1,4.25,0,4.45,4.45,0,0,1,1.66,1.22,5.64,5.64,0,0,1,1.07,1.93A8.17,8.17,0,0,1,119.76,9.44Zm-2.18.69V9.42a8,8,0,0,0-.2-1.87,4.15,4.15,0,0,0-.6-1.36,2.48,2.48,0,0,0-1-.83,2.85,2.85,0,0,0-1.29-.29,2.77,2.77,0,0,0-1.28.29,2.46,2.46,0,0,0-1,.83,3.77,3.77,0,0,0-.6,1.36,7.47,7.47,0,0,0-.21,1.87v.71a7.47,7.47,0,0,0,.21,1.87,3.81,3.81,0,0,0,.61,1.38,2.73,2.73,0,0,0,1,.84,3.11,3.11,0,0,0,2.58,0,2.54,2.54,0,0,0,1-.84,4.17,4.17,0,0,0,.6-1.38A8,8,0,0,0,117.58,10.13Z"/><path class="cls-2" d="M122.76,3.47l2.93,6,2.94-6H131l-4.25,8V16.1h-2.2V11.45l-4.25-8Z"/><path class="cls-2" d="M142.23,9.44v.69a8.21,8.21,0,0,1-.38,2.57,5.38,5.38,0,0,1-1.06,1.93,4.5,4.5,0,0,1-1.65,1.22,5.61,5.61,0,0,1-4.26,0,4.71,4.71,0,0,1-1.66-1.22,5.58,5.58,0,0,1-1.09-1.93,8.21,8.21,0,0,1-.38-2.57V9.44a8.17,8.17,0,0,1,.38-2.57,5.5,5.5,0,0,1,1.08-1.93,4.62,4.62,0,0,1,1.66-1.22,5.59,5.59,0,0,1,4.25,0,4.53,4.53,0,0,1,1.66,1.22,5.64,5.64,0,0,1,1.07,1.93A8.17,8.17,0,0,1,142.23,9.44Zm-2.18.69V9.42a8,8,0,0,0-.2-1.87,4.15,4.15,0,0,0-.6-1.36,2.56,2.56,0,0,0-1-.83,3,3,0,0,0-2.58,0,2.5,2.5,0,0,0-.95.83,4,4,0,0,0-.61,1.36,7.47,7.47,0,0,0-.21,1.87v.71a7.47,7.47,0,0,0,.21,1.87,4.18,4.18,0,0,0,.61,1.38,2.76,2.76,0,0,0,1,.84,3.11,3.11,0,0,0,2.58,0,2.62,2.62,0,0,0,.95-.84,4.17,4.17,0,0,0,.6-1.38A8,8,0,0,0,140.05,10.13Z"/><path class="cls-2" d="M151,3.47V16.1h-2.18V3.47Zm6,0V5.2h-6.66V3.47Zm-.83,5.27v1.7h-5.83V8.74Zm.88,5.63V16.1h-6.71V14.37Z"/><path class="cls-2" d="M168.87,3.47V16.1h-2.18l-5.66-9V16.1h-2.18V3.47H161l5.68,9.06V3.47Z"/><path class="cls-2" d="M175.87,3.47h4.47a6.24,6.24,0,0,1,2.45.43,3.37,3.37,0,0,1,1.56,1.28,3.82,3.82,0,0,1,.54,2.09,3.79,3.79,0,0,1-.35,1.66,3.3,3.3,0,0,1-1,1.21,4.56,4.56,0,0,1-1.51.76l-.66.32h-4l0-1.72h3a2.69,2.69,0,0,0,1.3-.28,1.87,1.87,0,0,0,.79-.76,2.28,2.28,0,0,0,.26-1.09,2.35,2.35,0,0,0-.26-1.15,1.72,1.72,0,0,0-.78-.75,2.93,2.93,0,0,0-1.34-.27H178V16.1h-2.17Zm7.21,12.63-3-5.67h2.28l3,5.57v.11Z"/><path class="cls-2" d="M189.23,3.47V16.1h-2.18V3.47Zm6,0V5.2h-6.66V3.47Zm-.83,5.27v1.7h-5.83V8.74Zm.88,5.63V16.1h-6.71V14.37Z"/><path class="cls-2" d="M204.55,12h2.16a4.87,4.87,0,0,1-.69,2.2,4,4,0,0,1-1.66,1.53,5.54,5.54,0,0,1-2.59.55,5.13,5.13,0,0,1-2.11-.42,4.5,4.5,0,0,1-1.6-1.2,5.12,5.12,0,0,1-1-1.87,8,8,0,0,1-.35-2.47V9.26a7.9,7.9,0,0,1,.36-2.46,5.56,5.56,0,0,1,1-1.89,4.61,4.61,0,0,1,1.63-1.2,5.24,5.24,0,0,1,2.14-.41,5.4,5.4,0,0,1,2.55.55A4.07,4.07,0,0,1,206,5.39a5.41,5.41,0,0,1,.7,2.24h-2.17a3.93,3.93,0,0,0-.37-1.39,2,2,0,0,0-.86-.89A3,3,0,0,0,201.85,5a2.8,2.8,0,0,0-1.3.28,2.4,2.4,0,0,0-.93.81,3.79,3.79,0,0,0-.56,1.32,8.15,8.15,0,0,0-.19,1.8v1.06A8.25,8.25,0,0,0,199,12a4.17,4.17,0,0,0,.52,1.34,2.52,2.52,0,0,0,.9.85,2.57,2.57,0,0,0,1.31.31,3.3,3.3,0,0,0,1.51-.3,2,2,0,0,0,.87-.86A4.07,4.07,0,0,0,204.55,12Z"/><path class="cls-2" d="M215.77,3.47h2.17v8.44a4.43,4.43,0,0,1-.62,2.41,3.89,3.89,0,0,1-1.7,1.46,5.61,5.61,0,0,1-2.39.49,5.7,5.7,0,0,1-2.43-.49,3.79,3.79,0,0,1-1.68-1.46,4.42,4.42,0,0,1-.61-2.41V3.47h2.17v8.44a3.15,3.15,0,0,0,.31,1.5,2,2,0,0,0,.89.86,3.39,3.39,0,0,0,2.7,0,2,2,0,0,0,.88-.86,3.15,3.15,0,0,0,.31-1.5Z"/><path class="cls-2" d="M220.31,3.47h4.47a6.21,6.21,0,0,1,2.45.43,3.37,3.37,0,0,1,1.56,1.28,3.82,3.82,0,0,1,.54,2.09A3.79,3.79,0,0,1,229,8.93a3.3,3.3,0,0,1-1,1.21,4.56,4.56,0,0,1-1.51.76l-.66.32h-4l0-1.72h3a2.69,2.69,0,0,0,1.3-.28,1.87,1.87,0,0,0,.79-.76,2.28,2.28,0,0,0,.26-1.09,2.47,2.47,0,0,0-.25-1.15,1.79,1.79,0,0,0-.79-.75,2.93,2.93,0,0,0-1.34-.27h-2.29V16.1h-2.18Zm7.21,12.63-3-5.67h2.28l3,5.57v.11Z"/><path class="cls-2" d="M238.13,12.85a1.91,1.91,0,0,0-.11-.7,1.42,1.42,0,0,0-.41-.55,3.63,3.63,0,0,0-.83-.49,10.73,10.73,0,0,0-1.36-.49,14.44,14.44,0,0,1-1.66-.62,6,6,0,0,1-1.32-.8,3.36,3.36,0,0,1-.88-1,2.92,2.92,0,0,1-.31-1.38,3.1,3.1,0,0,1,.32-1.4,3.36,3.36,0,0,1,.93-1.1,4.47,4.47,0,0,1,1.43-.72,6.11,6.11,0,0,1,1.82-.25,5.21,5.21,0,0,1,2.42.52,3.81,3.81,0,0,1,1.57,1.39,3.56,3.56,0,0,1,.55,1.94h-2.16A2.22,2.22,0,0,0,237.87,6a1.9,1.9,0,0,0-.8-.76A2.94,2.94,0,0,0,235.72,5a3,3,0,0,0-1.28.24,1.63,1.63,0,0,0-1,1.53,1.29,1.29,0,0,0,.17.65,1.93,1.93,0,0,0,.5.54,4.44,4.44,0,0,0,.85.46,9.36,9.36,0,0,0,1.21.42,12.61,12.61,0,0,1,1.83.69,5.32,5.32,0,0,1,1.3.85,3.1,3.1,0,0,1,.78,1.08,3.49,3.49,0,0,1,.26,1.37,3.17,3.17,0,0,1-.32,1.43,3,3,0,0,1-.92,1.09,4.08,4.08,0,0,1-1.42.68,6.56,6.56,0,0,1-1.84.24A6.72,6.72,0,0,1,234,16a5.2,5.2,0,0,1-1.6-.74A3.72,3.72,0,0,1,231.28,14a3.55,3.55,0,0,1-.42-1.76H233a2.26,2.26,0,0,0,.22,1.05,1.86,1.86,0,0,0,.59.71,2.58,2.58,0,0,0,.89.4,4.23,4.23,0,0,0,1.09.13,3.43,3.43,0,0,0,1.28-.21,1.71,1.71,0,0,0,.77-.61A1.54,1.54,0,0,0,238.13,12.85Z"/><path class="cls-2" d="M252.32,9.44v.69a8.21,8.21,0,0,1-.38,2.57,5.38,5.38,0,0,1-1.06,1.93,4.5,4.5,0,0,1-1.65,1.22,5.61,5.61,0,0,1-4.26,0,4.71,4.71,0,0,1-1.66-1.22,5.75,5.75,0,0,1-1.09-1.93,8.21,8.21,0,0,1-.38-2.57V9.44a8.17,8.17,0,0,1,.38-2.57,5.5,5.5,0,0,1,1.08-1.93A4.62,4.62,0,0,1,245,3.72a5.59,5.59,0,0,1,4.25,0,4.53,4.53,0,0,1,1.66,1.22,5.64,5.64,0,0,1,1.07,1.93A8.17,8.17,0,0,1,252.32,9.44Zm-2.18.69V9.42a8,8,0,0,0-.2-1.87,4.15,4.15,0,0,0-.6-1.36,2.56,2.56,0,0,0-1-.83,3,3,0,0,0-2.58,0,2.5,2.5,0,0,0-.95.83,4,4,0,0,0-.61,1.36A7.47,7.47,0,0,0,244,9.42v.71a7.47,7.47,0,0,0,.21,1.87,4.18,4.18,0,0,0,.61,1.38,2.76,2.76,0,0,0,1,.84,3.11,3.11,0,0,0,2.58,0,2.62,2.62,0,0,0,1-.84,4.17,4.17,0,0,0,.6-1.38A8,8,0,0,0,250.14,10.13Z"/><path class="cls-2" d="M261.13,12.85a1.9,1.9,0,0,0-.12-.7,1.25,1.25,0,0,0-.41-.55,3.24,3.24,0,0,0-.83-.49,10,10,0,0,0-1.35-.49,14.63,14.63,0,0,1-1.67-.62,6.52,6.52,0,0,1-1.32-.8,3.32,3.32,0,0,1-.87-1,2.93,2.93,0,0,1-.32-1.38,3,3,0,0,1,.33-1.4,3.24,3.24,0,0,1,.93-1.1,4.42,4.42,0,0,1,1.42-.72,6.18,6.18,0,0,1,1.83-.25,5.23,5.23,0,0,1,2.42.52,3.87,3.87,0,0,1,1.57,1.39,3.56,3.56,0,0,1,.55,1.94h-2.16A2.33,2.33,0,0,0,260.87,6a2,2,0,0,0-.8-.76,3.46,3.46,0,0,0-2.63,0,1.69,1.69,0,0,0-.77.63,1.65,1.65,0,0,0-.25.9,1.29,1.29,0,0,0,.17.65,1.79,1.79,0,0,0,.5.54,4.16,4.16,0,0,0,.85.46,9.18,9.18,0,0,0,1.2.42,12.61,12.61,0,0,1,1.83.69,5.2,5.2,0,0,1,1.31.85,3.38,3.38,0,0,1,.78,1.08,3.49,3.49,0,0,1,.26,1.37,3.17,3.17,0,0,1-.32,1.43,3.1,3.1,0,0,1-.92,1.09,4.16,4.16,0,0,1-1.42.68,6.63,6.63,0,0,1-1.85.24A6.83,6.83,0,0,1,257,16a5.31,5.31,0,0,1-1.6-.74A3.69,3.69,0,0,1,254.28,14a3.45,3.45,0,0,1-.43-1.76H256a2.4,2.4,0,0,0,.21,1.05,1.8,1.8,0,0,0,.6.71,2.5,2.5,0,0,0,.89.4,4.15,4.15,0,0,0,1.08.13,3.39,3.39,0,0,0,1.28-.21,1.69,1.69,0,0,0,.78-.61A1.61,1.61,0,0,0,261.13,12.85Z"/><path class="cls-2" d="M87.83,21.47l3.29,10.32.46,2.31H89.94L85.43,21.47ZM90.9,31.79l3.32-10.32h2.4L92.1,34.1H90.47Z"/><path class="cls-2" d="M100.36,21.47V34.1H98.19V21.47Z"/><path class="cls-2" d="M109.71,30.85a1.91,1.91,0,0,0-.11-.7,1.42,1.42,0,0,0-.41-.55,3.63,3.63,0,0,0-.83-.49,10.73,10.73,0,0,0-1.36-.49,14.44,14.44,0,0,1-1.66-.62,6,6,0,0,1-1.32-.8,3.36,3.36,0,0,1-.88-1.05,2.92,2.92,0,0,1-.31-1.38,3.1,3.1,0,0,1,.32-1.4,3.36,3.36,0,0,1,.93-1.1,4.47,4.47,0,0,1,1.43-.72,6.11,6.11,0,0,1,1.82-.25,5.21,5.21,0,0,1,2.42.52,3.81,3.81,0,0,1,1.57,1.39,3.56,3.56,0,0,1,.55,1.94h-2.16a2.22,2.22,0,0,0-.26-1.11,1.9,1.9,0,0,0-.8-.76A2.94,2.94,0,0,0,107.3,23a3,3,0,0,0-1.28.24,1.63,1.63,0,0,0-1,1.53,1.29,1.29,0,0,0,.17.65,1.93,1.93,0,0,0,.5.54,4.44,4.44,0,0,0,.85.46,9.36,9.36,0,0,0,1.21.42,12.61,12.61,0,0,1,1.83.69,5.32,5.32,0,0,1,1.3.85,3.1,3.1,0,0,1,.78,1.08,3.49,3.49,0,0,1,.26,1.37,3.17,3.17,0,0,1-.32,1.43,3,3,0,0,1-.92,1.09,4.08,4.08,0,0,1-1.42.68,6.56,6.56,0,0,1-1.84.24,6.72,6.72,0,0,1-1.79-.24,5.2,5.2,0,0,1-1.6-.74A3.72,3.72,0,0,1,102.86,32a3.55,3.55,0,0,1-.42-1.76h2.17a2.26,2.26,0,0,0,.22,1,1.86,1.86,0,0,0,.59.71,2.58,2.58,0,0,0,.89.4,4.23,4.23,0,0,0,1.09.13,3.43,3.43,0,0,0,1.28-.21,1.71,1.71,0,0,0,.77-.61A1.54,1.54,0,0,0,109.71,30.85Z"/><path class="cls-2" d="M120.91,21.47h2.17v8.44a4.43,4.43,0,0,1-.62,2.41,3.84,3.84,0,0,1-1.7,1.46,5.61,5.61,0,0,1-2.39.49,5.7,5.7,0,0,1-2.43-.49,3.79,3.79,0,0,1-1.68-1.46,4.51,4.51,0,0,1-.61-2.41V21.47h2.17v8.44a3.28,3.28,0,0,0,.31,1.5,2,2,0,0,0,.89.86,3.39,3.39,0,0,0,2.7,0,2,2,0,0,0,.88-.86,3.15,3.15,0,0,0,.31-1.5Z"/><path class="cls-2" d="M130.18,23.15l-3.78,11h-2.28l4.76-12.63h1.45Zm3,6.26v1.73h-6.87V29.41Zm.19,4.69-3.79-11-.16-1.68h1.46l4.78,12.63Z"/><path class="cls-2" d="M139.22,21.47V34.1H137V21.47ZM145,32.37V34.1h-6.34V32.37Z"/><path class="cls-2" d="M148.81,21.47V34.1h-2.18V21.47Zm6.05,0V23.2H148.2V21.47ZM154,26.74v1.7H148.2v-1.7Zm.88,5.63V34.1h-6.7V32.37Z"/><path class="cls-2" d="M163.32,30.85a1.9,1.9,0,0,0-.12-.7,1.42,1.42,0,0,0-.41-.55,3.63,3.63,0,0,0-.83-.49,10.73,10.73,0,0,0-1.36-.49,14.44,14.44,0,0,1-1.66-.62,6,6,0,0,1-1.32-.8,3.36,3.36,0,0,1-.88-1.05,2.92,2.92,0,0,1-.31-1.38,3.1,3.1,0,0,1,.32-1.4,3.36,3.36,0,0,1,.93-1.1,4.47,4.47,0,0,1,1.43-.72,6.11,6.11,0,0,1,1.82-.25,5.21,5.21,0,0,1,2.42.52,3.81,3.81,0,0,1,1.57,1.39,3.57,3.57,0,0,1,.56,1.94h-2.16a2.23,2.23,0,0,0-.27-1.11,1.9,1.9,0,0,0-.8-.76A2.94,2.94,0,0,0,160.9,23a3,3,0,0,0-1.28.24,1.61,1.61,0,0,0-1,1.53,1.28,1.28,0,0,0,.16.65,1.93,1.93,0,0,0,.5.54,4.44,4.44,0,0,0,.85.46,9.36,9.36,0,0,0,1.21.42,12.61,12.61,0,0,1,1.83.69,5.32,5.32,0,0,1,1.3.85,3.1,3.1,0,0,1,.78,1.08,3.49,3.49,0,0,1,.26,1.37,3.17,3.17,0,0,1-.32,1.43,3.08,3.08,0,0,1-.91,1.09,4.21,4.21,0,0,1-1.43.68,6.56,6.56,0,0,1-1.84.24,6.72,6.72,0,0,1-1.79-.24,5.2,5.2,0,0,1-1.6-.74A3.82,3.82,0,0,1,156.46,32a3.55,3.55,0,0,1-.42-1.76h2.17a2.39,2.39,0,0,0,.22,1A1.86,1.86,0,0,0,159,32a2.58,2.58,0,0,0,.89.4,4.23,4.23,0,0,0,1.09.13,3.43,3.43,0,0,0,1.28-.21,1.8,1.8,0,0,0,.78-.61A1.61,1.61,0,0,0,163.32,30.85Z"/><path class="cls-2" d="M173.05,21.47l2.93,6,2.93-6h2.41l-4.25,8V34.1h-2.19V29.45l-4.25-8Z"/><path class="cls-2" d="M187.11,21.47H189l.32,8.43v4.2h-2.17Zm.88,0h1.95l3.65,9.74,3.64-9.74h2L194.35,34.1h-1.54Zm10.22,0h1.86V34.1h-2.18V29.9Z"/><path class="cls-2" d="M207.72,23.15,204,34.1h-2.28l4.75-12.63h1.46Zm3,6.26v1.73h-6.87V29.41Zm.18,4.69-3.78-11-.17-1.68h1.47l4.77,12.63Z"/><path class="cls-2" d="M222.62,21.47V23.2H212.57V21.47Zm-4,0V34.1H216.5V21.47Z"/><path class="cls-2" d="M226.47,21.47V34.1h-2.18V21.47Zm6,0V23.2h-6.66V21.47Zm-.83,5.27v1.7h-5.83v-1.7Zm.88,5.63V34.1h-6.71V32.37Z"/><path class="cls-2" d="M234.33,21.47h4.46a6.26,6.26,0,0,1,2.46.43,3.42,3.42,0,0,1,1.56,1.28,4.22,4.22,0,0,1,.19,3.75,3.3,3.3,0,0,1-1,1.21,4.56,4.56,0,0,1-1.51.76l-.66.32h-4l0-1.72h3a2.69,2.69,0,0,0,1.3-.28,1.79,1.79,0,0,0,.78-.76,2.18,2.18,0,0,0,.27-1.09,2.47,2.47,0,0,0-.26-1.15,1.72,1.72,0,0,0-.78-.75,3,3,0,0,0-1.35-.27H236.5V34.1h-2.17Zm7.21,12.63-3-5.67h2.28l3,5.57v.11Z"/><path class="cls-2" d="M247.83,21.47V34.1h-2.17V21.47Z"/><path class="cls-2" d="M255.61,23.15l-3.77,11h-2.28l4.75-12.63h1.46Zm3,6.26v1.73h-6.87V29.41Zm.18,4.69-3.78-11-.17-1.68h1.47l4.77,12.63Z"/><path class="cls-2" d="M264.65,21.47V34.1h-2.17V21.47Zm5.74,10.9V34.1h-6.34V32.37Z"/><path class="cls-2" d="M274.25,21.47V34.1h-2.18V21.47Zm6,0V23.2h-6.66V21.47Zm-.83,5.27v1.7h-5.83v-1.7Zm.88,5.63V34.1h-6.71V32.37Z"/><path class="cls-2" d="M288.75,30.85a1.9,1.9,0,0,0-.12-.7,1.25,1.25,0,0,0-.41-.55,3.24,3.24,0,0,0-.83-.49,10,10,0,0,0-1.35-.49,14.63,14.63,0,0,1-1.67-.62,6.52,6.52,0,0,1-1.32-.8,3.32,3.32,0,0,1-.87-1.05,2.93,2.93,0,0,1-.32-1.38,3,3,0,0,1,.33-1.4,3.36,3.36,0,0,1,.93-1.1,4.42,4.42,0,0,1,1.42-.72,6.18,6.18,0,0,1,1.83-.25,5.23,5.23,0,0,1,2.42.52,3.87,3.87,0,0,1,1.57,1.39,3.56,3.56,0,0,1,.55,1.94h-2.16a2.33,2.33,0,0,0-.26-1.11,2,2,0,0,0-.8-.76,3.46,3.46,0,0,0-2.63,0,1.69,1.69,0,0,0-.77.63,1.65,1.65,0,0,0-.25.9,1.29,1.29,0,0,0,.17.65,1.79,1.79,0,0,0,.5.54,4.16,4.16,0,0,0,.85.46,9.18,9.18,0,0,0,1.2.42,13.23,13.23,0,0,1,1.84.69,5.32,5.32,0,0,1,1.3.85,3.38,3.38,0,0,1,.78,1.08,3.49,3.49,0,0,1,.26,1.37,3.17,3.17,0,0,1-.32,1.43,3.1,3.1,0,0,1-.92,1.09,4.16,4.16,0,0,1-1.42.68,6.61,6.61,0,0,1-1.84.24,6.85,6.85,0,0,1-1.8-.24,5.31,5.31,0,0,1-1.6-.74A3.69,3.69,0,0,1,281.9,32a3.45,3.45,0,0,1-.43-1.76h2.18a2.4,2.4,0,0,0,.21,1,1.8,1.8,0,0,0,.6.71,2.5,2.5,0,0,0,.89.4,4.18,4.18,0,0,0,1.09.13,3.37,3.37,0,0,0,1.27-.21,1.69,1.69,0,0,0,.78-.61A1.61,1.61,0,0,0,288.75,30.85Z"/></svg>