<svg id="Capa_1" data-name="Capa 1" xmlns="http://www.w3.org/2000/svg" viewBox="0 0 373.81 229.23"><defs><style>.cls-1{fill:#fff;}.cls-2{fill:#b2b094;}.cls-3{fill:#c17845;}.cls-4{fill:none;stroke:#fff;stroke-miterlimit:10;}.cls-5{fill:#42211f;}.cls-6{fill:#f4b7ac;}.cls-7{fill:#c7895e;}.cls-8{fill:#c85346;}.cls-9{fill:#a73b34;}.cls-10{fill:#6c2910;}</style></defs><path class="cls-1" d="M267.06,155c-5.24-2.37-6-8.07-8.2-11s-7.42-4.79-7.42-4.79a19,19,0,0,1,13-3,17.18,17.18,0,0,1,8.88,3.95c-1.19-3.43,0-5.41-2-8.68-2.39-3.81-7.07-5.87-9.69-12.21a16.17,16.17,0,0,1,0-12,10.83,10.83,0,0,0,4,4.56c2.86,2,10.9,2.35,15.67,8.5-2.47-34.7-26.59-53.67-43.28-63.56-14.34-8.5-23.6-26.23-62.34-23.67s-47.37,27.43-57,46.24c-5.32,10.42-17.33,12.72-27.46,19.89,7.5-2,12.25,1.65,17.9,2.79,6.77,1.37,7.84-3.4,13.92-3.37s8.36,2.16,8.36,2.16-6.08-.91-8.06,4.26-4.41,7.11-10.49,6.29-7.84-.38-11.06,2.52-10.68.76-14.93,1.83c-2.53.63-5.95,5.1-8.33,8.64a36.44,36.44,0,0,1,8.09-4.85c9.88-4.41,22.5,3.66,22.5,3.66s-10,2.28-15.73,6.23-9.88.15-13.83,1.52a45.78,45.78,0,0,0-4.68,1.9v.05c-.8,12.29,3.85,23.2,11.74,32.55,19.32,22.9,58.09,36.47,84.2,38.09,27.3,1.7,75.21-8.45,98-38.67a62.83,62.83,0,0,0,5.42-8.5A18,18,0,0,1,267.06,155Z"/><circle class="cls-2" cx="154.11" cy="83.68" r="14.33" transform="translate(-20.42 66.57) rotate(-22.9)"/><circle class="cls-2" cx="252.87" cy="69.34" r="5.2"/><path class="cls-3" d="M268.77,164.84c-22.75,30.22-70.66,40.37-98,38.67-26.11-1.62-64.88-15.19-84.2-38.09,7.36-8.15,26.17-24.67,60.89-29.32C194.17,129.85,226.7,166.91,262,165,264.34,164.82,266.61,164.79,268.77,164.84Z"/><path class="cls-2" d="M117.48,68.51c4.33-13-5.93-7-9.81,1.3S96.5,79,96.5,83.68,113.15,81.51,117.48,68.51Z"/><path class="cls-2" d="M236.28,52.21S224.2,42,219.29,38.64s-2.73-7.75,8.5-2.62,16,15,14.53,17.1S236.28,52.21,236.28,52.21Z"/><path class="cls-2" d="M124.13,82.9a.78.78,0,1,1-.78-.78A.78.78,0,0,1,124.13,82.9Z"/><path class="cls-2" d="M130.67,84.37a.78.78,0,1,1-.78-.78A.78.78,0,0,1,130.67,84.37Z"/><path class="cls-2" d="M152.51,61.11a.78.78,0,1,1-.78-.78A.78.78,0,0,1,152.51,61.11Z"/><path class="cls-2" d="M254.43,130.15a.78.78,0,0,1-1.56,0,.78.78,0,0,1,1.56,0Z"/><path class="cls-2" d="M257.08,128.05a.76.76,0,0,1-.77.77.77.77,0,0,1-.78-.77.78.78,0,0,1,.78-.78A.77.77,0,0,1,257.08,128.05Z"/><circle class="cls-2" cx="127.85" cy="80.37" r="1.25"/><circle class="cls-2" cx="260.15" cy="88.87" r="1.25"/><path class="cls-4" d="M126.6,126.58A1.63,1.63,0,1,1,125,125,1.63,1.63,0,0,1,126.6,126.58Z"/><path class="cls-4" d="M218.45,57.29a1.63,1.63,0,1,1-1.63-1.63A1.63,1.63,0,0,1,218.45,57.29Z"/><circle class="cls-4" cx="137.09" cy="52.09" r="5.18" transform="translate(-9.55 53.9) rotate(-21.51)"/><circle class="cls-4" cx="277.47" cy="96.75" r="10.62" transform="translate(-15.99 111.98) rotate(-22.19)"/><circle class="cls-4" cx="78.41" cy="148.4" r="10.62"/><path class="cls-5" d="M158.89,40.37s-2.23,1.16-2.34,6.06,4.59,7.16,7.55,7.11l-.26-.76s-5-.56-6.35-4.84A7.48,7.48,0,0,1,159,40.77Z"/><path class="cls-5" d="M240.36,125.83s-1,7.74-14.6,10.69-27.58-4.78-27.58-4.78l2.28-.23a34.52,34.52,0,0,0,17.42,4,23.33,23.33,0,0,0,14.88-6.34Z"/><path class="cls-5" d="M243.71,88.39c.84-9.57-12.39-19.42-28.15-22s-14.63-19.35-14.63-19.35L169.44,65.2s-1.45,15-11.95,23.47-12.3,28.43-7.38,36.31,13.66,8.45,27.24,7.6,19.87-.14,35,1.13,25.86,4.69,35-12S243.71,88.39,243.71,88.39Zm-1.27-.77s-1.62-4.72-7.81-9.57a87.9,87.9,0,0,0-11.12-7.53c19.28,6,19.49,17.1,19.49,17.1Z"/><path class="cls-6" d="M158.59,79.86s-4.47,4-7.63,12.47S141.11,127,141.11,127l10.8,6.74,10.45-28.55Z"/><path class="cls-7" d="M201.65,120.46a18.83,18.83,0,0,0,1.13,14.74l.58,2.5h0l1.59,6.85c-10.89,9.45-26,12.63-35.31,10.58A15.65,15.65,0,0,1,158,145.47l1.44-10.06L156.94,113s-1.92-3-2.74-9.72,4.39-23.45,4.39-23.45l16.94-6.77,12.35-1,20.61,7.82,2.66,6.68c-.09,3.69-2.81,13.19-5.65,22.17C204.15,113,202.78,117.11,201.65,120.46Z"/><path class="cls-6" d="M188,73.14c-1.94,3.52-8.85,8-11.64,7s-.53-6-.53-6c0-.7,0-1.35.07-2,.13-4,.11-5.67.11-5.67l12-7.93a30.59,30.59,0,0,0-.47,4.77A73.55,73.55,0,0,0,188,73.14Z"/><path class="cls-8" d="M188,58.62a30.59,30.59,0,0,0-.47,4.77,27.86,27.86,0,0,1-6,6.84,9.31,9.31,0,0,1-5.59,2c.13-4,.11-5.67.11-5.67Z"/><path class="cls-6" d="M163,54.4s.42,9.82,7.33,14.24,16.59-4.84,18.25-10,1.11-16.18,1.11-16.18-9.13-6.08-16-6.08S163,39.88,163,39.88Z"/><path class="cls-5" d="M170.85,36.62s-.2,3.61,6.43,7.83,10.24,5.08,10.24,5.08l1.41,7.75s-1,2.43-1.24,3.32a20.48,20.48,0,0,0-.18,4s5.61-.83,7.54-6a16.48,16.48,0,0,0,5.95-12c.2-7.74-3.8-10.16-3.8-10.16a13,13,0,0,0-11.27-10.86c-10.24-1.59-18.39,4.15-18.39,4.15s-5-.69-7.68,2.84-1,7.81-1,7.81a5.67,5.67,0,0,0-1,6,6.64,6.64,0,0,0,5,4.22s.35-6.36,2.22-9.54A11.44,11.44,0,0,1,170.85,36.62Z"/><path class="cls-6" d="M188,50.67s1.31-3.25,4-3.6,2.9,4.43,1,7.61-4.5,2.56-4.5,2.56Z"/><path class="cls-5" d="M186.69,47.06s1.79,5.41.76,9.69a6.58,6.58,0,0,0,.67-.84c.87-1.26,1.23-6.07,1.62-7.72Z"/><path class="cls-5" d="M167.4,30.2a13.38,13.38,0,0,1,6.54-4.6,13.22,13.22,0,0,1,7.88,0l.7-.05A12.82,12.82,0,0,0,174,25a18.74,18.74,0,0,0-7.65,4.93Z"/><path class="cls-5" d="M197.2,36.43a6.1,6.1,0,0,1,3.81,3,5.74,5.74,0,0,1,0,5.2l-.24-.32a5.09,5.09,0,0,0-.28-4.65c-1.42-2.43-3.24-2.31-3.24-2.31Z"/><path class="cls-5" d="M163.84,49s.28-.66,2.33-.62a5.23,5.23,0,0,1,3.27,1.19,4.12,4.12,0,0,0-2.8-2A2.56,2.56,0,0,0,163.84,49Z"/><path class="cls-5" d="M170.85,36.62a10.44,10.44,0,0,0,1.76,6.4c2.07,2.86,8.2,2.86,8.2,2.86l.25.55s-6.06,0-8.5-2.12a8.35,8.35,0,0,1-2.26-7.69Z"/><path class="cls-5" d="M175,49.18s.33-.75,2.69-.71a6.08,6.08,0,0,1,3.78,1.37,4.75,4.75,0,0,0-3.24-2.31A2.93,2.93,0,0,0,175,49.18Z"/><path class="cls-9" d="M169.44,58.48a3.89,3.89,0,0,0,1.49.66,3.26,3.26,0,0,0,2,0,1.75,1.75,0,0,0-1.26-.8A7.73,7.73,0,0,0,169.44,58.48Z"/><path class="cls-8" d="M169.44,49.53a4.75,4.75,0,0,1,.9,2.49,11.87,11.87,0,0,1,0,3.21S169.51,50.53,169.44,49.53Z"/><path class="cls-6" d="M164.1,51.53a8.83,8.83,0,0,0,2.26.57,9.41,9.41,0,0,0,2.82-.26,3.31,3.31,0,0,0-1.92-1.91C165.15,49.35,164.1,51.53,164.1,51.53Z"/><path class="cls-6" d="M175,51.79a2.5,2.5,0,0,1,2.25-1.95c2-.35,4.45,1.8,4.45,1.8S177.66,53.55,175,51.79Z"/><path class="cls-5" d="M166.7,52.09a7.94,7.94,0,0,1-2.6-.56l-.26.18a1.77,1.77,0,0,1-.55.16,1.89,1.89,0,0,0,1,.12,5,5,0,0,0,2.37.65,4.61,4.61,0,0,0,2.54-.57v-.23A11.1,11.1,0,0,1,166.7,52.09Z"/><path class="cls-5" d="M181.67,51.64a14.22,14.22,0,0,1-3.34.54,11.11,11.11,0,0,1-3.27-.45l-.31.2a2.82,2.82,0,0,1-.68.2,2.63,2.63,0,0,0,1.22.07,6.92,6.92,0,0,0,3,.57,5.07,5.07,0,0,0,3.23-.87A.92.92,0,0,0,181.67,51.64Z"/><path class="cls-9" d="M169.44,61.61a8.9,8.9,0,0,0,1.75.44,17.52,17.52,0,0,0,4.71-.44,25.08,25.08,0,0,0-3.23-.36,2.62,2.62,0,0,0-1.31.43,2.7,2.7,0,0,0-1.15-.57,5.75,5.75,0,0,0-1.24.25Z"/><path class="cls-8" d="M169.94,63.09a4.73,4.73,0,0,0,2.34.69,8.49,8.49,0,0,0,2.88-.53,3.76,3.76,0,0,1-2.61,1.38A2.77,2.77,0,0,1,169.94,63.09Z"/><path class="cls-10" d="M153,151.57l5.95-12.74s4,4.17,16.05,4.59,28.39-5.71,28.39-5.71,4.18,10.78,4.18,14.79-23.86,19.84-23.86,19.84l-14.14-1.05Z"/><path class="cls-6" d="M152.29,172.34s-3.91,1.52-5.25,2.15a66.92,66.92,0,0,0-8.18,1.29c-2.34.69-2.93,3.83-3.51,7.22s-4.94,7.95-6.3,10.31a7.83,7.83,0,0,0-.52,5.75c.18.58-.59,2.56.38,3.79s1.54.59,2.09.29.71-1.38.71-1.38a6.8,6.8,0,0,0,2.07-.74c.56-.43,0-.44,1.38-.89a9,9,0,0,0,2.89-1.38c.78-.57,5.18-8.21,8-10.66s7.86-3.3,7.86-3.3Z"/><path class="cls-10" d="M228.79,186.06c-9.54,2.41-30.23,4.1-48.78,5.2-19.12,1.13-35.95,1.63-35.95,1.63l-2.83-9-2.51-8,55.55-11s-1.51-11.51,10.59-17.7c0,0,36,.28,44.76,10.42S248.91,181,228.79,186.06Z"/><path class="cls-6" d="M174.55,182.9s3.91,1.52,5.25,2.15a68.7,68.7,0,0,1,8.18,1.29c2.35.69,2.94,3.83,3.51,7.22s4.95,7.95,6.31,10.31a7.94,7.94,0,0,1,.52,5.75c-.19.58.58,2.56-.39,3.79s-1.54.59-2.08.29-.71-1.38-.71-1.38a7.11,7.11,0,0,1-2.08-.73c-.56-.44,0-.45-1.38-.9a9.16,9.16,0,0,1-2.89-1.38c-.78-.57-5.18-8.21-8-10.66s-7.86-3.3-7.86-3.3Z"/><path class="cls-10" d="M156,149.33s-47.5,0-55.1,8.45a15,15,0,0,0,2.75,22.8c6.12,3.58,70.3,17.94,70.3,17.94l3.38-19.63-9.47-3,5.07-6.79Z"/><path class="cls-5" d="M155.88,151.16s9.92,12.27,15.3,15.92C171.18,167.08,160.11,165.94,155.88,151.16Z"/><path class="cls-5" d="M117.6,161.79s8.24,1.05,21.11,3.8,29.17,10.34,29.17,10.34-16.71-11.4-29.8-14.14S117.6,161.79,117.6,161.79Z"/><path class="cls-5" d="M163.53,173.16s38.31-11.43,54.35-14c0,0-33.92,10.2-50,16.81Z"/><path class="cls-5" d="M200.46,150.15s-18.57,9.17-24.82,18.46C175.64,168.61,195.22,158.57,200.46,150.15Z"/><path class="cls-6" d="M151.91,133.69S148.76,126,141.36,126L112,145.87a11.51,11.51,0,0,0-3.09-1c-2.65-.49-7.88-.43-9.23-.67-.65-.12-.69.21-.41.64-.43-.18-1.12.3-1.65,1.08-.83,1.23-2.92,3.52-2.92,4.81s2.27,2.57,3.63,2.63c0,0-4.62,1.17-5.48,2.83s1.42,1.42,2.16,1.05,5.47-1.66,5.47-1.66-4.67,2.58-4.8,4.36,1.48.74,3,0,4.12-2.09,4.12-2.09-3.82,2.77-3.14,4,3.81-1.58,6.34-2.73,4.42-1.31,6.55-2.14a10.24,10.24,0,0,0,4.55-3.65C122.31,151.39,144.79,142.65,151.91,133.69Zm-49.46,16.73a6,6,0,0,1-4.8-.37c-.31-.37,2-2.52,2-4.18a1.77,1.77,0,0,0-.09-.62,4.31,4.31,0,0,0,1.32.93c1.29.55,4.12.85,4.86,1.29S104.54,149.68,102.45,150.42Z"/><path class="cls-5" d="M248.63,108.45s2.68,8.16.85,14.25-8.83,7.45-8.83,7.45l1.12-1.4s6.9-1.16,7.28-10.63C249.4,109.71,248.63,108.45,248.63,108.45Z"/><path class="cls-8" d="M106.17,147.37a11.22,11.22,0,0,0,4.9,1.32c2.59,0-.52,1.16-2.45.58A3.71,3.71,0,0,1,106.17,147.37Z"/><path class="cls-8" d="M114.31,152a9.69,9.69,0,0,0-3.8,1.22c-2.21,1.16-3.37,4.11-4,3.64S107.56,151.8,114.31,152Z"/><path class="cls-8" d="M99,153.29s4.85,3.93,5.43,4S102.45,153.5,99,153.29Z"/><path class="cls-10" d="M158.69,111.19s2.4-1.25,9.69-1.25,19.45,2.85,19.45,2.85S165.42,112.9,158.69,111.19Z"/><path class="cls-10" d="M202.79,135.33l.58,2.51h0L193,141s5.26-12.71,5.16-22.44,3.08-21.84,3.08-21.84l4.24,12.09c-1.34,4.26-2.71,8.41-3.85,11.75A18.82,18.82,0,0,0,202.79,135.33Z"/><path class="cls-6" d="M256.22,165.54c-.54-1.79-4.85-3.8-4.85-3.8,1.34.19,3.82-.65,4.06-1.91s-1.39-3.91-2-5.27c-.38-.87-1-1.47-1.42-1.37.35-.37.38-.7-.29-.7-1.37,0-6.5-1.05-9.19-1.06a12.31,12.31,0,0,0-2.53.23L220.34,124c-1.08-6.76-2.59-23.88-4.36-31.46-2.32-9.92-7.49-12.68-7.49-12.68s-6.42,3.82-7.48,11.2,8.34,40.45,8.34,40.45c3.35,9.41,21,24.44,23.41,27.24h0a12.73,12.73,0,0,0,4,3.91c1.94,1.21,3.78,1.73,6,3.32s4.83,5,5.72,3.86-2.34-4.51-2.34-4.51l3.66,2.82c1.32,1,2.69,2.33,2.9.55s-3.9-5.18-3.9-5.18,4.41,2.15,5.07,2.65S256.76,167.33,256.22,165.54Zm-8.35-7.47c-1.92-1.11-3.52-3.23-2.72-3.52s3.65-.06,5-.36a4.19,4.19,0,0,0,1.47-.67,1.62,1.62,0,0,0-.2.6c-.31,1.63,1.58,4.18,1.21,4.48A6,6,0,0,1,247.87,158.07Z"/><path class="cls-8" d="M244.53,154.82a11.24,11.24,0,0,1-4.91,1.32c-2.58,0,.53,1.16,2.46.58A3.71,3.71,0,0,0,244.53,154.82Z"/><path class="cls-8" d="M234.71,158.29a9.91,9.91,0,0,1,3.8,1.22c2.21,1.16,3.37,4.11,4,3.64S241.46,158.13,234.71,158.29Z"/><path class="cls-8" d="M249.41,161s-4.86,3.92-5.44,4S246,161.19,249.41,161Z"/><path class="cls-10" d="M173.8,76.15s-2.3,4.39,1.36,5.59,9.93-3,13.12-6c0,0-4.22,6.78-11.06,7.86S172,77.65,173.8,76.15Z"/></svg>