<svg xmlns="http://www.w3.org/2000/svg" viewBox="0 0 142.02 142.02"><defs><style>.cls-1{fill:#6c2911;}.cls-2{fill:#fff;}.cls-3{fill:#c7895e;}</style></defs><g id="Capa_2" data-name="Capa 2"><g id="Capa_1-2" data-name="Capa 1"><circle class="cls-1" cx="71.01" cy="71.01" r="71.01"/><circle class="cls-2" cx="71.01" cy="71.01" r="60.69"/><path class="cls-3" d="M42.67,62.76C44,61.32,43.78,60,43,58.35c-3.27-6.39-3.46-4.47,1.54-9.48s3.1-4.73,9.28-1.54c1.64.85,2.86.5,4.51.11,3.76-.9,5.21-3.41,5.85-6.77.4-2.08,1.46-3.14,3.68-2.77,1.21.21,1.72-.31,1.71-1.6,0-2.12.26-4-2.41-5.18s-3.62-4.87-2.65-7.77a6.92,6.92,0,1,1,10,8.23c-.65.4-1.79.33-1.86,1.34a19.19,19.19,0,0,0,.09,4.42c.16.94,1.26.61,1.92.54,1.8-.16,2.84.53,3.12,2.32a3,3,0,0,0,.14.42c1.82,5.56,1.92,5.62,7.45,7.49,1,.32,1.57-.18,2.27-.51,7.13-3.43,4.71-3.9,10.39,1.71,4.5,4.43,4.19,2.86,1.36,8.62C98,60.7,98,60.68,99.71,63.39c1.66-1.5,3.28-3,4.93-4.45a2.13,2.13,0,0,0,.61-1.81c0-1.55,0-3.11,0-4.67,0-2.5.42-4.84-2.63-6.52-2.56-1.4-2.83-5.09-1.52-7.82a6.86,6.86,0,0,1,7.11-3.87A7,7,0,0,1,114.14,40a6.59,6.59,0,0,1-3.92,7.26c-1.66.63-2,1.49-1.92,3.07.13,2.51,0,5,.06,7.56A3.57,3.57,0,0,1,107,61c-2.11,1.84-4.14,3.75-6.44,5.84,2.22.73,4.1,1.4,6,2a2.43,2.43,0,0,1,2.06,2.69c-.08,2.66-.06,5.33,0,8a2.26,2.26,0,0,1-1.88,2.58,12.54,12.54,0,0,1-1.7.5c-3.83.33-5.11,3.09-6.14,6.2-.32,1-.1,1.2.8,1.19,1.48,0,3,0,4.45,0s2,.67,2,2c0,2,0,4,0,6,0,1,.3,1.47,1.38,1.41,1.25-.07,2.52,0,3.78,0,.51,0,1.2-.14,1.52.13,2.14,1.81.82,4.26,1,6.42.13,1.53-1.16,1.64-2.35,1.64q-12.55,0-25.12,0a12.75,12.75,0,0,0-4.17.48c-3.19,1.09-5.11,3.9-5.3,7.72-.15,2.84-1.13,3.8-4,3.89-.37,0-.74,0-1.12,0-5.71,0-5.71,0-6.76-5.47-.79-4.13-3.83-6.56-8.47-6.6-6.15,0-12.3,0-18.45,0-2.52,0-5,0-7.56,0-1.7,0-2.41-.65-2.4-2.37,0-6.87-.48-5.86,5.55-5.79,1.93,0,2.42-.59,2.25-2.38-.15-1.62,0-3.26,0-4.89s.69-2.29,2.28-2.24c1.4,0,2.81,0,4.22,0,1,0,1.14-.33.74-1.21a36.67,36.67,0,0,1-1.52-3.93c-.32-1-1.13-1.09-1.88-1.34-6.28-2.16-6.31-2.16-6.27-8.69,0-6.38-.76-4.88,5-6.94,1-.36,2.59-.23,2.82-1.39s-1.19-1.81-2-2.37c-4.67-3-6.55-7.12-5.57-12.58.13-.72,0-1.49,0-2.22a2.12,2.12,0,0,0-1.62-2.61,6.65,6.65,0,0,1-4.17-7.52,6.92,6.92,0,0,1,13.34-1,6.61,6.61,0,0,1-3,8.06A2.53,2.53,0,0,0,36.76,49a10.62,10.62,0,0,1,0,3.33C35.54,57.66,39.16,60.15,42.67,62.76ZM90,89.7c4.64.69,5,.5,6.65-3.45A9.84,9.84,0,0,0,97.48,84c.28-2,1.55-2.75,3.35-3.29,4.74-1.42,4.62-1.5,4.76-6.53,0-1.92-.54-2.9-2.4-3.19-3.41-.54-5.9-2.08-6.39-5.86a4.68,4.68,0,0,0-.9-2c-1.34-1.81-1-3.43,0-5.31,2.21-4,2-4-1-7.27-1.68-1.89-3.1-2-5-.64-2.39,1.69-4.83,2.3-7.46.28A6.79,6.79,0,0,0,79.59,49c-1.93-.37-2.79-1.47-3.34-3.33-1.4-4.77-1.49-4.67-6.51-4.77-1.84,0-2.93.39-3.22,2.33-.51,3.55-2.27,6-6.06,6.47a3.92,3.92,0,0,0-1.81.82c-1.79,1.4-3.41,1-5.28,0-4-2.22-4-2-7.44,1.14-1.53,1.43-2.08,2.63-.73,4.43,2,2.65,2.45,5.38.34,8.28a7.26,7.26,0,0,0-1.1,2.88,3.38,3.38,0,0,1-2.74,2.79c-5.32,1.68-5.27,1.72-5.23,7.29,0,1.29.27,2.18,1.66,2.36,4.07.55,6.34,2.72,7.5,6.8s2,4.06,6.25,3.1c-4.3-9.13-5-12.27-4.2-17.48a23.25,23.25,0,0,1,9.13-15.47,23.55,23.55,0,0,1,29.55.89C93.73,63.86,98.59,76.71,90,89.7Zm1.48-11.82c0-11.39-5.84-19.39-14.45-22a20.51,20.51,0,0,0-21.87,32.6,3.67,3.67,0,0,0,3,1.55,15.08,15.08,0,0,1,11.79,6.13c.91,1.16,1.26,1.2,2.18,0A15.07,15.07,0,0,1,83.89,90a3.65,3.65,0,0,0,3-1.54C89.88,84.68,91.45,80.4,91.48,77.88Zm-41.9,21.5c2.45,0,4.9,0,7.34,0a15.61,15.61,0,0,1,12.94,6.17c1,1.23,1.36,1.2,2.31,0a15.65,15.65,0,0,1,13-6.16c4.44,0,8.89,0,13.33,0,4.72,0,4.66,0,4.62-4.62,0-1.35-.39-1.79-1.76-1.77-5.26.06-10.52.05-15.78,0-6,0-10.33,2.62-12.82,8.14-.35.76-.68,1.5-1.7,1.5s-1.35-.75-1.69-1.51c-2.53-5.63-6.94-8.22-13-8.14-4.22.06-8.45,0-12.67,0-4.72,0-4.67,0-4.64,4.64,0,1.34.33,1.82,1.73,1.77C43.65,99.31,46.62,99.38,49.58,99.38Zm-3.89,3.1c-4.37,0-8.74,0-13.12,0-.67,0-1.37-.08-1.37,1s.48,1.14,1.27,1.12c.51,0,1,0,1.55,0,7.63,0,15.27-.06,22.9,0,6.18.06,10.48,3.82,11.17,9.83.2,1.81.75,2.52,2.54,2.22a6.18,6.18,0,0,1,1.55,0c1.08.09,1.5-.27,1.66-1.45,1-7.26,4.9-10.61,12.27-10.62,7.64,0,15.27,0,22.9,0,.75,0,1.75.3,1.81-1s-.95-1.06-1.7-1.06c-8.23,0-16.45-.09-24.67,0-5.3.08-9.08,2.78-11.48,7.45-.46.89-.59,2.14-1.9,2.19s-1.51-1.19-2-2.09c-2.45-4.85-6.37-7.49-11.85-7.58C53.4,102.43,49.54,102.48,45.69,102.48ZM74.86,25.69A3.85,3.85,0,1,0,71,29.43,3.94,3.94,0,0,0,74.86,25.69ZM38.54,40.4a3.76,3.76,0,0,0-3.72-3.83,3.68,3.68,0,0,0-3.88,3.63,3.83,3.83,0,0,0,3.79,4A3.91,3.91,0,0,0,38.54,40.4ZM111.1,41a3.86,3.86,0,0,0-3.84-3.75,3.9,3.9,0,0,0-3.77,3.84A3.81,3.81,0,1,0,111.1,41Z"/><path class="cls-3" d="M85.31,73.9c-2.33.31-3.54,1.25-3.16,3.65a16.15,16.15,0,0,1,0,3.11A8.63,8.63,0,0,1,75,88.83,22.63,22.63,0,0,1,69,89c-5-.41-8.53-3.93-8.21-8.94.24-3.82-.76-6.17-4.57-7.12-.83-.2-1.7-.65-1.72-1.77s.88-1.45,1.68-1.82c4.55-2.15,9.11-4.27,13.64-6.45a3.29,3.29,0,0,1,3.15,0q6.8,3.27,13.65,6.43A2.58,2.58,0,0,1,88.42,72c-.09,2.51,0,5,0,7.55,0,1-.14,2-1.44,2.07s-1.65-1-1.65-2.12C85.3,77.67,85.31,75.83,85.31,73.9Zm-2.07-2.75L72,65.81a1.37,1.37,0,0,0-1.26.06c-3.59,1.71-7.18,3.4-11.13,5.27,4,1.89,7.63,3.6,11.26,5.34a1.54,1.54,0,0,0,1.46-.17ZM79,76.82c-.34.06-.59,0-.75.14-4.34,3-8.7,3.49-13.13.19a2.87,2.87,0,0,0-.4-.18c-.51-.23-.74-.12-.91.47-.76,2.66.27,6.34,2.55,7.49a10.63,10.63,0,0,0,10.18,0C79.72,83.17,79.19,79.91,79,76.82Z"/></g></g></svg>