<svg xmlns="http://www.w3.org/2000/svg" viewBox="0 0 282.25 210.74"><defs><style>.cls-1{isolation:isolate;}.cls-2,.cls-9{fill:#fff;}.cls-3{fill:#6c2910;}.cls-4{fill:#615289;opacity:0.31;}.cls-10,.cls-14,.cls-16,.cls-18,.cls-19,.cls-21,.cls-4,.cls-6{mix-blend-mode:multiply;}.cls-5{fill:#e3a18b;}.cls-6{fill:#c19dab;}.cls-21,.cls-6{opacity:0.43;}.cls-7{fill:#dad49d;}.cls-14,.cls-8{fill:#9e986f;}.cls-9{mix-blend-mode:screen;opacity:0.28;}.cls-11{fill:#5b445a;}.cls-12,.cls-13,.cls-18,.cls-19,.cls-21{fill:#efb2a0;}.cls-13{opacity:0.57;}.cls-15{fill:#00e5e0;mix-blend-mode:soft-light;opacity:0.56;}.cls-16{fill:#ff0652;opacity:0.13;}.cls-17{fill:#c8895e;}.cls-18{opacity:0.35;}.cls-19{opacity:0.51;}.cls-20{fill:#0077c4;}</style></defs><g class="cls-1"><g id="Capa_1" data-name="Capa 1"><path class="cls-2" d="M158.09,28.89a11.8,11.8,0,0,0-1.27-5.31c-1.24-2.23-3.55-3.13-6.08-3.16a9,9,0,0,0-.24-1.37c-.81-3.07-4.29-5.64-7.17-4.28.16-4.24-3.39-8-7.51-9s-8.52.38-12,2.75a18.26,18.26,0,0,0-32.29,6c-4.92-1.43-10.15,1.62-13.37,5.6a16.57,16.57,0,0,0-4,9.57,10.1,10.1,0,0,0,4.46,9c2.89,1.75,6.52,1.57,9.87,1.13a8.87,8.87,0,0,0,15.38,7.23,9,9,0,0,0,14.78,7.31A14.06,14.06,0,0,0,139.22,46a5.11,5.11,0,0,0,.48.45c2.27,1.85,5.67,1.49,8.33.27C154.61,43.71,158.38,36.13,158.09,28.89Z"/><circle class="cls-3" cx="117.68" cy="29.84" r="16.93"/><path class="cls-4" d="M229.8,54.67c-.6,0-1.2,0-1.81,0a71.92,71.92,0,0,0-24.1,4.86,61.27,61.27,0,0,0-8.52,3.8,17.53,17.53,0,0,0-6.23,5.43A8.81,8.81,0,0,0,188,71a5.93,5.93,0,0,0,0,2.93c.22,1.2.45,2.41.67,3.61a22.26,22.26,0,0,0,1,4.28c1,2.49,3.78,3.35,5.64,5a6.92,6.92,0,0,1,1.89,4.73c.36,3.8-.22,7.53-.27,11.32a20.69,20.69,0,0,0,3.14-.27c.52-.09,1-.2,1.54-.33a5.6,5.6,0,0,0,1.52-.47c.48-.33.59-1.24.72-1.8s.27-1.36.37-2c.39-2.78.45-5.71,1.55-8.34,1.73-4.1,7.15-6.66,10.52-2.87,3.75,4.21,3,10.44,1.68,15.44-1.92,7.34-5.23,14.43-5.18,22.17a30.47,30.47,0,0,0,.65,6.32c.26,1.22.81,3.94,2.28,4.47a.29.29,0,0,1,.5-.17l.37.34c.42-1.17.87-2.32,1.35-3.46,3.32-7.84,7.94-15,11.69-22.69,4.92-10,8.36-21.06,7.87-32.22A40.68,40.68,0,0,0,229.8,54.67Z"/><path class="cls-5" d="M217.86,131.88c3.32-7.84,7.94-15,11.69-22.69,4.92-10,8.36-21.06,7.87-32.22s-5.33-22.47-14.38-29a42,42,0,0,0-12-5.79c-14.78-4.71-31.66-4-45,4s-22.31,23.58-20.37,39a27.52,27.52,0,0,1,.49,6.19c-.63,6.11-6.47,10.09-10.23,15-1.23,1.6-2.27,4.08.22,5.27l.41.16,8.38,3a2.41,2.41,0,0,1,.79.46c1.5,1.38-.14,3.7-.79,5.21s-.93,2.41.6,3,6.64-.29,8.77-.62a.17.17,0,0,1,.13.3c-1.47,1.13-5,1.56-6,1.83s-2.28.29-3.11.94a.8.8,0,0,0-.23.29c-.62,1.32,1,2.1,1.59,3,.94,1.41-.35,3.19-.75,4.84-.82,3.41,2.59,6.56,6.05,7.14s6.94-.52,10.42-.93,7.52.12,9.54,3c4,5.62-3.08,14.7,1.46,19.88a10.43,10.43,0,0,0,3.78,2.42,57.72,57.72,0,0,0,24,4.75c3.93-.07,8.11-.65,11.11-3.2,4.74-4,2-9.66,1.61-14.8C213.35,145.15,215.18,138.23,217.86,131.88Z"/><path class="cls-6" d="M175.3,133.58c-3.68.66-7.28,1.68-10.94,2.43l-2.56.53a23.43,23.43,0,0,1-8.61,2.18,10.19,10.19,0,0,1-6.39-1.61,7.8,7.8,0,0,1-.75-.63,7.79,7.79,0,0,0,5.88,4.5c3.45.58,6.94-.52,10.42-.93s7.52.12,9.54,3c4,5.62-3.08,14.7,1.46,19.88a6.75,6.75,0,0,0,1.32,1.13,60.44,60.44,0,0,1,.39-7.35c.11-1.84.18-3.67.37-5.48a11.71,11.71,0,0,1,.71-4,21.17,21.17,0,0,1,1.54-3.95.21.21,0,0,1,0-.15,18.78,18.78,0,0,1,1.47-2.67c.51-1,1.09-2,1.7-3a9.41,9.41,0,0,0,.39-1C182.36,132.78,177.6,133.16,175.3,133.58Z"/><path class="cls-6" d="M147.47,131.39c1.66-.41,5.94-2,4.87-4.39-.47-1.08-2-.51-2.87-.27s-2,.56-3,.76a4.84,4.84,0,0,1-1.17.09c.41.51,1,1,1.33,1.42a2.82,2.82,0,0,1,.06,2.55Z"/><path class="cls-6" d="M146.19,115.83l.06.24.16-.18c.93-1,2-2.3.37-3.26-2.3-1.34-5.25-.75-7.58-2.07a3.48,3.48,0,0,1-1.83-2.55,5.51,5.51,0,0,1,1.43-3.63c2.07-2.81,4.84-5.2,6-8.59a5.51,5.51,0,0,0,.27-1c-2,4.26-6.25,7.56-9.24,11.43-1,1.28-1.84,3.12-.87,4.42a4.12,4.12,0,0,0,2,1.19l7.21,2.55C145,114.66,145.91,115,146.19,115.83Z"/><path class="cls-3" d="M229.8,54.67c-.6,0-1.2,0-1.81,0a71.92,71.92,0,0,0-24.1,4.86,61.27,61.27,0,0,0-8.52,3.8,17.53,17.53,0,0,0-6.23,5.43A8.81,8.81,0,0,0,188,71a5.93,5.93,0,0,0,0,2.93c.22,1.2.45,2.41.67,3.61a22.26,22.26,0,0,0,1,4.28c1,2.49,3.78,3.35,5.64,5a6.92,6.92,0,0,1,1.89,4.73c.36,3.8-.22,7.53-.27,11.32a20.69,20.69,0,0,0,3.14-.27c.52-.09,1-.2,1.54-.33a5.6,5.6,0,0,0,1.52-.47c.48-.33.59-1.24.72-1.8s.27-1.36.37-2c.39-2.78.45-5.71,1.55-8.34,1.73-4.1,7.15-6.66,10.52-2.87,3.75,4.21,3,10.44,1.68,15.44-1.92,7.34-5.23,14.43-5.18,22.17a30.47,30.47,0,0,0,.65,6.32c.26,1.22.81,3.94,2.28,4.47a.29.29,0,0,1,.5-.17l.37.34c.42-1.17.87-2.32,1.35-3.46,3.32-7.84,7.94-15,11.69-22.69,4.92-10,8.36-21.06,7.87-32.22A40.68,40.68,0,0,0,229.8,54.67Z"/><path class="cls-3" d="M197.73,61.54a56.71,56.71,0,0,1,21.47-6c3.74-.26,8.12-.2,11.88,1.12.09-3.61-4.89-8.93-6.91-10.57a42.2,42.2,0,0,0-19.51-8.8c-8.82-1.47-18.38-.21-26.29-4.39-1.67-.88-3.28-2-5.14-2.32s-4.12.58-4.54,2.42c-.15.69,0,1.43-.22,2.11-.49,1.75-2.7,2.35-4.52,2.23-5.18-.36-9.49-3.9-14-6.52-2.17-1.28-4.66-2.39-7.14-1.93-3.26.61-5.49,3.85-6,7.11s.33,6.58,1.16,9.79c-3.16-1.07-2.36-6.12-4.79-8.41a1.84,1.84,0,0,0-1.05-.56c-.86-.09-1.54.69-2,1.42a13.95,13.95,0,0,0,10.33,21.06c-1.85,1.26-4.7-2.07-6.28-.5-.87.87-.28,2.37.52,3.29,3.71,4.28,10.19,4.52,15.82,4,10.63-1,21.83-3.57,31.64.66a5.4,5.4,0,0,0,2.63.68,5.14,5.14,0,0,0,1.93-.78,56.22,56.22,0,0,1,9.31-4.25Q196.9,62,197.73,61.54Z"/><path class="cls-6" d="M209.54,95.7c-.57-.6-1.62-.73-1.92-1.5s.27-1.42.76-2a8.73,8.73,0,0,1,2.28-2,3,3,0,0,1,2.92-.12,4,4,0,0,1,1.57,2.83,17.16,17.16,0,0,1-.33,7.9c-.15.56-.6,1.25-1.14,1s-.4-.92-.24-1.43.19-1.26-.33-1.39a5.64,5.64,0,0,0-1.24,2.23c-.28.95-.29,2-.55,2.92a3,3,0,0,1-1.81,2.21c-2.42.71-2.09-3.31-1.79-4.61C208.14,100,211.39,97.68,209.54,95.7Z"/><path class="cls-3" d="M160.39,86a15.71,15.71,0,0,1,7.48,3.22,4,4,0,0,0-1.72-2.74,13.65,13.65,0,0,0-5.55-3.32c-1.83-.43-3.73-.16-5.57-.49-1.45-.27-3-1.1-3.75.68-1,2.26,1,2.36,2.54,2.32A33.55,33.55,0,0,1,160.39,86Z"/><path class="cls-7" d="M145.83,209.5H230a79.64,79.64,0,0,0-9.42-36.81c-1.24-2.31-2.61-5.13-1.27-7.39a9.08,9.08,0,0,0,.9-1.49c.43-1.25-.45-2.54-.78-3.82-.77-2.91,1.68-7.33-1.23-9.61-2.08-1.63-4.33.17-6.42.93-7.42,2.69-16.3,3.43-24.13,4.18-7.46.72-15.12.84-22.2,3.16a2.72,2.72,0,0,0-1.87,2.59v5.15a2.39,2.39,0,0,0,1.53,2.18,1.11,1.11,0,0,1,.45.3,1.47,1.47,0,0,1,0,2c-.37.39-1,.6-1.11,1.13a1.93,1.93,0,0,0,.16.94c.45,1.71-1,3.3-2.2,4.56A62.39,62.39,0,0,0,145.83,209.5Z"/><path class="cls-8" d="M205.53,163.76a29,29,0,0,1,7.28-1.22c.67,0,2,.15,1.48,1.15s-2.08,1.73-3,2.35a13.63,13.63,0,0,0-3.4,2.64c1.19.61,2.51.5,3.81.72a4.25,4.25,0,0,1,3,2.09.31.31,0,0,1-.11.41c-2.4,1.75-5.72,1.13-8.07,2.93,1.76,3.07,5.57,4.25,8.34,6.19s4.87,5.39,6.37,8.54a43.45,43.45,0,0,1,3.59,11.18,57.08,57.08,0,0,1,.82,8.76H230a79.64,79.64,0,0,0-9.42-36.81c-1.24-2.31-2.61-5.13-1.27-7.39a9.08,9.08,0,0,0,.9-1.49c.43-1.25-.45-2.54-.78-3.82a12.21,12.21,0,0,1,.11-4.28,41.42,41.42,0,0,1-9.82,4c-4.43,1.16-9.79,1.83-13.43,4.86C199.24,165.58,202.68,164.49,205.53,163.76Z"/><path class="cls-8" d="M145.83,209.5h5.74a65,65,0,0,1,5-14.87,57.26,57.26,0,0,1,4.22-7.37,25.26,25.26,0,0,1,3.44-4.26c2.64-2.47,5.43-4.77,8.13-7.17a6.23,6.23,0,0,0,1.17-1.06.5.5,0,0,1,.1-.12s-.07,0-.17-.07a4.59,4.59,0,0,0-1.12-.64c-1.84-.84-3.62-1.36-4.72-3.22-.76-1.28.74-1.48.69-2.65-.11-2.07-3.37-2.78-3-5.08.35-2,2.69-2.27,4.3-2.41,3.35-.28,6.67-.91,10-1.42,5.47-.84,11-1.65,16.38-2.8A71.24,71.24,0,0,0,214.77,150c-1,.36-2,.92-3,1.27-7.42,2.69-16.3,3.43-24.13,4.18-7.46.72-15.12.84-22.2,3.16a2.72,2.72,0,0,0-1.87,2.59v5.15a2.39,2.39,0,0,0,1.53,2.18,1.11,1.11,0,0,1,.45.3,1.47,1.47,0,0,1,0,2c-.37.39-1,.6-1.11,1.13a1.93,1.93,0,0,0,.16.94c.45,1.71-1,3.3-2.2,4.56A62.39,62.39,0,0,0,145.83,209.5Z"/><path class="cls-8" d="M169.83,209.5a96.82,96.82,0,0,1,1.65-9.58,45.25,45.25,0,0,1,5-13.37,24.51,24.51,0,0,1,4.33-5.45c.54-.5,4.58-3.1,4.08-3.78a1,1,0,0,0-.74-.3c-2.47-.14-4.5,1.81-6.19,3.62a54.44,54.44,0,0,0-5.79,7c-4.21,6.41-5.52,14.12-6,21.88Z"/><path class="cls-9" d="M159.54,209.5c-.86-.26-1.7-.87-1.31-1.6s1.47-.43,2.19,0L162,203.6a1.26,1.26,0,1,1,.67-1.75,18.13,18.13,0,0,1,2.14-4.32,3.94,3.94,0,0,1-1.17-1.78,1.34,1.34,0,0,1,1-1.63,5.06,5.06,0,0,0,1,0c.37-.1.59-.47.77-.8.64-1.19,1.29-2.37,1.93-3.55a1.62,1.62,0,1,1,1.63-2.73,4.07,4.07,0,0,0,.64-2.31,3.77,3.77,0,0,1,.68-2.29,1.35,1.35,0,0,1,2.09,0c1-1.18,3.75-5.13,1-6.22-1.65-.66-4.7,2.68-5.81,3.71a44.63,44.63,0,0,0-8.94,11.72,65.34,65.34,0,0,0-6.18,17.84Z"/><path class="cls-9" d="M209.29,209.5a2.14,2.14,0,0,1,.64-1.64l.56,1.64h1.66a31.11,31.11,0,0,0-2.44-7.68,15.52,15.52,0,0,0-6.55-7.06c-1.82-.93-4-1.54-5-3.33a3.89,3.89,0,0,1,3.29-.12,16.52,16.52,0,0,1,6.92,4.22c1.74,1.8,3.06,4,4.85,5.71.48.46,1.17.92,1.75.6a1.56,1.56,0,0,0,.59-.81,9.47,9.47,0,0,0-.45-7.21,21.25,21.25,0,0,0-4.36-5.93c.17-.76,1.33.06,2.09-.08s.79-1.41.41-2.19c-3.54-7.25-14.14-9.16-21.43-7.82A22.63,22.63,0,0,0,175.58,190a42.14,42.14,0,0,0-2.81,9.82,76,76,0,0,0-1.5,9.7Z"/><path class="cls-8" d="M215.75,189.24c-.36-.08-.56.42-.55.8a5.52,5.52,0,0,0,1.16,3.31,1.37,1.37,0,0,0,.62.5,1,1,0,0,0,1.06-.51,1.82,1.82,0,0,0,.11-1.24,3.6,3.6,0,0,0-2.9-2.77"/><path class="cls-9" d="M169.87,162.19c-.78.14-1.75.52-1.73,1.3,0,1.11,2,1.31,2.07,2.41s-1.39,1.39-1.7,2.35c-.26.8.47,1.62,1.25,1.94s1.68.34,2.45.69c1.53.7,2.37,2.57,4,3a5.69,5.69,0,0,0,2.88-.26c7.63-2,15.85-1.6,23.15-4.57a2.35,2.35,0,0,0,1.44-1.12c.43-1.06-.79-2.13-1.93-2.23s-2.27.33-3.41.24-2.37-1.14-2-2.21a2.21,2.21,0,0,1,1-1c3-1.81,6.56-2.33,10-3.16s6.93-2.16,9-5c.69-1,1.38-3.1-.31-3.52-.95-.24-3.35,1.34-4.24,1.68a99.62,99.62,0,0,1-10,3.22c-6.78,1.83-13.69,3.09-20.61,4.28C177.44,160.86,173.65,161.49,169.87,162.19Z"/><path class="cls-9" d="M209.27,164l-.54.19c-.81.29-1.77.78-1.79,1.64.71.48,1.67.12,2.44-.25a2.58,2.58,0,0,0,.93-.62.88.88,0,0,0,.11-1c-.22-.31-.79-.3-.91.05"/><path class="cls-9" d="M203.58,172l-8.53,1.25c-2.29.33-4.8.79-6.26,2.59q7.52-1.07,15.09-1.44c1.12-.06,4.64-.24,4.61-2C208.46,170.9,204.58,171.84,203.58,172Z"/><path class="cls-2" d="M120.61,64.89A4.91,4.91,0,0,0,118,69.07a3.45,3.45,0,0,0,3.22,3.39,4,4,0,0,0,3.44-3,2.85,2.85,0,0,0-.83-2.49,1,1,0,0,0,1.32-.6,1.61,1.61,0,0,0-.45-1.53A2.59,2.59,0,0,0,121,65"/><path class="cls-2" d="M129.06,73.81a3.56,3.56,0,0,0-2.45,2.69,2.43,2.43,0,0,0,2,2.76,4.88,4.88,0,0,0,1.54-2.32,1.82,1.82,0,0,0,3,.16,2.38,2.38,0,0,0-.73-3.19,3.49,3.49,0,0,0-3.47-.06"/><g class="cls-10"><path class="cls-11" d="M152.5,90.15c-1.39,3.23,1.8,6.09,4.75,6.49a8.65,8.65,0,0,0,4.94-.72c1-.51,2.46-1.85,1.6-3.06a.26.26,0,0,0-.41,0,7.59,7.59,0,0,1-2.11,1.88,7.36,7.36,0,0,1-3.59.52,5.22,5.22,0,0,1-3.34-1.51,4.06,4.06,0,0,1-1.07-3.35C153.3,90,152.66,89.77,152.5,90.15Z"/></g><path class="cls-12" d="M214.7,91.76a7,7,0,0,1,.91,2.82,7.45,7.45,0,0,1-.72,5.06c-.77,1.23-2.1,2.09-2.65,3.44-.31.76-.35,1.62-.68,2.38a3.36,3.36,0,0,1-3.95,1.8c-.73-.23-1.51-.71-2.18-.36a1.65,1.65,0,0,0-.52.5,3.71,3.71,0,0,0,.24,4.51,4.74,4.74,0,0,0,5.41.79,10.57,10.57,0,0,0,4.16-4A27,27,0,0,0,219.17,95a12.92,12.92,0,0,0-.77-5.42,6.57,6.57,0,0,0-3.78-3.79c-2.44-.81-8.25.7-8.34,4-.09,3.05,1.85.47,3.54.09A4.64,4.64,0,0,1,214.7,91.76Z"/><path class="cls-13" d="M207.06,121.86c-1.47-3.52-5.06-5.57-7.78-8.24a20.4,20.4,0,0,1-5.95-12.76c-.24-3,.18-6.29-1.16-9s-4.42-4.59-5.85-7.41a33.16,33.16,0,0,1-1.53-4.64,9,9,0,0,0-1-2.12c0-.23,0-.46-.05-.69a9,9,0,0,0-4.42-6.33,19.25,19.25,0,0,0-8-2.34,42.35,42.35,0,0,0-13,.6c-2.51.5-5.2,1.3-6.81,3.32s-1.51,5.19.59,6.43c1.21.72,2.72.59,4.13.57,5.37-.07,11,2.11,14,6.6s2.31,11.35-2.13,14.38a13.43,13.43,0,0,1-8.1,1.85c-1.18,0-7.34-2.48-7.66-2.28-1.53,1,1.75,4.67,0,6.19a1.68,1.68,0,0,1-1.93.12,3.2,3.2,0,0,1-1.54-4c.57-1.59,1.49-3.1,2-4.71.81-2.32.48-5.51-1.81-6.41-.31,6-6.08,10.19-9.3,15.27a3,3,0,0,0-.41,1c-.29,1.73,1.2,2.41,2.48,2.87l8.62,3.14a1.83,1.83,0,0,0,1,.11,1.39,1.39,0,0,0,1.2-1.18.78.78,0,0,1,1.48-.08,7.25,7.25,0,0,0,1,1.76.59.59,0,0,1-.34.94h0c-3.08.63-5.06,1.07-6.45,2.49a2.73,2.73,0,0,0,1.35,4.59c.91.2,4.68-.74,5.49-.21,1.77,1.16-.07,4.94-1.25,6.7s-3.74,2-4.69,3.74.49,4.16,2.42,4.89,4.06.32,6.08-.1l18.54-3.84c3.27-.68,6.8-1.51,9.16-3.75a4.09,4.09,0,0,1,.35,2.06c-.23,5.59-2.29,10.94-3.24,16.46a4.42,4.42,0,0,0,.11,2.6c.53,1.15,1.86,1.65,3.08,2a24.79,24.79,0,0,0,16.1-1.5,8.83,8.83,0,0,0,3.56-2.6,9.89,9.89,0,0,0,1.48-4.66c.65-4.84.85-9.73,1-14.61C207.91,126.63,208,124.11,207.06,121.86Z"/><path class="cls-14" d="M177.22,44A35.87,35.87,0,0,0,161,50.65c-5.07,3.85-9.41,10.28-7.26,16.28,2,5.57,8.56,8,14.44,8.67s12.2.54,17.19,3.73c3.08,2,5.57,5.15,9.17,5.78,5.86,1,11-5.37,16.93-4.66,4.55.55,7.42,5,10.37,8.46A3,3,0,0,0,223.32,90c1.25.3,2.29-1,2.9-2.08a28.41,28.41,0,0,0-2.42-29.9c-5.06-6.63-12.93-10.69-21.05-12.58S185.68,42.66,177.22,44Z"/><path class="cls-14" d="M159.86,57.65A23.57,23.57,0,0,1,166.57,50a.33.33,0,0,0-.36-.56A29.34,29.34,0,0,0,162.07,52c-4.62,3.5-8.47,9.28-6.68,14.3a9,9,0,0,0,3.61,4.4c.41.27,1.06-.14.83-.57A12.67,12.67,0,0,1,159.86,57.65Z"/><path class="cls-15" d="M222.41,59.11a24.21,24.21,0,0,0-1.62-1.92c2.58,3.49,3.91,8.09,4.56,12.32a29.68,29.68,0,0,1-2.56,17.17.69.69,0,0,0,.09.73c.1.13.21.25.31.37h0a.67.67,0,0,0,1.06,0,3.66,3.66,0,0,0,.42-.65A26.75,26.75,0,0,0,222.41,59.11Z"/><circle class="cls-2" cx="198.32" cy="63.67" r="14.1" transform="translate(27.24 182.47) rotate(-52.58)"/><path class="cls-8" d="M204.84,60.08h-2.93V57.14a3.6,3.6,0,0,0-7.19,0v2.94h-2.93a3.59,3.59,0,0,0,0,7.18h2.93V70.2a3.6,3.6,0,0,0,7.19,0V67.26h2.93a3.59,3.59,0,1,0,0-7.18Z"/><ellipse class="cls-16" cx="170.88" cy="112.14" rx="7.15" ry="6.71"/><path class="cls-2" d="M127.77,23.5h0a5.52,5.52,0,0,0-7.81,0l-2.28,2.27-2.27-2.27a5.53,5.53,0,0,0-7.82,0h0a5.52,5.52,0,0,0,0,7.81l2.27,2.28,6.4,6.4a2,2,0,0,0,2.84,0l6.4-6.4,2.27-2.28A5.52,5.52,0,0,0,127.77,23.5Z"/><path class="cls-17" d="M245.69,209.5l-1.31-5.71,12.78-.27,1.37,6h2.94l-29.22-128a1.78,1.78,0,0,0-1.76-1.24,1.08,1.08,0,0,0-1.17,1.3l1.36,6-12.78.27-1.36-6a1.79,1.79,0,0,0-1.75-1.25,1.1,1.1,0,0,0-1.18,1.31l29.13,127.6Zm11-8.19-12.77.26-1.5-6.53,12.78-.27ZM218.41,90l12.77-.26,1.5,6.53-12.78.27Zm2,8.75,12.78-.26,1.49,6.53-12.77.27Zm2,8.76,12.78-.27,1.49,6.54-12.77.26Zm2,8.75,12.78-.27,1.49,6.54-12.78.26Zm2,8.75,12.78-.26,1.49,6.53-12.78.27Zm2,8.75,12.78-.26,1.49,6.53-12.78.27Zm2,8.75,12.77-.26,1.5,6.53-12.78.27Zm2,8.76,12.78-.27,1.49,6.54-12.77.26Zm2,8.75,12.78-.27,1.49,6.54-12.78.26Zm2,8.75,12.78-.27,1.49,6.54-12.78.27Zm2,8.75,12.78-.26,1.49,6.53-12.78.27Zm2,8.75,12.77-.26,1.5,6.53-12.78.27Z"/><path class="cls-17" d="M251.32,96.57a5.88,5.88,0,0,1,1.39,1.14c1.06,1.32.8,3.23.42,4.87a4,4,0,0,1-.47,1.32,2.79,2.79,0,0,1-2.75,1,7.69,7.69,0,0,1-2.82-1.22,6.5,6.5,0,0,1-1.75-1.42,2.33,2.33,0,0,1-.47-2.11c-.69,0-1-.85-1-1.54,0-1.2.11-5.17,1.54-5.68C246.56,92.57,250.29,95.88,251.32,96.57Z"/><circle class="cls-2" cx="238.28" cy="78.87" r="16.52" transform="translate(107.58 293.15) rotate(-76.93)"/><path class="cls-8" d="M248.39,77l-2-.86a8.53,8.53,0,0,0-.47-1.12l.86-2a0,0,0,0,0,0,0l-.5-.51-1.58-1.58-.51-.51h0l-2,.86a8.89,8.89,0,0,0-1.2-.49l-.79-2a0,0,0,0,0,0,0h-3.68a0,0,0,0,0,0,0l-.79,2a8.39,8.39,0,0,0-1.2.49l-2-.86h0l-.51.51-1.58,1.58-.51.51a0,0,0,0,0,0,0l.87,2a8.31,8.31,0,0,0-.5,1.19l-2,.79a0,0,0,0,0,0,0v3.67a0,0,0,0,0,0,0l2,.79a8.53,8.53,0,0,0,.47,1.12l-.84,2.06a0,0,0,0,0,0,0l.51.51,1.58,1.58.51.51h0l2.05-.83a9.07,9.07,0,0,0,1.06.44l.86,2a0,0,0,0,0,0,0h3.68a0,0,0,0,0,0,0l.86-2a9.07,9.07,0,0,0,1.06-.44l2.05.83h0l.51-.51,1.58-1.58.5-.51a0,0,0,0,0,0,0l-.83-2.06a8,8,0,0,0,.44-1.05l2-.86s0,0,0,0V77S248.4,77,248.39,77Zm-10.11,6.31a4.45,4.45,0,1,1,4.44-4.45A4.44,4.44,0,0,1,238.28,83.32Z"/><path class="cls-7" d="M242.27,91.38c-.24-1.33-.85-2.7-1.2-4a2.74,2.74,0,0,0-.55-1.24A8.29,8.29,0,0,0,239.08,85c-.4-.28-1.17-.6-1-1.21s.78-.41,1.19-.22,1.34.77,1.23,0a6.85,6.85,0,0,0-.91-1.91c-.17-.34-1-1.94-.23-2s1.11,1.75,1.71,2.15c-.18-.75-.4-1.49-.59-2.23-.07-.28-.26-.78.11-1s.75.73.85,1a11.78,11.78,0,0,0,.62,1.66c.07-.36-.4-2.61.23-2.62.78,0,.57,2.1,1,2.52.27-.44-.15-2,.57-2s.44,1.84.42,2.21a8.47,8.47,0,0,0,0,2.84,17,17,0,0,0,1.58,2.94c.25.44.57.86.37,1.36a4,4,0,0,1-1.67,1.63,4.45,4.45,0,0,1-2.28.8,1.27,1.27,0,0,0-.12-.36"/><path class="cls-12" d="M249.28,95.85a9.1,9.1,0,0,0-.18-1.55,8.14,8.14,0,0,1,0-1.48,7.69,7.69,0,0,1,1.38-2.66,6,6,0,0,0,1-4.1,4.12,4.12,0,0,0-3.62-3c-2.35-.32-5,0-6.64,1.9-1,1.18-.44,3-1.13,4.25-.41.78-1.36,2.19-.43,2.29.68.08.93,0,1.2.64.17.39.07.87.25,1.29a3.84,3.84,0,0,0,1.16,1.31c.42.31,1.17.44,1.47.82s.15,1,.4,1.3c.41.41,1.28.09,1.8,0C246.8,96.76,248.57,96.63,249.28,95.85Z"/><path class="cls-3" d="M251.44,86.06a4.12,4.12,0,0,0-3.62-3,8.08,8.08,0,0,0-5.61,1c.83.38,2.36.13,2.74,1a3.75,3.75,0,0,1,.12,1.06c.06.55.3.73.59,1.18A3.5,3.5,0,0,1,246,89a1.74,1.74,0,0,0,.45-.06,1.37,1.37,0,0,1,2.52-.66,2.49,2.49,0,0,1,0,2c-.13.42-.3.83-.42,1.26s-.11,1.57.55,1.57c0-.08,0-.16,0-.24a7.69,7.69,0,0,1,1.38-2.66A6,6,0,0,0,251.44,86.06Z"/><path class="cls-18" d="M244.79,95.19c.41-.56,1.05-.94,1.2-1.63a8.71,8.71,0,0,1-2.6.52,2.82,2.82,0,0,1-1.7-.82,1.46,1.46,0,0,1-.36-.67c-.07-.37.21-.67.12-1s-.11-.23-.43-.28a2.43,2.43,0,0,1-.54-.17,1.17,1.17,0,0,1-.48-.34c-.3-.43-.08-1,.07-1.41,0-.1.06-.21.08-.31a1.24,1.24,0,0,1-.1.2c-.41.78-1.36,2.19-.43,2.29.68.08.93,0,1.2.64.17.39.07.87.25,1.29a3.84,3.84,0,0,0,1.16,1.31c.42.31,1.17.44,1.47.82s.15,1,.4,1.3a.7.7,0,0,0,.34.18A2.58,2.58,0,0,1,244.79,95.19Z"/><path class="cls-19" d="M248.3,88.28a.92.92,0,0,0-1.39.65A.18.18,0,0,1,247,89a1.37,1.37,0,0,1,.63-.48.5.5,0,0,1,.52.56,1.79,1.79,0,0,1-.45.86c-.16.2-.43.39-.53.63-.19.45.29.23.47.1C248.22,90.25,249.18,88.88,248.3,88.28Z"/><path class="cls-17" d="M247.3,127.44c-.35,1.92-1.28,3.77-1.65,5.7a14.48,14.48,0,0,0-.32,5c.48,3.24,2.63,6.49,4.9,8.89,1.29,1.36,2.1,2.05,3.68.68a20.32,20.32,0,0,0,2.05-1.55,2.92,2.92,0,0,0,.33-1.23c-.16-.68-.85-.6-1-.87s.09-.5,0-.85a3.16,3.16,0,0,0-.25-1,17.08,17.08,0,0,1-.67-3.18c-.19-1-.38-2.95-.92-3.76-.7-1.06-1-.57-.59-2,.53-2.1,1.05-4.2,1.64-6.28a13.63,13.63,0,0,0,.87-4.89c-.37-4.71-7.74,3.56-8.44,5.89A1,1,0,0,1,247.3,127.44Z"/><path class="cls-3" d="M252.87,146.41c-.33-.67-.55-1.51-1.5-1.37-.36.05-.66.34-1,.31s-.84-.54-1.08-.91a11.77,11.77,0,0,1-1.21-2.53,12,12,0,0,1-1-5.81,12.86,12.86,0,0,1,1.54-4.67c1.42-2.54,3.42-4.71,4.94-7.2a14.18,14.18,0,0,0,1.53-3.25c-1.51-1.82-7.13,4.53-8,6.8a1.11,1.11,0,0,1,.27-.34c-.35,1.92-1.28,3.77-1.65,5.7a14.48,14.48,0,0,0-.32,5c.48,3.24,2.63,6.49,4.9,8.89,1.29,1.36,2.1,2.05,3.68.68l.12-.1A3.05,3.05,0,0,1,252.87,146.41Z"/><path class="cls-17" d="M247.82,131c2.58-3.43,6.26-5.42,7.68-9.71.95-2.9.61-5.59,0-8.5a87.85,87.85,0,0,0-2.09-9.36c-.59-1.84-1.17-3.68-1.7-5.53h-.11c-.57-.9,0-1.77-.9-2.54-1.58-1.41-6.4.62-8.19,1.17l.24,1.8c0,.19-4,3-4.41,3.41-.93.89-.92,1.24-2,.48-.72-.51-.83-1-1.32-1.73A5.4,5.4,0,0,1,233.88,97a1.55,1.55,0,0,0-.52-1.23c-1.46-1.12-4.61.88-4.93,2.42a4.24,4.24,0,0,0,.18,1.93,29.82,29.82,0,0,0,2.22,5.93,10,10,0,0,0,2.81,3.71,4.42,4.42,0,0,0,4.42.67A51.27,51.27,0,0,1,236.92,132c-1.46,5.37-3.84,10.78-3,16.29a1.39,1.39,0,0,0,1.28,1.41,12,12,0,0,0,2.45.35,1.9,1.9,0,0,0,1.06-.19,2.16,2.16,0,0,0,.78-1.12q1.29-3.17,2.59-6.33a63.84,63.84,0,0,1,4.42-9.34A24,24,0,0,1,247.82,131Z"/><path class="cls-3" d="M238.66,131.76a14.16,14.16,0,0,0,1.68-4.18,3.83,3.83,0,0,1,.83-2.5,1.66,1.66,0,0,1,1-.39c.32,0,.83.15,1.12,0,1-.35-.74-1.71-1-2.11-.41-.65.15-1.4.55-1.91.84-1.07,2.2-1.4,2.54-2.86.66-2.77-1.74-4.66-2-7.24-.22-1.82.9-3.06,1.64-4.6.07-.15.4-.74.23-.91s-1.2.32-1.36.4a11.51,11.51,0,0,0-2.67,2.35,7.08,7.08,0,0,1-5.61,2.55,5.82,5.82,0,0,1-1.12-.19,4.19,4.19,0,0,0,3.59.16A51.27,51.27,0,0,1,236.92,132c-1.46,5.37-3.84,10.78-3,16.29a1.39,1.39,0,0,0,1.28,1.41h.05A37.51,37.51,0,0,1,238.66,131.76Z"/><path class="cls-3" d="M246.46,96.12a5.62,5.62,0,0,0-3,.61c-.29.11-.58.24-.87.38.06.41.12.83.17,1.25,0,0-.18.21-.47.44.78.11,1.58.13,2.36.18a5,5,0,0,1,2.05.61c.88.43,2.09,1.36,3.16,1.36-1-1.83-2.86-3.37-5-2.94-.2,0-.42-.17-.28-.37A7.31,7.31,0,0,1,246.46,96.12Z"/><path class="cls-3" d="M232,95.52c.48,1,.49,2.09,1,3,.84,1.37,1.72,2.45,1.9,4.11.08.67,0,1.37.11,2,0,.3,0,.31.27.06a10.84,10.84,0,0,0,.85-.81.26.26,0,0,1,.4,0c.18.33.42.8.79,1,.6.25.21-.64.09-.91a.25.25,0,0,1,.15-.37c1.4-.44,2.11-2,2.59-3.24l0,0c-.87.64-1.67,1.23-1.85,1.4-.93.89-.92,1.24-2,.48-.72-.51-.83-1-1.32-1.73A5.4,5.4,0,0,1,233.88,97a1.55,1.55,0,0,0-.52-1.23,1.91,1.91,0,0,0-1.42-.3A.47.47,0,0,1,232,95.52Z"/><path class="cls-3" d="M233.91,148.26c0,1.77.35,3.8.26,5.71,0,1.12-.44,1.37-1.39,1.72-.57.2-2.22.61-1.95,1.55s1.8.61,2.42.58a16.7,16.7,0,0,1,2.86.39c1.27.13,1.94-.16,2.18-1.43.32-1.7.54-3.45.92-5.15.22-1,.94-2.55-.58-2.49s-3.43.29-4.59-.92C234,148.31,233.88,148.33,233.91,148.26Z"/><path class="cls-3" d="M259.92,150.22c-.19-.43-.43-.86-.62-1.27l0,0c-.5-.68-1-1.38-1.5-2.06-.31-.44-.86-1.89-1.43-1.87a7.38,7.38,0,0,1-4.53,3.42.19.19,0,0,1,0,.11c.43.87,1.89,1.33,2.09,2.31a.59.59,0,0,1,0,.19,2.3,2.3,0,0,1-.44,1.56,2.92,2.92,0,0,1-.55.87,1.42,1.42,0,0,1-.19.32c-.52.65-1.74.59-2.18,1.36-.63,1.07,1.06,1.12,1.75,1.09a4.41,4.41,0,0,0,2.39-.67c.35-.22.66-.54,1-.8a6,6,0,0,1,1-.87,22.2,22.2,0,0,0,2.65-1.6A1.81,1.81,0,0,0,259.92,150.22Z"/><path class="cls-7" d="M228.25,98.83c.1,0,.24-.25.35-.35a7.7,7.7,0,0,1,.76-.63,6.79,6.79,0,0,1,1.86-1,4.94,4.94,0,0,1,2.17-.39c.28,0,.41.1.4-.21,0-.57-.17-1.21-.26-1.78s-.17-1-.25-1.56a1,1,0,0,1,.18-.82,2.77,2.77,0,0,0,.56-.91,6.23,6.23,0,0,0,.09-1c.15-.67.83-1.11.41-1.83a.55.55,0,0,0-.73-.21c-.3.2-.34.85-.7,1s-.76-.54-.86-.79a1.2,1.2,0,0,1,.37-1.29c.21-.16.55,0,.7-.26s-.19-.56-.44-.64a2.16,2.16,0,0,0-1-.07,1.1,1.1,0,0,0-.93.6c-.06.12-.11.24-.16.36,0-.28.11-.64-.27-.64a1.25,1.25,0,0,0-1.14,1.19c-.09-.3-.29-.32-.54-.2-.52.27-.57.61-.7,1.14-.12-.34-.29-.23-.47,0a.93.93,0,0,0-.14,1,9.92,9.92,0,0,1,.14,1.55,18.36,18.36,0,0,0,.3,2c.06.19.17.33.24.51a1.46,1.46,0,0,1,0,.66c-.06,1-.15,2.07-.15,3.12,0,.27,0,.54,0,.81a2.49,2.49,0,0,0,0,.61C228.16,99,228.43,99,228.25,98.83Z"/><path class="cls-20" d="M244.89,98.78l.49-.78"/><path class="cls-21" d="M241.29,89.58a3.44,3.44,0,0,1,.46-1c.16-.21.72-.5.77-.73.1-.4-.69-.61-1-.81s-.49-.55-.76,0,.32.49.47,1c-.48.09-.49.73-.47,1S241,90.11,241.29,89.58Z"/><path class="cls-17" d="M240.77,85.73a4.16,4.16,0,0,1,2-2.74,6.17,6.17,0,0,1,2.52-.47,11.7,11.7,0,0,1,2.9.18c1.53.33,3.33.81,3.65,2.55a4.07,4.07,0,0,1-.15,1.87c-.13.35-.23.41-.59.37-.68-.08-1.36-.16-2-.26-1.94-.27-4-.25-5.87-.67C242.87,86.49,240.57,86.09,240.77,85.73Z"/><path class="cls-17" d="M251.24,87.26a1.92,1.92,0,0,0-.73.81c-.14.23-.25.56.08.7s.52-.1.65-.32a2.12,2.12,0,0,0,.17-1,.15.15,0,0,0-.29,0,1.22,1.22,0,0,0,.35.93c.13.14.38.34.52.1a1,1,0,0,0-.05-.83c-.1-.22-.34-.56-.62-.48a.07.07,0,0,0,0,.1c.06.13.19.18.28.29a.85.85,0,0,1,.22.57.77.77,0,0,1,0,.15c.09,0,.1,0,0,0a1.39,1.39,0,0,1-.21-.21,1,1,0,0,1-.16-.62h-.29a2.32,2.32,0,0,1,0,.59.88.88,0,0,1-.07.23.58.58,0,0,1-.11.18c-.19,0-.25-.08-.18-.17s.22-.36.31-.48a1.83,1.83,0,0,0,.28-.44S251.28,87.24,251.24,87.26Z"/><path class="cls-17" d="M234,158.4l-1.12-4.94a3.29,3.29,0,0,0-2.93,0l1.22,5.32.29,0C232.45,158.85,233.45,159.05,234,158.4Z"/><path class="cls-17" d="M113.09,87.67C102,97.78,88.85,99.94,74.53,98.28c-7-.8-13.94-1.9-21-2-8.32-.15-16.12,1.52-23.09,6.25-.53.36-1.39.5-1.35,1.56.92,0,1.81,0,2.69,0,6.46.12,12.38,2.2,18.07,5,1.18.59,1.83,1.52,1.1,2.86s-1.74,1.38-3,.76S45.37,111.51,44,111c-7.54-3.17-15.11-4.07-22.73-.29-1.15.57-2.3.85-3.14-.35S18,108,18.94,107c10.57-11.59,23.75-16.18,39.2-14.65,7,.7,14,1.59,21,2.19,11.66,1,22.13-1.84,31.06-9.74,2.52-2.23,4.44-4.34,4.08-8.16-.32-3.35,2.46-5.61,5.89-5.64s5.91,2.13,6.08,5.54c.11,2.43,0,4.87,0,7.3,0,1.41-.3,2.67-1.93,2.7-1.79,0-2.12-1.29-2.09-2.81,0-2.26,0-4.51,0-6.77a2,2,0,0,0-4-.1,21.85,21.85,0,0,0-.06,2.43V130.7c0,10,.06,20,0,30,0,2.11.71,2.65,2.67,2.52,2.17-.15,1.47-1.7,1.47-2.78q.06-31.26,0-62.51c0-.72,0-1.44,0-2.16,0-1.28.6-2.08,1.93-2.11a1.8,1.8,0,0,1,2,2c0,.81,0,1.62,0,2.43,0,20.57,0,41.13,0,61.7,0,2.35.26,3.46,3.07,3.58,5.29.23,8.7,4.09,8.86,9.4.06,2.25-.15,4.52.05,6.76.45,4.91-1.4,8.55-5.07,11.85-7.93,7.12-6.52,4.57-6.58,14.67,0,2.5-.86,3.58-3.49,3.54-6.67-.12-13.34,0-20-.05-4.14,0-4.53-.71-3.18-4.65s3.58-7.6,3.47-12.09c-.22-8.74-.09-17.49-.06-26.24,0-6.15,3-9.63,9-10.43,1.35-.18,1.88-.49,1.85-1.91-.08-4.15-.09-8.3,0-12.45,0-1.59-.5-1.85-1.87-1.39a25.69,25.69,0,0,1-10.67,1.18c-7.84-.75-14.68-4.11-21.3-8.05-7.52-4.47-14.5-9.77-21.81-14.56-1.31-.86-2.5-1.85-1.38-3.47s2.52-.72,3.76.12c5.36,3.66,10.69,7.36,16.09,11a78.89,78.89,0,0,0,16.85,9.07c5.84,2.11,11.72,2.69,17.75.76,1.9-.61,2.62-1.54,2.61-3.64-.11-14.34,0-28.68-.07-43,0-.77.27-1.6-.32-2.38A2.57,2.57,0,0,0,113.09,87.67ZM107.23,196c0,1.6.47,2,2,2,3.87-.07,7.75,0,11.63,0,.71,0,1.63.16,1.89-.67,1.29-4.19,4.89-6.42,7.85-9.09,2.63-2.37,4-4.94,3.64-8.5-.21-2.24,0-4.51-.06-6.76a5.44,5.44,0,0,0-5.7-5.58c-3.6-.08-7.22-.12-10.82,0-2.53.09-3.65-.79-3.55-3.43,0-1.19.86-3-.74-3.56-1.93-.61-3.69.43-4.93,2.06a6.83,6.83,0,0,0-1.15,4.36c0,4.78,0,9.56,0,14.34C107.27,186.11,107.34,191.07,107.23,196Zm13.47,9.48c1.29,0,1.7-.49,1.7-1.75S122,202,120.71,202c-4.59.06-9.19.09-13.78,0-2-.05-2.36,1.37-2.36,2.6,0,1.52,1.52.81,2.35.85,2.25.11,4.5,0,6.75,0S118.36,205.44,120.7,205.5Z"/></g></g></svg>