<svg xmlns="http://www.w3.org/2000/svg" xmlns:xlink="http://www.w3.org/1999/xlink" viewBox="0 0 213.76 268.75"><defs><style>.cls-1{fill:none;}.cls-2{fill:#9e986f;}.cls-3{fill:#324c5b;opacity:0.4;}.cls-4{fill:#6c2910;}.cls-5{fill:#c8895e;}.cls-6{fill:#fff;}.cls-7{fill:#333;}.cls-8{clip-path:url(#clip-path);}.cls-9{fill:#ecb98c;}.cls-10{clip-path:url(#clip-path-2);}.cls-11{fill:#f6e2ca;}.cls-12{clip-path:url(#clip-path-3);}.cls-13{fill:#eed8a2;}.cls-14{fill:#fccd74;}.cls-15{fill:#6d684b;}</style><clipPath id="clip-path" transform="translate(-25.32 -18.89)"><rect class="cls-1" width="251.46" height="251.46"/></clipPath><clipPath id="clip-path-2" transform="translate(-25.32 -18.89)"><path class="cls-1" d="M183.08,266.39s1.62-9-6.46-24.64-5.39-18.41-7.54-29.33S164,185.59,164,185.59a69.22,69.22,0,0,0-8.34-18.72c-5.93-9-2.48-15.28,6.8-15.58,7.08-.24,15,16.52,17.7,31.81s20.2,18.09,25.31,15.91-9.69-28.39-9.42-39.31c0,0-28.54-19-24.5-29.89S193.32,136.3,202.2,141c0,0,14,5.93,19.39,19.34s10.23,21.84,12.93,25.9,7.27,6.55-1.89,19.65-15.62,36.5-11.85,56.47Z"/></clipPath><clipPath id="clip-path-3" transform="translate(-25.32 -18.89)"><polygon class="cls-2" points="225.63 201.67 152.96 112.32 133.17 98.23 138.5 120.23 214.93 210.31 225.63 201.67"/></clipPath></defs><g id="Capa_2" data-name="Capa 2"><g id="Capa_1-2" data-name="Capa 1"><polygon class="cls-3" points="161.67 175.32 172.46 173.9 162.31 97.03 167.1 23.5 152.47 22.54 149.91 3.13 52.36 16.01 28.47 14.46 28.16 19.21 12.18 21.32 13.06 28.03 4.76 28.99 19.35 154.29 17.26 186.34 23.13 186.72 24.68 200.09 97.71 191.58 155.9 195.38 156.59 184.73 162.68 184.02 161.67 175.32"/><rect class="cls-4" x="43.41" y="27.24" width="138.93" height="172.25" transform="translate(-39.19 -3.14) rotate(-7.52)"/><rect class="cls-5" x="26.62" y="51.21" width="172.25" height="138.93" transform="matrix(0.07, -1, 1, 0.07, -40.33, 206.44)"/><rect class="cls-6" x="34.82" y="36.14" width="138.93" height="172.25" transform="translate(-38.76 -6.01) rotate(-6.64)"/><path class="cls-7" d="M40.83,80.8,38,56.14l24.66-2.87,2.87,24.66Zm-.95-23.14,2.47,21.22,21.22-2.47L61.1,55.19Z" transform="translate(-25.32 -18.89)"/><polygon class="cls-2" points="24.03 54.48 18.59 47.19 19.98 46.15 24.18 51.77 33.32 41.97 34.59 43.15 24.03 54.48"/><path class="cls-7" d="M44.28,110.42,41.4,85.75l24.67-2.87,2.87,24.66Zm-1-23.14,2.47,21.21L67,106,64.54,84.81Z" transform="translate(-25.32 -18.89)"/><path class="cls-7" d="M47.72,140l-2.87-24.67,24.66-2.87,2.88,24.67Zm-.94-23.14,2.47,21.21,21.21-2.47L68,114.42Z" transform="translate(-25.32 -18.89)"/><path class="cls-7" d="M51.17,169.64,48.3,145,73,142.11l2.87,24.66Zm-1-23.14,2.47,21.22,21.22-2.47L71.44,144Z" transform="translate(-25.32 -18.89)"/><path class="cls-7" d="M54.62,199.25l-2.87-24.66,24.66-2.87,2.87,24.66Zm-.95-23.14,2.47,21.22,21.22-2.47-2.47-21.22Z" transform="translate(-25.32 -18.89)"/><path d="M75.05,61l.07.73-4,.41-.08-.73Zm-1.53.16L74,66l-.92.09-.51-4.91Z" transform="translate(-25.32 -18.89)"/><path d="M75.43,64.07V64a2.08,2.08,0,0,1,0-.75,1.65,1.65,0,0,1,.27-.62,1.63,1.63,0,0,1,.49-.45,2,2,0,0,1,.71-.21,1.85,1.85,0,0,1,.75.06,1.47,1.47,0,0,1,.57.33,1.74,1.74,0,0,1,.4.56,2.37,2.37,0,0,1,.19.73v.07a2.34,2.34,0,0,1,0,.75,1.65,1.65,0,0,1-.27.62,1.54,1.54,0,0,1-.5.45,1.91,1.91,0,0,1-.71.21,1.8,1.8,0,0,1-.74-.06,1.59,1.59,0,0,1-.58-.33,1.87,1.87,0,0,1-.39-.56A2.12,2.12,0,0,1,75.43,64.07Zm.88-.16V64a1.54,1.54,0,0,0,.27.8.74.74,0,0,0,.28.22.7.7,0,0,0,.39,0,.82.82,0,0,0,.36-.13.75.75,0,0,0,.23-.27,1.18,1.18,0,0,0,.11-.39,2.25,2.25,0,0,0,0-.45v-.07a2.85,2.85,0,0,0-.09-.44,1.31,1.31,0,0,0-.19-.35.77.77,0,0,0-.28-.23.83.83,0,0,0-.75.08.76.76,0,0,0-.22.28,1.12,1.12,0,0,0-.11.38A1.69,1.69,0,0,0,76.31,63.91Z" transform="translate(-25.32 -18.89)"/><path d="M81,61.61l.07.64L79,62.47l-.07-.64Zm-1.62-.74.89-.09.37,3.49a.53.53,0,0,0,.07.25.21.21,0,0,0,.14.1.48.48,0,0,0,.21,0l.17,0,.12,0,.07.67a1.35,1.35,0,0,1-.24.08,1.52,1.52,0,0,1-.32.06,1.28,1.28,0,0,1-.53,0A.72.72,0,0,1,80,65a1.28,1.28,0,0,1-.19-.59Z" transform="translate(-25.32 -18.89)"/><path d="M83.93,64.21l-.18-1.68a.64.64,0,0,0-.1-.32.41.41,0,0,0-.21-.18A.63.63,0,0,0,83.1,62a.87.87,0,0,0-.31.1.5.5,0,0,0-.19.19.45.45,0,0,0,0,.26l-.89.09a.83.83,0,0,1,.06-.44,1.28,1.28,0,0,1,.27-.4,1.41,1.41,0,0,1,.46-.3,1.88,1.88,0,0,1,.62-.15,1.84,1.84,0,0,1,.75.06,1.14,1.14,0,0,1,.56.36,1.33,1.33,0,0,1,.26.69L84.82,64a2.41,2.41,0,0,0,.08.46,1.26,1.26,0,0,0,.14.33v.06l-.91.09a1.21,1.21,0,0,1-.13-.34A2.07,2.07,0,0,1,83.93,64.21Zm0-1.46.06.53-.56.06a1.2,1.2,0,0,0-.36.08.66.66,0,0,0-.25.15.49.49,0,0,0-.13.2.52.52,0,0,0,0,.25.5.5,0,0,0,.09.24.43.43,0,0,0,.2.15.47.47,0,0,0,.29,0,.82.82,0,0,0,.4-.13.91.91,0,0,0,.25-.27.51.51,0,0,0,.08-.27l.29.36a1.6,1.6,0,0,1-.11.3,1.26,1.26,0,0,1-.21.32,1.23,1.23,0,0,1-.33.26,1.42,1.42,0,0,1-.48.14,1.39,1.39,0,0,1-.65-.08,1.05,1.05,0,0,1-.48-.34.93.93,0,0,1-.22-.54,1.3,1.3,0,0,1,0-.53,1,1,0,0,1,.28-.4,1.39,1.39,0,0,1,.51-.29,2.75,2.75,0,0,1,.71-.16Z" transform="translate(-25.32 -18.89)"/><path d="M86.11,59.53l.54,5.18-.89.09-.54-5.18Z" transform="translate(-25.32 -18.89)"/><path d="M88.09,61.63l.3,2.9-.89.09L87.12,61l.84-.09Zm0,.95-.27,0a2.39,2.39,0,0,1,0-.71,1.56,1.56,0,0,1,.22-.58,1.18,1.18,0,0,1,.41-.42,1.45,1.45,0,0,1,1.07-.17.85.85,0,0,1,.38.19,1,1,0,0,1,.27.37,1.83,1.83,0,0,1,.14.58l.25,2.43-.89.1-.24-2.35a1.07,1.07,0,0,0-.11-.39.4.4,0,0,0-.23-.18.89.89,0,0,0-.33,0,.64.64,0,0,0-.35.12.78.78,0,0,0-.23.25,1,1,0,0,0-.1.35A1.86,1.86,0,0,0,88.05,62.58Zm2.21-.39-.36.1a2,2,0,0,1,0-.65,1.63,1.63,0,0,1,.21-.56,1.3,1.3,0,0,1,.41-.4,1.42,1.42,0,0,1,.6-.2,1.31,1.31,0,0,1,.49,0,.84.84,0,0,1,.4.2,1,1,0,0,1,.28.4,1.76,1.76,0,0,1,.15.62l.25,2.35-.9.09-.25-2.35a.83.83,0,0,0-.11-.4.38.38,0,0,0-.23-.17.81.81,0,0,0-.32,0,.76.76,0,0,0-.32.11.7.7,0,0,0-.21.21.76.76,0,0,0-.1.3A1,1,0,0,0,90.26,62.19Z" transform="translate(-25.32 -18.89)"/><path d="M95.15,63.89a1.89,1.89,0,0,1-.76-.06,1.45,1.45,0,0,1-.6-.32,1.6,1.6,0,0,1-.41-.52,1.92,1.92,0,0,1-.2-.68v-.14a2.23,2.23,0,0,1,0-.78,1.64,1.64,0,0,1,.28-.63,1.48,1.48,0,0,1,.49-.44,1.64,1.64,0,0,1,.67-.2,1.77,1.77,0,0,1,.7.05,1.3,1.3,0,0,1,.53.32,1.55,1.55,0,0,1,.36.53,2.62,2.62,0,0,1,.18.72l0,.37-2.86.3-.06-.61,2-.21v-.07a1.13,1.13,0,0,0-.12-.38.65.65,0,0,0-.26-.26.68.68,0,0,0-.41-.06.63.63,0,0,0-.34.12.84.84,0,0,0-.22.27,1.39,1.39,0,0,0-.1.39,1.92,1.92,0,0,0,0,.48l0,.13a1.3,1.3,0,0,0,.1.42,1,1,0,0,0,.22.32.88.88,0,0,0,.32.19.8.8,0,0,0,.41,0,1.12,1.12,0,0,0,.86-.53l.49.42a1.41,1.41,0,0,1-.27.36,2.12,2.12,0,0,1-.44.3A2.16,2.16,0,0,1,95.15,63.89Z" transform="translate(-25.32 -18.89)"/><path d="M97.79,60.64l.3,2.87-.89.1L96.82,60l.84-.09Zm0,.93-.27,0a2.46,2.46,0,0,1,0-.73,1.55,1.55,0,0,1,.23-.59,1.37,1.37,0,0,1,.42-.41,1.32,1.32,0,0,1,.57-.18,1.57,1.57,0,0,1,.49,0,1,1,0,0,1,.39.2,1.24,1.24,0,0,1,.28.4,2.43,2.43,0,0,1,.15.63l.24,2.34-.9.1L99.15,61a1,1,0,0,0-.12-.39.38.38,0,0,0-.23-.18.86.86,0,0,0-.69.09.72.72,0,0,0-.23.26,1,1,0,0,0-.12.35A1.13,1.13,0,0,0,97.75,61.57Z" transform="translate(-25.32 -18.89)"/><path d="M102.42,59.37l.07.64-2.09.22-.07-.64Zm-1.62-.74.89-.09.37,3.5a.49.49,0,0,0,.07.24.18.18,0,0,0,.14.1.48.48,0,0,0,.21,0l.16,0,.12,0,.08.67-.25.09-.31,0a1.35,1.35,0,0,1-.54,0,.85.85,0,0,1-.38-.3,1.37,1.37,0,0,1-.19-.6Z" transform="translate(-25.32 -18.89)"/><path d="M105,62.85a2.11,2.11,0,0,1-.76-.05,1.58,1.58,0,0,1-.6-.32,1.54,1.54,0,0,1-.41-.53,1.86,1.86,0,0,1-.2-.68v-.13a2.23,2.23,0,0,1,0-.78,1.81,1.81,0,0,1,.28-.63,1.52,1.52,0,0,1,.5-.44,1.76,1.76,0,0,1,.67-.21,1.72,1.72,0,0,1,.69.06,1.44,1.44,0,0,1,.54.31,1.7,1.7,0,0,1,.36.54,2.24,2.24,0,0,1,.17.71l0,.38-2.86.3-.06-.62,2-.2v-.07a1,1,0,0,0-.13-.38.55.55,0,0,0-.26-.26.74.74,0,0,0-.41-.07.7.7,0,0,0-.33.13.56.56,0,0,0-.22.26,1.12,1.12,0,0,0-.11.39,2.6,2.6,0,0,0,0,.48v.14a1.44,1.44,0,0,0,.11.42,1,1,0,0,0,.22.32.8.8,0,0,0,.32.19,1,1,0,0,0,.4,0,1.19,1.19,0,0,0,.5-.17,1.12,1.12,0,0,0,.36-.36l.5.42a1.48,1.48,0,0,1-.28.35,1.42,1.42,0,0,1-.44.3A1.61,1.61,0,0,1,105,62.85Z" transform="translate(-25.32 -18.89)"/><path d="M110.47,62.29a1.85,1.85,0,0,1-.75-.06,1.7,1.7,0,0,1-.61-.32,1.75,1.75,0,0,1-.41-.52,2,2,0,0,1-.19-.68l0-.14a2.49,2.49,0,0,1,0-.78,1.81,1.81,0,0,1,.28-.63,1.62,1.62,0,0,1,.5-.44,1.82,1.82,0,0,1,.67-.21,2,2,0,0,1,.7.06,1.37,1.37,0,0,1,.53.32,1.55,1.55,0,0,1,.36.53,2.53,2.53,0,0,1,.18.72l0,.37-2.86.3-.07-.61,2-.21v-.07a1.13,1.13,0,0,0-.12-.38.72.72,0,0,0-.26-.26.7.7,0,0,0-.42-.06.6.6,0,0,0-.33.12.73.73,0,0,0-.22.27,1.12,1.12,0,0,0-.1.38,2,2,0,0,0,0,.49v.13a1.36,1.36,0,0,0,.11.42,1.07,1.07,0,0,0,.22.32.8.8,0,0,0,.32.19.91.91,0,0,0,.41,0,1.14,1.14,0,0,0,.49-.16,1,1,0,0,0,.36-.37l.5.42a1.69,1.69,0,0,1-.27.36,1.77,1.77,0,0,1-.44.29A1.94,1.94,0,0,1,110.47,62.29Z" transform="translate(-25.32 -18.89)"/><path d="M113.12,59l.3,2.87-.89.09-.38-3.64.83-.09Zm-.05.93-.26,0a2.25,2.25,0,0,1,0-.74,1.77,1.77,0,0,1,.24-.58,1.34,1.34,0,0,1,.41-.41,1.36,1.36,0,0,1,.58-.18,1.51,1.51,0,0,1,.48,0,.91.91,0,0,1,.39.2.93.93,0,0,1,.28.4,1.82,1.82,0,0,1,.15.63l.25,2.34-.9.1-.25-2.35a.79.79,0,0,0-.11-.39.41.41,0,0,0-.23-.18.9.9,0,0,0-.34,0,.85.85,0,0,0-.35.12.64.64,0,0,0-.23.26,1.21,1.21,0,0,0-.13.35A1.84,1.84,0,0,0,113.07,60Z" transform="translate(-25.32 -18.89)"/><path d="M117.78,59.66v-.08a2.81,2.81,0,0,1,0-.77,1.64,1.64,0,0,1,.22-.61,1.27,1.27,0,0,1,1-.63,1.16,1.16,0,0,1,1,.4,2.24,2.24,0,0,1,.34.55,3.48,3.48,0,0,1,.22.71l0,.2a4,4,0,0,1-.07.72,2.25,2.25,0,0,1-.22.6,1.25,1.25,0,0,1-.38.41,1.17,1.17,0,0,1-.57.19,1.24,1.24,0,0,1-.61-.07,1.39,1.39,0,0,1-.49-.34,2,2,0,0,1-.34-.56A2.71,2.71,0,0,1,117.78,59.66Zm.88-.17v.07a2.85,2.85,0,0,0,.09.44,1.27,1.27,0,0,0,.17.35.63.63,0,0,0,.62.27.79.79,0,0,0,.42-.16.86.86,0,0,0,.23-.35,1.41,1.41,0,0,0,.07-.47l0-.53a1.79,1.79,0,0,0-.11-.37.92.92,0,0,0-.19-.28.65.65,0,0,0-.26-.17.67.67,0,0,0-.35,0,.64.64,0,0,0-.35.12.71.71,0,0,0-.21.27,1.17,1.17,0,0,0-.09.39A3.38,3.38,0,0,0,118.66,59.49Zm1.57.92-.46-4.4.89-.09.54,5.18-.8.08Z" transform="translate(-25.32 -18.89)"/><path d="M123.65,60.91a1.9,1.9,0,0,1-.76-.06,1.45,1.45,0,0,1-.6-.32,1.5,1.5,0,0,1-.41-.52,2.15,2.15,0,0,1-.2-.68v-.14a2.49,2.49,0,0,1,0-.78,2,2,0,0,1,.28-.63,1.52,1.52,0,0,1,.5-.44,1.59,1.59,0,0,1,.67-.2,1.54,1.54,0,0,1,.69.06,1.22,1.22,0,0,1,.54.31,1.55,1.55,0,0,1,.36.53,2.62,2.62,0,0,1,.18.72l0,.37-2.86.3-.06-.61,2-.21v-.07a1,1,0,0,0-.13-.38.63.63,0,0,0-.25-.26.71.71,0,0,0-.42-.06.6.6,0,0,0-.33.12.64.64,0,0,0-.22.27,1.38,1.38,0,0,0-.11.39,2.62,2.62,0,0,0,0,.48v.14a1.3,1.3,0,0,0,.11.41.83.83,0,0,0,.22.32.8.8,0,0,0,.32.19.76.76,0,0,0,.4,0,1.14,1.14,0,0,0,.5-.16,1.06,1.06,0,0,0,.36-.37l.5.42a1.76,1.76,0,0,1-.28.36,1.69,1.69,0,0,1-.44.3A2.08,2.08,0,0,1,123.65,60.91Z" transform="translate(-25.32 -18.89)"/><path d="M127.63,59.42a.34.34,0,0,0-.09-.2.45.45,0,0,0-.24-.15,3.29,3.29,0,0,0-.5-.09,3.79,3.79,0,0,1-.54-.09,2.24,2.24,0,0,1-.44-.18,1.15,1.15,0,0,1-.3-.28,1,1,0,0,1-.14-.4,1.09,1.09,0,0,1,.06-.44,1,1,0,0,1,.24-.38,1.48,1.48,0,0,1,.43-.29,1.76,1.76,0,0,1,.59-.15,2,2,0,0,1,.82.06,1.23,1.23,0,0,1,.56.37,1.13,1.13,0,0,1,.24.57l-.89.1a.46.46,0,0,0-.1-.26.48.48,0,0,0-.22-.17.75.75,0,0,0-.35,0,.81.81,0,0,0-.3.1.52.52,0,0,0-.18.18.41.41,0,0,0,0,.22.53.53,0,0,0,.05.15.5.5,0,0,0,.13.12,1,1,0,0,0,.24.08l.35,0a3.75,3.75,0,0,1,.74.14,1.28,1.28,0,0,1,.51.3.89.89,0,0,1,.23.55.85.85,0,0,1-.06.45,1,1,0,0,1-.26.38,1.62,1.62,0,0,1-.46.28,1.82,1.82,0,0,1-.61.15,2,2,0,0,1-.87-.09,1.35,1.35,0,0,1-.57-.41,1,1,0,0,1-.24-.56l.85-.09a.51.51,0,0,0,.15.33.59.59,0,0,0,.29.16,1,1,0,0,0,.34,0,.93.93,0,0,0,.33-.09.58.58,0,0,0,.2-.17A.46.46,0,0,0,127.63,59.42Z" transform="translate(-25.32 -18.89)"/><path d="M131.2,59.27,131,57.59a.93.93,0,0,0-.1-.32.46.46,0,0,0-.22-.19.71.71,0,0,0-.34,0,.81.81,0,0,0-.3.1.44.44,0,0,0-.19.19.45.45,0,0,0,0,.26l-.89.09a1.09,1.09,0,0,1,.06-.44,1.28,1.28,0,0,1,.27-.4,1.66,1.66,0,0,1,.46-.3,2.25,2.25,0,0,1,.62-.16,2.08,2.08,0,0,1,.76.07,1.15,1.15,0,0,1,.55.36,1.23,1.23,0,0,1,.27.69l.16,1.59a2.34,2.34,0,0,0,.09.46,1,1,0,0,0,.14.33v.06l-.9.09a1.2,1.2,0,0,1-.14-.34A3.1,3.1,0,0,1,131.2,59.27Zm0-1.46.06.53-.56.06a1.34,1.34,0,0,0-.37.08.89.89,0,0,0-.24.14.55.55,0,0,0-.14.21.69.69,0,0,0,0,.25.5.5,0,0,0,.09.24.38.38,0,0,0,.2.15.64.64,0,0,0,.28,0,.77.77,0,0,0,.41-.14.66.66,0,0,0,.24-.26.44.44,0,0,0,.08-.27l.3.36a1.6,1.6,0,0,1-.11.3,1.31,1.31,0,0,1-.22.32,1.27,1.27,0,0,1-.33.26,1.29,1.29,0,0,1-.48.14,1.35,1.35,0,0,1-.64-.08,1.14,1.14,0,0,1-.49-.34,1,1,0,0,1-.22-.54,1.14,1.14,0,0,1,.06-.53,1,1,0,0,1,.28-.41,1.59,1.59,0,0,1,.5-.28,2.84,2.84,0,0,1,.72-.16Z" transform="translate(-25.32 -18.89)"/><path d="M134.42,59.08a.81.81,0,0,0,.32-.11.56.56,0,0,0,.22-.24.56.56,0,0,0,.06-.32l.84-.09a1.17,1.17,0,0,1-.14.69,1.35,1.35,0,0,1-.49.52,1.71,1.71,0,0,1-.73.25,1.81,1.81,0,0,1-.75-.07,1.34,1.34,0,0,1-.56-.34,1.62,1.62,0,0,1-.37-.55,2.64,2.64,0,0,1-.18-.71V58a2.16,2.16,0,0,1,0-.72,1.62,1.62,0,0,1,.25-.62,1.48,1.48,0,0,1,.48-.45,1.7,1.7,0,0,1,.71-.22,1.74,1.74,0,0,1,.8.09,1.38,1.38,0,0,1,.58.43,1.53,1.53,0,0,1,.27.72l-.84.09a.92.92,0,0,0-.12-.34.72.72,0,0,0-.26-.23.65.65,0,0,0-.37,0,.71.71,0,0,0-.37.13.63.63,0,0,0-.2.28,1.17,1.17,0,0,0-.08.38,3,3,0,0,0,0,.42V58a2.61,2.61,0,0,0,.08.42,1.6,1.6,0,0,0,.15.35A.71.71,0,0,0,134,59,.82.82,0,0,0,134.42,59.08Z" transform="translate(-25.32 -18.89)"/><path d="M138.7,57.63l.28,0a3.14,3.14,0,0,1,0,.69,1.44,1.44,0,0,1-.2.56,1.07,1.07,0,0,1-.39.4,1.22,1.22,0,0,1-.6.19,1.64,1.64,0,0,1-.5,0,1,1,0,0,1-.41-.2,1.12,1.12,0,0,1-.29-.4,1.71,1.71,0,0,1-.15-.61l-.25-2.36.89-.09.25,2.36a.73.73,0,0,0,.07.3.55.55,0,0,0,.14.19.66.66,0,0,0,.19.09.81.81,0,0,0,.22,0,.92.92,0,0,0,.5-.19.68.68,0,0,0,.23-.38A1.37,1.37,0,0,0,138.7,57.63Zm0,.77-.29-2.79.89-.09.38,3.65-.84.09Z" transform="translate(-25.32 -18.89)"/><path d="M142.09,59a2.09,2.09,0,0,1-.76,0,1.73,1.73,0,0,1-.6-.32,1.67,1.67,0,0,1-.42-.53,1.85,1.85,0,0,1-.19-.68l0-.13a2.49,2.49,0,0,1,0-.78,1.66,1.66,0,0,1,.29-.63,1.38,1.38,0,0,1,.49-.44,1.65,1.65,0,0,1,.67-.21,1.6,1.6,0,0,1,.7.06,1.35,1.35,0,0,1,.53.31,1.6,1.6,0,0,1,.36.54,2.55,2.55,0,0,1,.18.71l0,.38-2.86.29-.07-.61,2-.21v-.06a1.13,1.13,0,0,0-.12-.38.59.59,0,0,0-.26-.26.76.76,0,0,0-.41-.07.8.8,0,0,0-.34.12.73.73,0,0,0-.22.27,1.12,1.12,0,0,0-.1.39,1.93,1.93,0,0,0,0,.48v.14a1.85,1.85,0,0,0,.11.42,1.21,1.21,0,0,0,.22.32.94.94,0,0,0,.32.19,1.08,1.08,0,0,0,.41,0,1.15,1.15,0,0,0,.49-.17,1,1,0,0,0,.36-.36l.5.41a1.26,1.26,0,0,1-.27.36,1.55,1.55,0,0,1-.44.3A2,2,0,0,1,142.09,59Z" transform="translate(-25.32 -18.89)"/><path d="M144.74,55.7l.31,2.91-.89.09-.39-3.65.85-.09Zm1-.88.08.83h-.35a.9.9,0,0,0-.35.09.65.65,0,0,0-.24.19.53.53,0,0,0-.13.27.94.94,0,0,0,0,.34h-.19a2.36,2.36,0,0,1,0-.65,2.13,2.13,0,0,1,.15-.54A1,1,0,0,1,145,55a.89.89,0,0,1,.46-.18h.16Z" transform="translate(-25.32 -18.89)"/><path d="M146.24,56.68v-.07a2.78,2.78,0,0,1,0-.77,1.76,1.76,0,0,1,.22-.62,1.21,1.21,0,0,1,.41-.43,1.33,1.33,0,0,1,.58-.19,1.14,1.14,0,0,1,.59.07,1.31,1.31,0,0,1,.46.33,2.05,2.05,0,0,1,.33.54,3.79,3.79,0,0,1,.23.72l0,.19a4.11,4.11,0,0,1-.07.73,2.06,2.06,0,0,1-.22.59,1.15,1.15,0,0,1-1,.61,1.24,1.24,0,0,1-.61-.08,1.18,1.18,0,0,1-.49-.34,1.89,1.89,0,0,1-.34-.55A2.37,2.37,0,0,1,146.24,56.68Zm.88-.16v.07a3.12,3.12,0,0,0,.09.44.91.91,0,0,0,.17.34.62.62,0,0,0,.26.22.67.67,0,0,0,.35.06.8.8,0,0,0,.43-.17.82.82,0,0,0,.23-.34,1.47,1.47,0,0,0,.07-.48l-.06-.53a1.89,1.89,0,0,0-.1-.36.86.86,0,0,0-.19-.28.59.59,0,0,0-.27-.17.77.77,0,0,0-.35,0,.73.73,0,0,0-.34.13.71.71,0,0,0-.21.27,1.12,1.12,0,0,0-.09.38A2.35,2.35,0,0,0,147.12,56.52Zm1.56.92-.46-4.4.9-.1.54,5.18-.81.09Z" transform="translate(-25.32 -18.89)"/><path d="M150.12,56.27V56.2a2.31,2.31,0,0,1,0-.75,1.63,1.63,0,0,1,.27-.63,1.52,1.52,0,0,1,.5-.44,1.7,1.7,0,0,1,.7-.22,1.66,1.66,0,0,1,.75.07,1.59,1.59,0,0,1,.58.33,1.71,1.71,0,0,1,.39.55,2.38,2.38,0,0,1,.2.73v.07a2.32,2.32,0,0,1,0,.75,1.84,1.84,0,0,1-.28.62,1.41,1.41,0,0,1-.49.45,1.74,1.74,0,0,1-.71.21,1.79,1.79,0,0,1-.74-.06,1.44,1.44,0,0,1-.58-.33,1.63,1.63,0,0,1-.4-.56A2.31,2.31,0,0,1,150.12,56.27Zm.88-.17v.08a3.12,3.12,0,0,0,.09.44,1.17,1.17,0,0,0,.19.35.67.67,0,0,0,.28.22.68.68,0,0,0,.38.05.63.63,0,0,0,.37-.13.73.73,0,0,0,.22-.27.94.94,0,0,0,.11-.38,1.77,1.77,0,0,0,0-.46v-.07a2.16,2.16,0,0,0-.1-.44,1.28,1.28,0,0,0-.18-.35.77.77,0,0,0-.29-.22.78.78,0,0,0-.38-.06.73.73,0,0,0-.36.13.77.77,0,0,0-.23.28,1.6,1.6,0,0,0-.11.39A3.23,3.23,0,0,0,151,56.1Z" transform="translate(-25.32 -18.89)"/><path d="M76.75,90.8l.51,4.91-.93.09-.51-4.91Zm2.31-.24.08.73-2.6.27-.08-.73ZM79,92.62l.07.71-2.27.23-.07-.71Zm.56,2.12.08.72L77,95.74,76.9,95Z" transform="translate(-25.32 -18.89)"/><path d="M80.73,92.44l.3,2.87-.89.1-.38-3.65.84-.09Zm0,.93-.26,0a2.18,2.18,0,0,1,0-.73,1.56,1.56,0,0,1,.24-.59,1.34,1.34,0,0,1,.41-.41,1.36,1.36,0,0,1,.58-.18,1.52,1.52,0,0,1,.48,0,1,1,0,0,1,.39.2,1.1,1.1,0,0,1,.28.4,2.43,2.43,0,0,1,.15.63l.24,2.34-.89.1-.25-2.35a.91.91,0,0,0-.11-.39.44.44,0,0,0-.23-.18,1,1,0,0,0-.35,0,1,1,0,0,0-.35.12.83.83,0,0,0-.23.26,1,1,0,0,0-.12.35A1.4,1.4,0,0,0,80.69,93.37Z" transform="translate(-25.32 -18.89)"/><path d="M85.39,93.06V93a2.81,2.81,0,0,1,0-.77,1.89,1.89,0,0,1,.22-.62,1.41,1.41,0,0,1,.41-.43,1.43,1.43,0,0,1,.59-.2,1.25,1.25,0,0,1,.59.07,1.19,1.19,0,0,1,.45.33,1.89,1.89,0,0,1,.34.55,3.69,3.69,0,0,1,.23.71l0,.2a3.24,3.24,0,0,1-.08.72,1.78,1.78,0,0,1-.22.6,1.18,1.18,0,0,1-.38.42,1.33,1.33,0,0,1-.56.19,1.35,1.35,0,0,1-.61-.08,1.28,1.28,0,0,1-.49-.34,1.65,1.65,0,0,1-.34-.56A2.71,2.71,0,0,1,85.39,93.06Zm.89-.17V93a1.91,1.91,0,0,0,.08.44,1.43,1.43,0,0,0,.17.35.77.77,0,0,0,.26.22.62.62,0,0,0,.36,0,.73.73,0,0,0,.42-.16.7.7,0,0,0,.23-.35,1.4,1.4,0,0,0,.08-.47l-.06-.53a1.45,1.45,0,0,0-.11-.37.9.9,0,0,0-.18-.28,1,1,0,0,0-.27-.17.67.67,0,0,0-.35,0,.6.6,0,0,0-.34.12.71.71,0,0,0-.21.27,1.17,1.17,0,0,0-.09.39A1.69,1.69,0,0,0,86.28,92.89Zm1.56.93-.46-4.41.9-.09.54,5.18-.81.08Z" transform="translate(-25.32 -18.89)"/><path d="M91.27,94.31a1.89,1.89,0,0,1-.76-.06,1.56,1.56,0,0,1-.6-.31,1.64,1.64,0,0,1-.41-.53,1.92,1.92,0,0,1-.2-.68V92.6a2.23,2.23,0,0,1,0-.78,1.81,1.81,0,0,1,.28-.63,1.62,1.62,0,0,1,.49-.45,1.64,1.64,0,0,1,.67-.2,1.6,1.6,0,0,1,.7.06,1.32,1.32,0,0,1,.54.31,1.69,1.69,0,0,1,.35.53,2.71,2.71,0,0,1,.18.72l0,.37-2.86.3-.06-.61,2-.21V92a1.19,1.19,0,0,0-.12-.39.65.65,0,0,0-.26-.26.68.68,0,0,0-.41-.06.73.73,0,0,0-.34.12.71.71,0,0,0-.21.27,1.12,1.12,0,0,0-.11.39,2.56,2.56,0,0,0,0,.48l0,.14a1.43,1.43,0,0,0,.1.42.9.9,0,0,0,.23.31.76.76,0,0,0,.32.2.87.87,0,0,0,.4,0,1.18,1.18,0,0,0,.5-.16,1.16,1.16,0,0,0,.36-.37l.5.42a1.76,1.76,0,0,1-.28.36,1.42,1.42,0,0,1-.44.3A1.88,1.88,0,0,1,91.27,94.31Z" transform="translate(-25.32 -18.89)"/><path d="M95.24,92.82a.36.36,0,0,0-.08-.2.53.53,0,0,0-.25-.14,2.7,2.7,0,0,0-.5-.1,4.34,4.34,0,0,1-.54-.09,2.14,2.14,0,0,1-.43-.18,1.15,1.15,0,0,1-.3-.28.83.83,0,0,1-.14-.4.94.94,0,0,1,0-.44,1.14,1.14,0,0,1,.25-.38,1.41,1.41,0,0,1,.43-.29,1.7,1.7,0,0,1,.59-.15,1.91,1.91,0,0,1,.81.07,1.09,1.09,0,0,1,.56.36,1,1,0,0,1,.24.58l-.89.09A.58.58,0,0,0,95,91a.54.54,0,0,0-.22-.17.77.77,0,0,0-.35,0,.87.87,0,0,0-.31.1.48.48,0,0,0-.17.18.34.34,0,0,0,0,.22.33.33,0,0,0,0,.15.38.38,0,0,0,.13.12,1,1,0,0,0,.23.08l.36,0a4.31,4.31,0,0,1,.73.14,1.17,1.17,0,0,1,.52.31.9.9,0,0,1,.23.54,1,1,0,0,1-.06.45,1,1,0,0,1-.27.38,1.44,1.44,0,0,1-.45.28,1.88,1.88,0,0,1-.61.15,1.84,1.84,0,0,1-.87-.09,1.4,1.4,0,0,1-.58-.4A1.15,1.15,0,0,1,93,92.9l.86-.09a.56.56,0,0,0,.15.33.59.59,0,0,0,.28.15,1,1,0,0,0,.35,0,.8.8,0,0,0,.33-.09.46.46,0,0,0,.19-.17A.37.37,0,0,0,95.24,92.82Z" transform="translate(-25.32 -18.89)"/><path d="M98.82,92.67,98.64,91a.75.75,0,0,0-.09-.32.55.55,0,0,0-.22-.18.54.54,0,0,0-.34,0,.75.75,0,0,0-.31.09.41.41,0,0,0-.18.19.45.45,0,0,0,0,.26l-.89.09a.83.83,0,0,1,.06-.44,1.41,1.41,0,0,1,.27-.4,1.53,1.53,0,0,1,.46-.3,2,2,0,0,1,.62-.15,1.82,1.82,0,0,1,.75.06,1.14,1.14,0,0,1,.56.36,1.33,1.33,0,0,1,.26.69l.17,1.59a2.41,2.41,0,0,0,.08.46,1.72,1.72,0,0,0,.14.33v.06l-.91.09a1.62,1.62,0,0,1-.13-.34A2.07,2.07,0,0,1,98.82,92.67Zm0-1.46.07.53-.57.06a1.2,1.2,0,0,0-.36.08.76.76,0,0,0-.25.15.53.53,0,0,0-.13.2.52.52,0,0,0,0,.25.41.41,0,0,0,.08.24.43.43,0,0,0,.2.15.68.68,0,0,0,.29,0,1,1,0,0,0,.4-.14.79.79,0,0,0,.25-.27.51.51,0,0,0,.08-.27l.29.36a1.53,1.53,0,0,1-.32.62,1.23,1.23,0,0,1-.33.26,1.42,1.42,0,0,1-.48.14,1.39,1.39,0,0,1-.65-.08,1.11,1.11,0,0,1-.48-.34.93.93,0,0,1-.22-.54,1.32,1.32,0,0,1,0-.53,1,1,0,0,1,.28-.4,1.48,1.48,0,0,1,.51-.29,2.75,2.75,0,0,1,.71-.16Z" transform="translate(-25.32 -18.89)"/><path d="M102,92.48a.8.8,0,0,0,.33-.11.64.64,0,0,0,.22-.24.56.56,0,0,0,.06-.32l.84-.09a1.25,1.25,0,0,1-.14.69,1.43,1.43,0,0,1-.49.52,1.63,1.63,0,0,1-.73.25,1.66,1.66,0,0,1-.75-.07,1.28,1.28,0,0,1-.56-.34,1.8,1.8,0,0,1-.38-.55,2.31,2.31,0,0,1-.17-.71v-.1a2.52,2.52,0,0,1,0-.73,1.8,1.8,0,0,1,.25-.62,1.48,1.48,0,0,1,.48-.45,1.91,1.91,0,0,1,.72-.22,1.57,1.57,0,0,1,.79.1,1.3,1.3,0,0,1,.58.42,1.54,1.54,0,0,1,.28.72l-.84.09a.78.78,0,0,0-.13-.34.69.69,0,0,0-.25-.23.65.65,0,0,0-.37-.05.68.68,0,0,0-.37.13.74.74,0,0,0-.21.28,1.17,1.17,0,0,0-.07.38,2,2,0,0,0,0,.42v.11a2.61,2.61,0,0,0,.08.42.93.93,0,0,0,.15.35.64.64,0,0,0,.26.23A.7.7,0,0,0,102,92.48Z" transform="translate(-25.32 -18.89)"/><path d="M106.32,91l.27,0a2.26,2.26,0,0,1,0,.69,1.54,1.54,0,0,1-.19.57,1.21,1.21,0,0,1-.39.39,1.29,1.29,0,0,1-.6.19,1.37,1.37,0,0,1-.5,0,.88.88,0,0,1-.41-.2,1.05,1.05,0,0,1-.29-.39,2.08,2.08,0,0,1-.16-.62l-.24-2.36.89-.09.24,2.37a1.08,1.08,0,0,0,.08.3.49.49,0,0,0,.14.18.56.56,0,0,0,.19.09.79.79,0,0,0,.22,0,.88.88,0,0,0,.5-.19.71.71,0,0,0,.23-.37A1.44,1.44,0,0,0,106.32,91Zm0,.77L106,89l.9-.1.38,3.65-.84.09Z" transform="translate(-25.32 -18.89)"/><path d="M109.7,92.38a2.11,2.11,0,0,1-.76,0,1.73,1.73,0,0,1-.6-.32,1.6,1.6,0,0,1-.41-.52,2,2,0,0,1-.2-.69v-.13a2.23,2.23,0,0,1,0-.78,1.81,1.81,0,0,1,.28-.63,1.52,1.52,0,0,1,.5-.44,1.76,1.76,0,0,1,.67-.21,1.55,1.55,0,0,1,.69.06,1.44,1.44,0,0,1,.54.31,1.6,1.6,0,0,1,.36.54,2.24,2.24,0,0,1,.17.71l0,.38-2.86.3-.06-.62,2-.2V90a1,1,0,0,0-.13-.38.59.59,0,0,0-.26-.26.74.74,0,0,0-.41-.07.7.7,0,0,0-.33.13.56.56,0,0,0-.22.26,1.48,1.48,0,0,0-.11.39,2.72,2.72,0,0,0,0,.49v.13a1.44,1.44,0,0,0,.11.42.91.91,0,0,0,.22.32.94.94,0,0,0,.32.19,1,1,0,0,0,.4,0,1.19,1.19,0,0,0,.5-.17,1.12,1.12,0,0,0,.36-.36l.5.42a1.48,1.48,0,0,1-.28.35,1.31,1.31,0,0,1-.44.3A1.61,1.61,0,0,1,109.7,92.38Z" transform="translate(-25.32 -18.89)"/><path d="M112.36,89.1l.3,2.91-.89.09-.38-3.65.84-.09Zm1-.88.07.83h-.34a1,1,0,0,0-.36.09.65.65,0,0,0-.24.19.84.84,0,0,0-.13.27,1.3,1.3,0,0,0,0,.35h-.2a2.8,2.8,0,0,1,0-.65,1.54,1.54,0,0,1,.15-.54.88.88,0,0,1,.3-.38.81.81,0,0,1,.46-.17h.16Z" transform="translate(-25.32 -18.89)"/><path d="M113.85,90.08V90a2.81,2.81,0,0,1,0-.77,2,2,0,0,1,.22-.62,1.35,1.35,0,0,1,1.59-.55,1.19,1.19,0,0,1,.45.33,1.77,1.77,0,0,1,.34.55,4.23,4.23,0,0,1,.23.71l0,.19a4.08,4.08,0,0,1-.08.73,2.06,2.06,0,0,1-.22.59,1.15,1.15,0,0,1-.94.61,1.23,1.23,0,0,1-.61-.07,1.39,1.39,0,0,1-.49-.34,1.75,1.75,0,0,1-.34-.56A2.69,2.69,0,0,1,113.85,90.08Zm.89-.16V90a2,2,0,0,0,.08.44,1.27,1.27,0,0,0,.17.35.78.78,0,0,0,.26.22.82.82,0,0,0,.78-.11.77.77,0,0,0,.23-.35,1.46,1.46,0,0,0,.08-.48l-.06-.53a1.37,1.37,0,0,0-.11-.36,1,1,0,0,0-.18-.28.65.65,0,0,0-.27-.17.79.79,0,0,0-.35,0,.69.69,0,0,0-.34.13.71.71,0,0,0-.21.27,1.41,1.41,0,0,0-.1.38A2.39,2.39,0,0,0,114.74,89.92Zm1.56.92-.46-4.4.9-.1.54,5.18-.81.09Z" transform="translate(-25.32 -18.89)"/><path d="M117.74,89.67V89.6a2.06,2.06,0,0,1,0-.75,1.63,1.63,0,0,1,.27-.63,1.48,1.48,0,0,1,.49-.44,1.79,1.79,0,0,1,.71-.22,1.83,1.83,0,0,1,.75.07,1.47,1.47,0,0,1,.57.33,1.59,1.59,0,0,1,.4.55,2.37,2.37,0,0,1,.19.73v.07a2.31,2.31,0,0,1,0,.75,1.77,1.77,0,0,1-.27.63,1.42,1.42,0,0,1-.5.44,1.7,1.7,0,0,1-.71.22,2,2,0,0,1-.74-.07,1.59,1.59,0,0,1-.58-.33,1.76,1.76,0,0,1-.39-.56A2,2,0,0,1,117.74,89.67Zm.88-.16v.07a1.56,1.56,0,0,0,.09.44,1.43,1.43,0,0,0,.18.35.66.66,0,0,0,.28.22.72.72,0,0,0,.39,0,.7.7,0,0,0,.36-.12.79.79,0,0,0,.23-.28,1.12,1.12,0,0,0,.11-.38,1.77,1.77,0,0,0,0-.46v-.07a1.93,1.93,0,0,0-.09-.43,1.23,1.23,0,0,0-.19-.36.67.67,0,0,0-.28-.22.8.8,0,0,0-.39-.06.72.72,0,0,0-.36.14.73.73,0,0,0-.22.27,1.25,1.25,0,0,0-.11.39A1.69,1.69,0,0,0,118.62,89.51Z" transform="translate(-25.32 -18.89)"/><path d="M84,120.36l.51,4.91-.93.1-2.44-3.19.35,3.41-.93.09-.51-4.91.93-.09,2.45,3.19-.36-3.41Z" transform="translate(-25.32 -18.89)"/><path d="M87,125.07a2.09,2.09,0,0,1-.76,0,1.73,1.73,0,0,1-.6-.32,1.6,1.6,0,0,1-.41-.52,2,2,0,0,1-.2-.69v-.13a2.23,2.23,0,0,1,0-.78,1.64,1.64,0,0,1,.28-.63,1.48,1.48,0,0,1,.49-.44,1.82,1.82,0,0,1,.67-.21,1.77,1.77,0,0,1,.7.06,1.33,1.33,0,0,1,.53.31,1.7,1.7,0,0,1,.36.54,2.55,2.55,0,0,1,.18.71l0,.38-2.86.3-.06-.62,2-.2v-.07a1.13,1.13,0,0,0-.12-.38.59.59,0,0,0-.26-.26.76.76,0,0,0-.41-.07.73.73,0,0,0-.34.13.71.71,0,0,0-.22.26,1.39,1.39,0,0,0-.1.39,2,2,0,0,0,0,.49l0,.13a1.43,1.43,0,0,0,.1.42,1.07,1.07,0,0,0,.22.32.88.88,0,0,0,.32.19,1.1,1.1,0,0,0,.41,0,1.19,1.19,0,0,0,.5-.17,1.12,1.12,0,0,0,.36-.36l.49.42a1.22,1.22,0,0,1-.27.35,1.55,1.55,0,0,1-.44.3A1.66,1.66,0,0,1,87,125.07Z" transform="translate(-25.32 -18.89)"/><path d="M91.23,122.93l.27,0a2.63,2.63,0,0,1,0,.69,1.61,1.61,0,0,1-.19.56,1.1,1.1,0,0,1-.4.4,1.22,1.22,0,0,1-.6.19,1.65,1.65,0,0,1-.5,0,1,1,0,0,1-.41-.2,1.25,1.25,0,0,1-.29-.4,2.27,2.27,0,0,1-.15-.61l-.25-2.36.89-.09.25,2.36a.72.72,0,0,0,.08.3.53.53,0,0,0,.13.19.66.66,0,0,0,.19.09h.23a1,1,0,0,0,.5-.19.75.75,0,0,0,.23-.37A1.44,1.44,0,0,0,91.23,122.93Zm0,.77-.29-2.79.9-.09.38,3.65-.85.09Z" transform="translate(-25.32 -18.89)"/><path d="M94.31,120.56l.07.64-2.1.22-.06-.64Zm-1.63-.74.9-.09.36,3.49a.68.68,0,0,0,.07.25.25.25,0,0,0,.15.1.48.48,0,0,0,.21,0l.16,0,.12,0,.08.67-.25.08a1.42,1.42,0,0,1-.31.06,1.35,1.35,0,0,1-.54,0,.69.69,0,0,1-.38-.29,1.25,1.25,0,0,1-.19-.6Z" transform="translate(-25.32 -18.89)"/><path d="M95.87,121.15l.3,2.9-.89.1-.38-3.65.85-.09Zm1-.89.07.83h-.34a1.18,1.18,0,0,0-.36.1.63.63,0,0,0-.24.18.84.84,0,0,0-.13.27,1.32,1.32,0,0,0,0,.35h-.2a2.9,2.9,0,0,1,0-.66,1.54,1.54,0,0,1,.15-.54,1,1,0,0,1,.3-.38,1,1,0,0,1,.46-.17.85.85,0,0,1,.16,0Z" transform="translate(-25.32 -18.89)"/><path d="M99.56,122.91l-.17-1.68a.87.87,0,0,0-.1-.31.45.45,0,0,0-.22-.19.62.62,0,0,0-.34,0,.75.75,0,0,0-.31.09.54.54,0,0,0-.18.19.47.47,0,0,0,0,.26l-.89.1a.94.94,0,0,1,.06-.44,1.18,1.18,0,0,1,.27-.4,1.66,1.66,0,0,1,.46-.3,2,2,0,0,1,.62-.16,1.89,1.89,0,0,1,.76.06,1.17,1.17,0,0,1,.55.37,1.19,1.19,0,0,1,.26.68l.17,1.6a2.5,2.5,0,0,0,.09.46.94.94,0,0,0,.14.32v.06l-.9.1a1.27,1.27,0,0,1-.14-.35A3.1,3.1,0,0,1,99.56,122.91Zm0-1.46.06.53L99,122a1.7,1.7,0,0,0-.37.08.87.87,0,0,0-.25.15.57.57,0,0,0-.13.21.67.67,0,0,0,0,.25.43.43,0,0,0,.09.23.46.46,0,0,0,.2.16.64.64,0,0,0,.28,0,.87.87,0,0,0,.41-.14.73.73,0,0,0,.24-.26.45.45,0,0,0,.08-.28l.3.36a1.45,1.45,0,0,1-.11.31,1.6,1.6,0,0,1-.22.31,1.06,1.06,0,0,1-.33.26,1.13,1.13,0,0,1-.48.14,1.41,1.41,0,0,1-.65-.07,1.2,1.2,0,0,1-.48-.35,1,1,0,0,1-.22-.54,1.12,1.12,0,0,1,.06-.52.94.94,0,0,1,.28-.41,1.61,1.61,0,0,1,.5-.29,2.85,2.85,0,0,1,.72-.15Z" transform="translate(-25.32 -18.89)"/><path d="M101.75,118.23l.54,5.18-.9.1-.54-5.18Z" transform="translate(-25.32 -18.89)"/><path d="M85.49,149.56l.51,4.91-.92.1-.52-4.91Zm1.05,4.86-1.05.11-.07-.73,1-.11a1.29,1.29,0,0,0,.7-.27,1.21,1.21,0,0,0,.38-.59,2.48,2.48,0,0,0,.06-.88l0-.25a2.52,2.52,0,0,0-.16-.68,1.19,1.19,0,0,0-.3-.47,1,1,0,0,0-.43-.27,1.3,1.3,0,0,0-.56,0l-1.1.11-.08-.73,1.1-.12a2.52,2.52,0,0,1,.92.07,2.11,2.11,0,0,1,.75.41,2.14,2.14,0,0,1,.54.68,3,3,0,0,1,.26.94l0,.25a2.57,2.57,0,0,1-.06,1,2,2,0,0,1-.38.79,2,2,0,0,1-.66.54A2.5,2.5,0,0,1,86.54,154.42Z" transform="translate(-25.32 -18.89)"/><path d="M91.15,154a2,2,0,0,1-.75-.05,1.87,1.87,0,0,1-.61-.32,1.79,1.79,0,0,1-.41-.53,1.85,1.85,0,0,1-.19-.68l0-.13a2.49,2.49,0,0,1,0-.78,1.81,1.81,0,0,1,.28-.63,1.5,1.5,0,0,1,.5-.44,1.82,1.82,0,0,1,1.37-.15,1.35,1.35,0,0,1,.53.31,1.5,1.5,0,0,1,.36.54,2.55,2.55,0,0,1,.18.71l0,.38-2.86.29-.07-.61,2-.21v-.06a1.19,1.19,0,0,0-.12-.39.81.81,0,0,0-.26-.26.78.78,0,0,0-.42-.06.81.81,0,0,0-.33.12.73.73,0,0,0-.22.27,1.12,1.12,0,0,0-.1.39,1.93,1.93,0,0,0,0,.48v.14a1.44,1.44,0,0,0,.11.42,1,1,0,0,0,.22.32.94.94,0,0,0,.32.19.92.92,0,0,0,.41,0,1,1,0,0,0,.49-.16,1,1,0,0,0,.36-.36l.5.41a1.69,1.69,0,0,1-.27.36,1.48,1.48,0,0,1-.45.3A1.82,1.82,0,0,1,91.15,154Z" transform="translate(-25.32 -18.89)"/><path d="M96.87,152.55l-.18-1.68a.71.71,0,0,0-.09-.31.5.5,0,0,0-.22-.19.62.62,0,0,0-.34,0,.75.75,0,0,0-.31.09.47.47,0,0,0-.23.45l-.89.09a.84.84,0,0,1,.06-.44,1.25,1.25,0,0,1,.27-.39,1.53,1.53,0,0,1,.46-.3,1.72,1.72,0,0,1,.62-.16,1.82,1.82,0,0,1,.75.06,1.09,1.09,0,0,1,.56.37,1.19,1.19,0,0,1,.26.68l.17,1.59a3.78,3.78,0,0,0,.08.47,1.92,1.92,0,0,0,.14.32v.06l-.91.09A1.42,1.42,0,0,1,97,153,2.07,2.07,0,0,1,96.87,152.55Zm0-1.46.07.53-.57.06a1.2,1.2,0,0,0-.36.08.76.76,0,0,0-.25.15.63.63,0,0,0-.13.2.55.55,0,0,0,0,.26.36.36,0,0,0,.08.23.43.43,0,0,0,.2.15.56.56,0,0,0,.29,0,1,1,0,0,0,.4-.14.77.77,0,0,0,.25-.26.52.52,0,0,0,.08-.28l.29.36a1.16,1.16,0,0,1-.11.31,1.21,1.21,0,0,1-.21.31,1.23,1.23,0,0,1-.33.26,1.17,1.17,0,0,1-.48.14,1.39,1.39,0,0,1-.65-.07,1.13,1.13,0,0,1-.48-.35.93.93,0,0,1-.22-.54,1.25,1.25,0,0,1,0-.52,1,1,0,0,1,.28-.41,1.66,1.66,0,0,1,.51-.29,3.24,3.24,0,0,1,.71-.16Z" transform="translate(-25.32 -18.89)"/><path d="M100.08,152.36a.68.68,0,0,0,.33-.11.69.69,0,0,0,.22-.23.61.61,0,0,0,.06-.33l.84-.08a1.23,1.23,0,0,1-.14.68,1.43,1.43,0,0,1-.49.52,1.63,1.63,0,0,1-.73.25,1.66,1.66,0,0,1-.75-.07,1.28,1.28,0,0,1-.56-.34,1.69,1.69,0,0,1-.38-.55,2.25,2.25,0,0,1-.17-.7v-.11a2.52,2.52,0,0,1,0-.73,1.88,1.88,0,0,1,.25-.62,1.48,1.48,0,0,1,.48-.45,1.9,1.9,0,0,1,.72-.21,1.69,1.69,0,0,1,.79.09,1.25,1.25,0,0,1,.58.43,1.46,1.46,0,0,1,.28.72l-.84.08a.78.78,0,0,0-.13-.34.59.59,0,0,0-.25-.22.65.65,0,0,0-.37-.06.63.63,0,0,0-.58.42,1.11,1.11,0,0,0-.07.37,2.08,2.08,0,0,0,0,.43v.1a2.61,2.61,0,0,0,.08.42.93.93,0,0,0,.15.35.67.67,0,0,0,.26.24A.7.7,0,0,0,100.08,152.36Z" transform="translate(-25.32 -18.89)"/><path d="M104.37,150.91l.27,0a2.2,2.2,0,0,1,0,.68,1.48,1.48,0,0,1-.19.57,1.35,1.35,0,0,1-.39.4,1.57,1.57,0,0,1-.6.19,1.37,1.37,0,0,1-.5,0,.88.88,0,0,1-.41-.2,1,1,0,0,1-.29-.39,2,2,0,0,1-.16-.62l-.24-2.35.89-.1.24,2.37a1.08,1.08,0,0,0,.08.3.37.37,0,0,0,.14.18.34.34,0,0,0,.19.09.54.54,0,0,0,.22,0,.88.88,0,0,0,.5-.18.78.78,0,0,0,.23-.38A1.41,1.41,0,0,0,104.37,150.91Zm0,.77L104,148.9l.9-.1.38,3.65-.84.09Z" transform="translate(-25.32 -18.89)"/><path d="M107.75,152.27a2.1,2.1,0,0,1-.76-.06,1.58,1.58,0,0,1-.6-.32,1.6,1.6,0,0,1-.41-.52,2,2,0,0,1-.2-.68v-.14a2.23,2.23,0,0,1,0-.78,1.81,1.81,0,0,1,.28-.63,1.52,1.52,0,0,1,.5-.44,1.76,1.76,0,0,1,.67-.21,1.91,1.91,0,0,1,.69.06,1.34,1.34,0,0,1,.54.32,1.55,1.55,0,0,1,.36.53,2.24,2.24,0,0,1,.17.72l0,.37-2.86.3-.06-.61,2-.21v-.07a1,1,0,0,0-.13-.38.59.59,0,0,0-.26-.26.66.66,0,0,0-.41-.06.6.6,0,0,0-.33.12.64.64,0,0,0-.22.27,1.41,1.41,0,0,0-.11.38,2.72,2.72,0,0,0,0,.49v.13a1.29,1.29,0,0,0,.11.42.91.91,0,0,0,.22.32.8.8,0,0,0,.32.19,1,1,0,0,0,.4,0,1.18,1.18,0,0,0,.5-.16,1.16,1.16,0,0,0,.36-.37l.5.42a1.48,1.48,0,0,1-.28.35,1.31,1.31,0,0,1-.44.3A1.81,1.81,0,0,1,107.75,152.27Z" transform="translate(-25.32 -18.89)"/><path d="M110.41,149l.3,2.9-.89.09-.38-3.65.84-.09Zm1-.89.07.83h-.34a1.19,1.19,0,0,0-.36.09.65.65,0,0,0-.24.19.84.84,0,0,0-.13.27,1.32,1.32,0,0,0,0,.35h-.2a2.81,2.81,0,0,1,0-.65,1.54,1.54,0,0,1,.15-.54.94.94,0,0,1,.3-.38.88.88,0,0,1,.46-.17h.16Z" transform="translate(-25.32 -18.89)"/><path d="M111.9,150v-.08a2.82,2.82,0,0,1,0-.77,1.84,1.84,0,0,1,.22-.61,1.41,1.41,0,0,1,.41-.43,1.3,1.3,0,0,1,.59-.2,1.27,1.27,0,0,1,.59.07,1.19,1.19,0,0,1,.45.33,1.77,1.77,0,0,1,.34.55,4.23,4.23,0,0,1,.23.71l0,.19a4,4,0,0,1-.08.73,2.13,2.13,0,0,1-.22.6,1.15,1.15,0,0,1-.38.41,1.1,1.1,0,0,1-.56.19,1.23,1.23,0,0,1-.61-.07,1.28,1.28,0,0,1-.49-.34,1.75,1.75,0,0,1-.34-.56A2.71,2.71,0,0,1,111.9,150Zm.89-.17v.07a2,2,0,0,0,.08.44,1.27,1.27,0,0,0,.17.35.63.63,0,0,0,.62.27.73.73,0,0,0,.42-.16.77.77,0,0,0,.23-.35,1.4,1.4,0,0,0,.08-.47l-.06-.53a1.34,1.34,0,0,0-.11-.37,1.12,1.12,0,0,0-.18-.28.77.77,0,0,0-.27-.17.67.67,0,0,0-.35,0,.6.6,0,0,0-.34.12.71.71,0,0,0-.21.27,1.39,1.39,0,0,0-.1.39A2.29,2.29,0,0,0,112.79,149.8Zm1.56.92-.46-4.4.9-.09.54,5.18-.81.08Z" transform="translate(-25.32 -18.89)"/><path d="M115.79,149.55v-.07a2.06,2.06,0,0,1,0-.75,1.65,1.65,0,0,1,.27-.62,1.56,1.56,0,0,1,1.2-.66,1.84,1.84,0,0,1,.75.06,1.47,1.47,0,0,1,.57.33,1.63,1.63,0,0,1,.4.56,2.31,2.31,0,0,1,.19.72v.08a2.26,2.26,0,0,1,0,.74,1.63,1.63,0,0,1-.27.63,1.42,1.42,0,0,1-.5.44,1.7,1.7,0,0,1-.71.22,1.8,1.8,0,0,1-.74-.06,1.48,1.48,0,0,1-.58-.34,1.83,1.83,0,0,1-.39-.55A2.12,2.12,0,0,1,115.79,149.55Zm.88-.16v.07a1.9,1.9,0,0,0,.09.44,1.27,1.27,0,0,0,.18.35.77.77,0,0,0,.28.23.82.82,0,0,0,.39.05.82.82,0,0,0,.36-.13.63.63,0,0,0,.23-.28,1.12,1.12,0,0,0,.11-.38,1.69,1.69,0,0,0,0-.45v-.07a1.9,1.9,0,0,0-.09-.44,1.17,1.17,0,0,0-.19-.35.7.7,0,0,0-.28-.23.83.83,0,0,0-.75.08.69.69,0,0,0-.22.28,1.12,1.12,0,0,0-.11.38A1.69,1.69,0,0,0,116.67,149.39Z" transform="translate(-25.32 -18.89)"/><path d="M89.91,181.28,90,182l-4,.42L86,181.7Zm-1.53.16.52,4.91-.93.1-.51-4.91Z" transform="translate(-25.32 -18.89)"/><path d="M90.29,184.4v-.07a2.13,2.13,0,0,1,0-.76,1.65,1.65,0,0,1,.27-.62,1.48,1.48,0,0,1,.49-.44,1.79,1.79,0,0,1,.71-.22,1.68,1.68,0,0,1,.75.07,1.47,1.47,0,0,1,.57.33,1.59,1.59,0,0,1,.4.55,2.37,2.37,0,0,1,.19.73V184a2.31,2.31,0,0,1,0,.75,1.65,1.65,0,0,1-.27.62,1.36,1.36,0,0,1-.5.45,1.85,1.85,0,0,1-.71.21,1.8,1.8,0,0,1-.74-.06,1.59,1.59,0,0,1-.58-.33,1.76,1.76,0,0,1-.39-.56A2.13,2.13,0,0,1,90.29,184.4Zm.88-.17v.08a2.15,2.15,0,0,0,.09.44,1.64,1.64,0,0,0,.18.35.7.7,0,0,0,.29.22.67.67,0,0,0,.38.05.71.71,0,0,0,.36-.13.67.67,0,0,0,.23-.27,1.12,1.12,0,0,0,.11-.38,1.77,1.77,0,0,0,0-.46v-.07a2,2,0,0,0-.09-.44,1.31,1.31,0,0,0-.19-.35.67.67,0,0,0-.28-.22.7.7,0,0,0-.39-.06.82.82,0,0,0-.36.13.85.85,0,0,0-.22.28,1.19,1.19,0,0,0-.11.38A1.7,1.7,0,0,0,91.17,184.23Z" transform="translate(-25.32 -18.89)"/><path d="M95.89,181.93l.06.64-2.09.22-.07-.64Zm-1.63-.74.89-.09.37,3.5a.52.52,0,0,0,.07.24.2.2,0,0,0,.14.1.52.52,0,0,0,.22,0,.45.45,0,0,0,.16,0l.12,0,.07.67-.24.09-.32,0a1.15,1.15,0,0,1-.53,0,.75.75,0,0,1-.39-.29,1.37,1.37,0,0,1-.19-.6Z" transform="translate(-25.32 -18.89)"/><path d="M98.79,184.53l-.18-1.68a.71.71,0,0,0-.09-.31.5.5,0,0,0-.22-.19.62.62,0,0,0-.34,0,.75.75,0,0,0-.31.09.5.5,0,0,0-.19.19.57.57,0,0,0,0,.26l-.89.1a.87.87,0,0,1,.06-.45,1.25,1.25,0,0,1,.27-.39,1.41,1.41,0,0,1,.46-.3,1.72,1.72,0,0,1,.62-.16,1.82,1.82,0,0,1,.75.06,1.09,1.09,0,0,1,.56.37,1.27,1.27,0,0,1,.26.68l.17,1.59a2.53,2.53,0,0,0,.08.47,1.92,1.92,0,0,0,.14.32v.06l-.91.09a1.1,1.1,0,0,1-.13-.34A2.07,2.07,0,0,1,98.79,184.53Zm0-1.46.07.53-.57.06a1.2,1.2,0,0,0-.36.08.76.76,0,0,0-.25.15.63.63,0,0,0-.13.2.55.55,0,0,0,0,.26.36.36,0,0,0,.08.23.43.43,0,0,0,.2.15.56.56,0,0,0,.29,0,1,1,0,0,0,.4-.14.79.79,0,0,0,.25-.27.49.49,0,0,0,.08-.27l.29.36a1.16,1.16,0,0,1-.11.31,1.21,1.21,0,0,1-.21.31,1.23,1.23,0,0,1-.33.26,1.42,1.42,0,0,1-.48.14,1.54,1.54,0,0,1-.65-.07,1.07,1.07,0,0,1-.48-.35.93.93,0,0,1-.22-.54,1.25,1.25,0,0,1,0-.52,1,1,0,0,1,.28-.41,1.48,1.48,0,0,1,.51-.29,2.77,2.77,0,0,1,.71-.15Z" transform="translate(-25.32 -18.89)"/><path d="M101,179.85l.54,5.18-.89.09-.54-5.17Z" transform="translate(-25.32 -18.89)"/><path d="M103,182l.3,2.9-.89.09-.38-3.65.84-.08Zm0,1-.28,0a2.85,2.85,0,0,1,0-.72,1.63,1.63,0,0,1,.22-.58,1.27,1.27,0,0,1,.41-.42,1.6,1.6,0,0,1,1.07-.17.91.91,0,0,1,.38.19,1,1,0,0,1,.27.37,1.83,1.83,0,0,1,.14.58l.26,2.43-.89.1-.25-2.35a1.07,1.07,0,0,0-.11-.39.44.44,0,0,0-.23-.18.89.89,0,0,0-.33,0,.85.85,0,0,0-.35.12.72.72,0,0,0-.23.26,1.22,1.22,0,0,0-.1.34A1.48,1.48,0,0,0,102.92,182.91Zm2.2-.4-.36.11a2.07,2.07,0,0,1,0-.66,1.53,1.53,0,0,1,.22-.56,1.27,1.27,0,0,1,.4-.4,1.29,1.29,0,0,1,.6-.19,1.57,1.57,0,0,1,.49,0,.94.94,0,0,1,.4.2,1,1,0,0,1,.28.4,1.82,1.82,0,0,1,.15.63l.25,2.34-.9.09-.24-2.34a1,1,0,0,0-.12-.41.44.44,0,0,0-.23-.17.9.9,0,0,0-.64.08,1,1,0,0,0-.21.21,1,1,0,0,0-.1.3A1,1,0,0,0,105.12,182.51Z" transform="translate(-25.32 -18.89)"/><path d="M110,184.21a1.89,1.89,0,0,1-.76-.06,1.56,1.56,0,0,1-.6-.31,1.64,1.64,0,0,1-.41-.53,1.86,1.86,0,0,1-.2-.68v-.13a2.21,2.21,0,0,1,0-.78,1.76,1.76,0,0,1,.28-.64,1.45,1.45,0,0,1,.49-.43,1.51,1.51,0,0,1,.67-.21,1.6,1.6,0,0,1,.7.06,1.22,1.22,0,0,1,.53.31,1.55,1.55,0,0,1,.36.53,2.71,2.71,0,0,1,.18.72l0,.37-2.86.3-.06-.61,2-.21v-.06a1.19,1.19,0,0,0-.12-.39.65.65,0,0,0-.26-.26.76.76,0,0,0-.41-.06.73.73,0,0,0-.34.12.84.84,0,0,0-.22.27,1.39,1.39,0,0,0-.1.39,2.56,2.56,0,0,0,0,.48l0,.14a1.43,1.43,0,0,0,.1.42,1,1,0,0,0,.23.32.85.85,0,0,0,.32.19.87.87,0,0,0,.4,0,1.06,1.06,0,0,0,.5-.16,1.23,1.23,0,0,0,.36-.36l.5.41a1.76,1.76,0,0,1-.28.36,1.42,1.42,0,0,1-.44.3A1.88,1.88,0,0,1,110,184.21Z" transform="translate(-25.32 -18.89)"/><path d="M112.65,181l.3,2.87-.89.09-.38-3.65.84-.09Zm0,.93-.27,0a2.48,2.48,0,0,1,0-.73,1.62,1.62,0,0,1,.23-.59,1.24,1.24,0,0,1,.42-.4,1.38,1.38,0,0,1,.57-.19,1.31,1.31,0,0,1,.49,0,1,1,0,0,1,.39.19,1.24,1.24,0,0,1,.28.4,2.41,2.41,0,0,1,.15.64l.24,2.34-.9.09-.24-2.35a1.08,1.08,0,0,0-.11-.38.41.41,0,0,0-.24-.19.73.73,0,0,0-.34,0,.7.7,0,0,0-.35.12.79.79,0,0,0-.23.25,1,1,0,0,0-.12.35A1.46,1.46,0,0,0,112.61,181.9Z" transform="translate(-25.32 -18.89)"/><path d="M117.28,179.69l.07.64-2.09.22-.07-.64Zm-1.62-.73.89-.1.37,3.5a.46.46,0,0,0,.07.24.22.22,0,0,0,.14.11h.21l.16,0,.13,0,.07.67a1.2,1.2,0,0,1-.25.09l-.31.06a1.35,1.35,0,0,1-.54-.05.79.79,0,0,1-.38-.3,1.29,1.29,0,0,1-.19-.6Z" transform="translate(-25.32 -18.89)"/><path d="M119.9,183.18a1.9,1.9,0,0,1-.76-.06,1.58,1.58,0,0,1-.6-.32,1.6,1.6,0,0,1-.41-.52,2.23,2.23,0,0,1-.2-.68v-.14a2.23,2.23,0,0,1,0-.78,1.81,1.81,0,0,1,.28-.63,1.52,1.52,0,0,1,.5-.44,1.76,1.76,0,0,1,.67-.21,1.89,1.89,0,0,1,.69.06,1.34,1.34,0,0,1,.54.32,1.55,1.55,0,0,1,.36.53,2.24,2.24,0,0,1,.17.72l0,.37-2.86.3-.06-.61,2-.21v-.07a1,1,0,0,0-.13-.38.63.63,0,0,0-.25-.26.71.71,0,0,0-.42-.06.6.6,0,0,0-.33.12.64.64,0,0,0-.22.27,1.41,1.41,0,0,0-.11.38,2.72,2.72,0,0,0,0,.49v.13a1.36,1.36,0,0,0,.11.42.91.91,0,0,0,.22.32.8.8,0,0,0,.32.19.88.88,0,0,0,.4,0,1.14,1.14,0,0,0,.5-.16,1.16,1.16,0,0,0,.36-.37l.5.42a1.76,1.76,0,0,1-.28.36,1.69,1.69,0,0,1-.44.3A2.08,2.08,0,0,1,119.9,183.18Z" transform="translate(-25.32 -18.89)"/><path d="M123.35,181v-.07a2.78,2.78,0,0,1,0-.77,1.69,1.69,0,0,1,.22-.62,1.21,1.21,0,0,1,.41-.43,1.38,1.38,0,0,1,.59-.2,1.11,1.11,0,0,1,.58.08,1.23,1.23,0,0,1,.46.33,2.37,2.37,0,0,1,.34.54,4.35,4.35,0,0,1,.23.72l0,.19a5.43,5.43,0,0,1-.08.73,2.06,2.06,0,0,1-.22.59,1.4,1.4,0,0,1-.38.42,1.37,1.37,0,0,1-.57.19,1.28,1.28,0,0,1-1.1-.42,1.82,1.82,0,0,1-.34-.56A2.62,2.62,0,0,1,123.35,181Zm.88-.17v.08a2.72,2.72,0,0,0,.09.43,1.14,1.14,0,0,0,.17.35.68.68,0,0,0,.26.22.6.6,0,0,0,.36,0,.72.72,0,0,0,.42-.16.8.8,0,0,0,.23-.35,1.41,1.41,0,0,0,.07-.47l0-.53a2.26,2.26,0,0,0-.11-.37.92.92,0,0,0-.19-.28.78.78,0,0,0-.26-.17.79.79,0,0,0-.35,0,.77.77,0,0,0-.35.12.67.67,0,0,0-.21.28,1.12,1.12,0,0,0-.09.38A3.38,3.38,0,0,0,124.23,180.78Zm1.57.93-.46-4.4.89-.1.55,5.18-.81.09Z" transform="translate(-25.32 -18.89)"/><path d="M129.22,182.2a2.11,2.11,0,0,1-.76,0,1.73,1.73,0,0,1-.6-.32,1.79,1.79,0,0,1-.41-.53,1.85,1.85,0,0,1-.19-.68l0-.13a2.49,2.49,0,0,1,0-.78,1.81,1.81,0,0,1,.28-.63,1.5,1.5,0,0,1,.5-.44,1.76,1.76,0,0,1,.67-.21,1.6,1.6,0,0,1,.7.06,1.35,1.35,0,0,1,.53.31,1.6,1.6,0,0,1,.36.54,2.55,2.55,0,0,1,.18.71l0,.38-2.85.3-.07-.62,2-.21v-.06a1.13,1.13,0,0,0-.12-.38.65.65,0,0,0-.26-.26.69.69,0,0,0-.42-.07.81.81,0,0,0-.33.12.73.73,0,0,0-.22.27,1.12,1.12,0,0,0-.1.39,1.93,1.93,0,0,0,0,.48v.14a1.44,1.44,0,0,0,.11.42,1,1,0,0,0,.22.32.94.94,0,0,0,.32.19,1,1,0,0,0,.4,0,1.14,1.14,0,0,0,.5-.17,1.13,1.13,0,0,0,.36-.36l.5.42a1.65,1.65,0,0,1-.27.35,1.48,1.48,0,0,1-.45.3A1.82,1.82,0,0,1,129.22,182.2Z" transform="translate(-25.32 -18.89)"/><path d="M134.94,180.75l-.18-1.68a.71.71,0,0,0-.09-.31.5.5,0,0,0-.22-.19.73.73,0,0,0-.34,0,.75.75,0,0,0-.31.09.47.47,0,0,0-.23.45l-.89.1a.88.88,0,0,1,.06-.45,1.25,1.25,0,0,1,.27-.39,1.41,1.41,0,0,1,.46-.3,2,2,0,0,1,.62-.16,1.82,1.82,0,0,1,.75.06,1.09,1.09,0,0,1,.56.37,1.27,1.27,0,0,1,.26.68l.17,1.6a2.56,2.56,0,0,0,.08.46,1.61,1.61,0,0,0,.14.32v.06l-.91.1a1.28,1.28,0,0,1-.13-.35A2.07,2.07,0,0,1,134.94,180.75Zm0-1.46.07.53-.57.06a1.6,1.6,0,0,0-.36.08.76.76,0,0,0-.25.15.57.57,0,0,0-.13.21.51.51,0,0,0,0,.25.36.36,0,0,0,.08.23.53.53,0,0,0,.2.16.68.68,0,0,0,.29,0,.83.83,0,0,0,.4-.14.77.77,0,0,0,.25-.26.52.52,0,0,0,.08-.28l.29.36a1.05,1.05,0,0,1-.11.31,1.21,1.21,0,0,1-.21.31,1.21,1.21,0,0,1-.81.4,1.39,1.39,0,0,1-.65-.07,1.2,1.2,0,0,1-.48-.34,1,1,0,0,1-.22-.55,1.25,1.25,0,0,1,.05-.52,1,1,0,0,1,.28-.41,1.66,1.66,0,0,1,.51-.29,3.27,3.27,0,0,1,.71-.15Z" transform="translate(-25.32 -18.89)"/><path d="M138.15,180.56a.68.68,0,0,0,.33-.11.69.69,0,0,0,.22-.23.59.59,0,0,0,.06-.32l.84-.09a1.23,1.23,0,0,1-.14.68,1.36,1.36,0,0,1-.49.52,1.63,1.63,0,0,1-.73.25,1.82,1.82,0,0,1-.75-.06,1.5,1.5,0,0,1-.56-.34,1.85,1.85,0,0,1-.38-.56,2.25,2.25,0,0,1-.17-.7v-.11a2.53,2.53,0,0,1,0-.73,1.74,1.74,0,0,1,.25-.61,1.3,1.3,0,0,1,.48-.45,1.74,1.74,0,0,1,.72-.22,1.69,1.69,0,0,1,.79.09,1.25,1.25,0,0,1,.58.43,1.49,1.49,0,0,1,.28.72l-.84.09a.77.77,0,0,0-.13-.35.67.67,0,0,0-.25-.22.74.74,0,0,0-.37-.06.66.66,0,0,0-.37.14.67.67,0,0,0-.21.28,1.11,1.11,0,0,0-.07.37,2.08,2.08,0,0,0,0,.43v.1a3,3,0,0,0,.08.43,1,1,0,0,0,.15.35.72.72,0,0,0,.26.23A.7.7,0,0,0,138.15,180.56Z" transform="translate(-25.32 -18.89)"/><path d="M142.44,179.11l.27,0a2.27,2.27,0,0,1,0,.69,1.43,1.43,0,0,1-.19.56,1.35,1.35,0,0,1-.39.4,1.57,1.57,0,0,1-.6.19,1.37,1.37,0,0,1-.5,0,1,1,0,0,1-.41-.19,1.09,1.09,0,0,1-.29-.4,2,2,0,0,1-.16-.61l-.24-2.36.89-.09.24,2.36a1.08,1.08,0,0,0,.08.3.37.37,0,0,0,.14.18.34.34,0,0,0,.19.09.54.54,0,0,0,.22,0,.88.88,0,0,0,.5-.18.78.78,0,0,0,.23-.38A1.41,1.41,0,0,0,142.44,179.11Zm0,.77-.29-2.78.9-.09.38,3.64-.84.09Z" transform="translate(-25.32 -18.89)"/><path d="M145.82,180.47a1.9,1.9,0,0,1-.76-.06,1.45,1.45,0,0,1-.6-.32,1.6,1.6,0,0,1-.41-.52,1.92,1.92,0,0,1-.2-.68v-.14a2.23,2.23,0,0,1,0-.78,1.9,1.9,0,0,1,.28-.63,1.59,1.59,0,0,1,.49-.44,1.69,1.69,0,0,1,.68-.2,1.72,1.72,0,0,1,.69.05,1.34,1.34,0,0,1,.54.32,1.55,1.55,0,0,1,.36.53,2.24,2.24,0,0,1,.17.72l0,.37-2.86.3-.06-.61,2-.21v-.07a.81.81,0,0,0-.12-.38.59.59,0,0,0-.26-.26.66.66,0,0,0-.41-.06.6.6,0,0,0-.33.12.64.64,0,0,0-.22.27,1.12,1.12,0,0,0-.11.39,2.63,2.63,0,0,0,0,.48v.13a1.29,1.29,0,0,0,.11.42.83.83,0,0,0,.22.32.8.8,0,0,0,.32.19.87.87,0,0,0,.4,0,1.18,1.18,0,0,0,.5-.16,1.16,1.16,0,0,0,.36-.37l.5.42a1.76,1.76,0,0,1-.28.36,1.88,1.88,0,0,1-.44.3A2.08,2.08,0,0,1,145.82,180.47Z" transform="translate(-25.32 -18.89)"/><path d="M148.48,177.19l.3,2.9-.89.09-.38-3.65.84-.08Zm1-.89.07.83h-.34a1.18,1.18,0,0,0-.36.1.63.63,0,0,0-.24.18.84.84,0,0,0-.13.27,1.32,1.32,0,0,0,0,.35h-.2a3.53,3.53,0,0,1,0-.65,1.79,1.79,0,0,1,.16-.54,1,1,0,0,1,.3-.38,1,1,0,0,1,.46-.17h.16Z" transform="translate(-25.32 -18.89)"/><path d="M150,178.17v-.07a3.33,3.33,0,0,1,0-.78,1.84,1.84,0,0,1,.22-.61,1.3,1.3,0,0,1,.41-.43,1.43,1.43,0,0,1,.59-.2,1.27,1.27,0,0,1,.59.07,1.12,1.12,0,0,1,.45.34,1.72,1.72,0,0,1,.34.54,4.23,4.23,0,0,1,.23.71l0,.2a4,4,0,0,1-.08.72,2.13,2.13,0,0,1-.22.6,1.15,1.15,0,0,1-.38.41,1.1,1.1,0,0,1-.56.19,1.23,1.23,0,0,1-.61-.07,1.28,1.28,0,0,1-.49-.34,1.65,1.65,0,0,1-.34-.56A2.71,2.71,0,0,1,150,178.17Zm.89-.17v.07a1.91,1.91,0,0,0,.08.44,1.14,1.14,0,0,0,.17.35.68.68,0,0,0,.26.22.6.6,0,0,0,.36,0,.73.73,0,0,0,.42-.16.77.77,0,0,0,.23-.35,1.4,1.4,0,0,0,.08-.47l-.06-.53a1.34,1.34,0,0,0-.11-.37,1.12,1.12,0,0,0-.18-.28,1,1,0,0,0-.27-.17.67.67,0,0,0-.35,0,.6.6,0,0,0-.34.12.71.71,0,0,0-.21.27,1.48,1.48,0,0,0-.1.39A2.29,2.29,0,0,0,150.86,178Zm1.56.93-.46-4.41.9-.09.54,5.18-.81.08Z" transform="translate(-25.32 -18.89)"/><path d="M153.86,177.75v-.07a2.07,2.07,0,0,1,0-.75,1.65,1.65,0,0,1,.27-.62,1.63,1.63,0,0,1,.49-.45,1.79,1.79,0,0,1,.71-.21,1.84,1.84,0,0,1,.75.06,1.47,1.47,0,0,1,.57.33,1.63,1.63,0,0,1,.4.56,2.37,2.37,0,0,1,.19.73v.07a2.34,2.34,0,0,1,0,.75,1.65,1.65,0,0,1-.27.62,1.56,1.56,0,0,1-.5.45,1.85,1.85,0,0,1-.71.21,1.8,1.8,0,0,1-.74-.06,1.48,1.48,0,0,1-.58-.34,1.71,1.71,0,0,1-.39-.55A2.12,2.12,0,0,1,153.86,177.75Zm.88-.16v.07a1.54,1.54,0,0,0,.27.8.74.74,0,0,0,.28.22.82.82,0,0,0,.39,0,.82.82,0,0,0,.36-.13.75.75,0,0,0,.23-.27,1.25,1.25,0,0,0,.11-.39,1.69,1.69,0,0,0,0-.45v-.07a2.85,2.85,0,0,0-.09-.44,1.17,1.17,0,0,0-.19-.35.7.7,0,0,0-.28-.23.83.83,0,0,0-.75.08.76.76,0,0,0-.22.28,1.12,1.12,0,0,0-.11.38A1.69,1.69,0,0,0,154.74,177.59Z" transform="translate(-25.32 -18.89)"/><g class="cls-8"><path class="cls-3" d="M232,229.65c.54-.88,1.09-1.72,1.66-2.53,9.15-13.1,4.57-15.6,1.88-19.66S228,195,222.61,181.57s-19.39-19.34-19.39-19.34c-8.89-4.68-26.65-22.09-30.69-11.17a8.09,8.09,0,0,0,.29,5.68L154,133.57l-19.78-14.09,5.32,22,27.22,32.08a5.85,5.85,0,0,0-3.29-1c-9.28.31-12.73,6.55-6.81,15.59A69.44,69.44,0,0,1,165,206.84s3,15.91,5.12,26.83-.54,13.73,7.53,29.32,6.47,24.65,6.47,24.65l37.7-4.06c-2.54-13.45-.43-28.46,4-40.83a1.17,1.17,0,0,0,1-.13l8.53-6.6c.62-.48.41-1.73-.46-2.8ZM197,181a26.58,26.58,0,0,0,1,6.82l-13.22-16.26A129,129,0,0,0,197,181Zm-15.88,23.39A75.65,75.65,0,0,0,173,181l33.36,39.31C201.17,222.41,183.82,219.56,181.14,204.34Z" transform="translate(-25.32 -18.89)"/><path class="cls-9" d="M183.08,266.39s1.62-9-6.46-24.64-5.39-18.41-7.54-29.33S164,185.59,164,185.59a69.22,69.22,0,0,0-8.34-18.72c-5.93-9-2.48-15.28,6.8-15.58,7.08-.24,15,16.52,17.7,31.81s20.2,18.09,25.31,15.91-9.69-28.39-9.42-39.31c0,0-28.54-19-24.5-29.89S193.32,136.3,202.2,141c0,0,14,5.93,19.39,19.34s10.23,21.84,12.93,25.9,7.27,6.55-1.89,19.65-15.62,36.5-11.85,56.47Z" transform="translate(-25.32 -18.89)"/><g class="cls-10"><path class="cls-11" d="M149.72,167.38s-6.27-10.43.67-10.81,23.85,16,6.4,18.72Z" transform="translate(-25.32 -18.89)"/><path class="cls-5" d="M197.18,134.12c-.42,2.54,1.39,5.14,2.73,7.12A109.56,109.56,0,0,0,208.53,152c2.71,3.11,5.73,6.09,8.09,9.48,4.12,5.92,5,13,7.92,19.43.3.67,1.18.15,1.09-.46-1.49-9.87-6.08-18.12-12.66-25.36-3.09-3.4-6.23-6.76-9.13-10.32-2-2.49-6.41-7-6.11-10.53,0-.32-.5-.39-.55-.08Z" transform="translate(-25.32 -18.89)"/><path class="cls-11" d="M179.74,123.14s-8.49,5,0,10.56,9.91-.16,6.85-5S179.74,123.14,179.74,123.14Z" transform="translate(-25.32 -18.89)"/></g><path class="cls-4" d="M210.4,204.72c-.87-1.07-1.07-2.32-.46-2.8l8.53-6.6c.61-.48,1.82,0,2.69,1.07L233.88,212c.88,1.07,1.08,2.32.47,2.8l-8.53,6.61c-.62.47-1.82,0-2.69-1.07Z" transform="translate(-25.32 -18.89)"/><polygon class="cls-2" points="200.31 182.78 127.63 93.44 107.85 79.34 113.17 101.34 189.6 191.42 200.31 182.78"/><g class="cls-12"><polygon class="cls-2" points="200.31 184.51 137.88 107.24 107.85 81.07 124.88 115.11 189.6 193.15 200.31 184.51"/><path class="cls-13" d="M163.41,122.1c.63,1.67-12.13-5.25-12.13-5.25l-6.92-2.57,1,7.34.92,9.36s-24.58-29.95-24-30.48,1.62-14.74,6.08-13.77,27.48,23.94,29.73,25.3S163.41,122.1,163.41,122.1Z" transform="translate(-25.32 -18.89)"/><path class="cls-2" d="M141.43,101.71l-7.9,5.64S119.12,85.1,119.63,84,141.43,101.71,141.43,101.71Z" transform="translate(-25.32 -18.89)"/><path class="cls-14" d="M224.91,207.39l-73.63-90.54-1.52-6.8s26.38,18.31,28.61,20.32,22,21.21,24,23.35,16.5,33.24,18.09,34.61,10.4,16.94,10.4,16.94Z" transform="translate(-25.32 -18.89)"/><path class="cls-15" d="M218.48,210.15l-73.07-88.53s-6.42-5.21-6.5-4.77,1.06,17.43,2.64,19.29,17.54,26.64,24.13,32.31,23.21,28.72,28.9,33.75,29,19.66,29,19.66Z" transform="translate(-25.32 -18.89)"/></g></g></g></g></svg>