<svg xmlns="http://www.w3.org/2000/svg" viewBox="0 0 142.02 142.02"><defs><style>.cls-1{fill:#6c2911;}.cls-2{fill:#fff;}.cls-3{fill:#c7895e;}</style></defs><g id="Capa_2" data-name="Capa 2"><g id="Capa_1-2" data-name="Capa 1"><circle class="cls-1" cx="71.01" cy="71.01" r="71.01"/><circle class="cls-2" cx="71.01" cy="71.01" r="60.69"/><path class="cls-3" d="M114.13,93.72c0,3.56.06,7.13,0,10.7s-1.83,6.45-4.52,7.29a6.82,6.82,0,0,1-8.71-4.2,68.3,68.3,0,0,1-2.3-7.87A1.9,1.9,0,0,0,96.85,98a8,8,0,0,1-4.15-1.81,5.21,5.21,0,0,0-4.19-1.29c-1.4.07-2.8,0-4.2,0-2.84,0-5.74-.4-8,2a2.25,2.25,0,0,1-1.37.62c-2.75.18-3.61,2-4,4.35a32.4,32.4,0,0,1-1.25,4.61c-1.36,4.1-4.32,6.11-8,5.53-3.42-.54-5.59-3.35-5.63-7.55-.05-3.69.08-7.39.14-11.09a76.86,76.86,0,0,0,.14-9c-.82-7.94,9.17-16.74,19.39-11.27.45.24.85.57,1.31.78,2.34,1.05,3.76.2,3.69-2.29,0-1.78.06-3.24,2.44-3,.7,0,.63-.65.77-1.12a4.29,4.29,0,0,1,4.34-3.34c1.79-.08,3.57,0,5.36,0,3.64-.07,6.07-2.38,6.06-5.71s-2.39-5.62-5.92-5.66c-6.62-.07-13.25,0-19.88,0-1.17,0-1.52.36-1.53,1.53,0,3.15-.08,3.15-3.24,3.15a11.06,11.06,0,0,1-1.91,0C65.76,57,65.42,58,64.91,59a1.8,1.8,0,0,0,.51,2.44c4.16,4.18,4.2,3.07,0,7.31-.94,1-2,1.84-2.82,2.86-1.23,1.44-2.29,1.33-3.43-.07a18.91,18.91,0,0,0-1.48-1.49c-.83-.83-1.39-1.68-3-1s-1.64,1.6-1.63,2.93c0,5,.39,4.51-4.51,4.52-1.72,0-3.44,0-5.16,0a1.61,1.61,0,0,1-1.87-1.86,24.79,24.79,0,0,1,0-2.86c.2-1.51-.35-2.27-1.81-2.79a1.74,1.74,0,0,0-2.28.51c-.79.92-1.69,1.73-2.55,2.58a1.44,1.44,0,0,1-2.32,0q-2.89-2.91-5.81-5.81a1.5,1.5,0,0,1,.06-2.46c.69-.66,1.36-1.34,2-2s1.62-1.35.91-2.86a2.45,2.45,0,0,0-2.7-1.67c-5.41.1-4.71.3-4.74-4.68,0-1.53.08-3.06,0-4.59-.13-1.8.7-2.42,2.37-2.31.83.06,1.67-.08,2.49,0,1.47.21,2.13-.44,2.61-1.78.35-1,.4-1.6-.44-2.3S27.75,40,26.91,39.24a1.56,1.56,0,0,1-.06-2.6c1.92-1.87,3.81-3.77,5.68-5.68A1.5,1.5,0,0,1,35,31c.66.69,1.35,1.36,2,2s1.32,1.61,2.84,1,1.72-1.5,1.7-2.88c-.07-5-.38-4.64,4.62-4.63,1.66,0,3.32,0,5,0,1.38,0,2,.6,2,2,0,.89.09,1.8,0,2.68-.22,1.6.43,2.4,1.93,2.9.91.3,1.54.38,2.12-.44a3.08,3.08,0,0,1,.4-.41c3.88-3.81,2.91-3.88,6.91.08,1.14,1.12,2.24,2.27,3.39,3.37a1.56,1.56,0,0,1,0,2.61q-1,.91-1.89,1.89c-.73.78-1.71,1.28-1.08,2.83a2.49,2.49,0,0,0,3,1.78c.5,0,1,0,1.53,0,2.8,0,3,.08,2.94,2.86,0,1.43.66,1.5,1.75,1.5,6.76,0,13.51-.06,20.27,0a8.18,8.18,0,0,1,7.89,7,8.42,8.42,0,0,1-5.44,9.1,13,13,0,0,1-4.34.46c-1.53,0-3.06,0-4.58.09a1.33,1.33,0,0,0-1.35,1.36c0,.76.8.43,1.23.46a1.56,1.56,0,0,1,1.64,1.87c0,.32,0,.64,0,1,0,2.88,1.58,3.72,4.19,2.17a13.21,13.21,0,0,1,10.81-1.66,12.5,12.5,0,0,1,9.37,12.44c0,3.12,0,6.24,0,9.37ZM59,93.63h-.32c0,3.75-.11,7.51,0,11.26s2.85,5.5,5.94,4.13a4.64,4.64,0,0,0,2.46-3.23q1.22-4.12,2.28-8.27a2.15,2.15,0,0,1,2.07-1.86A8.85,8.85,0,0,0,77.22,93a2.75,2.75,0,0,1,2.26-.74c3.5,0,7,0,10.5,0a4.29,4.29,0,0,1,3.58,1.32,5.23,5.23,0,0,0,3.53,1.76c2.9.11,3.86,1.8,4.21,4.34a28.86,28.86,0,0,0,1.06,4.06,25.09,25.09,0,0,0,1,3.06,4.14,4.14,0,0,0,4.6,2.63c2-.25,2.9-1.67,3.29-3.47a10.62,10.62,0,0,0,.19-2.46c-.11-6.75-.25-13.5-.36-20.25a8,8,0,0,0-1.57-4.61,10.5,10.5,0,0,0-14.38-2.88,6.27,6.27,0,0,1-3.57,1c-4.21,0-8.41,0-12.61,0a7.78,7.78,0,0,1-4.3-1.13A10.23,10.23,0,0,0,59,84.27C59,87.39,59,90.51,59,93.63Zm6.59-55.35c-.54-.64-.71-.89-.93-1.11a24.73,24.73,0,0,1-2.27-2.31c-1.07-1.45-2-1.26-2.91.06-1.62,2.28-3.53,3.11-6,1.23a2.86,2.86,0,0,0-1.25-.46c-1.36-.21-1.67-1.06-1.69-2.31-.07-4.27-.1-4.16-4.25-4.31-1.86-.07-2.35.62-2.08,2.25.45,2.71-.41,4.26-3.3,5.08-3.07.87-3,1.18-5.28-1.1-1.84-1.85-1.84-1.85-3.7,0-2.59,2.6-2.65,2.67,0,5.18,1.3,1.21,1.12,2.17.69,3.8-.94,3.56-3,4.63-6.34,4-.54-.09-1.25-.12-1.24.75,0,1.78-.41,3.78.27,5.26.46,1,2.58.21,3.95.35a1.2,1.2,0,0,0,.19,0c.81,0,1.72,0,1.83,1,.24,2,2.48,3.52,1.61,5.83-.07.17-.27.28-.38.43-.92,1.17-3,2-2.72,3.35s2,2.32,3.15,3.46l.13.14c.47.58,1,.6,1.39,0,2.17-3.47,4.9-3.42,8.16-1.56,1,.58,1.57,1,1.6,2.23.08,4.39.11,4.39,4.49,4.36a3.62,3.62,0,0,1,.57,0c.86.08,1.44-.22,1.25-1.16-.79-3.76.87-5.82,4.49-6.55a.65.65,0,0,0,.17-.08,1.82,1.82,0,0,1,2.68.37c1,1,2,2.61,3,2.67,1.29.07,2.07-1.85,3.22-2.73s1.14-1.77-.05-2.62c-2.39-1.71-3.29-3.71-1.3-6.32a2.11,2.11,0,0,0,.32-.9c.24-1.48,1.1-1.9,2.56-1.89,4.1,0,4,0,4.14-4.21.06-1.81-.54-2.41-2.24-2.14-2.65.43-4.28-.31-5.09-3.25-.86-3.11-1.2-3,1.22-5.4A15,15,0,0,1,65.58,38.28ZM85.24,73.94c1,.14,1.63,0,1.63-1.44,0-1.56-1-1.25-1.87-1.3s-1.77,0-1.76,1.43S84.21,73.94,85.24,73.94Z"/><path class="cls-3" d="M66.94,80.58a2.38,2.38,0,0,1,2.39-2.44,2.3,2.3,0,0,1,2.37,2.27,2.38,2.38,0,1,1-4.76.17Z"/><path class="cls-3" d="M98.06,80.47a2.45,2.45,0,0,1,2.5-2.35,2.42,2.42,0,0,1,2.26,2.58A2.3,2.3,0,0,1,100.43,83,2.39,2.39,0,0,1,98.06,80.47Z"/><path class="cls-3" d="M104.82,82.41A2.48,2.48,0,0,1,107.15,85a2.45,2.45,0,0,1-2.6,2.25,2.32,2.32,0,0,1-2.22-2.42A2.44,2.44,0,0,1,104.82,82.41Z"/><path class="cls-3" d="M71.75,89.38a2.4,2.4,0,0,1-2.44,2.39A2.37,2.37,0,0,1,67,89.23,2.26,2.26,0,0,1,69.37,87,2.34,2.34,0,0,1,71.75,89.38Z"/><path class="cls-3" d="M65,82.55A2.34,2.34,0,0,1,67.34,85,2.27,2.27,0,0,1,65,87.28a2.36,2.36,0,0,1-2.44-2.38A2.4,2.4,0,0,1,65,82.55Z"/><path class="cls-3" d="M98.1,89.28A2.45,2.45,0,0,1,100.63,87a2.38,2.38,0,0,1,2.29,2.39,2.46,2.46,0,0,1-2.44,2.44A2.5,2.5,0,0,1,98.1,89.28Z"/><path class="cls-3" d="M96.05,87.29a2.31,2.31,0,0,1-2.35-2.45A2.23,2.23,0,0,1,96,82.56a2.37,2.37,0,1,1,0,4.73Z"/><path class="cls-3" d="M76,84.79a2.37,2.37,0,1,1-4.73,0,2.26,2.26,0,0,1,2.28-2.34A2.32,2.32,0,0,1,76,84.79Z"/><path class="cls-3" d="M58.45,51.51a11.16,11.16,0,0,1-11,11.15,11.15,11.15,0,1,1,0-22.3A11.13,11.13,0,0,1,58.45,51.51ZM47.39,60a8.54,8.54,0,1,0-8.57-8.44A8.62,8.62,0,0,0,47.39,60Z"/></g></g></svg>