<svg id="Capa_1" data-name="Capa 1" xmlns="http://www.w3.org/2000/svg" viewBox="0 0 282.25 210.74"><defs><style>.cls-1{fill:#fffdfc;}.cls-2{fill:#6c2910;}.cls-3{fill:#9e986f;}.cls-4{fill:#c8895e;}.cls-5{fill:#ff9994;}.cls-6{fill:#e58c88;}.cls-7{fill:#fff8b4;}.cls-8{fill:#dad49d;}.cls-9{fill:#eae19b;}.cls-10{fill:#e8d1b8;}.cls-11{fill:#feecd6;}.cls-12{fill:#fccd74;}.cls-13{opacity:0.3;}.cls-14,.cls-15{fill:#fff;}.cls-15{opacity:0.5;}.cls-16{opacity:0.4;}.cls-17{fill:#004c71;}</style></defs><path class="cls-1" d="M43.31,206.39c2.16-6.6,8.36-10.94,14.44-14.3s12.66-6.44,16.76-12a21,21,0,0,0-.93-25.21c-2.36-2.76-5.41-4.84-8.37-7-10.39-7.43-20.47-16.2-25.55-27.93s-3.79-27,6-35.26a65.58,65.58,0,0,1,11-7.06C61,75.26,63.71,74,64.5,69c.83-5.29,0-10.47-.34-15.76-.71-10.5-.42-21.85,5.42-31S86.18,7.78,97,7.51c9.75-.24,18.19,4.47,26.12,9.64,7.56,4.93,15.44,10.89,25,9.15,12.67-2.31,21.71-12.94,34-16.44A40.45,40.45,0,0,1,212,13c9.46,5.07,13.14,15.67,11.69,26-1.9,13.58-16.47,27.38-7.62,41.43,4.09,6.48,12.59,8.43,18.42,13.41,5.5,4.71,8.33,12.12,8.21,19.36a35.18,35.18,0,0,1-7.34,20.08c-3.69,5-8.41,9.11-11.94,14.19s-5.82,11.62-3.8,17.47c2.72,7.85,11.66,11.26,18,16.61a31.78,31.78,0,0,1,11.18,24.19Z"/><path class="cls-2" d="M57.75,194.84c6.07-3.36,12.66-6.44,16.76-12a20.38,20.38,0,0,0,3.72-13.33,20,20,0,0,1-3.72,10.58c-4.1,5.6-10.69,8.68-16.76,12s-12.28,7.7-14.44,14.3h1.2C47.29,201.3,52.56,197.71,57.75,194.84Z"/><path class="cls-3" d="M237.63,181.57c-6.36-5.35-15.3-8.76-18-16.61a14.72,14.72,0,0,1-.69-3.25,14.59,14.59,0,0,0,.69,6c2.72,7.85,11.66,11.26,18,16.61a31.86,31.86,0,0,1,11.06,21.44h.12A31.78,31.78,0,0,0,237.63,181.57Z"/><path class="cls-4" d="M69.58,24.93C75.4,15.79,86.18,10.53,97,10.26c9.75-.24,18.19,4.47,26.12,9.64,7.56,4.93,15.44,10.89,25,9.15,12.67-2.32,21.71-12.95,34-16.45A40.54,40.54,0,0,1,212,15.76c7.72,4.15,11.59,12,12,20.32.43-9.34-3.4-18.47-12-23.06a40.45,40.45,0,0,0-29.93-3.16c-12.26,3.5-21.3,14.13-34,16.44-9.58,1.74-17.46-4.22-25-9.15C115.14,12,106.7,7.27,97,7.51,86.18,7.78,75.4,13,69.58,22.18c-4.74,7.44-5.82,16.32-5.68,25C64,39.39,65.34,31.59,69.58,24.93Z"/><path class="cls-4" d="M45.65,87.45a65.58,65.58,0,0,1,11-7.06C61,78,63.71,76.79,64.5,71.71a34.87,34.87,0,0,0,.34-6.44A32.86,32.86,0,0,1,64.5,69c-.79,5.08-3.46,6.3-7.85,8.68a65.58,65.58,0,0,0-11,7.06c-6.46,5.44-9.2,14-8.87,22.49C37.08,99.61,39.89,92.3,45.65,87.45Z"/><path class="cls-2" d="M216.06,80.45a17.62,17.62,0,0,1-2.78-8.29,17.71,17.71,0,0,0,2.78,11c4.09,6.48,12.59,8.43,18.42,13.41a24.78,24.78,0,0,1,8.17,17.54c0-.31,0-.62,0-.93.12-7.24-2.71-14.65-8.21-19.36C228.65,88.88,220.15,86.93,216.06,80.45Z"/><rect class="cls-2" x="73.8" y="183.39" width="34.77" height="3.73"/><rect class="cls-4" x="73.8" y="183.39" width="34.77" height="0.73"/><rect class="cls-2" x="79.12" y="196.18" width="24.13" height="2.59"/><rect class="cls-4" x="79.12" y="198.15" width="24.13" height="0.62"/><rect class="cls-2" x="77" y="187.12" width="3.53" height="16.99"/><rect class="cls-4" x="77" y="187.12" width="3.53" height="0.92"/><rect class="cls-5" x="101.84" y="187.12" width="3.53" height="16.99"/><rect class="cls-6" x="101.84" y="187.12" width="3.53" height="0.92"/><circle class="cls-7" cx="41.66" cy="67.6" r="10.04" transform="translate(-35.28 87.22) rotate(-72.66)"/><path class="cls-7" d="M40.12,42.84a8.2,8.2,0,0,1-2.76,9,8.18,8.18,0,0,1,9,2.76,8.18,8.18,0,0,1,2.76-9A8.19,8.19,0,0,1,40.12,42.84Z"/><circle class="cls-7" cx="56.09" cy="56.96" r="5.11" transform="translate(-15.06 93.41) rotate(-72.56)"/><circle class="cls-7" cx="238.1" cy="66.86" r="10.04" transform="matrix(0.8, -0.6, 0.6, 0.8, 6.97, 154.84)"/><path class="cls-7" d="M236.7,46.61a6.87,6.87,0,0,1-7,3.72,6.85,6.85,0,0,1,3.72,7,6.9,6.9,0,0,1,7-3.72A6.87,6.87,0,0,1,236.7,46.61Z"/><path class="cls-7" d="M254.74,60.36a6.87,6.87,0,0,1-7,3.72,6.89,6.89,0,0,1,3.72,7,6.85,6.85,0,0,1,7-3.72A6.88,6.88,0,0,1,254.74,60.36Z"/><path class="cls-7" d="M256,145.93a7.79,7.79,0,0,0,3.56,8.23,7.78,7.78,0,0,0-8.22,3.57,7.81,7.81,0,0,0-3.57-8.23A7.79,7.79,0,0,0,256,145.93Z"/><path class="cls-7" d="M247.06,142.1a4.15,4.15,0,0,0,1.9,4.37,4.13,4.13,0,0,0-4.37,1.9,4.16,4.16,0,0,0-1.9-4.38A4.12,4.12,0,0,0,247.06,142.1Z"/><path class="cls-7" d="M247.77,154a4.13,4.13,0,0,0,1.89,4.37,4.14,4.14,0,0,0-4.37,1.9,4.15,4.15,0,0,0-1.9-4.38A4.14,4.14,0,0,0,247.77,154Z"/><circle class="cls-7" cx="147.44" cy="15.08" r="6.34" transform="translate(3.41 50.02) rotate(-19.47)"/><path class="cls-7" d="M140.83,5.35a4.12,4.12,0,0,0,1.89,4.37,4.16,4.16,0,0,0-4.37,1.9,4.13,4.13,0,0,0-1.9-4.37A4.16,4.16,0,0,0,140.83,5.35Z"/><path class="cls-7" d="M141.53,17.22a4.13,4.13,0,0,0,1.9,4.37,4.16,4.16,0,0,0-4.38,1.9,4.14,4.14,0,0,0-1.89-4.38A4.13,4.13,0,0,0,141.53,17.22Z"/><path class="cls-3" d="M192.6,143v.64a7.39,7.39,0,0,1,2.23,5.23c0,4.31-3.85,7.8-8.61,7.8s-8.61-3.49-8.61-7.8a7.39,7.39,0,0,1,2.23-5.23V143a3.94,3.94,0,0,0-3.94-3.94H153.7v22.19a3.93,3.93,0,0,1-3.93,3.94h-.65a7.36,7.36,0,0,0-5.23-2.22c-4.31,0-7.8,3.85-7.8,8.61s3.49,8.61,7.8,8.61a7.37,7.37,0,0,0,5.23-2.23h.65a3.93,3.93,0,0,1,3.93,3.94V204.1h55.09a10,10,0,0,0,10-9.93v-55.1h-22.2A3.94,3.94,0,0,0,192.6,143Z"/><path class="cls-8" d="M149.77,178h-.65a7.37,7.37,0,0,1-5.23,2.23c-4.31,0-7.8-3.86-7.8-8.61s3.49-8.61,7.8-8.61a7.36,7.36,0,0,1,5.23,2.22h.65a3.93,3.93,0,0,0,3.93-3.94V139.07H131.51a3.93,3.93,0,0,1-3.94-3.94v-.65a7.37,7.37,0,0,0,2.23-5.22c0-4.31-3.86-7.81-8.61-7.81s-8.62,3.5-8.62,7.81a7.37,7.37,0,0,0,2.23,5.22v.65a3.93,3.93,0,0,1-3.94,3.94H88.67v55.08a10,10,0,0,0,9.93,9.95h55.1V181.91A3.93,3.93,0,0,0,149.77,178Z"/><path class="cls-9" d="M177.66,148.05a7.45,7.45,0,0,1,2.18-4.4V143a3.84,3.84,0,0,0-.11-.91,7.37,7.37,0,0,0-2.12,5.1A7.92,7.92,0,0,0,177.66,148.05Z"/><path class="cls-9" d="M194.83,147.2a7.32,7.32,0,0,0-2.12-5.1,3.84,3.84,0,0,0-.11.91v.64a7.45,7.45,0,0,1,2.18,4.4A7.92,7.92,0,0,0,194.83,147.2Z"/><path class="cls-9" d="M208.79,202.43H153.7v1.67h55.09a10,10,0,0,0,10-9.93V192.5A10,10,0,0,1,208.79,202.43Z"/><path class="cls-9" d="M153.7,180.23a3.93,3.93,0,0,0-3.93-3.93h-.65a7.36,7.36,0,0,1-5.23,2.22c-4,0-7.38-3.41-7.76-7.77a7.63,7.63,0,0,0,0,.84c0,4.75,3.49,8.61,7.8,8.61a7.37,7.37,0,0,0,5.23-2.23h.65a3.93,3.93,0,0,1,3.93,3.94Z"/><path class="cls-3" d="M127.57,133.46a3.82,3.82,0,0,0,.11.9,7.33,7.33,0,0,0,2.12-5.1,6,6,0,0,0-.06-.85,7.39,7.39,0,0,1-2.17,4.4Z"/><path class="cls-3" d="M114.8,133.46v-.65a7.44,7.44,0,0,1-2.17-4.4,6,6,0,0,0-.06.85,7.33,7.33,0,0,0,2.12,5.1A3.82,3.82,0,0,0,114.8,133.46Z"/><path class="cls-3" d="M149.77,163.53h-.65a7.37,7.37,0,0,0-5.23-2.23c-4.31,0-7.8,3.86-7.8,8.61a7.87,7.87,0,0,0,0,.84c.38-4.36,3.71-7.77,7.76-7.77a7.36,7.36,0,0,1,5.23,2.22h.65a3.93,3.93,0,0,0,3.93-3.94v-1.67A3.93,3.93,0,0,1,149.77,163.53Z"/><path class="cls-3" d="M88.67,192.48v1.67a10,10,0,0,0,9.93,9.95h55.1v-1.67H98.6A10,10,0,0,1,88.67,192.48Z"/><path class="cls-2" d="M253.09,207.39H27.83a1.64,1.64,0,0,1-1.64-1.64h0a1.64,1.64,0,0,1,1.64-1.65H253.09a1.65,1.65,0,0,1,1.65,1.65h0A1.65,1.65,0,0,1,253.09,207.39Z"/><path class="cls-2" d="M230.65,80c0-.43,0-.85.09-1.27s.06-1-.52-1.06a3.24,3.24,0,0,0-1.39.34,8.66,8.66,0,0,0-2.44,1c-.91.7-1,2.27-1.14,3.34a13.94,13.94,0,0,0,.08,3.87c.09.53.2,1.06.27,1.59a18.89,18.89,0,0,1,.06,3.19,1.39,1.39,0,0,1-.28,1,43.62,43.62,0,0,0,5.83,0,26.77,26.77,0,0,1-.6-6.51c-.05-1.51-.05-3,0-4.51Z"/><path class="cls-2" d="M223.54,85.36l-2.15-.46a.93.93,0,0,0-.8.09.91.91,0,0,0-.19.67,34.48,34.48,0,0,1-.58,5.82,15.17,15.17,0,0,1,4.2-.28l-.1-5.37a.5.5,0,0,0-.09-.34A.49.49,0,0,0,223.54,85.36Z"/><rect class="cls-10" x="222.36" y="84.57" width="4.47" height="7.53" transform="translate(457.14 152.9) rotate(174.05)"/><path class="cls-11" d="M220.35,87.34l5.4-.32a1.08,1.08,0,0,0,1-.9l1.6-9.61L219,75.37l-1.23,10C217.59,87.18,219.21,87.37,220.35,87.34Z"/><path class="cls-10" d="M218.1,82.93l.84.11s-.88.16-1,.91Z"/><polygon class="cls-11" points="217.03 82.8 218.18 82.94 218.59 79.59 217.03 82.8"/><path class="cls-11" d="M227.57,80.78a.56.56,0,0,1,.67-.11.84.84,0,0,1,.43.56,2,2,0,0,1,0,.73,2.48,2.48,0,0,1-.3,1.1,1.22,1.22,0,0,1-.89.64,1.19,1.19,0,0,1-.91-.32"/><path class="cls-2" d="M229.5,74.72a4,4,0,0,0-.29-.29,4.34,4.34,0,0,0-.72-.56,6.72,6.72,0,0,1-.74-.42.76.76,0,0,0-.19-.12,4.53,4.53,0,0,0-1-.37,9.3,9.3,0,0,0-1.06-.13,16.23,16.23,0,0,0-2.7,0c-1.93.2-3.9.92-4.53,2.93-.38,1.23,0,2.51,0,3.75h1.54a.11.11,0,0,0,.08,0,.13.13,0,0,0,0-.09,1.48,1.48,0,0,1,.19-.71,1.54,1.54,0,0,1,.11.64q.9,0,1.8,0a5.21,5.21,0,0,1,.14-1.18,6.6,6.6,0,0,1,.21,1.23,15.13,15.13,0,0,1,2,0c0-.61,0-1.21,0-1.81a6,6,0,0,0,.4,1.43,1.53,1.53,0,0,1,.13.51c.26,0,.31-.06.4.22l.21.74c.12.5.22,1,.29,1.51a13.31,13.31,0,0,1,.12,1.54c0,.26,0,.52,0,.77s0,.6-.05.71a11.23,11.23,0,0,0,1-1.48c.29-.52.44-1.2.78-1.69.23-.32.66-.35,1-.5a3.64,3.64,0,0,0,1.11-.65,3.7,3.7,0,0,0,.6-.71,2.2,2.2,0,0,0,.3-.87,4.81,4.81,0,0,0,0-1.65,6.28,6.28,0,0,0-.43-1.58A4.7,4.7,0,0,0,229.5,74.72Z"/><path class="cls-12" d="M222.58,91.23l3.66,7.14a53.32,53.32,0,0,1-28.44-3.14s-2-1-4.71-2.16-3.69-.81-3.87-1.86-.84-2.85-.22-3.39,2.51-1.33,3.12.08,1.11,2.56,2.19,3.23,9.19,2.84,13,2.49S217.07,93.49,222.58,91.23Z"/><path class="cls-2" d="M208.85,51.38,154,46.61,152,68.72A3.94,3.94,0,0,0,155.61,73l.65.05a7.37,7.37,0,0,1,5.4-1.76c4.29.37,7.44,4.51,7,9.25s-4.23,8.28-8.53,7.9a7.34,7.34,0,0,1-5-2.67l-.64-.05a3.94,3.94,0,0,0-4.27,3.58l-1.92,22.11,22.11,1.92a4,4,0,0,1,3.59,4.27l-.06.64a7.38,7.38,0,0,0-2.67,5c-.37,4.3,3.16,8.11,7.9,8.52s8.88-2.73,9.26-7a7.4,7.4,0,0,0-1.77-5.39l.06-.65a3.93,3.93,0,0,1,4.26-3.58L213.11,117l4.77-54.87A10,10,0,0,0,208.85,51.38Z"/><polygon class="cls-4" points="191.57 101.91 213.52 112.36 214.28 103.56 191.57 101.91"/><g class="cls-13"><path class="cls-14" d="M209.76,53a10.12,10.12,0,0,1,7.1,3.86,9.94,9.94,0,0,0-8-5.46L154,46.61l-.13,1.51Z"/><path class="cls-14" d="M154.14,88.11l.66.06a7.56,7.56,0,0,0,5.13,2.73c4.4.38,8.3-3.24,8.72-8.09a9,9,0,0,0,0-1.87c-.59,4.53-4.3,7.86-8.47,7.49a7.34,7.34,0,0,1-5-2.67l-.64-.05a3.94,3.94,0,0,0-4.27,3.58l-.09,1.13A4,4,0,0,1,154.14,88.11Z"/></g><path class="cls-4" d="M155.61,73l.65.05a7.37,7.37,0,0,1,5.4-1.76c4.29.37,7.44,4.51,7,9.25,0,.28-.07.56-.12.83a9,9,0,0,0,.44-2.1c.41-4.74-2.74-8.88-7-9.25a7.37,7.37,0,0,0-5.4,1.76l-.64,0a3.94,3.94,0,0,1-3.58-4.27l1.81-20.82-.22,0L152,68.72A3.94,3.94,0,0,0,155.61,73Z"/><path class="cls-4" d="M174,117.19l.26-.23.05-.64a3.94,3.94,0,0,0-3.58-4.27l-22.11-1.92L150.57,88a4,4,0,0,0-.33,1.25l-1.92,22.11,22.11,1.92A3.94,3.94,0,0,1,174,117.19Z"/><path class="cls-4" d="M179.52,130.49c-4.74-.41-8.28-4.22-7.91-8.52,0-.17,0-.33.07-.49a6.92,6.92,0,0,0-.39,1.76c-.37,4.3,3.16,8.11,7.9,8.52,4.55.4,8.54-2.49,9.18-6.52A8.45,8.45,0,0,1,179.52,130.49Z"/><path class="cls-4" d="M191.32,113.84a3.93,3.93,0,0,0-4.26,3.58v0a3.94,3.94,0,0,1,3.94-2.34L213.11,117l.11-1.29Z"/><path class="cls-2" d="M234.17,111.86l-11.63.55s1.16,36,2.72,40,11.14,16.71,14.67,26.14l2-.1s.87-14.52-6.35-24.13a84.44,84.44,0,0,0,.87-16.23c-.52-7.52,3.28-8.73,2.53-13.75s-4.08-8.55-4.39-9.73A22,22,0,0,1,234.17,111.86Z"/><path class="cls-4" d="M221.91,112l11.8.43a6.35,6.35,0,0,0,1.21,4.59c3.33,4.6,2.23,9.25.43,13.81s-5.65,13.84-6.63,17.4-1.63,4.74-.79,9.74-3,23.1-3,23.1L222.8,181s-2.05-18.67-2.22-23.39c-.15-4.16-.27-7.45-.45-11.83C216.67,126.37,221.91,112,221.91,112Z"/><path class="cls-12" d="M227.51,90.55a6.74,6.74,0,0,1,4.91,4.74,14.93,14.93,0,0,1,0,4.81,19.14,19.14,0,0,0,.65,6.21c.46,1.7.69,3.48,1,5.22,0,.11.43,2.58.48,2.57l-13.75,1.43c.33,0,.38-3.86.37-4.16a8.05,8.05,0,0,0-.25-2.86,15.41,15.41,0,0,0-1.88-2.66,9.24,9.24,0,0,1-1.94-4.34,2.86,2.86,0,0,1,.58-2.19,35.3,35.3,0,0,0,3-5.14c.7-1.44,1.31-3.16,3-3.69A7.09,7.09,0,0,1,227.51,90.55Z"/><path class="cls-4" d="M218.8,101.32l9.23-.69-8.53,5.85c-.17-.21-.34-.42-.49-.63a9.89,9.89,0,0,1-1.9-4Z"/><path class="cls-11" d="M223.05,94.56l5,6.07a52.2,52.2,0,0,1-27.88,2.85s-2.1-.56-5-1.1-3.7,0-4.09-1-1.39-2.56-.91-3.21,2.13-1.78,3-.56,1.58,2.22,2.75,2.64,9.39.83,12.93-.28S218.24,97.85,223.05,94.56Z"/><path class="cls-2" d="M221.9,181.21l-2.88.34a2.14,2.14,0,0,0-1.06.39.87.87,0,0,0-.37.51.68.68,0,0,0,.28.7l6.34.24a.76.76,0,0,0,.73-.49,2,2,0,0,0-.05-1.68l-1.29.3Z"/><path class="cls-11" d="M224.89,181v.45a.86.86,0,0,1-.9.83l-1,0-.15,0-3.39-.11a.26.26,0,0,1,.06-.51l3.65-.66Z"/><path class="cls-2" d="M239.29,179.76l-2.51,1.44a2,2,0,0,0-.82.77.81.81,0,0,0-.14.62.7.7,0,0,0,.53.54l5.92-2.27a.74.74,0,0,0,.49-.73,2,2,0,0,0-.71-1.53l-1.06.79Z"/><path class="cls-10" d="M242,178.44l.16.42a.87.87,0,0,1-.5,1.11l-.94.36-.14,0-3.17,1.22a.26.26,0,0,1-.14-.49l2.71-1.78a.43.43,0,0,0,.09-.62l-.13-.17Z"/><polygon class="cls-4" points="205.75 204.1 192.28 204.1 190.91 188.58 207.12 188.58 205.75 204.1"/><path class="cls-2" d="M197.85,177.78c3.16,4.67.72,11.84.72,11.84s-7.57-.4-10.73-5.07-.72-11.84-.72-11.84S194.69,173.11,197.85,177.78Z"/><path class="cls-8" d="M192.35,177.8a7.92,7.92,0,0,0-.89-2c-.09-.14-.19-.32-.11-.48a.35.35,0,0,1,.38-.14,2.91,2.91,0,0,1,1.56,1.43c.2.32.45.62.64.93a7.91,7.91,0,0,1,.56,1.42,11,11,0,0,1,.7,2.88c0,.25.08.57.33.61s.4-.27.45-.52a8.28,8.28,0,0,0-.14-2.53c0-.3-.21-.91-.07-1.18s.57-.19.79,0a4.17,4.17,0,0,1,.94,1.89,19.38,19.38,0,0,1,.61,7.11A15.75,15.75,0,0,0,198,189a26.11,26.11,0,0,0-3.88-1.33,8.61,8.61,0,0,1-3.6-1.92c-.26-.25-.49-.69-.23-.95a.73.73,0,0,1,.44-.15,3.74,3.74,0,0,1,1.31.24.69.69,0,0,0,.35,0c.11,0,.2-.18.14-.28a.22.22,0,0,0-.1-.09,10.81,10.81,0,0,0-2.07-.8A5,5,0,0,1,188,181.7a3.71,3.71,0,0,1-.52-1.27c-.07-.44-.06-1.22.39-1.48s.86.54,1.07.89a2.46,2.46,0,0,0,1,1,1.34,1.34,0,0,0,.79.07,9.1,9.1,0,0,1-.94-1.21,14.42,14.42,0,0,1-1-1.51,6.68,6.68,0,0,1-1-3.16c0-.35.12-1.32.68-1.05.38.17.79,1,1,1.33A10.92,10.92,0,0,1,192,179.5a1.17,1.17,0,0,0,.19.49c.24.25.45.1.49-.19a4.62,4.62,0,0,0-.15-1.28Q192.46,178.16,192.35,177.8Z"/><path class="cls-3" d="M193.44,173.15c-.77,5.2,4.17,10.24,4.17,10.24s6.19-3.38,7-8.58-4.16-10.24-4.16-10.24S194.22,168,193.44,173.15Z"/><path class="cls-2" d="M198.07,171a7.49,7.49,0,0,1-.06-2.06c0-.16,0-.35-.1-.45a.32.32,0,0,0-.38,0,2.66,2.66,0,0,0-.73,1.83c0,.35-.13.69-.17,1a8.36,8.36,0,0,0,.1,1.41,9.94,9.94,0,0,0,.58,2.7c.08.22.15.52,0,.65s-.45-.07-.58-.26a7.75,7.75,0,0,1-.91-2.18c-.08-.26-.19-.84-.41-1s-.56.07-.66.33a4,4,0,0,0,0,2,18.07,18.07,0,0,0,2.35,6.22,14.42,14.42,0,0,1,.84,1.48A25.6,25.6,0,0,1,200.6,180a8,8,0,0,0,2.25-3.06c.12-.32.13-.78-.19-.89a.62.62,0,0,0-.42.05,3.61,3.61,0,0,0-1,.73.61.61,0,0,1-.29.14c-.11,0-.23-.07-.22-.18a.28.28,0,0,1,0-.12,10.57,10.57,0,0,1,1.42-1.5,4.7,4.7,0,0,0,1.09-2.66,3.39,3.39,0,0,0-.07-1.27c-.11-.4-.44-1.05-.92-1.09s-.51.8-.55,1.18a2.17,2.17,0,0,1-.43,1.29,1.21,1.21,0,0,1-.63.38,9.34,9.34,0,0,0,.3-1.39,13.82,13.82,0,0,0,.27-1.69,6.36,6.36,0,0,0-.46-3.05c-.14-.3-.63-1.06-1-.61a4.81,4.81,0,0,0-.34,1.54,10.24,10.24,0,0,0-.38,4.46.91.91,0,0,1,0,.49c-.09.31-.33.26-.48,0a4.32,4.32,0,0,1-.39-1.13C198.16,171.41,198.11,171.18,198.07,171Z"/><path class="cls-2" d="M198.51,179.21c-3.36,4-1.75,10.91-1.75,10.91s7.05.33,10.41-3.72,1.75-10.92,1.75-10.92S201.87,175.16,198.51,179.21Z"/><path class="cls-8" d="M203.6,179.73a7.87,7.87,0,0,1,1-1.79c.1-.13.21-.29.15-.44a.32.32,0,0,0-.34-.16,2.71,2.71,0,0,0-1.58,1.18c-.21.28-.47.53-.68.81a7.89,7.89,0,0,0-.65,1.26,10.09,10.09,0,0,0-.9,2.61c0,.23-.13.52-.37.53s-.35-.29-.36-.52a7.76,7.76,0,0,1,.35-2.34c.07-.27.28-.82.18-1.08s-.52-.24-.73-.06a3.84,3.84,0,0,0-1.05,1.67,18.22,18.22,0,0,0-1.22,6.53,12.21,12.21,0,0,1,0,1.71,23.79,23.79,0,0,1,3.73-.88,8,8,0,0,0,3.51-1.45c.26-.21.52-.6.3-.86a.67.67,0,0,0-.39-.18,3.46,3.46,0,0,0-1.24.1.61.61,0,0,1-.33,0,.21.21,0,0,1-.1-.28l.1-.07a10.37,10.37,0,0,1,2-.55,4.67,4.67,0,0,0,2.31-1.71,3.44,3.44,0,0,0,.59-1.12c.11-.4.17-1.13-.22-1.41s-.85.42-1.08.72a2.14,2.14,0,0,1-1,.88,1.17,1.17,0,0,1-.74,0,9.84,9.84,0,0,0,1-1,15.37,15.37,0,0,0,1.11-1.31,6.33,6.33,0,0,0,1.19-2.84c0-.33,0-1.23-.53-1-.37.13-.83.85-1.1,1.14a10,10,0,0,0-2.63,3.62,1.12,1.12,0,0,1-.23.43c-.24.22-.42.06-.43-.22a4,4,0,0,1,.26-1.17C203.44,180.16,203.52,179.94,203.6,179.73Z"/><rect class="cls-4" x="190.19" y="188.57" width="17.65" height="2.86"/><polygon class="cls-2" points="206.7 194.24 191.12 191.43 206.91 191.43 206.7 194.24"/><rect class="cls-2" x="211.91" y="183.39" width="34.77" height="3.73"/><rect class="cls-15" x="211.91" y="183.39" width="34.77" height="0.73"/><rect class="cls-2" x="217.23" y="196.18" width="24.13" height="2.59"/><rect class="cls-6" x="217.23" y="198.15" width="24.13" height="0.62"/><rect class="cls-2" x="215.11" y="187.11" width="3.53" height="16.99"/><rect class="cls-6" x="215.11" y="187.11" width="3.53" height="0.92"/><rect class="cls-2" x="239.95" y="187.11" width="3.53" height="16.99"/><rect class="cls-6" x="239.95" y="187.11" width="3.53" height="0.92"/><path class="cls-3" d="M54.51,107.21l-3.92,8.29A61,61,0,0,0,83,110.86s2.22-1.23,5.3-2.64,4.19-1.06,4.36-2.27.84-3.29.12-3.89-2.92-1.42-3.57.21-1.17,3-2.37,3.77-10.4,3.59-14.73,3.33S60.89,109.58,54.51,107.21Z"/><path class="cls-4" d="M61.49,77.31l17.3,52.32,21.07-7a3.92,3.92,0,0,0,2.5-5l-.2-.62a7.38,7.38,0,0,1-3.75-4.26c-1.36-4.09,1.21-8.62,5.72-10.11s9.28.61,10.63,4.71a7.37,7.37,0,0,1-.48,5.66l.21.61a3.93,3.93,0,0,0,5,2.5l21.08-7-7-21.08a3.94,3.94,0,0,1,2.5-5l.62-.21a7.37,7.37,0,0,0,5.66.48c4.09-1.35,6.2-6.11,4.71-10.63s-6-7.07-10.12-5.72a7.38,7.38,0,0,0-4.26,3.75l-.61.21a4,4,0,0,1-5-2.51l-7-21.07L67.83,64.75A10,10,0,0,0,61.49,77.31Z"/><polygon class="cls-2" points="92.26 117.05 77.97 127.02 75.64 120.09 92.26 117.05"/><g class="cls-16"><path class="cls-14" d="M114.45,113.57a7.31,7.31,0,0,0,.47-2.3,7.89,7.89,0,0,1-.64,1.8Z"/><path class="cls-14" d="M98.41,112.81a7.1,7.1,0,0,1-.35-2.61,7.28,7.28,0,0,0,.17,3.92,7.38,7.38,0,0,0,3.75,4.26l.21.61a3.91,3.91,0,0,1,.19,1.1,3.86,3.86,0,0,0,0-2.4l-.2-.62A7.38,7.38,0,0,1,98.41,112.81Z"/><path class="cls-14" d="M136.94,67.09a7.38,7.38,0,0,0-4.26,3.75l-.61.21a4,4,0,0,1-5-2.51l-7-21.07L67.83,64.75A10,10,0,0,0,61,73.53a10,10,0,0,1,6.63-7.47L120,48.77l7,21.08a3.94,3.94,0,0,0,5,2.5l.61-.2a7.38,7.38,0,0,1,4.27-3.76c4.09-1.35,8.62,1.22,10.11,5.73a9.42,9.42,0,0,1,.46,3.49,9.3,9.3,0,0,0-.28-4.8C145.56,68.3,141,65.74,136.94,67.09Z"/><path class="cls-14" d="M133.39,89.45l6.6,20,.55-.18-7-21.08a3.79,3.79,0,0,1-.19-1.1A4,4,0,0,0,133.39,89.45Z"/></g><path class="cls-2" d="M114.72,107.31a5.77,5.77,0,0,0-.21-.79c-1.35-4.1-6.11-6.2-10.62-4.71s-7.08,6-5.73,10.11l0,.09c-.79-3.87,1.72-7.92,5.94-9.31C108.61,101.22,113.33,103.28,114.72,107.31Z"/><path class="cls-2" d="M99.62,121.77l-21.08,7L61.25,76.43c.07.29.15.59.24.88l17.3,52.32,21.07-7a3.92,3.92,0,0,0,2.5-5l-.11-.34A3.92,3.92,0,0,1,99.62,121.77Z"/><path class="cls-2" d="M119.22,115.29a3.93,3.93,0,0,1-4.9-2.3.3.3,0,0,1,0,.08l.21.61a3.93,3.93,0,0,0,5,2.5l21.08-7-.29-.88Z"/><path class="cls-2" d="M142.1,82.55a7.41,7.41,0,0,1-5.66-.47l-.61.2a3.94,3.94,0,0,0-2.51,5l.12.34a3.92,3.92,0,0,1,2.63-4.42l.62-.21a7.37,7.37,0,0,0,5.66.48c4.09-1.35,6.2-6.11,4.71-10.63h0C148,77.05,145.93,81.29,142.1,82.55Z"/><path class="cls-2" d="M54.32,140a7.29,7.29,0,0,1,5.37,6c1.07,7.73,2.77,22.56.59,27.94-3,7.36-20.47,25.14-20.47,25.14l-3.11-1.37S42,185,47,177a16.28,16.28,0,0,0,1.23-5.64c-.06-2.58-2.26-6.81-2.7-12.6-.2-2.65-.3-7.33-.35-11.62A7.29,7.29,0,0,1,54.32,140Z"/><path class="cls-4" d="M53.64,138.54A7.27,7.27,0,0,1,61,141.89c4.11,6.63,11.67,19.5,11.86,25.3.27,7.94-8.5,32.75-8.5,32.75L61,200s-.35-15.3,1-24.64a16.42,16.42,0,0,0-1.16-5.66c-1.1-2.33-4.83-5.31-7.57-10.42-1.26-2.35-3.25-6.59-5-10.48a7.28,7.28,0,0,1,5.46-10.22Z"/><rect class="cls-10" x="53.28" y="101.29" width="4.72" height="7.96" transform="translate(8.85 -4.22) rotate(4.72)"/><path class="cls-17" d="M53.2,101.41a4.6,4.6,0,0,0-.12-1.28.84.84,0,0,0-.43-.57c-.2-.07-.6-.06-.68.2a.44.44,0,0,0,0,.2,7.45,7.45,0,0,0,.12,1.25,5.61,5.61,0,0,0,.62,1.64c0,.08.14.17.22.12a.16.16,0,0,0,0-.07,3,3,0,0,0,.24-1.33Z"/><path class="cls-11" d="M59.63,106l-6.11-2.23a1.15,1.15,0,0,1-.83-1.15L53.1,92.3l9.87.82-.92,11.07A2,2,0,0,1,59.63,106Z"/><path class="cls-10" d="M62.3,101.14l-.9-.07s.88.35.81,1.15Z"/><polygon class="cls-11" points="63.43 101.23 62.22 101.13 62.51 97.58 63.43 101.23"/><path class="cls-11" d="M53,96.88a.59.59,0,0,0-.67-.26.92.92,0,0,0-.57.49,2.37,2.37,0,0,0-.19.75,2.86,2.86,0,0,0,.08,1.2,1.27,1.27,0,0,0,.79.85,1.22,1.22,0,0,0,1-.14"/><path class="cls-2" d="M54.23,96.8A1.75,1.75,0,0,0,53.88,98a1.57,1.57,0,0,0,.21,1.16,2,2,0,0,0,.61.46,6.32,6.32,0,0,1,2.48,1.65,10.33,10.33,0,0,1,.63,1.4,5,5,0,0,0,.61.95.82.82,0,0,0,.8.36c.49-.13.6-.81.78-1.2a1.07,1.07,0,0,1,1.43-.7l.58.07a.47.47,0,0,1,.21.06.47.47,0,0,1,.12.19,6.1,6.1,0,0,1,.33,1.69,2.35,2.35,0,0,1-1.11,2.39,5,5,0,0,1-2.47.11,10.4,10.4,0,0,1-3-.82,7.1,7.1,0,0,1-2.18-1.26,4.41,4.41,0,0,1-1-3.22c0-.67,0-1.34.06-2,0-.34.06-.69.11-1a1.91,1.91,0,0,0,0-.92.78.78,0,0,0-.69-.54c-.5,0-.66.56-.87.92a11.47,11.47,0,0,1,0-2A6.86,6.86,0,0,1,51.89,93a1.1,1.1,0,0,0,.11-.56.37.37,0,0,0-.38-.34,7,7,0,0,1,1.11-.2c.16-.4.31-.81.43-1.22a3.28,3.28,0,0,1-.14.93A3.66,3.66,0,0,1,55.55,90a11.15,11.15,0,0,0,1.92-.18,5.45,5.45,0,0,0-.81-1,9.35,9.35,0,0,1,3.67,1l-.52-1.26a5.54,5.54,0,0,1,2.58,2.2A6.32,6.32,0,0,0,62,89.27a5.09,5.09,0,0,1,1.64,4.35,7.34,7.34,0,0,1-.89,2.71l-.37-.69v.27l-.17-.38v.3a2.75,2.75,0,0,0-1.08-1.06,7.06,7.06,0,0,0-1.42-.58.94.94,0,0,1,.14.26l-1.16-.36a.22.22,0,0,1,.1.18,5.33,5.33,0,0,0-2.6.13.62.62,0,0,0-.27.13.7.7,0,0,0-.15.34,2.4,2.4,0,0,1-.68,1.48c-.22.16-.52.2-.75.36Z"/><path class="cls-11" d="M60.88,104.86a2,2,0,0,1-.42-.09.4.4,0,0,1-.2-.12.24.24,0,0,1,0-.16,1,1,0,0,1,.1-.48,3.89,3.89,0,0,1,.33-.68,1,1,0,0,1,.23-.32c.21-.18.46-.08.71-.07l.94,0a6.56,6.56,0,0,1,.14.87,1.66,1.66,0,0,0,0,.22s0,.09,0,.12-.23.09-.31.06a1.31,1.31,0,0,0-.27-.06.68.68,0,0,0-.48.24,1.76,1.76,0,0,1-.4.37A.94.94,0,0,1,60.88,104.86Z"/><path class="cls-8" d="M46.29,123.73c.21,2.9.23,5.84.33,8.75a37.12,37.12,0,0,1-.26,3.79c-.11,1.38-.23,2.77-.42,4.15-.16,1.17-.57,2.31-.75,3.5-.14.93-.09,1.2.87,1.14s2-.09,3-.09l13.79-.06q-.2-7.89,0-15.78a3.91,3.91,0,0,1,.1-.91,15.4,15.4,0,0,1,.7-1.41,4.79,4.79,0,0,0,.21-2.2A41.84,41.84,0,0,0,61.33,113c-.54-1.47-.81-3.14-1.81-4.4-1.71-2.16-6.58-2.32-8.65-.7s-3,4.18-3.56,6.65a30.34,30.34,0,0,0-1,8.78C46.28,123.48,46.29,123.6,46.29,123.73Z"/><path class="cls-3" d="M52.62,116.93l3-.71,6.57,1.6.75.77a40.62,40.62,0,0,1,.87,6,5.75,5.75,0,0,1-.06,1.71Z"/><path class="cls-8" d="M54.87,110.34l-2.65,3.74a2.1,2.1,0,0,0,1,3.18,52.57,52.57,0,0,0,29.11,2s2.43-.75,5.74-1.51,4.31-.18,4.73-1.32,1.5-3.05.91-3.78-2.56-2-3.53-.53-1.75,2.66-3.1,3.2-10.91,1.39-15.1.25-10.61-2-16.25-5.4A.64.64,0,0,0,54.87,110.34Z"/><path class="cls-2" d="M64.36,199.94l6.49,1.52A3.12,3.12,0,0,1,73,203.15l.26.54a.55.55,0,0,1-.49.78H61a1.07,1.07,0,0,1-1-1.41l1-3.1Z"/><path class="cls-2" d="M36.7,197.72l3.11,1.37.88,1.38a1.28,1.28,0,0,0,.88.56l4.09.55a2.51,2.51,0,0,1,2.14,2.11v0a.66.66,0,0,1-.66.76H38.59l-3.43-2.73a1.12,1.12,0,0,1-.22-1.5Z"/><path class="cls-11" d="M92.79,116.43c.41-1.15,1.5-3.05.91-3.78s-2.56-2-3.53-.53-1.75,2.66-3.1,3.2a3.16,3.16,0,0,1-.58.16l.7,2.48.87-.21C91.36,117,92.37,117.57,92.79,116.43Z"/></svg>