<svg id="Capa_1" data-name="Capa 1" xmlns="http://www.w3.org/2000/svg" viewBox="0 0 258.9 230.48"><defs><style>.cls-1{fill:#c7895e;}</style></defs><path class="cls-1" d="M83.32,101.61c1.24,0,2.48-.09,3.71,0,10.76,1,20.51,0,28.67-8.87C120.6,87.48,128,85,135.09,83.2c3.28-.82,3.39-2.14,2.35-4.86a37.56,37.56,0,0,0-16.88-20.09c-4.62-2.61-8.39-5.74-9.68-11.12-.37-1.54-1.36-1.87-2.73-1.87-7.84,0-15.68.06-23.51,0-2,0-2.59.94-3,2.55a15.65,15.65,0,0,1-8.29,9.75A37.58,37.58,0,0,0,63.47,65c-1.57,1.65-3.32,2.83-5.26.83s-.54-3.75,1-5.31A43.13,43.13,0,0,1,70,52.26,11.68,11.68,0,0,0,74.14,49c1.6-2.2,2.3-3.85-.76-6-6.9-4.74-7.32-24.68-.94-30.12a11.75,11.75,0,0,1,8-2.78c10.59,0,21.18,0,31.77,0,7.22.05,11.84,4.66,12,11.85.07,3.43-.07,6.88,0,10.31.16,4.94-1.49,8.94-5.89,11.42-1.64.93-1.63,1.85-1,3.33a11.16,11.16,0,0,0,5.17,5.12A43.19,43.19,0,0,1,143.87,78.3c.75,2.48,1.84,2.76,4.09,2.58,34.06-2.71,65,22,69.43,55.22,4.67,35.44-18.6,67.59-53.35,73.57-5.83,1-11.75,1.52-17.65.5-2.06-.35-3.16.23-4.34,2a20.24,20.24,0,0,1-17.45,9.28c-18.84.07-37.68.13-56.52,0-13.65-.11-23.79-12.75-20.73-25.33.95-3.94,5.51-6.67,5.41-9.66-.1-2.8-4.43-5.52-5.36-9.29a16.06,16.06,0,0,1,4.34-15.92c1.43-1.47,1.63-2.16.09-3.83-6.82-7.4-6.76-16.12.06-23.61,1.26-1.39,1.51-2,.1-3.53-7-7.73-6.94-16.23,0-23.93.81-.89,2.07-1.44.49-2.85-6.54-5.82-6.27-13.3-4.82-21a48.07,48.07,0,0,1,1.77-6.34c.71-2.08,1.85-4,4.47-3,2.3.89,2.18,2.89,1.47,4.88a35.32,35.32,0,0,0-2.22,11.68c-.07,7.46,4.07,11.78,11.62,11.87C70.94,101.68,77.13,101.61,83.32,101.61Zm69.62,102.68a58.72,58.72,0,1,0-58.59-58.82A58.58,58.58,0,0,0,152.94,204.29Zm-16.2,4.32c-8.66-2.53-17.07-5.54-23.14-11.72-6.34-6.46-13.34-7.86-21.77-7.39-9,.51-18.15,0-27.23.16s-13.92,7.52-10.47,16c2.62,6.4,7.65,9.53,14.53,9.57,8.52.06,17,0,25.58,0,9.76,0,19.53,0,29.29,0C128.85,215.17,133.45,213.65,136.74,208.61ZM96.48,39c5.21,0,10.43,0,15.64,0,3.65,0,5.67-1.87,5.77-5.51.11-3.84.08-7.69,0-11.53-.06-3.43-1.82-5.5-5.3-5.53-10.84-.08-21.68-.1-32.52,0-3.65,0-5.41,2.22-5.4,5.86s-.07,7.13,0,10.7c.1,4.13,1.92,5.93,6.13,6C86.05,39.08,91.26,39,96.48,39Zm3.6,68.72c-12.84,0-24.77-.16-36.69.06a10.21,10.21,0,0,0-10.25,10.65c.07,5.81,4.37,10.25,10.54,10.39,8.09.19,16.19,0,24.28.08,1.35,0,2.33-.18,2.76-1.73C92.63,120.44,95.85,114.28,100.08,107.73Zm0,75.69A71.89,71.89,0,0,1,90.69,164a2.13,2.13,0,0,0-2.42-1.66c-8.5.06-17-.2-25.51.2-5.94.27-9.77,5-9.61,10.75a10.25,10.25,0,0,0,10.34,10.12C75.42,183.52,87.35,183.42,100.09,183.42ZM74.22,156.15h0c4,0,8-.07,11.94,0,1.91.05,2.8-.46,2.46-2.56a51,51,0,0,1,0-16c.24-1.54.08-2.68-2-2.66-8,.08-15.93-.2-23.87.2-5.93.29-9.77,5.06-9.6,10.79s4.44,9.89,10.37,10.15C67.08,156.28,70.65,156.15,74.22,156.15Z"/><path class="cls-1" d="M153.34,101.16c32.87.24,54.25,35.41,39.24,64.55-2.48,4.83-4.07,5.1-7.92,1.25q-26.57-26.53-53.11-53.1c-3.69-3.69-3.43-5.28,1.15-7.67A45.86,45.86,0,0,1,153.34,101.16Zm-15.52,9.59a5,5,0,0,0,.49,1.06q23.72,23.77,47.43,47.54c3,3,3-.27,3.45-1.64,7-20.08-4.48-42.35-25-48.56A36.42,36.42,0,0,0,137.82,110.75Z"/><path class="cls-1" d="M115,145.26A36.87,36.87,0,0,0,120.9,166c1.26,2,2.34,4.14-.28,5.66-2.31,1.34-3.81-.35-5-2.26-8.86-14.74-9.42-29.78-1.48-45,1.82-3.5,3.64-3.78,6.38-1.05q27.44,27.35,54.79,54.8c2.72,2.73,2.42,4.55-1.13,6.38-15.44,8-30.6,7.33-45.4-1.77-2-1.21-3.28-2.84-1.74-5.07,1.41-2,3.27-1.34,5.06-.2,10.38,6.6,21.45,7.86,33.16,4.27,2.51-.77,3.55-1.45,1.08-3.89q-23-22.76-45.78-45.75c-1.81-1.82-2.7-1.86-3.52.73A36.69,36.69,0,0,0,115,145.26Z"/></svg>