<svg xmlns="http://www.w3.org/2000/svg" viewBox="0 0 63.33 63.3"><defs><style>.cls-1{fill:#c8895e;}</style></defs><g id="Capa_2" data-name="Capa 2"><g id="Capa_1-2" data-name="Capa 1"><path class="cls-1" d="M8.38,31.63c-.61-2.08-.61-2.13-2.91-2.08-1,0-1.25-.21-1.26-1.22s.64-.91,1.27-.92c1.56,0,1.65-.18,1.22-1.59-.25-.83-.84-.47-1.28-.49-.7,0-1.23,0-1.21-1S4.48,23,5.4,23.19s1-.3,1-1.05-.1-1.2-1-1.05S4.23,20.91,4.21,20s.48-1,1.2-1c.49,0,1.12.32,1.32-.61.32-1.4.33-1.53-1.1-1.45-1,.06-1.54-.17-1.41-1.33.07-.62.23-.88.85-.81.26,0,.53,0,.79,0,1.6.31,2.31-.5,2.51-2.11-1,0-2.09-.06-3.12,0-.84.06-1-.26-1-1.05s0-1.16,1-1.11a11.46,11.46,0,0,0,4.18-.08c1.28-.43,1.75-2.07,2.69-3.09A22.18,22.18,0,0,1,50.63,24.09c-.91,10.56-9,18.75-19.89,20.1-1,.12-1.32.41-1.17,1.34a5.21,5.21,0,0,1,0,.79c0,2,0,2,1.94,2.18a1.14,1.14,0,0,1,1.21,1.25c0,3.21.07,6.42,0,9.62a4.19,4.19,0,0,1-8.36.12c-.11-3.25-.05-6.5,0-9.75,0-1.09.74-1.35,1.62-1.22,1.28.19,1.62-.28,1.57-1.56-.11-2.54,0-2.49-2.64-3a21.71,21.71,0,0,1-14.47-9.24,2,2,0,0,0-2-1c-1.09.09-2.19,0-3.29,0-.93.06-.8-.52-.82-1.09s0-1.12.87-1.06C6.16,31.68,7.21,31.63,8.38,31.63Zm31.74,1.1A15.77,15.77,0,1,0,16.75,11.55c-6.23,7-4.51,16.6,0,20.92.26-.19.14-.48.14-.72,0-3,0-6.06,0-9.09,0-1.12.42-1.63,1.56-1.59s2,0,3,0c1.53,0,1.75.22,1.75,1.76q0,6.47,0,12.92a3.12,3.12,0,0,0,0,.92c.25.79,1,.73,1.62.8.78.09.41-.6.43-.93.05-.92,0-1.85,0-2.77q0-7.65,0-15.29c0-.89.15-1.61,1.24-1.62,1.32,0,2.64,0,4,0A1.08,1.08,0,0,1,31.68,18c0,.35,0,.71,0,1.06,0,5.8,0,11.6,0,17.4,0,.34-.26.82.26,1a1.64,1.64,0,0,0,1.82-1.31c0-1.23,0-2.46,0-3.69q0-9,0-18.06c0-1.58.21-1.8,1.7-1.82,1,0,2,0,3,0,1.21-.06,1.63.5,1.62,1.67,0,3.34,0,6.67,0,10ZM12.47,10.44a3.67,3.67,0,0,0,3.68-1.19,17.13,17.13,0,0,1,15-4.83,17.92,17.92,0,0,1,5.65,33.65A17.72,17.72,0,0,1,16,34.87a3.66,3.66,0,0,0-3.5-1c2.67,4.72,11.07,10,20.47,7.86a20,20,0,0,0,.68-38.92C24.33.27,15.68,5.17,12.47,10.44ZM35.91,36.18c.92-.75,2.1-.78,2.1-2.08,0-6.18,0-12.36,0-18.54,0-.8-.39-.85-1-.8s-1.15-.24-1.15.75C35.92,22.3,35.91,29.09,35.91,36.18Zm-9.5,19.06c0,1.18,0,2.36,0,3.54a2.11,2.11,0,1,0,4.19,0c0-1.66,0-3.33,0-5,0-3.43,0-3.41-3.39-3.23-.62,0-.85.19-.83.82C26.44,52.7,26.41,54,26.41,55.24Zm3.16-26.71c0-2.8,0-5.61,0-8.42,0-.77-.07-1.19-1-1.16s-1.11.23-1.1,1.1q0,8.41,0,16.84c0,.87.26,1.08,1.1,1.1s1-.4,1-1.17C29.55,34.06,29.57,31.3,29.57,28.53ZM21.13,36c0-4,0-7.88,0-11.77,0-.87-.27-1.07-1.11-1.1s-1,.41-1,1.18c0,2.85.12,5.7,0,8.55A2.7,2.7,0,0,0,21.13,36ZM10.06,14.66c2.32.23,2.47.13,3-2C10.71,12.57,10.71,12.57,10.06,14.66ZM13.15,31.5c-.48-1.12-.82-2.31-2.48-2-.48.09-.68.11-.49.69C10.67,31.65,11,31.8,13.15,31.5ZM11.28,17c-2.19-.18-2.19-.18-2.41,1.9C10.85,19.14,10.85,19.14,11.28,17Zm-.72,5.34c.11-.74.11-1.31-.92-1.23-.73.06-1.26.05-1.18,1,0,.65,0,1.21.94,1.11C10,23.13,10.84,23.4,10.56,22.29Zm.64,5c-.26-2.12-.33-2.18-1.82-2-.43.05-.59.1-.53.61C9,27.44,9.16,27.54,11.2,27.32Z" transform="translate(0)"/><path class="cls-1" d="M57.23,38c1.75,0,3.2,0,4.65,0,1,0,1.46.41,1.45,1.42q0,6,0,12c0,.92-.41,1.46-1.34,1.36s-1.07.35-1.12,1.12c-.19,2.67-.48,5.34-.67,8-.07,1-.54,1.47-1.57,1.45q-2.7,0-5.4,0c-1.06,0-1.48-.45-1.55-1.48-.19-2.72-.49-5.42-.68-8.14,0-.71-.25-1-1-1-1.09.1-1.46-.5-1.46-1.53,0-3.91,0-7.81,0-11.72,0-1,.41-1.54,1.48-1.52,1.45,0,2.9,0,4.39-.07a6.18,6.18,0,0,1-3.15-2.74,5.18,5.18,0,0,1-.34-4.08,5.28,5.28,0,0,1,10.21.67C61.64,34.22,60.34,36.38,57.23,38Zm-1.29,2.12c-1.45,0-2.9,0-4.35,0-.64,0-.94.11-.93.85,0,2.94,0,5.89,0,8.83,0,.56.06,1,.77.87,1.16-.12,1.53.55,1.6,1.59.13,2,.32,3.94.49,5.91.26,3.07.27,3,3.41,3.07,1,0,1.28-.33,1.33-1.24.16-2.54.42-5.08.58-7.62.07-1.07.36-1.84,1.61-1.71.71.07.77-.31.77-.87,0-2.94,0-5.89,0-8.83,0-.74-.3-.87-.94-.85C58.84,40.1,57.39,40.08,55.94,40.08Zm3.15-7.33a3.15,3.15,0,1,0-3.24,3.09A3.18,3.18,0,0,0,59.09,32.75Z" transform="translate(0)"/><path class="cls-1" d="M34.84,56.88c0-1.58,0-3.16,0-4.74,0-1,.39-1.54,1.47-1.53q4.88,0,9.74,0c1.08,0,1.48.5,1.48,1.53q0,4.81,0,9.61c0,1.15-.51,1.55-1.61,1.54-3.16,0-6.32,0-9.48,0-1.21,0-1.64-.51-1.6-1.67C34.88,60,34.84,58.46,34.84,56.88Zm9.32-4.15c-2.36,0-4.41,0-6.47,0-.59,0-.74.23-.74.78q0,3.42,0,6.86c0,.5.07.82.7.81,2.37,0,4.75,0,7.12,0,.34,0,.61,0,.61-.48V54.61l-3.21,3.82c-.47.56-1,.92-1.69.34S39.29,57.6,38.7,57s0-.8.31-1,.63-1.08,1.11-.46c1.06,1.36,1.5.3,2.08-.4Z" transform="translate(0)"/><path class="cls-1" d="M1.1,12.61c-1.09.27-1-.38-1.09-1.1-.06-.88.32-1,1.07-1s1.11.25,1.1,1.1S2,12.89,1.1,12.61Z" transform="translate(0)"/><path class="cls-1" d="M1.22,16.83C.32,17,0,16.75,0,15.84s.22-1.15,1.1-1.12,1.17.12,1.06,1C2.08,16.38,2.33,17.22,1.22,16.83Z" transform="translate(0)"/><path class="cls-1" d="M1.22,21.05C.32,21.24,0,21,0,20.05s.22-1.14,1.1-1.11,1.17.12,1.06,1C2.08,20.6,2.33,21.44,1.22,21.05Z" transform="translate(0)"/><path class="cls-1" d="M1.16,23.22c1-.26,1,.42,1,1.12.07.9-.35,1-1.08,1C.2,25.38,0,25.05,0,24.22S.33,23,1.16,23.22Z" transform="translate(0)"/><path class="cls-1" d="M1.14,27.43c1-.24,1,.38,1,1.11.08,1-.49,1-1.2,1-.91.07-.94-.38-1-1.09C0,27.56.28,27.25,1.14,27.43Z" transform="translate(0)"/><path class="cls-1" d="M1.14,33.72c-.87.19-1.14-.14-1.14-1s.27-1.1,1.12-1.09,1.1.16,1,1S2.13,34,1.14,33.72Z" transform="translate(0)"/></g></g></svg>