<svg id="Capa_1" data-name="Capa 1" xmlns="http://www.w3.org/2000/svg" viewBox="0 0 258.9 230.48"><defs><style>.cls-1{fill:#c7895e;}</style></defs><path class="cls-1" d="M134.43,24.27c31.28,1.58,59.9,18.19,76.33,52.12,16.25,33.56,12.1,66.16-9.68,96.41-4.27,5.94-5,5.86-10.16.68Q130.74,113.3,70.57,53.13c-4.63-4.64-4.59-5.37.47-9.37C87,31.18,107.42,24.2,134.43,24.27Zm32.4,116.23c8.83,8.82,17.52,17.31,26,26,2.4,2.48,3.56,2.4,5.5-.45,13.21-19.54,18-40.87,14.32-64.17C203,40.25,128,9.49,77.76,46.55c-2.4,1.78-2.24,2.72-.27,4.65Q92.9,66.33,108,81.74c1.92,2,3.09,1.82,5.08.24,12.22-9.77,24.57-19.38,36.81-29.12,3.1-2.46,6.3-3.61,10.05-1.81s4.84,5.06,4.82,9c-.08,9.5.05,19-.08,28.51,0,2.37.7,3.61,2.85,4.8,10.26,5.66,15.23,16.37,13.29,27.92C179.4,129.86,174.36,135.89,166.83,140.5Zm-9.27-9.27c.45-.73.7-.95.7-1.17q.06-35.19.07-70.38c0-1.1.06-2.31-1.21-2.88-1.44-.66-2.39.35-3.35,1.11-12.3,9.66-24.55,19.37-36.88,29-1.68,1.31-1.59,2.1-.16,3.52C130.29,103.89,143.79,117.44,157.56,131.23Zm7.4,2.88c6.76-4.51,10-10.22,9.93-17.74-.07-7.34-3.27-12.94-9.93-17.26Z"/><path class="cls-1" d="M133.42,208.93C74,208.75,31.7,163.18,35.72,109.75a90.64,90.64,0,0,1,19.9-50.68c3.24-4.08,4.37-4.16,7.94-.6Q124.78,119.67,186,180.9c3.54,3.54,3.46,4.71-.65,7.94C168.38,202.19,149.07,208.78,133.42,208.93Zm-22.85-93.36c0,6.73.23,13.38-.09,20-.19,4,.94,6.7,4.32,9.1,6.14,4.37,11.93,9.23,17.82,13.94,1.89,1.51,4.9,3,2.65,6-2.47,3.26-4.68.37-6.67-1.13-3.57-2.7-7.38-5.19-10.47-8.36-7.45-7.64-16.2-10.69-26.73-9.2a56.16,56.16,0,0,1-8.8,0c-8.78-.19-15.16-6.27-15.32-15-.18-9.64-.16-19.29,0-28.93C67.41,94.79,72,89.32,79,87.58c1.14-.28,2.31-.43,4-.74-7.39-7.39-14.45-14.33-21.37-21.4-2.11-2.15-2.79-.31-3.71,1-13.14,18.64-18.65,39.4-15.27,61.89,7.36,49,50.64,80.52,99.58,73a81.86,81.86,0,0,0,35.62-14.83c.91-.66,3.32-1.23,1.68-3-4.57-4.89-9.41-9.54-14.84-15,0,2.92.11,4.6,0,6.26-.52,7.05-7.64,10.5-13.46,6.44-2.87-2-5.52-4.28-8.26-6.44-1.61-1.26-2.49-2.82-1.16-4.68,1.48-2.06,3.31-1.66,5.08-.27,2.53,2,5,4,7.59,5.94,1.24.94,2.56,1.31,3.54-.35,1.51-2.57-.08-13.66-2.24-15.82q-20.9-20.91-41.81-41.79C113.14,117,112.54,115.77,110.57,115.57Zm-37.14,1.05c0,4.61-.12,9.22,0,13.83.17,5.43,3.52,8.92,8.94,9.1,6.41.21,12.84,0,19.27.09,2,0,2.71-.7,2.67-2.7-.1-4.75-.59-9.58.08-14.23,1.52-10.51-1.88-18.39-10.21-25-3.52-2.79-6.53-4.62-11.06-4.24-6.37.53-9.63,3.66-9.72,10.15C73.37,108,73.42,112.29,73.43,116.62Z"/><path class="cls-1" d="M228.91,116a100.11,100.11,0,0,0-24.17-65,18.94,18.94,0,0,1-1.82-2.3,3,3,0,0,1,.52-4.14c1.4-1.23,2.83-1,4.13.17a17.61,17.61,0,0,1,2,2.16c25.72,31.88,33,67.59,19.09,106.08s-42.16,61.86-82.48,69.26c-31.68,5.82-60.34-2.27-85.71-22.06-1.43-1.12-2.8-2.32-4.12-3.56s-1.89-2.83-.51-4.42,2.91-1.45,4.48-.33c.68.48,1.31,1,2,1.58a101.1,101.1,0,0,0,165.13-59.1A105,105,0,0,0,228.91,116Z"/><path class="cls-1" d="M26.79,116.65a100.64,100.64,0,0,0,22,62.87l.79,1c1.47,1.81,2.29,3.83.06,5.46-2,1.43-3.6.27-5-1.45A110,110,0,0,1,32.48,166c-34-65.52,7.2-145.64,80.27-155.72,30.26-4.18,57.63,3.46,81.82,22.21a16.18,16.18,0,0,1,2.53,2.19,2.91,2.91,0,0,1,.1,3.86,2.84,2.84,0,0,1-3.75.87,16.22,16.22,0,0,1-2.72-1.93C130.4-10,41.74,23.64,28.24,99.11A106.18,106.18,0,0,0,26.79,116.65Z"/></svg>