<svg xmlns="http://www.w3.org/2000/svg" viewBox="0 0 60.06 59.41"><defs><style>.cls-1{fill:#c8895e;stroke:#c8895e;stroke-miterlimit:10;stroke-width:0.5px;}</style></defs><g id="Capa_2" data-name="Capa 2"><g id="Capa_1-2" data-name="Capa 1"><path class="cls-1" d="M45.84,35.93A1.79,1.79,0,0,0,46,34.69c0-4.25,0-8.5,0-12.74,0-.77-.07-1.17-1-1.19-1.69,0-2.45-1-2.46-2.7,0-3.22,0-6.45,0-9.68,0-.81-.24-1-1-1q-16.78,0-33.58,0c-1.52,0-1.85.41-1.85,2.19V50.38c0,.41,0,.82,0,1.23s-.1.66-.54.68-.62-.31-.65-.71,0-.57,0-.86V9.54c0-2.53.87-3.39,3.37-3.39,11,0,22,0,33,0,1,0,1.51-.19,1.36-1.32a11.65,11.65,0,0,1,0-2.21A2.24,2.24,0,0,1,45,.27q5.88,0,11.77,0a2.18,2.18,0,0,1,2.35,2.27c.07,1.51,0,3,0,4.54,0,.42-.06.9-.59.91s-.62-.52-.62-1c0-1.31,0-2.62,0-3.92,0-1.12-.39-1.64-1.59-1.63-3.67.05-7.35,0-11,0-1,0-1.49.41-1.49,1.45,0,5.06,0,10.13,0,15.2a1.25,1.25,0,0,0,1.41,1.44H56.47c1.05,0,1.42-.57,1.41-1.56,0-2.28,0-4.57,0-6.86,0-.5-.15-1.23.64-1.19s.57.69.57,1.17c0,2.33,0,4.66,0,7,0,1.84-.87,2.67-2.75,2.68-2.65,0-5.31,0-8,0-.81,0-1.16.15-1.15,1.06,0,4.86,0,9.73,0,14.59a2.05,2.05,0,0,0,.49,1.32A8.87,8.87,0,0,1,49,47.1c-.43,1,.15,1.84,1.32,1.75a1.45,1.45,0,0,1,1.2.48c1.59,1.59,3.19,3.16,4.76,4.77.87.9.79,1.68-.11,2.67-.4.43-1.31.76-.34,1.58.28.23,0,.71-.46.77a8,8,0,0,1-1,0H4.47c-.36,0-.65-.13-.68-.54A.54.54,0,0,1,4.37,58c.86,0,.71-.39.61-1a10.65,10.65,0,0,1-.08-2c0-.39.17-.75.63-.74s.55.41.57.8c0,0,0,.08,0,.12.22,2.7.22,2.7,2.93,2.7H43.85c1.92,0,2.17-.26,2.18-2.2,0-1.27,0-2.54,0-3.8,0-.82-.26-1-1-.62-5.46,2.54-10.89.25-12.76-5.42-.28-.84-.77-.78-1.38-.78H10.13c-.43,0-.88-.08-.9-.6s.44-.61.87-.62H30.56A1.58,1.58,0,0,0,32,41.74c-.2-.47-.64-.25-1-.25-2.86,0-5.72,0-8.58,0H10.65a6.37,6.37,0,0,1-1,0,.53.53,0,0,1-.45-.5.55.55,0,0,1,.47-.62,5.76,5.76,0,0,1,1.1-.06H31.38a1.25,1.25,0,0,0,1.36-.69,8.87,8.87,0,0,1,12.58-3.91Zm-5,15.18a7.73,7.73,0,0,0,0-15.45,7.81,7.81,0,0,0-7.76,7.7A7.73,7.73,0,0,0,40.86,51.11Zm9.69-.88A16,16,0,0,0,48,52.72c0,.35.26.49.45.68.88.9,1.78,1.79,2.68,2.69,2.09,2.1,2.07,2.08,4.06-.08.47-.52.45-.84,0-1.31-1.38-1.34-2.72-2.71-4.08-4.06A5.07,5.07,0,0,0,50.55,50.23Zm.12,7.63-3.39-3.41A15,15,0,0,1,47,57.86ZM48.82,50c-.26-.37-.57-.94-.94-.82a1.86,1.86,0,0,0-1.05,1.06c-.1.29.41.87.85.81S48.48,50.37,48.82,50Z" transform="translate(0)"/><path class="cls-1" d="M26,34.05H10.85a8,8,0,0,1-1,0c-.34,0-.64-.2-.65-.6a.51.51,0,0,1,.53-.56c.75,0,.7-.5.69-1,0-.9,0-1.8,0-2.7,0-.73.31-1,1-1,1,0,2,0,2.94,0,.75,0,1,.31,1,1s0,1.63,0,2.45c0,.61-.13,1.22.87,1.21s.77-.62.77-1.16c0-2.53,0-5.06,0-7.59,0-1,.34-1.33,1.34-1.33,3.62,0,3.62,0,3.62,3.55,0,1.84,0,3.68,0,5.52,0,.58,0,1,.81,1s.86-.34.85-1c0-1.63,0-3.26,0-4.9,0-.85.31-1.18,1.15-1.15s1.8,0,2.7,0,1.14.37,1.12,1.19c0,1.63,0,3.27,0,4.9,0,.53,0,.94.74.94s.91-.27.9-.94c0-3.27,0-6.54,0-9.8,0-1,.28-1.53,1.38-1.44a16.47,16.47,0,0,0,2.33,0c1-.06,1.3.33,1.29,1.29,0,3.22,0,6.45,0,9.68,0,.5-.27,1.17.72,1.2s.85-.64.85-1.23c0-4.16,0-8.33,0-12.49,0-1.66,0-1.67,1.61-1.67,3.38,0,3.38,0,3.38,3.33q0,5.45,0,10.9c0,.55-.16,1.2.76,1.2a.47.47,0,0,1,.44.5.56.56,0,0,1-.5.6,6.7,6.7,0,0,1-1.1.07ZM38,25.78c0,2,.05,4.08,0,6.12,0,1.06.62.93,1.27.92s1.31.19,1.3-.9c0-4.12-.05-8.23,0-12.35,0-1.11-.66-.9-1.28-.89s-1.34-.26-1.3.87C38,21.62,38,23.7,38,25.78Zm-4,1.7c0-1.58,0-3.17,0-4.75,0-.92-.53-.88-1.1-.81s-1.42-.42-1.42.74q0,4.69,0,9.4c0,1.15.87.68,1.41.75S34,32.92,34,32C33.89,30.5,33.93,29,33.93,27.48Zm-13.19.95c0-1.19-.06-2.38,0-3.55s-.58-.9-1.18-.86-1.36-.36-1.33.81q.08,3.56,0,7.11c0,1,.56.92,1.18.87s1.39.32,1.33-.83S20.74,29.61,20.74,28.43ZM27.34,30c0-.69-.05-1.38,0-2.07.09-1-.61-.85-1.19-.83s-1.37-.29-1.32.84a29.63,29.63,0,0,1,0,3.65c-.06,1,.25,1.3,1.28,1.31s1.36-.33,1.24-1.32A11.89,11.89,0,0,1,27.34,30ZM14.19,31.11c-.18-.54.31-1.27-.32-1.66a1.43,1.43,0,0,0-2.2,1.31,3.11,3.11,0,0,1,0,.61c-.2,1.15.24,1.49,1.43,1.49C14.63,32.87,14,31.83,14.19,31.11Z" transform="translate(0)"/><path class="cls-1" d="M37.53,11.34c-.6-.11-.92-.18-1.24-.22s-.72-.24-.64-.7.44-.53.84-.51l.36.05c3.08.32,3.08.32,2.75,3.4-.05.49,0,1.11-.71,1.07s-.52-.7-.52-1.16v-1L34.9,14.9c-.39.29-.16.67-.17,1a2,2,0,0,1-2.89,2c-.15,0-.28-.19-.44-.21-.64-.09-3.91,2.77-3.94,3.42a2.09,2.09,0,1,1-4.17.09c-.09-.91-2.06-2.34-2.92-2.08a1.78,1.78,0,0,1-1.31.13c-1.76-.84-2.58.9-3.85,1.38-.28.1-.13.52-.18.79a2.11,2.11,0,0,1-2.67,1.83,2.09,2.09,0,0,1-1.43-2.6,2,2,0,0,1,2.83-1.29,1.22,1.22,0,0,0,1.33-.13c1.09-.74,2.46-1.09,2.57-2.86.06-.91,1.12-1.35,2.13-1.21a2,2,0,0,1,1.8,1.86,2.83,2.83,0,0,0,3.23,2.22c.12,0,.26-.12.36-.08,2.37.79,3.35-1.45,5-2.28.45-2.17,1.71-3,4-3.15C35.24,13.72,36.26,12.31,37.53,11.34Zm-4,4.67a.77.77,0,0,0-.88-.77.77.77,0,0,0-.79.88A.84.84,0,1,0,33.49,16ZM20.36,17.2a.83.83,0,0,0-.91-.75.76.76,0,0,0-.76.89.76.76,0,0,0,.87.79C20.08,18.09,20.33,17.74,20.36,17.2Zm-6.55,4.05c-.13-.46-.39-.82-.91-.78a.78.78,0,0,0-.79.88.74.74,0,0,0,.86.78C13.51,22.11,13.74,21.76,13.81,21.25Zm12.41.07c0-.53-.33-.86-.84-.86a.79.79,0,0,0-.83.85.75.75,0,0,0,.83.82A.79.79,0,0,0,26.22,21.32Z" transform="translate(0)"/><path class="cls-1" d="M50.91,2.71c1.43,0,2.86,0,4.28,0,1,0,1.3.36,1.27,1.29-.05,1.14,0,2.29,0,3.43,0,.72-.31,1-1,1q-4.59,0-9.18,0c-.74,0-1-.32-1-1,0-1.22,0-2.45,0-3.67,0-.74.29-1,1-1C47.81,2.73,49.36,2.71,50.91,2.71Zm0,1.23h-2.2c-2.4,0-2.37,0-2.29,2.42,0,.63.19.85.83.84,1.87,0,3.75,0,5.62,0,2.46,0,2.43,0,2.32-2.42,0-.64-.24-.85-.86-.83C53.23,4,52.09,3.94,51,3.94Z" transform="translate(0)"/><path class="cls-1" d="M17.66,48.62H10.32c-.48,0-1.11.1-1.08-.63s.58-.59,1-.59H24.84c.49,0,1.09,0,1.07.67s-.6.55-1,.55Z" transform="translate(0)"/><path class="cls-1" d="M47.38,18.35h-1a1.08,1.08,0,0,1-.48,0c-1.4-.81-.42-2.13-.65-3.19-.15-.69.37-.91,1-.87h.85c2.82,0,2.45-.36,2.54,2.58,0,1.2-.38,1.66-1.54,1.52A6.09,6.09,0,0,0,47.38,18.35Zm.06-1.24c.61.07,1,0,1-.8s-.48-.82-1.07-.85-.92.13-.92.86S46.85,17.18,47.44,17.11Z" transform="translate(0)"/><path class="cls-1" d="M52.07,16.15c0-2.29-.08-1.87,2.55-1.9,1.83,0,1.83,0,1.83,2.17,0,1.93,0,1.93-2.47,1.93C52.07,18.35,52.07,18.35,52.07,16.15Zm2.09-.66c-.65-.13-.88.13-.89.84s.46.78,1,.8.93-.19,1-.9S54.74,15.46,54.16,15.49Z" transform="translate(0)"/><path class="cls-1" d="M47.37,13.36c-2.13,0-2.13,0-2.13-2.1,0-1.95,0-2,2.14-1.95,2.35,0,2.27-.29,2.26,2.09C49.63,13.36,49.64,13.36,47.37,13.36Zm0-2.82c-.6-.1-.88.11-.88.84s.51.73,1,.76.94-.12.94-.86S47.91,10.54,47.33,10.54Z" transform="translate(0)"/><path class="cls-1" d="M54.29,13.36c-2.22,0-2.23,0-2.22-2,0-2.33-.2-2.06,2.24-2.07,2.13,0,2.13,0,2.14,2S56.45,13.36,54.29,13.36Zm0-2.81c-.59-.06-1,0-1,.78,0,.66.26.86.87.81s1.07.12,1.08-.74S54.94,10.45,54.29,10.55Z" transform="translate(0)"/><path class="cls-1" d="M58.47,59.15c-.51-.09-1.34.24-1.32-.61s.8-.62,1.34-.62,1.33-.18,1.32.63S59,59.05,58.47,59.15Z" transform="translate(0)"/><path class="cls-1" d="M1.33,59.14c-.54,0-1.1,0-1.08-.59s.6-.64,1.1-.64,1,0,1,.62S1.71,59.11,1.33,59.14Z" transform="translate(0)"/><path class="cls-1" d="M40.7,49.84a6.44,6.44,0,1,1,6.54-6.33A6.38,6.38,0,0,1,40.7,49.84ZM36,45.09a4.89,4.89,0,0,0,5.32,3.5,5.21,5.21,0,0,0,1.18-10.13,4.78,4.78,0,0,0-5.63,1.79h4.92c.49,0,1.13-.07,1.15.59s-.68.63-1.19.63c-1.59,0-3.18.09-4.77,0-1.34-.09-1.29.78-1.36,1.63-.09,1.07.72.76,1.26.77,1.72,0,3.43,0,5.14,0,.42,0,.91,0,.93.55s-.48.67-1,.68H36Z" transform="translate(0)"/></g></g></svg>