<svg xmlns="http://www.w3.org/2000/svg" viewBox="0 0 67.87 68.05"><defs><style>.cls-1{fill:#c8895e;stroke:#c8895e;stroke-miterlimit:10;stroke-width:0.25px;}</style></defs><g id="Capa_2" data-name="Capa 2"><g id="Capa_1-2" data-name="Capa 1"><path class="cls-1" d="M5,67.88c-1.14,0-2.29,0-3.43,0-.93,0-1.39-.38-1.39-1.34,0-2.33,0-4.67,0-7A2.1,2.1,0,0,1,.91,58L8.1,50.77c.39-.39.87-.7.62-1.44-.15-.43.25-.8.57-1.12.78-.77,1.55-1.56,2.33-2.33.19-.18.43-.49.61-.47,1.48.2,2.11-1,3-1.74.39-.34.93-.54,1.31-.13.77.82,1.18.21,1.67-.29,1.15-1.15,2.26-2.35,3.47-3.44a1.41,1.41,0,0,0,.26-2.13A24.63,24.63,0,0,1,23.46,9.91c.48-.63,1-1.82,2-1s0,1.56-.49,2.21a22.85,22.85,0,0,0-1.41,25.45c1.31,2.2,1.22,2.86-.62,4.7-1.18,1.18-2.34,2.39-3.56,3.53-.56.53-.7.88,0,1.45A26.54,26.54,0,0,1,21.8,48.7c.53.6.86.46,1.35-.05,1.18-1.25,2.41-2.44,3.63-3.65,1.78-1.78,2.48-1.87,4.6-.6a22.69,22.69,0,1,0-2-37.62c-.62.46-1.3,1-1.91.15s.16-1.35.77-1.79c7.6-5.4,15.84-6.54,24.38-2.93S66.4,12.53,67.52,21.85c1.21,10.08-2.52,18.26-11,23.77S39.16,51,30.38,46.09a1.5,1.5,0,0,0-2.23.31c-1.18,1.3-2.47,2.51-3.72,3.74-.34.34-.6.6-.13,1.07.64.64.38,1.26-.18,1.84a11.29,11.29,0,0,0-1.57,2.48c-.9,1.61-2,3.54-4.34,3.69-.46,0-.66.4-.92.67-2.26,2.23-4.53,4.44-6.71,6.73A3.48,3.48,0,0,1,7.46,67.9,23.33,23.33,0,0,0,5,67.88Zm.89-2c1.87.6,3.38-.55,4.83-2.16,1.64-1.84,3.45-3.52,5.21-5.25.43-.43.81-.75.21-1.38a.86.86,0,0,1,.14-1.29.93.93,0,0,1,1.32,0,6.75,6.75,0,0,1,.66.65c.74.84,1-.07,1.41-.4s1-.64.3-1.33q-3.36-3.27-6.63-6.63c-.76-.78-1-.05-1.43.32s-1.09.73-.28,1.43S13,51.3,13.74,52c.53.53,1.26,1.11.52,1.87s-1.42,0-2-.51a10.76,10.76,0,0,1-1.11-1.13c-.58-.75-1-.8-1.73,0A62.83,62.83,0,0,1,4.2,57.42a5.77,5.77,0,0,0-2.12,5.16C2.26,65.88,2.13,65.89,5.84,65.89ZM16,45.78c-.33.3-.63.54-.89.82s.09.63.3.85c1.69,1.71,3.42,3.4,5.1,5.12.45.47.75.56,1.26,0s.32-.85-.11-1.27c-1.69-1.66-3.35-3.34-5-5C16.45,46.15,16.25,46,16,45.78Z" transform="translate(0)"/><path class="cls-1" d="M62.29,24.9A19.21,19.21,0,1,1,43.05,5.73,19.17,19.17,0,0,1,62.29,24.9Zm-36.47,0A17.26,17.26,0,1,0,43.09,7.68,17.36,17.36,0,0,0,25.82,24.89Z" transform="translate(0)"/><path class="cls-1" d="M9,29.82c-.7.06-1.4.14-2.1.16a2.85,2.85,0,0,1-3-2.54,2.79,2.79,0,0,1,2.47-3.06c2-.21,3.95-.32,5.92-.34a2.79,2.79,0,0,1,.15,5.56c-1.13.13-2.28.19-3.42.28Zm.36-2V27.8c.88,0,1.75-.07,2.62-.12.54,0,1-.26.94-.87s-.47-.79-1-.76c-1.7.09-3.41.2-5.11.31-.57,0-.92.3-.86.9s.43.73.93.71C7.68,27.94,8.51,27.89,9.34,27.85Z" transform="translate(0)"/><path class="cls-1" d="M15.88,17.23a2.79,2.79,0,0,1-3.34,2.68c-1.88-.42-3.76-.9-5.61-1.46A2.71,2.71,0,0,1,5.08,15a2.74,2.74,0,0,1,3.4-1.93c1.79.43,3.58.88,5.35,1.4A2.74,2.74,0,0,1,15.88,17.23Zm-3.22.69c.7.07,1.08-.1,1.19-.62a.74.74,0,0,0-.57-.91Q10.61,15.67,7.92,15a.7.7,0,0,0-.9.57.74.74,0,0,0,.48,1C9.28,17.05,11.07,17.5,12.66,17.92Z" transform="translate(0)"/><path class="cls-1" d="M19.73,8.26a2.7,2.7,0,0,1-3.85,2.54,46.93,46.93,0,0,1-5.34-3.36A2.7,2.7,0,0,1,10,3.76a2.73,2.73,0,0,1,3.6-.93C15.34,3.84,17,5,18.7,6.08A2.43,2.43,0,0,1,19.73,8.26ZM12.4,4.49a.86.86,0,0,0-.84.63.83.83,0,0,0,.47,1l4.19,2.68c.48.31,1,.47,1.38-.1s0-1-.48-1.28L13,4.79A5,5,0,0,0,12.4,4.49Z" transform="translate(0)"/><path class="cls-1" d="M43.07,16c-2.66,4.61-5.22,9.06-7.81,13.51-.4.69-.12.81.53.8q7.26,0,14.53,0c.74,0,1-.17.54-.88a4,4,0,0,1-.44-.81,1,1,0,0,1,.36-1.27.85.85,0,0,1,1.27.26A24.2,24.2,0,0,1,54,30.94c.37.86-.23,1.31-1.1,1.32h-19c-1.82,0-2.12-.56-1.2-2.16l9.24-16c.86-1.49,1.55-1.49,2.41,0C46,17.06,47.72,20,49.44,23a4.09,4.09,0,0,1,.25.46C50,24,50,24.61,49.37,25s-1.09,0-1.41-.54L44.19,17.9C43.86,17.33,43.52,16.77,43.07,16Z" transform="translate(0)"/><path class="cls-1" d="M42.12,22.54c0-.4,0-.79,0-1.18,0-.61.32-1,.94-1a.91.91,0,0,1,1,1c0,.87,0,1.75,0,2.62a1,1,0,1,1-1.92,0C42.11,23.5,42.12,23,42.12,22.54Z" transform="translate(0)"/><path class="cls-1" d="M44,27.65a.89.89,0,0,1-1.06.87.85.85,0,0,1-.83-1,.87.87,0,0,1,1-.89C43.77,26.69,44,27.07,44,27.65Z" transform="translate(0)"/></g></g></svg>