<svg id="Capa_1" data-name="Capa 1" xmlns="http://www.w3.org/2000/svg" viewBox="0 0 258.9 230.48"><defs><style>.cls-1{fill:#c7895e;}</style></defs><path class="cls-1" d="M91.15,219.84c-.39-2.05-2.2-3-3.49-4.28Q55.46,183.27,23.19,151c-4.85-4.86-4.87-6.15-.13-10.9s9.26-9.2,13.83-13.86c2.71-2.77,5.28-2.87,7.93,0a22.33,22.33,0,0,0,1.82,1.82c3.09,2.67,5.51,8.1,9,7.73,3.25-.34,6.07-5.06,9-7.93,4.42-4.32,8.7-8.79,13.17-13.06a26.06,26.06,0,0,1,18.62-7.49q38.91,0,77.82,0c4.93,0,9.28,1.43,12.34,5.26,2.18,2.72,3.34,1.58,5.1-.23Q201.23,102.59,211,93c7.62-7.53,17-8,23.74-1.22s6.16,16.14-1.42,23.76C220.21,128.7,207,141.76,194,154.93a20,20,0,0,1-15.21,6.26c-13.74-.15-27.48,0-41.23-.08a21.14,21.14,0,0,0-16.12,6.7c-4.89,5.06-9.85,10.07-15,14.9-2.17,2-2.11,3.41,0,5.32,2.58,2.26,4.78,4.95,7.35,7.22,3.64,3.2,3.64,6,.13,9.46-5,4.92-10.38,9.45-14.57,15.13Zm44.2-104.12c-12.55,0-25.09,0-37.63,0a20.11,20.11,0,0,0-14.88,6c-6.21,6.18-12.34,12.45-18.63,18.54-1.95,1.89-2.5,3.13-.25,5.33Q79.8,161,95.31,176.87c2.15,2.19,3.41,1.86,5.33-.16,4.86-5.1,10-9.94,14.89-15a28.44,28.44,0,0,1,21.67-9c13.74.12,27.49,0,41.24.07a12.67,12.67,0,0,0,9.66-3.95c13-13,26-26,39-39,4.08-4.1,4.57-8.57,1.5-11.76-3.22-3.34-7.82-2.83-12.14,1.46-7.8,7.75-15.55,15.55-23.34,23.32a11.51,11.51,0,0,0-3,4.68c-2.51,7.54-7.75,11.38-15.8,11.61-5.66.16-11.34,0-17,0-7,0-14.09,0-21.13,0-2.9,0-5.16-1.16-5.08-4.49.08-3.08,2.32-3.94,5-4.06,1.37-.06,2.75,0,4.12,0,11,0,22,0,33,0,6,0,9.12-2.73,9.05-7.44s-3.29-7.3-9.24-7.32C160.43,115.68,147.89,115.72,135.35,115.72ZM41.23,134.93c-1.27.1-11,9.73-10.8,10.48a4.9,4.9,0,0,0,1.29,2.1C52.21,168,72.45,188.83,93.44,208.83c4.54,4.31,6.37-3.7,9.67-5.63,1.67-1,4.35-2.46,1.32-5.47C84,177.44,63.61,157,43.21,136.63,42.53,135.94,41.73,135.36,41.23,134.93Z"/><path class="cls-1" d="M128.59,95.43c-12.28-.28-21.45-5.3-26.94-15.77s-4.08-20.45,2.57-30.08c7.72-11.15,15.14-22.5,19.3-35.6.67-2.11,1.68-3.85,4.14-3.93,2.71-.1,3.91,1.66,4.64,4,4.13,13.11,11.61,24.43,19.3,35.6,6.51,9.45,7.85,19.35,2.71,29.62C149,89.9,139.87,94.91,128.59,95.43Zm-.7-68.66A293.52,293.52,0,0,1,110.19,56a19.29,19.29,0,0,0,3.12,25.24,21.7,21.7,0,0,0,27.86,1.14c7.69-6,10.41-16.71,5.27-24.84C140.15,47.6,133.67,37.75,127.89,26.77Z"/></svg>