<svg xmlns="http://www.w3.org/2000/svg" viewBox="0 0 72.64 70.26"><defs><style>.cls-1{fill:#c8895e;}</style></defs><g id="Capa_2" data-name="Capa 2"><g id="Capa_1-2" data-name="Capa 1"><path class="cls-1" d="M32.58,6.75C33,3,34.94,1.8,38.32,3.09c.31.12.55.21.83,0a1.87,1.87,0,0,1,.38-.24c1.42-.73,2.7.16,4,.24s2.61-1.09,4-.26a1.72,1.72,0,0,0,1.9,0,3.61,3.61,0,0,1,5.06,2.92c.07.52-.39,1.42.44,1.51s2,.39,2.9-.63A8.06,8.06,0,0,1,66.29,4a8.46,8.46,0,1,1-8.82,13.38,8.35,8.35,0,0,1-.58-.88,1.13,1.13,0,0,1,.33-1.6,1.08,1.08,0,0,1,1.6.22c.31.34.54.74.83,1.08a6,6,0,1,0,8.78-8.29c-2.41-2.4-6.51-2.46-8.61.2a4,4,0,0,1-4,1.66c-1-.13-1.45.19-1.36,1.3a27.33,27.33,0,0,1,0,3.62,3.56,3.56,0,0,1-5.19,3.14,1.48,1.48,0,0,0-1.76.06,4.39,4.39,0,0,1-.84.3c-1.36.65-2.43-1.17-3.82-.39a3.89,3.89,0,0,1-4-.16c3.08,3,2.16,6.78,2.24,10.34A1.08,1.08,0,0,1,40,29.05a1.15,1.15,0,0,1-1.21-1.26c0-1.41,0-2.82,0-4.24,0-3.12-1.53-4.91-4.6-5.33a1.45,1.45,0,0,1-1.46-1.69c0-1.57,0-3.13,0-4.69a3.55,3.55,0,0,0-1.38-2.9,1.34,1.34,0,0,0-1.54-.28,1.3,1.3,0,0,0-.69,1.25q0,3.78,0,7.56A2.75,2.75,0,0,0,29.63,19,27.32,27.32,0,0,1,34,37.37a73.3,73.3,0,0,0,0,7.56c0,.92-.23,1.69-1.28,1.65S31.47,45.8,31.47,45c0-3.07,0-6.14,0-9.58a10.06,10.06,0,0,0-2.36,6,11.63,11.63,0,0,0,5.51,11.22c4,2.58,8.25,2.59,12.5.39a2.17,2.17,0,0,0,1.32-2.24c-.05-7.26,0-14.53,0-21.79a3.11,3.11,0,0,1,1-2.55A8.21,8.21,0,0,0,52,20.93c.08-.86.37-1.56,1.32-1.48s1.21.92,1.11,1.8a11,11,0,0,1-2.86,6.37,3.8,3.8,0,0,0,0,4.74A14.53,14.53,0,0,1,55,37.88c.28.84.35,1.68-.66,2s-1.35-.36-1.63-1.15A9.1,9.1,0,0,0,51,35.52V49.39A10.94,10.94,0,0,0,53,44.67c.22-.94,0-2.49,1.6-2.18s.95,1.64.78,2.63a14.5,14.5,0,1,1-25.13-12.3,5,5,0,0,0,.7-5.64l-3.65-7.3a5.36,5.36,0,0,0-.54-1.07c-.45-.54.38-1.66-.63-1.77a24.79,24.79,0,0,0-4.22,0c-.35,0-.34.56-.44.89a8.47,8.47,0,0,1-8.44,6.28c-1.56,0-3.12,0-4.69,0a8.51,8.51,0,0,1-8.3-7.37c-.26-1.79.17-2.31,2-2.31,3,0,6,0,8.92,0,1,0,1.22-.27,1.18-1.19-.07-1.51,0-3,0-4.54,0-.87.31-1.54,1.27-1.51s1.16.66,1.16,1.47q0,3.33,0,6.66c0,1.2-.69,1.53-1.76,1.52-3,0-6,.05-8.93,0-1.34,0-1.29.5-.82,1.41A5.93,5.93,0,0,0,8.34,21.8c1.66.07,3.32.05,5,0a5.93,5.93,0,0,0,6-5.48c.14-1.38.72-1.84,2-1.79s2.82,0,4.23,0c.89,0,1.08-.29,1.1-1.12.07-3.73.1-3.73-3.62-3.73h-.6c-2.63,0-2.63,0-3.21-2.47a6,6,0,0,0-5.85-4.78c-1.66,0-3.33-.06-5,0A5.92,5.92,0,0,0,2.93,6.14c-.36.78-.33,1.21.72,1.17,1.51-.06,3,0,4.53,0,.81,0,1.45.3,1.47,1.17S9,9.73,8.14,9.73c-2.12,0-4.24,0-6.35,0C.31,9.7-.08,9.25,0,7.77A8.48,8.48,0,0,1,8,.06C9.92,0,11.84,0,13.76.06a8.28,8.28,0,0,1,7.66,6.05c.28,1,.71,1.27,1.65,1.2A27.67,27.67,0,0,1,26,7.3a3.82,3.82,0,0,0,2.53-.68C29.76,5.71,31.17,6,32.58,6.75Zm2.54,3.38c0,1.35,0,2.71,0,4.06,0,.87.28,1.55,1.23,1.53s1.18-.63,1.18-1.44c0-2.66,0-5.32,0-8,0-.82-.37-1.41-1.23-1.38s-1.18.63-1.17,1.44Zm4.84,0c0,1.35,0,2.7,0,4.06,0,.8.28,1.44,1.13,1.48s1.28-.62,1.28-1.49c0-2.6,0-5.21,0-7.82,0-.8-.28-1.44-1.13-1.48S40,5.54,40,6.41Zm7.25.06V6.32c0-.81-.36-1.4-1.22-1.39s-1.19.61-1.19,1.42v8c0,.82.36,1.41,1.22,1.4s1.19-.61,1.19-1.42Zm4.84.11V6.43c0-.86-.3-1.53-1.26-1.5s-1.15.66-1.15,1.46q0,3.92,0,7.82c0,.87.31,1.54,1.26,1.51s1.16-.66,1.15-1.46Z" transform="translate(0 0)"/><path class="cls-1" d="M18.27,58.55c-2,2.92-4.09,3.78-6.44,2.91a4.79,4.79,0,0,1-3.09-5.15,4.84,4.84,0,0,1,4.16-4.18c2.47-.34,4.36,1.07,5.59,4.3.83-.8,1.59-1.56,2.37-2.3.43-.4.09-.73-.06-1.07a17.49,17.49,0,0,1-1.23-2.91c-.34-1.47-1.12-1.78-2.54-1.73-3.92.13-3.74.31-3.71-3.61,0-2.27,0-4.54,0-6.81,0-1.13.51-1.83,1.63-1.63,3,.53,4.59-.52,5.45-3.54.44-1.51.5-2.29-.68-3.38-2.58-2.38-2.51-2.46,0-5l3.74-3.75c.6-.61,1.29-1.15,2.07-.41s.26,1.54-.38,2.18C23.9,23.73,22.68,25,21.4,26.22c-.64.59-.59,1,0,1.57C24,30.5,24,30.51,22.43,34a22.35,22.35,0,0,0-1.19,3.42,1.55,1.55,0,0,1-1.83,1.37h-.15c-1.13.1-2.68-.53-3.3.28s-.22,2.22-.2,3.37-.49,2.62.22,3.35,2.2.23,3.34.23a1.66,1.66,0,0,1,1.93,1.44,17.15,17.15,0,0,0,2.25,5.41,1.67,1.67,0,0,1-.3,2.4c-.82.8-2.23,1.52-2.22,2.52s1.45,1.79,2.3,2.64,1.5,2.25,2.53,2.16c.85-.06,1.66-1.32,2.41-2.13a1.71,1.71,0,0,1,2.5-.37A16.67,16.67,0,0,0,36,62.28a1.71,1.71,0,0,1,1.55,2c0,1.1-.37,2.49.17,3.23s2.06.23,3.14.29c.8.06,1.45.31,1.48,1.17s-.64,1.28-1.51,1.28H36.59a1.32,1.32,0,0,1-1.48-1.49c0-1.35.41-3-.23-4s-2.44-1-3.58-1.66-2-.62-2.77.47a18.28,18.28,0,0,1-1.69,1.72c-.52.53-1.19.8-1.75.3-.76-.67-1-.34-1.41.33-1,1.68-1.23,1.72-3,.73s-2.29-.59-2.32,1.43-.29,2.15-2.22,2.16-3.83,0-5.74,0c-1.22,0-1.79-.48-1.74-1.71a9.19,9.19,0,0,0,0-1c-.08-1.18-.88-1.61-1.94-1.07C4.34,67.67,4.35,67.67,3,65.31c-.85-1.48-1.69-3-2.58-4.44a1.45,1.45,0,0,1,.65-2.35c.31-.16.62-.33.92-.52,1-.64,1-1.48,0-2.12-2.32-1.61-2.32-1.61-.93-4,.78-1.35,1.6-2.68,2.32-4.07s1.44-1.5,2.69-.78c2.07,1.21,2.58.89,2.62-1.49,0-.9,0-1.88,1.22-1.85s1.21,1,1.22,1.89v1.21a3.42,3.42,0,0,1-5,3.07c-.67-.34-1-.25-1.28.38A9,9,0,0,1,4,51.65c-.83,1.17-1.35,2.09.51,3,1.28.6.9,4.28-.45,5-1.07.55-1.14,1.08-.46,1.94a4.51,4.51,0,0,1,.61,1c.59,1.31,1.25,2.33,2.78,1a.85.85,0,0,1,1-.09c.87.49,1.76,1,2.61,1.51a1.29,1.29,0,0,1,.53,1.34c-.2,1.29.34,1.73,1.58,1.54a4,4,0,0,1,1.2,0c1.39.18,2.42,0,2.09-1.81a1.23,1.23,0,0,1,.24-.84A4.59,4.59,0,0,1,21,64c.28.13.59.54.9.11s.83-.85.2-1.42a5.39,5.39,0,0,1-.53-.54Zm-4.79.79a2.41,2.41,0,1,0,.08-4.82,2.41,2.41,0,0,0-.08,4.82Z" transform="translate(0 0)"/><path class="cls-1" d="M44.8,66.34c0-3.44,0-3.44,3.17-4.55a17,17,0,0,0,3.68-1.73,1.61,1.61,0,0,1,2.29.21c.85.84,1.57,2.35,2.62,2.31s1.86-1.54,2.75-2.41c2.37-2.32,2.39-2.37,0-4.73a1.88,1.88,0,0,1-.37-2.76,15.33,15.33,0,0,0,2.12-5.14,1.74,1.74,0,0,1,2-1.53c3.51,0,3.53,0,3.5-3.49,0-1.2.51-2.71-.23-3.5s-2.19-.23-3.33-.23a1.66,1.66,0,0,1-1.93-1.44,17.54,17.54,0,0,0-2.25-5.42,1.64,1.64,0,0,1,.31-2.39C60,28.74,61.37,28,61.35,27s-1.49-1.77-2.3-2.65-1.5-1.49-2.23-2.26a1.15,1.15,0,0,1-.12-1.74,1.18,1.18,0,0,1,1.86.06c1.87,1.84,3.73,3.7,5.57,5.56A1.35,1.35,0,0,1,64,28.11c-1,1-2.41,1.85-2.65,3s1,2.32,1.37,3.57c.37,1.46,1.13,1.77,2.54,1.72C69.22,36.25,69,36.08,69,40c0,2.22,0,4.44,0,6.66,0,1.28-.53,2-1.79,1.77-2.9-.54-4.33.57-5.25,3.41-.54,1.67-.45,2.5.78,3.63,2.45,2.27,2.39,2.34.06,4.66-1.64,1.64-3.3,3.26-4.91,4.93-.94,1-1.86,1.09-2.65,0-1.64-2.29-3.34-2.7-6-1.27-1.55.85-2.38,1.45-2.08,3.23a9.16,9.16,0,0,1,0,2,1.21,1.21,0,1,1-2.41,0C44.78,68.06,44.8,67.2,44.8,66.34Z" transform="translate(0 0)"/><path class="cls-1" d="M64.1,15.77a3.63,3.63,0,0,1-.56-7.21c.82-.14,1.58,0,1.78.93S65,10.8,64.16,10.93s-1.22.53-1.17,1.31a1.09,1.09,0,0,0,1.08,1.07c.78,0,1.18-.43,1.3-1.17S66,10.81,66.82,11s1.06.95.93,1.78A3.69,3.69,0,0,1,64.1,15.77Z" transform="translate(0 0)"/></g></g></svg>