<svg xmlns="http://www.w3.org/2000/svg" xmlns:xlink="http://www.w3.org/1999/xlink" viewBox="0 0 1219.92 620.51"><defs><style>.cls-1{isolation:isolate;}.cls-2{fill:url(#Degradado_sin_nombre_107);}.cls-10,.cls-13,.cls-14,.cls-15,.cls-3,.cls-4,.cls-5,.cls-8,.cls-9{mix-blend-mode:multiply;}.cls-3{fill:url(#radial-gradient);}.cls-4{fill:url(#radial-gradient-2);}.cls-5{fill:url(#radial-gradient-3);}.cls-6{fill:url(#radial-gradient-4);}.cls-7{fill:url(#radial-gradient-5);}.cls-8{fill:url(#radial-gradient-6);}.cls-9{fill:url(#radial-gradient-7);}.cls-10{fill:url(#radial-gradient-8);}.cls-11{fill:url(#radial-gradient-9);}.cls-12{fill:url(#radial-gradient-10);}.cls-13{fill:url(#radial-gradient-11);}.cls-14{fill:url(#radial-gradient-12);}.cls-15{fill:url(#radial-gradient-13);}.cls-16{fill:url(#radial-gradient-14);}.cls-17{fill:url(#radial-gradient-15);}.cls-18{fill:#9e986f;}.cls-19{fill:#6c2910;}</style><linearGradient id="Degradado_sin_nombre_107" x1="23.46" y1="311.22" x2="1116.13" y2="326.03" gradientUnits="userSpaceOnUse"><stop offset="0" stop-color="#fccd74"/><stop offset="0.53" stop-color="#c8895e"/><stop offset="0.68" stop-color="#a66641"/><stop offset="0.89" stop-color="#7c3a1e"/><stop offset="1" stop-color="#6c2910"/></linearGradient><radialGradient id="radial-gradient" cx="335.13" cy="392.77" r="232.9" gradientTransform="translate(375.89 -121.93) rotate(45)" gradientUnits="userSpaceOnUse"><stop offset="0" stop-color="#666"/><stop offset="0" stop-color="#666"/><stop offset="0.11" stop-color="#8f8f8f"/><stop offset="0.22" stop-color="#b1b1b1"/><stop offset="0.34" stop-color="#cecece"/><stop offset="0.47" stop-color="#e3e3e3"/><stop offset="0.61" stop-color="#f3f3f3"/><stop offset="0.77" stop-color="#fcfcfc"/><stop offset="1" stop-color="#fff"/></radialGradient><radialGradient id="radial-gradient-2" cx="386.09" cy="351.03" r="232.9" gradientTransform="translate(361.3 -170.19) rotate(45)" xlink:href="#radial-gradient"/><radialGradient id="radial-gradient-3" cx="335.13" cy="367.37" r="232.9" gradientTransform="matrix(1, 0, 0, 1, 0, 0)" xlink:href="#radial-gradient"/><radialGradient id="radial-gradient-4" cx="286.55" cy="204.01" r="343.06" gradientUnits="userSpaceOnUse"><stop offset="0" stop-color="#fff"/><stop offset="1" stop-color="#b3b3b3"/></radialGradient><radialGradient id="radial-gradient-5" cx="467.54" cy="465.99" r="469.63" gradientUnits="userSpaceOnUse"><stop offset="0" stop-color="#fff"/><stop offset="1" stop-color="#e5e5e5"/></radialGradient><radialGradient id="radial-gradient-6" cx="631.75" cy="392.77" r="232.9" gradientTransform="translate(462.77 -331.68) rotate(45)" xlink:href="#radial-gradient"/><radialGradient id="radial-gradient-7" cx="682.71" cy="351.03" r="232.9" gradientTransform="translate(448.18 -379.94) rotate(45)" xlink:href="#radial-gradient"/><radialGradient id="radial-gradient-8" cx="631.75" cy="367.37" r="232.9" gradientTransform="matrix(1, 0, 0, 1, 0, 0)" xlink:href="#radial-gradient"/><radialGradient id="radial-gradient-9" cx="583.17" cy="204.01" r="343.06" xlink:href="#radial-gradient-4"/><radialGradient id="radial-gradient-10" cx="764.16" cy="465.99" r="469.63" xlink:href="#radial-gradient-5"/><radialGradient id="radial-gradient-11" cx="931.44" cy="392.77" r="232.9" gradientTransform="translate(550.55 -543.59) rotate(45)" xlink:href="#radial-gradient"/><radialGradient id="radial-gradient-12" cx="982.4" cy="351.03" r="232.9" gradientTransform="translate(535.96 -591.85) rotate(45)" xlink:href="#radial-gradient"/><radialGradient id="radial-gradient-13" cx="931.44" cy="367.37" r="232.9" gradientTransform="matrix(1, 0, 0, 1, 0, 0)" xlink:href="#radial-gradient"/><radialGradient id="radial-gradient-14" cx="882.86" cy="204.01" r="343.06" xlink:href="#radial-gradient-4"/><radialGradient id="radial-gradient-15" cx="1063.85" cy="465.99" r="469.63" xlink:href="#radial-gradient-5"/></defs><g class="cls-1"><g id="Capa_2" data-name="Capa 2"><g id="Capa_1-2" data-name="Capa 1"><path class="cls-2" d="M1219.92,173.93a27.85,27.85,0,0,1-22.83,27.24C1141.3,211.87,1099,261,1099,319.87c0,97.23-79.09,176.31-176.32,176.31-.55,0-1.15,0-1.7-.09s-1.16.09-1.76.09C822.05,496.18,743,417.1,743,319.87,743,253.21,688.72,199,622.05,199s-120.91,54.2-120.91,120.86c0,97.23-79.08,176.31-176.26,176.31S148.57,417.1,148.57,319.87A121,121,0,0,0,27.7,199,27.71,27.71,0,0,1,.22,167.75c1.78-14.26,14.61-24.26,29-24.14C125.69,144.42,204,223.19,204,319.87a120.89,120.89,0,1,0,241.77,0c0-97.18,79.13-176.26,176.31-176.26s176.32,79.08,176.32,176.26c0,66.67,54.24,120.91,120.86,120.91.6,0,1.2.05,1.76.1s1.15-.1,1.7-.1a121.06,121.06,0,0,0,120.92-120.91c0-86,61.94-157.83,143.58-173.22a27.71,27.71,0,0,1,32.73,27.28Z" transform="translate(0 -5.17)"/><circle class="cls-3" cx="335.13" cy="392.77" r="232.9" transform="translate(-179.58 346.85) rotate(-45)"/><circle class="cls-4" cx="386.09" cy="351.03" r="232.9" transform="translate(-135.13 370.66) rotate(-45)"/><circle class="cls-5" cx="335.13" cy="367.37" r="232.9"/><circle class="cls-6" cx="329.33" cy="315.17" r="133.09"/><circle class="cls-7" cx="329.33" cy="315.17" r="127.52"/><circle class="cls-8" cx="631.75" cy="392.77" r="232.9" transform="translate(-92.7 556.59) rotate(-45)"/><circle class="cls-9" cx="682.71" cy="351.03" r="232.9" transform="translate(-48.26 580.4) rotate(-45)"/><circle class="cls-10" cx="631.75" cy="367.37" r="232.9"/><circle class="cls-11" cx="625.95" cy="315.17" r="133.09"/><circle class="cls-12" cx="625.95" cy="315.17" r="127.52"/><circle class="cls-13" cx="931.44" cy="392.77" r="232.9" transform="translate(-4.92 768.5) rotate(-45)"/><circle class="cls-14" cx="982.4" cy="351.03" r="232.9" transform="translate(39.52 792.31) rotate(-45)"/><circle class="cls-15" cx="931.44" cy="367.37" r="232.9"/><circle class="cls-16" cx="925.64" cy="315.17" r="133.09"/><circle class="cls-17" cx="925.64" cy="315.17" r="127.52"/><path class="cls-18" d="M334.84,286v79.58H320.4V302.88l-19.14,6.32V297.54L333.21,286Z" transform="translate(0 -5.17)"/><path class="cls-18" d="M649.79,354.28v11.34H596.05v-9.71l25.78-27.85a88.71,88.71,0,0,0,6.38-8,27.75,27.75,0,0,0,3.35-6.13,15.33,15.33,0,0,0,1-5.26,14.78,14.78,0,0,0-1.31-6.4,9.81,9.81,0,0,0-3.79-4.28,11.35,11.35,0,0,0-6.07-1.53,12.15,12.15,0,0,0-6.79,1.83,11.48,11.48,0,0,0-4.25,5,17.87,17.87,0,0,0-1.45,7.36H594.47a25.71,25.71,0,0,1,3.27-12.84,24.42,24.42,0,0,1,9.38-9.29,28.68,28.68,0,0,1,14.49-3.49,32,32,0,0,1,13.85,2.7,19.36,19.36,0,0,1,8.61,7.66A22.76,22.76,0,0,1,647,307.29a23.23,23.23,0,0,1-1.25,7.53,35.79,35.79,0,0,1-3.51,7.33,65.21,65.21,0,0,1-5.37,7.33q-3.11,3.7-6.93,7.58l-15.48,17.22Z" transform="translate(0 -5.17)"/><path class="cls-18" d="M915.23,330.68V323h10.41a38.77,38.77,0,0,1,11.64,1.56,22.54,22.54,0,0,1,8.15,4.36,17.57,17.57,0,0,1,4.76,6.51,20.29,20.29,0,0,1,1.56,8,22.69,22.69,0,0,1-2.07,9.89,20.76,20.76,0,0,1-5.81,7.33,26,26,0,0,1-8.75,4.55,36.32,36.32,0,0,1-10.84,1.56,35.24,35.24,0,0,1-9.84-1.39,27.39,27.39,0,0,1-8.59-4.2A20.36,20.36,0,0,1,899.8,354a21.14,21.14,0,0,1-2.23-9.94H912a10.76,10.76,0,0,0,1.61,5.83,11,11,0,0,0,4.47,4,14.17,14.17,0,0,0,6.46,1.44,15.07,15.07,0,0,0,6.84-1.44,10.24,10.24,0,0,0,4.39-4.15,13,13,0,0,0,1.52-6.46,13.73,13.73,0,0,0-1.69-7.24,9.89,9.89,0,0,0-4.82-4.09,19.11,19.11,0,0,0-7.44-1.31Zm0-11.12h8.12a15,15,0,0,0,7.11-1.5,9.87,9.87,0,0,0,4.2-4.14,13,13,0,0,0,1.39-6.13,13.4,13.4,0,0,0-1.25-6,8.93,8.93,0,0,0-3.79-3.93,14.86,14.86,0,0,0-12.27-.13,10.08,10.08,0,0,0-4.19,3.57,9.66,9.66,0,0,0-1.56,5.53H898.55A19.19,19.19,0,0,1,902,295.55a23.12,23.12,0,0,1,9.24-7.66,29.9,29.9,0,0,1,13-2.78A34.07,34.07,0,0,1,938,287.7a20.66,20.66,0,0,1,9.21,7.6,22.24,22.24,0,0,1,3.29,12.43,16.35,16.35,0,0,1-1.66,7.06,19.51,19.51,0,0,1-4.85,6.32,24.78,24.78,0,0,1-7.79,4.53,30.2,30.2,0,0,1-10.55,1.71H915.23Z" transform="translate(0 -5.17)"/><path class="cls-18" d="M198,30.23h7.75a12.76,12.76,0,0,1-1.95,6.32,11.87,11.87,0,0,1-4.87,4.28,16.41,16.41,0,0,1-7.39,1.55,15.25,15.25,0,0,1-6.12-1.17,12.7,12.7,0,0,1-4.58-3.36A15.05,15.05,0,0,1,178,32.56a22.92,22.92,0,0,1-1-7V23.44a22.12,22.12,0,0,1,1-7,15.2,15.2,0,0,1,2.94-5.31,12.67,12.67,0,0,1,4.59-3.37,14.8,14.8,0,0,1,6-1.17A16,16,0,0,1,199,8.18a11.82,11.82,0,0,1,4.75,4.4,15,15,0,0,1,2,6.38H198a9,9,0,0,0-.76-3.43,4.48,4.48,0,0,0-2.06-2.11,8,8,0,0,0-3.68-.72,6.58,6.58,0,0,0-2.93.62,5.14,5.14,0,0,0-2.08,1.94,9.9,9.9,0,0,0-1.23,3.33,24.75,24.75,0,0,0-.41,4.8v2.18a27.19,27.19,0,0,0,.36,4.75,9.78,9.78,0,0,0,1.16,3.33,5.05,5.05,0,0,0,2.07,2,6.71,6.71,0,0,0,3.08.65A8,8,0,0,0,195,35.6a4.69,4.69,0,0,0,2.13-2A7.94,7.94,0,0,0,198,30.23Z" transform="translate(0 -5.17)"/><path class="cls-18" d="M208.6,29.22v-.5a16.42,16.42,0,0,1,.81-5.25,11.94,11.94,0,0,1,2.39-4.17,10.9,10.9,0,0,1,3.88-2.76,13.16,13.16,0,0,1,5.26-1,13.39,13.39,0,0,1,5.32,1,10.93,10.93,0,0,1,3.89,2.76,11.94,11.94,0,0,1,2.39,4.17,16.42,16.42,0,0,1,.81,5.25v.5a16.25,16.25,0,0,1-.81,5.23,12,12,0,0,1-2.39,4.18,10.88,10.88,0,0,1-3.88,2.77,13.4,13.4,0,0,1-5.28,1,13.56,13.56,0,0,1-5.29-1,10.7,10.7,0,0,1-3.9-2.77,12,12,0,0,1-2.39-4.18A16.25,16.25,0,0,1,208.6,29.22Zm7.48-.5v.5a15.23,15.23,0,0,0,.26,2.87,7.32,7.32,0,0,0,.82,2.35A4.14,4.14,0,0,0,218.68,36a4.4,4.4,0,0,0,2.31.57,4.32,4.32,0,0,0,2.29-.57,4.19,4.19,0,0,0,1.51-1.56,7.32,7.32,0,0,0,.82-2.35,15.26,15.26,0,0,0,.25-2.87v-.5a15,15,0,0,0-.25-2.83,7.65,7.65,0,0,0-.82-2.36,4.26,4.26,0,0,0-1.52-1.6,4.45,4.45,0,0,0-2.33-.57,4,4,0,0,0-3.78,2.17,7.65,7.65,0,0,0-.82,2.36A15,15,0,0,0,216.08,28.72Z" transform="translate(0 -5.17)"/><path class="cls-18" d="M236.2,29.22v-.5a16.42,16.42,0,0,1,.81-5.25,11.94,11.94,0,0,1,2.39-4.17,10.86,10.86,0,0,1,3.87-2.76,13.24,13.24,0,0,1,5.27-1,13.39,13.39,0,0,1,5.32,1,10.81,10.81,0,0,1,3.88,2.76,11.79,11.79,0,0,1,2.39,4.17,16.14,16.14,0,0,1,.82,5.25v.5a16,16,0,0,1-.82,5.23,11.83,11.83,0,0,1-2.39,4.18,10.76,10.76,0,0,1-3.87,2.77,14.74,14.74,0,0,1-10.57,0,10.7,10.7,0,0,1-3.9-2.77A12,12,0,0,1,237,34.45,16.25,16.25,0,0,1,236.2,29.22Zm7.48-.5v.5a15.26,15.26,0,0,0,.25,2.87,7.33,7.33,0,0,0,.83,2.35A4.14,4.14,0,0,0,246.28,36a4.93,4.93,0,0,0,4.6,0,4.27,4.27,0,0,0,1.51-1.56,7.57,7.57,0,0,0,.82-2.35,15.26,15.26,0,0,0,.25-2.87v-.5a15,15,0,0,0-.25-2.83,7.92,7.92,0,0,0-.82-2.36,4.34,4.34,0,0,0-1.52-1.6,4.45,4.45,0,0,0-2.33-.57,4,4,0,0,0-3.78,2.17,7.66,7.66,0,0,0-.83,2.36A15,15,0,0,0,243.68,28.72Z" transform="translate(0 -5.17)"/><path class="cls-18" d="M272.36,22.05V41.9h-7.47V16h7Zm7.72-6.22-.12,7c-.32-.05-.73-.09-1.24-.13s-1-.06-1.32-.06a7.82,7.82,0,0,0-2.47.35,4.47,4.47,0,0,0-1.73,1,4.17,4.17,0,0,0-1,1.66,7,7,0,0,0-.34,2.29l-1.41-.69a20.7,20.7,0,0,1,.5-4.69,12.77,12.77,0,0,1,1.46-3.7,7.18,7.18,0,0,1,2.35-2.42,5.78,5.78,0,0,1,3.15-.87,9.48,9.48,0,0,1,1.18.08A5.43,5.43,0,0,1,280.08,15.83Z" transform="translate(0 -5.17)"/><path class="cls-18" d="M281.61,29.27v-.5a20.46,20.46,0,0,1,.66-5.37,12.5,12.5,0,0,1,1.94-4.18,8.69,8.69,0,0,1,3.16-2.72,9.45,9.45,0,0,1,4.33-1,7.6,7.6,0,0,1,3.93,1,8.84,8.84,0,0,1,2.85,2.77,16.21,16.21,0,0,1,1.93,4.19,32.38,32.38,0,0,1,1.12,5.2v.86a28.83,28.83,0,0,1-1.11,5,16.16,16.16,0,0,1-1.94,4.07,8.73,8.73,0,0,1-2.87,2.75,7.55,7.55,0,0,1-3.95,1,9.23,9.23,0,0,1-4.32-1,9,9,0,0,1-3.15-2.75,13.17,13.17,0,0,1-1.92-4.16A19.63,19.63,0,0,1,281.61,29.27Zm7.46-.5v.5a17,17,0,0,0,.23,2.85,7.81,7.81,0,0,0,.75,2.32A4.06,4.06,0,0,0,291.44,36a3.72,3.72,0,0,0,2.1.57,4.55,4.55,0,0,0,2.75-.78,4.76,4.76,0,0,0,1.63-2.17,9,9,0,0,0,.58-3.22V27.88a11.1,11.1,0,0,0-.32-2.75,5.77,5.77,0,0,0-.92-2.05,4,4,0,0,0-1.51-1.28,4.84,4.84,0,0,0-2.16-.44,3.7,3.7,0,0,0-2.08.56,4.25,4.25,0,0,0-1.4,1.56,8.18,8.18,0,0,0-.79,2.36A16.75,16.75,0,0,0,289.07,28.77Zm8.66,7.34V5.17h7.51V41.9H298.5Z" transform="translate(0 -5.17)"/><path class="cls-18" d="M310.14,9.33a3.42,3.42,0,0,1,1.15-2.67,4.32,4.32,0,0,1,3-1,4.39,4.39,0,0,1,3,1,3.42,3.42,0,0,1,1.16,2.67A3.39,3.39,0,0,1,317.33,12a4.39,4.39,0,0,1-3,1,4.32,4.32,0,0,1-3-1A3.38,3.38,0,0,1,310.14,9.33ZM318.08,16V41.9h-7.49V16Z" transform="translate(0 -5.17)"/><path class="cls-18" d="M330.76,21.55V41.9h-7.49V16h7Zm-1,6.5-1.87.05a17.7,17.7,0,0,1,.72-5.24,11.81,11.81,0,0,1,2-3.95,8.82,8.82,0,0,1,3.18-2.5,9.57,9.57,0,0,1,4.1-.87,10.07,10.07,0,0,1,3.33.53,6.31,6.31,0,0,1,2.59,1.69,7.6,7.6,0,0,1,1.67,3.06,16.46,16.46,0,0,1,.57,4.67V41.9H338.6V25.47a5.66,5.66,0,0,0-.45-2.51,2.61,2.61,0,0,0-1.33-1.25,5.77,5.77,0,0,0-2.12-.35,4.67,4.67,0,0,0-2.25.51,4.33,4.33,0,0,0-1.53,1.42,6.36,6.36,0,0,0-.87,2.13A12.2,12.2,0,0,0,329.78,28.05Z" transform="translate(0 -5.17)"/><path class="cls-18" d="M365.62,26.12l.05,4.11H362a6.45,6.45,0,0,0-2.14.31,3.87,3.87,0,0,0-1.45.85,3.12,3.12,0,0,0-.8,1.24,4.52,4.52,0,0,0-.25,1.54,2.67,2.67,0,0,0,1.43,2.42,3.27,3.27,0,0,0,1.56.36,5.09,5.09,0,0,0,2.49-.57,4.68,4.68,0,0,0,1.62-1.4,2.78,2.78,0,0,0,.57-1.55l1.8,3.11a17.56,17.56,0,0,1-1.06,2,8.87,8.87,0,0,1-1.57,1.88,7.65,7.65,0,0,1-2.31,1.43,8.71,8.71,0,0,1-3.24.55,9.68,9.68,0,0,1-4.43-1A8.18,8.18,0,0,1,351,38.65a7.09,7.09,0,0,1-1.18-4,8.43,8.43,0,0,1,.74-3.61,7,7,0,0,1,2.24-2.68,10.48,10.48,0,0,1,3.77-1.66,21.93,21.93,0,0,1,5.3-.56Zm-.93,9.61V24.63a5.08,5.08,0,0,0-.36-2,2.86,2.86,0,0,0-1.12-1.31,3.69,3.69,0,0,0-2-.48,4.1,4.1,0,0,0-1.78.36,2.62,2.62,0,0,0-1.15,1,3.2,3.2,0,0,0-.39,1.65h-7.46a6.82,6.82,0,0,1,.79-3.25A8.12,8.12,0,0,1,353.49,18,10.89,10.89,0,0,1,357,16.18a15.78,15.78,0,0,1,4.62-.64,13.64,13.64,0,0,1,5.42,1,8.5,8.5,0,0,1,3.76,3,8.74,8.74,0,0,1,1.39,5.08V35.51a18.36,18.36,0,0,0,.28,3.67,8.35,8.35,0,0,0,.8,2.31v.41h-7.54a10.7,10.7,0,0,1-.79-2.79A22.23,22.23,0,0,1,364.69,35.73Z" transform="translate(0 -5.17)"/><path class="cls-18" d="M387.91,36.57a4.4,4.4,0,0,0,2.08-.46,3.35,3.35,0,0,0,1.38-1.28,3.79,3.79,0,0,0,.49-2h7a8.64,8.64,0,0,1-1.45,5,9.76,9.76,0,0,1-3.88,3.36,12.31,12.31,0,0,1-5.5,1.21,12.76,12.76,0,0,1-5.26-1A10.29,10.29,0,0,1,379,38.6a12.2,12.2,0,0,1-2.26-4.17,17.12,17.12,0,0,1-.75-5.16v-.62a17.08,17.08,0,0,1,.75-5.14A12.2,12.2,0,0,1,379,19.32a10.3,10.3,0,0,1,3.74-2.78,12.87,12.87,0,0,1,5.25-1,12.58,12.58,0,0,1,5.64,1.22,9.22,9.22,0,0,1,3.83,3.51,10.32,10.32,0,0,1,1.39,5.49h-7a5.53,5.53,0,0,0-.44-2.24,3.69,3.69,0,0,0-1.34-1.58,4.56,4.56,0,0,0-4.45,0,3.68,3.68,0,0,0-1.33,1.62,8.36,8.36,0,0,0-.62,2.33,22,22,0,0,0-.17,2.76v.62a22.69,22.69,0,0,0,.17,2.81,7.78,7.78,0,0,0,.63,2.33A3.76,3.76,0,0,0,385.64,36,4,4,0,0,0,387.91,36.57Z" transform="translate(0 -5.17)"/><path class="cls-18" d="M402.52,9.33a3.45,3.45,0,0,1,1.15-2.67,4.9,4.9,0,0,1,6,0,3.42,3.42,0,0,1,1.16,2.67A3.39,3.39,0,0,1,409.71,12a4.9,4.9,0,0,1-6,0A3.42,3.42,0,0,1,402.52,9.33ZM410.46,16V41.9H403V16Z" transform="translate(0 -5.17)"/><path class="cls-18" d="M414.75,29.22v-.5a16.42,16.42,0,0,1,.81-5.25A11.94,11.94,0,0,1,418,19.3a10.86,10.86,0,0,1,3.87-2.76,13.21,13.21,0,0,1,5.27-1,13.42,13.42,0,0,1,5.32,1,10.81,10.81,0,0,1,3.88,2.76,11.94,11.94,0,0,1,2.39,4.17,16.14,16.14,0,0,1,.82,5.25v.5a16,16,0,0,1-.82,5.23,12,12,0,0,1-2.39,4.18,10.76,10.76,0,0,1-3.87,2.77,14.74,14.74,0,0,1-10.57,0,10.7,10.7,0,0,1-3.9-2.77,12,12,0,0,1-2.39-4.18A16.25,16.25,0,0,1,414.75,29.22Zm7.48-.5v.5a15.26,15.26,0,0,0,.25,2.87,7.33,7.33,0,0,0,.83,2.35A4.14,4.14,0,0,0,424.83,36a4.93,4.93,0,0,0,4.6,0,4.27,4.27,0,0,0,1.51-1.56,7.57,7.57,0,0,0,.82-2.35,15.26,15.26,0,0,0,.25-2.87v-.5a15,15,0,0,0-.25-2.83,7.92,7.92,0,0,0-.82-2.36,4.34,4.34,0,0,0-1.52-1.6,4.45,4.45,0,0,0-2.33-.57,4,4,0,0,0-3.78,2.17,7.66,7.66,0,0,0-.83,2.36A15,15,0,0,0,422.23,28.72Zm1.39-16.12,4.73-7.43h8l-6.62,7.43Z" transform="translate(0 -5.17)"/><path class="cls-18" d="M450.74,21.55V41.9h-7.49V16h7Zm-1,6.5-1.87.05a17.7,17.7,0,0,1,.72-5.24,11.81,11.81,0,0,1,2-3.95,8.77,8.77,0,0,1,3.19-2.5,9.5,9.5,0,0,1,4.1-.87,10,10,0,0,1,3.32.53,6.31,6.31,0,0,1,2.59,1.69,7.6,7.6,0,0,1,1.67,3.06,16.46,16.46,0,0,1,.57,4.67V41.9h-7.51V25.47a5.66,5.66,0,0,0-.45-2.51,2.57,2.57,0,0,0-1.33-1.25,5.77,5.77,0,0,0-2.12-.35,4.6,4.6,0,0,0-2.24.51,4.17,4.17,0,0,0-1.53,1.42,6.59,6.59,0,0,0-.88,2.13A12.2,12.2,0,0,0,449.76,28.05Z" transform="translate(0 -5.17)"/><path class="cls-18" d="M494,36.57a4.43,4.43,0,0,0,2.08-.46,3.32,3.32,0,0,0,1.37-1.28,3.79,3.79,0,0,0,.49-2h7a8.71,8.71,0,0,1-1.44,5,9.79,9.79,0,0,1-3.89,3.36,12.31,12.31,0,0,1-5.5,1.21,12.79,12.79,0,0,1-5.26-1,10.29,10.29,0,0,1-3.76-2.78,12.37,12.37,0,0,1-2.26-4.17,17.12,17.12,0,0,1-.75-5.16v-.62a17.08,17.08,0,0,1,.75-5.14,12.37,12.37,0,0,1,2.26-4.19,10.34,10.34,0,0,1,3.75-2.78,12.87,12.87,0,0,1,5.25-1,12.53,12.53,0,0,1,5.63,1.22,9.31,9.31,0,0,1,3.84,3.51A10.41,10.41,0,0,1,505,25.76h-7a5.53,5.53,0,0,0-.44-2.24,3.62,3.62,0,0,0-1.34-1.58,4.56,4.56,0,0,0-4.45,0,3.74,3.74,0,0,0-1.33,1.62,8.36,8.36,0,0,0-.62,2.33,22,22,0,0,0-.16,2.76v.62a22.75,22.75,0,0,0,.16,2.81,7.78,7.78,0,0,0,.64,2.33A3.74,3.74,0,0,0,491.7,36,4,4,0,0,0,494,36.57Z" transform="translate(0 -5.17)"/><path class="cls-18" d="M507.58,29.22v-.5a16.14,16.14,0,0,1,.82-5.25,11.94,11.94,0,0,1,2.39-4.17,10.86,10.86,0,0,1,3.87-2.76,13.19,13.19,0,0,1,5.26-1,13.44,13.44,0,0,1,5.33,1,10.9,10.9,0,0,1,3.88,2.76,11.94,11.94,0,0,1,2.39,4.17,16.41,16.41,0,0,1,.82,5.25v.5a16.25,16.25,0,0,1-.82,5.23,12,12,0,0,1-2.39,4.18,10.76,10.76,0,0,1-3.87,2.77,14.74,14.74,0,0,1-10.57,0,10.7,10.7,0,0,1-3.9-2.77,12,12,0,0,1-2.39-4.18A16,16,0,0,1,507.58,29.22Zm7.49-.5v.5a15.26,15.26,0,0,0,.25,2.87,7.33,7.33,0,0,0,.83,2.35A4.12,4.12,0,0,0,517.66,36a4.4,4.4,0,0,0,2.31.57,4.33,4.33,0,0,0,2.3-.57,4.17,4.17,0,0,0,1.5-1.56,7.33,7.33,0,0,0,.83-2.35,15.26,15.26,0,0,0,.25-2.87v-.5a15,15,0,0,0-.25-2.83,7.66,7.66,0,0,0-.83-2.36,4.23,4.23,0,0,0-1.51-1.6,4.46,4.46,0,0,0-2.34-.57,4,4,0,0,0-3.77,2.17,7.66,7.66,0,0,0-.83,2.36A15,15,0,0,0,515.07,28.72Z" transform="translate(0 -5.17)"/><path class="cls-18" d="M543.58,21.55V41.9h-7.49V16h7Zm-1,6.5-1.87.05a17.7,17.7,0,0,1,.72-5.24,11.81,11.81,0,0,1,2-3.95,8.82,8.82,0,0,1,3.18-2.5,9.57,9.57,0,0,1,4.1-.87,10.07,10.07,0,0,1,3.33.53,6.31,6.31,0,0,1,2.59,1.69,7.6,7.6,0,0,1,1.67,3.06,16.46,16.46,0,0,1,.57,4.67V41.9h-7.51V25.47A5.66,5.66,0,0,0,551,23a2.61,2.61,0,0,0-1.33-1.25,5.77,5.77,0,0,0-2.12-.35,4.67,4.67,0,0,0-2.25.51,4.33,4.33,0,0,0-1.53,1.42,6.36,6.36,0,0,0-.87,2.13A12.2,12.2,0,0,0,542.6,28.05Z" transform="translate(0 -5.17)"/><path class="cls-18" d="M589.78,34.7a2,2,0,0,0-.44-1.27,3.91,3.91,0,0,0-1.58-1,21.57,21.57,0,0,0-3.19-.91A22.81,22.81,0,0,1,581,30.46,12.14,12.14,0,0,1,578,28.85a6.88,6.88,0,0,1-1.94-2.24,6.3,6.3,0,0,1-.69-3,7,7,0,0,1,.7-3.09A7.76,7.76,0,0,1,578.17,18a10,10,0,0,1,3.3-1.77,14.11,14.11,0,0,1,4.44-.65,14.91,14.91,0,0,1,5.9,1.07,8.72,8.72,0,0,1,3.83,3A7.35,7.35,0,0,1,597,23.92h-7.46a3.7,3.7,0,0,0-.39-1.75A2.68,2.68,0,0,0,588,21a4.41,4.41,0,0,0-2.08-.42,4.22,4.22,0,0,0-1.76.35,2.83,2.83,0,0,0-1.17.94,2.36,2.36,0,0,0-.42,1.39,2,2,0,0,0,.25,1,2.65,2.65,0,0,0,.79.82,5.74,5.74,0,0,0,1.42.65,18.67,18.67,0,0,0,2.14.55,26.18,26.18,0,0,1,4.93,1.41,9.09,9.09,0,0,1,3.59,2.52A6.32,6.32,0,0,1,597,34.44a6.56,6.56,0,0,1-.77,3.15A7.73,7.73,0,0,1,594,40.11a11.31,11.31,0,0,1-3.49,1.67,16.26,16.26,0,0,1-4.59.6,13.31,13.31,0,0,1-6.2-1.32,9.6,9.6,0,0,1-3.81-3.31,7.46,7.46,0,0,1-1.28-4.1h7a3.66,3.66,0,0,0,.65,2.1,3.5,3.5,0,0,0,1.59,1.19,6.38,6.38,0,0,0,2.2.37,5.27,5.27,0,0,0,2-.34,2.83,2.83,0,0,0,1.24-.92A2.2,2.2,0,0,0,589.78,34.7Z" transform="translate(0 -5.17)"/><path class="cls-18" d="M601.07,9.33a3.42,3.42,0,0,1,1.15-2.67,4.32,4.32,0,0,1,3-1,4.41,4.41,0,0,1,3,1,3.42,3.42,0,0,1,1.15,2.67A3.38,3.38,0,0,1,608.26,12a4.41,4.41,0,0,1-3,1,4.32,4.32,0,0,1-3-1A3.38,3.38,0,0,1,601.07,9.33ZM609,16V41.9h-7.49V16Z" transform="translate(0 -5.17)"/><path class="cls-18" d="M628.14,34.7a2,2,0,0,0-.44-1.27,3.91,3.91,0,0,0-1.58-1,21.57,21.57,0,0,0-3.19-.91,22.81,22.81,0,0,1-3.61-1.06,12.14,12.14,0,0,1-2.92-1.61,6.88,6.88,0,0,1-1.94-2.24,6.3,6.3,0,0,1-.69-3,7,7,0,0,1,.7-3.09A7.76,7.76,0,0,1,616.53,18a10,10,0,0,1,3.3-1.77,14.11,14.11,0,0,1,4.44-.65,14.91,14.91,0,0,1,5.9,1.07,8.72,8.72,0,0,1,3.83,3,7.35,7.35,0,0,1,1.34,4.34h-7.46a3.7,3.7,0,0,0-.39-1.75A2.68,2.68,0,0,0,626.32,21a4.41,4.41,0,0,0-2.08-.42,4.22,4.22,0,0,0-1.76.35,2.83,2.83,0,0,0-1.17.94,2.36,2.36,0,0,0-.42,1.39,2,2,0,0,0,.25,1,2.65,2.65,0,0,0,.79.82,5.83,5.83,0,0,0,1.41.65,19.47,19.47,0,0,0,2.15.55,26.18,26.18,0,0,1,4.93,1.41A9.09,9.09,0,0,1,634,30.21a6.32,6.32,0,0,1,1.35,4.23,6.56,6.56,0,0,1-.77,3.15,7.73,7.73,0,0,1-2.24,2.52,11.31,11.31,0,0,1-3.49,1.67,16.26,16.26,0,0,1-4.59.6,13.31,13.31,0,0,1-6.2-1.32,9.6,9.6,0,0,1-3.81-3.31,7.46,7.46,0,0,1-1.28-4.1h7a3.66,3.66,0,0,0,.65,2.1,3.5,3.5,0,0,0,1.59,1.19,6.38,6.38,0,0,0,2.2.37,5.27,5.27,0,0,0,2-.34,2.83,2.83,0,0,0,1.24-.92A2.2,2.2,0,0,0,628.14,34.7Z" transform="translate(0 -5.17)"/><path class="cls-18" d="M652.65,16v5.24H637.3V16ZM640.82,9.61h7.48V33.79a4.17,4.17,0,0,0,.26,1.65,1.5,1.5,0,0,0,.86.8,4.18,4.18,0,0,0,1.53.23,9.62,9.62,0,0,0,1.15,0c.32,0,.62-.07.89-.12v5.41a13.83,13.83,0,0,1-2,.49,14.08,14.08,0,0,1-2.34.18,10.2,10.2,0,0,1-4.17-.79,5.63,5.63,0,0,1-2.69-2.5,9.32,9.32,0,0,1-.93-4.46Z" transform="translate(0 -5.17)"/><path class="cls-18" d="M668.41,42.38a14.76,14.76,0,0,1-5.52-1,11.71,11.71,0,0,1-6.7-6.72,13.31,13.31,0,0,1-.88-4.86v-.91a16.83,16.83,0,0,1,.81-5.33,12.31,12.31,0,0,1,2.38-4.24,10.48,10.48,0,0,1,3.86-2.8,13.13,13.13,0,0,1,5.24-1,12.59,12.59,0,0,1,4.9.9A9.89,9.89,0,0,1,676.14,19a11.31,11.31,0,0,1,2.26,4,16.47,16.47,0,0,1,.77,5.23v3.06H658.32V26.47h13.54V25.9a5.57,5.57,0,0,0-.49-2.39,3.59,3.59,0,0,0-1.44-1.59,4.53,4.53,0,0,0-2.38-.56,4.2,4.2,0,0,0-2.27.57,4.05,4.05,0,0,0-1.45,1.61,8.09,8.09,0,0,0-.77,2.42,17.19,17.19,0,0,0-.24,2.95v.91a8.83,8.83,0,0,0,.4,2.75,5.85,5.85,0,0,0,1.2,2.13,5.57,5.57,0,0,0,1.91,1.39,6.29,6.29,0,0,0,2.56.5,8.6,8.6,0,0,0,3.37-.68A7.17,7.17,0,0,0,675,33.77l3.49,4A9.83,9.83,0,0,1,676.32,40a12.27,12.27,0,0,1-3.41,1.74A14.19,14.19,0,0,1,668.41,42.38Z" transform="translate(0 -5.17)"/><path class="cls-18" d="M690.27,21.45V41.9h-7.46V16h7Zm-1,6.6-1.89.05a18,18,0,0,1,.66-5,12.19,12.19,0,0,1,1.93-4,8.67,8.67,0,0,1,3.14-2.63,9.66,9.66,0,0,1,4.34-.94,9.23,9.23,0,0,1,3.14.52,6.11,6.11,0,0,1,2.42,1.6,7.38,7.38,0,0,1,1.57,2.82,13.73,13.73,0,0,1,.55,4.15V41.9h-7.46V25.54a6.4,6.4,0,0,0-.42-2.62,2.38,2.38,0,0,0-1.21-1.23,4.84,4.84,0,0,0-1.89-.33,4.28,4.28,0,0,0-2.11.51,4.57,4.57,0,0,0-1.55,1.42,6.64,6.64,0,0,0-.92,2.13A11,11,0,0,0,689.31,28.05Zm15.1-.38-2.37.19a18.07,18.07,0,0,1,.62-4.88,11.71,11.71,0,0,1,1.86-3.91,8.72,8.72,0,0,1,3.1-2.59,9.54,9.54,0,0,1,4.32-.94,10,10,0,0,1,3.31.53,6.3,6.3,0,0,1,2.58,1.7,7.94,7.94,0,0,1,1.69,3.07,15.63,15.63,0,0,1,.6,4.65V41.9h-7.51V25.49a6.22,6.22,0,0,0-.42-2.58,2.38,2.38,0,0,0-1.2-1.22,4.67,4.67,0,0,0-1.85-.33,4.18,4.18,0,0,0-2.08.49,4.31,4.31,0,0,0-1.48,1.34,5.84,5.84,0,0,0-.89,2A10.38,10.38,0,0,0,704.41,27.67Z" transform="translate(0 -5.17)"/><path class="cls-18" d="M739.73,26.12l0,4.11h-3.7a6.49,6.49,0,0,0-2.14.31,3.87,3.87,0,0,0-1.45.85,3.23,3.23,0,0,0-.8,1.24,4.52,4.52,0,0,0-.25,1.54,2.67,2.67,0,0,0,1.43,2.42,3.27,3.27,0,0,0,1.56.36,5.16,5.16,0,0,0,2.5-.57,4.73,4.73,0,0,0,1.61-1.4,2.8,2.8,0,0,0,.58-1.55l1.79,3.11a19.18,19.18,0,0,1-1,2,8.92,8.92,0,0,1-1.58,1.88A7.65,7.65,0,0,1,736,41.83a8.71,8.71,0,0,1-3.24.55,9.61,9.61,0,0,1-4.42-1,8.11,8.11,0,0,1-3.17-2.73,7,7,0,0,1-1.19-4,8.43,8.43,0,0,1,.74-3.61,7,7,0,0,1,2.24-2.68,10.56,10.56,0,0,1,3.77-1.66,22,22,0,0,1,5.31-.56Zm-.94,9.61V24.63a5.28,5.28,0,0,0-.35-2,2.88,2.88,0,0,0-1.13-1.31,3.67,3.67,0,0,0-2-.48,4.07,4.07,0,0,0-1.78.36,2.52,2.52,0,0,0-1.15,1,3.1,3.1,0,0,0-.4,1.65h-7.46a6.82,6.82,0,0,1,.79-3.25A8.24,8.24,0,0,1,727.59,18a11,11,0,0,1,3.53-1.78,15.71,15.71,0,0,1,4.61-.64,13.64,13.64,0,0,1,5.42,1,8.53,8.53,0,0,1,3.77,3,8.81,8.81,0,0,1,1.38,5.08V35.51a19.14,19.14,0,0,0,.28,3.67,8.35,8.35,0,0,0,.8,2.31v.41h-7.53a10.32,10.32,0,0,1-.79-2.79A21,21,0,0,1,738.79,35.73Z" transform="translate(0 -5.17)"/><path class="cls-18" d="M765,34.7a2,2,0,0,0-.44-1.27,3.91,3.91,0,0,0-1.58-1,21.57,21.57,0,0,0-3.19-.91,23.13,23.13,0,0,1-3.61-1.06,12.14,12.14,0,0,1-2.92-1.61,6.88,6.88,0,0,1-1.94-2.24,6.3,6.3,0,0,1-.69-3,7,7,0,0,1,.7-3.09A7.76,7.76,0,0,1,753.37,18a10,10,0,0,1,3.3-1.77,14.11,14.11,0,0,1,4.44-.65,14.87,14.87,0,0,1,5.9,1.07,8.72,8.72,0,0,1,3.83,3,7.35,7.35,0,0,1,1.34,4.34h-7.46a3.83,3.83,0,0,0-.38-1.75A2.75,2.75,0,0,0,763.16,21a4.41,4.41,0,0,0-2.08-.42,4.14,4.14,0,0,0-1.75.35,2.79,2.79,0,0,0-1.18.94,2.35,2.35,0,0,0-.41,1.39,1.92,1.92,0,0,0,.25,1,2.44,2.44,0,0,0,.79.82,5.49,5.49,0,0,0,1.41.65,18.67,18.67,0,0,0,2.14.55,26.18,26.18,0,0,1,4.93,1.41,9,9,0,0,1,3.59,2.52,6.32,6.32,0,0,1,1.35,4.23,6.56,6.56,0,0,1-.77,3.15,7.73,7.73,0,0,1-2.24,2.52,11.31,11.31,0,0,1-3.49,1.67,16.26,16.26,0,0,1-4.59.6,13.31,13.31,0,0,1-6.2-1.32,9.6,9.6,0,0,1-3.81-3.31,7.54,7.54,0,0,1-1.28-4.1h7a3.66,3.66,0,0,0,.65,2.1,3.5,3.5,0,0,0,1.59,1.19,6.38,6.38,0,0,0,2.2.37,5.27,5.27,0,0,0,2-.34,2.83,2.83,0,0,0,1.24-.92A2.2,2.2,0,0,0,765,34.7Z" transform="translate(0 -5.17)"/><path class="cls-18" d="M799.35,36.57a4.43,4.43,0,0,0,2.08-.46,3.26,3.26,0,0,0,1.37-1.28,3.79,3.79,0,0,0,.49-2h7a8.72,8.72,0,0,1-1.45,5A9.79,9.79,0,0,1,805,41.17a12.28,12.28,0,0,1-5.5,1.21,12.79,12.79,0,0,1-5.26-1,10.17,10.17,0,0,1-3.75-2.78,12,12,0,0,1-2.26-4.17,16.81,16.81,0,0,1-.76-5.16v-.62a16.77,16.77,0,0,1,.76-5.14,12,12,0,0,1,2.26-4.19,10.22,10.22,0,0,1,3.74-2.78,12.87,12.87,0,0,1,5.25-1,12.5,12.5,0,0,1,5.63,1.22,9.31,9.31,0,0,1,3.84,3.51,10.41,10.41,0,0,1,1.39,5.49h-7a5.36,5.36,0,0,0-.44-2.24,3.56,3.56,0,0,0-1.34-1.58,4.56,4.56,0,0,0-4.45,0,3.66,3.66,0,0,0-1.32,1.62,8.36,8.36,0,0,0-.63,2.33,22,22,0,0,0-.16,2.76v.62a22.75,22.75,0,0,0,.16,2.81,8.08,8.08,0,0,0,.64,2.33A3.69,3.69,0,0,0,797.08,36,4,4,0,0,0,799.35,36.57Z" transform="translate(0 -5.17)"/><path class="cls-18" d="M813,29.22v-.5a16.42,16.42,0,0,1,.81-5.25,11.94,11.94,0,0,1,2.39-4.17A10.86,10.86,0,0,1,820,16.54a13.21,13.21,0,0,1,5.27-1,13.42,13.42,0,0,1,5.32,1,10.81,10.81,0,0,1,3.88,2.76,11.94,11.94,0,0,1,2.39,4.17,16.14,16.14,0,0,1,.82,5.25v.5a16,16,0,0,1-.82,5.23,12,12,0,0,1-2.39,4.18,10.76,10.76,0,0,1-3.87,2.77,14.74,14.74,0,0,1-10.57,0,10.7,10.7,0,0,1-3.9-2.77,12,12,0,0,1-2.39-4.18A16.25,16.25,0,0,1,813,29.22Zm7.48-.5v.5a15.26,15.26,0,0,0,.25,2.87,7.33,7.33,0,0,0,.83,2.35A4.14,4.14,0,0,0,823,36a4.93,4.93,0,0,0,4.6,0,4.27,4.27,0,0,0,1.51-1.56,7.57,7.57,0,0,0,.82-2.35,15.26,15.26,0,0,0,.25-2.87v-.5a15,15,0,0,0-.25-2.83,7.92,7.92,0,0,0-.82-2.36,4.34,4.34,0,0,0-1.52-1.6,4.45,4.45,0,0,0-2.33-.57,4,4,0,0,0-3.78,2.17,7.66,7.66,0,0,0-.83,2.36A15,15,0,0,0,820.44,28.72Z" transform="translate(0 -5.17)"/><path class="cls-18" d="M849.11,21.45V41.9h-7.46V16h7Zm-1,6.6-1.89.05a18,18,0,0,1,.66-5,12.17,12.17,0,0,1,1.92-4A8.79,8.79,0,0,1,852,16.48a9.63,9.63,0,0,1,4.34-.94,9.13,9.13,0,0,1,3.13.52,6.22,6.22,0,0,1,2.43,1.6,7.24,7.24,0,0,1,1.56,2.82,13.73,13.73,0,0,1,.55,4.15V41.9h-7.46V25.54a6.4,6.4,0,0,0-.42-2.62,2.4,2.4,0,0,0-1.2-1.23,4.91,4.91,0,0,0-1.89-.33,4.29,4.29,0,0,0-2.12.51,4.54,4.54,0,0,0-1.54,1.42,6.43,6.43,0,0,0-.92,2.13A11,11,0,0,0,848.16,28.05Zm15.09-.38-2.37.19A18.47,18.47,0,0,1,861.5,23a11.73,11.73,0,0,1,1.87-3.91,8.63,8.63,0,0,1,3.1-2.59,9.47,9.47,0,0,1,4.31-.94,9.91,9.91,0,0,1,3.31.53,6.4,6.4,0,0,1,2.59,1.7,8.06,8.06,0,0,1,1.68,3.07,15.63,15.63,0,0,1,.6,4.65V41.9h-7.51V25.49a6.22,6.22,0,0,0-.42-2.58,2.4,2.4,0,0,0-1.19-1.22,4.76,4.76,0,0,0-1.86-.33,4.21,4.21,0,0,0-2.08.49,4.31,4.31,0,0,0-1.48,1.34,5.83,5.83,0,0,0-.88,2A9.89,9.89,0,0,0,863.25,27.67Z" transform="translate(0 -5.17)"/><path class="cls-18" d="M899.91,30.37l2.06-.05a18.2,18.2,0,0,1-.61,4.81A11.72,11.72,0,0,1,899.54,39a8.44,8.44,0,0,1-3,2.52,9.09,9.09,0,0,1-4.15.9,10.84,10.84,0,0,1-3.5-.54,6.83,6.83,0,0,1-2.74-1.7,7.55,7.55,0,0,1-1.77-3,13.55,13.55,0,0,1-.62-4.39V16h7.46V32.81a5.06,5.06,0,0,0,.25,1.71,3.22,3.22,0,0,0,.69,1.16,2.74,2.74,0,0,0,1.1.67,4.74,4.74,0,0,0,1.45.22,5.23,5.23,0,0,0,3.12-.83,4.36,4.36,0,0,0,1.6-2.22A9.7,9.7,0,0,0,899.91,30.37Zm-.79,5.29V16h7.51V41.9h-7Z" transform="translate(0 -5.17)"/><path class="cls-18" d="M918.8,21.55V41.9h-7.48V16h7Zm-1,6.5L916,28.1a18,18,0,0,1,.71-5.24,11.83,11.83,0,0,1,2.05-3.95,8.73,8.73,0,0,1,3.18-2.5,9.54,9.54,0,0,1,4.1-.87,10.11,10.11,0,0,1,3.33.53,6.38,6.38,0,0,1,2.59,1.69,7.48,7.48,0,0,1,1.66,3.06,16.07,16.07,0,0,1,.58,4.67V41.9h-7.51V25.47a5.51,5.51,0,0,0-.46-2.51,2.55,2.55,0,0,0-1.32-1.25,5.81,5.81,0,0,0-2.12-.35,4.62,4.62,0,0,0-2.25.51A4.33,4.33,0,0,0,919,23.29a6.36,6.36,0,0,0-.87,2.13A11.59,11.59,0,0,0,917.82,28.05Z" transform="translate(0 -5.17)"/><path class="cls-18" d="M939,9.33a3.45,3.45,0,0,1,1.15-2.67,4.9,4.9,0,0,1,6,0,3.42,3.42,0,0,1,1.16,2.67A3.39,3.39,0,0,1,946.15,12a4.9,4.9,0,0,1-6,0A3.42,3.42,0,0,1,939,9.33ZM946.9,16V41.9h-7.48V16Z" transform="translate(0 -5.17)"/><path class="cls-18" d="M965.41,16v5.24H950.06V16ZM953.58,9.61h7.48V33.79a4.17,4.17,0,0,0,.26,1.65,1.5,1.5,0,0,0,.86.8,4.2,4.2,0,0,0,1.54.23,9.55,9.55,0,0,0,1.14,0c.32,0,.62-.07.89-.12v5.41a14,14,0,0,1-2,.49,14.29,14.29,0,0,1-2.35.18,10.2,10.2,0,0,1-4.17-.79,5.63,5.63,0,0,1-2.69-2.5,9.32,9.32,0,0,1-.93-4.46Z" transform="translate(0 -5.17)"/><path class="cls-18" d="M983.61,26.12l0,4.11H980a6.49,6.49,0,0,0-2.14.31,3.82,3.82,0,0,0-1.44.85,3.12,3.12,0,0,0-.8,1.24,4.52,4.52,0,0,0-.26,1.54,2.67,2.67,0,0,0,.39,1.43,2.64,2.64,0,0,0,1,1,3.22,3.22,0,0,0,1.55.36,5.1,5.1,0,0,0,2.5-.57,4.77,4.77,0,0,0,1.62-1.4,2.78,2.78,0,0,0,.57-1.55l1.79,3.11a16,16,0,0,1-1,2,8.63,8.63,0,0,1-1.58,1.88,7.48,7.48,0,0,1-2.3,1.43,8.71,8.71,0,0,1-3.24.55,9.68,9.68,0,0,1-4.43-1A8.18,8.18,0,0,1,969,38.65a7,7,0,0,1-1.18-4,8.43,8.43,0,0,1,.74-3.61,6.93,6.93,0,0,1,2.24-2.68,10.5,10.5,0,0,1,3.76-1.66,22.07,22.07,0,0,1,5.31-.56Zm-.93,9.61V24.63a5.08,5.08,0,0,0-.36-2,2.86,2.86,0,0,0-1.12-1.31,3.69,3.69,0,0,0-2-.48,4.1,4.1,0,0,0-1.78.36,2.62,2.62,0,0,0-1.15,1,3.2,3.2,0,0,0-.39,1.65h-7.46a6.82,6.82,0,0,1,.79-3.25A8.12,8.12,0,0,1,971.48,18,10.89,10.89,0,0,1,975,16.18a15.73,15.73,0,0,1,4.62-.64,13.68,13.68,0,0,1,5.42,1,8.5,8.5,0,0,1,3.76,3,8.74,8.74,0,0,1,1.39,5.08V35.51a19.29,19.29,0,0,0,.27,3.67,8.69,8.69,0,0,0,.81,2.31v.41h-7.54a10.7,10.7,0,0,1-.79-2.79A22.23,22.23,0,0,1,982.68,35.73Z" transform="translate(0 -5.17)"/><path class="cls-18" d="M1002.58,22.05V41.9h-7.46V16h7Zm7.72-6.22-.12,7c-.32-.05-.73-.09-1.24-.13s-1-.06-1.32-.06a7.87,7.87,0,0,0-2.47.35,4.43,4.43,0,0,0-1.72,1,4.08,4.08,0,0,0-1,1.66,7.31,7.31,0,0,0-.33,2.29l-1.41-.69a20.14,20.14,0,0,1,.5-4.69,12.49,12.49,0,0,1,1.46-3.7,7.06,7.06,0,0,1,2.34-2.42,5.82,5.82,0,0,1,3.16-.87,9.46,9.46,0,0,1,1.17.08A5.26,5.26,0,0,1,1010.3,15.83Z" transform="translate(0 -5.17)"/><path class="cls-18" d="M1013.27,9.33a3.42,3.42,0,0,1,1.15-2.67,4.3,4.3,0,0,1,3-1,4.36,4.36,0,0,1,3,1,3.39,3.39,0,0,1,1.16,2.67,3.36,3.36,0,0,1-1.16,2.64,4.36,4.36,0,0,1-3,1,4.3,4.3,0,0,1-3-1A3.38,3.38,0,0,1,1013.27,9.33Zm7.94,6.69V41.9h-7.49V16Z" transform="translate(0 -5.17)"/><path class="cls-18" d="M1025.49,29.22v-.5a16.42,16.42,0,0,1,.81-5.25,11.94,11.94,0,0,1,2.39-4.17,11,11,0,0,1,3.88-2.76,13.16,13.16,0,0,1,5.26-1,13.39,13.39,0,0,1,5.32,1A10.93,10.93,0,0,1,1047,19.3a12.1,12.1,0,0,1,2.39,4.17,16.42,16.42,0,0,1,.81,5.25v.5a16.25,16.25,0,0,1-.81,5.23,12.14,12.14,0,0,1-2.39,4.18,10.88,10.88,0,0,1-3.88,2.77,13.4,13.4,0,0,1-5.28,1,13.56,13.56,0,0,1-5.29-1,10.79,10.79,0,0,1-3.9-2.77,12,12,0,0,1-2.39-4.18A16.25,16.25,0,0,1,1025.49,29.22Zm7.48-.5v.5a16.14,16.14,0,0,0,.25,2.87,7.58,7.58,0,0,0,.83,2.35,4.14,4.14,0,0,0,1.52,1.56,4.4,4.4,0,0,0,2.31.57,4.32,4.32,0,0,0,2.29-.57,4.19,4.19,0,0,0,1.51-1.56,7.32,7.32,0,0,0,.82-2.35,15.23,15.23,0,0,0,.26-2.87v-.5a15,15,0,0,0-.26-2.83,7.65,7.65,0,0,0-.82-2.36,4.26,4.26,0,0,0-1.52-1.6,4.45,4.45,0,0,0-2.33-.57,4,4,0,0,0-3.78,2.17,7.93,7.93,0,0,0-.83,2.36A15.85,15.85,0,0,0,1033,28.72Z" transform="translate(0 -5.17)"/><path class="cls-18" d="M1067.94,34.7a2,2,0,0,0-.44-1.27,4,4,0,0,0-1.58-1,21.76,21.76,0,0,0-3.2-.91,23.45,23.45,0,0,1-3.61-1.06,12.06,12.06,0,0,1-2.91-1.61,6.88,6.88,0,0,1-1.94-2.24,6.3,6.3,0,0,1-.7-3,7,7,0,0,1,.71-3.09,7.76,7.76,0,0,1,2.06-2.58,10,10,0,0,1,3.3-1.77,14.09,14.09,0,0,1,4.43-.65,15,15,0,0,1,5.91,1.07,8.78,8.78,0,0,1,3.83,3,7.35,7.35,0,0,1,1.34,4.34h-7.47a3.7,3.7,0,0,0-.38-1.75,2.68,2.68,0,0,0-1.17-1.16,4.44,4.44,0,0,0-2.08-.42,4.19,4.19,0,0,0-1.76.35,2.83,2.83,0,0,0-1.17.94,2.36,2.36,0,0,0-.42,1.39,1.92,1.92,0,0,0,.25,1,2.54,2.54,0,0,0,.79.82,5.83,5.83,0,0,0,1.41.65,19.23,19.23,0,0,0,2.14.55,26.07,26.07,0,0,1,4.94,1.41,9.09,9.09,0,0,1,3.59,2.52,6.32,6.32,0,0,1,1.35,4.23,6.45,6.45,0,0,1-.78,3.15,7.7,7.7,0,0,1-2.23,2.52,11.42,11.42,0,0,1-3.49,1.67,16.28,16.28,0,0,1-4.6.6,13.27,13.27,0,0,1-6.19-1.32,9.7,9.7,0,0,1-3.82-3.31,7.52,7.52,0,0,1-1.27-4.1h7a3.59,3.59,0,0,0,.66,2.1,3.5,3.5,0,0,0,1.59,1.19,6.34,6.34,0,0,0,2.2.37,5.22,5.22,0,0,0,2-.34,2.81,2.81,0,0,0,1.25-.92A2.26,2.26,0,0,0,1067.94,34.7Z" transform="translate(0 -5.17)"/><path class="cls-19" d="M209.36,52.89V85.22h-4.09V52.89Zm13.07,0V56.4H208.62V52.89Zm-1.66,13.9v3.49H208.62V66.79Zm1.89,14.95v3.48h-14V81.74Z" transform="translate(0 -5.17)"/><path class="cls-19" d="M227.43,61.2h3.91V88.09a10.8,10.8,0,0,1-.57,3.73A4.66,4.66,0,0,1,229,94.14a5.24,5.24,0,0,1-3,.78,6.13,6.13,0,0,1-1.13-.11,6.72,6.72,0,0,1-1.07-.26V91.24a6.07,6.07,0,0,0,.82.14,5.59,5.59,0,0,0,.73.06,1.79,1.79,0,0,0,1.09-.33A2.18,2.18,0,0,0,227.2,90a6.84,6.84,0,0,0,.23-2Zm-.36-6.37a2.56,2.56,0,0,1,.57-1.69,2,2,0,0,1,1.65-.69,2.05,2.05,0,0,1,1.68.69,2.56,2.56,0,0,1,.57,1.69,2.45,2.45,0,0,1-.57,1.63,2.07,2.07,0,0,1-1.68.67,2,2,0,0,1-1.65-.67A2.45,2.45,0,0,1,227.07,54.83Z" transform="translate(0 -5.17)"/><path class="cls-19" d="M246.12,85.67a11,11,0,0,1-3.88-.65,7.46,7.46,0,0,1-3-2,8.7,8.7,0,0,1-1.87-3.35,15.69,15.69,0,0,1-.64-4.77V72.23a16.82,16.82,0,0,1,.74-5.37,9.56,9.56,0,0,1,2-3.54,7.68,7.68,0,0,1,2.86-2,9.35,9.35,0,0,1,3.29-.61,9.16,9.16,0,0,1,3.86.74,6.17,6.17,0,0,1,2.6,2.17,10.08,10.08,0,0,1,1.48,3.55,22.16,22.16,0,0,1,.47,4.87v2.28h-15V71h11.08v-.55a14.6,14.6,0,0,0-.5-3.29,4.59,4.59,0,0,0-1.35-2.23,3.9,3.9,0,0,0-2.64-.81,5.25,5.25,0,0,0-2,.37,3.58,3.58,0,0,0-1.58,1.26,7.1,7.1,0,0,0-1,2.48,18.36,18.36,0,0,0-.36,4v2.71a13.32,13.32,0,0,0,.36,3.32,6.18,6.18,0,0,0,1.09,2.29,4.34,4.34,0,0,0,1.78,1.33,6.24,6.24,0,0,0,2.41.43,6.32,6.32,0,0,0,3.26-.76,8.09,8.09,0,0,0,2.24-2l2.07,2.47a9.1,9.1,0,0,1-1.68,1.74,8.32,8.32,0,0,1-2.53,1.35A10.91,10.91,0,0,1,246.12,85.67Z" transform="translate(0 -5.17)"/><path class="cls-19" d="M262.78,66V85.22h-3.91v-24h3.68ZM262,72.3l-1.82-.07a17.87,17.87,0,0,1,.49-4.56A11.29,11.29,0,0,1,262.19,64a7.22,7.22,0,0,1,2.6-2.41,7.49,7.49,0,0,1,3.65-.86,6.74,6.74,0,0,1,2.56.48,5.44,5.44,0,0,1,2.08,1.5,7.32,7.32,0,0,1,1.39,2.62,13.15,13.15,0,0,1,.5,3.86v16H271V69.41a7.69,7.69,0,0,0-.5-3,3.51,3.51,0,0,0-1.41-1.65,4.32,4.32,0,0,0-2.18-.52,4.27,4.27,0,0,0-2.41.64A4.53,4.53,0,0,0,263,66.64a8.87,8.87,0,0,0-.8,2.58A19,19,0,0,0,262,72.3ZM274.92,70l-2.62.84a13.66,13.66,0,0,1,.49-3.8,10.51,10.51,0,0,1,1.52-3.24,7.35,7.35,0,0,1,2.52-2.25,7.12,7.12,0,0,1,3.51-.84,7.79,7.79,0,0,1,2.91.51,5.47,5.47,0,0,1,2.14,1.57,6.83,6.83,0,0,1,1.32,2.7,14.91,14.91,0,0,1,.45,3.91V85.22h-3.93V69.39a8,8,0,0,0-.5-3.14,3.15,3.15,0,0,0-1.41-1.58,4.9,4.9,0,0,0-2.18-.45,3.51,3.51,0,0,0-1.81.46A4.13,4.13,0,0,0,276,66a6.08,6.08,0,0,0-.81,1.85A8.46,8.46,0,0,0,274.92,70Z" transform="translate(0 -5.17)"/><path class="cls-19" d="M297,65.82V94.46h-3.93V61.2h3.58Zm13.44,6.3v2.24a20.86,20.86,0,0,1-.53,5,10,10,0,0,1-1.53,3.53A6.47,6.47,0,0,1,305.92,85a7.82,7.82,0,0,1-3.36.7,7,7,0,0,1-3.27-.73A6.37,6.37,0,0,1,297,82.85a11.15,11.15,0,0,1-1.49-3.32,23.37,23.37,0,0,1-.74-4.37V71.74a25.39,25.39,0,0,1,.73-4.58,11.32,11.32,0,0,1,1.48-3.46,6.33,6.33,0,0,1,2.33-2.19,6.73,6.73,0,0,1,3.25-.76,8.3,8.3,0,0,1,3.41.67,6.28,6.28,0,0,1,2.49,2A10.15,10.15,0,0,1,309.94,67,22.41,22.41,0,0,1,310.45,72.12Zm-3.93,2.24V72.12a17.76,17.76,0,0,0-.3-3.48,6.89,6.89,0,0,0-1-2.47,4.11,4.11,0,0,0-1.62-1.46,5.13,5.13,0,0,0-2.35-.49,4.24,4.24,0,0,0-2.08.49A4.74,4.74,0,0,0,297.68,66a7.66,7.66,0,0,0-1.07,1.88A11.89,11.89,0,0,0,296,70.1v6.73a14.15,14.15,0,0,0,1,2.67,5.53,5.53,0,0,0,1.68,2,4.42,4.42,0,0,0,2.67.77,5.07,5.07,0,0,0,2.33-.49,3.91,3.91,0,0,0,1.61-1.47,7.08,7.08,0,0,0,.94-2.49A18,18,0,0,0,306.52,74.36Z" transform="translate(0 -5.17)"/><path class="cls-19" d="M319.73,51.12v34.1h-3.91V51.12Z" transform="translate(0 -5.17)"/><path class="cls-19" d="M325.12,74.36V72.08a15.56,15.56,0,0,1,.71-4.92,10.26,10.26,0,0,1,2-3.54,8.23,8.23,0,0,1,2.95-2.14,9.15,9.15,0,0,1,3.62-.73,9.28,9.28,0,0,1,3.67.73,8.35,8.35,0,0,1,3,2.14,10.12,10.12,0,0,1,2,3.54,15.56,15.56,0,0,1,.71,4.92v2.28a15.56,15.56,0,0,1-.71,4.92,10.08,10.08,0,0,1-2,3.54A8.23,8.23,0,0,1,338.07,85a9.71,9.71,0,0,1-7.29,0,8.35,8.35,0,0,1-3-2.14,9.94,9.94,0,0,1-2-3.54A15.56,15.56,0,0,1,325.12,74.36Zm3.93-2.28v2.28a13.74,13.74,0,0,0,.4,3.47,7.39,7.39,0,0,0,1.14,2.48,4.73,4.73,0,0,0,1.7,1.5,4.59,4.59,0,0,0,2.14.5,5.16,5.16,0,0,0,2.34-.5,4.21,4.21,0,0,0,1.67-1.5,7.12,7.12,0,0,0,1-2.48,15.5,15.5,0,0,0,.34-3.47V72.08a13.65,13.65,0,0,0-.4-3.46,7.78,7.78,0,0,0-1.13-2.48,4.75,4.75,0,0,0-1.73-1.51,4.56,4.56,0,0,0-2.14-.5,4.5,4.5,0,0,0-2.11.5,4.67,4.67,0,0,0-1.7,1.51,7.78,7.78,0,0,0-1.12,2.48A13.65,13.65,0,0,0,329.05,72.08Z" transform="translate(0 -5.17)"/><path class="cls-19" d="M368,61.2v3.15H356.76V61.2Zm-7.55-5.84h3.93V79.27a4.33,4.33,0,0,0,.31,1.84,1.56,1.56,0,0,0,.76.83,2.59,2.59,0,0,0,1,.2,5,5,0,0,0,.89-.1,6.28,6.28,0,0,0,.66-.17l0,3.35a6.82,6.82,0,0,1-1.06.3,8,8,0,0,1-1.69.15,4.82,4.82,0,0,1-2.36-.6,4.33,4.33,0,0,1-1.75-2,9.1,9.1,0,0,1-.67-3.81Z" transform="translate(0 -5.17)"/><path class="cls-19" d="M381.25,85.67a11,11,0,0,1-3.88-.65,7.57,7.57,0,0,1-3-2,8.82,8.82,0,0,1-1.86-3.35,15.67,15.67,0,0,1-.65-4.77V72.23a16.8,16.8,0,0,1,.75-5.37,9.3,9.3,0,0,1,2-3.54,7.68,7.68,0,0,1,2.86-2,9.31,9.31,0,0,1,3.29-.61,9.2,9.2,0,0,1,3.86.74,6.24,6.24,0,0,1,2.6,2.17,10.27,10.27,0,0,1,1.48,3.55,22.79,22.79,0,0,1,.47,4.87v2.28h-15V71h11.08v-.55a14.06,14.06,0,0,0-.5-3.29,4.5,4.5,0,0,0-1.34-2.23,3.9,3.9,0,0,0-2.64-.81,5.25,5.25,0,0,0-2,.37,3.53,3.53,0,0,0-1.58,1.26,6.91,6.91,0,0,0-1,2.48,18.28,18.28,0,0,0-.37,4v2.71a13.28,13.28,0,0,0,.37,3.32,6,6,0,0,0,1.09,2.29,4.37,4.37,0,0,0,1.77,1.33,7.22,7.22,0,0,0,5.68-.33,8.24,8.24,0,0,0,2.24-2l2.07,2.47a9.1,9.1,0,0,1-1.68,1.74,8.32,8.32,0,0,1-2.53,1.35A10.91,10.91,0,0,1,381.25,85.67Zm-2.84-28,4.31-6.53h4.95l-5.95,6.53Z" transform="translate(0 -5.17)"/><path class="cls-19" d="M402.3,82.31a4.84,4.84,0,0,0,2.14-.47A3.84,3.84,0,0,0,406,80.33a5.88,5.88,0,0,0,.71-2.7h3.69a8.54,8.54,0,0,1-1.21,4.21,8,8,0,0,1-6.92,3.83,10.09,10.09,0,0,1-4.05-.76,7.09,7.09,0,0,1-2.84-2.19,9.57,9.57,0,0,1-1.68-3.48,18,18,0,0,1-.56-4.68v-2.7a18,18,0,0,1,.56-4.68,9.57,9.57,0,0,1,1.68-3.48,7.09,7.09,0,0,1,2.84-2.19,10.09,10.09,0,0,1,4.05-.76,8.29,8.29,0,0,1,4.23,1,7.18,7.18,0,0,1,2.8,3,10.93,10.93,0,0,1,1.1,4.7h-3.69a8,8,0,0,0-.64-3,4,4,0,0,0-1.51-1.77,4.31,4.31,0,0,0-2.29-.59,5.37,5.37,0,0,0-2.56.54,3.94,3.94,0,0,0-1.59,1.57,7.08,7.08,0,0,0-.81,2.44,19.24,19.24,0,0,0-.24,3.18v2.7a19.36,19.36,0,0,0,.24,3.19,7.28,7.28,0,0,0,.8,2.45,3.8,3.8,0,0,0,1.58,1.57A5.51,5.51,0,0,0,402.3,82.31Z" transform="translate(0 -5.17)"/><path class="cls-19" d="M418.91,66.33V85.22H415v-24h3.71Zm-1,6-1.6-.07a16.56,16.56,0,0,1,.57-4.56A11.69,11.69,0,0,1,418.61,64a7.92,7.92,0,0,1,2.63-2.41,6.84,6.84,0,0,1,3.4-.86,7.12,7.12,0,0,1,2.66.48,5,5,0,0,1,2,1.52,7.23,7.23,0,0,1,1.3,2.7,15.1,15.1,0,0,1,.46,4V85.22h-3.93V69.44a9.37,9.37,0,0,0-.41-3,3.14,3.14,0,0,0-1.25-1.66,3.83,3.83,0,0,0-2.09-.52,3.92,3.92,0,0,0-2.16.64,5.92,5.92,0,0,0-1.74,1.78,9.22,9.22,0,0,0-1.16,2.58A11.46,11.46,0,0,0,418,72.3Z" transform="translate(0 -5.17)"/><path class="cls-19" d="M437.09,54.83a2.61,2.61,0,0,1,.56-1.69,2,2,0,0,1,1.66-.69,2.05,2.05,0,0,1,1.68.69,2.56,2.56,0,0,1,.57,1.69,2.45,2.45,0,0,1-.57,1.63,2.07,2.07,0,0,1-1.68.67,2,2,0,0,1-1.66-.67A2.5,2.5,0,0,1,437.09,54.83Zm4.13,6.37v24h-3.91v-24Z" transform="translate(0 -5.17)"/><path class="cls-19" d="M455.76,82.31a4.91,4.91,0,0,0,2.15-.47,4,4,0,0,0,1.59-1.51,5.88,5.88,0,0,0,.71-2.7h3.68a8.43,8.43,0,0,1-1.21,4.21,8,8,0,0,1-6.92,3.83,10.09,10.09,0,0,1-4.05-.76,7.23,7.23,0,0,1-2.84-2.19,9.57,9.57,0,0,1-1.68-3.48,18,18,0,0,1-.55-4.68v-2.7a18,18,0,0,1,.55-4.68,9.57,9.57,0,0,1,1.68-3.48,7.23,7.23,0,0,1,2.84-2.19,10.09,10.09,0,0,1,4.05-.76,8.35,8.35,0,0,1,4.24,1,7.1,7.1,0,0,1,2.79,3,10.79,10.79,0,0,1,1.1,4.7h-3.68a8,8,0,0,0-.65-3,4,4,0,0,0-1.51-1.77,4.29,4.29,0,0,0-2.29-.59,5.4,5.4,0,0,0-2.56.54,4.07,4.07,0,0,0-1.59,1.57,7.53,7.53,0,0,0-.81,2.44,20.46,20.46,0,0,0-.23,3.18v2.7a20.59,20.59,0,0,0,.23,3.19,7.51,7.51,0,0,0,.8,2.45,3.88,3.88,0,0,0,1.59,1.57A5.47,5.47,0,0,0,455.76,82.31Z" transform="translate(0 -5.17)"/><path class="cls-19" d="M467.62,74.36V72.08a15.56,15.56,0,0,1,.71-4.92,10.1,10.1,0,0,1,2-3.54,8.23,8.23,0,0,1,2.95-2.14,9.44,9.44,0,0,1,7.28,0,8.3,8.3,0,0,1,3,2.14,10.12,10.12,0,0,1,2,3.54,15.56,15.56,0,0,1,.71,4.92v2.28a15.56,15.56,0,0,1-.71,4.92,10.08,10.08,0,0,1-2,3.54A8.31,8.31,0,0,1,480.57,85a9.71,9.71,0,0,1-7.29,0,8.35,8.35,0,0,1-3-2.14,9.94,9.94,0,0,1-2-3.54A15.56,15.56,0,0,1,467.62,74.36Zm3.93-2.28v2.28a13.29,13.29,0,0,0,.4,3.47,7.39,7.39,0,0,0,1.13,2.48,4.84,4.84,0,0,0,1.71,1.5,4.55,4.55,0,0,0,2.13.5,5.18,5.18,0,0,0,2.35-.5,4.21,4.21,0,0,0,1.67-1.5,7.12,7.12,0,0,0,1-2.48,15.5,15.5,0,0,0,.34-3.47V72.08a13.65,13.65,0,0,0-.4-3.46,7.58,7.58,0,0,0-1.14-2.48A4.64,4.64,0,0,0,479,64.63a4.59,4.59,0,0,0-2.14-.5,4.5,4.5,0,0,0-2.11.5,4.67,4.67,0,0,0-1.7,1.51A7.78,7.78,0,0,0,472,68.62,13.21,13.21,0,0,0,471.55,72.08Z" transform="translate(0 -5.17)"/><path class="cls-19" d="M498.55,69.79v3.38h-9.17V69.79Z" transform="translate(0 -5.17)"/><path class="cls-19" d="M506.48,66.33V85.22h-3.93v-24h3.71Zm-1,6-1.6-.07a16.56,16.56,0,0,1,.57-4.56A11.47,11.47,0,0,1,506.18,64a7.92,7.92,0,0,1,2.63-2.41,6.84,6.84,0,0,1,3.4-.86,7.12,7.12,0,0,1,2.66.48,5,5,0,0,1,2,1.52,7.39,7.39,0,0,1,1.3,2.7,15.52,15.52,0,0,1,.46,4V85.22h-3.93V69.44a9.37,9.37,0,0,0-.41-3,3.14,3.14,0,0,0-1.25-1.66,3.85,3.85,0,0,0-2.1-.52,3.89,3.89,0,0,0-2.15.64,5.81,5.81,0,0,0-1.74,1.78,9.22,9.22,0,0,0-1.16,2.58A11.46,11.46,0,0,0,505.52,72.3Z" transform="translate(0 -5.17)"/><path class="cls-19" d="M523.75,74.36V72.08a15.56,15.56,0,0,1,.71-4.92,10,10,0,0,1,2-3.54,8.14,8.14,0,0,1,2.95-2.14,9.44,9.44,0,0,1,7.28,0,8.3,8.3,0,0,1,3,2.14,10,10,0,0,1,2,3.54,15.27,15.27,0,0,1,.72,4.92v2.28a15.27,15.27,0,0,1-.72,4.92,9.91,9.91,0,0,1-2,3.54,8.26,8.26,0,0,1-3,2.14,9.69,9.69,0,0,1-7.28,0,8.35,8.35,0,0,1-3-2.14,9.79,9.79,0,0,1-2-3.54A15.56,15.56,0,0,1,523.75,74.36Zm3.93-2.28v2.28a13.29,13.29,0,0,0,.4,3.47,7.39,7.39,0,0,0,1.13,2.48,4.84,4.84,0,0,0,1.71,1.5,4.52,4.52,0,0,0,2.13.5,5.18,5.18,0,0,0,2.35-.5,4.21,4.21,0,0,0,1.67-1.5,7.12,7.12,0,0,0,1-2.48,16.11,16.11,0,0,0,.34-3.47V72.08a13.65,13.65,0,0,0-.4-3.46,7.58,7.58,0,0,0-1.14-2.48,4.72,4.72,0,0,0-1.72-1.51,4.59,4.59,0,0,0-2.14-.5,4.5,4.5,0,0,0-2.11.5,4.67,4.67,0,0,0-1.7,1.51,7.78,7.78,0,0,0-1.12,2.48A13.21,13.21,0,0,0,527.68,72.08Z" transform="translate(0 -5.17)"/><path class="cls-19" d="M551.33,65V85.22H547.4v-24h3.79Zm6-3.91,0,3.82a6.75,6.75,0,0,0-.87-.14q-.39,0-.9,0a4.06,4.06,0,0,0-1.95.44,4.44,4.44,0,0,0-1.43,1.24,6.38,6.38,0,0,0-.95,1.9,11.55,11.55,0,0,0-.49,2.41l-1,.67a23,23,0,0,1,.34-4.09,12.53,12.53,0,0,1,1.08-3.38A6.13,6.13,0,0,1,553,61.59a4.53,4.53,0,0,1,2.75-.84,5.51,5.51,0,0,1,.87.1A2.16,2.16,0,0,1,557.3,61.06Z" transform="translate(0 -5.17)"/><path class="cls-19" d="M565.18,66V85.22h-3.91v-24H565Zm-.8,6.33-1.82-.07a18.81,18.81,0,0,1,.49-4.56A11.51,11.51,0,0,1,564.59,64a7.3,7.3,0,0,1,2.6-2.41,7.51,7.51,0,0,1,3.65-.86,6.79,6.79,0,0,1,2.57.48,5.4,5.4,0,0,1,2.07,1.5,7,7,0,0,1,1.39,2.62,13.15,13.15,0,0,1,.5,3.86v16h-3.93V69.41a7.69,7.69,0,0,0-.5-3,3.4,3.4,0,0,0-1.41-1.65,4.28,4.28,0,0,0-2.17-.52,4.22,4.22,0,0,0-2.41.64,4.37,4.37,0,0,0-1.53,1.78,8.58,8.58,0,0,0-.8,2.58A19,19,0,0,0,564.38,72.3Zm13-2.26-2.62.84a13,13,0,0,1,.49-3.8,10.28,10.28,0,0,1,1.52-3.24,7.35,7.35,0,0,1,2.52-2.25,7.05,7.05,0,0,1,3.5-.84,7.71,7.71,0,0,1,2.91.51,5.5,5.5,0,0,1,2.15,1.57,7.1,7.1,0,0,1,1.32,2.7,15.38,15.38,0,0,1,.44,3.91V85.22h-3.93V69.39a8,8,0,0,0-.5-3.14,3.07,3.07,0,0,0-1.41-1.58,4.86,4.86,0,0,0-2.17-.45,3.46,3.46,0,0,0-1.81.46A4,4,0,0,0,578.42,66a6.35,6.35,0,0,0-.82,1.85A8.91,8.91,0,0,0,577.33,70Z" transform="translate(0 -5.17)"/><path class="cls-19" d="M607.88,70.66l0,2.88h-2.73a10,10,0,0,0-2.54.31,6.27,6.27,0,0,0-2,.9,4.07,4.07,0,0,0-1.25,1.46,4.29,4.29,0,0,0-.43,2,5.43,5.43,0,0,0,.4,2.3,2.42,2.42,0,0,0,1.19,1.23,4.66,4.66,0,0,0,2,.38,5,5,0,0,0,2.62-.69A5.41,5.41,0,0,0,607,79.74a3.1,3.1,0,0,0,.59-1.82l.87,1.84a5.87,5.87,0,0,1-.57,1.88,8.09,8.09,0,0,1-1.32,1.93,7.08,7.08,0,0,1-2,1.51,5.55,5.55,0,0,1-2.56.59,8,8,0,0,1-3.66-.8,5.76,5.76,0,0,1-2.43-2.36,7.85,7.85,0,0,1-.86-3.84,8.4,8.4,0,0,1,.6-3.2,7.11,7.11,0,0,1,1.77-2.54,8.22,8.22,0,0,1,3-1.67,13,13,0,0,1,4.14-.6Zm-.62,10.45v-13a5.13,5.13,0,0,0-.44-2.29,2.7,2.7,0,0,0-1.28-1.26,5,5,0,0,0-2.15-.4,4.26,4.26,0,0,0-2.14.51A3.58,3.58,0,0,0,599.87,66a3.85,3.85,0,0,0-.47,1.87h-3.93a6.28,6.28,0,0,1,.56-2.55,7.26,7.26,0,0,1,1.64-2.3,8,8,0,0,1,2.56-1.65,9,9,0,0,1,3.36-.61,10.05,10.05,0,0,1,3.93.73,5.62,5.62,0,0,1,2.69,2.34,8.27,8.27,0,0,1,1,4.3V80a18.08,18.08,0,0,0,.19,2.56,11.13,11.13,0,0,0,.54,2.33v.35h-4.06a7.27,7.27,0,0,1-.45-1.9A17.71,17.71,0,0,1,607.26,81.11Z" transform="translate(0 -5.17)"/><path class="cls-19" d="M626,61.2v3.15H614.83V61.2Zm-7.55-5.84h3.93V79.27a4.35,4.35,0,0,0,.3,1.84,1.62,1.62,0,0,0,.77.83,2.55,2.55,0,0,0,1,.2,4.94,4.94,0,0,0,.88-.1,6.69,6.69,0,0,0,.67-.17l0,3.35a7,7,0,0,1-1.07.3,7.82,7.82,0,0,1-1.69.15,4.81,4.81,0,0,1-2.35-.6,4.28,4.28,0,0,1-1.75-2,8.94,8.94,0,0,1-.67-3.81Z" transform="translate(0 -5.17)"/><path class="cls-19" d="M630.81,54.83a2.61,2.61,0,0,1,.56-1.69,2,2,0,0,1,1.66-.69,2.05,2.05,0,0,1,1.68.69,2.56,2.56,0,0,1,.57,1.69,2.45,2.45,0,0,1-.57,1.63,2.07,2.07,0,0,1-1.68.67,2,2,0,0,1-1.66-.67A2.5,2.5,0,0,1,630.81,54.83Zm4.13,6.37v24H631v-24Z" transform="translate(0 -5.17)"/><path class="cls-19" d="M643.23,61.2l5.37,20.42.42,3.6h-2.58l-7.21-24Zm4.15,20.31,5.15-20.31h4l-7.12,24h-2.6Z" transform="translate(0 -5.17)"/><path class="cls-19" d="M659.46,74.36V72.08a15.28,15.28,0,0,1,.71-4.92,10.09,10.09,0,0,1,2-3.54,8.31,8.31,0,0,1,3-2.14,9.18,9.18,0,0,1,3.62-.73,9.28,9.28,0,0,1,3.67.73,8.35,8.35,0,0,1,3,2.14,10,10,0,0,1,2,3.54,15.56,15.56,0,0,1,.71,4.92v2.28a15.56,15.56,0,0,1-.71,4.92,9.78,9.78,0,0,1-2,3.54,8.23,8.23,0,0,1-3,2.14,9.69,9.69,0,0,1-7.28,0,8.38,8.38,0,0,1-3-2.14,9.78,9.78,0,0,1-2-3.54A15.28,15.28,0,0,1,659.46,74.36Zm3.93-2.28v2.28a13.29,13.29,0,0,0,.4,3.47,7.2,7.2,0,0,0,1.13,2.48,4.84,4.84,0,0,0,1.71,1.5,4.52,4.52,0,0,0,2.13.5,5.1,5.1,0,0,0,2.34-.5,4.3,4.3,0,0,0,1.68-1.5,7.52,7.52,0,0,0,1-2.48,16.16,16.16,0,0,0,.33-3.47V72.08a13.21,13.21,0,0,0-.4-3.46,7.57,7.57,0,0,0-1.13-2.48,4.72,4.72,0,0,0-1.72-1.51,4.63,4.63,0,0,0-2.15-.5,4.52,4.52,0,0,0-2.11.5,4.64,4.64,0,0,0-1.69,1.51,7.36,7.36,0,0,0-1.12,2.48A13.21,13.21,0,0,0,663.39,72.08Z" transform="translate(0 -5.17)"/><path class="cls-19" d="M705.93,70.66l0,2.88h-2.73a10,10,0,0,0-2.54.31,6.27,6.27,0,0,0-2,.9,4,4,0,0,0-1.25,1.46,4.29,4.29,0,0,0-.43,2,5.43,5.43,0,0,0,.4,2.3,2.42,2.42,0,0,0,1.19,1.23,4.66,4.66,0,0,0,2,.38,4.89,4.89,0,0,0,2.61-.69,5.35,5.35,0,0,0,1.77-1.66,3.1,3.1,0,0,0,.59-1.82l.86,1.84a5.83,5.83,0,0,1-.56,1.88,8.09,8.09,0,0,1-1.32,1.93,7.22,7.22,0,0,1-2,1.51,5.55,5.55,0,0,1-2.56.59,8,8,0,0,1-3.66-.8A5.76,5.76,0,0,1,694,82.51a7.74,7.74,0,0,1-.86-3.84,8.4,8.4,0,0,1,.6-3.2,7,7,0,0,1,1.77-2.54,8.14,8.14,0,0,1,3-1.67,13,13,0,0,1,4.14-.6Zm-.62,10.45v-13a5.13,5.13,0,0,0-.44-2.29,2.7,2.7,0,0,0-1.28-1.26,5.06,5.06,0,0,0-2.15-.4,4.26,4.26,0,0,0-2.14.51A3.58,3.58,0,0,0,697.92,66a3.74,3.74,0,0,0-.47,1.87h-3.94a6.13,6.13,0,0,1,.57-2.55,7.39,7.39,0,0,1,1.63-2.3,8,8,0,0,1,2.57-1.65,9,9,0,0,1,3.36-.61,10.05,10.05,0,0,1,3.93.73,5.62,5.62,0,0,1,2.69,2.34,8.27,8.27,0,0,1,1,4.3V80a19.6,19.6,0,0,0,.18,2.56,11.76,11.76,0,0,0,.55,2.33v.35h-4.06a7.27,7.27,0,0,1-.45-1.9A17.71,17.71,0,0,1,705.31,81.11Z" transform="translate(0 -5.17)"/><path class="cls-19" d="M719.25,66V85.22h-3.91v-24H719Zm-.8,6.33-1.82-.07a18.33,18.33,0,0,1,.49-4.56A11.29,11.29,0,0,1,718.66,64a7.22,7.22,0,0,1,2.6-2.41,7.49,7.49,0,0,1,3.65-.86,6.83,6.83,0,0,1,2.57.48,5.4,5.4,0,0,1,2.07,1.5,7.16,7.16,0,0,1,1.39,2.62,13.15,13.15,0,0,1,.5,3.86v16h-3.93V69.41a7.69,7.69,0,0,0-.5-3,3.4,3.4,0,0,0-1.41-1.65,4.84,4.84,0,0,0-4.59.12,4.53,4.53,0,0,0-1.53,1.78,8.87,8.87,0,0,0-.8,2.58A20.17,20.17,0,0,0,718.45,72.3ZM731.39,70l-2.62.84a13.66,13.66,0,0,1,.49-3.8,10.51,10.51,0,0,1,1.52-3.24,7.53,7.53,0,0,1,2.52-2.25,7.12,7.12,0,0,1,3.51-.84,7.71,7.71,0,0,1,2.91.51,5.47,5.47,0,0,1,2.14,1.57,6.83,6.83,0,0,1,1.32,2.7,14.91,14.91,0,0,1,.45,3.91V85.22H739.7V69.39a8,8,0,0,0-.5-3.14,3.07,3.07,0,0,0-1.41-1.58,4.87,4.87,0,0,0-2.18-.45,3.51,3.51,0,0,0-1.81.46A4.23,4.23,0,0,0,732.48,66a6.61,6.61,0,0,0-.81,1.85A8.9,8.9,0,0,0,731.39,70Z" transform="translate(0 -5.17)"/><path class="cls-19" d="M753.49,65.82V94.46h-3.93V61.2h3.57Zm13.43,6.3v2.24a21.43,21.43,0,0,1-.52,5,10.14,10.14,0,0,1-1.54,3.53A6.4,6.4,0,0,1,762.39,85a7.81,7.81,0,0,1-3.35.7,7.05,7.05,0,0,1-3.28-.73,6.45,6.45,0,0,1-2.33-2.09,11.15,11.15,0,0,1-1.49-3.32,23.37,23.37,0,0,1-.74-4.37V71.74a26.31,26.31,0,0,1,.73-4.58,11.57,11.57,0,0,1,1.48-3.46,6.4,6.4,0,0,1,2.33-2.19,6.73,6.73,0,0,1,3.25-.76,8.26,8.26,0,0,1,3.41.67,6.28,6.28,0,0,1,2.49,2A10,10,0,0,1,766.41,67,22.41,22.41,0,0,1,766.92,72.12ZM763,74.36V72.12a17.76,17.76,0,0,0-.3-3.48,7.08,7.08,0,0,0-.94-2.47,4.07,4.07,0,0,0-1.63-1.46,5.13,5.13,0,0,0-2.35-.49,4.26,4.26,0,0,0-2.08.49A4.74,4.74,0,0,0,754.15,66a7.63,7.63,0,0,0-1.06,1.88,11.18,11.18,0,0,0-.63,2.19v6.73a14.87,14.87,0,0,0,1,2.67,5.63,5.63,0,0,0,1.68,2,4.43,4.43,0,0,0,2.68.77,5.1,5.1,0,0,0,2.33-.49,4,4,0,0,0,1.61-1.47,7.27,7.27,0,0,0,.93-2.49A18,18,0,0,0,763,74.36Z" transform="translate(0 -5.17)"/><path class="cls-19" d="M776.2,51.12v34.1h-3.91V51.12Z" transform="translate(0 -5.17)"/><path class="cls-19" d="M782.51,54.83a2.6,2.6,0,0,1,.55-1.69,2.37,2.37,0,0,1,3.34,0,2.56,2.56,0,0,1,.57,1.69,2.45,2.45,0,0,1-.57,1.63,2.42,2.42,0,0,1-3.34,0A2.49,2.49,0,0,1,782.51,54.83Zm4.12,6.37v24h-3.9v-24Z" transform="translate(0 -5.17)"/><path class="cls-19" d="M805.24,70.66l0,2.88h-2.74a10,10,0,0,0-2.54.31,6.11,6.11,0,0,0-2,.9,4,4,0,0,0-1.26,1.46,4.29,4.29,0,0,0-.43,2,5.43,5.43,0,0,0,.4,2.3,2.44,2.44,0,0,0,1.2,1.23,4.61,4.61,0,0,0,2,.38,5,5,0,0,0,2.62-.69,5.41,5.41,0,0,0,1.76-1.66,3,3,0,0,0,.59-1.82l.87,1.84a5.87,5.87,0,0,1-.57,1.88,8.09,8.09,0,0,1-1.32,1.93,6.94,6.94,0,0,1-2,1.51,5.52,5.52,0,0,1-2.56.59,8,8,0,0,1-3.65-.8,5.65,5.65,0,0,1-2.43-2.36,7.73,7.73,0,0,1-.87-3.84,8.4,8.4,0,0,1,.6-3.2,7,7,0,0,1,1.78-2.54,8.09,8.09,0,0,1,3-1.67,13,13,0,0,1,4.14-.6Zm-.62,10.45v-13a5.28,5.28,0,0,0-.43-2.29,2.67,2.67,0,0,0-1.29-1.26,5,5,0,0,0-2.14-.4,4.3,4.3,0,0,0-2.15.51A3.49,3.49,0,0,0,797.24,66a3.75,3.75,0,0,0-.48,1.87h-3.93a6.13,6.13,0,0,1,.57-2.55A7.23,7.23,0,0,1,795,63a8,8,0,0,1,2.56-1.65,9,9,0,0,1,3.37-.61,10.05,10.05,0,0,1,3.93.73,5.64,5.64,0,0,1,2.68,2.34,8.27,8.27,0,0,1,1,4.3V80a18.08,18.08,0,0,0,.19,2.56,11.8,11.8,0,0,0,.54,2.33v.35h-4.06a8.18,8.18,0,0,1-.45-1.9A17.71,17.71,0,0,1,804.62,81.11Z" transform="translate(0 -5.17)"/><path class="cls-19" d="M813.79,74.36V72.12a19.67,19.67,0,0,1,.58-5.12A10,10,0,0,1,816,63.47a6.59,6.59,0,0,1,2.55-2,8,8,0,0,1,3.29-.67,6.51,6.51,0,0,1,3.21.76,6.35,6.35,0,0,1,2.25,2.19,11.81,11.81,0,0,1,1.43,3.46,25.52,25.52,0,0,1,.7,4.58v3a26,26,0,0,1-.72,4.55,11.86,11.86,0,0,1-1.43,3.45A6.35,6.35,0,0,1,825,84.91a6.52,6.52,0,0,1-3.22.76,7.53,7.53,0,0,1-3.24-.7A7.07,7.07,0,0,1,816,82.86a10,10,0,0,1-1.65-3.53A18.84,18.84,0,0,1,813.79,74.36Zm3.93-2.24v2.24a18.56,18.56,0,0,0,.29,3.48,6.79,6.79,0,0,0,.91,2.44,3.76,3.76,0,0,0,1.59,1.43,5.27,5.27,0,0,0,2.32.47,4.29,4.29,0,0,0,2.68-.8,5.66,5.66,0,0,0,1.68-2.12,14.76,14.76,0,0,0,1-2.85V70.1a12,12,0,0,0-.65-2.19,7.94,7.94,0,0,0-1-1.88A4.6,4.6,0,0,0,825,64.71a4.29,4.29,0,0,0-2.1-.49,5.18,5.18,0,0,0-2.34.49,3.87,3.87,0,0,0-1.6,1.46,7.28,7.28,0,0,0-.91,2.47A17.76,17.76,0,0,0,817.72,72.12Zm9.5,8.44V51.12h3.91v34.1h-3.58Z" transform="translate(0 -5.17)"/><path class="cls-19" d="M836.37,74.36V72.08a15.56,15.56,0,0,1,.71-4.92,10,10,0,0,1,2-3.54,8.14,8.14,0,0,1,3-2.14,9.44,9.44,0,0,1,7.28,0,8.3,8.3,0,0,1,3,2.14,10,10,0,0,1,2,3.54,15.28,15.28,0,0,1,.71,4.92v2.28a15.28,15.28,0,0,1-.71,4.92,9.91,9.91,0,0,1-2,3.54,8.26,8.26,0,0,1-3,2.14A9.69,9.69,0,0,1,842,85a8.35,8.35,0,0,1-3-2.14,9.79,9.79,0,0,1-2-3.54A15.56,15.56,0,0,1,836.37,74.36Zm3.93-2.28v2.28a13.29,13.29,0,0,0,.4,3.47,7.39,7.39,0,0,0,1.13,2.48,4.84,4.84,0,0,0,1.71,1.5,4.52,4.52,0,0,0,2.13.5,5.1,5.1,0,0,0,2.34-.5,4.17,4.17,0,0,0,1.68-1.5,7.12,7.12,0,0,0,1-2.48,16.16,16.16,0,0,0,.33-3.47V72.08a13.21,13.21,0,0,0-.4-3.46,7.37,7.37,0,0,0-1.13-2.48,4.72,4.72,0,0,0-1.72-1.51,4.59,4.59,0,0,0-2.14-.5,4.47,4.47,0,0,0-2.11.5,4.67,4.67,0,0,0-1.7,1.51,7.78,7.78,0,0,0-1.12,2.48A13.21,13.21,0,0,0,840.3,72.08Z" transform="translate(0 -5.17)"/><path class="cls-19" d="M872.56,61.2l4.77,18.65,1,4.33-2.8,1.51L868.28,61.2ZM876,82.74l5.36-21.54h4.17l-7.93,27.73a19,19,0,0,1-.76,1.92,10.14,10.14,0,0,1-1.21,2,6.26,6.26,0,0,1-1.76,1.52,4.73,4.73,0,0,1-2.39.58,5.39,5.39,0,0,1-1.08-.13c-.44-.09-.75-.16-.95-.22V91.24l.43.05a2.82,2.82,0,0,0,.42,0,4.63,4.63,0,0,0,2-.37,3.29,3.29,0,0,0,1.39-1.22,7.83,7.83,0,0,0,1-2.34Z" transform="translate(0 -5.17)"/><path class="cls-19" d="M912.22,70.66l0,2.88h-2.73a10,10,0,0,0-2.54.31,6.16,6.16,0,0,0-2,.9,4,4,0,0,0-1.25,1.46,4.3,4.3,0,0,0-.44,2,5.59,5.59,0,0,0,.4,2.3,2.48,2.48,0,0,0,1.2,1.23,4.64,4.64,0,0,0,2,.38,4.93,4.93,0,0,0,2.62-.69,5.35,5.35,0,0,0,1.77-1.66,3.1,3.1,0,0,0,.59-1.82l.86,1.84a6.09,6.09,0,0,1-.56,1.88,8.09,8.09,0,0,1-1.32,1.93,7.22,7.22,0,0,1-2,1.51,5.56,5.56,0,0,1-2.57.59,8,8,0,0,1-3.65-.8,5.76,5.76,0,0,1-2.43-2.36,7.73,7.73,0,0,1-.87-3.84,8.4,8.4,0,0,1,.6-3.2,7.14,7.14,0,0,1,1.78-2.54,8.09,8.09,0,0,1,3-1.67,13.08,13.08,0,0,1,4.14-.6Zm-.63,10.45v-13a5.14,5.14,0,0,0-.43-2.29,2.67,2.67,0,0,0-1.29-1.26,5,5,0,0,0-2.14-.4,4.26,4.26,0,0,0-2.14.51A3.58,3.58,0,0,0,904.21,66a3.75,3.75,0,0,0-.48,1.87H899.8a6.13,6.13,0,0,1,.57-2.55A7.39,7.39,0,0,1,902,63a8,8,0,0,1,2.57-1.65,9,9,0,0,1,3.36-.61,10.05,10.05,0,0,1,3.93.73,5.62,5.62,0,0,1,2.69,2.34,8.27,8.27,0,0,1,1,4.3V80a19.69,19.69,0,0,0,.19,2.56,11.76,11.76,0,0,0,.55,2.33v.35h-4.07a7.75,7.75,0,0,1-.44-1.9A17.82,17.82,0,0,1,911.59,81.11Z" transform="translate(0 -5.17)"/><path class="cls-19" d="M925.54,65.82V94.46h-3.93V61.2h3.57ZM939,72.12v2.24a20.9,20.9,0,0,1-.52,5,10.32,10.32,0,0,1-1.53,3.53A6.5,6.5,0,0,1,934.44,85a7.78,7.78,0,0,1-3.35.7,7.05,7.05,0,0,1-3.28-.73,6.45,6.45,0,0,1-2.33-2.09A11.4,11.4,0,0,1,924,79.53a23.37,23.37,0,0,1-.74-4.37V71.74a26.31,26.31,0,0,1,.73-4.58,11.57,11.57,0,0,1,1.48-3.46,6.48,6.48,0,0,1,2.33-2.19,6.75,6.75,0,0,1,3.25-.76,8.26,8.26,0,0,1,3.41.67,6.21,6.21,0,0,1,2.49,2A10,10,0,0,1,938.46,67,22.41,22.41,0,0,1,939,72.12ZM935,74.36V72.12a17.76,17.76,0,0,0-.3-3.48,6.89,6.89,0,0,0-.94-2.47,4.11,4.11,0,0,0-1.62-1.46,5.2,5.2,0,0,0-2.36-.49,4.22,4.22,0,0,0-2.07.49A4.77,4.77,0,0,0,926.2,66a7.63,7.63,0,0,0-1.06,1.88,11.15,11.15,0,0,0-.62,2.19v6.73a14.13,14.13,0,0,0,1,2.67,5.63,5.63,0,0,0,1.68,2,4.45,4.45,0,0,0,2.68.77,5.1,5.1,0,0,0,2.33-.49,4,4,0,0,0,1.61-1.47,7.27,7.27,0,0,0,.93-2.49A18,18,0,0,0,935,74.36Z" transform="translate(0 -5.17)"/><path class="cls-19" d="M948.25,51.12v34.1h-3.91V51.12Z" transform="translate(0 -5.17)"/><path class="cls-19" d="M954.56,54.83a2.6,2.6,0,0,1,.55-1.69,2.37,2.37,0,0,1,3.34,0,2.56,2.56,0,0,1,.57,1.69,2.45,2.45,0,0,1-.57,1.63,2.42,2.42,0,0,1-3.34,0A2.49,2.49,0,0,1,954.56,54.83Zm4.13,6.37v24h-3.91v-24Z" transform="translate(0 -5.17)"/><path class="cls-19" d="M973.23,82.31a4.87,4.87,0,0,0,2.14-.47A3.84,3.84,0,0,0,977,80.33a5.88,5.88,0,0,0,.71-2.7h3.69a8.54,8.54,0,0,1-1.21,4.21,8,8,0,0,1-6.92,3.83,10,10,0,0,1-4.05-.76,7.09,7.09,0,0,1-2.84-2.19,9.57,9.57,0,0,1-1.68-3.48,18,18,0,0,1-.56-4.68v-2.7a18,18,0,0,1,.56-4.68,9.57,9.57,0,0,1,1.68-3.48,7.09,7.09,0,0,1,2.84-2.19,10,10,0,0,1,4.05-.76,8.29,8.29,0,0,1,4.23,1,7.18,7.18,0,0,1,2.8,3,10.93,10.93,0,0,1,1.1,4.7h-3.69a8,8,0,0,0-.64-3,4,4,0,0,0-1.51-1.77,4.31,4.31,0,0,0-2.29-.59,5.37,5.37,0,0,0-2.56.54,3.94,3.94,0,0,0-1.59,1.57,7.08,7.08,0,0,0-.81,2.44,19.24,19.24,0,0,0-.24,3.18v2.7a19.36,19.36,0,0,0,.24,3.19,7.28,7.28,0,0,0,.8,2.45,3.8,3.8,0,0,0,1.58,1.57A5.51,5.51,0,0,0,973.23,82.31Z" transform="translate(0 -5.17)"/><path class="cls-19" d="M998.3,70.66l0,2.88h-2.73a10,10,0,0,0-2.54.31,6.27,6.27,0,0,0-2,.9,4,4,0,0,0-1.25,1.46,4.29,4.29,0,0,0-.43,2,5.43,5.43,0,0,0,.4,2.3A2.42,2.42,0,0,0,991,81.71a4.64,4.64,0,0,0,2,.38,4.9,4.9,0,0,0,2.62-.69,5.35,5.35,0,0,0,1.77-1.66,3.1,3.1,0,0,0,.59-1.82l.86,1.84a5.83,5.83,0,0,1-.56,1.88A8.09,8.09,0,0,1,997,83.57a7.22,7.22,0,0,1-2,1.51,5.56,5.56,0,0,1-2.57.59,8,8,0,0,1-3.65-.8,5.76,5.76,0,0,1-2.43-2.36,7.74,7.74,0,0,1-.86-3.84,8.21,8.21,0,0,1,.6-3.2,7,7,0,0,1,1.77-2.54,8.14,8.14,0,0,1,3-1.67,13,13,0,0,1,4.14-.6Zm-.63,10.45v-13a5.14,5.14,0,0,0-.43-2.29A2.67,2.67,0,0,0,996,64.53a5,5,0,0,0-2.14-.4,4.26,4.26,0,0,0-2.14.51A3.58,3.58,0,0,0,990.29,66a3.74,3.74,0,0,0-.47,1.87h-3.94a6.13,6.13,0,0,1,.57-2.55,7.39,7.39,0,0,1,1.63-2.3,8,8,0,0,1,2.57-1.65,9,9,0,0,1,3.36-.61,10.05,10.05,0,0,1,3.93.73,5.62,5.62,0,0,1,2.69,2.34,8.27,8.27,0,0,1,1,4.3V80a19.69,19.69,0,0,0,.19,2.56,11.76,11.76,0,0,0,.55,2.33v.35h-4.07a7.75,7.75,0,0,1-.44-1.9A17.82,17.82,0,0,1,997.67,81.11Z" transform="translate(0 -5.17)"/><path class="cls-19" d="M1006.84,74.36V72.12a20.11,20.11,0,0,1,.58-5.12,10.05,10.05,0,0,1,1.65-3.53,6.59,6.59,0,0,1,2.55-2,8,8,0,0,1,3.28-.67,6.46,6.46,0,0,1,3.21.76,6.3,6.3,0,0,1,2.26,2.19,12.09,12.09,0,0,1,1.43,3.46,25.52,25.52,0,0,1,.7,4.58v3a28,28,0,0,1-.72,4.55,11.86,11.86,0,0,1-1.44,3.45,6.33,6.33,0,0,1-2.26,2.17,6.55,6.55,0,0,1-3.22.76,7.5,7.5,0,0,1-3.24-.7,6.9,6.9,0,0,1-2.54-2.11,10.24,10.24,0,0,1-1.66-3.53A19.27,19.27,0,0,1,1006.84,74.36Zm3.93-2.24v2.24a18.56,18.56,0,0,0,.29,3.48,7.19,7.19,0,0,0,.91,2.44,3.88,3.88,0,0,0,1.59,1.43,5.33,5.33,0,0,0,2.32.47,4.32,4.32,0,0,0,2.69-.8,5.74,5.74,0,0,0,1.67-2.12,14.77,14.77,0,0,0,1-2.85V70.1a12.82,12.82,0,0,0-.65-2.19,7.94,7.94,0,0,0-1.05-1.88,4.74,4.74,0,0,0-1.54-1.32,4.25,4.25,0,0,0-2.09-.49,5.19,5.19,0,0,0-2.35.49,3.79,3.79,0,0,0-1.59,1.46,7.28,7.28,0,0,0-.92,2.47A17.76,17.76,0,0,0,1010.77,72.12Zm9.51,8.44V51.12h3.9v34.1h-3.57Z" transform="translate(0 -5.17)"/><path class="cls-19" d="M1029.42,74.36V72.08a15.27,15.27,0,0,1,.72-4.92,10.09,10.09,0,0,1,2-3.54,8.31,8.31,0,0,1,3-2.14,9.18,9.18,0,0,1,3.62-.73,9.28,9.28,0,0,1,3.67.73,8.35,8.35,0,0,1,3,2.14,10,10,0,0,1,2,3.54,15.56,15.56,0,0,1,.71,4.92v2.28a15.56,15.56,0,0,1-.71,4.92,9.78,9.78,0,0,1-2,3.54,8.23,8.23,0,0,1-3,2.14,9.69,9.69,0,0,1-7.28,0,8.3,8.3,0,0,1-3-2.14,9.78,9.78,0,0,1-2-3.54A15.27,15.27,0,0,1,1029.42,74.36Zm3.93-2.28v2.28a13.27,13.27,0,0,0,.41,3.47,7.2,7.2,0,0,0,1.13,2.48,4.75,4.75,0,0,0,1.71,1.5,4.52,4.52,0,0,0,2.13.5,5.1,5.1,0,0,0,2.34-.5,4.3,4.3,0,0,0,1.68-1.5,7.52,7.52,0,0,0,1-2.48,16.16,16.16,0,0,0,.33-3.47V72.08a13.21,13.21,0,0,0-.4-3.46,7.57,7.57,0,0,0-1.13-2.48,4.72,4.72,0,0,0-1.72-1.51,4.63,4.63,0,0,0-2.15-.5,4.52,4.52,0,0,0-2.11.5,4.64,4.64,0,0,0-1.69,1.51,7.36,7.36,0,0,0-1.12,2.48A13.19,13.19,0,0,0,1033.35,72.08Z" transform="translate(0 -5.17)"/></g></g></g></svg>