<svg id="Capa_1" data-name="Capa 1" xmlns="http://www.w3.org/2000/svg" viewBox="0 0 258.9 230.48"><defs><style>.cls-1{fill:#c7895e;stroke:#c7895e;stroke-miterlimit:10;}</style></defs><path class="cls-1" d="M56.71,17.7c8.29,0,16.57-.09,24.85.05,2.82.05,4.68-.42,5.63-3.54C88.78,9,92.73,6.82,98,6.82q31.18,0,62.36,0c5.53,0,9.56,2.23,11.26,7.58.9,2.86,2.54,3.38,5.24,3.36,16.57-.11,33.13-.06,49.69,0,7.25,0,9.62,1.59,12.24,8.23,2.86,7.22,5.71,14.44,8.46,21.7.89,2.37,1.86,4,4.92,4,4.6,0,6.29,3,6.35,7.39.1,8-.68,9.94-6,10.82-2.48.41-3.33,1.18-3.58,3.71-3.65,37.31-7.45,74.62-11.15,111.93-.82,8.21-3.34,10.69-11.55,10.7-12.34,0-24.67,0-37,0-2.4,0-3.24.58-4.47,3.08-2.74,5.6-7.66,9.72-12.84,13.25-1.67,1.14-3.64.48-5.28-.54a15.8,15.8,0,0,1-4.09-3c-5.09-6.2-10.72-4.26-16.56-1.45a3.72,3.72,0,0,0-2.45,3.44,22.58,22.58,0,0,1-.65,4c-1,4,.45,9.51-4.26,11.19-5.88,2.1-12.34,1.38-18.51.27-1.68-.3-2.76-1.9-3.12-3.69a27.64,27.64,0,0,1-.87-5c-.1-6.51-2.29-11.07-9.39-12.65-2.51-.56-4.21-.94-6.39.71C86.93,216,88.8,215.55,76.81,203.56c-1.18-1.18-2.87-2.58-3-4-.22-4-2.74-3.43-5.26-3.43q-18.25,0-36.51,0c-7.66,0-10.41-2.57-11.15-10Q15.33,130,9.72,73.74C9.49,71.4,9,70.27,6.31,69.85.8,69-.13,66.89,0,59.24c.09-4.59,1.86-7.65,6.71-7.7,2.78,0,3.78-1.34,4.64-3.62,2.85-7.57,5.92-15.07,8.78-22.65,2-5.24,5.59-7.69,11.22-7.6C39.81,17.8,48.26,17.7,56.71,17.7ZM89,106.44c-.91.68-1.72,1.21-2.45,1.84-8.46,7.28-8.56,7.36-1.72,16.36,2.84,3.74,3.17,6.62,1.76,11.62-2.77,9.83-8.77,12.84-17.77,13-1.26,0-3.29-.33-3.67,1a28.52,28.52,0,0,0-.23,12.5c.44,2.57,3.67,1.65,5.69,2.07,6,1.23,11.47,1.06,14.7,9.15s2.34,13.2-3.11,18.65c-3.38,3.38-3.35,5.91.49,9.29,6.25,5.49,6,5.78,12.8.82,1.5-1.09,3.05-2.12,4.47-3.31,2.07-1.73,3.93-1.37,6.48-.65,9.9,2.78,16.09,8.1,15.26,19.23a9,9,0,0,0,.43,2,1.62,1.62,0,0,0,1.72,1.49c4,0,8.43,1.2,12-.55,2.3-1.15,1.49-5.21,2-8,.35-2,.62-4,.94-6s1.54-2.94,3.35-4c9.2-5.18,17.75-6.11,25.35,2.76.22.25.58.35.83.58,1.27,1.17,2.22.72,3.48-.26,8.78-6.88,9.07-7.69,2.46-16.32-3.23-4.21-3.53-7.43-1.82-13,2.78-9.06,8.21-11.81,16.38-11.88,4.46,0,5.62-2,5.42-6.24-.5-11.16,1.5-8-9-10.18-2-.41-4-.72-6-1a4,4,0,0,1-3.41-2.54c-6.51-13.37-6.53-13.35,2-25.33.75-1.07,2.11-3,1.82-3.31-2.71-3.21-5.4-6.61-8.75-9-2.31-1.69-4.3,1.38-5.83,2.79-5.6,5.19-10.72,6.44-18.33,2.74-5.62-2.75-8.22-5.38-8.95-11.42-1.12-9.32-1.5-9.08-10.92-9.24-3.68-.06-5.43,1.12-5.39,4.71.1,8.78-3,14.47-12.4,17-4.75,1.3-8,2-11.69-1.41C94.83,110.31,91.9,108.57,89,106.44ZM213.44,70.17c-8.95,0-17.91.11-26.86-.07-3.2-.06-4.36.84-4.6,4.19-.64,8.75-1.61,17.49-2.7,26.2-.55,4.42-.27,8.14,3.65,11.2,3.13,2.44,3.08,5.79.74,9q-3,4.09-6,8.18a4,4,0,0,0-.89,4.11c2.07,6.2,4.6,11.52,12.63,10.69,1.45-.15,3,.46,4.48.72,3.47.6,5.43,2.58,5.48,6.17q.08,6.58,0,13.18c-.05,3.13-1.83,5-4.76,5.75a22.93,22.93,0,0,1-6,1c-5.86-.14-9,2.48-10.75,8.13-1.94,6.09,1.63,12.25,8.08,12.27q19.26,0,38.52,0c7.2,0,7.39-.14,8.09-7.1q5.53-54.93,11.08-109.87c.3-2.94-.38-3.87-3.35-3.82C231.35,70.26,222.4,70.17,213.44,70.17ZM45.27,70.08c-8.61,0-17.23.18-25.83-.08-3.87-.12-4.77.92-4.34,4.85,2.46,22.3,4.6,44.64,6.85,67q2.22,21.9,4.46,43.81c.26,2.52.4,5.21,4.09,5.2,14.69,0,29.37,0,44.06-.06,3.11,0,8.38-6.66,7.41-9.25-2.15-5.75-3.92-11-12.22-11.45-10.48-.58-10.42-1.52-10.43-11.82,0-13.1,0-13.06,12.88-15.05,2.08-.32,4.58,0,6.11-1.8a12.86,12.86,0,0,0,.23-16c-.7-1-1.39-1.92-2.08-2.87-4.35-6-4.33-7.31.82-12.49a6.44,6.44,0,0,0,2.23-5.76c-1.13-9.88-2.22-19.78-3-29.71-.29-3.82-1.9-4.69-5.43-4.59C62.49,70.24,53.88,70.08,45.27,70.08Zm84.12-7.93H84.82c-2.14,0-4.49-.56-4.07,3.15C82,76.53,83.08,87.78,84.31,99c.1,1-.18,3,1.53,2.53,6.14-1.86,9.27,3,13.27,5.7a10.62,10.62,0,0,0,16.33-6.84c2.26-12.32-.4-13.94,16.15-13.6,8.71.19,9.75,1,11,9.54.48,3.12,0,6.71,2,9.21,3.1,3.87,11.4,4.09,15.71,1.18,3.4-2.3,6.25-6.34,11-5.42,2.85.56,2.61-.74,2.78-2.49,1.06-10.75,2-21.51,3.37-32.22.49-3.72-.38-4.58-4-4.54C158.77,62.25,144.08,62.15,129.39,62.15ZM81.76,42.64H177L166.05,15a3.75,3.75,0,0,0-.24-.44c-.78-1.19-1.81-2.14-3.3-1.93-2,.29-1.34,2.05-1.38,3.24-.11,3.38.08,6.77-.11,10.13-.29,4.88-3.2,7.89-8.1,7.93q-23.56.2-47.14,0c-4.84,0-7.74-3.16-8-8-.17-3.21,0-6.43-.11-9.63-.06-1.29,1-3.34-1.44-3.63a3.34,3.34,0,0,0-3.51,2.4C89.1,24.1,85.53,33.16,81.76,42.64Zm47.61,13.92q26.58,0,53.15,0c2.8,0,5.22.35,5.25-3.94s-1.82-4.54-5.21-4.53q-53.42.13-106.83,0c-3.32,0-5.24.23-5.23,4.48s2.41,4,5.2,4Q102.54,56.54,129.37,56.56Zm0-44.1H113.75c-10.91,0-10.75,0-10.78,10.79,0,4.22,1.53,5.62,5.66,5.56,11.62-.19,23.26,0,34.89-.08,13.95-.1,12,2.1,12.25-13,0-2.83-1.14-3.35-3.59-3.31C144.59,12.53,137,12.46,129.42,12.46ZM59.72,23.15H45.53c-9.93,0-9.74,0-9.79,10,0,4.15,1.6,5.18,5.41,5.08,8.44-.2,16.89-.06,25.34-.06,11.77,0,11.67,0,15.64-11.18,1.1-3.06.46-3.9-2.64-3.84C72.9,23.23,66.31,23.15,59.72,23.15Zm140.09,0H186.68c-11.7,0-11.57-.06-7.32,11,1.25,3.27,3,4.16,6.35,4.08,8.92-.23,17.85,0,26.77-.1C224.16,38,222.8,40.18,223,27.19c0-3.06-.89-4.19-4-4.1C212.61,23.28,206.21,23.15,199.81,23.15Zm-7.72,20.56c-.58,7.78,3.87,8.13,9.53,7.88,8.91-.39,17.86,0,26.79-.13,4.52-.06,11.18,1.95,13-.78,2.22-3.29-2.38-8.4-3.83-12.79-1.32-4-3.08-7.82-4.64-11.73-.6-1.52-1.58-2.87-3.3-2.53-1.88.38-1,2.21-1.09,3.41-.14,2,0,4,0,6.06-.07,7.92-2.7,10.56-10.71,10.6C209.25,43.75,200.66,43.71,192.09,43.71Zm-125.62,0H46C31,43.71,30.34,43,30.14,28c0-1.49,1.12-3.83-1.1-4.36s-3,1.7-3.71,3.42c-2.66,6.72-5.14,13.52-8,20.17-1.41,3.31-.87,4.33,2.85,4.28,12.29-.17,24.6-.34,36.89.06C62.87,51.8,66.76,50.91,66.47,43.71ZM183.06,64a11.57,11.57,0,0,0,2.18.52c21.57,0,43.13,0,64.7.09,2.85,0,3.21-1.28,3.28-3.67.07-2.73-.62-3.87-3.62-3.84-13.14.14-26.31.6-39.41-.13C200.4,56.4,191.63,58.23,183.06,64ZM75.71,62.91c-3.22-1.28-7.11-.33-8.83-3.33C65.55,57.25,63.72,57,61.4,57c-17,.06-34.09,0-51.14,0-2.55,0-4.88-.51-4.86,3.66,0,4,2.07,3.8,4.76,3.79q30.37-.09,60.76-.13C72.29,64.38,73.88,64.89,75.71,62.91Z"/><path class="cls-1" d="M148.91,137.67c-.82,2.42,1.14,6.56-2.79,6.66-3.78.11-7.24-2.34-10-5.15-.32-.33-.12-1.24-.07-1.88.1-1.52,3.37-1.56,1.72-4-2.17-3.19-3.23-7.25-6.24-9.72-2.46-2-4.7-.42-6.16,2.14Q121.24,133,117,140.19c-1.08,1.86-2.17,4.52-4.87,2.85s-.78-3.9.25-5.73c2.9-5.15,5.76-10.31,8.88-15.32,4.09-6.57,11.94-6.58,16.11-.12,1.47,2.27,2.72,4.66,4.07,7,1,1.68,1.48,2.91,4.39,2.59C150.81,130.92,148.19,135.4,148.91,137.67Z"/><path class="cls-1" d="M165,171.62c0,5.38-3.35,9.18-8.33,9.6-2.85.24-5.73.07-8.6.12-2.09,0-4.44-.6-4.67,2.88a2.08,2.08,0,0,1-3.18,1.45c-2.77-1.58-5.38-3.45-8-5.24a1.17,1.17,0,0,1-.51-.84c0-4.86,4.74-5,7.42-7.19,1.86-1.49,4.08-1.2,4.48,1.65.29,2,1.5,1.89,2.83,1.89,3,0,6.09.17,9.11-.05,3.74-.28,5.05-2.56,3.27-5.89-2.86-5.35-6-10.55-9-15.82-1-1.8-2.29-3.85.2-5.25s3.54.94,4.53,2.63c3.09,5.22,6.11,10.49,9.14,15.75C164.48,168.79,165.2,170.32,165,171.62Z"/><path class="cls-1" d="M112.22,181.27c-3.37,0-6.76.23-10.11-.05a8.9,8.9,0,0,1-7.46-12.91c1.18-2.59,2.78-5,4.17-7.5.91-1.66,2.54-3.27-.22-5a2,2,0,0,1-.14-3.15,27.69,27.69,0,0,1,9.29-4.92c1.16-.38,2.29.62,2.64,1.87a29.09,29.09,0,0,1,.62,9.53,2.35,2.35,0,0,1-2.88,2.15c-1.32-.16-2.69-1.84-3.68.51-1.6,3.82-5.41,6.77-5.13,11.24.14,2.29,2.46,2.85,4.69,2.83,5.9-.06,11.8,0,17.69,0,2.14,0,4.42.2,4.34,2.94-.08,2.48-2.34,2.47-4.22,2.49-3.2,0-6.4,0-9.6,0Z"/></svg>