<svg id="Capa_1" data-name="Capa 1" xmlns="http://www.w3.org/2000/svg" viewBox="0 0 144.69 131.52"><defs><style>.cls-1{fill:#fff;}</style></defs><path class="cls-1" d="M102.41,36c.09,1.78-.87,3.38-1.76,5a8.46,8.46,0,0,0-1,5.92c.75,4,.2,7.51-3.83,9.63-1.05.55-.36,1.25-.11,1.86q2.32,5.49,4.69,10.94c.38.88.84,1.77.12,2.69s-1.72.65-2.65.48a30.22,30.22,0,0,1-4.74-1c-1.7-.58-2.54,0-3.28,1.48a44.73,44.73,0,0,1-2.66,4.32c-1.32,2-2.75,1.86-3.71-.29-1.44-3.22-2.85-6.45-4.17-9.72-.91-2.28-3-2.14-4.76-2.4-1.65-.23-2.63.63-3.32,2.22-1.81,4.17-3.81,8.27-5.73,12.39-.4.87-.72,1.81-1.89,1.91s-1.73-.9-2.26-1.78c-.08-.12-.14-.25-.22-.38-1.18-1.75-1.63-4.52-3.45-5.15s-4.14.42-6.23.79c-1.1.19-2.21.59-3-.52s-.1-2,.32-2.88c1.91-4.14,3.8-8.28,5.78-12.38.58-1.19.67-1.79-.79-2.44-3.77-1.66-5.23-4.46-4.52-8.53a11.77,11.77,0,0,0-1.31-8C45.5,35.85,46,33,49.67,29.78a12.35,12.35,0,0,0,4-7.08c1-4.62,3.34-6.6,8-6.61a11.36,11.36,0,0,0,7.46-2.67c3.92-3.13,6.73-3.12,10.71.05a11.44,11.44,0,0,0,7.48,2.63c4.46,0,7.08,2.11,7.88,6.47A11.46,11.46,0,0,0,99.5,30,7.24,7.24,0,0,1,102.41,36ZM53,45.22c-.06.81-.09,1.62-.19,2.42-.55,4.26-.29,4.88,3.75,6.47a13.26,13.26,0,0,1,6.7,5.74c2,3.29,3,3.7,6.52,2.47a13.62,13.62,0,0,1,9.46,0c3.3,1.16,4.44.73,6.22-2.25a13.52,13.52,0,0,1,7-6.05c3.79-1.44,4.27-2.13,3.63-6.13a13.78,13.78,0,0,1,1.77-9.29c1.65-3,1.48-4.12-1.11-6.33a14.19,14.19,0,0,1-5-8.56c-.6-3.29-1.64-4.13-4.92-4.12A13.5,13.5,0,0,1,78,16.49c-3-2.47-4-2.49-6.94,0a13.36,13.36,0,0,1-8.91,3.18c-3.37,0-4.46.85-5.07,4.25a13.65,13.65,0,0,1-4.83,8.37c-2.65,2.25-2.72,3.3-1.11,6.54C52.11,40.81,53.34,42.79,53,45.22ZM67.67,66.43c-5.28.21-6.74-4-9.27-7.28L53,70.77a12.05,12.05,0,0,0,4.53-.52,2.7,2.7,0,0,1,3.39,1.63c.65,1.29,1.47,2.5,2.36,4Zm28.46,2.09c-1.39-3.23-2.67-6-3.8-8.88-.56-1.44-1.16-1.25-2-.3a16.08,16.08,0,0,0-1.27,1.79c-1.38,2.2-2.77,4.36-5.5,5.1-.67.18-.75.57-.49,1.15.8,1.78,1.57,3.56,2.51,5.68,1-1.57,1.81-2.76,2.51-4a2.5,2.5,0,0,1,3.24-1.44C92.77,68,94.23,68.16,96.13,68.52Z"/><path class="cls-1" d="M75.07,95.76c.88,0,1.48-.56,2.16-1,4.58-2.64,9.15-5.32,13.72-8a19.35,19.35,0,0,1,7-2.69A6.41,6.41,0,0,1,105.07,88a6.49,6.49,0,0,1-2.68,8.07Q88.71,104.56,75,113a12,12,0,0,1-9.76,1.29q-8.84-2.35-17.67-4.71a2.8,2.8,0,0,0-2.32,0c-.93.51-1.28.89-.71,2,1.71,3.36,1.15,5-2.14,6.83-6.33,3.61-6.94,3.44-10.52-2.9q-5.16-9.12-10.3-18.24c-1.79-3.17-1.23-5.07,2-6.9,1-.55,1.91-1.1,2.88-1.62,2.56-1.38,4.53-1,6,1.46.68,1.09,1.16,1.16,2.2.53,3.34-2,6.76-3.87,10.11-5.86a13.22,13.22,0,0,1,12.43-1.08,74,74,0,0,0,12.81,4C73.69,88.52,75.07,90.83,75.07,95.76Zm-3.16,4.45c-4.59-.24-8.91-1.77-13.3-2.93-1.26-.33-2.6-.71-2.19-2.41s1.83-1.35,3-1c2.92.74,5.81,1.57,8.73,2.28,1.53.37,2.87,0,3.25-1.75s-.62-2.85-2.27-3.17A76.08,76.08,0,0,1,55.74,87a9.73,9.73,0,0,0-9.05.76c-3.43,2-6.85,4-10.31,5.93-1,.58-1.36,1.06-.68,2.2q2.94,4.92,5.65,10c.62,1.16,1.24,1.27,2.18.53,1.36-1.09,2.78-.94,4.36-.5,5.94,1.66,11.91,3.2,17.86,4.81A8.8,8.8,0,0,0,73,110c9.15-5.6,18.27-11.24,27.41-16.84a3,3,0,0,0,1.38-3.79c-.54-1.6-1.94-1.91-3.43-1.7a14.84,14.84,0,0,0-5.5,2.15c-4.89,2.85-9.78,5.68-14.65,8.55A12.79,12.79,0,0,1,71.91,100.21Zm-30,13.87c-.28-.49-.55-1-.84-1.51l-10.17-18c-1.89-3.33-1.84-3.24-5.22-1.45-1.47.78-1.63,1.43-.8,2.85,3.61,6.21,7.11,12.48,10.65,18.73,1.47,2.6,1.48,2.62,4.11,1.09C40.43,115.34,41.45,115.14,41.91,114.08Z"/><path class="cls-1" d="M106.55,36.88c0-3,0-5.89,0-8.83,0-1.32-.38-1.91-1.76-1.77a2.42,2.42,0,0,1-2.73-1.42,2.73,2.73,0,0,1,.76-3c2.68-3.12,5.31-6.3,8-9.41,1.53-1.76,2.85-1.73,4.41.07,2.69,3.12,5.32,6.3,8,9.42a2.7,2.7,0,0,1,.64,3,2.27,2.27,0,0,1-2.57,1.31c-1.74-.22-1.85.75-1.84,2.1.05,5.67,0,11.33,0,17,0,3.23-1,4.21-4.22,4.23-1.62,0-3.24,0-4.86,0-2.79,0-3.82-1-3.87-3.89S106.56,39.82,106.55,36.88Zm.14-14.05c3.1-.45,3.46,1.1,3.44,3.16-.06,5.44,0,10.89,0,16.33,0,3.76,0,3.66,3.7,3.78,1.76,0,2.22-.5,2.19-2.22-.1-5.81,0-11.62-.07-17.43,0-2.2.16-3.95,3.2-3.88-1.94-2.29-3.65-4.29-5.33-6.33-.56-.68-1-.71-1.55,0C110.57,18.27,108.85,20.27,106.69,22.83Z"/><path class="cls-1" d="M35.83,49.6c-6.22,0-6.35-.13-6.35-6.24,0-5,0-10,0-15,0-1.38-.14-2.29-1.86-2.08A2.4,2.4,0,0,1,25,24.82c-.56-1.23.06-2.12.8-3,2.62-3.08,5.21-6.18,7.87-9.24,1.68-1.93,2.89-1.95,4.54-.05,2.71,3.11,5.35,6.27,8,9.41a2.52,2.52,0,0,1,.71,2.81,2.36,2.36,0,0,1-2.66,1.51c-1.64-.2-1.91.58-1.89,2,.07,5.51,0,11,0,16.54,0,4-.78,4.75-4.77,4.76ZM29.66,22.71c2.88-.17,3.44,1.16,3.4,3.3C33,31.44,33,36.87,33,42.3c0,3.8,0,3.72,3.83,3.79,1.51,0,2-.34,2-1.93-.1-6,0-12-.08-18-.05-2.23.53-3.56,3.33-3.46-2-2.33-3.74-4.36-5.46-6.44-.61-.75-1-.57-1.52.06C33.44,18.3,31.72,20.29,29.66,22.71Z"/><path class="cls-1" d="M57.27,38.89a17.23,17.23,0,1,1,34.45,0,17.23,17.23,0,0,1-34.45,0ZM74.74,25.2a13.67,13.67,0,0,0-.55,27.34,13.67,13.67,0,1,0,.55-27.34Z"/><path class="cls-1" d="M28.24,97.21a1.47,1.47,0,0,1-1.58-1.48,1.38,1.38,0,0,1,1.48-1.53,1.32,1.32,0,0,1,1.44,1.32A1.49,1.49,0,0,1,28.24,97.21Z"/><path class="cls-1" d="M71.14,45.18a2.5,2.5,0,0,1-.9-.43C68.8,43.38,67.39,42,66,40.55a1.6,1.6,0,0,1-.12-2.37A1.72,1.72,0,0,1,68.44,38c.12.09.23.2.34.29,3,2.54,3,2.53,5.8-.06,1.8-1.64,3.6-3.26,5.39-4.9,1-.88,2-1.54,3-.32s.24,2.14-.7,3l-9,8.15A2.51,2.51,0,0,1,71.14,45.18Z"/></svg>