<svg xmlns="http://www.w3.org/2000/svg" viewBox="0 0 189.91 130.8"><defs><style>.cls-1{fill:#c8895e;stroke:#c8895e;stroke-miterlimit:10;stroke-width:0.5px;}</style></defs><g id="Capa_2" data-name="Capa 2"><g id="Capa_1-2" data-name="Capa 1"><path class="cls-1" d="M99.42,81.77c-3.59-1.49-4.08-3.61-3.71-7a20.47,20.47,0,0,0,0-2.82c0-.42,0-.84,0-1.26,0-3.65,0-5.32-1-6s-2.55,0-6,1.48c-2,.84-3.29,1.39-3.7,1.12s-.4-1.62-.4-3.68v-.5c0-1.06,0-2.12,0-3.18,0-1.24-.31-2-.92-2.38a2.4,2.4,0,0,0-2.38.28,5.35,5.35,0,0,0-.54.34c-.61.43-.91.64-1.47,0-4.72-5.74-11-7.62-17.11-8.79-3.28-.63-5.66-.49-8.14,2.17-.47.5-1.1,1.18-1.67,1.17a1.15,1.15,0,0,1-.77-.52c-3-3.91-6.62-3.22-10.46-2.49l-.69.13a24.68,24.68,0,0,0-13.95,7.23l-.17.18c-1,1-1.51,1.6-3,.63a2.08,2.08,0,0,0-2.15-.38c-.66.37-1,1.3-1,2.62,0,1.77,0,3.53,0,5.48v2.26l-2-.82c-1.61-.67-3.05-1.27-4.5-1.85-2-.82-3-1.11-3.74-.65s-.82,1.51-.84,3.56l0,1.4c0,2.32-.06,4.72,0,7.08s-.28,3.51-2.74,4.59A10.49,10.49,0,0,0,.26,90.39,8.89,8.89,0,0,0,5,98.79c4.47,2.35,4.37,5.14,4.22,9,0,.82,0,1.66,0,2.47a27.37,27.37,0,0,1,0,3.39c-.28,2.71.75,4.2,3.53,5.14,7.29,2.45,14.65,5.06,21.77,7.59,3,1.07,6,2.15,9.08,3.21a15.36,15.36,0,0,0,4.39.88c1.12.05,2.2.08,3.26.08a41.53,41.53,0,0,0,17-3.27c3.21-1.4,6.6-2.54,9.89-3.64,1.74-.58,3.54-1.19,5.29-1.82a37.1,37.1,0,0,1,3.74-1c3-.72,6.1-1.48,7.76-3.69s1.43-5.61,1.09-8.77a32.5,32.5,0,0,1-.26-4c0-2.3.31-3.48,2.61-4.34,3.57-1.36,5.72-4.4,6-8.58C104.68,86.72,102.89,83.21,99.42,81.77Zm-38.8,3c0-2.19.61-3.16,2.63-4,9.3-3.7,17.83-7.26,26.08-10.88a5.29,5.29,0,0,1,1.88-.55.85.85,0,0,1,.48.13c.35.25.45,1,.34,2.28a25.63,25.63,0,0,0,0,4.11c.23,2.77-.18,4.38-3.06,5.49-3.59,1.38-5.6,4.76-5.53,9.26s2.17,7.69,6.06,9.32c2.08.87,2.72,1.88,2.54,4a23,23,0,0,0,.15,4.05c.24,2.49.46,4.84-.74,6.54s-3.74,2.34-6.19,2.92a29.79,29.79,0,0,0-3.25.9c-5,1.82-10,3.55-15.26,5.37l-6.08,2.12v-8.75c0-2.83,0-5.66,0-8.49C60.69,100.8,60.71,92.72,60.62,84.77Zm40,5.7a6.85,6.85,0,0,1-2,4.92,6.76,6.76,0,0,1-4.79,2,6.65,6.65,0,0,1-4.76-2,6.87,6.87,0,0,1-1.94-5,6.76,6.76,0,0,1,6.61-6.71h.14a6.63,6.63,0,0,1,4.67,1.9A6.84,6.84,0,0,1,100.64,90.47Zm-24.35-19L63.8,76.61,58.5,78.8l0-.07,4.07-2.91L79.71,63.58a7,7,0,0,1,.76-.46h0C81.79,69,81.59,69.23,76.29,71.43ZM48,120.54c0-5.1,0-10.29,0-15.3,0-6.44,0-13.09-.07-19.63a3.37,3.37,0,0,1,.6-2.49,3.1,3.1,0,0,1,2.26-.58h.7c2.8.07,4.21.1,4.83.76s.63,2.23.63,5.07v16.55c0,1.8,0,3.6,0,5.4,0,4.5,0,9.15.07,13.73a3,3,0,0,1-.53,2.21,3,3,0,0,1-2.23.5c-1.16,0-2.12,0-2.91,0-1.75,0-2.72,0-3.07-.37s-.32-1.27-.28-2.92C48,122.64,48,121.7,48,120.54Zm1-64.46-.3.27c-.64.66-1.33,1.3-2,1.92l-.57.53a3.85,3.85,0,0,1-.77-2.68A4.15,4.15,0,0,0,45,54.66c-.2-.56-.41-1.13-.24-1.49a1.16,1.16,0,0,1,.74-.48,1.64,1.64,0,0,1,.48-.07c.84,0,1.48.71,2.21,1.52a9.57,9.57,0,0,0,1.05,1.06c.15.12.24.23.24.31S49.2,55.9,49,56.08Zm-6.35,6c.29,1.39.79,2.18,1.51,2.42s1.57-.08,2.61-1a18.13,18.13,0,0,0,1.9-2.08c1.24-1.51,2.41-2.94,3.79-2.78s2.68,1.61,3.95,3a26.43,26.43,0,0,0,1.87,1.93c.93.83,1.75,1.13,2.44.91s1.2-1,1.47-2.28c.23-1.05.41-2.12.59-3.16.11-.63.22-1.27.34-1.91.35-1.91.64-2.94,1.2-3.26s1.68-.05,3.62.64a17.52,17.52,0,0,1,2.32,1c3.33,1.7,5.57,3.11,5.67,4.49s-1.82,3-4.74,5.1l-4.5,3.2c-4,2.86-8.21,5.81-12.24,8.82-1.51,1.13-2.46,1.12-4,0C42.7,71.41,36.23,66.8,30,62.54c-1-.67-1.45-1.21-1.48-1.71s.34-1.07,1.21-1.86a19.34,19.34,0,0,1,10.09-5.19c1.14-.17,1.32.44,1.54,1.55l0,.22c.23,1.08.42,2.19.61,3.27S42.42,61,42.64,62.05Zm16.81-5.7a10,10,0,0,0-.67,2c-.35-.24-.72-.45-1.08-.65-1.41-.79-2.25-1.35-1.78-2.68a4.73,4.73,0,0,1,2.34-2.42,1.22,1.22,0,0,1,.41-.07.89.89,0,0,1,.52.16C60.5,53.64,60.14,54.69,59.45,56.35ZM24.14,65.49a12.64,12.64,0,0,0,.42-2.34L46.44,78.74l0,.07c-2-.83-4-1.64-6-2.45-5-2-10.22-4.14-15.19-6.48C23.38,69,23.61,67.65,24.14,65.49Zm20.12,33c0,1.8,0,3.61,0,5.41s0,3.69,0,5.54c0,4.57,0,9.3.06,13.94,0,1.1-.11,1.74-.43,2s-1,.15-2-.24c-8.71-3.16-17.67-6.31-26.65-9.37-1.73-.59-2.62-1.28-2.38-3.22a26.07,26.07,0,0,0,0-4.84c-.23-3.9-.06-6.64,4.25-9a8.78,8.78,0,0,0,4.54-8.25,10.8,10.8,0,0,0-6.28-9.37c-2.13-1-2.74-1.91-2.53-3.92a25.85,25.85,0,0,0,0-5.21c-.09-1-.13-2.14.32-2.47a.81.81,0,0,1,.48-.12,5.46,5.46,0,0,1,2,.57c7.71,3.42,16,6.88,26.07,10.91,2,.82,2.71,1.82,2.66,4C44.22,89.37,44.24,94,44.26,98.51ZM15.74,85.67a6.77,6.77,0,0,1,2.06,4.85,6.91,6.91,0,0,1-6.59,6.82,6.92,6.92,0,0,1-7.08-6.65,6.8,6.8,0,0,1,11.61-5Z"/><path class="cls-1" d="M189.65,47.07q0-14.12,0-28.22c0-9-5.44-14.58-14.15-14.64-17.29-.13-35.24-.13-53.33,0-8.76.06-14.21,5.65-14.22,14.6q0,19.61,0,39.21,0,20.49,0,41c0,6.72,2.93,11.31,8.71,13.64.86.35,1.31.67,1.44,1s0,.82-.51,1.64c-1.11,2-2.19,4-3.21,6.23a7.34,7.34,0,0,1-.51.85c-.61.94-1.46,2.23-.12,3.48a1.85,1.85,0,0,0,1.29.54,4.08,4.08,0,0,0,2.09-.86c.24-.15.47-.3.69-.42,5.73-3,12.47-6.61,19.09-10.27a9.88,9.88,0,0,1,5-1.27h.06c11.22,0,22.36,0,32.74,0,9.51,0,15-5.46,15-14.91s0-18.61,0-27.92V47.07Zm-69.4,71.07c.77-1.51,1.54-3,2.33-4.51.61-1.16.74-1.92.45-2.54s-1-1-2.26-1.28c-6.48-1.31-9.13-4.52-9.13-11.09,0-26,0-52.72,0-79.48,0-7.49,3.73-11.31,11.08-11.33,17.9-.06,35.48-.06,52.25,0,7.17,0,11,3.85,11,11.06,0,25.86,0,52.73,0,79.85,0,7.21-3.8,11-11,11.05-10.67,0-22.11,0-33.48,0h-.1a11.92,11.92,0,0,0-6,1.55c-3.84,2.14-7.78,4.25-11.6,6.29L119.48,120l-.11-.11Z"/><path class="cls-1" d="M28.54,47.13a6.21,6.21,0,0,0,6.61-.81,8.64,8.64,0,0,0,2.27-2.86c.22-.39.45-.79.71-1.16a17.43,17.43,0,0,0,14.29,7.21h.74a16.8,16.8,0,0,0,13.53-7.34c.19.3.36.61.53.92a9.84,9.84,0,0,0,2.36,3.12A6.08,6.08,0,0,0,76.5,47c2-1,2.63-3.13,1.81-5.63C76.6,36.22,76,30.78,75.48,25.51c-.25-2.35-.51-4.79-.87-7.18C72.91,6.88,65.26.46,53.06.26h-.69C40,.25,32.64,6,30.51,17.46c-.57,3.07-.94,6.21-1.29,9.25A79.85,79.85,0,0,1,26.44,42,4,4,0,0,0,28.54,47.13ZM52.39,4h0C63.78,4,69.91,9.4,71.16,20.58c.15,1.37.29,2.74.42,4.12.53,5.49,1.08,11.16,3,16.56l0,.12c.4,1.13.61,2-.26,2.39-1.49.71-2.6-.6-3-1.19-1.71-2.5-2.07-5.35-2.46-8.36l-.12-.92c-.48-3.59-2.5-6.43-4.46-9.17-.73-1-1.48-2.07-2.13-3.14a2.45,2.45,0,0,0-2.24-1,6.42,6.42,0,0,0-1.2.12,3.64,3.64,0,0,1-4.39-2.24c-.52-1.13-1.14-1.71-1.85-1.71h0c-.49,0-1.2.29-1.86,1.66a3.64,3.64,0,0,1-4.35,2.28c-1.9-.31-3.16.07-3.74,1.15a36.56,36.56,0,0,1-2.37,3.68c-1.75,2.48-3.57,5.06-3.95,8.37l-.07.56c-.3,2.66-.62,5.42-1.93,7.83-1.12,2.06-2.18,2.69-3.57,2.09-1-.42-.86-1.08-.33-2.36a7,7,0,0,0,.28-.75c2-6.45,2.57-13.05,3-19.26C34.41,10,40.92,4,52.39,4ZM44,25.71c.41-.58.82-1.15,1.21-1.72.18-.28,1.13-.24,1.9-.22,1.08.05,2.21.09,2.82-.48,1.63-1.5,2.9-.89,4.38-.17a4.93,4.93,0,0,0,3.12.73c2.87-.61,3.48,1.09,4.19,3a15,15,0,0,0,.63,1.54,16.1,16.1,0,0,0,1,1.61,6.09,6.09,0,0,1,1.5,4.09c-.51,7.42-4.85,11.53-12.22,11.58-3.93,0-7.16-1.13-9.34-3.35a11.19,11.19,0,0,1-3-8.35C40.3,30.87,42.18,28.24,44,25.71Z"/><path class="cls-1" d="M125.52,21.82l.58,0c5.87,0,11.84,0,17.61,0h11.48c5.74,0,11.67,0,17.51,0a5.64,5.64,0,0,1,.69,0c.27,0,.56,0,.84,0a2.13,2.13,0,0,0,1.48-.45,1.8,1.8,0,0,0,.53-1.38,1.83,1.83,0,0,0-.49-1.44,3.15,3.15,0,0,0-2.4-.49c-.2,0-.41,0-.58,0-14.89,0-30.13,0-46.6,0h-.51a3.11,3.11,0,0,0-2.41.54,1.92,1.92,0,0,0-.47,1.5,1.7,1.7,0,0,0,.51,1.22A3,3,0,0,0,125.52,21.82Z"/><path class="cls-1" d="M174.25,61.09l-.3,0a7.29,7.29,0,0,0-1.14,0h-9.54c-12,0-24.47,0-36.7,0a3.87,3.87,0,0,1-.74,0,3.26,3.26,0,0,0-2.52.45,1.86,1.86,0,0,0-.47,1.51,1.83,1.83,0,0,0,.57,1.36,2.38,2.38,0,0,0,1.62.48c.32,0,.64,0,1,0a7.81,7.81,0,0,1,.81-.05c5.66.05,11.42,0,17,0H168.2c1.82,0,3.71,0,5.57,0,.84,0,2.42,0,2.53-1.76S175.11,61.18,174.25,61.09Z"/><path class="cls-1" d="M125.06,86.19l.64,0h.55c15.13,0,30.81,0,46.61,0a2.92,2.92,0,0,1,.51,0,3.2,3.2,0,0,0,2.41-.53,2,2,0,0,0,.48-1.5,1.76,1.76,0,0,0-.5-1.27,2.93,2.93,0,0,0-2.19-.4c-.2,0-.41,0-.59,0-5.95,0-12,0-17.86,0H143.89c-5.74,0-11.68,0-17.52,0a6.39,6.39,0,0,1-.72,0,3.09,3.09,0,0,0-2.31.39,1.84,1.84,0,0,0-.54,1.37,1.86,1.86,0,0,0,.47,1.44A2.45,2.45,0,0,0,125.06,86.19Z"/><path class="cls-1" d="M125.57,43.3c.14,0,.3,0,.4,0l23.41,0,23.71,0h.4a3.09,3.09,0,0,0,2.29-.52,1.78,1.78,0,0,0,.48-1.37,1.75,1.75,0,0,0-.49-1.34,2.87,2.87,0,0,0-2.18-.46h-.52c-5.95,0-12,0-17.86,0H143.62c-5.79,0-11.78,0-17.67,0h-.5a2.89,2.89,0,0,0-2.19.47,1.78,1.78,0,0,0-.48,1.36,1.81,1.81,0,0,0,.49,1.34A3.09,3.09,0,0,0,125.57,43.3Z"/></g></g></svg>