<svg xmlns="http://www.w3.org/2000/svg" viewBox="0 0 162.03 162.05"><defs><style>.cls-1{fill:#c8895e;}</style></defs><g id="Capa_2" data-name="Capa 2"><g id="Capa_1-2" data-name="Capa 1"><path class="cls-1" d="M122.12,71c-3.88-5.15-7.56-10-11.19-14.92-.67-.9-1.27-.8-2.12-.33C91,65.74,69.5,54.6,65.51,36.26c0-.17-.26-.31-.61-.72-3.73,3.19-7.45,6.4-11.21,9.57-1.1.92-.45,1.62.11,2.39a29.1,29.1,0,0,1,5.4,14,4.49,4.49,0,0,0,1.93,3.38c3.81,2.84,7.54,5.77,11.23,8.75,1.26,1,2.19,1.41,3.88.56a10.45,10.45,0,0,1,13.31,3,10.68,10.68,0,0,1-.06,13.19,10.74,10.74,0,0,1-18.94-9c.26-1.28.3-2.12-.84-3-3.45-2.59-6.83-5.28-10.56-8.17-.32.93-.6,1.64-.81,2.38A29.71,29.71,0,0,1,25.54,94.3C11.94,92.61.71,80.39,0,66.54a29.62,29.62,0,0,1,24-30.82c2.41-.47,3.26-1.24,3-3.58a31.18,31.18,0,0,1,0-4.43c.13-3.56.3-6.59-4-8.71C19,17,18,11.32,19.64,6.94a10.79,10.79,0,0,1,20.59,1.5A10.31,10.31,0,0,1,35.11,20c-2.29,1.15-2.94,2.48-2.78,4.84.18,2.73.1,5.48,0,8.22,0,1.5.33,2.23,2,2.47a27.06,27.06,0,0,1,13,5.46,2,2,0,0,0,3-.1Q57,35.07,63.78,29.38a4.23,4.23,0,0,0,1.3-3.08A29.74,29.74,0,0,1,92.41.07c14.65-1,27.4,8.46,31,23a4,4,0,0,0,2.38,3q8.3,3.89,16.49,8a3.56,3.56,0,0,0,3.75-.22,10.52,10.52,0,0,1,13.23,2.2,10.75,10.75,0,0,1-11.64,17.28,10.36,10.36,0,0,1-7-11.42c.31-2.13-.28-2.93-2.07-3.73-4-1.8-8-3.77-12-5.75-1.63-.82-2.41-1.1-2.7,1.33a28,28,0,0,1-8,16.48c-1,1-1.36,1.77-.32,3.11,4,5.07,7.8,10.23,11.59,15.43a3.61,3.61,0,0,0,3.19,1.5c16.23.65,28.69,13.25,29,29.26a29.76,29.76,0,0,1-27.9,30c-10.92.72-19.73-3.76-26.08-12.65-1.47-2-2.38-2.23-4-.55a8.6,8.6,0,0,1-1,.76c-7.69,5.78-7.66,5.77-6,15a2.57,2.57,0,0,0,1.74,2c5.59,2.71,11.2,5.38,16.77,8.14a3,3,0,0,0,3.16-.28c4.85-2.64,10.09-1.74,13.51,2.14a10.76,10.76,0,1,1-18.68,5.45c.26-1.68,0-2.4-1.55-3.09-4.49-2.06-9-4.19-13.36-6.48-1.85-1-2.35-.47-3,1.35-3.68,10.71-11,17.66-22.11,20-16.53,3.5-32.07-7-35.28-23.64-.46-2.37-1.33-3-3.47-2.75a22.84,22.84,0,0,1-3.79,0c-3.91-.28-7.19-.25-9.55,4.18-2.15,4-7.83,4.92-12.16,3.15a10.79,10.79,0,0,1,1.67-20.49c4.43-1.1,9.56.8,11.57,5,1.23,2.59,2.76,3,5.15,2.83,3.05-.16,6.47.78,9.07-.32s1.78-5.14,2.92-7.76c4.74-10.9,12.86-17.46,24.62-18.76C73,101.63,82.15,106,88.86,115.09c1.51,2,2.24,2.25,4.44.77,5.16-3.46,8.06-6.62,7.07-14.13C98.51,87.56,107,76.78,122.12,71Zm-44-23.81c1.13-7.29,3.56-9.34,10.79-9.35,4.63,0,9.27-.07,13.9.07a8,8,0,0,1,7.74,6.28c.24.94.32,1.93.5,3,10-8.76,10.34-24.72.93-34.4a24.24,24.24,0,0,0-35.25.44C67.67,23.07,68.2,38.89,78.08,47.21Zm3.1,102.65C88.44,144,91,133,87.49,123.78c-3.89-10.13-13.21-16.11-24.3-15.59A24.25,24.25,0,0,0,41.38,126c-2.41,8.79.75,19.47,7,23.62,1.25-7.19,3.56-9.1,11-9.11,3.9,0,7.8,0,11.7,0C77.7,140.5,80.51,143.05,81.18,149.86Zm64.93-32.51c9.91-8.11,10.34-24.35,1.13-34.11a24.3,24.3,0,0,0-35.49.31c-9,9.7-8.35,26.07,1.24,33.66,1.94-7.79,3.69-9.12,12.05-9.13h10.12C142.48,108.1,144.76,110,146.11,117.35Zm-100-35.11c7-5.41,9.71-16.67,6.36-25.77A24.24,24.24,0,0,0,6.16,59.06C4,67.62,7.26,78.29,13.31,82c.34-4.42,2.08-8.11,6.73-8.77a72.11,72.11,0,0,1,19.19,0C44,73.85,45.77,77.67,46.13,82.24Zm48.56-39c-2.53,0-5,0-7.58,0-1.92.05-3.41,1-3.33,3s-1.42,4.91,2,6.11a25.9,25.9,0,0,0,17.31,0c3.48-1.18,1.88-4,2-6.12s-1.36-3-3.25-3C99.53,43.14,97.11,43.2,94.69,43.2ZM65,145.87c-2.53,0-5-.05-7.57,0-1.92,0-3.43,1-3.35,3s-1.43,4.93,2,6.12a26.06,26.06,0,0,0,17.3,0c3.47-1.17,1.93-3.94,2.07-6.1s-1.35-3-3.25-3C69.82,145.81,67.4,145.87,65,145.87Zm64.6-21.8c2.9.18,5.61-.63,8.37-1.35,3.74-1,2.39-3.91,2.42-6.18s-1.75-3.12-3.88-3.12H124.82c-5.63,0-6.06.53-6,6.15a2.71,2.71,0,0,0,2.09,3A23.66,23.66,0,0,0,129.59,124.07Zm-99.79-35a35.56,35.56,0,0,0,8.35-1.5c3.81-1.11,2.14-4,2.25-6.24s-1.63-2.92-3.66-2.91c-4,0-8,0-12,0-5.61,0-5.83.33-5.84,5.91a2.86,2.86,0,0,0,2.25,3.17A28.84,28.84,0,0,0,29.8,89.05ZM151.19,37.93a5.33,5.33,0,0,0-5.3,5.44,5.46,5.46,0,0,0,5.25,5.24,5.34,5.34,0,0,0,5.4-5.36A5.17,5.17,0,0,0,151.19,37.93ZM86.34,83.88a5.32,5.32,0,0,0-10.62-.43,5.32,5.32,0,1,0,10.62.43Zm40.5,67.3a5.31,5.31,0,1,0-10.61.16,5.31,5.31,0,0,0,10.61-.16ZM35,10.82a5.19,5.19,0,0,0-5.13-5.3A5.3,5.3,0,1,0,35,10.82ZM16.1,132.28a5.22,5.22,0,0,0-5.53-5.22,5.18,5.18,0,0,0-5.07,5.36,5.3,5.3,0,1,0,10.6-.14Z"/><path class="cls-1" d="M105.24,21.51A10.62,10.62,0,0,1,94.78,32.35,10.83,10.83,0,0,1,83.7,21.72,11,11,0,0,1,94.57,10.8,10.76,10.76,0,0,1,105.24,21.51Zm-5.33,0a5.32,5.32,0,0,0-5.55-5.2,5.17,5.17,0,0,0-5.15,5.22A5.38,5.38,0,0,0,94.54,27,5.52,5.52,0,0,0,99.91,21.53Z"/><path class="cls-1" d="M75.55,124.28A10.62,10.62,0,0,1,64.62,135,10.8,10.8,0,0,1,54,124.21a11,11,0,0,1,10.69-10.78A10.81,10.81,0,0,1,75.55,124.28ZM65,129.64A5.51,5.51,0,0,0,70.19,124,5.32,5.32,0,0,0,64.51,119a5.23,5.23,0,0,0-5,5.36A5.44,5.44,0,0,0,65,129.64Z"/><path class="cls-1" d="M129.69,102.59a10.77,10.77,0,0,1-.26-21.54,10.77,10.77,0,1,1,.26,21.54Zm0-5.41a5.28,5.28,0,0,0,5.25-5.46,5.16,5.16,0,0,0-5.18-5.18,5.34,5.34,0,0,0-5.49,5.26A5.44,5.44,0,0,0,129.67,97.18Z"/><path class="cls-1" d="M19,56.69a10.78,10.78,0,0,1,21.55.08A10.78,10.78,0,1,1,19,56.69Zm16.06,0a5.34,5.34,0,0,0-5.44-5.32,5.43,5.43,0,0,0-5.21,5.27,5.32,5.32,0,0,0,5.32,5.43A5.24,5.24,0,0,0,35,56.67Z"/></g></g></svg>