<svg id="Capa_1" data-name="Capa 1" xmlns="http://www.w3.org/2000/svg" viewBox="0 0 144.69 131.52"><defs><style>.cls-1{fill:#fff;}</style></defs><path class="cls-1" d="M75.17,6.5c4.92,0,9.83.07,14.75,0,2.4,0,3.29.93,3.21,3.28-.11,3.24-.07,6.5,0,9.75,0,1.88-.55,3.09-2.67,3S89,23.6,89.53,24.6c1.45,2.52,2.94,5,4.49,7.49a7.13,7.13,0,0,1,1.1,4c-.05,7.08,0,14.16-.05,21.24a4.41,4.41,0,0,0,1.45,3.49c5.88,5.79,11.64,11.69,17.54,17.45A10.25,10.25,0,0,1,117.25,84c.42,2.37,1.15,4.69,1.77,7,.37,1.42.88,2.5,2.4.86,1.15-1.25,2.3-1.06,3.44.09,2.58,2.61,5.16,5.2,7.77,7.78,1.3,1.29,1.09,2.44-.12,3.65q-10.89,10.84-21.75,21.73c-1.24,1.25-2.43,1.27-3.67,0l-7.59-7.6c-.48-.48-1.14-1-.94-1.68.88-2.95-1.24-2.63-2.77-2.37-6.47,1.07-11.37-1.19-15.29-6.36-1.75-2.3-4.12-4.12-6.11-6.25-1-1-1.59-1.05-2.59,0-3.41,3.53-7,6.92-10.37,10.48a5.87,5.87,0,0,1-5,2.13c-2.4-.17-4.83,0-7.25,0-1.12,0-2,.1-1.57,1.66a2.37,2.37,0,0,1-.89,2.44c-2.49,2.46-5,4.92-7.42,7.42-1.39,1.43-2.62,1.43-4,0q-10.65-10.73-21.39-21.37c-1.53-1.52-1.52-2.74,0-4.2,2.47-2.36,4.87-4.8,7.25-7.24,1.28-1.32,2.5-1.58,3.82-.13s1.84.35,2.15-.77q1.11-4,2-8a8.59,8.59,0,0,1,2.5-4.47C37.82,72.68,44,66.45,50.18,60.29a3.51,3.51,0,0,0,1-3C51,49.13,51.11,41,51.08,32.8a3.2,3.2,0,0,1,1.23-2.34l5.83-5.84c.81-.81,1.67-1.59,0-2.43-1-.48-1.06-1.4-1.05-2.37,0-3.5.05-7,0-10.49,0-2,.85-2.87,2.86-2.85C65,6.53,70.09,6.5,75.17,6.5ZM73.59,89.64a2,2,0,0,0-1.76,1.12c-.55,1.11,0,1.91.76,2.66,3.83,3.83,7.9,7.45,11.41,11.56,3,3.55,6.39,5.08,11,4.55,2.08-.24,4.51-.86,6.29,1.29.65.79,1.18-.06,1.61-.49q6.72-6.69,13.43-13.43c.37-.38,1.11-.79.57-1.43-2.73-3.25-2.5-7.48-3.76-11.21a6.14,6.14,0,0,0-1.43-2.55Q101.47,71.47,91.23,61.2c-1-1-2.11-1.89-3.42-.63s-.46,2.4.55,3.41c2.72,2.7,5.37,5.48,8.17,8.09,1.21,1.13.67,1.71-.22,2.52s-1.38,1.78-2.71.35c-3.06-3.29-6.32-6.39-9.5-9.58-1.54-1.53-3-3.08-4.6-4.59-1-.93-2.09-1.23-3.08-.16a2,2,0,0,0,.22,2.91c.45.48.93.95,1.4,1.42,4.24,4.25,8.43,8.55,12.75,12.71,1.34,1.29.5,1.87-.32,2.77s-1.5,1.25-2.57.14c-3.77-3.9-7.64-7.69-11.47-11.52-2.24-2.24-4.49-4.47-6.72-6.71-.93-.95-2-1.38-3.07-.41s-.72,2.25.32,3.25c.42.4.82.82,1.23,1.24q8.22,8.22,16.45,16.43c1,1,1.86,1.61.38,3.13s-2.26.73-3.33-.35c-4.1-4.15-8.24-8.26-12.37-12.38-.35-.36-.7-.71-1.06-1.06-.94-.92-2-1.35-3.08-.35s-.67,2.26.34,3.25c.42.41.83.83,1.24,1.24q9,9,18.06,18c1,1,1.47,1.65.19,2.94s-2,1.1-3.13-.13c-2-2.15-4.1-4.15-6.16-6.21A3.41,3.41,0,0,0,73.59,89.64Zm-6,3.83c-1.21,1.33-2.24,2.42-3.22,3.55s-1.6,1.79-3.12.38c-1.68-1.58-.69-2.28.36-3.31,2.38-2.33,4.7-4.72,7.09-7,1-1,1.69-1.6.28-2.94s-2.1-1.27-3.13.1c-.39.53-1,.92-1.39,1.43-1,1.19-1.8,1.85-3.33.31s-.54-2.2.43-3.12c.48-.46.91-1,1.42-1.4,1.16-1,1.69-1.66.27-3.08s-2.09-.93-3.08.23c-.69.82-1.56,1.51-2.27,2.32-.88,1-1.51.37-2-.33s-2.22-1.19-1-2.3c3.15-2.86,5.47-6.33,8-9.7,1-1.35.07-1.76-.34-2.45-.76-1.3-1.22,0-1.59.39-2.81,2.73-5.64,5.45-8.3,8.31-1.15,1.25-1.77.9-2.7-.12s-1.62-1.46-.26-2.71c2.94-2.71,5.7-5.61,8.51-8.45,1-1,1.18-2.07.08-3s-2-.6-2.88.25c-.48.46-1,.93-1.42,1.4-6,6-12,12.07-18,18a11.85,11.85,0,0,0-3.49,6.11c-.64,2.81-.7,5.91-2.51,8.27-1,1.32-.72,1.84.25,2.8,4.16,4.08,8.3,8.19,12.37,12.36,1.12,1.16,2,1.94,3.3.27a2,2,0,0,1,2.1-.49c7.42,1.5,12.75-1.68,17-7.41a22.67,22.67,0,0,1,2.28-2.32C70,97,70,97,67.59,93.47ZM83.08,58.54c0-1.72.07-2.94,0-4.15s.13-2.08,1.7-1.92c1.2.13,2.72-.33,2.33,1.78s1,1.68,2.23,1.79c1.51.14,1.81-.45,1.78-1.8a85.3,85.3,0,0,1,0-10.24,22.12,22.12,0,0,0-4.58-16.54c-.65-.83-1.52-1.77-1.4-2.86.23-2.18-1-2.12-2.55-2.11-5.58.05-11.16.06-16.75,0-1.71,0-3.15-.11-2.85,2.31.1.78-.69,1.29-1.21,1.82-1.88,1.89-3.76,3.78-5.66,5.65a2.85,2.85,0,0,0-1.06,2.13c0,6.75.07,13.5,0,20.25,0,1.94,1.26,1.23,2.19,1.33,1.08.12,1.93.17,1.86-1.42-.13-2.75.07-5.51-.08-8.25-.09-1.7.69-1.84,2.07-1.86s2.11.23,2,1.89c-.23,4.43.34,8.88-.53,13.44,2.5-1.63,5.56-2.57,4.52-6.39-.16-.59.32-.78.89-.9,2.42-.5,3.08,0,3.09,2.51,0,.83,0,1.67,0,2.5A1.31,1.31,0,0,0,72,58.84c.64.26.79-.4,1.16-.68,1.39-1.07,2.3-2.31,1.93-4.22-.14-.77,0-1.62,1.11-1.42,1,.17,2.88-.61,2.72.64C78.52,56.44,81.23,56.68,83.08,58.54Zm-40.44,57c-.42-.46-.85-.95-1.32-1.42L27.2,99.94c-4.12-4.11-4.05-4-8.21,0-1.43,1.37-1.19,2.06.08,3.29,4.9,4.76,9.68,9.63,14.51,14.45,3.67,3.67,3.68,3.68,7.3,0A5.32,5.32,0,0,0,42.64,115.49Zm65.82,6.09c1.05-.94,1.56-1.35,2-1.81q7.08-7,14.13-14.13c4.18-4.18,4.14-4.14-.06-8.38-1.15-1.16-1.78-1.18-2.92,0-5,5.12-10.1,10.15-15.16,15.21-3.18,3.17-3.15,3.15,0,6.43A21.44,21.44,0,0,1,108.46,121.58ZM75.08,18.49h8.23c5.84,0,5.77,0,5.82-5.78,0-1.71-.39-2.27-2.18-2.24-6.65.11-13.3,0-20,0-6,0-5.94,0-5.94,5.91,0,1.58.37,2.17,2,2.11C67.1,18.41,71.09,18.49,75.08,18.49Z"/><path class="cls-1" d="M23,66.46c.9-19.75,9.62-34.73,27.1-44.42,1.83-1,2.47-.47,3.23,1.23s-.32,1.82-1.28,2.32a44.81,44.81,0,0,0-15.4,12.88A45.17,45.17,0,0,0,27.8,74.25c.31,1.92-.54,2-1.84,2.34-1.68.51-2-.32-2.18-1.63A57.14,57.14,0,0,1,23,66.46Z"/><path class="cls-1" d="M123.15,66.46a59,59,0,0,1-.79,8.73c-.19,1.39-.75,1.8-2.11,1.37-1.08-.34-2.19-.11-1.92-2,2.81-19.91-4.18-35.59-20.78-46.88-1.72-1.17-.83-1.88-.34-3,.76-1.72,1.67-1,2.72-.35C115,34.32,122.47,48.53,123.15,66.46Z"/><path class="cls-1" d="M31.2,66.59a41.22,41.22,0,0,1,13-30.52c.64-.62,1.31-2.07,2.49-.47.79,1.07,2.07,1.71.35,3.36-9,8.6-12.81,19.2-11.69,31.55.14,1.5-.32,1.9-1.66,2s-2.39.37-2.36-1.46c0-.33-.11-.66-.12-1C31.19,68.92,31.2,67.75,31.2,66.59Z"/><path class="cls-1" d="M115.08,66.1c0,.67,0,1.33,0,2,0,1.34.19,2.64-2,2.49-1.85-.13-2.1-.88-2-2.49A37.2,37.2,0,0,0,99.18,39c-1.68-1.6-.52-2.26.3-3.35,1.18-1.6,1.84-.21,2.5.42A41.67,41.67,0,0,1,115.08,66.1Z"/><path class="cls-1" d="M73,116.64c-2.14-.2-4.28-.47-6.43-.56C65,116,64.85,115.31,65,114s.35-2.24,2.06-2a37.46,37.46,0,0,0,12.14,0c1.85-.3,1.69,1,1.91,2.11s-.08,1.8-1.44,1.93C77.48,116.28,75.26,116.57,73,116.64Z"/><path class="cls-1" d="M75.06,106.65c.43,1.7-.52,1.93-1.9,1.88-1.22,0-2.26.09-2.13-1.75.09-1.49.16-2.41,2.11-2.36C74.92,104.46,75.3,105.15,75.06,106.65Z"/></svg>