<svg xmlns="http://www.w3.org/2000/svg" viewBox="0 0 191.78 191.69"><defs><style>.cls-1{fill:#c8895e;}</style></defs><g id="Capa_2" data-name="Capa 2"><g id="Capa_1-2" data-name="Capa 1"><path class="cls-1" d="M132,93c16.74-5.89,27.49-3.61,35.07,7.34,7.07,10.21,5.85,22.22-3.44,33.28.82,1.25,2.32,1.19,3.5,1.63a38,38,0,0,1,24.63,35.16c.05,5,0,10,0,15,0,5.61-.77,6.35-6.58,6.35H12.28c-2.74,0-5.49,0-8.23,0C1.72,191.59.15,190.32.12,188c-.18-12.46-.75-25,4-36.92,5.23-13.3,13.65-24,25.78-31.6,2.66-1.65,3.3-3.42,3.29-6.28-.1-21.08,0-42.16-.08-63.25,0-3.75.28-7.19,3.68-9.64.82-.59,1.16-1.87,1.66-2.86a49.15,49.15,0,0,1,63.12-23.13c2.76,1.17,3.67.75,4.59-2A28.89,28.89,0,0,1,113,1.78c2.29-2.38,4.46-2.36,6.73,0a31.31,31.31,0,0,1,8.14,14.09c.63,2.54,1.42,2.31,3.16,1.07,5-3.58,10.76-5.08,16.85-5.41,4.21-.23,5.83,1.23,5.58,5.43-.76,12.94-6.61,22.53-18.84,27.66-1.7.72-3,1.16-3,3.51.13,14.47.07,28.95.08,43.42A9.2,9.2,0,0,0,132,93Zm13.69,91.22c11.84,0,23.69-.07,35.53.05,2.48,0,3.21-.72,3.08-3.14-.19-3.86.12-7.74-.11-11.59-.68-11.31-6.08-19.75-15.84-25.5-2-1.22-2.75-.88-3.57,1.41-3,8.48-10.09,13.43-18.69,13.44a19.21,19.21,0,0,1-18.69-13.42c-1-2.77-2-2.36-3.89-1.25a30.37,30.37,0,0,0-15,20.48c-1.14,5.32-.34,10.7-.71,16-.19,2.73.55,3.61,3.44,3.56C122.75,184.06,134.22,184.17,145.69,184.17Zm-63.31,0H93.22c7.17,0,7.39,0,7.12-7.18-.42-10.9,1.2-21.13,8.33-29.85,1-1.24.49-1.94-.4-2.81-2.49-2.44-4.94-4.92-7.41-7.39-4.92-4.92-4.91-5.43.12-10.47,4.35-4.35,4.35-4.35-.33-8.46-.1-.08-.17-.19-.26-.27-1.64-1.29-2.91-1.7-3.93.83-2.55,6.28-7.29,9.77-14.11,9.74s-11.52-3.6-14-9.89c-.83-2.11-2-1.94-3.42-1-5,3.14-5.22,4.91-1.19,8.94.62.62,1.22,1.25,1.86,1.85,2.47,2.3,2.63,4.6.15,7.05-1.93,1.92-5.22,4-5.19,5.94s3.32,4,5.26,5.94c2.3,2.31,2.3,4.53,0,6.78-.71.7-1.41,1.41-2.11,2.12-3.85,3.84-3.85,3.84,0,7.67,5.38,5.38,5.34,5.66.09,11-1.24,1.28-3.88,2.49-3.26,4,.8,2,3,3.56,4.83,5,.64.51,1.89.36,2.87.36C72.9,184.18,77.64,184.17,82.38,184.17Zm0-128.24q19.08,0,38.17,0c1.18,0,3.11.59,3.37-.72a17.7,17.7,0,0,0,0-7.39c-.39-1.57-2.65-.77-4.06-.79-6.61-.07-13.22,0-19.83,0-2.37,0-4.26-.92-4.39-3.58s1.46-3.84,4-3.89c2-.05,4-.11,6,0,2.35.11,2.53-.76,1.49-2.6-1.29-2.29-2.65-4.81-2.56-7.35.2-6.16-3.81-8-8.56-9.34a74.08,74.08,0,0,0-8-1.92c-15.17-2.48-32.26,5.28-40.38,18.26-.45.72-1.34,1.45-1,2.3.52,1.14,1.77.59,2.69.6,5.11.06,10.23,0,15.34,0,2.21,0,4,.63,4.43,3.07.49,2.61-1.26,4.38-4.63,4.42-6.73.09-13.48.28-20.2-.07-3.89-.2-3.8,1.81-3.75,4.52s-.38,4.71,3.64,4.63C56.93,55.76,69.66,55.93,82.38,55.93Zm0,7.53c-5.48,0-11,0-16.44,0-4.73.05-6.58,1.89-6.65,6.52,0,3.11-.07,6.23,0,9.34A23.17,23.17,0,0,0,105,83.92a32.67,32.67,0,0,0,.65-7c.29-13.68-.07-13.65-13.23-13.43C89.05,63.5,85.69,63.46,82.33,63.46Zm-50,120.7c-2.59-3-5.69-5.17-2.27-8.72,2-2,5.48-3.76,5.47-6.24S32,165,30,163s-2-4.09,0-6.22,5.47-3.76,5.47-6.25S32,146.31,30,144.23,28,140.1,30,138c1.58-1.59,3.19-3.16,4.74-4.78.55-.58,1.39-1,.82-2.17-1.52-3.13-4.22-3.83-6.92-1.61-16.78,13.79-22.38,32-21.14,53,.1,1.69,1,1.68,2.23,1.68Zm113.75-51.44a17.86,17.86,0,0,0,18-18,18,18,0,0,0-36-.06A17.85,17.85,0,0,0,146.05,132.72ZM53.25,118a45.63,45.63,0,0,0-15.39,5.56c2.22,1.9,4.07,3.38,5.79,5,2.09,1.94,2.21,4.08.23,6.2s-5.38,4-5.55,6.22c-.2,2.57,3.62,4.28,5.56,6.48,1.78,2,1.88,4,0,6s-5.35,4-5.59,6.22c-.28,2.61,3.57,4.27,5.49,6.47s1.9,4.2-.11,6.24c-1.57,1.6-3.1,3.25-4.76,4.74-1.25,1.11-.86,1.75,0,3,4,5.75,9.57,3.94,15.48,3.91-2.62-2.87-5.48-5.1-2.11-8.63,1.95-2.05,5.62-3.82,5.36-6.23-.25-2.26-3.53-4.2-5.48-6.27s-1.95-4-.09-5.94,5.33-4,5.57-6.24c.3-2.68-3.6-4.3-5.52-6.54-1.74-2-1.89-4,0-6,.84-.91,1.74-1.77,2.62-2.66,3.77-3.77,3.77-3.77.06-7.47A13.25,13.25,0,0,0,53.76,127C50.82,124.56,49.42,121.88,53.25,118Zm-12.63-4.3a71.88,71.88,0,0,1,23-4.49c1.24,0,3.16,1.12,3.76-1.06.55-2-.57-3.09-2.19-4.19A29.62,29.62,0,0,1,52,82.72c-.5-3.8-.05-7.72-.38-11.56-.22-2.55,1.85-6,0-7.25s-5.29-.26-8-.49c-2.56-.22-3.12.87-3.11,3.22.09,13.59,0,27.17,0,40.76Zm83.63-30.25c0-5.75,0-11.49,0-17.23,0-1.4.16-2.83-2-2.79-2.74.07-5.49,0-8.23,0-1.28,0-1.8.45-1.47,1.81,1.15,4.67.57,9.44.5,14.16A29.48,29.48,0,0,1,103.39,101,24.78,24.78,0,0,1,99,104.44c-1.67,1-1.73,2.36-1.47,3.84.29,1.71,1.8,1,2.74,1a67.88,67.88,0,0,1,18.1,2.52c1.06.29,2,1,2.5-.85,1.6-6.2,4.49-12.11,3.49-18.85C123.9,89.26,124.25,86.34,124.25,83.47Zm-12.36,34.64c2,2.65,3.08,4.76.83,7.33-2,2.24-6.11,3.85-5.42,6.78.61,2.59,4,4.51,6.21,6.73.17.17.37.33.53.52a1.64,1.64,0,0,0,2.58.2c3.62-2.7,7.81-4.27,12.22-5.83-2.49-2.78-5.19-5.34-6-8.73C121.51,119.16,116.84,119.21,111.89,118.11ZM146,140.44h-9.71c-2,0-2.6.77-1.88,2.79a12.4,12.4,0,0,0,23.28-.06c.74-2.14-.09-2.73-2-2.73C152.52,140.42,149.28,140.43,146,140.44ZM145.39,21.3c.55-1.86-.5-1.95-2-1.71-8,1.26-15.76,9.12-17.19,17.29-.32,1.81.12,2.18,1.83,2C135.87,38,144.68,29.15,145.39,21.3ZM116.47,37.22c6.71-8.89,6.53-21.09-.26-27.26A21.07,21.07,0,0,0,116.47,37.22ZM89.88,111.7c.81-2.81-.47-3.3-3.5-2.64a23,23,0,0,1-9.24-.16c-.87-.18-2.08-.85-2.15.9-.13,3.36-.4,6.77,2.6,9.25a7.14,7.14,0,0,0,8,1C88.9,118.57,90.1,115.7,89.88,111.7Z"/><path class="cls-1" d="M86.18,43c-.18,2.33-1.43,3.81-3.7,3.83a3.43,3.43,0,0,1-3.73-3.7,3.34,3.34,0,0,1,3.44-3.58C84.57,39.42,85.79,40.77,86.18,43Z"/><path class="cls-1" d="M82.44,91.36a7.5,7.5,0,0,1-4.57-1.31c-2-1.26-3.18-3-2.09-5.32s3.09-2.86,5.27-1.53c1.2.73,2,.37,3-.17a3.34,3.34,0,0,1,4.81,1.34c1.09,1.82.63,3.6-1,5A7.82,7.82,0,0,1,82.44,91.36Z"/></g></g></svg>