<svg xmlns="http://www.w3.org/2000/svg" viewBox="0 0 198.34 135.25"><defs><style>.cls-1{fill:#c8895e;}</style></defs><g id="Capa_2" data-name="Capa 2"><g id="Capa_1-2" data-name="Capa 1"><path class="cls-1" d="M36.66,36.94c0,8.13.07,16.25,0,24.37,0,2.31.49,3.55,3.07,3.22a21.51,21.51,0,0,1,3.59,0c2.84.12,5.54.6,5.24-4-.18-2.86,2.69-3,4.82-2.7,3.71.52,5.77-.74,6.12-4.58A4.76,4.76,0,0,1,60.28,51c2.84-3.91,2.81-7.21-1.47-10.22C57,39.49,57.41,37.52,59,36c2.63-2.64,5.33-5.22,7.88-7.94,2.21-2.37,4.4-2.57,6.32,0,2.41,3.28,5,3.88,8.26,1.37a3.72,3.72,0,0,1,1.45-.64c4.68-.93,7.58-3,6.5-8.52-.43-2.21,1.22-3.42,3.42-3.45q6.19-.09,12.38,0c3,0,4,2,3.55,4.57-.74,4.24,1,6.4,5.1,7.05a4.44,4.44,0,0,1,1.85.73c3.78,2.67,7,2.63,9.91-1.45,1.44-2,3.5-1.46,5.17.22,2.63,2.64,5.24,5.31,7.92,7.9,2.22,2.14,2.24,4.35-.17,6.06-3.63,2.56-3.58,5.35-1.29,8.66a4.29,4.29,0,0,1,.79,1.82c.6,4.67,3.08,6.49,7.8,5.73,2.64-.42,4,1.19,3.79,3.83-.19,2.27,1,2.54,2.86,2.61,9.23.34,9.23.38,9.23-8.62q0-21.36,0-42.74c0-4.67.71-5.35,5.27-5.4,1.2,0,2.4-.06,3.59,0,3.64.21,6.45-.15,9-3.85,3.61-5.3,11.33-5.07,15.76-.43a10.77,10.77,0,0,1-.75,15.66c-4.71,4.08-12.78,3.58-15.77-1.85-2.47-4.47-5.9-2.92-9.19-3.18C167.75,14,168,15.45,168,16.63c0,15.18,0,30.36,0,45.54,0,1.69.53,2.41,2.28,2.35,3.46-.12,6.57.46,9.11-3.58,3.43-5.47,11.12-5.48,15.72-1a10.77,10.77,0,0,1-.49,15.94,11.09,11.09,0,0,1-16.19-2.12c-1.75-2.51-6.21-3.86-9.19-3-1.53.46-1.2,1.57-1.2,2.54,0,15,0,30.1-.05,45.14,0,2.09.63,2.81,2.72,2.74,3.39-.1,6.26.16,8.69-3.63,3.47-5.41,11.21-5.45,15.76-1a10.86,10.86,0,0,1-.52,16c-4.7,4.07-12.62,3.49-15.81-1.83-1.82-3-3.87-3.29-6.77-3.27-10.92.08-10.32,1.17-10.3-10.34,0-14.11-.07-28.23.06-42.34,0-3-.52-4.54-3.87-4a21.22,21.22,0,0,1-4.78,0c-2.4-.21-3.75.31-3.53,3.17.2,2.61-1.68,3.67-3.93,3.25-4.66-.86-6.89,1.11-7.42,5.58a4,4,0,0,1-.74,1.84c-2.72,3.6-2.31,6.53,1.46,9.22,1.92,1.38,1.89,3.43.16,5.19q-4.2,4.26-8.47,8.47c-2.14,2.12-4.24,1.54-5.77-.58-2.42-3.36-5.07-3.72-8.32-1.36a3.57,3.57,0,0,1-1.45.64c-4.83.88-7.38,3.24-6.4,8.6.41,2.23-1.27,3.31-3.5,3.31-3.86,0-7.73-.09-11.58,0-3.07.11-4.7-1.2-4.26-4.23.64-4.39-1-6.72-5.44-7.18a4,4,0,0,1-1.84-.73c-3.73-2.76-6.76-2.32-9.56,1.52-1.44,2-3.45,1.61-5.15-.1-2.53-2.56-5-5.19-7.65-7.61s-2.82-4.51,0-6.59c3.05-2.28,3.77-4.74,1.37-7.91a4.89,4.89,0,0,1-.94-2.18c-.66-4.74-3.1-6.79-8-5.94-2.43.43-3.88-1.15-3.74-3.52.15-2.73-1.22-2.9-3.38-2.92-8.33-.06-8.33-.12-8.33,8.32q0,21.38,0,42.74c0,5.1-.63,5.68-5.78,5.71a47.26,47.26,0,0,1-5.19,0c-2.78-.3-4.51.52-6.1,3.09a10.44,10.44,0,0,1-12.35,4A10.89,10.89,0,0,1,7.63,114a11,11,0,0,1,12.58,4.58c1.41,2.15,7.19,3.66,9.37,2.5,1.1-.58.81-1.57.81-2.44,0-15,0-30.09.05-45.14,0-2.09-.64-2.8-2.73-2.74-3.38.11-6.26-.16-8.69,3.63-3.46,5.4-11.22,5.45-15.76,1a10.81,10.81,0,0,1,.53-16c4.88-4.21,12.94-3.5,16,2.14,2.5,4.55,6.09,2.51,9.32,2.81,1.56.15,1.24-1.42,1.24-2.41,0-15.18,0-30.36,0-45.54,0-1.68-.5-2.42-2.27-2.35-3.45.13-6.57-.5-9.11,3.56-3.44,5.48-11.12,5.5-15.72,1A10.76,10.76,0,0,1,3.8,2.7C8.5-1.36,16.43-.77,19.61,4.56c1.82,3.05,3.88,3.27,6.77,3.25,10.9-.07,10.33-1.16,10.29,10.36C36.65,24.43,36.66,30.68,36.66,36.94Zm96.11,1.48a38.75,38.75,0,0,0-4.14-4c-1.41-1-2.15.66-2.81,1.45-2.42,2.87-4.81,3.77-8.17,1.19a20.09,20.09,0,0,0-9.5-3.93c-4.49-.61-6.27-2.86-5.69-7.3.13-1,.47-2.35-1.32-2.82-3.89-1-5.81.19-5.68,4.13.11,3.33-.84,5.15-4.51,5.6a23.81,23.81,0,0,0-11,4.53c-2.63,1.91-4.76,1.94-6.9-.62-1.55-1.87-2.81-3.6-5.57-.76-2.52,2.6-1.57,3.89.51,5.59,2.46,2,2.86,4.13.85,6.87a26,26,0,0,0-4.52,11c-.59,3.43-2.2,4.94-5.64,4.56-2.69-.29-4.3,0-4.35,3.65,0,4,2.1,3.58,4.52,3.43,3.2-.2,4.87,1,5.32,4.4a24.6,24.6,0,0,0,4.68,11.33c2,2.72,1.75,5-.87,6.84-3.18,2.24-2.08,3.87,0,6.22,2.56,2.83,3.63.4,4.89-1C75.1,96.44,77.12,96,79.86,98a24.87,24.87,0,0,0,10.61,4.41c3.72.61,5.49,2.34,4.94,6.15-.42,2.86.54,3.87,3.65,3.93,3.42.07,3.71-1.55,3.44-4.09-.36-3.55,1-5.34,4.77-5.81a22.28,22.28,0,0,0,10.6-4.39c3-2.25,5.34-1.94,7.48.93,1.76,2.35,3.09,2.33,5.29.16s2.23-3.74-.18-5.58c-2.68-2.06-2.9-4.36-.93-7.22a29.93,29.93,0,0,0,4.62-11.39c.6-3.16,2.34-4.31,5.29-4.07,2.54.2,4.11,0,4.14-3.44,0-3.65-1.71-4-4.4-3.67-3.25.37-4.93-.92-5.37-4.27a23.84,23.84,0,0,0-4.45-11c-2.19-3-1.77-5.3,1-7.54A23.44,23.44,0,0,0,132.77,38.42Zm54.68-23.26c2.8-.19,4.5-1.55,4.53-4.43s-1.46-4.51-4.3-4.6-4.6,1.2-4.69,4.15S184.45,14.93,187.45,15.16ZM6.33,10.85c0,2.77,1.56,4.51,4.28,4.64s4.64-1.16,4.76-4.13-1.58-4.86-4.45-5C8.23,6.29,6.54,7.92,6.33,10.85Zm9.06,56.52a4.31,4.31,0,0,0-4.83-4.26c-2.71.13-4.31,1.89-4.18,4.77S8.32,72.26,11,72.22,15.47,70.73,15.39,67.37ZM192,67.54a4.25,4.25,0,0,0-4.4-4.46C185,63,183,64.26,183,67.3s1.57,4.88,4.51,4.92C190.18,72.25,191.87,70.61,192,67.54ZM183,123.79c0,3.27,1.6,5.12,4.53,5.14a4.15,4.15,0,0,0,4.5-4.47c0-2.88-1.6-4.56-4.32-4.66S183.16,121.1,183,123.79Zm-167.51,1c-.26-2.73-1.66-4.58-4.69-4.56-2.82,0-4.4,1.65-4.37,4.49s1.57,4.44,4.4,4.48S15.21,127.82,15.44,124.77Z"/><path class="cls-1" d="M74.4,67.59A24.78,24.78,0,1,1,99.22,92.43,24.86,24.86,0,0,1,74.4,67.59ZM99.1,49.17a18.49,18.49,0,1,0,18.56,18.41A18.33,18.33,0,0,0,99.1,49.17Z"/></g></g></svg>