<svg xmlns="http://www.w3.org/2000/svg" viewBox="0 0 185.37 185.69"><defs><style>.cls-1{fill:#c8895e;}</style></defs><g id="Capa_2" data-name="Capa 2"><g id="Capa_1-2" data-name="Capa 1"><path class="cls-1" d="M0,100.4Q0,66.61,0,32.83c0-11,6.17-17.14,17.23-17.16,4.63,0,9.26,0,13.9,0,1.61,0,2.65,0,3.25-2.14,1.42-4.94,4.61-7,9.72-7.13,2.44,0,4.89-.07,7.33,0,4.35.12,8.16-.06,11.88-3.51C68.11-1.55,75.83-.66,80.5,4.08a7.29,7.29,0,0,0,6.08,2.35c3.85-.14,7.72-.08,11.58,0,4.93.08,8.15,2.22,9.53,6.86.61,2.05,1.5,2.49,3.44,2.44,5-.13,10-.08,15.06,0,9.49.09,15.93,6.53,16,16.09q.09,28.75,0,57.53a6.21,6.21,0,0,0,2.61,5.48c6.73,5.41,14,9.57,22.65,10.91,3.51.54,6.91,0,10.36-.44,4.26-.54,7.07,1.34,7.34,5.4,1.29,19.63-1.21,38.33-14.37,54.13C163,174.09,153,180.39,142,185.05c-.7.29-1.67.77-2.19.51-5.16-2.53-10.24.14-15.35.13q-53.28-.12-106.56-.05C5.82,185.64,0,179.76,0,167.58Zm109.94,66.68a82.77,82.77,0,0,1-8.73-12.62A59.65,59.65,0,0,1,96,140.82c-.47-1.94-1.79-1.5-3-1.51q-8.88-.06-17.77,0c-2.18,0-4-.63-4-3.08s1.76-3.15,4-3.14c5.15,0,10.31.09,15.45,0,1.43,0,3.89,1.23,3.63-2.18-.21-2.63-.63-4.25-4-4-5,.35-10,.07-15.06.1-2.19,0-4-.67-4-3.12s1.8-3.12,4-3.1c3.73,0,7.47,0,11.2,0,6.9,0,6.9,0,7.22-6.94.36-7.58,2.43-9.38,9.92-8.28a32.58,32.58,0,0,0,17.7-2.59c1.55-.65,2.42-1.45,2.41-3.38q-.11-30.51,0-61c0-2.91-1.22-4.3-4.15-4.26s-5.93.13-8.88,0c-1.79-.1-2.3.62-2.82,2.23-1.5,4.62-4.52,7-9,7-18.41.08-36.83,0-55.24,0-3.65,0-7.25-1.52-8.06-4.86-1.23-5.08-4.49-4.51-8-4.39a31.07,31.07,0,0,1-3.86,0c-3.68-.32-5,1.34-5,5q.08,61.41,0,122.83c0,4.45.62,5,5.22,5q14.67,0,29.35,0Zm69.18-46.75c0-2.19-.05-4.38,0-6.56.05-1.9-.76-2.44-2.6-2.16-13.34,2-24.43-3.26-34.51-11.22-2.17-1.71-3.26-1.63-5.36,0-10.06,8-21.15,13.2-34.5,11.16-2-.31-2.41.46-2.46,2.25-.23,9.17.14,18.28,2.62,27.17,5.29,18.94,18.9,30,35.91,37.85,1.62.75,2.72-.09,3.94-.65C167,166.93,179.42,147.65,179.12,120.33Zm-54.33,59.11c-4.55-4.42-9-6.37-15.08-6.3-28.69.33-57.39.15-86.09.14-7.88,0-11.25-3.38-11.25-11.26q0-40.92,0-81.85c0-13.89,0-27.79,0-41.69C12.44,31.66,16.09,28.09,23,28c2.58,0,5.16-.11,7.72,0,2.27.13,3.5-.22,3.43-3-.07-2.51-.73-3.31-3.26-3.21-4.88.19-9.78,0-14.67.06-6.33.08-10,3.74-10,10.19q0,68.52,0,137.05c0,6.66,3.6,10.27,10.22,10.31,8.37,0,16.73,0,25.1,0ZM71.06,37.3c8.75,0,17.5-.06,26.24,0,3.23,0,4.76-1.24,4.7-4.56-.09-5.27-.07-10.54,0-15.82,0-3.12-1.44-4.4-4.49-4.36-5,.08-10,0-15,.05a5.2,5.2,0,0,1-4.84-2.38C73.87,5,68.32,5,64.58,10.2a5.18,5.18,0,0,1-4.82,2.43c-4.76-.1-9.52-.05-14.28,0-4.5,0-5.25.73-5.27,5.06,0,4.89.11,9.78-.05,14.66-.12,3.67,1.43,5.07,5.05,5C53.83,37.21,62.45,37.3,71.06,37.3Zm58.75,60.84c2.58-2.62,6.15-3,6.15-6.76,0-20.18.06-40.37-.05-60.55a8.82,8.82,0,0,0-8.83-8.91c-5.52-.17-11,0-16.58-.06-1.51,0-2.26.26-2.38,2.07-.2,2.92.25,4.68,3.8,4.19a43.77,43.77,0,0,1,6.17-.05c8.44,0,11.71,3.24,11.72,11.58Z"/><path class="cls-1" d="M46.41,92.94c-3.85,0-7.71.07-11.56,0-4.43-.11-7-2.57-7-7q-.14-11.57,0-23.13c.06-4.4,2.58-6.87,7-7s9,0,13.5,0c2.16,0,4,.56,4.09,3,.05,2.71-2,3.25-4.27,3.22-3.85,0-7.71.09-11.56,0-2-.08-2.66.62-2.63,2.63q.17,9.64,0,19.28c0,2.14.55,2.91,2.79,2.86,6.42-.13,12.85-.14,19.28,0,2.33,0,2.73-.9,2.72-3,0-2.52-1-6.22,3.08-6.18s3,3.74,3,6.27c.08,7-2,9-8.84,9C52.84,93,49.63,92.94,46.41,92.94Z"/><path class="cls-1" d="M46.29,148.56c-3.73,0-7.45.06-11.18,0-4.69-.09-7.22-2.5-7.27-7.1q-.12-11.37,0-22.75c.05-4.68,2.5-7.14,7.15-7.22,4.49-.08,9,0,13.49,0,2.2,0,4,.68,4,3.13s-1.82,3.11-4,3.09c-3.85,0-7.71.09-11.56,0-2.11-.07-2.95.49-2.9,2.77q.21,9.63,0,19.27c0,2.31.85,2.77,2.92,2.74,6.3-.11,12.6-.15,18.89,0,2.45.06,3.07-.76,3-3.08-.09-2.54-.91-6.18,3.2-6.06,3.75.1,2.91,3.56,2.93,6,.06,7.4-1.88,9.28-9.36,9.28Z"/><path class="cls-1" d="M91.56,65.11c5.14,0,10.28,0,15.42,0,2.14,0,4.06.49,4.17,2.92.11,2.7-1.86,3.31-4.18,3.3q-15.81,0-31.61,0c-2.14,0-4.06-.49-4.17-2.93-.11-2.69,1.86-3.31,4.18-3.29C80.77,65.13,86.17,65.11,91.56,65.11Z"/><path class="cls-1" d="M91.56,77.47c5.14,0,10.28,0,15.42,0,2.15,0,4.07.49,4.17,2.93.11,2.69-1.86,3.3-4.19,3.29q-15.79,0-31.6,0c-2.15,0-4.06-.49-4.17-2.93-.11-2.7,1.86-3.31,4.19-3.29C80.77,77.49,86.17,77.47,91.56,77.47Z"/><path class="cls-1" d="M46.45,80.7a7.7,7.7,0,0,1-2.08-1c-2.15-2-4.26-4.1-6.29-6.24a2.79,2.79,0,0,1-.1-4.15c1.38-1.49,2.87-1.32,4.46-.16s2.27,3.82,4.31,3.18c1.65-.51,2.84-2.49,4.21-3.85,2.83-2.8,5.62-5.65,8.48-8.43,1.38-1.35,3-1.6,4.44-.16s1.29,3.06-.07,4.44Q56.22,72,48.52,79.61A8.07,8.07,0,0,1,46.45,80.7Z"/><path class="cls-1" d="M64.85,117.5a4.27,4.27,0,0,1-1.66,3.15c-4.63,4.64-9.31,9.24-13.9,13.92-2.07,2.11-3.92,2.06-5.9-.06-1.67-1.78-3.47-3.44-5.16-5.21-1.33-1.4-1.59-3-.15-4.44s2.93-1.15,4.46,0c4.3,3.36,4.32,3.34,8.25-.59q4.23-4.23,8.47-8.44c1.07-1.07,2.28-1.7,3.8-.92A3,3,0,0,1,64.85,117.5Z"/><path class="cls-1" d="M115.85,140.06a8.89,8.89,0,0,1,5.38-8.25c3.77-1.74,7.28-1,10.4,1.67,4.37,3.73,4.36,3.73,8.68-.38,3.26-3.1,6.5-6.24,9.84-9.26,4.21-3.8,9.89-3.65,13.47.23s3.4,9.3-.56,13.16q-10.37,10.11-21,19.93c-4.06,3.72-9,3.77-12.88.16s-7.34-7.21-10.91-10.92A8.58,8.58,0,0,1,115.85,140.06Zm19.66,13.55c1.62-.12,2.57-1.21,3.6-2.18l18.48-17.5c1.75-1.65,3.69-3.45,1.33-5.79-2.14-2.13-3.94-.39-5.59,1.17-4.84,4.61-9.74,9.16-14.54,13.82-2.18,2.12-4.13,2.29-6.25,0-1.4-1.5-2.91-2.9-4.36-4.37s-3.15-2.5-5-.75-1.13,3.45.43,5q4.64,4.63,9.27,9.28A4.22,4.22,0,0,0,135.51,153.61Z"/><path class="cls-1" d="M63.74,21.86c2.82,0,5.64,0,8.47,0,2.1,0,3.52,1.07,3.42,3.26-.09,2-1.48,2.9-3.41,2.9-5.9,0-11.8,0-17.71,0C52.41,28,51,27,51.09,24.77c.09-2,1.48-2.89,3.41-2.9C57.58,21.84,60.66,21.86,63.74,21.86Z"/><path class="cls-1" d="M84.86,21.87C86.76,22,88,23,88,25a2.78,2.78,0,0,1-2.86,3A2.82,2.82,0,0,1,82,24.91C82,23.13,83.12,22.18,84.86,21.87Z"/></g></g></svg>