<svg xmlns="http://www.w3.org/2000/svg" viewBox="0 0 191.78 191.71"><defs><style>.cls-1{fill:#c8895e;}</style></defs><g id="Capa_2" data-name="Capa 2"><g id="Capa_1-2" data-name="Capa 1"><path class="cls-1" d="M155.45,56.36c4.48,5.78,6.79,12,5.48,18.76a16.2,16.2,0,0,0,1.5,10.9c3.11,6.47,2.8,13.35.38,20-.85,2.33-.21,3.07,1.86,4.07,17.43,8.46,26.58,22.43,27,41.83.24,11.35.06,22.7,0,34.06,0,4.66-1,5.69-5.72,5.7H65.85c-5,0-5.94-1-5.94-5.85,0-13.47-.15-27,.09-40.42.06-3.33-1.07-4.2-4-4.46q-10.05-.9-20.07-2.28c-8.62-1.19-14.76-5.91-17.93-14Q9.31,102.6,1.1,80.35c-2.95-7.95.17-15.92,7.64-19.62,2.06-1,2.54-2.15,2.53-4.23-.07-16.84,0-33.68,0-50.53,0-5,.94-5.95,5.82-6H57.85c5.79,0,7.08,2.32,4.3,7.5-2,3.72-5.65,7.56-5.47,11.19.21,4.16,3.83,8.16,6,12.2.43.8.57,2,2,1.69,4.07-.91,8.21-.39,12.31-.39,2.15,0,2.41-1,2.39-2.74,0-3.24-.19-6.47.66-9.67A19.48,19.48,0,0,1,98.36,5.24q14.58-.21,29.19,0a19.46,19.46,0,0,1,19.24,19.4c.18,7.51.18,7.49,7.67,7.53,2.24,0,4.49-.26,6.7.37A12,12,0,0,1,159.51,56C158.33,56.18,157.13,56.21,155.45,56.36ZM86.16,128.51l-.85.13c0,4.31,0,8.62,0,12.93,0,2.87-.4,5.63-3.9,5.59-3.28,0-3.68-2.66-3.65-5.41.07-6.86,0-13.72,0-20.59,0-7.82,0-7.73-7.73-7.53-2.18.05-2.69.78-2.68,2.83q.09,32.56,0,65.13c0,1.8.31,2.82,2.43,2.64,2.47-.21,5.42.61,7.3-.49s.42-4.15.7-6.33c0-.13,0-.25,0-.38a3.68,3.68,0,0,1,7.31-.35,24,24,0,0,1,.13,5.22c-.1,1.82.63,2.33,2.38,2.33q25.46-.07,50.9,0c1.85,0,2.35-.69,2.31-2.41-.09-3.86-.13-7.74,0-11.6.07-2.09-.59-2.89-2.74-2.82-3.49.13-7,.08-10.48,0-2.27-.06-3.93-1.21-4-3.6-.06-2.6,1.65-3.78,4.1-3.83,3.24-.07,6.5-.18,9.73,0,2.56.14,3.45-.64,3.4-3.32-.16-8.48,0-17-.09-25.45,0-.88.54-2-.76-2.76-2.19,3.36-4.34,6.71-6.52,10-2.91,4.44-4.76,4.68-8.46,1-3.28-3.24-6.62-6.44-9.76-9.82-1.62-1.75-2.69-2-4.42-.07-3.38,3.67-7,7.15-10.56,10.61-2.78,2.68-4.88,2.45-7-.74C90.85,135.86,88.53,132.16,86.16,128.51Zm-28.55-91c-12.44,0-24.53,0-36.61,0-1.86,0-2.31.69-2.28,2.4q.11,8.61,0,17.21a2.39,2.39,0,0,0,1.85,2.73c5.58,1.76,8.72,5.83,10.62,11.19C35,81.64,39,92.23,42.69,102.93c.91,2.61,2.22,3.42,4.86,3.29,4.23-.21,8.48-.16,12.72,0,2.5.09,2.91-.75,2.32-3.07A26.08,26.08,0,0,1,65.43,82.6c1-1.63.74-3,.34-4.56a23.34,23.34,0,0,1,3.3-19.28c.48-.73,1.62-1.24,1.17-2.45C60.78,56.49,53.21,49.53,57.61,37.47Zm55.84,18.66c-7.24,0-14.48.1-21.71-.05-2.47,0-3.66.43-3.42,3.21s0,5.74.07,8.61a24.67,24.67,0,0,0,48.78,4.82c.92-4.09.29-8.22.65-12.3.28-3.26-.55-4.56-4.16-4.38C126.94,56.36,120.19,56.13,113.45,56.13ZM59.9,124.45c0-3.07-.12-5.57,0-8,.14-2.13-.62-2.81-2.74-2.76-4.73.13-9.47,0-14.19.07-3,.08-4.78-1.12-5.81-4.07-2.76-8-5.83-15.87-8.63-23.84-.68-1.94-1.37-2.56-3.39-1.61-3.37,1.59-6.85,3-10.32,4.32-1.68.66-2.23,1.34-1.47,3.29C17.33,101.87,21,112.06,25,122.1a14.06,14.06,0,0,0,11.8,9.15c4.32.58,8.65,1,13,1.5,3.21.36,7.49,2.09,9.36.67C61.41,131.67,59.54,127.16,59.9,124.45Zm106.35-5.08c0,21.49,0,42.13,0,62.78,0,1.7.7,2.09,2.23,2.07,4.36-.07,8.72-.13,13.08,0,2.15.08,2.73-.65,2.71-2.75-.11-10.58.29-21.18-.18-31.75C183.49,137,177.5,127.09,166.25,119.37ZM113,32.14h19.09c7.54,0,7.54,0,7.22-7.55C139,18,134.14,12.86,127.66,12.76c-9.73-.15-19.47-.13-29.2,0A11.77,11.77,0,0,0,87.57,21c-.89,2.56-.46,5.19-.7,7.78s.59,3.45,3.27,3.38C97.75,32,105.36,32.14,113,32.14Zm.14,7.52q-21.69,0-43.38,0c-4,0-6.07,1.58-6,4.47s2.16,4.41,6.13,4.47h85.27a17.07,17.07,0,0,0,3.72-.19,4.34,4.34,0,0,0,3.09-6.34c-1.17-2.26-3.21-2.44-5.43-2.44Q134.8,39.69,113.11,39.66Zm32.17,18.49c0,3.51.05,6.46,0,9.4-.19,10.35-4.1,19.15-12.5,25.09-4.12,2.91-5.11,5.93-4.82,10.44.15,2.45.79,3.14,3.2,3.14,7.22,0,14.46-.44,21.65.38,1.74.19,2.17-.77,2.61-2,2.5-6.83,2.44-13.5-2-19.55a6.64,6.64,0,0,1-.83-7.2C155.61,70.38,152.85,62.8,145.28,58.15ZM148.36,149v28.44c0,6.79,0,6.64,6.92,6.8,2.78.06,3.55-.66,3.53-3.49-.14-19.58-.07-39.17-.07-58.75,0-6.79,0-6.71-6.54-8-2.8-.54-4-.15-3.92,3.16C148.49,127.82,148.36,138.43,148.36,149ZM80.87,58.15C73.3,63,70.63,70.52,73.66,78c1.06,2.62,1,4.54-.74,6.85-4.28,5.76-4.52,12.18-2.45,18.86.57,1.84,1.57,2.5,3.52,2.47,7.1-.1,14.21,0,21.32,0,.84,0,1.8.26,2.48-.48,1.32-1.43,0-9.73-1.74-10.88C85.82,88,80.73,78.4,80.86,66.08,80.89,63.63,80.87,61.18,80.87,58.15ZM53.49,7.52c-11.22,0-21.68,0-32.13,0-1.79,0-2.7.29-2.66,2.41.13,6,.09,11.94,0,17.92,0,1.6.5,2.17,2.13,2.16,10.67-.05,21.34,0,32.66,0-1.55-2.84-2.69-5.29-4.14-7.53-1.6-2.49-1.73-4.71-.07-7.24C50.78,12.93,51.91,10.46,53.49,7.52ZM85.61,113.69c2.26,3.52,4,6.38,5.86,9.1,2.12,3,3.63,8.61,6.33,8.43,2.93-.19,5.53-4.83,8.37-7.41,1.37-1.25,1.25-2.12,0-3.3-1.93-1.76-3.75-3.64-5.56-5.53a3.78,3.78,0,0,0-2.93-1.31C93.92,113.72,90.2,113.69,85.61,113.69Zm55,0c-4.66,0-8.39,0-12.11,0a3.4,3.4,0,0,0-2.65,1.07c-2,2-4,4.08-6.08,6.06-1,1-1,1.74,0,2.75,2.52,2.4,4.95,4.9,7.39,7.38.83.83,1.51,1.23,2.32,0C133,125.39,136.56,119.9,140.57,113.69Zm-20-8.39c0-1.25-.07-2,0-2.74.31-2.71-.17-4-3.51-3.2a20,20,0,0,1-9.23-.16c-1.63-.38-2,0-2.25,1.7-1,6.26,1.19,11,6.22,14.68.72.53,1.38,1.32,2.18.34C116.69,112.54,122,110.65,120.54,105.3ZM15,66.55c-2.88.06-5.5,1.81-6.89,5.31-.9,2.25.26,8.71,1.67,10,.79.71,1.39.1,2-.15q5.7-2.32,11.36-4.73c.75-.31,1.59-.52,1.57-1.75C24.6,71,20.21,66.6,15,66.55Z"/><path class="cls-1" d="M81.53,156.59c2.27.39,3.79,1.63,3.66,3.93A3.44,3.44,0,0,1,81.26,164a3.35,3.35,0,0,1-3.4-3.62C77.85,158,79.38,157,81.53,156.59Z"/><path class="cls-1" d="M113.36,81.93a7.35,7.35,0,0,1-5.58-2.18,3.74,3.74,0,0,1,2.54-6.3c6.58-.33,9,.58,9,3.44,0,3.07-2.15,4.22-4.74,4.86A10.46,10.46,0,0,1,113.36,81.93Z"/></g></g></svg>