<svg id="Capa_1" data-name="Capa 1" xmlns="http://www.w3.org/2000/svg" viewBox="0 0 144.69 131.52"><defs><style>.cls-1{fill:#fff;}</style></defs><path class="cls-1" d="M91.93,65.72c0,5.59-.06,11.19,0,16.79,0,1.95-.7,2.62-2.63,2.61q-16.78-.09-33.59,0c-1.95,0-2.61-.71-2.6-2.63q.07-16.8,0-33.6c0-2,.71-2.61,2.64-2.6q16.79.09,33.59,0c2,0,2.63.7,2.6,2.63-.09,5.6,0,11.2,0,16.8ZM63.53,49.48c-1.87,0-3.74.06-5.6,0-1.3-.06-1.66.44-1.64,1.68.06,3.74,0,7.47,0,11.21,0,.66-.35,1.56.82,1.75a1.42,1.42,0,0,0,1.79-1.19,4.54,4.54,0,0,1,2-2.58,4.87,4.87,0,0,1,7.23,2.4c.41.92.75,1.57,1.88,1.36s.75-1.25.85-2a7.6,7.6,0,0,0,0-1.35c0-1.51.48-2.47,2.24-2.23,1.34.18,2.31-.4,2.28-1.78s-1-1.94-2.32-1.74c-1.62.23-2.18-.59-2.2-2a6,6,0,0,1,0-1.12c.37-2.08-.63-2.58-2.51-2.41C66.83,49.59,65.18,49.47,63.53,49.48Zm17.88,0H75.58c-.66,0-1.4-.1-1.43.93,0,.71,0,1.28.87,1.56a5,5,0,0,1,0,9.61c-.9.28-.89.86-.88,1.55,0,1,.72,1,1.41,1s1.2,0,1.8,0c1.6,0,2.63.47,2.35,2.35a1.7,1.7,0,0,0,1.66,2.18,1.73,1.73,0,0,0,1.87-2.2c-.28-1.93.78-2.36,2.36-2.33.52,0,1.05,0,1.57,0,1.09.09,1.62-.24,1.61-1.48-.06-3.88-.06-7.77,0-11.65,0-1.18-.4-1.57-1.56-1.53C85.29,49.53,83.35,49.48,81.41,49.48ZM63.65,81.93h5.83c.65,0,1.42.12,1.45-.92,0-.7,0-1.29-.85-1.57a5,5,0,0,1,0-9.61c.89-.28.91-.83.9-1.53,0-1-.69-1-1.39-1s-1.2,0-1.8,0c-1.58,0-2.64-.42-2.38-2.33.19-1.35-.47-2.25-1.85-2.2a1.71,1.71,0,0,0-1.67,2.18c.29,1.9-.75,2.38-2.35,2.35-.52,0-1.05,0-1.56,0-1.3-.14-1.66.46-1.64,1.69q.09,5.72,0,11.43c0,1.16.35,1.6,1.54,1.55C59.77,81.88,61.71,81.93,63.65,81.93ZM88.76,74.7c0-1.87,0-3.73,0-5.6,0-.66.38-1.57-.78-1.78a1.4,1.4,0,0,0-1.81,1.16A4.42,4.42,0,0,1,84.31,71c-2.7,1.88-6.06.85-7.52-2.44-.4-.91-.8-1.33-1.77-1.19-1.15.16-.83,1.05-.89,1.73,0,.52,0,1,0,1.57,0,1.49-.44,2.5-2.22,2.26-1.33-.18-2.31.37-2.3,1.75s1,2,2.3,1.77c1.79-.26,2.23.75,2.22,2.24,0,.6,0,1.2,0,1.79C74,81.62,74.56,82,75.69,82c3.89,0,7.77,0,11.66,0,1.05,0,1.46-.35,1.43-1.42C88.72,78.59,88.76,76.64,88.76,74.7Z"/><path class="cls-1" d="M72.56,43.73a17.72,17.72,0,1,1,17.7-17.67A17.68,17.68,0,0,1,72.56,43.73ZM61,34.45a11.4,11.4,0,0,1,4.71-6.89c1.34-.85,1.34-1.38.5-2.65a6.91,6.91,0,0,1,.21-8.19,7.19,7.19,0,0,1,7.65-3A7.48,7.48,0,0,1,78.5,25.5c-.32.45-1,.89-.06,1.41a12.78,12.78,0,0,1,5.66,7.5c4.48-4.9,3.75-13.77-1.37-18.78a14.56,14.56,0,0,0-20.39,0C57.21,20.67,56.49,29.57,61,34.45ZM72.61,40.6a15.53,15.53,0,0,0,7.25-2,2.15,2.15,0,0,0,1.23-2.35A8.59,8.59,0,0,0,64,36.4a2.07,2.07,0,0,0,1.15,2.17A15.26,15.26,0,0,0,72.61,40.6Zm0-15.28A4.43,4.43,0,0,0,76.87,21a4.33,4.33,0,0,0-8.65.16A4.4,4.4,0,0,0,72.62,25.32Z"/><path class="cls-1" d="M112.29,83.39a17.7,17.7,0,1,1,17.65-17.7A17.65,17.65,0,0,1,112.29,83.39Zm-11.62-9.08a12.05,12.05,0,0,1,5.49-7.6c.92-.56.54-1,.09-1.56a7.47,7.47,0,0,1,5.09-11.88,7,7,0,0,1,7.1,3.33,7.43,7.43,0,0,1,.16,8.05c-.29.55-1.79,1.09-.47,1.91a13.26,13.26,0,0,1,5.69,7.7A14.34,14.34,0,0,0,122.09,55a14.65,14.65,0,0,0-19.76,0A14.33,14.33,0,0,0,100.67,74.31Zm10.23,5.9a16.56,16.56,0,0,0,8.31-1.71,2.43,2.43,0,0,0,1.51-3,8.61,8.61,0,0,0-17,0,2.33,2.33,0,0,0,1.34,2.91A14.89,14.89,0,0,0,110.9,80.21Zm5.6-19.44a4.28,4.28,0,1,0-8.56-.09,4.28,4.28,0,0,0,8.56.09Z"/><path class="cls-1" d="M72.47,87.67a17.72,17.72,0,1,1-17.63,17.72A17.71,17.71,0,0,1,72.47,87.67ZM61,114a12.11,12.11,0,0,1,5-7.24c1.05-.67,1.18-1,.44-2.15a7.37,7.37,0,0,1,1.43-10,7.49,7.49,0,0,1,11,9.87c-.3.51-1.57,1.07-.49,1.76a13.21,13.21,0,0,1,5.75,7.76A14.34,14.34,0,0,0,82.5,94.76a14.57,14.57,0,0,0-19.74-.17A14.42,14.42,0,0,0,61,114Zm10.6,6a17.4,17.4,0,0,0,7.8-1.67,2.64,2.64,0,0,0,1.68-3.19,8.62,8.62,0,0,0-17-.11,2.62,2.62,0,0,0,1.56,3.25A16.55,16.55,0,0,0,71.57,119.94Zm.79-15.26a4.39,4.39,0,0,0,4.48-4.09,4.23,4.23,0,0,0-4-4.48,4.28,4.28,0,0,0-4.61,4.14A4.42,4.42,0,0,0,72.36,104.68Z"/><path class="cls-1" d="M50.58,65.62A17.72,17.72,0,1,1,32.83,48,17.67,17.67,0,0,1,50.58,65.62Zm-6.16,8.61C49,68.77,48.21,60.11,42.8,55.06a14.65,14.65,0,0,0-20.08.19C16.78,61,17.36,70,21.3,74.19A12,12,0,0,1,26.36,67c1.13-.69,1.06-1.14.37-2.17a7.34,7.34,0,0,1,1.49-10,7.44,7.44,0,0,1,9.66.32,7.61,7.61,0,0,1,1.28,9.6c-.32.53-1.66,1.07-.29,1.9A12.59,12.59,0,0,1,44.42,74.23Zm-10.79,6a15.24,15.24,0,0,0,6.75-2A2.05,2.05,0,0,0,41.45,76a8.63,8.63,0,0,0-16.91-1.43c-.61,2.16-.12,3.5,2.08,4.35A18.56,18.56,0,0,0,33.63,80.24ZM32.88,65a4.21,4.21,0,0,0,4.25-4.24,4.28,4.28,0,1,0-8.55,0A4.22,4.22,0,0,0,32.88,65Z"/><path class="cls-1" d="M44.88,24.55c1.5,0,3,0,4.49,0,1,0,1.77.47,1.77,1.59s-.78,1.53-1.79,1.53c-2.62,0-5.23,0-7.85,0-4.42.06-6.91,2.55-7,7,0,2.54,0,5.08,0,7.62,0,1.09-.28,2-1.57,2s-1.57-1-1.57-2c0-2.91-.14-5.84.05-8.74a9.4,9.4,0,0,1,9.2-9C42,24.48,43.46,24.55,44.88,24.55Z"/><path class="cls-1" d="M100.41,24.54c1.19,0,2.39,0,3.58,0,5.53.15,9.46,3.92,9.69,9.41.11,2.69,0,5.38,0,8.07,0,1.12-.18,2.22-1.57,2.27s-1.59-1.06-1.59-2.19c0-2.46,0-4.93,0-7.39-.07-4.45-2.55-7-7-7-2.54,0-5.08,0-7.62,0-1.06,0-2-.22-2-1.52s.9-1.61,2-1.62C97.42,24.53,98.91,24.54,100.41,24.54Z"/><path class="cls-1" d="M44.73,106.86c-1.35,0-2.69.06-4,0a9.44,9.44,0,0,1-9.28-9.13c-.16-2.83-.05-5.67,0-8.51,0-1.16.32-2.17,1.72-2.1s1.42,1.1,1.42,2.13c0,2.54,0,5.08,0,7.62.08,4.29,2.59,6.77,6.89,6.84,2.54,0,5.08,0,7.62,0,1,0,2.05.16,2.08,1.47s-1,1.68-2.14,1.68H44.73Z"/><path class="cls-1" d="M113.7,93.56c0,1.34.06,2.69,0,4a9.44,9.44,0,0,1-9.16,9.24c-2.84.14-5.68,0-8.52,0-1.07,0-2-.3-2.06-1.54,0-1.45,1-1.61,2.18-1.61,2.46,0,4.93,0,7.39,0,4.45-.06,7-2.53,7-6.94,0-2.54,0-5.08,0-7.62,0-1.06.2-2,1.5-2s1.62.88,1.64,2c0,1.5,0,3,0,4.49Z"/></svg>