<svg id="Capa_1" data-name="Capa 1" xmlns="http://www.w3.org/2000/svg" viewBox="0 0 144.69 131.52"><defs><style>.cls-1{fill:#fff;}</style></defs><path class="cls-1" d="M32.52,72.13A62.81,62.81,0,0,1,43.05,58.88c.16-.15.41-.4.37-.51-.63-1.76-2.1-2.94-3.14-4.42-.63-.89-1.32-.16-2,0-5.45,1.88-11.42.47-14.61-4.14a53.42,53.42,0,0,1-5.71-11c-1.65-4.25.32-9,4.11-11.56a10.28,10.28,0,0,1,12.13.35,10.79,10.79,0,0,0,3.44,1.8,12.82,12.82,0,0,1,6.86,19.45c-1.13,1.64-.71,2.47.29,3.69,2.27,2.77,2.23,2.79,5.27.94a43.24,43.24,0,0,1,19.45-6.41c1.74-.13,2.3-.7,2.12-2.37a35.29,35.29,0,0,1,0-3.74c-2.93,1.1-5.74,1.92-8.8,1.35a13.46,13.46,0,0,1-10.94-11.2,13.21,13.21,0,0,1,7-13.56,6.26,6.26,0,0,0,2.69-2.41,14.41,14.41,0,0,1,24.47,0,5.48,5.48,0,0,0,2.26,2.24A13.21,13.21,0,0,1,77.58,41.55c-.41-.15-.81-.32-1.2-.47-.12.18-.25.28-.26.38-.25,5.14-.25,5.19,4.65,5.95a44,44,0,0,1,18.28,7.12c1.31.9,2,.77,2.71-.53a.46.46,0,0,1,.14-.17c1.89-1.83,2.3-3.36.68-6-4.14-6.89-.29-15.83,7.43-18.3a10.64,10.64,0,0,0,3.44-1.78A10.44,10.44,0,0,1,128,42.4a9.42,9.42,0,0,0-1.7,3.24A12.84,12.84,0,0,1,109.64,54a2.18,2.18,0,0,0-3,.91c-2.45,3.25-2.5,3.21.24,6.09a71.33,71.33,0,0,1,8.37,11.2c0-1.2,0-2.39,0-3.58a7.4,7.4,0,0,1,7-7.18c3.81-.27,7.7,2.36,7.83,6.19.29,8.47,1.16,17-1.66,25.32a53.12,53.12,0,0,1-2.33,5.45c-.59,1.26-1.61,2-3,1.3a2.09,2.09,0,0,1-.93-3.17c3.49-6.44,4-13.4,3.75-20.51-.07-2.13,0-4.26,0-6.39,0-2.38-1.14-3.73-3.06-3.76s-3.11,1.3-3.12,3.68c0,4.26,0,8.51,0,12.77a17.33,17.33,0,0,1-5.3,12.85c-4,3.92-7.9,7.87-11.84,11.83-1.13,1.14-2.36,2-3.76.57s-.44-2.65.68-3.76q5.31-5.28,10.59-10.59,3.78-3.8,1.21-6.43c-1.79-1.83-3.94-1.44-6.6,1.21l-8.09,8.1A3.73,3.73,0,0,1,94.3,97.4c-9.75,1.27-16.19,7.5-17.81,17.18a29.15,29.15,0,0,0-.39,3.72c0,1.51-.55,2.72-2.18,2.74s-2.24-1.25-2.29-2.85a23.49,23.49,0,0,0-5.79-14.86A16,16,0,0,0,54.2,97.45,4.54,4.54,0,0,1,51,95.91c-2.77-2.83-5.59-5.62-8.4-8.42-2.12-2.11-4.3-2.37-6-.75s-1.47,3.91.73,6.11q5.52,5.54,11.06,11.06c.8.8,1.55,1.62,1.15,2.87a2.12,2.12,0,0,1-3.55.91c-5-4.92-10.17-9.57-14.64-14.93A15.34,15.34,0,0,1,28.1,82.69c0-4.33,0-8.66,0-13,0-2.43-1.08-3.75-3-3.8s-3.23,1.34-3.18,3.86c.14,6-.55,12,.61,18a31.66,31.66,0,0,0,9,16.59l12.3,12.3c.79.79,1.59,1.57,1.17,2.86-.55,1.72-2.36,2.11-3.85.67-2.76-2.64-5.44-5.36-8.11-8.08-2.42-2.46-5-4.83-7.16-7.46A35.19,35.19,0,0,1,17.49,82c-.06-4.19,0-8.37,0-12.55,0-4.67,3.23-8,7.57-8s7.42,3.33,7.47,8C32.53,70.38,32.52,71.25,32.52,72.13Zm12.72-8.75c.85,0,1.37,0,1.88,0a9.87,9.87,0,0,1,9.5,6.53C58,73.91,56.85,78,53.37,81a10.2,10.2,0,0,0-2.25,2.39C50.2,84.91,49,86.94,50,88.28c1.49,2.07,3,4.56,6.09,4.93,5.86.69,10.4,3.69,14,8.27a39.89,39.89,0,0,1,3.79,6.17c.56-1,1-1.77,1.39-2.51,3.46-6,8.12-10.53,15.15-11.66a10.13,10.13,0,0,0,5.9-3.3c.9-.9.7-1.44-.2-2-1.84-1.2-3.72-2.35-5.51-3.62a15.42,15.42,0,0,1,2.06-26.42c.64-.32,1.43-.39,1.89-1C78.83,47.1,56.71,50.72,45.24,63.38ZM76.07,29.61c.54-.43.77-.58,1-.76,1.1-1.06,2.33-1.44,3.45-.2s.61,2.43-.46,3.47a26.34,26.34,0,0,1-2.2,2.16c-1.57,1.2-.91,1.91.4,2.68a8.89,8.89,0,0,0,12.29-3.57A8.72,8.72,0,0,0,86.1,21.27a5.84,5.84,0,0,1-3.42-3.08A9.35,9.35,0,0,0,74,12.84,9.26,9.26,0,0,0,65.15,18a6.74,6.74,0,0,1-3.73,3.35A8.65,8.65,0,0,0,57,32.8a8.86,8.86,0,0,0,11.38,4.73c1.49-.59,1.65-1.11.42-2.17s-2.08-2.07-3.13-3.1-1.82-2.32-.57-3.62,2.65-.63,3.76.56c.78.83,1.53,1.7,2.3,2.55l.54-.29q0-4.23,0-8.48c0-1.51.53-2.68,2.2-2.69s2.23,1.14,2.22,2.66ZM113.85,83a40.92,40.92,0,0,0-13-21.52A2.64,2.64,0,0,0,98.58,61a11,11,0,0,0-9.76,8.22,10.86,10.86,0,0,0,4.56,11.9c2.1,1.47,4.44,2.59,6.32,4.37.78.74,1.19.09,1.59-.37C104.77,81.1,108.81,80,113.85,83ZM114,50.36a8.39,8.39,0,0,0,8.26-6.86A5.79,5.79,0,0,1,124,40.3a6,6,0,1,0-8.53-8.5,5.82,5.82,0,0,1-3.21,1.67A8.53,8.53,0,0,0,114,50.36ZM42.32,41.92a8.39,8.39,0,0,0-6.88-8.45,5.83,5.83,0,0,1-3.2-1.7,6,6,0,1,0-8.47,8.56,5.8,5.8,0,0,1,1.66,3.21,8.53,8.53,0,0,0,16.89-1.62Zm-8.38,41c4.09-2.32,7.75-2.31,11.11.8.52.48.84.43,1.1-.27,1-2.71,3-4.59,5-6.52a5.22,5.22,0,0,0-1-8.3c-2.85-1.63-6-.66-9-.74-.21,0-.47.33-.63.56A39.13,39.13,0,0,0,33.94,82.93Z"/><path class="cls-1" d="M105,121.11a2.35,2.35,0,0,1-2.08-1.21,2,2,0,0,1,.3-2.44q3.12-3.22,6.34-6.35a2,2,0,0,1,2.8,0,1.91,1.91,0,0,1,.48,2.74,57,57,0,0,1-6.94,7A2.74,2.74,0,0,1,105,121.11Z"/><path class="cls-1" d="M117.85,103.5c1.39.18,2.27.8,2.28,2.21a2,2,0,0,1-2,2.17,2,2,0,0,1-2.34-2C115.73,104.5,116.64,103.78,117.85,103.5Z"/><path class="cls-1" d="M61.15,84.62c-.21-5.49,1.56-9.47,6.4-11.62a9.1,9.1,0,0,1,10.32,2,9.29,9.29,0,0,1,1.91,10.36,49.81,49.81,0,0,1-2.59,4.83,8.41,8.41,0,0,1-9.53,4.13,8.6,8.6,0,0,1-6.51-8.14C61.12,85.52,61.15,84.86,61.15,84.62Zm4.41-.75c0,.67,0,1.11,0,1.55.06,2.53,1.17,4.1,3.25,4.62s3.57-.35,4.82-2.54c.62-1.08,1.23-2.17,1.8-3.28,1.33-2.63.71-5.33-1.53-6.79A5.24,5.24,0,0,0,67,78.72,7,7,0,0,0,65.56,83.87Z"/></svg>