<svg xmlns="http://www.w3.org/2000/svg" xmlns:xlink="http://www.w3.org/1999/xlink" viewBox="0 0 1219.92 553.33"><defs><style>.cls-1{isolation:isolate;}.cls-2{fill:#6c2910;}.cls-10,.cls-12,.cls-13,.cls-14,.cls-3,.cls-4,.cls-5,.cls-8,.cls-9{mix-blend-mode:multiply;}.cls-3{fill:url(#radial-gradient);}.cls-4{fill:url(#radial-gradient-2);}.cls-5{fill:url(#radial-gradient-3);}.cls-6{fill:url(#radial-gradient-4);}.cls-7{fill:#9e986f;}.cls-8{fill:url(#radial-gradient-5);}.cls-9{fill:url(#radial-gradient-6);}.cls-10{fill:url(#radial-gradient-7);}.cls-11{fill:url(#radial-gradient-8);}.cls-12{fill:url(#radial-gradient-9);}.cls-13{fill:url(#radial-gradient-10);}.cls-14{fill:url(#radial-gradient-11);}.cls-15{fill:url(#radial-gradient-12);}.cls-16{fill:#fff;}</style><radialGradient id="radial-gradient" cx="8017.75" cy="-2499.15" r="232.9" gradientTransform="translate(581.18 -6401.39) rotate(45)" gradientUnits="userSpaceOnUse"><stop offset="0" stop-color="#666"/><stop offset="0" stop-color="#666"/><stop offset="0.11" stop-color="#8f8f8f"/><stop offset="0.22" stop-color="#b1b1b1"/><stop offset="0.34" stop-color="#cecece"/><stop offset="0.47" stop-color="#e3e3e3"/><stop offset="0.61" stop-color="#f3f3f3"/><stop offset="0.77" stop-color="#fcfcfc"/><stop offset="1" stop-color="#fff"/></radialGradient><radialGradient id="radial-gradient-2" cx="8068.71" cy="-2540.89" r="232.9" gradientTransform="translate(566.59 -6449.65) rotate(45)" xlink:href="#radial-gradient"/><radialGradient id="radial-gradient-3" cx="335.13" cy="300.19" r="232.9" gradientTransform="matrix(1, 0, 0, 1, 0, 0)" xlink:href="#radial-gradient"/><radialGradient id="radial-gradient-4" cx="286.55" cy="136.84" r="343.06" gradientUnits="userSpaceOnUse"><stop offset="0" stop-color="#fff"/><stop offset="1" stop-color="#b3b3b3"/></radialGradient><radialGradient id="radial-gradient-5" cx="8314.37" cy="-2499.15" r="232.9" gradientTransform="translate(668.06 -6611.13) rotate(45)" xlink:href="#radial-gradient"/><radialGradient id="radial-gradient-6" cx="8365.33" cy="-2540.89" r="232.9" gradientTransform="translate(653.47 -6659.39) rotate(45)" xlink:href="#radial-gradient"/><radialGradient id="radial-gradient-7" cx="631.75" cy="300.19" r="232.9" gradientTransform="matrix(1, 0, 0, 1, 0, 0)" xlink:href="#radial-gradient"/><radialGradient id="radial-gradient-8" cx="583.17" cy="136.84" r="343.06" xlink:href="#radial-gradient-4"/><radialGradient id="radial-gradient-9" cx="8614.06" cy="-2499.15" r="232.9" gradientTransform="translate(755.84 -6823.04) rotate(45)" xlink:href="#radial-gradient"/><radialGradient id="radial-gradient-10" cx="8665.02" cy="-2540.89" r="232.9" gradientTransform="translate(741.25 -6871.3) rotate(45)" xlink:href="#radial-gradient"/><radialGradient id="radial-gradient-11" cx="931.44" cy="300.19" r="232.9" gradientTransform="matrix(1, 0, 0, 1, 0, 0)" xlink:href="#radial-gradient"/><radialGradient id="radial-gradient-12" cx="882.86" cy="136.84" r="343.06" xlink:href="#radial-gradient-4"/></defs><g class="cls-1"><g id="Capa_2" data-name="Capa 2"><g id="Capa_1-2" data-name="Capa 1"><path class="cls-2" d="M8902.54-2718a27.85,27.85,0,0,1-22.83,27.24c-55.79,10.7-98.09,59.84-98.09,118.7,0,97.23-79.08,176.31-176.31,176.31-.55,0-1.15,0-1.71-.09s-1.15.09-1.75.09c-97.18,0-176.27-79.08-176.27-176.31a121,121,0,0,0-120.91-120.86c-66.66,0-120.91,54.2-120.91,120.86,0,97.23-79.08,176.31-176.26,176.31s-176.32-79.08-176.32-176.31a121,121,0,0,0-120.86-120.86,27.71,27.71,0,0,1-27.48-31.26c1.78-14.26,14.61-24.26,29-24.14,96.49.81,174.77,79.58,174.77,176.26a121,121,0,0,0,120.91,120.91A121,121,0,0,0,8128.36-2572c0-97.18,79.13-176.26,176.31-176.26S8481-2669.23,8481-2572c0,66.67,54.24,120.91,120.86,120.91.6,0,1.2,0,1.75.1s1.16-.1,1.71-.1A121,121,0,0,0,8726.22-2572c0-86,61.94-157.83,143.58-173.22a27.72,27.72,0,0,1,32.74,27.28Z" transform="translate(-7682.62 2819.58)"/><circle class="cls-3" cx="8017.75" cy="-2499.15" r="232.9" transform="translate(-3567.11 7757) rotate(-45)"/><circle class="cls-4" cx="8068.71" cy="-2540.89" r="232.9" transform="translate(-3522.67 7780.81) rotate(-45)"/><circle class="cls-5" cx="335.13" cy="300.19" r="232.9"/><circle class="cls-6" cx="329.33" cy="247.99" r="133.09"/><circle class="cls-7" cx="329.33" cy="247.99" r="127.52"/><circle class="cls-8" cx="8314.37" cy="-2499.15" r="232.9" transform="translate(-3480.23 7966.74) rotate(-45)"/><circle class="cls-9" cx="8365.33" cy="-2540.89" r="232.9" transform="translate(-3435.79 7990.55) rotate(-45)"/><circle class="cls-10" cx="631.75" cy="300.19" r="232.9"/><circle class="cls-11" cx="625.95" cy="247.99" r="133.09"/><circle class="cls-7" cx="625.95" cy="247.99" r="127.52"/><circle class="cls-12" cx="8614.06" cy="-2499.15" r="232.9" transform="translate(-3392.46 8178.66) rotate(-45)"/><circle class="cls-13" cx="8665.02" cy="-2540.89" r="232.9" transform="translate(-3348.01 8202.46) rotate(-45)"/><circle class="cls-14" cx="931.44" cy="300.19" r="232.9"/><circle class="cls-15" cx="925.64" cy="247.99" r="133.09"/><circle class="cls-7" cx="925.64" cy="247.99" r="127.52"/><path class="cls-16" d="M8017.46-2605.88v79.58H8003V-2589l-19.14,6.32v-11.66l31.94-11.5Z" transform="translate(-7682.62 2819.58)"/><path class="cls-16" d="M8332.41-2537.64v11.34h-53.74V-2536l25.78-27.85a88.71,88.71,0,0,0,6.38-8,27.75,27.75,0,0,0,3.35-6.13,15.33,15.33,0,0,0,1-5.26,14.78,14.78,0,0,0-1.31-6.4,9.81,9.81,0,0,0-3.79-4.28,11.35,11.35,0,0,0-6.07-1.53,12.15,12.15,0,0,0-6.79,1.83,11.48,11.48,0,0,0-4.25,5,17.87,17.87,0,0,0-1.45,7.36h-14.44a25.71,25.71,0,0,1,3.27-12.84,24.35,24.35,0,0,1,9.38-9.29,28.66,28.66,0,0,1,14.49-3.49,32.06,32.06,0,0,1,13.85,2.7,19.36,19.36,0,0,1,8.61,7.66,22.76,22.76,0,0,1,2.94,11.82,23.23,23.23,0,0,1-1.25,7.53,35.33,35.33,0,0,1-3.52,7.33,64.73,64.73,0,0,1-5.36,7.33c-2.08,2.47-4.38,5-6.93,7.58l-15.48,17.22Z" transform="translate(-7682.62 2819.58)"/><path class="cls-16" d="M8597.85-2561.24v-7.69h10.41a38.77,38.77,0,0,1,11.64,1.56A22.41,22.41,0,0,1,8628-2563a17.49,17.49,0,0,1,4.77,6.51,20.29,20.29,0,0,1,1.56,8,22.69,22.69,0,0,1-2.07,9.89,20.88,20.88,0,0,1-5.81,7.33,26,26,0,0,1-8.75,4.55,36.32,36.32,0,0,1-10.84,1.56,35.24,35.24,0,0,1-9.84-1.39,27.39,27.39,0,0,1-8.59-4.2,20.36,20.36,0,0,1-6-7.09,21.14,21.14,0,0,1-2.23-9.94h14.44a10.76,10.76,0,0,0,1.61,5.83,11,11,0,0,0,4.47,4,14.17,14.17,0,0,0,6.46,1.44A15.07,15.07,0,0,0,8614-2538a10.24,10.24,0,0,0,4.39-4.15,13,13,0,0,0,1.52-6.46,13.8,13.8,0,0,0-1.69-7.25,9.93,9.93,0,0,0-4.82-4.08,19.11,19.11,0,0,0-7.44-1.31Zm0-11.12H8606a15,15,0,0,0,7.11-1.5,9.87,9.87,0,0,0,4.2-4.14,13,13,0,0,0,1.39-6.13,13.4,13.4,0,0,0-1.25-6,8.93,8.93,0,0,0-3.79-3.93,13.41,13.41,0,0,0-6.46-1.39,13.36,13.36,0,0,0-5.81,1.26,10.08,10.08,0,0,0-4.19,3.57,9.66,9.66,0,0,0-1.56,5.53h-14.44a19.19,19.19,0,0,1,3.41-11.31,23.16,23.16,0,0,1,9.23-7.66,30,30,0,0,1,13-2.78,34,34,0,0,1,13.76,2.59,20.64,20.64,0,0,1,9.22,7.6,22.24,22.24,0,0,1,3.29,12.43,16.35,16.35,0,0,1-1.66,7.06,19.51,19.51,0,0,1-4.85,6.32,24.89,24.89,0,0,1-7.79,4.53,30.24,30.24,0,0,1-10.55,1.71h-10.41Z" transform="translate(-7682.62 2819.58)"/><path class="cls-7" d="M7830.79-2792a4.42,4.42,0,0,0-.26-1.59,3.24,3.24,0,0,0-1-1.31,8.94,8.94,0,0,0-2-1.21,26.16,26.16,0,0,0-3.32-1.25,43.5,43.5,0,0,1-4.46-1.73,19,19,0,0,1-3.77-2.26,9.89,9.89,0,0,1-2.59-3,8.21,8.21,0,0,1-.95-4,8.24,8.24,0,0,1,1-4,9.36,9.36,0,0,1,2.75-3.08,13.45,13.45,0,0,1,4.16-2,19.38,19.38,0,0,1,5.27-.68,15.82,15.82,0,0,1,6.73,1.35,10.77,10.77,0,0,1,4.53,3.78,9.93,9.93,0,0,1,1.63,5.63h-7.75a5.22,5.22,0,0,0-.59-2.5,4.18,4.18,0,0,0-1.77-1.71,6.35,6.35,0,0,0-2.95-.62,7,7,0,0,0-2.88.52,3.89,3.89,0,0,0-1.75,1.4,3.43,3.43,0,0,0-.59,1.93,2.69,2.69,0,0,0,.45,1.52,4.46,4.46,0,0,0,1.29,1.27,11.5,11.5,0,0,0,2.09,1.11,25.89,25.89,0,0,0,2.85,1,35.58,35.58,0,0,1,5,2,15.77,15.77,0,0,1,3.65,2.43,9.24,9.24,0,0,1,2.23,3.09,9.69,9.69,0,0,1,.76,3.9,9,9,0,0,1-.9,4.11,8.57,8.57,0,0,1-2.58,3.05,12,12,0,0,1-4,1.9,19.78,19.78,0,0,1-5.24.65,20.26,20.26,0,0,1-5.19-.68,14.9,14.9,0,0,1-4.63-2.1,10.55,10.55,0,0,1-3.3-3.6,10.42,10.42,0,0,1-1.23-5.2h7.8a7,7,0,0,0,.45,2.67,4.32,4.32,0,0,0,1.3,1.76,5.34,5.34,0,0,0,2.07.95,11.49,11.49,0,0,0,2.73.29,6.88,6.88,0,0,0,2.83-.49,3.54,3.54,0,0,0,1.62-1.35A3.58,3.58,0,0,0,7830.79-2792Z" transform="translate(-7682.62 2819.58)"/><path class="cls-7" d="M7842.68-2815.39a3.42,3.42,0,0,1,1.15-2.67,4.32,4.32,0,0,1,3-1,4.41,4.41,0,0,1,3,1,3.42,3.42,0,0,1,1.16,2.67,3.39,3.39,0,0,1-1.16,2.64,4.41,4.41,0,0,1-3,1,4.32,4.32,0,0,1-3-1A3.38,3.38,0,0,1,7842.68-2815.39Zm7.94,6.69v25.88h-7.49v-25.88Z" transform="translate(-7682.62 2819.58)"/><path class="cls-7" d="M7869.75-2790a2,2,0,0,0-.44-1.27,3.91,3.91,0,0,0-1.58-1,21.57,21.57,0,0,0-3.19-.91,23.13,23.13,0,0,1-3.61-1.06,12.14,12.14,0,0,1-2.92-1.61,6.88,6.88,0,0,1-1.94-2.24,6.3,6.3,0,0,1-.69-3,7,7,0,0,1,.7-3.09,7.76,7.76,0,0,1,2.06-2.58,10,10,0,0,1,3.3-1.77,14.12,14.12,0,0,1,4.44-.64,14.91,14.91,0,0,1,5.9,1.06,8.72,8.72,0,0,1,3.83,3,7.35,7.35,0,0,1,1.34,4.34h-7.46a3.83,3.83,0,0,0-.38-1.75,2.75,2.75,0,0,0-1.18-1.16,4.41,4.41,0,0,0-2.08-.42,4.14,4.14,0,0,0-1.75.35,2.79,2.79,0,0,0-1.18.94,2.36,2.36,0,0,0-.42,1.39,1.92,1.92,0,0,0,.26,1,2.5,2.5,0,0,0,.78.82,5.74,5.74,0,0,0,1.42.65,18.67,18.67,0,0,0,2.14.55A26.51,26.51,0,0,1,7872-2797a9,9,0,0,1,3.58,2.52,6.32,6.32,0,0,1,1.35,4.23,6.62,6.62,0,0,1-.77,3.16,7.8,7.8,0,0,1-2.24,2.51,11.31,11.31,0,0,1-3.49,1.67,16.26,16.26,0,0,1-4.59.6,13.31,13.31,0,0,1-6.2-1.32,9.6,9.6,0,0,1-3.81-3.31,7.54,7.54,0,0,1-1.28-4.1h7a3.66,3.66,0,0,0,.65,2.1,3.5,3.5,0,0,0,1.59,1.19,6.38,6.38,0,0,0,2.2.37,5.24,5.24,0,0,0,2-.34,2.83,2.83,0,0,0,1.24-.92A2.2,2.2,0,0,0,7869.75-2790Z" transform="translate(-7682.62 2819.58)"/><path class="cls-7" d="M7894.26-2808.7v5.24h-15.35v-5.24Zm-11.83-6.41h7.48v24.18a4.17,4.17,0,0,0,.26,1.65,1.49,1.49,0,0,0,.87.8,4.11,4.11,0,0,0,1.53.23,9.55,9.55,0,0,0,1.14-.05c.32,0,.62-.07.89-.12v5.41a14,14,0,0,1-2,.49,14.29,14.29,0,0,1-2.35.18,10.2,10.2,0,0,1-4.17-.79,5.63,5.63,0,0,1-2.69-2.5,9.32,9.32,0,0,1-.93-4.46Z" transform="translate(-7682.62 2819.58)"/><path class="cls-7" d="M7910-2782.34a14.76,14.76,0,0,1-5.52-1,11.89,11.89,0,0,1-4.13-2.72,11.88,11.88,0,0,1-2.57-4,13.31,13.31,0,0,1-.88-4.86v-.91a16.83,16.83,0,0,1,.81-5.33,12.31,12.31,0,0,1,2.38-4.24,10.48,10.48,0,0,1,3.86-2.8,13.13,13.13,0,0,1,5.24-1,12.59,12.59,0,0,1,4.9.89,9.89,9.89,0,0,1,3.64,2.56,11.31,11.31,0,0,1,2.26,4,16.46,16.46,0,0,1,.78,5.23v3.06h-20.86v-4.81h13.54v-.57a5.57,5.57,0,0,0-.49-2.39,3.59,3.59,0,0,0-1.44-1.59,4.53,4.53,0,0,0-2.38-.56,4.2,4.2,0,0,0-2.27.57,4.09,4.09,0,0,0-1.45,1.62,8.53,8.53,0,0,0-.77,2.41,17.19,17.19,0,0,0-.24,3v.91a8.83,8.83,0,0,0,.4,2.75,6,6,0,0,0,1.2,2.13,5.67,5.67,0,0,0,1.91,1.39,6.29,6.29,0,0,0,2.56.5,8.56,8.56,0,0,0,3.37-.68,7.17,7.17,0,0,0,2.78-2.14l3.49,4a9.62,9.62,0,0,1-2.21,2.21,12.27,12.27,0,0,1-3.41,1.74A14.19,14.19,0,0,1,7910-2782.34Z" transform="translate(-7682.62 2819.58)"/><path class="cls-7" d="M7931.88-2803.27v20.45h-7.46v-25.88h7Zm-.95,6.6-1.89.05a18.36,18.36,0,0,1,.65-5,12.19,12.19,0,0,1,1.93-4,8.67,8.67,0,0,1,3.14-2.63,9.69,9.69,0,0,1,4.34-.93,9.19,9.19,0,0,1,3.14.51,6.22,6.22,0,0,1,2.43,1.6,7.5,7.5,0,0,1,1.56,2.82,13.73,13.73,0,0,1,.55,4.15v17.27h-7.46v-16.36a6.4,6.4,0,0,0-.42-2.62,2.38,2.38,0,0,0-1.21-1.23,4.84,4.84,0,0,0-1.89-.33,4.28,4.28,0,0,0-2.11.51,4.45,4.45,0,0,0-1.54,1.42,6.44,6.44,0,0,0-.93,2.13A11.58,11.58,0,0,0,7930.93-2796.67ZM7946-2797l-2.37.19a18.47,18.47,0,0,1,.62-4.88,11.54,11.54,0,0,1,1.87-3.91,8.7,8.7,0,0,1,3.09-2.59,9.54,9.54,0,0,1,4.32-.93,9.91,9.91,0,0,1,3.31.52,6.3,6.3,0,0,1,2.58,1.7,7.94,7.94,0,0,1,1.69,3.07,15.63,15.63,0,0,1,.6,4.65v16.41h-7.51v-16.41a6.22,6.22,0,0,0-.42-2.58,2.38,2.38,0,0,0-1.2-1.22,4.67,4.67,0,0,0-1.85-.33,4.18,4.18,0,0,0-2.08.49,4.31,4.31,0,0,0-1.48,1.34,5.84,5.84,0,0,0-.89,2A10.38,10.38,0,0,0,7946-2797Z" transform="translate(-7682.62 2819.58)"/><path class="cls-7" d="M7981.34-2798.6l.05,4.11h-3.71a6.49,6.49,0,0,0-2.14.31,3.87,3.87,0,0,0-1.45.85,3.23,3.23,0,0,0-.8,1.24,4.54,4.54,0,0,0-.25,1.55,2.74,2.74,0,0,0,.38,1.42,2.78,2.78,0,0,0,1.05,1,3.27,3.27,0,0,0,1.56.36,5.16,5.16,0,0,0,2.5-.57,4.73,4.73,0,0,0,1.61-1.4,2.72,2.72,0,0,0,.58-1.55l1.79,3.11a19.18,19.18,0,0,1-1.05,2,8.92,8.92,0,0,1-1.58,1.88,7.65,7.65,0,0,1-2.31,1.43,8.71,8.71,0,0,1-3.24.55,9.76,9.76,0,0,1-4.42-1,8.22,8.22,0,0,1-3.17-2.74,7,7,0,0,1-1.19-4,8.29,8.29,0,0,1,.75-3.61,7,7,0,0,1,2.23-2.68,10.56,10.56,0,0,1,3.77-1.66,22,22,0,0,1,5.31-.56Zm-.93,9.61v-11.1a5.08,5.08,0,0,0-.36-2,2.88,2.88,0,0,0-1.13-1.31,3.67,3.67,0,0,0-2-.48,4.07,4.07,0,0,0-1.78.36,2.52,2.52,0,0,0-1.15,1,3.2,3.2,0,0,0-.4,1.65h-7.46a6.94,6.94,0,0,1,.79-3.25,8.24,8.24,0,0,1,2.26-2.66,11,11,0,0,1,3.53-1.78,15.72,15.72,0,0,1,4.61-.63,13.64,13.64,0,0,1,5.42,1,8.53,8.53,0,0,1,3.77,3,8.82,8.82,0,0,1,1.39,5.08v10.83a19.29,19.29,0,0,0,.27,3.67,8.35,8.35,0,0,0,.8,2.31v.41h-7.53a10.32,10.32,0,0,1-.79-2.79A20.93,20.93,0,0,1,7980.41-2789Z" transform="translate(-7682.62 2819.58)"/><path class="cls-7" d="M8004-2795.45v-.5a20.46,20.46,0,0,1,.66-5.37,12.5,12.5,0,0,1,1.94-4.18,8.72,8.72,0,0,1,3.17-2.72,9.38,9.38,0,0,1,4.32-1,7.6,7.6,0,0,1,3.93,1,8.84,8.84,0,0,1,2.85,2.77,15.88,15.88,0,0,1,1.93,4.19,32.38,32.38,0,0,1,1.12,5.2v.86a28.83,28.83,0,0,1-1.11,5,16.4,16.4,0,0,1-1.94,4.08,8.94,8.94,0,0,1-2.87,2.75,7.65,7.65,0,0,1-3.95,1,9.23,9.23,0,0,1-4.32-1,9,9,0,0,1-3.15-2.75,13.17,13.17,0,0,1-1.92-4.16A19.63,19.63,0,0,1,8004-2795.45Zm7.46-.5v.5a17,17,0,0,0,.23,2.85,7.81,7.81,0,0,0,.75,2.32,4.06,4.06,0,0,0,1.39,1.56,3.76,3.76,0,0,0,2.11.57,4.59,4.59,0,0,0,2.75-.78,4.77,4.77,0,0,0,1.62-2.16,9.12,9.12,0,0,0,.58-3.23v-2.51a11.5,11.5,0,0,0-.31-2.75,6.11,6.11,0,0,0-.92-2.06,4.06,4.06,0,0,0-1.52-1.28,4.84,4.84,0,0,0-2.16-.44,3.7,3.7,0,0,0-2.08.56,4.25,4.25,0,0,0-1.4,1.56,8.5,8.5,0,0,0-.79,2.36A16.75,16.75,0,0,0,8011.42-2795.95Zm8.66,7.34v-30.94h7.51v36.73h-6.74Z" transform="translate(-7682.62 2819.58)"/><path class="cls-7" d="M8044.76-2782.34a14.76,14.76,0,0,1-5.52-1,11.89,11.89,0,0,1-4.13-2.72,11.88,11.88,0,0,1-2.57-4,13.31,13.31,0,0,1-.88-4.86v-.91a16.83,16.83,0,0,1,.81-5.33,12.15,12.15,0,0,1,2.38-4.24,10.48,10.48,0,0,1,3.86-2.8,13.13,13.13,0,0,1,5.24-1,12.59,12.59,0,0,1,4.9.89,9.89,9.89,0,0,1,3.64,2.56,11.47,11.47,0,0,1,2.26,4,16.76,16.76,0,0,1,.77,5.23v3.06h-20.85v-4.81h13.54v-.57a5.43,5.43,0,0,0-.5-2.39,3.51,3.51,0,0,0-1.43-1.59,4.53,4.53,0,0,0-2.38-.56,4.18,4.18,0,0,0-2.27.57,4,4,0,0,0-1.45,1.62,8.22,8.22,0,0,0-.78,2.41,18.29,18.29,0,0,0-.23,3v.91a8.83,8.83,0,0,0,.4,2.75,5.85,5.85,0,0,0,1.2,2.13,5.57,5.57,0,0,0,1.91,1.39,6.29,6.29,0,0,0,2.56.5,8.6,8.6,0,0,0,3.37-.68,7.24,7.24,0,0,0,2.78-2.14l3.49,4a9.83,9.83,0,0,1-2.21,2.21,12.27,12.27,0,0,1-3.41,1.74A14.24,14.24,0,0,1,8044.76-2782.34Z" transform="translate(-7682.62 2819.58)"/><path class="cls-7" d="M8071.26-2815.39a3.42,3.42,0,0,1,1.15-2.67,4.32,4.32,0,0,1,3-1,4.41,4.41,0,0,1,3,1,3.42,3.42,0,0,1,1.16,2.67,3.39,3.39,0,0,1-1.16,2.64,4.41,4.41,0,0,1-3,1,4.32,4.32,0,0,1-3-1A3.38,3.38,0,0,1,8071.26-2815.39Zm7.94,6.69v25.88h-7.49v-25.88Z" transform="translate(-7682.62 2819.58)"/><path class="cls-7" d="M8091.87-2803.17v20.35h-7.48v-25.88h7Zm-1,6.5-1.86.05a17.7,17.7,0,0,1,.72-5.24,11.63,11.63,0,0,1,2-3.95,8.82,8.82,0,0,1,3.18-2.5,9.53,9.53,0,0,1,4.1-.86,10.11,10.11,0,0,1,3.33.52A6.31,6.31,0,0,1,8105-2807a7.48,7.48,0,0,1,1.66,3.06,16.07,16.07,0,0,1,.58,4.67v16.41h-7.51v-16.43a5.51,5.51,0,0,0-.46-2.51,2.49,2.49,0,0,0-1.32-1.24,5.59,5.59,0,0,0-2.12-.36,4.62,4.62,0,0,0-2.25.51,4.33,4.33,0,0,0-1.53,1.42,6.36,6.36,0,0,0-.87,2.13A11.59,11.59,0,0,0,8090.89-2796.67Z" transform="translate(-7682.62 2819.58)"/><path class="cls-7" d="M8119.42-2803.17v20.35h-7.48v-25.88h7Zm-1,6.5-1.86.05a17.7,17.7,0,0,1,.72-5.24,11.63,11.63,0,0,1,2-3.95,8.82,8.82,0,0,1,3.18-2.5,9.53,9.53,0,0,1,4.1-.86,10.11,10.11,0,0,1,3.33.52,6.31,6.31,0,0,1,2.59,1.69,7.48,7.48,0,0,1,1.66,3.06,16.07,16.07,0,0,1,.58,4.67v16.41h-7.51v-16.43a5.51,5.51,0,0,0-.46-2.51,2.49,2.49,0,0,0-1.32-1.24,5.59,5.59,0,0,0-2.12-.36,4.62,4.62,0,0,0-2.25.51,4.33,4.33,0,0,0-1.53,1.42,6.36,6.36,0,0,0-.87,2.13A12.19,12.19,0,0,0,8118.44-2796.67Z" transform="translate(-7682.62 2819.58)"/><path class="cls-7" d="M8138.58-2795.5v-.5a16.42,16.42,0,0,1,.81-5.25,12,12,0,0,1,2.4-4.17,10.86,10.86,0,0,1,3.87-2.76,13.16,13.16,0,0,1,5.26-1,13.39,13.39,0,0,1,5.32,1,10.85,10.85,0,0,1,3.89,2.76,11.94,11.94,0,0,1,2.39,4.17,16.42,16.42,0,0,1,.81,5.25v.5a16.25,16.25,0,0,1-.81,5.23,12.12,12.12,0,0,1-2.39,4.19,10.9,10.9,0,0,1-3.88,2.76,13.4,13.4,0,0,1-5.28,1,13.56,13.56,0,0,1-5.29-1,10.85,10.85,0,0,1-3.89-2.76,12.14,12.14,0,0,1-2.4-4.19A16.25,16.25,0,0,1,8138.58-2795.5Zm7.49-.5v.5a15.44,15.44,0,0,0,.25,2.88,7.35,7.35,0,0,0,.82,2.34,4.14,4.14,0,0,0,1.52,1.56,4.4,4.4,0,0,0,2.31.57,4.3,4.3,0,0,0,2.29-.57,4.12,4.12,0,0,0,1.51-1.56,7.61,7.61,0,0,0,.83-2.34,16.34,16.34,0,0,0,.25-2.88v-.5a15.85,15.85,0,0,0-.25-2.83,7.93,7.93,0,0,0-.83-2.36,4.26,4.26,0,0,0-1.52-1.6,4.45,4.45,0,0,0-2.33-.57,4.27,4.27,0,0,0-2.27.57,4.31,4.31,0,0,0-1.51,1.6,7.65,7.65,0,0,0-.82,2.36A15,15,0,0,0,8146.07-2796Z" transform="translate(-7682.62 2819.58)"/><path class="cls-7" d="M8172.47-2808.7l5.38,20.62,0,5.26h-4.71l-8.59-25.88Zm3.49,20.59,5.4-20.59h7.85l-8.59,25.88h-4.71Z" transform="translate(-7682.62 2819.58)"/><path class="cls-7" d="M8206.21-2798.6l.05,4.11h-3.71a6.49,6.49,0,0,0-2.14.31,3.75,3.75,0,0,0-1.44.85,3.26,3.26,0,0,0-.81,1.24,4.8,4.8,0,0,0-.25,1.55,2.66,2.66,0,0,0,.39,1.42,2.64,2.64,0,0,0,1.05,1,3.2,3.2,0,0,0,1.55.36,5.1,5.1,0,0,0,2.5-.57,4.77,4.77,0,0,0,1.62-1.4,2.78,2.78,0,0,0,.57-1.55l1.79,3.11a16,16,0,0,1-1,2,8.63,8.63,0,0,1-1.58,1.88,7.48,7.48,0,0,1-2.3,1.43,8.79,8.79,0,0,1-3.24.55,9.78,9.78,0,0,1-4.43-1,8.29,8.29,0,0,1-3.17-2.74,7,7,0,0,1-1.18-4,8.43,8.43,0,0,1,.74-3.61,6.93,6.93,0,0,1,2.24-2.68,10.5,10.5,0,0,1,3.76-1.66,22.07,22.07,0,0,1,5.31-.56Zm-.93,9.61v-11.1a5.08,5.08,0,0,0-.36-2,2.86,2.86,0,0,0-1.12-1.31,3.71,3.71,0,0,0-2-.48,4.1,4.1,0,0,0-1.78.36,2.57,2.57,0,0,0-1.15,1,3.2,3.2,0,0,0-.39,1.65H8191a6.93,6.93,0,0,1,.78-3.25,8.15,8.15,0,0,1,2.27-2.66,10.89,10.89,0,0,1,3.52-1.78,15.74,15.74,0,0,1,4.62-.63,13.59,13.59,0,0,1,5.41,1,8.47,8.47,0,0,1,3.77,3,8.74,8.74,0,0,1,1.39,5.08v10.83a19.29,19.29,0,0,0,.27,3.67,8.35,8.35,0,0,0,.81,2.31v.41h-7.54a10.7,10.7,0,0,1-.79-2.79A22.13,22.13,0,0,1,8205.28-2789Z" transform="translate(-7682.62 2819.58)"/><path class="cls-7" d="M8228.5-2788.15a4.4,4.4,0,0,0,2.08-.46,3.35,3.35,0,0,0,1.38-1.28,3.89,3.89,0,0,0,.49-2h7a8.64,8.64,0,0,1-1.45,5,9.72,9.72,0,0,1-3.89,3.36,12.25,12.25,0,0,1-5.5,1.21,13,13,0,0,1-5.26-1,10.2,10.2,0,0,1-3.75-2.79,12,12,0,0,1-2.26-4.17,17.12,17.12,0,0,1-.75-5.16v-.62a17.08,17.08,0,0,1,.75-5.14,12,12,0,0,1,2.26-4.19,10.22,10.22,0,0,1,3.74-2.78,12.87,12.87,0,0,1,5.25-1,12.5,12.5,0,0,1,5.63,1.21,9.19,9.19,0,0,1,3.84,3.51,10.32,10.32,0,0,1,1.39,5.49h-7a5.37,5.37,0,0,0-.45-2.24,3.6,3.6,0,0,0-1.33-1.58,4,4,0,0,0-2.22-.58,3.91,3.91,0,0,0-2.23.58,3.61,3.61,0,0,0-1.33,1.62,8.36,8.36,0,0,0-.62,2.33,22,22,0,0,0-.17,2.76v.62a22.69,22.69,0,0,0,.17,2.81,7.78,7.78,0,0,0,.63,2.33,3.69,3.69,0,0,0,1.33,1.58A4,4,0,0,0,8228.5-2788.15Z" transform="translate(-7682.62 2819.58)"/><path class="cls-7" d="M8243.11-2815.39a3.45,3.45,0,0,1,1.15-2.67,4.34,4.34,0,0,1,3-1,4.37,4.37,0,0,1,3,1,3.42,3.42,0,0,1,1.16,2.67,3.39,3.39,0,0,1-1.16,2.64,4.37,4.37,0,0,1-3,1,4.34,4.34,0,0,1-3-1A3.42,3.42,0,0,1,8243.11-2815.39Zm7.94,6.69v25.88h-7.48v-25.88Z" transform="translate(-7682.62 2819.58)"/><path class="cls-7" d="M8255.33-2795.5v-.5a16.14,16.14,0,0,1,.82-5.25,11.94,11.94,0,0,1,2.39-4.17,10.86,10.86,0,0,1,3.87-2.76,13.19,13.19,0,0,1,5.26-1,13.36,13.36,0,0,1,5.32,1,10.85,10.85,0,0,1,3.89,2.76,11.94,11.94,0,0,1,2.39,4.17,16.41,16.41,0,0,1,.82,5.25v.5a16.25,16.25,0,0,1-.82,5.23,12.12,12.12,0,0,1-2.39,4.19,10.86,10.86,0,0,1-3.87,2.76,13.45,13.45,0,0,1-5.29,1,13.47,13.47,0,0,1-5.28-1,10.8,10.8,0,0,1-3.9-2.76,12.12,12.12,0,0,1-2.39-4.19A16,16,0,0,1,8255.33-2795.5Zm7.49-.5v.5a15.44,15.44,0,0,0,.25,2.88,7.6,7.6,0,0,0,.82,2.34,4.22,4.22,0,0,0,1.52,1.56,4.4,4.4,0,0,0,2.31.57,4.33,4.33,0,0,0,2.3-.57,4.17,4.17,0,0,0,1.5-1.56,7.36,7.36,0,0,0,.83-2.34,15.44,15.44,0,0,0,.25-2.88v-.5a15,15,0,0,0-.25-2.83,7.66,7.66,0,0,0-.83-2.36,4.31,4.31,0,0,0-1.51-1.6,4.46,4.46,0,0,0-2.34-.57,4.27,4.27,0,0,0-2.27.57,4.39,4.39,0,0,0-1.51,1.6,7.92,7.92,0,0,0-.82,2.36A15,15,0,0,0,8262.82-2796Zm1.39-16.12,4.73-7.43h8l-6.63,7.43Z" transform="translate(-7682.62 2819.58)"/><path class="cls-7" d="M8291.33-2803.17v20.35h-7.49v-25.88h7Zm-1,6.5-1.87.05a17.7,17.7,0,0,1,.72-5.24,11.81,11.81,0,0,1,2-3.95,8.82,8.82,0,0,1,3.18-2.5,9.56,9.56,0,0,1,4.1-.86,10.07,10.07,0,0,1,3.33.52,6.31,6.31,0,0,1,2.59,1.69,7.6,7.6,0,0,1,1.67,3.06,16.46,16.46,0,0,1,.57,4.67v16.41h-7.51v-16.43a5.51,5.51,0,0,0-.46-2.51,2.49,2.49,0,0,0-1.32-1.24,5.56,5.56,0,0,0-2.12-.36,4.65,4.65,0,0,0-2.25.51,4.33,4.33,0,0,0-1.53,1.42,6.36,6.36,0,0,0-.87,2.13A12.2,12.2,0,0,0,8290.35-2796.67Z" transform="translate(-7682.62 2819.58)"/><path class="cls-7" d="M8336-2782.34a14.72,14.72,0,0,1-5.52-1,11.89,11.89,0,0,1-4.13-2.72,11.88,11.88,0,0,1-2.57-4,13.31,13.31,0,0,1-.88-4.86v-.91a16.83,16.83,0,0,1,.81-5.33,12.15,12.15,0,0,1,2.38-4.24,10.48,10.48,0,0,1,3.86-2.8,13.13,13.13,0,0,1,5.24-1,12.59,12.59,0,0,1,4.9.89,10,10,0,0,1,3.64,2.56,11.47,11.47,0,0,1,2.26,4,16.76,16.76,0,0,1,.77,5.23v3.06h-20.85v-4.81h13.53v-.57a5.43,5.43,0,0,0-.49-2.39,3.51,3.51,0,0,0-1.43-1.59,4.53,4.53,0,0,0-2.38-.56,4.18,4.18,0,0,0-2.27.57,4,4,0,0,0-1.45,1.62,8.22,8.22,0,0,0-.78,2.41,17.22,17.22,0,0,0-.23,3v.91a8.83,8.83,0,0,0,.4,2.75,5.85,5.85,0,0,0,1.2,2.13,5.57,5.57,0,0,0,1.91,1.39,6.29,6.29,0,0,0,2.56.5,8.6,8.6,0,0,0,3.37-.68,7.24,7.24,0,0,0,2.78-2.14l3.49,4a9.83,9.83,0,0,1-2.21,2.21,12.27,12.27,0,0,1-3.41,1.74A14.28,14.28,0,0,1,8336-2782.34Z" transform="translate(-7682.62 2819.58)"/><path class="cls-7" d="M8357.64-2803.17v20.35h-7.48v-25.88h7Zm-1,6.5-1.86.05a18,18,0,0,1,.71-5.24,11.65,11.65,0,0,1,2-3.95,8.65,8.65,0,0,1,3.18-2.5,9.5,9.5,0,0,1,4.1-.86,10,10,0,0,1,3.32.52,6.34,6.34,0,0,1,2.6,1.69,7.59,7.59,0,0,1,1.66,3.06,16.42,16.42,0,0,1,.58,4.67v16.41h-7.51v-16.43a5.65,5.65,0,0,0-.46-2.51,2.49,2.49,0,0,0-1.32-1.24,5.59,5.59,0,0,0-2.12-.36,4.62,4.62,0,0,0-2.25.51,4.33,4.33,0,0,0-1.53,1.42,6.36,6.36,0,0,0-.87,2.13A11.59,11.59,0,0,0,8356.66-2796.67Z" transform="translate(-7682.62 2819.58)"/><path class="cls-7" d="M8403.22-2808.7v5.24h-15.35v-5.24Zm-11.83-6.41h7.48v24.18a4.17,4.17,0,0,0,.26,1.65,1.49,1.49,0,0,0,.87.8,4.11,4.11,0,0,0,1.53.23,9.45,9.45,0,0,0,1.14-.05c.32,0,.62-.07.89-.12v5.41a14,14,0,0,1-2,.49,14.29,14.29,0,0,1-2.35.18,10.2,10.2,0,0,1-4.17-.79,5.63,5.63,0,0,1-2.69-2.5,9.32,9.32,0,0,1-.93-4.46Z" transform="translate(-7682.62 2819.58)"/><path class="cls-7" d="M8419-2782.34a14.8,14.8,0,0,1-5.52-1,11.89,11.89,0,0,1-4.13-2.72,11.88,11.88,0,0,1-2.57-4,13.31,13.31,0,0,1-.88-4.86v-.91a16.83,16.83,0,0,1,.81-5.33,12.31,12.31,0,0,1,2.38-4.24,10.56,10.56,0,0,1,3.86-2.8,13.13,13.13,0,0,1,5.24-1,12.59,12.59,0,0,1,4.9.89,9.89,9.89,0,0,1,3.64,2.56,11.31,11.31,0,0,1,2.26,4,16.46,16.46,0,0,1,.78,5.23v3.06h-20.86v-4.81h13.54v-.57a5.57,5.57,0,0,0-.49-2.39,3.59,3.59,0,0,0-1.44-1.59,4.53,4.53,0,0,0-2.38-.56,4.2,4.2,0,0,0-2.27.57,4.09,4.09,0,0,0-1.45,1.62,8.53,8.53,0,0,0-.77,2.41,17.19,17.19,0,0,0-.24,3v.91a8.83,8.83,0,0,0,.4,2.75,6,6,0,0,0,1.2,2.13,5.67,5.67,0,0,0,1.91,1.39,6.32,6.32,0,0,0,2.56.5,8.56,8.56,0,0,0,3.37-.68,7.17,7.17,0,0,0,2.78-2.14l3.49,4a9.62,9.62,0,0,1-2.21,2.21,12.27,12.27,0,0,1-3.41,1.74A14.19,14.19,0,0,1,8419-2782.34Zm-5.28-29.8,4.73-7.44h8l-6.62,7.44Z" transform="translate(-7682.62 2819.58)"/><path class="cls-7" d="M8444.17-2788.15a4.43,4.43,0,0,0,2.08-.46,3.32,3.32,0,0,0,1.37-1.28,3.79,3.79,0,0,0,.49-2h7a8.71,8.71,0,0,1-1.44,5,9.79,9.79,0,0,1-3.89,3.36,12.31,12.31,0,0,1-5.5,1.21,13,13,0,0,1-5.26-1,10.32,10.32,0,0,1-3.76-2.79,12.17,12.17,0,0,1-2.25-4.17,16.81,16.81,0,0,1-.76-5.16v-.62a16.77,16.77,0,0,1,.76-5.14,12.18,12.18,0,0,1,2.25-4.19,10.34,10.34,0,0,1,3.75-2.78,12.87,12.87,0,0,1,5.25-1,12.53,12.53,0,0,1,5.63,1.21,9.31,9.31,0,0,1,3.84,3.51,10.41,10.41,0,0,1,1.38,5.49h-7a5.53,5.53,0,0,0-.44-2.24,3.56,3.56,0,0,0-1.34-1.58,4,4,0,0,0-2.21-.58,3.94,3.94,0,0,0-2.24.58,3.66,3.66,0,0,0-1.32,1.62,8,8,0,0,0-.63,2.33,22,22,0,0,0-.16,2.76v.62a22.75,22.75,0,0,0,.16,2.81,7.78,7.78,0,0,0,.64,2.33,3.74,3.74,0,0,0,1.32,1.58A4,4,0,0,0,8444.17-2788.15Z" transform="translate(-7682.62 2819.58)"/><path class="cls-7" d="M8466.17-2803.17v20.35h-7.49v-25.88h7Zm-1,6.5-1.87.05a17.7,17.7,0,0,1,.72-5.24,11.81,11.81,0,0,1,2-3.95,8.77,8.77,0,0,1,3.19-2.5,9.5,9.5,0,0,1,4.1-.86,10,10,0,0,1,3.32.52,6.34,6.34,0,0,1,2.6,1.69,7.59,7.59,0,0,1,1.66,3.06,16.46,16.46,0,0,1,.57,4.67v16.41H8474v-16.43a5.66,5.66,0,0,0-.45-2.51,2.51,2.51,0,0,0-1.33-1.24,5.56,5.56,0,0,0-2.12-.36,4.6,4.6,0,0,0-2.24.51,4.17,4.17,0,0,0-1.53,1.42,6.59,6.59,0,0,0-.88,2.13A12.2,12.2,0,0,0,8465.19-2796.67Z" transform="translate(-7682.62 2819.58)"/><path class="cls-7" d="M8486.33-2815.39a3.42,3.42,0,0,1,1.15-2.67,4.32,4.32,0,0,1,3-1,4.41,4.41,0,0,1,3,1,3.42,3.42,0,0,1,1.16,2.67,3.39,3.39,0,0,1-1.16,2.64,4.41,4.41,0,0,1-3,1,4.32,4.32,0,0,1-3-1A3.38,3.38,0,0,1,8486.33-2815.39Zm7.94,6.69v25.88h-7.49v-25.88Z" transform="translate(-7682.62 2819.58)"/><path class="cls-7" d="M8510.44-2788.15a4.43,4.43,0,0,0,2.08-.46,3.32,3.32,0,0,0,1.37-1.28,3.79,3.79,0,0,0,.49-2h7a8.71,8.71,0,0,1-1.44,5,9.79,9.79,0,0,1-3.89,3.36,12.31,12.31,0,0,1-5.5,1.21,13,13,0,0,1-5.26-1,10.32,10.32,0,0,1-3.76-2.79,12.2,12.2,0,0,1-2.26-4.17,17.12,17.12,0,0,1-.75-5.16v-.62a17.08,17.08,0,0,1,.75-5.14,12.2,12.2,0,0,1,2.26-4.19,10.26,10.26,0,0,1,3.75-2.78,12.86,12.86,0,0,1,5.24-1,12.54,12.54,0,0,1,5.64,1.21,9.31,9.31,0,0,1,3.84,3.51,10.41,10.41,0,0,1,1.38,5.49h-7a5.53,5.53,0,0,0-.44-2.24,3.62,3.62,0,0,0-1.34-1.58,4,4,0,0,0-2.21-.58,3.94,3.94,0,0,0-2.24.58,3.74,3.74,0,0,0-1.33,1.62,8.36,8.36,0,0,0-.62,2.33,22,22,0,0,0-.16,2.76v.62a22.75,22.75,0,0,0,.16,2.81,7.78,7.78,0,0,0,.64,2.33,3.74,3.74,0,0,0,1.32,1.58A4,4,0,0,0,8510.44-2788.15Z" transform="translate(-7682.62 2819.58)"/><path class="cls-7" d="M8539.75-2798.6l0,4.11h-3.7a6.45,6.45,0,0,0-2.14.31,3.87,3.87,0,0,0-1.45.85,3.23,3.23,0,0,0-.8,1.24,4.54,4.54,0,0,0-.25,1.55,2.65,2.65,0,0,0,.38,1.42,2.71,2.71,0,0,0,1,1,3.27,3.27,0,0,0,1.56.36,5.16,5.16,0,0,0,2.5-.57,4.73,4.73,0,0,0,1.61-1.4,2.78,2.78,0,0,0,.57-1.55l1.8,3.11a19.18,19.18,0,0,1-1.05,2,9.23,9.23,0,0,1-1.58,1.88,7.65,7.65,0,0,1-2.31,1.43,8.71,8.71,0,0,1-3.24.55,9.81,9.81,0,0,1-4.43-1,8.29,8.29,0,0,1-3.17-2.74,7.09,7.09,0,0,1-1.18-4,8.43,8.43,0,0,1,.74-3.61,7,7,0,0,1,2.24-2.68,10.58,10.58,0,0,1,3.76-1.66,22.07,22.07,0,0,1,5.31-.56Zm-.93,9.61v-11.1a5.08,5.08,0,0,0-.36-2,2.86,2.86,0,0,0-1.12-1.31,3.69,3.69,0,0,0-2-.48,4.13,4.13,0,0,0-1.78.36,2.54,2.54,0,0,0-1.14,1,3.1,3.1,0,0,0-.4,1.65h-7.46a6.82,6.82,0,0,1,.79-3.25,8.12,8.12,0,0,1,2.26-2.66,10.85,10.85,0,0,1,3.53-1.78,15.67,15.67,0,0,1,4.61-.63,13.64,13.64,0,0,1,5.42,1,8.58,8.58,0,0,1,3.77,3,8.81,8.81,0,0,1,1.38,5.08v10.83a18.36,18.36,0,0,0,.28,3.67,8.35,8.35,0,0,0,.8,2.31v.41h-7.53a10,10,0,0,1-.79-2.79A20.93,20.93,0,0,1,8538.82-2789Z" transform="translate(-7682.62 2819.58)"/><path class="cls-7" d="M8565-2790a2,2,0,0,0-.44-1.27,3.91,3.91,0,0,0-1.58-1,21.57,21.57,0,0,0-3.19-.91,23.26,23.26,0,0,1-3.62-1.06,12.26,12.26,0,0,1-2.91-1.61,6.88,6.88,0,0,1-1.94-2.24,6.3,6.3,0,0,1-.69-3,7,7,0,0,1,.7-3.09,7.76,7.76,0,0,1,2.06-2.58,10,10,0,0,1,3.3-1.77,14.1,14.1,0,0,1,4.43-.64,14.93,14.93,0,0,1,5.91,1.06,8.72,8.72,0,0,1,3.83,3,7.35,7.35,0,0,1,1.34,4.34h-7.46a3.7,3.7,0,0,0-.39-1.75,2.68,2.68,0,0,0-1.17-1.16,4.41,4.41,0,0,0-2.08-.42,4.22,4.22,0,0,0-1.76.35,2.83,2.83,0,0,0-1.17.94,2.36,2.36,0,0,0-.42,1.39,2,2,0,0,0,.25,1,2.65,2.65,0,0,0,.79.82,5.83,5.83,0,0,0,1.41.65,19.47,19.47,0,0,0,2.15.55,26.18,26.18,0,0,1,4.93,1.41,9.09,9.09,0,0,1,3.59,2.52,6.32,6.32,0,0,1,1.35,4.23,6.62,6.62,0,0,1-.77,3.16,7.8,7.8,0,0,1-2.24,2.51,11.31,11.31,0,0,1-3.49,1.67,16.28,16.28,0,0,1-4.6.6,13.29,13.29,0,0,1-6.19-1.32,9.6,9.6,0,0,1-3.81-3.31,7.46,7.46,0,0,1-1.28-4.1h7a3.74,3.74,0,0,0,.66,2.1,3.5,3.5,0,0,0,1.59,1.19,6.38,6.38,0,0,0,2.2.37,5.27,5.27,0,0,0,2-.34,2.83,2.83,0,0,0,1.24-.92A2.2,2.2,0,0,0,8565-2790Z" transform="translate(-7682.62 2819.58)"/><path class="cls-7" d="M8595.88-2803.17v20.35h-7.48v-25.88h7Zm-1,6.5-1.86.05a17.7,17.7,0,0,1,.72-5.24,11.63,11.63,0,0,1,2-3.95,8.82,8.82,0,0,1,3.18-2.5,9.53,9.53,0,0,1,4.1-.86,10.11,10.11,0,0,1,3.33.52A6.31,6.31,0,0,1,8609-2807a7.48,7.48,0,0,1,1.66,3.06,16.07,16.07,0,0,1,.58,4.67v16.41h-7.51v-16.43a5.51,5.51,0,0,0-.46-2.51A2.49,2.49,0,0,0,8602-2803a5.59,5.59,0,0,0-2.12-.36,4.62,4.62,0,0,0-2.25.51,4.33,4.33,0,0,0-1.53,1.42,6.36,6.36,0,0,0-.87,2.13A11.59,11.59,0,0,0,8594.9-2796.67Z" transform="translate(-7682.62 2819.58)"/><path class="cls-7" d="M8630.75-2798.6l0,4.11h-3.71a6.49,6.49,0,0,0-2.14.31,3.82,3.82,0,0,0-1.44.85,3.12,3.12,0,0,0-.8,1.24,4.54,4.54,0,0,0-.26,1.55,2.66,2.66,0,0,0,.39,1.42,2.64,2.64,0,0,0,1,1,3.2,3.2,0,0,0,1.55.36,5.1,5.1,0,0,0,2.5-.57,4.77,4.77,0,0,0,1.62-1.4,2.78,2.78,0,0,0,.57-1.55l1.79,3.11a16,16,0,0,1-1,2,8.63,8.63,0,0,1-1.58,1.88,7.48,7.48,0,0,1-2.3,1.43,8.79,8.79,0,0,1-3.24.55,9.78,9.78,0,0,1-4.43-1,8.29,8.29,0,0,1-3.17-2.74,7,7,0,0,1-1.18-4,8.29,8.29,0,0,1,.74-3.61,6.93,6.93,0,0,1,2.24-2.68,10.5,10.5,0,0,1,3.76-1.66,22.07,22.07,0,0,1,5.31-.56Zm-.93,9.61v-11.1a5.08,5.08,0,0,0-.36-2,2.86,2.86,0,0,0-1.12-1.31,3.69,3.69,0,0,0-2-.48,4.1,4.1,0,0,0-1.78.36,2.62,2.62,0,0,0-1.15,1,3.2,3.2,0,0,0-.39,1.65h-7.46a6.82,6.82,0,0,1,.79-3.25,8,8,0,0,1,2.26-2.66,10.89,10.89,0,0,1,3.52-1.78,15.74,15.74,0,0,1,4.62-.63,13.59,13.59,0,0,1,5.41,1,8.47,8.47,0,0,1,3.77,3,8.74,8.74,0,0,1,1.39,5.08v10.83a19.29,19.29,0,0,0,.27,3.67,8.69,8.69,0,0,0,.8,2.31v.41h-7.53a10.7,10.7,0,0,1-.79-2.79A22.13,22.13,0,0,1,8629.82-2789Z" transform="translate(-7682.62 2819.58)"/><path class="cls-7" d="M8649.72-2802.67v19.85h-7.46v-25.88h7Zm7.72-6.22-.12,7c-.32-.05-.73-.09-1.24-.13s-1-.06-1.32-.06a7.87,7.87,0,0,0-2.47.35,4.36,4.36,0,0,0-1.72,1,4.05,4.05,0,0,0-1,1.67,7.19,7.19,0,0,0-.34,2.28l-1.41-.69a20.12,20.12,0,0,1,.51-4.69,12.76,12.76,0,0,1,1.45-3.7,7.18,7.18,0,0,1,2.35-2.42,5.78,5.78,0,0,1,3.16-.86,9.41,9.41,0,0,1,1.17.07A5.43,5.43,0,0,1,8657.44-2808.89Z" transform="translate(-7682.62 2819.58)"/><path class="cls-7" d="M8668-2802.67v19.85h-7.46v-25.88h7Zm7.73-6.22-.12,7c-.32-.05-.73-.09-1.25-.13s-.94-.06-1.31-.06a7.82,7.82,0,0,0-2.47.35,4.47,4.47,0,0,0-1.73,1,4.14,4.14,0,0,0-1,1.67,6.92,6.92,0,0,0-.34,2.28l-1.41-.69a20.7,20.7,0,0,1,.5-4.69,12.77,12.77,0,0,1,1.46-3.7,7.18,7.18,0,0,1,2.35-2.42,5.77,5.77,0,0,1,3.15-.86,9.29,9.29,0,0,1,1.17.07A5.38,5.38,0,0,1,8675.69-2808.89Z" transform="translate(-7682.62 2819.58)"/><path class="cls-7" d="M8691.47-2789v-11.1a5.08,5.08,0,0,0-.36-2,2.8,2.8,0,0,0-1.12-1.31,3.69,3.69,0,0,0-2-.48,4.1,4.1,0,0,0-1.78.36,2.62,2.62,0,0,0-1.15,1,3.2,3.2,0,0,0-.39,1.65h-7.46a6.82,6.82,0,0,1,.79-3.25,8.24,8.24,0,0,1,2.26-2.66,10.89,10.89,0,0,1,3.52-1.78,15.83,15.83,0,0,1,4.62-.63,13.64,13.64,0,0,1,5.42,1,8.5,8.5,0,0,1,3.76,3A8.74,8.74,0,0,1,8699-2800v10.83a18.36,18.36,0,0,0,.28,3.67,8.35,8.35,0,0,0,.8,2.31v.41h-7.54a10.7,10.7,0,0,1-.79-2.79A22.13,22.13,0,0,1,8691.47-2789Zm.93-9.61.05,4.11h-3.7a6.45,6.45,0,0,0-2.14.31,3.87,3.87,0,0,0-1.45.85,3.23,3.23,0,0,0-.8,1.24,4.54,4.54,0,0,0-.25,1.55,2.65,2.65,0,0,0,.38,1.42,2.64,2.64,0,0,0,1.05,1,3.27,3.27,0,0,0,1.56.36,5.09,5.09,0,0,0,2.49-.57,4.68,4.68,0,0,0,1.62-1.4,2.78,2.78,0,0,0,.57-1.55l1.8,3.11a17.56,17.56,0,0,1-1.06,2,8.87,8.87,0,0,1-1.57,1.88,7.65,7.65,0,0,1-2.31,1.43,8.71,8.71,0,0,1-3.24.55,9.81,9.81,0,0,1-4.43-1,8.29,8.29,0,0,1-3.17-2.74,7.09,7.09,0,0,1-1.18-4,8.43,8.43,0,0,1,.74-3.61,7,7,0,0,1,2.24-2.68,10.48,10.48,0,0,1,3.77-1.66,21.93,21.93,0,0,1,5.3-.56Z" transform="translate(-7682.62 2819.58)"/><path class="cls-7" d="M8705.2-2815.11h7.49v24.18a4,4,0,0,0,.26,1.65,1.45,1.45,0,0,0,.86.8,4.18,4.18,0,0,0,1.53.23,9.62,9.62,0,0,0,1.15-.05c.32,0,.61-.07.88-.12v5.41a13.69,13.69,0,0,1-2,.49,14.26,14.26,0,0,1-2.34.18,10.22,10.22,0,0,1-4.18-.79,5.63,5.63,0,0,1-2.69-2.5,9.32,9.32,0,0,1-.93-4.46Zm11.84,6.41v5.24h-15.36v-5.24Z" transform="translate(-7682.62 2819.58)"/><path class="cls-7" d="M8720.53-2815.39a3.42,3.42,0,0,1,1.15-2.67,4.32,4.32,0,0,1,3-1,4.36,4.36,0,0,1,3,1,3.4,3.4,0,0,1,1.17,2.67,3.37,3.37,0,0,1-1.17,2.64,4.36,4.36,0,0,1-3,1,4.32,4.32,0,0,1-3-1A3.38,3.38,0,0,1,8720.53-2815.39Zm7.94,6.69v25.88H8721v-25.88Z" transform="translate(-7682.62 2819.58)"/><path class="cls-7" d="M8739.4-2808.7l5.38,20.62,0,5.26h-4.71l-8.59-25.88Zm3.49,20.59,5.4-20.59h7.85l-8.59,25.88h-4.71Z" transform="translate(-7682.62 2819.58)"/><path class="cls-7" d="M8772.21-2789v-11.1a5.08,5.08,0,0,0-.36-2,2.86,2.86,0,0,0-1.12-1.31,3.71,3.71,0,0,0-2-.48,4.1,4.1,0,0,0-1.78.36,2.57,2.57,0,0,0-1.15,1,3.2,3.2,0,0,0-.39,1.65H8758a6.82,6.82,0,0,1,.79-3.25,8.12,8.12,0,0,1,2.26-2.66,10.89,10.89,0,0,1,3.52-1.78,15.74,15.74,0,0,1,4.62-.63,13.59,13.59,0,0,1,5.41,1,8.47,8.47,0,0,1,3.77,3,8.74,8.74,0,0,1,1.39,5.08v10.83a19.29,19.29,0,0,0,.27,3.67,9.06,9.06,0,0,0,.8,2.31v.41h-7.53a10.7,10.7,0,0,1-.79-2.79A22.13,22.13,0,0,1,8772.21-2789Zm.93-9.61.05,4.11h-3.71a6.49,6.49,0,0,0-2.14.31,3.82,3.82,0,0,0-1.44.85,3.26,3.26,0,0,0-.81,1.24,4.8,4.8,0,0,0-.25,1.55,2.66,2.66,0,0,0,.39,1.42,2.64,2.64,0,0,0,1.05,1,3.2,3.2,0,0,0,1.55.36,5.13,5.13,0,0,0,2.5-.57,4.77,4.77,0,0,0,1.62-1.4,2.78,2.78,0,0,0,.57-1.55l1.79,3.11a16,16,0,0,1-1,2,8.63,8.63,0,0,1-1.58,1.88,7.6,7.6,0,0,1-2.3,1.43,8.8,8.8,0,0,1-3.25.55,9.79,9.79,0,0,1-4.42-1,8.29,8.29,0,0,1-3.17-2.74,7,7,0,0,1-1.18-4,8.43,8.43,0,0,1,.74-3.61,6.93,6.93,0,0,1,2.24-2.68,10.5,10.5,0,0,1,3.76-1.66,22.07,22.07,0,0,1,5.31-.56Z" transform="translate(-7682.62 2819.58)"/><path class="cls-7" d="M8798.4-2790a2,2,0,0,0-.45-1.27,3.86,3.86,0,0,0-1.57-1,21.76,21.76,0,0,0-3.2-.91,23.45,23.45,0,0,1-3.61-1.06,12.33,12.33,0,0,1-2.92-1.61,6.85,6.85,0,0,1-1.93-2.24,6.19,6.19,0,0,1-.7-3,7,7,0,0,1,.71-3.09,7.64,7.64,0,0,1,2.06-2.58,10,10,0,0,1,3.3-1.77,14,14,0,0,1,4.43-.64,15,15,0,0,1,5.91,1.06,8.78,8.78,0,0,1,3.83,3,7.34,7.34,0,0,1,1.33,4.34h-7.46a3.7,3.7,0,0,0-.38-1.75,2.68,2.68,0,0,0-1.17-1.16,4.44,4.44,0,0,0-2.08-.42,4.19,4.19,0,0,0-1.76.35,2.83,2.83,0,0,0-1.17.94,2.36,2.36,0,0,0-.42,1.39,1.92,1.92,0,0,0,.25,1,2.54,2.54,0,0,0,.79.82,5.83,5.83,0,0,0,1.41.65,19.23,19.23,0,0,0,2.14.55,26.29,26.29,0,0,1,4.94,1.41,9.09,9.09,0,0,1,3.59,2.52,6.32,6.32,0,0,1,1.35,4.23,6.52,6.52,0,0,1-.78,3.16,7.77,7.77,0,0,1-2.23,2.51,11.37,11.37,0,0,1-3.5,1.67,16.16,16.16,0,0,1-4.59.6,13.27,13.27,0,0,1-6.19-1.32,9.7,9.7,0,0,1-3.82-3.31,7.54,7.54,0,0,1-1.28-4.1h7a3.59,3.59,0,0,0,.66,2.1,3.44,3.44,0,0,0,1.59,1.19,6.34,6.34,0,0,0,2.2.37,5.22,5.22,0,0,0,2-.34,2.77,2.77,0,0,0,1.24-.92A2.21,2.21,0,0,0,8798.4-2790Z" transform="translate(-7682.62 2819.58)"/></g></g></g></svg>