<svg id="Capa_1" data-name="Capa 1" xmlns="http://www.w3.org/2000/svg" viewBox="0 0 144.69 131.52"><defs><style>.cls-1{fill:#fff;}</style></defs><path class="cls-1" d="M28.26,75c2-1.44,3.19-.75,4.27.93,4.81,7.47,9.68,14.9,14.53,22.35.56.86,1.24,1.7.68,2.82s-1.66,1.3-2.82,1.29c-9.83,0-19.67,0-29.51,0-2.84,0-3.65-1.56-2.11-4,2.24-3.51,4.51-7,6.83-10.47a3.08,3.08,0,0,0,.45-3c-6.69-20.3-3-38.59,10.75-54.88.94-1.11,1.11-1.84.15-2.95-3-3.41-2.94-5.34,2.68-5.73,5-.34,10-.9,15-1.32,2.27-.19,3.37,1.18,2.46,3.22q-3.6,8.09-7.43,16.05c-.91,1.91-2.54,2-3.89.35a5.38,5.38,0,0,1-.68-1c-.74-1.38-1.38-1.57-2.46-.17a45.29,45.29,0,0,0-9,20A44.73,44.73,0,0,0,28.26,75ZM30.21,79,17.43,98.61H43Zm12-43.58,5.32-11.55L34.84,25a2.11,2.11,0,0,0,.73,1.74c1.29,1.55,1.11,2.81-.3,4.3C24.75,42.25,20,55.58,21.11,70.92a37,37,0,0,0,2.44,11.45c2-2.59,2-2.58,1.42-5.47-3-15.26.3-29,10-41.19,3.18-4,3.37-4,6.8-.39C41.82,35.36,41.93,35.34,42.17,35.38Z"/><path class="cls-1" d="M72.29,4.3c3.7,0,7.39,0,11.09,0,2.07,0,3.4.8,3,2.87-1,5.06,1.4,6.86,5.95,8.6,15.57,5.92,26,17.22,31.65,32.86.71,2,1.46,2.71,3.63,2.42,4.14-.54,4.83.59,3.05,4.44-2.18,4.71-4.33,9.42-6.54,14.11-1.22,2.6-2.81,2.72-4.49.36q-4.8-6.7-9.52-13.49c-1.64-2.36-1-3.84,1.93-4,2.09-.13,2.65-.58,1.71-2.74a45.58,45.58,0,0,0-25.2-24.81c-1.59-.66-2.37-.59-2.12,1.36,0,.08,0,.16,0,.23,0,6.86.32,6.27-6.24,6.27-6.3,0-12.59,0-18.88,0-2.86,0-3.35-.48-3.37-3.25s0-5.66,0-8.49c0-1.28.22-2.49,1.8-2.51S61.56,19.7,61.57,21c0,2.13.06,4.25,0,6.38,0,1.35.28,2,1.81,1.94,6-.07,12-.05,17.94,0,1.23,0,1.63-.39,1.62-1.62q-.08-9.07,0-18.17c0-1.24-.43-1.64-1.63-1.63-6,0-12,.06-17.94,0-1.52,0-1.82.62-1.81,2,0,1.55.58,3.85-1.9,3.77C57.39,13.48,58,11.29,58,9.8c-.05-5.5,0-5.5,5.36-5.5Zm54.9,50.13c-5.1,1.8-5.46-1.65-6.57-4.67C114.89,34.13,104.17,23.45,88.39,18c-.6-.21-1.55-1.13-1.88.22-.22.92-.45,2.1.95,2.54.52.17,1.05.35,1.56.55,13.7,5.37,23.28,14.88,28.58,28.64,1.83,4.74,1.67,5-3.48,6.06l7.47,10.59C123.46,62.51,125.19,58.78,127.19,54.43Z"/><path class="cls-1" d="M47.56,109.41l7.27,10.29c.27-.07.49-.07.54-.15,2-3.66,2-3.63,6.11-2.83,15.35,3,29.35-.06,41.88-9.47.66-.49,2.4-.67,1.41-2.29s-2-.92-3.21,0A47.85,47.85,0,0,1,62.81,114c-3.77-.7-4-1.21-2.57-4.87a3.68,3.68,0,0,0,.12-.69c-.77-.42-1.55-.08-2.31-.11a1.73,1.73,0,0,1-.15-3.45c1.48-.17,3-.37,4.46-.43,2.46-.1,3.3,1.12,2.4,3.4-.32.8-.7,1.57-1.17,2.62a35.31,35.31,0,0,0,9.81.93,45.54,45.54,0,0,0,26.41-9.51,2.25,2.25,0,0,0,.93-3.09,14.42,14.42,0,0,1,1.2-12.7c.7-1.21,1.49-2.79,3.24-1.69s.51,2.29-.14,3.45c-2.38,4.23-2.32,8.46.42,12.46a10.82,10.82,0,0,0,11.25,4.87,11,11,0,0,0,9.4-8.51A11.57,11.57,0,0,0,112.89,82.4c-.54.1-1.07.26-1.61.33a1.58,1.58,0,0,1-2-1.23,1.67,1.67,0,0,1,1.29-2.16,14.7,14.7,0,0,1,9.71.32,15.08,15.08,0,0,1-9.51,28.6,3.77,3.77,0,0,0-4,.8c-13.45,10.72-28.72,14.42-45.6,11.22-1.76-.33-2.45.09-2.93,1.6a10.5,10.5,0,0,1-.9,1.92c-1,1.76-2.55,2-3.75.32q-5.27-7.25-10.34-14.65c-1.13-1.65-.46-3.08,1.54-3.44,1.31-.24,2.66-.23,4-.35s2.33-.05,2.51,1.42-.84,2-2.2,2.09C48.75,109.2,48.38,109.29,47.56,109.41Z"/><path class="cls-1" d="M87.19,91.53a13.83,13.83,0,0,1-3.48-1.83c-2-1.13-3.57-.53-4.18,1.69-.18.68-.37,1.37-.51,2.06a2.69,2.69,0,0,1-3.12,2.47c-2.43-.1-4.88-.1-7.31,0a2.68,2.68,0,0,1-3.1-2.49c-.13-.7-.32-1.38-.51-2.06-.56-2.13-2.15-2.86-4-1.76-4.43,2.62-3.68,2.85-7.58-1-1.17-1.17-2.3-2.38-3.51-3.49a2.55,2.55,0,0,1-.46-3.75c.45-.65.84-1.33,1.23-2,1-1.83.46-3.61-1.55-4-5.77-1-4.64-2-4.75-6.52,0-.55,0-1.1,0-1.65,0-6.08-.08-5.34,4.76-6.51,2-.49,2.56-2.12,1.54-4-.39-.68-.79-1.36-1.23-2A2.59,2.59,0,0,1,49.89,51c1.83-1.72,3.61-3.51,5.34-5.34a2.49,2.49,0,0,1,3.73-.4,20.68,20.68,0,0,0,2.22,1.33,2.52,2.52,0,0,0,3.72-1.42c1.67-4.95,1.67-4.95,7-4.95h1.41c5.57,0,4.92-.51,6.28,4.71a2.46,2.46,0,0,0,3.93,1.54c4.34-2.56,3.58-3,7.58,1,1.16,1.17,2.29,2.38,3.51,3.49a2.53,2.53,0,0,1,.47,3.74,23.84,23.84,0,0,0-1.33,2.23,2.41,2.41,0,0,0,1.63,3.75c5.05,1.32,4.7.46,4.7,6.52v1.18c0,5.28,0,5.28-4.94,7a2.38,2.38,0,0,0-1.36,3.71C97,84,96,83.48,92.41,87.24c-1.09,1.13-2.22,2.22-3.33,3.34A2.65,2.65,0,0,1,87.19,91.53ZM92,52.88c-1.47-1.31-2.94-2.71-4.52-4-.91-.71-1.6.31-2.28.7-3.92,2.28-7.84.62-9.05-3.85-.16-.6-.25-1.56-.63-1.71-1.86-.75-3.86-.37-5.8-.29-1.43,0-1.14,1.5-1.38,2.38a5.81,5.81,0,0,1-8.71,3.62c-.72-.41-1.57-1.47-2.25-1a20.88,20.88,0,0,0-4.2,4.09c-.79,1,.6,1.94,1.09,2.82A6,6,0,0,1,50.88,64c-1,.27-2.53.06-2.71,1a17.73,17.73,0,0,0-.08,5.86c.19,1.19,1.81.94,2.81,1.23,3,.88,5.26,5.45,3.49,7.78s-1.29,4,.86,5.53a.91.91,0,0,1,.17.17c1.25,1.81,2.63,2.12,4.41.61.74-.63,1.7-1.44,2.77-1,2.59,1.07,5.81,1.49,5.87,5.4,0,1.34.83,1.89,2.19,1.72a8.48,8.48,0,0,1,2.36,0c2,.32,2.88-.54,3.29-2.52a5.56,5.56,0,0,1,8.46-3.51c1.84,1.25,3,1.1,4.25-.62a4.78,4.78,0,0,1,1.17-1.16c1.55-1.11,1.4-2.2.42-3.73a5.75,5.75,0,0,1,3.63-8.83c.81-.21,2.09-.06,2.2-1a18.27,18.27,0,0,0,0-5.86c-.25-1.17-2-.9-3.1-1.22-2.72-.81-4.6-5.33-3.18-7.84C90.62,55.14,91.15,54.27,92,52.88Z"/><path class="cls-1" d="M72.15,56.19a11.57,11.57,0,0,1,11.68,11.4,11.56,11.56,0,1,1-23.11.21A11.47,11.47,0,0,1,72.15,56.19Zm0,19.46a7.86,7.86,0,0,0,8-7.8,8,8,0,0,0-8-8.18,8.08,8.08,0,0,0-8,8A8,8,0,0,0,72.15,75.65Z"/></svg>