<svg id="Capa_1" data-name="Capa 1" xmlns="http://www.w3.org/2000/svg" viewBox="0 0 224.68 199.45"><defs><style>.cls-1{fill:#6c2910;}</style></defs><path class="cls-1" d="M87.9,19.76h5.69c2.52,1.39,5.47,2.21,7.13,4.8,1,1.62,2.38,1.92,4.16,1.91,8-.08,16,0,24.06,0a23,23,0,0,1,9.28,1.7c2.4,1,3.62,2.46,3,5.11-1.37.24-2.66.7-4.07-.22-2.56-1.68-5.47-2-8.5-2-8.17.08-16.35-.07-24.52.08a7.48,7.48,0,0,1-6.88-3.35A8.18,8.18,0,0,0,83,29.88a8.33,8.33,0,0,1-4.46,5.06c-5.29,2.62-6.5,9.85-1.88,13.3a9.61,9.61,0,0,1,4.21,9.68c-.19,1.77-.14,3.16,2.44,3.14C85.66,61,86,60,85.9,58c-.1-1.53,0-3.07,0-4.61.06-5.9,2.47-8.37,8.43-8.53,3.31-.08,6.63,0,9.94-.05,2.54,0,5.06-.83,6-3.08,2-4.7,5.73-5,10-4.78,2,.13,4,0,6,0,7.86.16,12.57,4.87,12.67,12.68,0,2.85.07,5.69,0,8.53-.06,1.81.22,2.84,2.47,2.78,2-.06,2.72-.67,2.59-2.67-.35-5.78.63-11.6-.61-17.34-.33-1.53.52-2.45,1.37-3.44,2.51-.19,3.39,1.42,3.55,3.47.24,3.19.36,6.38.34,9.58,0,1.78.43,2.58,2.38,2.46,2.48-.16,5-.06,7.46,0,6,.07,9.21,3.12,9.3,9.15s.07,12.32,0,18.48c-.06,6.66-3.35,9.9-9.94,9.45-2.08-.14-2.34.48-2.31,2.23.08,5.21.27,10.44,0,15.63a33.69,33.69,0,0,0,4.57,19.76c6.61,11.4,11.86,23.59,18.23,35.15,4.45,8.09,3.64,12.63-4.42,16.83h-4.26a23.26,23.26,0,0,1-6.69-4.47c-4.61-4.16-9.31-8.22-14.55-12.82,0,3.78-.06,6.81,0,9.83.08,3.19-1.22,4.83-4.59,4.82q-31.4-.06-62.8,0c-3.35,0-4.69-1.6-4.6-4.81.07-3,0-6.05,0-9.27-1.88.61-2.81,1.87-3.9,2.87-1.42,1.31-2.8,1.64-4.4.42-.67-1.9.3-3.09,1.66-4.24,2.38-2,4.67-4.12,7.34-6.5-5-1.47-4-5.48-4.53-9.15-3.76,3.28-7.13,6.22-10.49,9.17-4.08,3.58-8.22,7.1-12.2,10.8-2.19,2-2.41,4.54-.45,6.95,1.7,2.08,4.63,2.28,7,.5a39.94,39.94,0,0,0,3.48-3,2.74,2.74,0,0,1,3.81-.33,3,3,0,0,1-.92,4c-2.36,2-4.58,4.23-7.61,5.27H50.94c-8-4.2-9.28-9-4.34-16.77.82-1.29,1.41-2.72,2.13-4.07,6.74-12.69,12.42-25.94,20-38.17a5.4,5.4,0,0,0,.5-3.09c0-8.17-.08-16.34.06-24.51,0-2.35-.28-3.21-3-3-5.43.5-9.1-2.89-9.22-8.35q-.26-10.29,0-20.6c.13-4.93,3.51-8,8.46-8.13,2.75-.07,5.51,0,8.62,0-7.5-9.16-6.49-16.11,2.88-22.6a2.39,2.39,0,0,0,1.11-1.25C79.66,24.2,83.38,21.57,87.9,19.76Zm55.86,100.91c.7-7.71.59-7.89-5.33-8.79v5.9c0,2.71,0,5.43-.1,8.15-.05,1.94-.33,3.51,2.71,3.48,2.86,0,3-1.31,2.85-3.44C143.75,124.21,143.79,122.44,143.76,120.67Zm-31.36,6.09c-6.15,0-12.31,0-18.46,0-.87,0-2.08-.4-2.45.8a3.47,3.47,0,0,0,.5,3.31c4.26,5.78,4.2,17.05-.07,23.07a3.2,3.2,0,0,0-.62,1.95c0,4.86,0,9.71,0,14.56,0,1.45.39,2.12,2,2.12,12.78-.05,25.56,0,38.34,0,1,0,1.93-.05,1.92-1.42,0-5.32,0-10.65-.05-16a2.58,2.58,0,0,0-.61-1.21c-4.24-6-4.29-17.18,0-23.1a3.41,3.41,0,0,0,.47-3.32c-.39-1.16-1.59-.76-2.47-.76C124.71,126.75,118.56,126.76,112.4,126.76Zm21.76-63.39c0-4.5,0-9,0-13.49,0-5.78-2.38-8.05-8.26-8.09-2.48,0-5,.07-7.45,0a3.57,3.57,0,0,0-3.72,1.88c-2.54,4.13-6.47,6-11.35,6-3.07,0-6.16.11-9.22,0-2.62-.13-3.58.88-3.54,3.5.11,7.93.07,15.86,0,23.78a13.25,13.25,0,0,0,3,8.18,31.67,31.67,0,0,0,14.3,10.67,12.52,12.52,0,0,0,9.67-.26,34.59,34.59,0,0,0,10.83-7.24c3.91-3.84,6.19-8.19,5.79-13.86C134,70.72,134.16,67,134.16,63.37Zm-60.39,52a2.62,2.62,0,0,0,2.74-2c1.67-4.79,8.95-7.83,13.51-5.76,2.65,1.19,6.35-1.09,6.52-3.94.31-5.26.41-10.35-4.89-13.66a9.36,9.36,0,0,1-2.38-3c-.7-1.1-1.28-1.67-2.81-1.24-3.52,1-7.12,1.68-10.7,2.45-1.3.28-2,.82-2,2.35C73.8,98.74,73.77,107,73.77,115.32Zm77.25,0V96.9c0-8.33,0-8.15-8.14-10.28-4.07-1.07-6.38-.46-9.67,2.86-4.27,4.32-5.36,8.63-4.92,14.08.23,2.8,3.89,5.21,6.45,4.08,4.69-2.07,12,.82,13.61,5.51A2.74,2.74,0,0,0,151,115.29Zm12.21-43.36c0-3.31,0-6.63,0-9.94,0-2.86-1.45-4.41-4.3-4.52a59.23,59.23,0,0,0-6.39,0c-1.28.09-3.2-.89-3.7.93s-.66,3.63,1,5.26a8.16,8.16,0,0,1,1.91,9.46c-1.44,3.54-4.35,5.16-8.1,5.32-.94,0-1.89,0-2.84,0s-2.24-.08-2.33,1.47c-.09,1.37,1.05,1.4,1.92,1.6,5.85,1.38,11.7,2.77,17.58,4,3.16.68,5.17-1,5.24-4.42C163.28,78.09,163.23,75,163.23,71.93ZM61.58,71.49c0,3,0,5.9,0,8.86,0,4.53,1.79,6,6.14,5q7.9-1.8,15.81-3.69c1.13-.26,3,.19,2.79-1.82s-1.94-1.31-3.1-1.33c-3.13-.06-6.16-.28-8.47-2.77-3.24-3.48-3.26-8.13.3-12.1A5.16,5.16,0,0,0,76,58.36c-.49-1.79-2.42-.8-3.7-.91a51.06,51.06,0,0,0-5.67,0c-3.69.08-5,1.43-5,5.21C61.55,65.59,61.58,68.54,61.58,71.49Zm50.66,50.58h14.91c7,0,7,0,6.36-6.93-.2-2.26-3-4.11-5-3-10.61,5.72-21.16,5.76-31.83.15a3.6,3.6,0,0,0-5.35,3.23c0,1.3.12,2.62,0,3.9-.28,2.31.8,2.75,2.87,2.71C100.17,122,106.21,122.07,112.24,122.07Zm35.38,33.44c7,6.13,13.32,11.78,19.72,17.38,3,2.68,6,2.78,8.07.37s1.59-5.13-1.58-7.92q-9.71-8.58-19.45-17.09c-.65-.57-1.11-1.62-2.44-1.28C152,150.38,152.53,154,147.62,155.51Zm-24.28-57.7c-7.36,4.43-14.63,4.28-21.88,0-.59,3.74.35,7-.77,10.08-.51,1.4.7,1.59,1.49,1.9a26.76,26.76,0,0,0,20.35,0c.78-.32,2.08-.47,1.6-1.84C123.05,104.86,123.92,101.62,123.34,97.81Zm-46,44.4c0,8.91,0,8.91,9,8.55h.35c2.37.09,3.5-1.06,3.49-3.42,0-3-.15-5.92,0-8.87.21-3.44-1.3-4.55-4.62-4.54C77.33,133.94,77.33,133.84,77.33,142.21Zm70.19.27c0-9,0-9-9.09-8.5h-.36c-2.36,0-3.45,1.15-3.43,3.5,0,2.95.13,5.92,0,8.87-.16,3.15,1,4.46,4.31,4.46C147.52,150.83,147.52,150.93,147.52,142.48ZM75.83,120.37c-9,9.38-12.54,21.89-18.79,32.9,4.84-3.69,9.27-7.73,13.86-11.58a5.12,5.12,0,0,0,2-4.57c-.06-1.85-.81-4.24.81-5.43C78,128.56,76,124.4,75.83,120.37Zm91.55,33c0-.77.12-1.17,0-1.43-4.49-8.85-9-17.72-13.58-26.49a10.28,10.28,0,0,0-5.38-5.17c0,2.75,0,5.11,0,7.46,0,.75-.33,1.64.75,2.13,2.78,1.25,2.85,3.72,2.82,6.31,0,1.56-.54,3.25,1,4.61C157.78,144.89,162.43,149.06,167.38,153.42ZM86.49,111.27c-2,1.64-5.38.4-5.48,3.9-.12,4.12,0,8.24-.05,12.36,0,2.51,1.76,1.66,3,1.72s2.65.61,2.6-1.66C86.42,122.33,86.49,117.06,86.49,111.27Zm0,52.86c0-1.65.11-3.31,0-4.95-.11-1.2.79-2.85-.55-3.52-1.71-.86-2.68.92-3.86,1.8A2.75,2.75,0,0,0,81,159.91c0,3.53.07,7.06,0,10.59,0,1.47.37,2,1.94,2.12,2.85.29,4.12-.49,3.65-3.55A32.55,32.55,0,0,1,86.5,164.13Zm51.85-.14a52.15,52.15,0,0,1,0,6c-.27,2.38.82,2.62,2.81,2.63s3-.38,2.81-2.69a54.11,54.11,0,0,1,0-8.82c.2-2.38-1-3.68-2.61-5a2.5,2.5,0,0,0-2.29-.58c-1.17.32-.63,1.36-.66,2.08C138.3,159.75,138.35,161.87,138.35,164ZM85.92,69.76c-.09-2.05.93-4.65-3-4.3s-5.8,1.45-5.84,4.22,1.76,3.82,5.7,4.18C86.45,74.2,86,72,85.92,69.76Zm52.94.8c-.21,1.52-.42,3.67,3.4,3.31,2.87-.27,5.29-.53,5.52-4,.18-2.89-2-4.14-6-4.41C138.07,65.21,139,67.63,138.86,70.56Z"/><path class="cls-1" d="M112.33,83.81a11,11,0,0,1-7.71-3c-1-1-1.59-2.14-.48-3.41s2.21-1.1,3.4-.12c3.32,2.74,6.62,2.62,9.91-.1a2.11,2.11,0,0,1,3.36.36c.93,1.2.42,2.27-.48,3.14A10.89,10.89,0,0,1,112.33,83.81Z"/><path class="cls-1" d="M108.57,57.8c-.69,2-2,2.94-3.74,1.65-2.4-1.76-4.45-1.57-6.68.18a2,2,0,0,1-2.83-.46,2.32,2.32,0,0,1,0-2.94c2.39-3.6,10.69-3.39,12.76.33A7.91,7.91,0,0,1,108.57,57.8Z"/><path class="cls-1" d="M123.62,53.67a7.34,7.34,0,0,1,5.36,2c1.12,1,1.46,2.2.57,3.42a2,2,0,0,1-3.11.37,4.56,4.56,0,0,0-6.36,0,2.13,2.13,0,0,1-3.35-.56c-.85-1.22-.27-2.21.66-3.09A8.1,8.1,0,0,1,123.62,53.67Z"/><path class="cls-1" d="M103.84,66.18c0,1.6-.07,3.29-2.14,3.34s-2.44-1.64-2.46-3.44.33-3.26,2.21-3.35C103.7,62.62,103.92,64.41,103.84,66.18Z"/><path class="cls-1" d="M121,65.68c-.08-1.56.41-3.1,2.38-3,2.13.16,2.24,2,2.22,3.7s-.5,3.19-2.45,3.1C120.84,69.41,121,67.5,121,65.68Z"/></svg>