<svg xmlns="http://www.w3.org/2000/svg" viewBox="0 0 180.85 176.89"><defs><style>.cls-1{fill:#6c2910;}</style></defs><g id="Capa_2" data-name="Capa 2"><g id="Capa_1-2" data-name="Capa 1"><path class="cls-1" d="M91.6,107.62c-10.55-.26-19.93-1-29-3.91a31.51,31.51,0,0,1-9.07-4.31c-2.92-2.1-4.58-4.74-4.46-8.52.16-5.25.29-10.52,0-15.76-.34-5.52,2.3-8.88,6.81-11.31,6.15-3.3,12.85-4.73,19.67-5.66,14.31-2,28.49-1.43,42.39,2.74A43.8,43.8,0,0,1,125.32,64c4.44,2.27,6.87,5.69,6.53,11a120.28,120.28,0,0,0,0,15c.3,5-2,8.17-6.07,10.49-7.18,4.12-15.15,5.45-23.18,6.43C98.6,107.36,94.54,107.43,91.6,107.62Zm-1.17-46.4c-9.85.28-19.66.87-28.93,4.59-3.32,1.33-7.85,2.43-8,6.48-.13,4.38,4.54,5.73,8,6.84A90.6,90.6,0,0,0,119.75,79c3.25-1.09,7.49-2.41,7.62-6.3.14-4.26-4.37-5.39-7.63-6.72C110.36,62.1,100.41,61.48,90.43,61.22ZM53.21,80.48a50.47,50.47,0,0,1-.06,7.37c-.82,5.59,2,8.57,6.77,10.39,1.38.53,2.74,1.1,4.15,1.54,13,4,26.22,4.18,39.56,2.79,6.57-.69,13-2.07,19-5.15,2.15-1.11,4.68-2.3,4.9-5,.35-4,.1-8.13.1-12C102.58,90.41,78.1,90.42,53.21,80.48Z"/><path class="cls-1" d="M71.76,28.85C66.58,28.48,64,27,65.13,21.79c1.24-5.47.89-5.55,8.08-6C70,9.28,70,9,74.85,5.3c3.52-2.7,3.52-2.7,8.66,1.89,1.59-2-.72-5.56,2.32-6.67,2.28-.82,4.79-.43,7.22-.4C98.2.2,96.17,4.43,97,7.05c2.5-.38,2.78-3.68,5.13-3.68s3.82,1.83,5.43,3.22c3.29,2.86,3.25,2.91.13,9.21,7.16.42,7.16.42,8,6.42.67,4.6.67,4.6-6.54,7.21,5.5,1.91,5.87,4.83,3.29,9.24s-5.26,5.18-9.42,1.39c1.08,7.71,1,7.76-4.38,9.61-4.81,1.64-5,1.56-8-4-2.25.9-1.1,4.7-4,4.89-2.35.16-4.4-1.07-6.59-1.69-5-1.42-2.68-4.83-2-7.79-2.59-.6-4.12,3-6.45,1.32-2-1.42-2.86-3.84-4.17-5.87C64.56,32.12,68.88,31.46,71.76,28.85Zm36-8.28c-2.23,1-2.91-1.14-4.12-2.83-1.51-2.12-1-3.71.68-5.3,1.1-1.08,1.56-2,0-3.27-1.29-1-2.13-.82-3,.4-1.36,2-2.81,2.68-5.44,1.79s-3.59-2.44-3.33-5c.15-1.56-.66-2.1-2.18-2.11s-2.12.87-2,2.28c.2,2.43-.53,3.82-3.12,4.78-2.75,1-4.35.37-5.78-1.8-.94-1.41-1.84-1.05-3-.16-1.36,1.07-1,1.94,0,3,1.48,1.53,2.41,3,1,5.29S74.83,21.25,72,20.47c-1.25-.34-2.39-.3-2.65,1.47s.47,2.5,2.13,2.6c2.16.14,3.33,1.08,3.64,3.45s.67,4.26-2,5.36c-1.39.59-2.2,1.39-1.15,3.07s2.1,1.34,3.33.43c1.84-1.38,3.29-1,5,.54s3,2.78,1.85,5.11c-.66,1.38-.84,2.42,1,3.15S85.65,45.41,86,44c.62-2.56,2.41-2.67,4.63-2.71s3.65.44,4.24,2.69c.37,1.42.92,2.41,2.82,1.7s1.69-1.72,1-3.11c-1.13-2.31.1-3.63,1.79-5.1s3.07-2,5-.65c1.16.85,2.25,1.39,3.35-.3,1.27-2,0-2.66-1.38-3.29-2.48-1.1-2.06-3-1.74-5.08s1-3.31,3.1-3.52c1.5-.15,3-.17,2.75-2.47S109.66,20.39,107.73,20.57Z"/><path class="cls-1" d="M90.43,130.26c-9.46-.29-18.57-1-27.4-3.78a37.16,37.16,0,0,1-7.79-3.31,14.5,14.5,0,0,1-6-16.88c.37-1,1-1.64,2.08-1.51a1.92,1.92,0,0,1,1.82,1.85,23.75,23.75,0,0,1,.05,4.84c-.63,4.52,1.69,7,5.46,8.8a56.46,56.46,0,0,0,18.65,4.94c12.26,1.31,24.48,1.22,36.51-1.91a70.67,70.67,0,0,0,7.62-2.63c4.48-1.74,7.15-4.69,6.27-9.89a14,14,0,0,1,0-2.42c0-1.62-.15-3.64,2.14-3.6s1.93,2.15,2,3.71c.31,10.65-1.73,13.66-11.79,17.27C110.34,129.21,100.28,130,90.43,130.26Z"/><path class="cls-1" d="M89.32,171.54c11.14-.27,21.06-1,30.48-4.72,7-2.76,7.84-4.12,7.86-11.62,0-.81,0-1.62,0-2.42,0-1.37.51-2.53,1.93-2.62,1.77-.12,2,1.26,2.19,2.72,1.09,10.37-1.25,14.74-11.2,18-20,6.61-40.18,6.44-60.27.06a25.48,25.48,0,0,1-5.09-2.41,14.45,14.45,0,0,1-6-16.83,2,2,0,0,1,3.91.33,32.22,32.22,0,0,1,.05,5.64c-.42,3.65,1.39,5.82,4.35,7.43,6.38,3.48,13.39,4.79,20.47,5.65C82.13,171.28,86.31,171.35,89.32,171.54Z"/><path class="cls-1" d="M90.45,153.58c-10.81-.24-21.55-1-31.68-5.27-9-3.75-11.41-8.45-9.67-17.91.22-1.18.63-2.15,1.91-2.2,1.49-.06,2.12,1,2.17,2.35a20.1,20.1,0,0,1,0,4c-.83,4.94,1.89,7.49,5.9,9.34a58.74,58.74,0,0,0,19.1,4.8c13,1.24,25.83,1.05,38.42-2.82,1.54-.48,3.05-1.07,4.54-1.68,4.52-1.85,7.32-4.65,6.65-10.14-.23-2-1.64-5.83,2.1-5.74,3.16.08,1.55,3.64,1.87,5.68,1.2,7.49-2.93,11.54-9.25,14.16C112.24,152.43,101.41,153.35,90.45,153.58Z"/><path class="cls-1" d="M26.82,26.87c3.42,0,5.62,1.5,6.69,4.22,1.19,3,.75,6.06-2,7.93-2,1.37-2.32,3-2.29,5.08.08,5.92.17,11.84,0,17.75a5.34,5.34,0,0,0,3.12,5.46c3.05,1.7,5.92,3.71,8.87,5.58,1.33.84,2.63,1.82,1.51,3.52-1,1.46-2.3.88-3.52.09C35,73.9,31,71.29,26.85,68.75c-1.62-1-1.83-2.45-1.81-4.16.05-6.86,0-13.72.05-20.58,0-2.11-.25-3.68-2.26-5.08a6,6,0,0,1-2.11-7.54A6.51,6.51,0,0,1,26.82,26.87Zm.44,9.67c1.54-.33,2.66-1.12,2.58-2.91a2.47,2.47,0,0,0-2.49-2.57,2.51,2.51,0,0,0-2.87,2.61C24.42,35.34,25.53,36.3,27.26,36.54Z"/><path class="cls-1" d="M153.43,26.85c3.41.1,5.59,1.62,6.73,4.56s.4,5.8-2.13,7.54c-2,1.39-2.26,3-2.24,5.08.07,6.73-.08,13.46.08,20.19A5.21,5.21,0,0,1,153,69.43c-3.71,2.18-7.28,4.59-10.92,6.89-1.27.8-2.71,1.78-3.85.06s.25-2.67,1.56-3.51c2.39-1.51,4.62-3.37,7.17-4.5,4.09-1.82,5.22-4.7,4.84-9s-.1-8.34-.08-12.51c0-3.3.41-6.42-3.14-8.78-2.39-1.59-2.28-4.77-1-7.41A6.45,6.45,0,0,1,153.43,26.85Zm.36,9.7c1.62-.38,2.77-1.27,2.59-3a2.51,2.51,0,0,0-3-2.48A2.47,2.47,0,0,0,151,33.76C151.06,35.54,152.21,36.29,153.79,36.55Z"/><path class="cls-1" d="M6.79,150.09A6.48,6.48,0,0,1,.31,145c-1-3.43.39-6.16,3.4-7.85s5.76-1.08,8.14,1.25c4.7,4.61,9.77,3.85,12.75-2,.74-1.44,1.45-2.89,2.19-4.33,4.47-8.67,4.47-8.65,14.21-7.83,1.59.14,3.18.38,3,2.35-.12,1.69-1.7,2.13-3.06,1.83-6.73-1.47-9.8,2.29-11.68,7.9-.13.38-.41.71-.53,1.09-1.84,6.09-5.55,9.16-12.18,7.76-1.95-.42-3.18.48-4.23,2.2A5.9,5.9,0,0,1,6.79,150.09Zm.32-9.61c-1.74.14-2.84,1.09-2.86,2.73A2.52,2.52,0,0,0,7,145.91a2.42,2.42,0,0,0,2.58-2.45C9.74,141.69,8.66,140.85,7.11,140.48Z"/><path class="cls-1" d="M144.46,124.3c4.1-1.18,6.87.94,8.44,5.46.74,2.14,2.38,4,3,6.14,1.4,4.59,4.43,5.78,8.84,5.24a4.76,4.76,0,0,0,3.63-1.91c2.87-3.6,7.18-3.93,10.23-1.06a6.89,6.89,0,0,1,0,10.08,6.58,6.58,0,0,1-10.2-1c-1.71-2.57-3.89-2.26-6-1.95-4.94.73-7.9-1.14-9.37-5.85-.48-1.52-1.61-2.83-2.13-4.35-1.72-5.07-4.77-7.75-10.46-6.62-1.51.3-3.66.25-3.67-2s2-2.15,3.63-2.15Zm29.62,21.64a2.58,2.58,0,0,0,2.53-2.93,2.67,2.67,0,0,0-5.34.27C171.29,145,172.36,145.86,174.08,145.94Z"/><path class="cls-1" d="M147.12,105.6c4.63-1.59,7.26,1.61,9.67,5.79,2.84,4.94,6.65,5.14,10.66.91a6.9,6.9,0,1,1,10,9.51c-2.7,2.83-7.32,3.19-9.64,0-2-2.66-4.17-3-6.91-2.71s-5-.4-6.19-3.22c-2.11-5.21-5.89-7.27-11.42-6.2a11.51,11.51,0,0,1-2.42,0c-1.38,0-2.93,0-3-1.92s1.55-2.23,3.14-2.22Zm28.14,11.1c-.45-1.3-1.19-2.52-3-2.37a2.5,2.5,0,0,0-2.49,2.61,2.55,2.55,0,0,0,2.7,2.82C174.13,119.76,175.07,118.61,175.26,116.7Z"/><path class="cls-1" d="M8.22,124a6.7,6.7,0,0,1-6.49-5.29,6.35,6.35,0,0,1,3.2-7.58,6.45,6.45,0,0,1,8.47,1.18c4.1,4.16,7.62,3.86,10.77-.81,1.38-2.06,2-5.33,4.73-5.67,4.11-.51,8.34-.18,12.5,0a1.8,1.8,0,0,1,1.6,2,1.77,1.77,0,0,1-1.74,1.86,4.48,4.48,0,0,1-1.2.09c-7.05-1.3-12.17,1-15,7.84-.91,2.23-3.23,1.56-5,1.53-2.72,0-5.24-.2-6.88,2.79C12.3,123.41,10.36,123.91,8.22,124Zm2.92-7.39c-.41-1.31-1.21-2.46-3-2.26A2.54,2.54,0,0,0,5.7,117a2.58,2.58,0,0,0,2.79,2.74C10.14,119.71,11.08,118.58,11.14,116.59Z"/><path class="cls-1" d="M34.4,93.94c-4.87,1.6-7.92-1.23-10.47-5.9s-6.57-4.91-10.37-.83a7,7,0,0,1-9.81.5,6.85,6.85,0,0,1-.13-10.06c2.81-2.74,7.38-3,9.62.28,2,2.88,4.39,2.7,7,2.52s4.82.44,5.86,3.11c2.13,5.47,6.13,7.31,11.74,6.34a15.2,15.2,0,0,1,3.23,0A1.79,1.79,0,0,1,43,91.63a1.88,1.88,0,0,1-1.77,2.26C39.2,94.05,37.17,93.94,34.4,93.94ZM8.31,85.31c1.71-.14,2.82-1,2.8-2.73a2.56,2.56,0,0,0-2.8-2.7,2.57,2.57,0,0,0-2.6,2.54A2.63,2.63,0,0,0,8.31,85.31Z"/><path class="cls-1" d="M179.43,82.72A7,7,0,0,1,167.13,87c-3.2-3.69-7.27-3.38-10,.58-1.51,2.18-2.21,5.68-4.86,6.15-4.05.72-8.31.29-12.48.21a1.9,1.9,0,0,1-1.88-2.19A1.79,1.79,0,0,1,139.72,90a4.51,4.51,0,0,1,1.21-.06c6.81,1.16,12-.64,14.71-7.59.87-2.24,3.06-1.85,4.92-1.79,2.83.1,5.3.07,7.29-2.81,1.63-2.35,4.56-2.67,7.34-1.43A7,7,0,0,1,179.43,82.72Zm-7.19,2.58c1.81,0,2.89-1,2.93-2.65a2.59,2.59,0,0,0-2.75-2.79,2.56,2.56,0,0,0-2.64,2.48C169.64,84.09,170.66,85,172.24,85.3Z"/><path class="cls-1" d="M29.16,155.51c-1.29-4.26,1.22-7.61,4.95-10.57,2.2-1.75,4.12-3.86,6.19-5.79,1-.93,2.12-1.26,3.21-.23s.6,2.22-.32,3.15a33.64,33.64,0,0,1-4.4,4.14c-4.58,3.15-6.14,7.33-5.52,12.79.28,2.48.38,4.42,2.71,6.14,3,2.19,2.94,6.62.55,9.37a6.91,6.91,0,0,1-9.75.68,6.79,6.79,0,0,1-.9-9.43C29.16,161.59,29.16,161.59,29.16,155.51ZM34,170.19c0-1.89-1.05-2.91-2.73-2.91a2.51,2.51,0,0,0-2.59,2.59,2.48,2.48,0,0,0,2.75,2.77A2.44,2.44,0,0,0,34,170.19Z"/><path class="cls-1" d="M156.59,170.08c-.49,3.28-2,5.75-5.24,6.55s-6.21-.26-7.84-3.4a6.54,6.54,0,0,1,1.26-8.15c4.09-4.15,3.95-12.47-.32-16.55-2.24-2.14-4.5-4.25-6.72-6.41-.93-.91-1.56-2-.42-3.14s2.21-.81,3.21.13c3.42,3.22,7,6.35,10.19,9.77,2.06,2.18.81,5.16,1,7.78.22,3.36-.77,7,3.22,9.12C156.29,166.54,156.4,168.54,156.59,170.08Zm-7.38,2.56c2,.07,2.95-.89,3-2.57a2.51,2.51,0,0,0-2.68-2.78,2.69,2.69,0,0,0-.34,5.35Z"/><path class="cls-1" d="M67.75,157.64c2.88,0,5.59,2.62,5.39,5.33-.08,1.07-.33,2.18-1.63,2.46a1.84,1.84,0,0,1-2.4-1.5c-.45-1.78-1.06-3-2.68-.82-.81,1.09-1.74,1.82-3,.86s-1-2.4-.29-3.61A5.19,5.19,0,0,1,67.75,157.64Z"/><path class="cls-1" d="M90.46,159.4a5.05,5.05,0,0,1,5,4c.36,1.27.3,2.51-1,3.16s-2.29-.14-2.8-1.41c-.72-1.77-1.59-2.29-2.6-.28-.7,1.38-1.5,2.38-3.07,1.34s-1.09-2.58-.4-3.94A5.14,5.14,0,0,1,90.46,159.4Z"/><path class="cls-1" d="M113.37,157.65a5.12,5.12,0,0,1,4.32,2.2c.82,1.24,1.68,2.62.23,3.94s-2.34.4-3.25-.81c-1.32-1.75-2.12-1.21-2.5.7a1.91,1.91,0,0,1-2.62,1.69c-1.45-.42-1.55-1.72-1.39-3C108.57,159.25,110.55,157.82,113.37,157.65Z"/><path class="cls-1" d="M70,141.79a19.58,19.58,0,0,1-7.6-2.86c-1.15-.73-1.71-1.77-1-3.05s2-1.14,3.11-.49a16.81,16.81,0,0,0,6.75,2.35c1.37.13,2.38.73,2.28,2.22C73.39,141.75,72.05,142,70,141.79Z"/><path class="cls-1" d="M121.13,137.92c-.27,1.82-1.25,3.05-3.16,3a2.73,2.73,0,0,1-2.7-3,2.67,2.67,0,0,1,2.67-2.95C119.82,134.88,120.88,136,121.13,137.92Z"/><path class="cls-1" d="M66.69,117.72c-1.79-.17-2.88-1.07-2.94-2.77a2.71,2.71,0,0,1,2.93-3A2.67,2.67,0,0,1,69.49,115,2.74,2.74,0,0,1,66.69,117.72Z"/><path class="cls-1" d="M111.45,140.6c-.22,1.86-1.19,3-3.11,2.94a2.59,2.59,0,0,1-2.72-2.84,2.63,2.63,0,0,1,2.61-2.95C110.17,137.64,111.14,138.78,111.45,140.6Z"/><path class="cls-1" d="M72.57,94.35c.05,2-.36,3.18-1.73,3.53a1.78,1.78,0,0,1-2.29-1.64c-.43-2.43-1.24-2.93-2.86-.75-.72,1-1.71,1.39-2.78.56s-1-2.12-.41-3.26a5.39,5.39,0,0,1,10.07,1.56Z"/><path class="cls-1" d="M106.38,96.8a1.91,1.91,0,0,1-2.31-1.62c-.25-1.52.76-2.14,2.06-2.45,2.73-.64,5.46-1.26,8.19-1.93,1.27-.3,2.52-.37,3.05,1.07.62,1.69-.6,2.46-1.93,2.92A35.87,35.87,0,0,1,106.38,96.8Z"/><path class="cls-1" d="M100.53,25.72a10.1,10.1,0,1,1-9.88-10.11A10.17,10.17,0,0,1,100.53,25.72Zm-10.29-6a5.94,5.94,0,0,0-5.69,6.05,5.89,5.89,0,1,0,11.76-.38A5.91,5.91,0,0,0,90.24,19.75Z"/></g></g></svg>