<svg id="Capa_1" data-name="Capa 1" xmlns="http://www.w3.org/2000/svg" viewBox="0 0 198.13 165.4"><defs><style>.cls-1{fill:#c7895e;}</style></defs><path class="cls-1" d="M173.08,76.6a3.44,3.44,0,0,0-3.92-1.14,75.13,75.13,0,0,0-25-49.64,71,71,0,0,0-89.54-4.16,76.3,76.3,0,0,0-22.7,94.72c12.64,25.88,37.6,41.28,64.4,41.28a71.36,71.36,0,0,0,18.35-2.42c26.43-7,44-24.67,52.2-52.39a31.58,31.58,0,0,0,.78-3.25,3.79,3.79,0,0,0-7.37-1.73c-.12.42-.23.85-.35,1.34A68.1,68.1,0,0,1,147.58,125a63.63,63.63,0,0,1-43.41,24.58A62.72,62.72,0,0,1,57,135.84,68.91,68.91,0,0,1,31.77,86.67,67.3,67.3,0,0,1,50.65,35.36C67.41,18,88.2,11.65,110.76,17.06,137.25,23.42,154,41,160.59,69.28a41.29,41.29,0,0,1,1,6.07,3.41,3.41,0,0,0-3.34,1.05c-1.47,1.47-1.5,3.3-.08,5.45.56.84,1.11,1.69,1.65,2.54.8,1.24,1.61,2.51,2.46,3.75a4.08,4.08,0,0,0,3.31,2,4,4,0,0,0,3.28-2c1-1.5,2-3,2.94-4.53l1.55-2.41A3.63,3.63,0,0,0,173.08,76.6Z"/><path class="cls-1" d="M145.6,99c.21-.61.27-.67.85-.77a10.74,10.74,0,0,0,9.21-10.89c0-3,.06-6.21,0-9.43-.11-5.13-2.57-8.79-6.57-9.79-2.93-.73-3.9-2.29-4.87-5.29a9.21,9.21,0,0,0-1-2l-.07-.1a2.16,2.16,0,0,1,.19-.26,10.11,10.11,0,0,0,2.27-6.72h0a10.61,10.61,0,0,0-3.17-7.6L140,43.56c-1.34-1.34-2.67-2.68-4-4-4.26-4.21-9.88-4.67-14.66-1.2a2.07,2.07,0,0,0-.24.16,1.22,1.22,0,0,1-.23-.1,52.48,52.48,0,0,0-5.5-2.28c-.55-.19-.64-.26-.75-.89a10.74,10.74,0,0,0-10.92-9.17c-2.78,0-5.56,0-8.34,0h-.49c-6.16,0-10.31,3.5-11.39,9.53a2.63,2.63,0,0,1-.06.27,1,1,0,0,1-.26.11,48.62,48.62,0,0,0-5.53,2.3c-.51.26-.56.27-1.07-.11a10.67,10.67,0,0,0-13.94,1c-2.13,2.06-4.63,4.5-7.07,7.08-3.42,3.62-4.16,8-2,11.78,1.37,2.36,1,4-.15,6.12a8.62,8.62,0,0,0-1,2.53.79.79,0,0,1-.09.28,1.83,1.83,0,0,1-.74.21,10.73,10.73,0,0,0-9.11,10.58c-.06,3.19-.11,6.6,0,10,.19,5,2.73,8.56,6.79,9.63,2.84.75,3.75,2.22,4.44,4.68a8.28,8.28,0,0,0,1,2.28c.12.19.14.28.15.28a1.68,1.68,0,0,1-.28.47,10.7,10.7,0,0,0,1,14.09c2.45,2.55,4.76,4.87,7.08,7.07,3.56,3.38,8,4.14,11.62,2,2.39-1.43,4-1.07,6.45.23a7.74,7.74,0,0,0,2.17.79c.4.07.51.1.66.94a10.72,10.72,0,0,0,10.8,9.06h.89c1.44,0,2.91,0,4.38,0s3,0,4.55-.08c5-.19,8.51-2.68,9.51-6.67.72-2.89,2.31-3.86,5-4.64a7,7,0,0,0,2.15-1l.17-.11a2.14,2.14,0,0,1,.54.32,10.74,10.74,0,0,0,14.08-1c2.05-2,4.21-4.15,6.79-6.78a10.7,10.7,0,0,0,1.06-14.24,1.9,1.9,0,0,1-.25-.41,1.12,1.12,0,0,1,.13-.32A41.34,41.34,0,0,0,145.6,99ZM61,109.25a6.42,6.42,0,0,0,.81-7.72,35.27,35.27,0,0,1-2.53-6.14,6.11,6.11,0,0,0-5.59-4.59c-2.64-.27-3.64-1.37-3.67-4.07s0-5.29,0-8,.93-3.9,3.75-4.2a6.06,6.06,0,0,0,5.47-4.44,48.63,48.63,0,0,1,2.79-6.7,6.15,6.15,0,0,0-.78-7c-1.71-2.12-1.65-3.49.27-5.42,1.15-1.17,2.3-2.32,3.46-3.47l2.63-2.62a3.56,3.56,0,0,1,2.43-1.18,3.42,3.42,0,0,1,2.37.93,6.29,6.29,0,0,0,7.75.87,36.84,36.84,0,0,1,6.14-2.55,6.1,6.1,0,0,0,4.59-5.58c.27-2.65,1.38-3.64,4.07-3.68,3,0,5.72,0,8.39,0,2.43,0,3.61,1.12,3.82,3.51a6.08,6.08,0,0,0,4.46,5.69,47.3,47.3,0,0,1,6.69,2.79,6.11,6.11,0,0,0,7-.78c2.08-1.71,3.5-1.64,5.43.26l1,1c1.63,1.61,3.31,3.27,4.93,4.94s1.78,3.26.21,5.14a6.22,6.22,0,0,0-.86,7.2,49.21,49.21,0,0,1,2.78,6.71,6.12,6.12,0,0,0,5.51,4.4c2.69.28,3.65,1.33,3.67,4s0,5.48,0,8.22-1,3.74-3.5,4a6.23,6.23,0,0,0-5.75,4.66,41,41,0,0,1-2.64,6.33,6.29,6.29,0,0,0,.83,7.37c1.5,1.77,1.45,3.36-.15,5-2.27,2.31-4.34,4.38-6.34,6.32-1.63,1.59-3.17,1.66-4.84.23a6.37,6.37,0,0,0-7.54-.9,40.79,40.79,0,0,1-6.33,2.63,6.17,6.17,0,0,0-4.6,5.56c-.31,2.78-1.34,3.68-4.23,3.7-2.57,0-5.32,0-8,0s-3.75-1-4-3.52a6.22,6.22,0,0,0-4.65-5.74A40.51,40.51,0,0,1,80,119.77a6.85,6.85,0,0,0-3.18-.84,6.54,6.54,0,0,0-4.19,1.63c-1.93,1.58-3.32,1.51-5.15-.26-2-2-4.13-4.07-6.19-6.19C59.71,112.5,59.63,110.91,61,109.25Z"/><path class="cls-1" d="M70.59,82.47a28.49,28.49,0,0,0,8.35,20.31,28,28,0,0,0,19.9,8.36h.06a28.63,28.63,0,0,0,28.64-28.38A28.51,28.51,0,0,0,99.22,54.18h-.1A28.5,28.5,0,0,0,70.59,82.47ZM99,61.76h0A20.94,20.94,0,0,1,113.9,68,20.57,20.57,0,0,1,120,82.65a21,21,0,0,1-20.9,20.9h0a21,21,0,0,1-20.86-21A21,21,0,0,1,99,61.76Z"/><path class="cls-1" d="M99.1,50.83h0A3.81,3.81,0,0,0,102,49.75,3.7,3.7,0,0,0,103,47c0-2.2-1.5-3.59-3.92-3.72a1.56,1.56,0,0,0-.31,0c-2.24.34-3.5,1.71-3.47,3.77A3.57,3.57,0,0,0,99.1,50.83Z"/><path class="cls-1" d="M132.51,72.48a4,4,0,0,0,.07,5.82,3.48,3.48,0,0,0,2.33.9l.41,0a3.78,3.78,0,0,0,3.5-3.77,1.85,1.85,0,0,0,0-.23,3.78,3.78,0,0,0-3.59-3.62A3.46,3.46,0,0,0,132.51,72.48Z"/><path class="cls-1" d="M133.66,91a3.8,3.8,0,0,0-2.77,1.12,3.73,3.73,0,0,0-1.08,2.78,3.66,3.66,0,0,0,3.59,3.71l.29,0a3.54,3.54,0,0,0,2.41-1,3.94,3.94,0,0,0,1.26-2.9A3.76,3.76,0,0,0,133.66,91Z"/><path class="cls-1" d="M89.15,52.15h.29a3.52,3.52,0,0,0,2.42-1,3.94,3.94,0,0,0,1.23-2.92h0a3.78,3.78,0,0,0-6.46-2.63,3.81,3.81,0,0,0-1.09,2.81A3.63,3.63,0,0,0,89.15,52.15Z"/><path class="cls-1" d="M108.77,52.19l.18,0h.17a3.8,3.8,0,0,0-.26-7.6,3.62,3.62,0,0,0-3.75,3.63C105.05,50.42,106.42,51.9,108.77,52.19Z"/><path class="cls-1" d="M80.12,55.92h.22a3.54,3.54,0,0,0,2.46-1,4.12,4.12,0,0,0,1.25-3.06c0-.05,0-.11,0-.16a3.72,3.72,0,0,0-3.69-3.37,3.69,3.69,0,0,0-2.79,1.11,3.78,3.78,0,0,0-1.1,2.86A3.69,3.69,0,0,0,80.12,55.92Z"/><path class="cls-1" d="M66.44,69.86h.22a3.68,3.68,0,0,0,2.58-1.09,3.78,3.78,0,0,0,1.14-2.86,3.69,3.69,0,0,0-3.61-3.67h-.12a4,4,0,0,0-2.88,1.26,3.61,3.61,0,0,0-1,2.72A3.73,3.73,0,0,0,66.44,69.86Z"/><path class="cls-1" d="M73.06,103.13a4.16,4.16,0,0,0-1.71-2.86,3.44,3.44,0,0,0-2.75-.61,3.81,3.81,0,0,0-1.68,6.77,3.79,3.79,0,0,0,2.31.8,3.36,3.36,0,0,0,.63-.06,3.72,3.72,0,0,0,3.21-3.82A1.62,1.62,0,0,0,73.06,103.13Z"/><path class="cls-1" d="M117.94,56l.32,0a3.76,3.76,0,0,0,3.55-3.75,3.45,3.45,0,0,0-1-2.62,4.1,4.1,0,0,0-3-1.23h-.13a3.82,3.82,0,0,0,.34,7.61Z"/><path class="cls-1" d="M72.17,62l.35,0A3.65,3.65,0,0,0,74.93,61a3.85,3.85,0,0,0,1.3-2.83,3.65,3.65,0,0,0-3.46-3.84,3.44,3.44,0,0,0-2.72.88,4,4,0,0,0-1.39,3,.76.76,0,0,0,0,.15A3.72,3.72,0,0,0,72.17,62Z"/><path class="cls-1" d="M62.93,79.09l.33,0a3.53,3.53,0,0,0,2.36-.93,4,4,0,0,0,1.27-2.94h0a3.73,3.73,0,0,0-3.64-3.79,3.86,3.86,0,0,0-3.9,3.92A3.71,3.71,0,0,0,62.93,79.09Z"/><path class="cls-1" d="M129.21,99.68H129a4,4,0,0,0-3,1.27,3.56,3.56,0,0,0-1,2.69,3.76,3.76,0,0,0,3.62,3.67h.26a3.69,3.69,0,0,0,2.54-1,3.77,3.77,0,0,0,1.17-2.87A3.7,3.7,0,0,0,129.21,99.68Z"/><path class="cls-1" d="M84.42,111.58a3.79,3.79,0,0,0-3.61,3.67,3.42,3.42,0,0,0,1,2.63,4.15,4.15,0,0,0,3,1.27h.19a3.69,3.69,0,0,0,3.51-3.67,3.62,3.62,0,0,0-1.12-2.78A3.74,3.74,0,0,0,84.42,111.58Z"/><path class="cls-1" d="M125.67,62h.17a3.82,3.82,0,0,0,2.67-6.37,4.15,4.15,0,0,0-3-1.18h-.16a3.55,3.55,0,0,0-3.39,3.61,3.77,3.77,0,0,0,1.12,2.84A3.7,3.7,0,0,0,125.67,62Z"/><path class="cls-1" d="M127.81,65.83a3.44,3.44,0,0,0,.88,2.71,4.26,4.26,0,0,0,3.12,1.38h.13a3.82,3.82,0,0,0,2.52-6.3,3.88,3.88,0,0,0-2.84-1.27h0A3.63,3.63,0,0,0,127.81,65.83Z"/><path class="cls-1" d="M62.53,89A3.71,3.71,0,0,0,65,88a3.47,3.47,0,0,0,1.18-2.54v0a3.87,3.87,0,0,0-3.56-4.06,3.55,3.55,0,0,0-2.82,1A3.85,3.85,0,0,0,62.24,89Z"/><path class="cls-1" d="M113.73,111.62a3.78,3.78,0,1,0-.58,7.54l.32,0a3.65,3.65,0,0,0,2.46-.94,4,4,0,0,0,1.27-2.9v-.08A3.65,3.65,0,0,0,113.73,111.62Z"/><path class="cls-1" d="M94.05,114.15a3.53,3.53,0,0,0-3.68,3.66,3.58,3.58,0,0,0,3.47,3.86H94a3.77,3.77,0,0,0,2.89-6.44A3.68,3.68,0,0,0,94.05,114.15Z"/><path class="cls-1" d="M103.88,114.15a3.77,3.77,0,0,0-2.77,1.19,3.65,3.65,0,0,0-1,2.83,3.56,3.56,0,0,0,3.49,3.51h.13a4.1,4.1,0,0,0,3.06-1.33,3.47,3.47,0,0,0,.87-2.72A3.6,3.6,0,0,0,103.88,114.15Z"/><path class="cls-1" d="M135.87,81.45A3.84,3.84,0,0,0,133,82.53a3.62,3.62,0,0,0-1.05,2.75A3.67,3.67,0,0,0,135.51,89h.27a3.6,3.6,0,0,0,2.43-1,4.15,4.15,0,0,0,1.3-3,1.69,1.69,0,0,0,0-.23A3.67,3.67,0,0,0,135.87,81.45Z"/><path class="cls-1" d="M64.5,98.54a3.78,3.78,0,0,0,3-6.09,4.1,4.1,0,0,0-2.85-1.51h-.23A3.66,3.66,0,0,0,60.8,94.3a3.83,3.83,0,0,0,.88,3,3.58,3.58,0,0,0,2.63,1.28Z"/><path class="cls-1" d="M121.73,106.7a3.78,3.78,0,0,0,.13,7.56,2.17,2.17,0,0,0,.36,0,3.66,3.66,0,0,0,3.5-3.56v-.14a4.17,4.17,0,0,0-1.36-3A3.44,3.44,0,0,0,121.73,106.7Z"/><path class="cls-1" d="M76,106.66a3.56,3.56,0,0,0-3.64,3.7,3.65,3.65,0,0,0,3.6,3.86h.27a3.79,3.79,0,1,0-.23-7.57Z"/><path class="cls-1" d="M88.77,88.63c1,1.06,2,2.13,3,3.16a4.32,4.32,0,0,0,3.11,1.54h0A4.26,4.26,0,0,0,98,91.83c2.72-2.78,5.42-5.57,8.13-8.36l4.54-4.69a4.39,4.39,0,0,0,1.4-3,.43.43,0,0,0,0-.16,3.65,3.65,0,0,0-2.32-3.35,3.84,3.84,0,0,0-4.34,1q-2.36,2.45-4.73,4.86l-3.92,4A17.75,17.75,0,0,1,95,83.89a16.89,16.89,0,0,1-1.84-1.74l-.26-.26a4.17,4.17,0,0,0-2.93-1.45,3.66,3.66,0,0,0-2.64,1.14c-1.67,1.61-1.64,3.75.09,5.57C87.85,87.64,88.31,88.14,88.77,88.63Z"/></svg>