<svg id="Capa_1" data-name="Capa 1" xmlns="http://www.w3.org/2000/svg" viewBox="0 0 212.43 178.47"><defs><style>.cls-1{fill:#c7895e;}</style></defs><path class="cls-1" d="M56.86,51.35c.9-.87,1.77-1.66,2.59-2.48q6.7-6.69,13.4-13.39a3.77,3.77,0,1,0-5.24-5.41q-5.3,5.28-10.56,10.57C51.88,45.84,46.66,51,41.54,56.25a17.15,17.15,0,0,0-5,9.86c0,.37-.18.48-.54.48q-7.11,0-14.23,0c-.36,0-.51-.09-.5-.48,0-2.2,0-4.4,0-6.6,0-.57.35-.47.68-.47,2.72,0,5.45,0,8.17,0a.82.82,0,0,0,.89-.56,26.27,26.27,0,0,1,5.57-8q12.89-13,25.81-25.87a11.29,11.29,0,0,1,19.25,8.5,11,11,0,0,1-3.19,7.41c-1.07,1.1-2.19,2.16-3.29,3.25.25.29.5.18.71.18,6.21,0,12.42,0,18.63,0a.92.92,0,0,0,1-.71A18.35,18.35,0,0,0,90.42,23c-2.42-2.09-4.86-4.16-7.27-6.26a3.75,3.75,0,0,1,.94-6.47A4.24,4.24,0,0,1,85.7,10h67.46a3.77,3.77,0,0,1,2.54,6.74c-2.37,2.07-4.77,4.1-7.14,6.16a18.25,18.25,0,0,0-.12,27.79,47.8,47.8,0,0,1,12.89,17.67,44.47,44.47,0,0,1-11.53,50.23l-.77.7c.28.25.58.13.84.13h36.95c2.84,0,4.31,1.47,4.31,4.31v25.39c0,2.77-1.5,4.26-4.28,4.26q-31.36,0-62.74,0c-.77,0-.93.2-.93.95,0,4.48,0,9,0,13.44,0,.58-.14.75-.74.74q-3-.06-6,0c-.66,0-.88-.11-.87-.84,0-4.48,0-9,0-13.44,0-.73-.22-.84-.88-.84H52.07c-2.88,0-4.34-1.46-4.34-4.36V123.63c0-2.72,1.5-4.21,4.24-4.21H88.84a1.7,1.7,0,0,0,.9-.09,45.57,45.57,0,0,1-5-5A10.56,10.56,0,0,1,83.66,113a2.24,2.24,0,0,0-2.33-1.11c-8.49,0-17,0-25.47,0a26.23,26.23,0,0,1-18.55-7.22,1.39,1.39,0,0,0-1.07-.34c-4.72,0-9.43,0-14.15,0-.59,0-.81-.12-.79-.76,0-2,0-4.09,0-6.14,0-.47.07-.68.62-.68q8.92,0,17.85,0a1,1,0,0,1,.85.43,18.63,18.63,0,0,0,15.07,7.12H82.82c5.89,0,11.77,0,17.66,0a3.62,3.62,0,0,0,3.5-2.22,3.53,3.53,0,0,0-.5-3.91,3.73,3.73,0,0,0-3.1-1.42c-4.69,0-9.38,0-14.07,0-.69,0-.88-.15-.86-.85q.08-2.91,0-5.82c0-.69.14-.91.88-.91,9.7,0,19.39,0,29.09,0a3.77,3.77,0,1,0,.26-7.54c-2.91,0-5.82,0-8.72,0-6.9,0-13.79,0-20.68,0-.63,0-.85-.13-.83-.81q.08-3,0-6c0-.68.2-.8.83-.8q18.31,0,36.64,0a3.77,3.77,0,1,0,.52-7.53c-.32,0-.63,0-1,0q-18,0-36.08,0c-.82,0-1-.23-1-1,0-1.94,0-3.88,0-5.82,0-.63.17-.77.78-.77q14.63,0,29.24,0a3.73,3.73,0,0,0,4-3.86,3.67,3.67,0,0,0-3.57-3.67q-8.64-.06-17.29,0c-.89,0-1.78,0-2.66,0h-38A2.11,2.11,0,0,1,56.86,51.35ZM92.7,111.87c.2.23.29.35.39.45a39.19,39.19,0,0,0,9.15,6.72,3,3,0,0,0,1.48.39q15.45,0,30.89,0a4.59,4.59,0,0,0,2.37-.59c11.41-6.36,18.16-15.94,19.89-28.92a36.08,36.08,0,0,0-3.25-20.35,41.41,41.41,0,0,0-10.23-13.28,25.86,25.86,0,0,1-.47-38.35c.1-.09.29-.16.23-.34H95.7c7.5,7.39,10,16.14,7.55,26.35h1c3.87,0,7.75,0,11.63,0a11.28,11.28,0,0,1,10.53,14.79c-.19.56-.14.77.47,1A11.22,11.22,0,0,1,126.9,81c-.61.22-.72.39-.52,1a11.25,11.25,0,0,1-8.22,14.48,29.85,29.85,0,0,1-6.19.29c-.53,0-.79,0-.58.7a11.2,11.2,0,0,1-8.31,14.11,11.94,11.94,0,0,1-2.8.29C97.8,111.86,95.32,111.87,92.7,111.87ZM119.51,127q-31.68,0-63.36,0c-.72,0-.89.18-.89.9q0,8.6,0,17.21c0,.6.13.79.77.79q63.39,0,126.79,0c.62,0,.78-.17.78-.78q0-8.56,0-17.14c0-.76-.15-1-1-1Q151.07,127,119.51,127Z"/></svg>