<svg xmlns="http://www.w3.org/2000/svg" viewBox="0 0 131.34 131.39"><defs><style>.cls-1{fill:#6c2910;}</style></defs><g id="Capa_2" data-name="Capa 2"><g id="Capa_1-2" data-name="Capa 1"><path class="cls-1" d="M107.53,131.37c-.24,0-.3-.23-.41-.37l-7.65-9.93c-2.19-2.85-4.37-5.7-6.57-8.53A6.22,6.22,0,0,0,87.81,110c-2.91,0-5.81,0-8.71,0a12.62,12.62,0,0,1-5.27-1.1c-4.9-2.13-9.81-4.21-14.71-6.32a.54.54,0,0,0-.71.09,11.46,11.46,0,0,1-5.33,2.86q-5.59,1.5-11.19,3a6.49,6.49,0,0,0-3.32,2.13L23.21,129c-.6.71-1.22,1.41-1.79,2.15-.26.34-.43.3-.72,0-.81-.72-1.64-1.43-2.5-2.1-.34-.27-.32-.45-.06-.76,2.53-3,5-6,7.56-9q4.89-5.8,9.78-11.6c.26-.32,0-.42-.12-.59l-8.71-8.71c-1.09-1.09-2.18-2.19-3.28-3.27-.13-.14-.24-.44-.53-.14a48.27,48.27,0,0,1-5.29,4.28c-4.86,3.76-9.74,7.49-14.6,11.25-.36.27-.5.23-.75-.11-.63-.88-1.3-1.74-2-2.58-.25-.31-.25-.47.08-.72l17-13a11.58,11.58,0,0,0,3.05-2.83,6.54,6.54,0,0,0,1-3.46c0-2.79,0-5.58,0-8.36a14.27,14.27,0,0,1,1.3-6.1c2.08-4.74,4.1-9.52,6.14-14.29.09-.2.17-.37,0-.56a12.67,12.67,0,0,1-3.17-6.24c-.9-3.45-1.85-6.88-2.79-10.32a6.67,6.67,0,0,0-2.24-3.44Q10.45,30,.34,21.55c-.43-.36-.45-.56-.08-1,.7-.76,1.36-1.56,2-2.37.27-.33.44-.34.77-.07,2.5,2.13,5,4.23,7.52,6.36.37.31.57.36,1,0q7.07-7.11,14.17-14.18c.35-.34.38-.55.06-1C24.06,7.23,22.43,5.08,20.78,3c-.23-.3-.27-.46.08-.71.89-.64,1.77-1.32,2.63-2C23.8,0,24,0,24.2.32q6.15,8,12.31,16c.66.85,1.3,1.7,2,2.53a6.24,6.24,0,0,0,5,2.48q4.44,0,8.88,0a12.25,12.25,0,0,1,5,1c5,2.15,9.94,4.27,14.92,6.41a.53.53,0,0,0,.7-.08,11,11,0,0,1,5-2.78c3.77-1,7.54-2.06,11.31-3.07a7,7,0,0,0,3.63-2.36q8.47-10.11,17-20.22c.3-.36.47-.34.79-.06q1.2,1.07,2.46,2.07c.34.27.32.44,0,.76q-3.7,4.39-7.4,8.81-4.94,5.88-9.89,11.74c-.32.37-.05.49.13.67L103.8,32,108,36.2c.14.14.25.43.54.13A48.15,48.15,0,0,1,113.85,32c4.82-3.74,9.68-7.44,14.5-11.19.41-.31.56-.23.83.13.61.85,1.25,1.69,1.92,2.5.28.34.26.52-.11.79q-8,6.11-15.93,12.24c-.88.68-1.77,1.34-2.63,2a6.24,6.24,0,0,0-2.43,5c0,2.83,0,5.65,0,8.48a13.92,13.92,0,0,1-1.23,5.82c-2.1,4.79-4.13,9.6-6.19,14.39-.09.22-.22.4,0,.62a12.77,12.77,0,0,1,3.17,6.3c.9,3.43,1.85,6.84,2.78,10.26a6.69,6.69,0,0,0,2.24,3.44q10.11,8.49,20.23,17c.44.37.42.57.06,1-.7.78-1.37,1.59-2,2.41-.24.3-.39.29-.68,0-1.37-1.18-2.77-2.33-4.15-3.51-.31-.27-.47-.28-.78,0q-7.47,7.5-15,15c-.36.35-.33.56,0,.91.75.92,1.44,1.88,2.18,2.8.2.26.25.4-.06.63-.92.67-1.82,1.39-2.73,2.09A2.61,2.61,0,0,1,107.53,131.37ZM36.46,60.51a3,3,0,0,0-1.73-2.66c-.48-.23-.7-.15-.92.37Q30.1,67,26.34,75.67a8,8,0,0,0-.68,3.22c0,2.84,0,5.69,0,8.53a10,10,0,0,1-.33,2.89.93.93,0,0,0,.29,1c4.2,4.17,8.4,8.34,12.55,12.56a2,2,0,0,0,2.35.64c3.73-1.14,7.52-2.12,11.29-3.12a8.57,8.57,0,0,0,4-2.24c4.38-4.43,8.8-8.81,13.2-13.21l4.53-4.54a2.1,2.1,0,0,0,.6-2.2,2,2,0,0,0-1.59-1.48,2.2,2.2,0,0,0-2.12.71q-7.32,7.35-14.65,14.68c-.34.34-.5.34-.83,0-.71-.77-1.46-1.51-2.22-2.23-.34-.32-.35-.49,0-.83q10.36-10.34,20.7-20.69a2.16,2.16,0,1,0-3-3l-5,5q-7.85,7.86-15.7,15.72c-.32.33-.46.28-.74,0-.77-.8-1.55-1.59-2.35-2.35-.28-.26-.25-.4,0-.65l16-16L72,58.77a2.19,2.19,0,0,0,.75-1.89,2,2,0,0,0-1.4-1.8,2.09,2.09,0,0,0-2.31.56q-3,3-6,6-9.73,9.73-19.47,19.48c-.26.26-.4.3-.66,0-.74-.78-1.48-1.55-2.27-2.27-.37-.35-.39-.54,0-.91,3-3,6-6,9-8.94s5.77-5.78,8.67-8.66a2.2,2.2,0,0,0,.66-2.39,2.14,2.14,0,0,0-3.66-.69L37.38,75.12a2.18,2.18,0,0,1-3.77-2.05c.74-3.19,1.5-6.38,2.22-9.57A24.89,24.89,0,0,0,36.46,60.51ZM61.94,99.12l.35.15,13.55,5.83a7.38,7.38,0,0,0,3,.6c2.91,0,5.81,0,8.71,0a10.64,10.64,0,0,1,8.57,4c1.14,1.4,2.23,2.85,3.32,4.3.27.35.42.42.76.07q6.47-6.5,13-13c.3-.3.26-.44,0-.69-1.67-1.39-3.32-2.8-5-4.19a10.91,10.91,0,0,1-3.71-5.71l-3.21-11.74a6.34,6.34,0,0,0-1.62-2.86q-9.06-9.08-18.14-18.14a2.14,2.14,0,1,0-3,3c.53.55,1.08,1.08,1.62,1.62Q86.58,69,93.18,75.58c.31.31.29.46,0,.75Q92,77.46,90.86,78.64c-.3.32-.45.28-.75,0q-5.51-5.55-11-11.06c-.14-.14-.24-.34-.51-.39a10.77,10.77,0,0,1-.09,1.71,10.64,10.64,0,0,1-.52,1.63c-.18.47-.81.83-.62,1.32s.68.74,1.05,1.11q4.34,4.34,8.68,8.66c.31.31.4.48,0,.83-.8.74-1.56,1.52-2.31,2.31-.28.3-.43.25-.7,0-1.58-1.61-3.18-3.19-4.77-4.79a8.47,8.47,0,0,1-.58-.76l-.18.14a6.25,6.25,0,0,1-1.09,4.18c-.23.33-.2.5.07.75,1.2,1.18,2.37,2.38,3.57,3.55.26.25.25.38,0,.62-.82.8-1.63,1.61-2.42,2.44-.24.24-.37.26-.63,0-1.14-1.18-2.32-2.32-3.47-3.5-.28-.29-.46-.39-.79,0-.74.8-1.52,1.56-2.3,2.31-.29.27-.31.42,0,.71,1.24,1.21,2.46,2.45,3.69,3.68a2.39,2.39,0,0,1,.72,1.21c.35,1.69-1.06,2.92-2.87,2.5L65.59,96c-.2,0-.39-.12-.58.07C64,97.08,63,98.07,61.94,99.12ZM79.26,52.69a7.34,7.34,0,0,1,4.42,1.37c.26.2.37-.06.51-.19,1.17-1.17,2.36-2.33,3.51-3.52.28-.29.44-.37.75,0,.75.81,1.54,1.59,2.34,2.35.32.3.25.45,0,.71-1.19,1.16-2.35,2.35-3.53,3.51-.26.25-.25.39,0,.63.8.77,1.58,1.55,2.34,2.35.29.3.46.33.76,0,1.21-1.24,2.46-2.46,3.68-3.69a2.23,2.23,0,0,1,1.84-.75,2.19,2.19,0,0,1,1.85,2.94c-.57,2.45-1.12,4.91-1.71,7.35a.71.71,0,0,0,.25.79c.83.81,1.67,1.63,2.46,2.48.36.37.47.31.65-.14q2.82-6.63,5.68-13.24a7.57,7.57,0,0,0,.64-3.11c0-2.86,0-5.73,0-8.59A10.39,10.39,0,0,1,106,41a.85.85,0,0,0-.27-1c-4.22-4.2-8.45-8.4-12.62-12.64a1.91,1.91,0,0,0-2.26-.59c-3.74,1.13-7.52,2.14-11.3,3.12a9.05,9.05,0,0,0-4.29,2.46C71.9,35.83,68.48,39.2,65.08,42.6l-7.17,7.17a2.36,2.36,0,0,0-.83,1.87c0,.33.11.55.52.58a5.72,5.72,0,0,1,2.54.82.44.44,0,0,0,.67-.08c1-1,2-2,2.95-3L75.62,38.13c.25-.25.38-.26.62,0,.77.8,1.55,1.58,2.35,2.34.31.3.33.47,0,.8-2.94,2.91-5.86,5.85-8.79,8.77-.23.23-.49.41-.74.62l.12.13.26,0a6.21,6.21,0,0,1,4.31.73.55.55,0,0,0,.81-.12c2.36-2.39,4.74-4.76,7.11-7.14.25-.25.39-.31.66,0,.79.83,1.6,1.65,2.43,2.44.27.25.23.39,0,.61-.45.42-.87.86-1.3,1.29Zm-26.6-.56.15-.11A6,6,0,0,1,53.87,48c.28-.4.2-.59-.11-.89-1.17-1.14-2.32-2.32-3.49-3.47-.23-.22-.31-.35,0-.62.84-.8,1.66-1.63,2.46-2.47.24-.24.36-.2.58,0,1.18,1.2,2.38,2.37,3.56,3.57.25.26.39.31.66,0,.78-.82,1.58-1.61,2.39-2.39.29-.27.26-.42,0-.67-1.24-1.22-2.45-2.46-3.69-3.68a2.54,2.54,0,0,1-.73-1.2,2.19,2.19,0,0,1,2.85-2.54c2.46.62,4.94,1.14,7.41,1.73a.67.67,0,0,0,.74-.22c.8-.82,1.62-1.62,2.43-2.43.48-.48.48-.48-.12-.74L57.22,27a11.7,11.7,0,0,0-5-1.35c-2.78.08-5.57,0-8.36,0a10.86,10.86,0,0,1-6-1.65.45.45,0,0,0-.68.08Q31.16,30.23,25,36.3c-.28.28-.22.44,0,.69a10.35,10.35,0,0,1,1.9,3.81c1,3.68,2,7.36,3,11a9.42,9.42,0,0,0,.73,2.11c.12.23.21.39.47.1a2.12,2.12,0,0,1,1.37-.62,6.92,6.92,0,0,1,5.35,1.34c.31.22.46.18.69-.07.62-.65,1.28-1.26,1.89-1.92.29-.3.46-.35.79,0,1.94,2,3.92,3.91,5.86,5.88.29.3.44.28.71,0,.74-.77,1.49-1.53,2.27-2.26.34-.32.37-.49,0-.84-2-1.92-3.9-3.88-5.85-5.81-.26-.26-.36-.4,0-.71.82-.77,1.61-1.57,2.38-2.39.27-.27.41-.25.67,0,1.11,1.15,2.26,2.27,3.39,3.41ZM34.48,20.77c-.09-.12-.16-.23-.24-.33-1.74-2.27-3.49-4.53-5.22-6.81-.21-.28-.32-.31-.59,0Q21.58,20.46,14.71,27.3c-.3.3-.32.44,0,.72q3.27,2.7,6.49,5.45c.27.23.41.19.64,0L34.2,21.08Zm71,100.88.31-.29Q113,114.17,120.16,107c.31-.3.25-.45,0-.69-1-.81-2-1.62-2.94-2.47-.3-.26-.47-.23-.74,0-1.37,1.4-2.77,2.79-4.16,4.18l-9.51,9.51c-.16.16-.39.28-.14.59.87,1.09,1.71,2.2,2.56,3.3C105.26,121.53,105.3,121.66,105.47,121.65Zm-66-54.88.11.06c1.52-1.52,3-3,4.57-4.55.28-.28.1-.41-.08-.59-1-.95-1.92-1.91-2.87-2.87-.26-.26-.48-.55-.72-.82l-.15.11a7.67,7.67,0,0,1,.11,4.5C40.12,64,39.81,65.39,39.48,66.77Z"/><path class="cls-1" d="M65.05,130.12a64.44,64.44,0,0,1-28.59-7c-.52-.26-1-.56-1.57-.82-.26-.13-.3-.26-.15-.52.57-1,1.13-2,1.65-3,.19-.38.36-.37.69-.19a58,58,0,0,0,10,4.3,60.2,60.2,0,0,0,44.82-3.08c.71-.34.71-.34,1.06.35.45.9.89,1.82,1.37,2.7.2.37.12.5-.23.67a64.12,64.12,0,0,1-18,5.76c-1.36.21-2.72.4-4.09.54A64.87,64.87,0,0,1,65.05,130.12Z"/><path class="cls-1" d="M65.54,5.54a58.94,58.94,0,0,0-26.17,6.07c-.55.26-.76.19-1-.36-.42-1-.93-1.88-1.41-2.81-.15-.28-.14-.41.17-.56A64.72,64.72,0,0,1,53.78,2.33,64.92,64.92,0,0,1,92,6.86c1.43.63,2.82,1.34,4.21,2.05.44.22.6.39.3.88-.57.91-1.06,1.86-1.56,2.8-.17.32-.3.38-.64.2A59.7,59.7,0,0,0,69,5.64C67.83,5.58,66.69,5.53,65.54,5.54Z"/><path class="cls-1" d="M1.23,65a64.14,64.14,0,0,1,6-26.52C7.77,37.35,8.39,36.21,9,35c.17-.36.33-.46.72-.23.93.56,1.89,1.08,2.85,1.58.38.19.41.36.21.72A60.15,60.15,0,0,0,11.54,92c.38.76.5.61-.37,1.05s-1.84.92-2.75,1.39c-.29.15-.42.11-.56-.18A64.11,64.11,0,0,1,2.66,79.3,63.27,63.27,0,0,1,1.23,65Z"/><path class="cls-1" d="M130.12,64.91a66,66,0,0,1-6,27.81c-.57,1.24-1.23,2.45-1.83,3.68-.17.37-.34.34-.65.17-1-.55-1.92-1.08-2.9-1.6-.36-.18-.4-.33-.21-.68a58.71,58.71,0,0,0,4.17-9.64A60.82,60.82,0,0,0,125.34,58a59.08,59.08,0,0,0-5.56-18.59c-.35-.73-.48-.6.36-1S122,37.47,122.9,37c.31-.17.43-.13.59.19A64.39,64.39,0,0,1,128.67,52,60.82,60.82,0,0,1,130.12,64.91Z"/></g></g></svg>