<svg xmlns="http://www.w3.org/2000/svg" viewBox="0 0 136.37 135.29"><defs><style>.cls-1{fill:#6c2910;}</style></defs><g id="Capa_2" data-name="Capa 2"><g id="Capa_1-2" data-name="Capa 1"><path class="cls-1" d="M0,67.37C0,29.91,30.31,0,68.22,0s68.18,30,68.15,67.44a67.66,67.66,0,0,1-68.2,67.85C30.16,135.19,0,105.14,0,67.37Zm23.86,45.48c1.57-12.71,8.84-19.53,20.62-22.13a33.19,33.19,0,0,0,7.44-2.48c3-1.47,3.07-3.66.47-5.63A29.37,29.37,0,0,1,41,65.06a4.49,4.49,0,0,0-2.65-3.57c-5.3-2.7-6-11-1-14.18,3.09-2,2.65-3.54,1.56-6.29a21.36,21.36,0,0,1,8.27-25.45c4.56-2.91,9.57-3.76,14.13-.68,2.86,1.93,5.59,2.24,8.74,2.31C82,17.47,90.37,23.78,94.17,35c.54,1.58-.16,4.13,2.38,4.56s3.49-2.07,5.12-3.31c1.28-1,.62-2.29.72-3.48.24-2.77,1.78-4.41,4.54-4.58a4.44,4.44,0,0,1,5,4c.43,2.69-.83,4.93-3.57,5.27-2.44.3-3.77,1.76-5.22,3.26s-3.07,3.35-5.72,2.92c-.56-.09-1.41-.05-1.41.8s.85,1.09,1.61,1.09c3.26,0,6.52,0,9.78.11,2,.06,3.47-.23,4.87-2,1.87-2.29,4.43-2.29,6.65-.33a4.44,4.44,0,0,1,.71,6.41c-1.71,2.36-4.08,2.74-6.63,1.26-1-.55-1.67-1.44-3-1.42-4,.07-8,0-12,0-1.21,0-1.89.39-1.84,1.71A1.47,1.47,0,0,0,97.82,53a10.75,10.75,0,0,0,1.88,0c5-.74,9.06.81,12.09,4.95,1.26,1.71,2.36,2.12,4.38.43s4.59-1.18,6.33,1a4.51,4.51,0,0,1-.07,6.18c-1.69,2-4.14,2.5-6.06,1-2.52-2-5.81-2.93-7.68-5.71-2.52-3.73-6.2-4.22-10.24-3.74-.9.11-2.17-.36-2.18,1.26,0,1.29,1,1.35,1.85,1.3,2.39-.14,3.56,1.29,4.68,3.1,1.22,2,2.32,3.92,4.92,4.82s3.32,3.34,2.33,5.93a4.5,4.5,0,0,1-5.4,3c-2.69-.51-4-2.35-3.9-5.15,0-.61.29-1.22.34-1.84a5.14,5.14,0,0,0-3.4-5.5c-2.91-1-2.44,2-3,3.58-2.11,6.23-5.55,11.51-11.08,15.19-2.33,1.55-1.74,3-.36,4.62,1.56,1.79,2.91,1.36,4.71-.14,6.1-5.08,13.06-6.18,20.4-3.12s11.26,8.85,11.86,16.82c.06.77-.27,1.69.59,2.32,16.81-22.82,16.5-62.18-13.1-85.56-27-21.36-68-16.58-89.68,10.45C-3.35,54.88,1.69,93.25,23.86,112.85Zm57.22-10.44a18.3,18.3,0,0,0-1.75.68c-9.07,4.7-25.24,3.07-30.43-7.79a1.75,1.75,0,0,0-2.08-1,21,21,0,0,0-18.19,16.12c-1.36,6.3,0,8.76,6.08,11.18,1.29.52,1.9.33,1.92-1.1,0-1.75,0-3.5,0-5.26,0-1.6-.24-3.63,2.15-3.55,2,.07,2,1.86,2,3.41a54.24,54.24,0,0,1-.06,6.38c-.35,2.8,1,4,3.39,4.88a71.42,71.42,0,0,0,17.44,4.22,64.29,64.29,0,0,0,31.94-4.77c1.46-.61,2.28-1.3,2.14-3-.11-1.19-.25-2-1.65-2.5C85.94,117.16,81.89,111,81.08,102.41Zm-14.84-50c0-9.27,0-18.54,0-27.81,0-1,.86-2.81-1.27-2.84-2,0-3.2-1.16-4.55-2.31-3.14-2.68-6.54-2.75-10.09-.79-6.71,3.71-10.62,13-7.72,20a29.93,29.93,0,0,1,1.88,12.06c0,3.25-.09,6.51,0,9.77.44,10.3,9.31,20.61,18.8,22.19,2.3.38,3,0,3-2.5C66.16,71,66.25,61.69,66.24,52.42Zm25.6,1.13c0-3.49.13-6.26,0-9C91.13,32.66,83.92,23.61,74,21.89c-2.4-.42-3.63-.16-3.6,2.84.16,13,.15,26.09,0,39.13,0,2.87.51,4.58,3.87,4.14,1.42-.19,3,.15,2.86,2.06a2.11,2.11,0,0,1-2.66,2c-3.93-.69-4.36,1.51-4,4.52a12.63,12.63,0,0,1,0,3c-.53,3.53,1.34,3.7,3.94,2.89a23.77,23.77,0,0,0,11.74-7.72C91.38,68.3,92.55,60.81,91.84,53.55ZM100.66,87a14.82,14.82,0,0,0-15.14,14.89,15.22,15.22,0,0,0,30.44.26A15,15,0,0,0,100.66,87ZM68.25,101.35c4.78-.21,9.19-1.45,12.81-4.63,1.92-1.69,3.74-3.61,0-5.61a5.38,5.38,0,0,1-2.37-2.8c-.67-2.13-1.89-2.25-3.66-1.7a24.8,24.8,0,0,1-11.51.5c-3-.51-5.75-1.75-6.8,2.61-.19.79-1.32,1.57-2.19,1.94-2.69,1.11-1.72,2.45-.42,3.89C58,99.71,62.87,101.14,68.25,101.35Z"/><path class="cls-1" d="M84.15,51.07c-.32,1.86-1.33,2.93-3.05,2.76A2.6,2.6,0,0,1,78.66,51a2.58,2.58,0,0,1,2.8-2.8C83.19,48.28,84,49.54,84.15,51.07Z"/><path class="cls-1" d="M98.4,109.35c-1.8-.09-8.36-6.39-8.4-7.9,0-1.74.91-2.55,2.62-2.19a4,4,0,0,1,1.53,1c4.46,3.71,4.46,3.71,8.58-.42,1.59-1.59,3.16-3.21,4.81-4.73a2,2,0,0,1,3,.05,1.92,1.92,0,0,1,.09,2.74q-5.33,5.53-10.8,10.93C99.45,109.2,98.71,109.24,98.4,109.35Z"/></g></g></svg>