<svg id="Capa_1" data-name="Capa 1" xmlns="http://www.w3.org/2000/svg" viewBox="0 0 198.13 271.77"><defs><style>.cls-1{fill:#6c2910;}.cls-2{fill:#fff;}</style></defs><circle class="cls-1" cx="108.96" cy="238.52" r="28.85"/><path class="cls-2" d="M106.29,239.26V237h3a9.93,9.93,0,0,1,2.7.34,6.32,6.32,0,0,1,2.11,1,4.41,4.41,0,0,1,1.36,1.62,4.83,4.83,0,0,1,.48,2.19,5.39,5.39,0,0,1-.56,2.48,5.21,5.21,0,0,1-1.56,1.84,7.08,7.08,0,0,1-2.36,1.13,10.47,10.47,0,0,1-2.92.39,9.61,9.61,0,0,1-2.48-.33,7.17,7.17,0,0,1-2.26-1,5.22,5.22,0,0,1-1.64-1.79,5.29,5.29,0,0,1-.62-2.62h4.6a2,2,0,0,0,.35,1.14,2.42,2.42,0,0,0,.93.8,2.73,2.73,0,0,0,1.27.3,2.88,2.88,0,0,0,1.43-.32,2.23,2.23,0,0,0,.91-.86,2.37,2.37,0,0,0,.31-1.21,3.36,3.36,0,0,0-.33-1.61,2,2,0,0,0-1-.87,3.86,3.86,0,0,0-1.52-.27Zm0-3.42h2.23a3,3,0,0,0,1.41-.3,2,2,0,0,0,.83-.87,3.11,3.11,0,0,0,.27-1.34,2.58,2.58,0,0,0-.25-1.11,2.06,2.06,0,0,0-.77-.81,2.63,2.63,0,0,0-1.32-.3,2.66,2.66,0,0,0-1.07.22,2.33,2.33,0,0,0-.85.63,1.56,1.56,0,0,0-.33,1h-4.6a4.57,4.57,0,0,1,.93-2.89,5.94,5.94,0,0,1,2.47-1.85,8.24,8.24,0,0,1,3.3-.65,9.62,9.62,0,0,1,3.7.65,5.43,5.43,0,0,1,2.48,1.9,5.22,5.22,0,0,1,.89,3.11,4.13,4.13,0,0,1-.47,1.92,5,5,0,0,1-1.34,1.58,6.71,6.71,0,0,1-2,1.07,8.1,8.1,0,0,1-2.51.38h-3Z"/><path class="cls-1" d="M69.93,89c-3.24,2.93-7,6.14-10.56,9.59-4.19,4.09-8.2,5-13.49,2.32-6.19-3.09-12.29-6.35-18.43-9.54a6.41,6.41,0,0,0-2.76-.92c-4.49-.19-8.1-2.27-11.29-5.27A45.18,45.18,0,0,1,5.58,75a5.72,5.72,0,0,1,1.18-6.67c1.67-1.57,3.45-1.62,5.9-.12,2.68,1.63,5.38,3.23,8,5a2.28,2.28,0,0,0,3.29-.28,12.38,12.38,0,0,1,1.79-1.53,4.07,4.07,0,0,1,6,2,2.55,2.55,0,0,1,.18.76c0,4.75,2.82,6.53,7.13,7.09,2.83.37,5.6,1.26,8.4,1.91,3.16.72,4,.39,5.61-2.33,3.35-5.53,6.68-11.07,10.09-16.57a7.18,7.18,0,0,0,1.23-4.21,18.44,18.44,0,0,1,.3-3.31c.55-3.4,2.1-4.14,5.19-2.49a65.52,65.52,0,0,0,18,6.47c.5.1,1,.14,2,.27a34,34,0,0,1-4.46-5.58,30.91,30.91,0,0,1-1.81-3.47,1.82,1.82,0,0,0-2-1.33c-3.92,0-7.25-1.31-9-5.09S71.72,38.07,74.23,35c1-1.2,1-1.85-.06-3a19.11,19.11,0,0,1-3.9-6.29c-2-5.37.88-10.09,6.59-10.82.51-.06,1-.08,1.6-.13a12.94,12.94,0,0,1,.67-8.12C80,4.73,81.46,4,83,4.64s2,2.12,1.25,4a6.72,6.72,0,0,0,.62,6.78c.51-.59.91-1.08,1.34-1.54C96,3.43,107.4,3.57,117.09,14c.38.42.6,1.29,1.19,1.15s.85-1.08,1-1.73a7.48,7.48,0,0,0-.35-4.8c-.76-1.89-.27-3.34,1.21-4s3.06.08,3.89,1.94a12.3,12.3,0,0,1,.83,7.11c-.13.79,0,1.05.89,1.17,7,.88,9.61,5.83,6.58,12.13a21.48,21.48,0,0,1-3.49,5.19c-.87.94-1,1.5-.07,2.53a10.08,10.08,0,0,1,2.63,8c-.6,4.73-4.32,7.81-9.5,7.79a2.2,2.2,0,0,0-2.43,1.61,26.34,26.34,0,0,1-5.82,8.35,56.68,56.68,0,0,0,10.67-3.1,68.11,68.11,0,0,0,9-4.32c2.63-1.48,4.44-.57,4.87,2.42a35,35,0,0,1-.2,11.91c-.21,1,.13,1.37,1,1.62,3.58,1,7.14,2.07,10.72,3.08a4.88,4.88,0,0,0,5.05-1.27c2.87-2.78,5.75-5.54,8.74-8.19a4.26,4.26,0,0,0,1.32-4.76c-.24-.88-.66-1.71-.93-2.58a4.11,4.11,0,0,1,4.82-5.52c.45.08.9.18,1.34.3a2.36,2.36,0,0,0,3.16-1.42c1.34-2.76,2.86-5.43,4.32-8.13s2.85-3.45,5.09-3a5.48,5.48,0,0,1,4.52,5.22c-.07,4.91-.47,9.8-2.22,14.46a15.65,15.65,0,0,1-6.44,8.39,6.65,6.65,0,0,0-2.07,2.31c-3.51,5.52-7.06,11-10.52,16.54-3,4.88-7.33,6.7-13,6-6.89-.83-13.8-1.38-20.7-2-.41,0-1-.32-1.06.43-.51,5.71-1.87,11.39-.86,17.17.51,2.94,2.08,5.47,3.59,8,2.26,3.75,4.76,7.34,6.85,11.2,4.82,8.94,4.84,17.93-.63,26.42-4.9,7.6-4.91,15.76-4.23,24.16a6.46,6.46,0,0,0,2.82,5.15,2.44,2.44,0,0,1,.91,3.12,2.77,2.77,0,0,1-3,1.74c-9.49-.06-19-.08-28.47-.15-8.31-.06-16.62-.21-24.93-.18A5.32,5.32,0,0,1,78.47,183c-4.84-6.71-5-13.65-1.31-20.85A47.05,47.05,0,0,1,83.57,153c4.05-4.73,4.4-9.78.85-14.89a79.94,79.94,0,0,1-14-35.16A81.7,81.7,0,0,1,69.93,89Zm24,90.84c.57.06,1.27.38,1.67-.09s-.24-1-.51-1.49a27.89,27.89,0,0,1-3.12-8.76c.12-1.29,0-2.59.16-3.9.67-4.78,3-8.73,6-12.3,4.07-4.75,4.63-9.08,1.61-14.36a4.1,4.1,0,0,1-.37-3.89c2.66-1.49,3.71-1.22,5.28,1.33,4,6.53,3.14,14-2.47,20.62-6.87,8.1-5.73,14.7.3,22.39a1.36,1.36,0,0,0,1.1.69h8.74c-1.73-3.18-2.79-6.22-2.51-9.61.34-4.19,2.48-7.48,5-10.62s2.75-5.91.82-9.42c-1-1.89-.8-3.46.67-4.27s3-.2,4.1,1.54a13.09,13.09,0,0,1-1.1,15.37,34.43,34.43,0,0,0-2.57,3.46c-3,5.11-.93,9.44,2,13.15a1.57,1.57,0,0,0,1.42.47c3.27,0,6.54,0,9.81.05.94,0,1.17-.16,1-1.23-1.76-10.46-1.7-20.61,4.34-30,4.32-6.72,4.28-13.8.63-20.89a104.49,104.49,0,0,0-6.29-10.4,28.55,28.55,0,0,1-4.9-21.23,20.43,20.43,0,0,0,.43-6,41.47,41.47,0,0,1-7.44,4.66,2.17,2.17,0,0,0-1.48,2.38c.06,7.59,0,15.18,0,22.77,0,3.35-.77,4.09-4.19,4.1l-17.86,0-4.31,0c-2.92,0-3.88-1-3.89-3.88,0-7.26-.07-14.52,0-21.77,0-2.12-.38-3.49-2.5-4.4-3-1.28-5.41-3.5-8.11-5.77a69.71,69.71,0,0,0,1.33,19.06A76.44,76.44,0,0,0,89,135c5,7.28,4.43,15.13-1.39,21.77a40.12,40.12,0,0,0-5.24,7.31c-2.64,4.86-3.27,9.74,0,14.63.32.48.56,1.12,1.27,1.09C87,179.68,90.44,180.27,93.89,179.88Zm7.54-145.39a23.26,23.26,0,0,1-13.78,9.3c-.62.17-.89.35-.7,1.05,1.41,5.16,3.65,9.81,8.21,12.94,4.19,2.87,9,2.69,13.16-.24,4.38-3.06,6.46-7.52,7.89-12.44.35-1.22-.5-1.24-1.24-1.43A22.49,22.49,0,0,1,101.43,34.49ZM125,63a73.23,73.23,0,0,1-13.76,3.51c-.88.13-1,.59-1,1.34a20.5,20.5,0,0,1-.32,4.69c-.83,4.44-4.3,7.69-8.35,7.81S94.14,77.48,93,73.1a15.41,15.41,0,0,1-.36-4.68c.07-1.27-.37-1.81-1.63-1.77a8,8,0,0,1-1.36-.2,85.62,85.62,0,0,1-11.51-2.73,4.09,4.09,0,0,0,.08.94,33,33,0,0,0,8.26,13.83c5.65,5.43,12.29,8.09,20.06,5.8C117,81.21,121.77,73,125,63ZM86.11,29.68A57,57,0,0,1,116,29.52c1.42.4,1.23-.37,1.17-1.16a17.5,17.5,0,0,0-9.88-15.14,10.82,10.82,0,0,0-6.35-1.6C92.51,12.63,85.6,21,86.11,29.68ZM132,82.73a8.85,8.85,0,0,0,1.21.3Q144,84.08,154.69,85.1a6.38,6.38,0,0,0,6.4-3.31c3.63-5.75,7.3-11.46,10.94-17.2a11.23,11.23,0,0,1,3-3.31c4.33-3,7.27-10.48,6.11-15.86-1,1.78-2,3.38-2.75,5.07-1.66,3.54-3.83,6.18-8.32,5.11,1.18,6.74,1,7.35-4,12-2.42,2.29-4.9,4.52-7.29,6.86a10.49,10.49,0,0,1-11.18,2.68c-3.31-1-6.64-2-10-2.93-.69-.21-1.38-.46-1.72.55A41.9,41.9,0,0,1,132,82.73ZM65.39,70.93c-2.77,4.56-5.33,8.8-7.91,13s-5.77,5.61-10.6,4.54c-4.34-1-8.66-2-13-3a8,8,0,0,1-6.51-6.29c-.11-.49-.3-1-.51-1.62-3.06,2.85-6.08,2.3-9.15.18-1.44-1-3-1.88-4.5-2.79-.4-.23-.78-.77-1.45-.2,1.2,1.54,2.33,3.15,3.62,4.62,2.28,2.56,4.74,5.1,8.35,5.43a22.23,22.23,0,0,1,8.61,3c5.19,2.76,10.41,5.46,15.64,8.14,3,1.52,4.89,1.42,6.65-.39,4.62-4.73,9.19-9.51,13.8-14.24.58-.59.79-1,.33-1.84A37.88,37.88,0,0,1,65.39,70.93Zm67.73-11.2c-1.73.06-2,1.14-2.3,2.34a41.51,41.51,0,0,1-9.4,19.12c-10.65,12-27.3,12.54-38.74,1.32-5.68-5.57-9-12.43-10.77-20.09a2,2,0,0,0-2.13-1.83c0,12.4,5,22.11,15.57,28.36,11,6.51,22.43,6.24,33.2-.66C128.78,81.72,132.9,71.69,133.12,59.73ZM91.57,108.1c0,3.07.05,6.14,0,9.2,0,1.17.3,1.61,1.54,1.6,5.42-.06,10.84-.05,16.26,0,1.11,0,1.45-.37,1.45-1.47,0-5.94,0-11.88,0-17.82,0-1.56-.62-1.75-1.88-1.47A35.56,35.56,0,0,1,93.06,98c-1.44-.34-1.51.18-1.5,1.29C91.6,102.22,91.57,105.16,91.57,108.1Zm13.21-39.8c0-3,0-3-2.91-2.92-.9,0-1.81-.16-2.72-.22-.42,0-1-.27-1,.49.08,2.39-.44,4.85.56,7.16a2.93,2.93,0,0,0,2.65,2,3,3,0,0,0,2.79-2.1A10.1,10.1,0,0,0,104.78,68.3ZM122.7,30.72a22,22,0,0,0,4.48-5.63c.63-1.12,1.49-2.35.6-3.63s-2.36-1.22-3.75-1.1a14.38,14.38,0,0,0-1.91.39c-.62.13-.86.44-.62,1.11A24.65,24.65,0,0,1,122.7,30.72Zm-42.21,0A23.53,23.53,0,0,1,81.64,22c.19-.54.21-1-.52-1.21-1.59-.4-3.18-.76-4.78,0a1.8,1.8,0,0,0-1.17,2.51A20.05,20.05,0,0,0,80.49,30.73Zm45.45,10.79a6.44,6.44,0,0,0-1.65-3.62c-.24-.27-.47-.68-1-.44s-.78.49-.76,1a31.61,31.61,0,0,1-.54,5.65c-.09.61.06.81.7.78A3.42,3.42,0,0,0,125.94,41.52ZM107.7,33.59a17.5,17.5,0,0,0,7.61,4.53c.57.17,1.44.74,1.64-.14s.68-2.21-.74-2.69A27.12,27.12,0,0,0,107.7,33.59Zm-30.41,8a3.22,3.22,0,0,0,3.14,3.33c.43,0,.83.07.77-.52-.22-2.08-.37-4.16-.74-6.21-.15-.83-.86-1.13-1.57-.29A5.78,5.78,0,0,0,77.29,41.58Zm17.67-8a30.82,30.82,0,0,0-8.13,1.73c-1.2.38-.7,1.53-.77,2.37,0,.62.38.77.91.61A16.36,16.36,0,0,0,95,33.59Z"/><path class="cls-1" d="M98.88,19.64c0-1.87,1.15-3.17,2.74-3.15a2.92,2.92,0,0,1,2.75,3.21,2.82,2.82,0,0,1-2.81,3.1C99.88,22.79,98.86,21.6,98.88,19.64Z"/><path class="cls-1" d="M109.57,109.27a2.91,2.91,0,0,1-1,2.16q-2.61,2.66-5.24,5.28a2.64,2.64,0,0,1-4,.2,79.28,79.28,0,0,1-5.87-6,2.49,2.49,0,0,1,.26-3.55q2.73-2.79,5.55-5.52c1.14-1.1,2.48-1.32,3.67-.21,2.06,1.91,4,3.93,6,5.94A2.22,2.22,0,0,1,109.57,109.27Zm-8.41,1.66c.71-.39,1.55-.92,1.56-1.6a1.71,1.71,0,0,0-1.52-1.47,1.69,1.69,0,0,0-1.42,1.37C99.69,110,100.63,110.39,101.16,110.93Z"/></svg>