<svg id="Capa_1" data-name="Capa 1" xmlns="http://www.w3.org/2000/svg" viewBox="0 0 163.4 192.05"><defs><style>.cls-1{fill:#6c2911;}</style></defs><path class="cls-1" d="M85.66,38.52c3.16.91,6.39,1.49,9.59,2.22,6.16,1.41,12.33,2.75,18.49,4.12,2,.44,2.48,1,2.48,3.08,0,7.15,0,14.29,0,21.44a46.28,46.28,0,0,1-30,42.53,3.26,3.26,0,0,1-2.49-.06C67.27,105.15,57.5,93,54.29,75.63a40.68,40.68,0,0,1-.55-7.49c0-6.69,0-13.39,0-20.09,0-2.22.43-2.72,2.71-3.23l27.23-6.07a4.16,4.16,0,0,0,.62-.23ZM58.24,61.37c.13,3.22-.27,7.24.22,11.23,2,16.43,10.7,28,25.81,34.66a1.73,1.73,0,0,0,1.49,0,41.83,41.83,0,0,0,25.95-37.61c.07-6.55,0-13.1,0-19.65,0-.74-.22-1-1-1.17Q98.37,46.07,86,43.27a4.21,4.21,0,0,0-1.87,0Q71.6,46.07,59.13,48.83c-.69.15-.91.39-.9,1.09C58.26,53.48,58.24,57,58.24,61.37Z"/><path class="cls-1" d="M110.37,153.52a3,3,0,0,1-1.58-3.07c.09-1.64.06-3.3,0-4.94a4,4,0,0,1,.9-2.68c6.19-8,12.34-16.1,18.56-24.1a6.49,6.49,0,0,0,1.39-4.9c-.78-7.78-1.5-15.56-2.23-23.34-.23-2.39-1.19-3.62-3-3.69a2.94,2.94,0,0,0-3.11,2.73c0,.41,0,.82,0,1.23,0,6.18,0,12.35,0,18.53A10.31,10.31,0,0,1,119,116c-2.64,3.35-5.21,6.75-7.79,10.15a2.48,2.48,0,0,1-2.36,1.22,2.22,2.22,0,0,1-1.46-3.6c1.2-1.67,2.51-3.26,3.73-4.92a2.65,2.65,0,0,0,0-3.33,2.71,2.71,0,0,0-3.13-.85,3.32,3.32,0,0,0-1.36,1.13c-2.94,3.88-5.89,7.74-8.83,11.62A13.71,13.71,0,0,0,95,136c0,4.75,0,9.51,0,14.26a3.32,3.32,0,0,1-1.53,3.22H92.18a2.74,2.74,0,0,1-1.66-2.88c0-4.86,0-9.73,0-14.59a18.48,18.48,0,0,1,4-11.67c2.71-3.53,5.56-7,8-10.65,3.17-4.69,9.38-5,12.68-.26a5.2,5.2,0,0,0,1.59-4q0-9.66,0-19.32a7.48,7.48,0,0,1,14.89-1.33c.65,6.14,1.2,12.29,1.79,18.43.2,2.05.34,4.11.6,6.15a10.28,10.28,0,0,1-2.18,8c-6,7.77-12,15.6-18,23.39a2.7,2.7,0,0,0-.62,1.84c0,1.35,0,2.7,0,4a2.77,2.77,0,0,1-1.6,2.92Z"/><path class="cls-1" d="M76,153.52a2.74,2.74,0,0,1-1.67-2.87c0-4.75,0-9.5,0-14.25a14.67,14.67,0,0,0-3.2-9.47c-2.83-3.62-5.58-7.31-8.36-11a2.94,2.94,0,0,0-2.74-1.42,2.69,2.69,0,0,0-1.85,4.33c1.12,1.58,2.35,3.1,3.53,4.63a2.54,2.54,0,0,1,.67,2,2.12,2.12,0,0,1-1.67,1.89,2.19,2.19,0,0,1-2.44-1c-1.74-2.25-3.47-4.51-5.2-6.76-1-1.25-1.89-2.51-2.87-3.74a9.67,9.67,0,0,1-2.16-6.33c0-6.25,0-12.5,0-18.75A10.07,10.07,0,0,0,48,89.36a2.93,2.93,0,0,0-3-2.56,2.88,2.88,0,0,0-2.87,2.63c-.4,3.79-.75,7.59-1.11,11.39-.42,4.39-.8,8.79-1.28,13.17a5.89,5.89,0,0,0,1.23,4.5c6.24,8.07,12.44,16.19,18.68,24.27a4,4,0,0,1,.93,2.78c-.06,1.65-.09,3.3,0,4.94a2.9,2.9,0,0,1-1.6,3H57.59A2.77,2.77,0,0,1,56,150.46c.53-3.49-.73-6.21-3-8.92-5-6.17-9.64-12.7-14.67-18.87a13.42,13.42,0,0,1-3.08-10.79c.92-7.54,1.52-15.11,2.24-22.67a7.48,7.48,0,0,1,14.91-.09c.15,1.74.08,3.51.08,5.27,0,5,0,10.1,0,15.15a5.2,5.2,0,0,0,1.58,4,7.3,7.3,0,0,1,5.11-3.38,6.66,6.66,0,0,1,6.52,2.41c3.45,4.38,6.84,8.81,10.1,13.33a17.27,17.27,0,0,1,3,10.4c0,4.68,0,9.36,0,14a3.35,3.35,0,0,1-1.51,3.23Z"/><path class="cls-1" d="M107.91,62.56c0,4.41.25,8.84-.68,13.2q-4,18.48-20.8,27a2.93,2.93,0,0,1-2.88,0c-11.73-6-18.77-15.44-21-28.43a34.15,34.15,0,0,1-.41-3.9c-.11-1.72.72-2.81,2.1-2.89s2.25,1,2.38,2.67Q68,88.74,84.11,98a1.52,1.52,0,0,0,1.74,0c11.1-6.44,17.05-16,17.54-28.9.16-4.15,0-8.31,0-12.46,0-.74-.2-1-.94-1.18q-8.43-1.83-16.85-3.75a3.85,3.85,0,0,0-1.76.09L65.4,56a3,3,0,0,1-2,0,2.11,2.11,0,0,1-1.33-2.25,2.2,2.2,0,0,1,1.94-2l9.63-2.14c3.21-.72,6.42-1.41,9.62-2.17a7,7,0,0,1,3.31,0c6.34,1.44,12.69,2.84,19,4.27,1.77.39,2.28,1.05,2.28,2.9C107.92,57.17,107.91,59.87,107.91,62.56Z"/><path class="cls-1" d="M98.83,64a2.49,2.49,0,0,1-.89,1.86q-8,7.23-16,14.44A2.2,2.2,0,0,1,78.45,80c-1.81-2.09-3.59-4.21-5.37-6.33a2.22,2.22,0,0,1,.1-3.29,2.2,2.2,0,0,1,3.27.35c1.14,1.29,2.28,2.58,3.33,4,.59.77,1,.69,1.63.07,4.4-4,8.86-8,13.28-12.06a2.61,2.61,0,0,1,2.43-.84A2.24,2.24,0,0,1,98.83,64Z"/><path class="cls-1" d="M64.35,64.08a2.27,2.27,0,0,1-2.28-2.17,2.21,2.21,0,0,1,2.12-2.3,2.26,2.26,0,0,1,2.36,2.2A2.31,2.31,0,0,1,64.35,64.08Z"/></svg>