<svg xmlns="http://www.w3.org/2000/svg" viewBox="0 0 115.91 111.01"><defs><style>.cls-1{fill:#6c2910;}</style></defs><g id="Capa_2" data-name="Capa 2"><g id="Capa_1-2" data-name="Capa 1"><path class="cls-1" d="M.05,44q0-18.7,0-37.39C.05,2.44,2.49,0,6.67,0H28.24c4.13,0,6,1.41,7,5.39.13.52.34.81.9.76.29,0,.57,0,.86,0h64.36c4.55,0,7.2,2.66,7.21,7.25,0,.89.06,1.8,0,2.69s.16,1.27,1.18,1.27a5.93,5.93,0,0,1,5.79,3.76,7.41,7.41,0,0,1,.43,3.13v39.6c0,5.88,0,11.76,0,17.65,0,4.3-2.38,6.67-6.66,6.68-8.18,0-16.35,0-24.52,0a2,2,0,0,0-1.9,1A71.49,71.49,0,0,1,59.89,110.5a3,3,0,0,1-3.23.07A68.84,68.84,0,0,1,37.89,95.21,52.19,52.19,0,0,1,33.07,89a1.76,1.76,0,0,0-1.71-.87c-8.17,0-16.34-.1-24.51.06A6.46,6.46,0,0,1,0,81.4C.13,68.94.05,56.47.05,44Zm4.79.12q0,18.57,0,37.14c0,1.8.3,2.12,2,2.12,7.15,0,14.3,0,21.45,0,1,0,1.21-.15.69-1.11a60.47,60.47,0,0,1-5.61-15A72.15,72.15,0,0,1,22.3,42.24c.31-2.5,1.05-3.86,4-3.35a32,32,0,0,0,12.17-.41A38.3,38.3,0,0,0,56,29.77c1-.84,2-1.34,3.21-.69.44.23.82.55,1.23.81,9.39,6,19.28,10.15,30.75,9,1.66-.17,2.59.67,2.82,2.36a66.55,66.55,0,0,1,.29,14.18,70,70,0,0,1-7.45,26.82c-.51,1-.32,1.17.74,1.17,7.11,0,14.22,0,21.33,0,1.9,0,2.18-.28,2.18-2.21V24.66c0-2.34-.14-2.48-2.51-2.48q-34.81,0-69.63,0c-3.69,0-5.87-1.83-6.55-5.44-.62-3.33-1.26-6.66-1.89-10-.34-1.84-.45-1.95-2.28-1.95H7.17c-2.1,0-2.33.24-2.33,2.3ZM89.59,50c0-1.68,0-3.35,0-5,0-.86-.33-1.11-1.18-1.06a34.09,34.09,0,0,1-7.68-.54,59.39,59.39,0,0,1-21.56-8.61,1.22,1.22,0,0,0-1.69,0,42.44,42.44,0,0,1-29.36,9.13c-1,0-1.22.3-1.3,1.19a66.59,66.59,0,0,0,.71,17.94c3.58,18.67,13.82,32.64,30,42.44a1.09,1.09,0,0,0,1.32,0A66,66,0,0,0,79.6,85.17,63.42,63.42,0,0,0,89.59,50ZM69.48,11H49.27c-4,0-7.93,0-11.89,0-.92,0-1.14.29-1,1.13.25,1.08.44,2.16.65,3.24.39,2,.39,2,2.42,2h62.62c.24,0,.49,0,.73,0,.63.06.88-.19.86-.83,0-.94,0-1.88,0-2.82,0-2.25-.49-2.74-2.72-2.74Z"/><path class="cls-1" d="M84.8,53.13A59.74,59.74,0,0,1,69.54,90.34a58.3,58.3,0,0,1-9.47,8.49c-1.63,1.17-2.31,1.17-4,0C44,90.08,35.87,78.68,32.62,64a56.57,56.57,0,0,1-1.27-12c0-2.28.72-3.08,3-3.24A47.31,47.31,0,0,0,53.2,43.39a22.6,22.6,0,0,0,3.27-1.92c1.49-1.14,2.82-1,4.4-.14a61.05,61.05,0,0,0,16,6.23c1.51.34,3,.64,4.57.84,3,.38,3.61,1,3.39,4.12C84.83,52.72,84.81,52.92,84.8,53.13ZM36.33,55.68a42.74,42.74,0,0,0,1,7C40,75.53,47,85.65,57.22,93.65a1.17,1.17,0,0,0,1.75,0c12.79-10.19,19.62-23.52,21-39.75.06-.75-.27-.92-.85-1a65,65,0,0,1-19.47-6.73,1.37,1.37,0,0,0-1.55,0,51.51,51.51,0,0,1-19.7,7C36.14,53.46,36.14,53.48,36.33,55.68Z"/><path class="cls-1" d="M58.15,80.07c-1.63,0-3.26,0-4.9,0-1.92,0-2.87-1-2.68-2.94.29-2.84.62-5.68,1-8.52A4,4,0,0,0,51,65.84a8.13,8.13,0,0,1,1.87-10.4,8.24,8.24,0,0,1,10.58.07,8.15,8.15,0,0,1,1.74,10.42,3.42,3.42,0,0,0-.46,2.41c.39,3,.71,5.92,1,8.88a2.43,2.43,0,0,1-2.59,2.84C61.5,80.09,59.83,80.07,58.15,80.07Zm0-4.85a12.16,12.16,0,0,1,1.35,0c.93.1,1.16-.19,1-1.17-.37-2.33-.56-4.69-.84-7a3.43,3.43,0,0,1,.87-2.93,3.38,3.38,0,0,0-.15-4.83,3.48,3.48,0,0,0-4.67.07,3.37,3.37,0,0,0,0,4.82,3,3,0,0,1,.83,2.57c-.23,1.94-.4,3.89-.65,5.83C55.57,75.22,55.55,75.22,58.19,75.22Z"/></g></g></svg>