<svg xmlns="http://www.w3.org/2000/svg" viewBox="0 0 124.2 125.34"><defs><style>.cls-1{fill:#6c2910;}</style></defs><g id="Capa_2" data-name="Capa 2"><g id="Capa_1-2" data-name="Capa 1"><path class="cls-1" d="M124.2,70.21a9.86,9.86,0,0,1-4.6,8.51L87.53,99.79c-5,3.28-10,6.55-15,9.86a11.23,11.23,0,0,1-8.81,1.79,28.71,28.71,0,0,1-4.38-1.6c-4.46-1.69-8.91-3.42-13.35-5.14a1.08,1.08,0,0,0-1,.06c-2.1,1.1-4.21,2.19-6.34,3.25-.43.22-.49.39-.26.83,1.27,2.39,2.51,4.8,3.76,7.21a2.23,2.23,0,0,1-1.07,3.38q-5.4,2.82-10.82,5.61a2.26,2.26,0,0,1-3.13-.86,2.23,2.23,0,0,1,1.12-3.12c2.83-1.47,5.66-3,8.51-4.39.42-.22.5-.38.26-.82Q24.92,92.54,12.82,69.21c-.24-.47-.43-.48-.85-.26-2.82,1.49-5.66,3-8.49,4.43a2.3,2.3,0,0,1-2.79-.27,2.21,2.21,0,0,1,.53-3.58C3.5,68.32,5.79,67.14,8.08,66l4.05-2.11A2.33,2.33,0,0,1,15.64,65c1.1,2.12,2.22,4.24,3.3,6.37.22.43.38.47.78.26q7.66-4,15.36-7.89a10.8,10.8,0,0,1,7.47-.93q15.53,3.51,31.05,7.07l5.6,1.24a9.55,9.55,0,0,1,6.72,5.36c.23.47.37.47.78.21q11-7.29,22.09-14.55a9.9,9.9,0,0,1,15.32,7C124.17,69.47,124.17,69.88,124.2,70.21ZM77.07,90.68c-.47,0-.93-.05-1.39-.12L60.52,88.05l-9.23-1.53a2.22,2.22,0,0,1-1.91-2.61A2.19,2.19,0,0,1,52,82.11l23.73,4a6.67,6.67,0,0,0,2.27.08A5.49,5.49,0,0,0,82.51,81a5.41,5.41,0,0,0-4.38-5.58c-1-.22-2-.44-3-.68L41.7,67.15a6.73,6.73,0,0,0-4.7.59q-7.6,3.92-15.21,7.8c-.41.21-.48.36-.27.77q7.18,13.78,14.33,27.57c.2.38.35.41.71.22,2.5-1.3,5-2.57,7.52-3.88a2.7,2.7,0,0,1,2.35-.14c5.78,2.24,11.57,4.45,17.35,6.71a6.26,6.26,0,0,0,5.89-.62c1.59-1,3.15-2,4.71-3.08L100.44,86l16.8-11a5.43,5.43,0,0,0-.26-9.27,5.27,5.27,0,0,0-5.84.26Q99.31,73.69,87.46,81.48a1.36,1.36,0,0,0-.63,1A10,10,0,0,1,77.07,90.68Z"/><path class="cls-1" d="M70.9,0c5,.2,9.63,3,12.8,8.12a18.57,18.57,0,0,1-3.35,23.34,15.75,15.75,0,0,1-21.54-.39A18.63,18.63,0,0,1,58,5.24C61.1,1.88,65.34,0,70.9,0ZM82.06,18.68c0-4.24-1.1-7.39-3.13-9.88A11.48,11.48,0,0,0,61.41,8a14.34,14.34,0,0,0-.29,19.31c4.2,4.53,10.5,5.29,15.37,1.74A13.18,13.18,0,0,0,82.06,18.68Z"/><path class="cls-1" d="M99.1,32.46a11.32,11.32,0,0,1-10.86-7.41,12.35,12.35,0,0,1,3.58-13.89,10.66,10.66,0,0,1,15.49,2.17c4.3,5.87,2.49,14.47-3.77,17.86A10,10,0,0,1,99.1,32.46Zm6.24-11.35a8.38,8.38,0,0,0-1.58-5.3,6.34,6.34,0,0,0-10.21-.29,8.07,8.07,0,0,0,.36,10.6,6.23,6.23,0,0,0,8.16.9A7.43,7.43,0,0,0,105.34,21.11Z"/><path class="cls-1" d="M52.12,20.79c-.23,4.73-2.27,8.59-6.85,10.73a10.65,10.65,0,0,1-13.48-4.23,12.4,12.4,0,0,1,2.39-16.06,10.56,10.56,0,0,1,13.06-.4C50.48,13.27,52,16.58,52.12,20.79Zm-4.36.5a8.72,8.72,0,0,0-1-4.72A6.4,6.4,0,0,0,36.3,15.15a8.12,8.12,0,0,0-.52,10.31,6.31,6.31,0,0,0,9.49,1A7.35,7.35,0,0,0,47.76,21.29Z"/><path class="cls-1" d="M43.74,54.62a21,21,0,0,1,1.32-8.43,18.74,18.74,0,0,1,7.61-9.38c1.13-.72,2.27-1.42,3.4-2.13a2.21,2.21,0,0,1,3.14.58,2.19,2.19,0,0,1-.83,3.07c-1.1.7-2.21,1.37-3.3,2.07a14.73,14.73,0,0,0-6.91,11.2c-.28,2.29-.07,4.6-.12,6.9a2.16,2.16,0,1,1-4.31-.06C43.73,57.29,43.74,56.14,43.74,54.62Z"/><path class="cls-1" d="M95.84,55.43c0,1,0,2,0,3a2.16,2.16,0,1,1-4.31,0c0-1.76,0-3.52,0-5.29a15.16,15.16,0,0,0-5.17-11.41,34.19,34.19,0,0,0-4.29-2.88c-.36-.23-.74-.44-1.08-.69a2.17,2.17,0,0,1-.67-2.82,2.06,2.06,0,0,1,2.74-.9c3.14,1.83,6.32,3.61,8.59,6.59a20.18,20.18,0,0,1,4.2,12.26C95.85,54,95.84,54.72,95.84,55.43Z"/><path class="cls-1" d="M115.55,46.77a22.87,22.87,0,0,1-.06,2.45A2.05,2.05,0,0,1,113.86,51a2.14,2.14,0,0,1-2.32-.95,2.27,2.27,0,0,1-.31-1.22,35.37,35.37,0,0,0-.08-4.12,8.35,8.35,0,0,0-3.92-6.35c-.67-.43-1.36-.84-2-1.27a2.18,2.18,0,0,1-.81-3,2.15,2.15,0,0,1,3.06-.68,18.24,18.24,0,0,1,5.17,4,13.59,13.59,0,0,1,2.93,8.57Z"/><path class="cls-1" d="M24,46.87A13.84,13.84,0,0,1,25.81,39a12.15,12.15,0,0,1,3.78-4q1.23-.81,2.49-1.56A2.16,2.16,0,1,1,34.35,37l-2.08,1.3a8.39,8.39,0,0,0-4,7.14c-.05,1.07,0,2.15,0,3.23a2.16,2.16,0,1,1-4.32,0Z"/><path class="cls-1" d="M86.09,54.66c0,1.26,0,2.52,0,3.79A2.13,2.13,0,0,1,84,60.66a2.1,2.1,0,0,1-2.19-2.11q0-3.93,0-7.86a2.14,2.14,0,0,1,4.28.07v3.9Z"/><path class="cls-1" d="M53.48,54.65V50.86a2.15,2.15,0,1,1,4.3,0c0,2.51,0,5,0,7.52a2.15,2.15,0,1,1-4.3,0V54.65Z"/><path class="cls-1" d="M107.45,46.76c0,.71,0,1.41,0,2.12a2.12,2.12,0,0,1-2,2.15,2,2,0,0,1-2.27-1.83,26,26,0,0,1,0-5,2,2,0,0,1,2.24-1.74,2.1,2.1,0,0,1,2,2.07C107.46,45.28,107.45,46,107.45,46.76Z"/><path class="cls-1" d="M36.36,46.74c0,.7,0,1.41,0,2.11a2.15,2.15,0,0,1-4.3.1c0-1.47,0-2.93,0-4.4a2.15,2.15,0,1,1,4.3.13C36.37,45.37,36.36,46.05,36.36,46.74Z"/></g></g></svg>