<svg xmlns="http://www.w3.org/2000/svg" viewBox="0 0 151.29 130.53"><defs><style>.cls-1{fill:#6c2910;}</style></defs><g id="Capa_2" data-name="Capa 2"><g id="Capa_1-2" data-name="Capa 1"><path class="cls-1" d="M0,47c1.41-4.21,4.43-5.77,8.74-5.61,4.63.16,9.26,0,13.89.05a2,2,0,0,0,2-1.06c9.71-15.46,23.59-24.8,41.57-27.83a57.32,57.32,0,0,1,29.92,3A3.49,3.49,0,0,0,97.8,16q0-4.11,0-8.22c0-4.87,2.83-7.69,7.71-7.7q10.64,0,21.28,0a4.31,4.31,0,0,1,1.74.19A2.07,2.07,0,0,1,130,2.42a2,2,0,0,1-1.83,2,8.08,8.08,0,0,1-1.48,0h-21c-2.62,0-3.44.82-3.44,3.45q0,11.67,0,23.34c0,2.71.77,3.47,3.54,3.48,1.28,0,2.56,0,3.84,0a2.21,2.21,0,0,1,2.24,2.89c-.43,2.26-.91,4.51-1.38,6.85a3,3,0,0,0,1.72-.6q8.35-4.21,16.7-8.49a6,6,0,0,1,2.82-.68q5.91,0,11.82,0c2.46,0,3.31-.85,3.31-3.27q0-11.89,0-23.78c0-2.33-.88-3.2-3.23-3.22-1.77,0-3.54,0-5.31,0a2.21,2.21,0,1,1-.06-4.4c2.17,0,4.34-.11,6.5,0a6.9,6.9,0,0,1,6.53,7.07q0,12.33,0,24.67c0,4.39-2.87,7.28-7.31,7.34-3.84.05-7.68,0-11.52,0-2.06,0-3.55,1.32-5.24,2.16-.7.34,0,.87.2,1.21a61,61,0,0,1,6,16.25c6.44,29.18-10.87,59.45-39.31,68.73-1,.34-2,.51-2.89-.34a2.15,2.15,0,0,1-.5-2.33c.32-1,1.24-1.31,2.14-1.61a54.71,54.71,0,0,0,16.51-9c.81-.64,1.59-1.32,2.5-2.09a4.49,4.49,0,0,0-2.08-.19c-2.37,0-4.75.16-7.09-.12a11.19,11.19,0,0,1-9.44-7.07c-.4-.92-.7-1-1.56-.57q-6.41,3.35-12.89,6.55a1.26,1.26,0,0,0-.8,1.6,9.2,9.2,0,1,1-18.2,2.37,9.26,9.26,0,0,1,8.7-9.85c.48,0,1.09.27,1.42-.43.55-1.18.27-1.65-1-1.66-5.23-.06-7.83-2.72-7.86-8,0-2.3.48-2.17-2.25-2.13a7.32,7.32,0,0,0-7.43,6.6c-.66,8.23-4.22,11.9-12.55,12.78a36.64,36.64,0,0,0,5.8,4.59,54.65,54.65,0,0,0,37.35,9c1.6-.18,2.68.51,2.86,1.84s-.6,2.33-2.22,2.53a57.83,57.83,0,0,1-39.56-9.15,57.86,57.86,0,0,1-26-38.7c-.25-1.28-.65-1.82-2-1.72-2.06.15-4.14-.07-6.2.06C4.5,80.85,1.47,79.23,0,75.05V65.3c.67-1.09,1.56-1.85,2.91-1.39s1.56,1.6,1.53,2.88c0,2,0,3.93,0,5.9,0,2.61.81,3.41,3.46,3.41,3.89,0,7.78,0,11.67,0a5.84,5.84,0,0,1,2.82.68q8.32,4.27,16.69,8.48a2.65,2.65,0,0,0,1.73.58c-.45-2.24-.9-4.45-1.33-6.65-.39-1.94.46-3,2.46-3.07,1.43,0,2.86,0,4.28,0,1.9-.06,2.83-1,2.83-2.85q0-12.26,0-24.51a2.54,2.54,0,0,0-2.8-2.88q-19.5,0-39,0c-1.87,0-2.8,1-2.82,2.87q0,3,0,6.05c0,1.25-.1,2.39-1.47,2.92s-2.19-.32-3-1.25ZM39.09,30.36h6c5.13,0,8.95,2.29,11,7s1.3,9-2,12.91a2.19,2.19,0,0,0-.65,1.55c0,5.37,0,10.73,0,16.1,0,.88.32,1.08,1.12,1.06,1.92,0,3.84,0,5.76,0a1.1,1.1,0,0,0,1.21-.77,6.92,6.92,0,0,1,7-4.44c5.86,0,11.71,0,17.57,0,3.4,0,6.79,0,10.19,0,.46,0,1.21.29,1.11-.68A25.16,25.16,0,0,0,97,59.66c-.83-3.45-3.57-5.44-7.54-5.6a11.84,11.84,0,0,1,0-23.66c2.41-.08,4.83-.06,7.24,0,.83,0,1.11-.25,1.09-1.09,0-2.27-.1-4.54,0-6.79a1.86,1.86,0,0,0-1.46-2.13,54.59,54.59,0,0,0-43.06.5A44.92,44.92,0,0,0,39.09,30.36Zm70.52,77.2a17.07,17.07,0,0,1,3,0c3,.54,4.94-.8,6.66-3.25q19.89-28.54,4.35-59.58c-.57-1.14-1.07-1.17-2.1-.61-2.85,1.54-5.76,3-8.67,4.41a4.38,4.38,0,0,1-5-.58,4.52,4.52,0,0,1-1.65-4.61,17.76,17.76,0,0,1,.57-2.74c.43-1.26,0-1.51-1.2-1.47a6.91,6.91,0,0,1-6.87-3.67,1.24,1.24,0,0,0-1.31-.69c-2.61,0-5.22,0-7.83,0a6.86,6.86,0,0,0-5.85,3.45A7.42,7.42,0,0,0,90,49.64a11.77,11.77,0,0,1,11.54,9.56,22.45,22.45,0,0,1,.27,3.08c.06,1,.44,1.56,1.62,1.48a38.88,38.88,0,0,1,4.58,0,6.59,6.59,0,0,1,6.16,4.68,2.79,2.79,0,0,0,1.65,1.84c7.91,4.13,8.75,15.28,1.34,20.16a4.94,4.94,0,0,0-2.6,5c.12,4.49-2.91,7.38-7.38,7.4-3,0-5.91,0-8.86,0-.94,0-1,.31-.57,1a7.21,7.21,0,0,0,6.3,3.73C105.87,107.6,107.74,107.56,109.61,107.56ZM87.75,68.16c-6.4,0-12.8,0-19.2,0-2.09,0-3,.82-3,2.76q0,12.33,0,24.66c0,1.87,1,2.76,2.87,2.79,1.43,0,2.85,0,4.28,0,1.85,0,2.71,1,2.41,2.86s-.72,3.67-1.08,5.5c-.09.43-.38,1-.05,1.26s.89-.16,1.3-.37q8.49-4.29,17-8.62a5.59,5.59,0,0,1,2.68-.65c3.84,0,7.68,0,11.52,0,3,0,3.71-.74,3.71-3.64q0-11.52,0-23c0-2.82-.74-3.55-3.62-3.55ZM61.09,80.87c0-2.12,0-4.24,0-6.36,0-.92-.31-1.2-1.19-1.17-1.78,0-3.55,0-5.32,0-.79,0-1.06.21-1.18,1a6.93,6.93,0,0,1-5.93,6.08c-1,.17-2.53-.49-3,.46-.38.78.21,2.08.48,3.12a4.74,4.74,0,0,1-1.66,5.42c-1.83,1.39-3.72,1.09-5.67.08-4.89-2.55-9.81-5-14.73-7.5-.4-.2-.85-.75-1.28-.35s0,.84.05,1.26A54.28,54.28,0,0,0,31,103.63c2.91,3.94,2.91,3.93,7.77,3.93s8-2.87,8.14-7.92a11.42,11.42,0,0,1,3.56-8,11.6,11.6,0,0,1,8.56-3.35c2.2,0,2,.29,2-2.09ZM52.4,44.69c1.27-5.66-1.94-9.82-7.26-9.89-3.3,0-6.59,0-9.89,0-.43,0-.91-.13-1.26.25a47.55,47.55,0,0,0-4.78,6.36c5.18,0,10,.06,14.92,0C47.28,41.33,50.25,41.56,52.4,44.69Zm21.44,69.55c0-.86-.09-1.58-1.23-1.81a3.85,3.85,0,0,1-2.73-2.29,1.2,1.2,0,0,0-1.51-.76,4.89,4.89,0,0,0-4.12,5.12,4.8,4.8,0,0,0,9.59-.26Zm40.77-27.31A7.49,7.49,0,0,0,117.68,80a7.39,7.39,0,0,0-3.07-5.29Z"/><path class="cls-1" d="M127.42,14.07c0,1,0,2.07,0,3.1,0,.38-.08.82.53.85s.81,0,1-.63a9.7,9.7,0,0,1,1.41-3.23,8.74,8.74,0,0,1,7.06-4.2,2.26,2.26,0,0,1,2.6,2,2.22,2.22,0,0,1-2.18,2.33c-2.71.29-4.09,1.95-4.64,4.42a6.24,6.24,0,0,0,2.11,6.51,4.25,4.25,0,0,0,2.31.87c1.64.23,2.52,1.16,2.39,2.44s-1.23,2.12-2.94,1.93c-4-.43-6.42-2.89-7.85-6.47a4.5,4.5,0,0,1-.3-1c-.07-.54-.42-.57-.85-.57s-.61.35-.61.78c0,1.57,0,3.15,0,4.72s-.81,2.57-2.19,2.57S123,29.59,123,28c0-1.43,0-2.86,0-4.28,0-.45.34-1.14-.59-1.23-.75-.06-.84.42-1,.95-1.65,4.23-4.69,6.7-9.27,7.1-1.73.16-2.8-.6-2.94-1.95s.81-2.23,2.54-2.45c3.54-.45,5.92-3,5.83-6.24s-2.44-5.64-5.91-6c-1.58-.17-2.55-1.1-2.47-2.38s1.11-2.08,2.73-2a10.54,10.54,0,0,1,9.47,7c.08.23.14.47.21.71.13.49.26.94,1,.85s.5-.63.51-1c0-2,0-3.93,0-5.9a2.23,2.23,0,0,1,2.37-2.43,2.09,2.09,0,0,1,2,2.14c0,1.08,0,2.17,0,3.25Z"/><path class="cls-1" d="M26.7,67.69a3.65,3.65,0,0,1-.74,0c-2.2-.4-3.55.29-4.1,2.65A2.06,2.06,0,0,1,19,71.93a2.22,2.22,0,0,1-1.26-3.14c2.14-5.7,4.32-11.39,6.5-17.07a2.53,2.53,0,0,1,2.45-1.79,2.47,2.47,0,0,1,2.5,1.72c2.18,5.73,4.36,11.47,6.5,17.22a2.18,2.18,0,0,1-1.24,3,2,2,0,0,1-2.85-1.52c-.52-2.49-2-3.06-4.2-2.7A4.57,4.57,0,0,1,26.7,67.69ZM28.8,63l-2-5.34c-.36.91-.61,1.54-.85,2.17-1.43,3.76-1.43,3.76,2.62,3.32C28.59,63.19,28.62,63.14,28.8,63Z"/><path class="cls-1" d="M88.23,85.14a15.94,15.94,0,0,0,2.26-5.62c.22-1-.46-.86-1-.86H77.06a4.42,4.42,0,0,1-1.59-.17,2,2,0,0,1-1.35-2.35,2.1,2.1,0,0,1,2.27-1.89c2.66,0,5.32-.09,8,0,1.31,0,1.91-.28,1.7-1.67a3.41,3.41,0,0,1,.21-1.89,2.19,2.19,0,0,1,4.16.42c0,.2,0,.4,0,.59.13,2.52.13,2.52,2.6,2.52,1.92,0,3.84,0,5.76,0,1.68,0,2.73.91,2.71,2.25s-1,2.13-2.62,2.17c-1.18,0-2.57-.34-3.48.17s-.62,2.14-1,3.24a20.88,20.88,0,0,1-2.64,5.73c-.63.87-.46,1.36.33,1.88,1.08.69,2.13,1.42,3.19,2.12,1.28.84,1.68,2,1.06,3.12s-1.92,1.46-3.32.68A20.8,20.8,0,0,1,89,92.74c-.53-.49-.9-.55-1.47,0a21.33,21.33,0,0,1-4.23,2.94A2.23,2.23,0,0,1,80.07,95c-.67-1.12-.3-2.29,1-3.13,1.06-.7,2.11-1.44,3.18-2.13.86-.55,1.07-1.08.37-2a15.53,15.53,0,0,1-2.06-4.06c-.61-1.62-.21-2.81,1.08-3.34s2.36.09,3,1.71c.32.77.67,1.53,1,2.28A9.27,9.27,0,0,0,88.23,85.14Z"/></g></g></svg>