<svg xmlns="http://www.w3.org/2000/svg" viewBox="0 0 247.48 237.94"><defs><style>.cls-1{isolation:isolate;}.cls-2{fill:#c7895e;mix-blend-mode:multiply;}.cls-3{fill:#fff;}</style></defs><g class="cls-1"><g id="Capa_2" data-name="Capa 2"><g id="Capa_1-2" data-name="Capa 1"><circle class="cls-2" cx="122.41" cy="72.07" r="72.07"/><circle class="cls-2" cx="72.07" cy="165.87" r="72.07"/><circle class="cls-2" cx="175.41" cy="165.87" r="72.07"/><path class="cls-3" d="M82.58,61a1.52,1.52,0,0,0-.11-.62,1.23,1.23,0,0,0-.37-.5,2.87,2.87,0,0,0-.73-.42,12.28,12.28,0,0,0-1.19-.41,12.39,12.39,0,0,1-1.35-.49,5.32,5.32,0,0,1-1-.63,2.65,2.65,0,0,1-.66-.81,2.35,2.35,0,0,1-.23-1A2.53,2.53,0,0,1,77.16,55a2.48,2.48,0,0,1,.69-.86,3.44,3.44,0,0,1,1.09-.58,4.42,4.42,0,0,1,1.4-.21,4,4,0,0,1,1.93.43,3.15,3.15,0,0,1,1.21,1.13,2.85,2.85,0,0,1,.42,1.49H82.57a2,2,0,0,0-.25-1,1.69,1.69,0,0,0-.73-.69,2.7,2.7,0,0,0-1.25-.26,2.84,2.84,0,0,0-1.17.22,1.54,1.54,0,0,0-.69.58,1.58,1.58,0,0,0-.23.84,1.27,1.27,0,0,0,.14.58,1.54,1.54,0,0,0,.42.48,3.51,3.51,0,0,0,.73.41c.3.12.66.24,1.07.36a9.07,9.07,0,0,1,1.49.54,4.47,4.47,0,0,1,1,.67,2.29,2.29,0,0,1,.6.83,2.78,2.78,0,0,1,.2,1.06,2.59,2.59,0,0,1-.25,1.12A2.54,2.54,0,0,1,83,63a3.38,3.38,0,0,1-1.11.54,5.32,5.32,0,0,1-2.82,0A4.09,4.09,0,0,1,77.8,63a3,3,0,0,1-.87-1,2.62,2.62,0,0,1-.33-1.33h1.33a1.77,1.77,0,0,0,.2.89,1.61,1.61,0,0,0,.55.61,2.37,2.37,0,0,0,.79.36,3.61,3.61,0,0,0,.94.12,3.16,3.16,0,0,0,1.18-.2,1.62,1.62,0,0,0,.74-.55A1.45,1.45,0,0,0,82.58,61Z"/><path class="cls-3" d="M85.1,59.93v-.16a4.64,4.64,0,0,1,.23-1.51A3.87,3.87,0,0,1,86,57.05a3.13,3.13,0,0,1,1.07-.8,3.62,3.62,0,0,1,2.84,0,3.17,3.17,0,0,1,1.08.8,3.51,3.51,0,0,1,.68,1.21,4.64,4.64,0,0,1,.24,1.51v.16a4.54,4.54,0,0,1-.24,1.5A3.42,3.42,0,0,1,91,62.64a3,3,0,0,1-1.07.8,3.62,3.62,0,0,1-2.84,0,3,3,0,0,1-1.08-.8,3.76,3.76,0,0,1-.68-1.21A4.54,4.54,0,0,1,85.1,59.93Zm1.28-.16v.16A4.05,4.05,0,0,0,86.51,61a2.67,2.67,0,0,0,.4.87,1.83,1.83,0,0,0,.67.6,1.85,1.85,0,0,0,.93.22,1.85,1.85,0,0,0,1.59-.82,2.9,2.9,0,0,0,.4-.87,4.05,4.05,0,0,0,.13-1.06v-.16a4,4,0,0,0-.13-1.05,2.85,2.85,0,0,0-.41-.88,1.92,1.92,0,0,0-.66-.61,2.08,2.08,0,0,0-1.86,0,2,2,0,0,0-.66.61,2.83,2.83,0,0,0-.4.88A4,4,0,0,0,86.38,59.77Z"/><path class="cls-3" d="M97.89,61.61a1.14,1.14,0,0,0-.12-.52,1.07,1.07,0,0,0-.49-.44,4.47,4.47,0,0,0-1.11-.34A9.13,9.13,0,0,1,95,60a3.39,3.39,0,0,1-.85-.44,1.92,1.92,0,0,1-.54-.6,1.73,1.73,0,0,1-.19-.81,1.86,1.86,0,0,1,.2-.84,2.19,2.19,0,0,1,.56-.7,3,3,0,0,1,.88-.48A3.69,3.69,0,0,1,96.24,56a3.44,3.44,0,0,1,1.54.32,2.34,2.34,0,0,1,1,.85,2.16,2.16,0,0,1,.34,1.17H97.81a1.16,1.16,0,0,0-.18-.61,1.46,1.46,0,0,0-.53-.48,1.76,1.76,0,0,0-.86-.2,1.93,1.93,0,0,0-.86.17,1,1,0,0,0-.48.41,1,1,0,0,0-.15.52.92.92,0,0,0,.08.38.69.69,0,0,0,.26.29,2.08,2.08,0,0,0,.52.26c.23.07.52.15.87.23a7.19,7.19,0,0,1,1.51.5,2.17,2.17,0,0,1,.89.71,1.76,1.76,0,0,1,.29,1,2,2,0,0,1-.2.9,2,2,0,0,1-.59.7,2.89,2.89,0,0,1-.91.46,4,4,0,0,1-1.19.16,3.73,3.73,0,0,1-1.68-.35,2.61,2.61,0,0,1-1-.92,2.2,2.2,0,0,1-.35-1.18H94.5a1.27,1.27,0,0,0,.3.83,1.46,1.46,0,0,0,.68.44,2.68,2.68,0,0,0,1.68,0,1.17,1.17,0,0,0,.54-.38A.86.86,0,0,0,97.89,61.61Z"/><path class="cls-3" d="M104,56.1v1H99.93v-1Zm-2.68-1.82h1.28v7.46a1.1,1.1,0,0,0,.12.57.54.54,0,0,0,.3.26,1.34,1.34,0,0,0,.4.06l.34,0,.26-.05v1a2.1,2.1,0,0,1-.4.1,3.34,3.34,0,0,1-.59,0,2,2,0,0,1-.86-.18,1.37,1.37,0,0,1-.63-.63,2.49,2.49,0,0,1-.23-1.19Z"/><path class="cls-3" d="M108.6,63.73a3.82,3.82,0,0,1-1.42-.26,3.07,3.07,0,0,1-1.08-.76,3.12,3.12,0,0,1-.7-1.15,4.2,4.2,0,0,1-.24-1.45v-.29a4.6,4.6,0,0,1,.27-1.63,3.6,3.6,0,0,1,.73-1.22,3.11,3.11,0,0,1,1.06-.75,3,3,0,0,1,1.21-.26,3.13,3.13,0,0,1,1.39.28,2.51,2.51,0,0,1,1,.77,3.38,3.38,0,0,1,.56,1.16,5.67,5.67,0,0,1,.18,1.46v.58h-5.6V59.16h4.32v-.1a3.31,3.31,0,0,0-.21-1,1.73,1.73,0,0,0-.56-.77,1.57,1.57,0,0,0-1-.31,1.69,1.69,0,0,0-.8.19,1.79,1.79,0,0,0-.63.54,2.66,2.66,0,0,0-.41.88,4.39,4.39,0,0,0-.14,1.2v.29a3.55,3.55,0,0,0,.14,1,2.49,2.49,0,0,0,.44.82,2.12,2.12,0,0,0,.7.56,2.2,2.2,0,0,0,.94.2,2.28,2.28,0,0,0,1.15-.28,2.74,2.74,0,0,0,.82-.74l.78.61a3.35,3.35,0,0,1-.62.7,2.65,2.65,0,0,1-.91.54A3.63,3.63,0,0,1,108.6,63.73Z"/><path class="cls-3" d="M114.3,57.7v5.89H113V56.1h1.22ZM114,59.56l-.53,0a4.31,4.31,0,0,1,.23-1.42,3.3,3.3,0,0,1,.62-1.14,2.79,2.79,0,0,1,2.2-1,3.07,3.07,0,0,1,1,.15,1.92,1.92,0,0,1,.76.47,2.13,2.13,0,0,1,.48.85,4.1,4.1,0,0,1,.17,1.25v4.91h-1.29V58.67a2.31,2.31,0,0,0-.17-1,1.17,1.17,0,0,0-.51-.52,2,2,0,0,0-.82-.16,2,2,0,0,0-.87.2,2.11,2.11,0,0,0-.67.56,2.67,2.67,0,0,0-.43.8A2.85,2.85,0,0,0,114,59.56Z"/><path class="cls-3" d="M120.86,54.11a.77.77,0,0,1,.19-.53.7.7,0,0,1,.56-.21.75.75,0,0,1,.57.21.77.77,0,0,1,.19.53.72.72,0,0,1-.19.51.75.75,0,0,1-.57.21.7.7,0,0,1-.56-.21A.72.72,0,0,1,120.86,54.11Zm1.38,2v7.49H121V56.1Z"/><path class="cls-3" d="M124.29,53h1.29v9.19l-.11,1.45h-1.18Zm6.35,6.83v.15a5.58,5.58,0,0,1-.19,1.51,3.66,3.66,0,0,1-.57,1.21,2.68,2.68,0,0,1-.91.8,2.63,2.63,0,0,1-1.24.28,3,3,0,0,1-1.25-.24,2.53,2.53,0,0,1-.91-.71,3.65,3.65,0,0,1-.58-1.13,6.25,6.25,0,0,1-.3-1.48v-.64a6.25,6.25,0,0,1,.3-1.48,3.65,3.65,0,0,1,.58-1.13,2.47,2.47,0,0,1,.9-.71,3.14,3.14,0,0,1,2.5,0,2.76,2.76,0,0,1,.92.78,3.86,3.86,0,0,1,.56,1.21A5.85,5.85,0,0,1,130.64,59.78Zm-1.28.15v-.15a5,5,0,0,0-.11-1.05,2.81,2.81,0,0,0-.33-.87,1.57,1.57,0,0,0-.6-.6,1.78,1.78,0,0,0-.93-.22,2,2,0,0,0-.84.17,1.9,1.9,0,0,0-.6.44,2.5,2.5,0,0,0-.41.64,3.74,3.74,0,0,0-.23.74V60.7a3.32,3.32,0,0,0,.36.93,2.16,2.16,0,0,0,.68.73,1.89,1.89,0,0,0,1.06.29,1.78,1.78,0,0,0,.89-.22,1.59,1.59,0,0,0,.6-.58,2.59,2.59,0,0,0,.34-.87A4.44,4.44,0,0,0,129.36,59.93Z"/><path class="cls-3" d="M132.27,54.11a.82.82,0,0,1,.19-.53.74.74,0,0,1,.57-.21.73.73,0,0,1,.56.21.78.78,0,0,1,.2.53.7.7,0,0,1-.76.72.74.74,0,0,1-.57-.21A.76.76,0,0,1,132.27,54.11Zm1.39,2v7.49h-1.29V56.1Z"/><path class="cls-3" d="M137.11,53V63.59h-1.29V53Z"/><path class="cls-3" d="M139.17,54.11a.82.82,0,0,1,.19-.53.74.74,0,0,1,.57-.21.73.73,0,0,1,.56.21.78.78,0,0,1,.2.53.7.7,0,0,1-.76.72.74.74,0,0,1-.57-.21A.76.76,0,0,1,139.17,54.11Zm1.39,2v7.49h-1.29V56.1Z"/><path class="cls-3" d="M142.3,59.93v-.15a5.45,5.45,0,0,1,.21-1.56,3.71,3.71,0,0,1,.6-1.21,2.83,2.83,0,0,1,.94-.78,2.66,2.66,0,0,1,1.21-.27,2.86,2.86,0,0,1,1.24.25,2.47,2.47,0,0,1,.9.71,3.44,3.44,0,0,1,.58,1.13,6.25,6.25,0,0,1,.3,1.48v.64a6.81,6.81,0,0,1-.29,1.48,3.66,3.66,0,0,1-.59,1.13,2.53,2.53,0,0,1-.91.71,3,3,0,0,1-1.24.24,2.53,2.53,0,0,1-1.2-.28,2.77,2.77,0,0,1-.94-.8,3.71,3.71,0,0,1-.6-1.21A5.2,5.2,0,0,1,142.3,59.93Zm1.28-.15v.15a4.44,4.44,0,0,0,.12,1,2.62,2.62,0,0,0,.36.87,1.69,1.69,0,0,0,.61.58,2,2,0,0,0,2-.06,2.05,2.05,0,0,0,.66-.71,4.27,4.27,0,0,0,.38-1V59a3.74,3.74,0,0,0-.23-.74,2.5,2.5,0,0,0-.41-.64,1.8,1.8,0,0,0-.6-.44,2,2,0,0,0-.84-.17,1.72,1.72,0,0,0-.9.22,1.62,1.62,0,0,0-.62.6,2.62,2.62,0,0,0-.36.87A4.44,4.44,0,0,0,143.58,59.78Zm3.76,2.36V53h1.29V63.59h-1.18Z"/><path class="cls-3" d="M155.26,59.05V60H154a4.74,4.74,0,0,0-1,.09,2.17,2.17,0,0,0-.72.26,1.24,1.24,0,0,0-.45.43,1.2,1.2,0,0,0-.15.61,1.38,1.38,0,0,0,.16.64,1.18,1.18,0,0,0,.48.46,1.75,1.75,0,0,0,.8.17,2.08,2.08,0,0,0,1-.25,2.25,2.25,0,0,0,.71-.61,1.27,1.27,0,0,0,.29-.7l.55.62a1.7,1.7,0,0,1-.27.64,2.94,2.94,0,0,1-.57.68,3.24,3.24,0,0,1-.84.53,2.77,2.77,0,0,1-1.1.21,2.93,2.93,0,0,1-1.33-.29,2.25,2.25,0,0,1-.89-.81,2,2,0,0,1-.32-1.12,2.24,2.24,0,0,1,.24-1.06,2,2,0,0,1,.68-.77,3.18,3.18,0,0,1,1.07-.47,5.42,5.42,0,0,1,1.39-.16ZM155,62.31V58.45a1.59,1.59,0,0,0-.18-.77,1.24,1.24,0,0,0-.53-.51,1.93,1.93,0,0,0-.87-.18,2,2,0,0,0-.85.17,1.5,1.5,0,0,0-.57.44.9.9,0,0,0-.21.58h-1.28a1.68,1.68,0,0,1,.21-.8,2.5,2.5,0,0,1,.6-.72,3.25,3.25,0,0,1,.94-.51,3.69,3.69,0,0,1,1.23-.19,3.47,3.47,0,0,1,1.45.28,2.2,2.2,0,0,1,1,.83,2.53,2.53,0,0,1,.36,1.4V62a5.81,5.81,0,0,0,.06.8,3.1,3.1,0,0,0,.2.72v.11h-1.34a2.62,2.62,0,0,1-.15-.59A4.23,4.23,0,0,1,155,62.31Z"/><path class="cls-3" d="M158,59.93v-.15a5.11,5.11,0,0,1,.22-1.56,3.71,3.71,0,0,1,.6-1.21,2.9,2.9,0,0,1,.93-.78A2.73,2.73,0,0,1,161,56a2.86,2.86,0,0,1,1.24.25,2.47,2.47,0,0,1,.9.71,3.65,3.65,0,0,1,.58,1.13,7.43,7.43,0,0,1,.3,1.48v.64a6.81,6.81,0,0,1-.29,1.48,3.89,3.89,0,0,1-.59,1.13,2.53,2.53,0,0,1-.91.71,3,3,0,0,1-1.24.24,2.6,2.6,0,0,1-1.21-.28,2.84,2.84,0,0,1-.93-.8,3.71,3.71,0,0,1-.6-1.21A4.88,4.88,0,0,1,158,59.93Zm1.29-.15v.15a4.44,4.44,0,0,0,.12,1,2.6,2.6,0,0,0,.35.87,1.75,1.75,0,0,0,1.51.8,1.78,1.78,0,0,0,1.05-.28,2,2,0,0,0,.67-.71,4.27,4.27,0,0,0,.38-1V59a3.2,3.2,0,0,0-.24-.74,2.23,2.23,0,0,0-.4-.64,1.8,1.8,0,0,0-.6-.44,2,2,0,0,0-.84-.17,1.71,1.71,0,0,0-1.53.82,2.6,2.6,0,0,0-.35.87A4.44,4.44,0,0,0,159.3,59.78Zm3.76,2.36V53h1.29V63.59h-1.18Z"/><path class="cls-3" d="M166.28,62.92a.85.85,0,0,1,.2-.56.77.77,0,0,1,.59-.22.78.78,0,0,1,.6.22.85.85,0,0,1,.2.56.8.8,0,0,1-.2.54.82.82,0,0,1-.6.22.72.72,0,0,1-.79-.76Zm0-6.12a.74.74,0,0,1,.79-.78.75.75,0,0,1,.59.23.81.81,0,0,1,0,1.09.74.74,0,0,1-.59.22.72.72,0,0,1-.79-.76Z"/><path class="cls-3" d="M84.73,65.25V75.89H83.44V65.25Z"/><path class="cls-3" d="M91.43,71.35v.9H90.15a4.86,4.86,0,0,0-1,.08,2.41,2.41,0,0,0-.72.26A1.24,1.24,0,0,0,88,73a1.08,1.08,0,0,0-.16.6,1.42,1.42,0,0,0,.16.65,1.25,1.25,0,0,0,.48.46,1.75,1.75,0,0,0,.8.17,2.19,2.19,0,0,0,1-.25,2.14,2.14,0,0,0,.71-.61,1.3,1.3,0,0,0,.29-.7l.55.61a1.88,1.88,0,0,1-.26.65,3.24,3.24,0,0,1-.58.67,2.89,2.89,0,0,1-.84.54,2.77,2.77,0,0,1-1.1.21,2.81,2.81,0,0,1-1.33-.3,2.23,2.23,0,0,1-.89-.8,2.06,2.06,0,0,1-.32-1.12,2.28,2.28,0,0,1,.24-1.07,2.17,2.17,0,0,1,.68-.77,3.18,3.18,0,0,1,1.07-.46,5.42,5.42,0,0,1,1.39-.16Zm-.22,3.26V70.75A1.57,1.57,0,0,0,91,70a1.19,1.19,0,0,0-.53-.51,1.93,1.93,0,0,0-.87-.18,2,2,0,0,0-.85.16,1.61,1.61,0,0,0-.57.44.93.93,0,0,0-.2.58H86.72a1.64,1.64,0,0,1,.21-.79,2.27,2.27,0,0,1,.6-.72,2.83,2.83,0,0,1,.94-.51,3.69,3.69,0,0,1,1.23-.19,3.64,3.64,0,0,1,1.45.27,2.24,2.24,0,0,1,1,.84,2.5,2.5,0,0,1,.36,1.39v3.5a5.56,5.56,0,0,0,.06.79,3.2,3.2,0,0,0,.2.73v.11H91.41a3,3,0,0,1-.15-.59A4.31,4.31,0,0,1,91.21,74.61Z"/><path class="cls-3" d="M101,75a2,2,0,0,0,.85-.19,1.81,1.81,0,0,0,.64-.52,1.43,1.43,0,0,0,.28-.75H104a2.24,2.24,0,0,1-.45,1.24,3,3,0,0,1-1.08.92A3.12,3.12,0,0,1,101,76a3.38,3.38,0,0,1-1.47-.3,2.9,2.9,0,0,1-1-.82,3.64,3.64,0,0,1-.62-1.19,5.15,5.15,0,0,1-.2-1.43V72a5.09,5.09,0,0,1,.2-1.43,3.8,3.8,0,0,1,.62-1.2,2.9,2.9,0,0,1,1-.82,3.54,3.54,0,0,1,1.47-.29,3.15,3.15,0,0,1,1.54.35,2.77,2.77,0,0,1,1,1A2.83,2.83,0,0,1,104,71h-1.22a1.84,1.84,0,0,0-.26-.84,1.68,1.68,0,0,0-1.51-.82,2,2,0,0,0-1,.23,1.7,1.7,0,0,0-.63.62,2.87,2.87,0,0,0-.34.87,5.23,5.23,0,0,0-.1,1v.29a4.5,4.5,0,0,0,.1,1,2.48,2.48,0,0,0,.33.86,1.63,1.63,0,0,0,.63.62A1.89,1.89,0,0,0,101,75Z"/><path class="cls-3" d="M110.09,71.35v.9h-1.29a4.86,4.86,0,0,0-1,.08,2.64,2.64,0,0,0-.72.26,1.24,1.24,0,0,0-.44.44,1.16,1.16,0,0,0-.15.6,1.31,1.31,0,0,0,.16.65,1.13,1.13,0,0,0,.48.46,1.71,1.71,0,0,0,.79.17,2.19,2.19,0,0,0,1-.25,2.29,2.29,0,0,0,.72-.61,1.36,1.36,0,0,0,.28-.7l.55.61a1.88,1.88,0,0,1-.26.65,3.5,3.5,0,0,1-.57.67,2.94,2.94,0,0,1-.85.54,2.73,2.73,0,0,1-1.1.21,2.81,2.81,0,0,1-1.33-.3,2.23,2.23,0,0,1-.89-.8,2.05,2.05,0,0,1-.31-1.12,2.41,2.41,0,0,1,.23-1.07,2.27,2.27,0,0,1,.68-.77,3.27,3.27,0,0,1,1.07-.46,5.42,5.42,0,0,1,1.39-.16Zm-.22,3.26V70.75a1.57,1.57,0,0,0-.18-.77,1.19,1.19,0,0,0-.53-.51,1.87,1.87,0,0,0-.87-.18,2,2,0,0,0-.85.16,1.61,1.61,0,0,0-.57.44,1,1,0,0,0-.2.58h-1.28a1.75,1.75,0,0,1,.2-.79,2.27,2.27,0,0,1,.6-.72,2.79,2.79,0,0,1,1-.51,4,4,0,0,1,2.67.08,2.18,2.18,0,0,1,1,.84,2.5,2.5,0,0,1,.36,1.39v3.5a4.45,4.45,0,0,0,.07.79,3.22,3.22,0,0,0,.19.73v.11h-1.33a2.36,2.36,0,0,1-.16-.59A5.89,5.89,0,0,1,109.87,74.61Z"/><path class="cls-3" d="M114.45,69.84v8.93h-1.29V68.39h1.18Zm5,2.24v.15a5.62,5.62,0,0,1-.2,1.51,3.55,3.55,0,0,1-.56,1.21,2.54,2.54,0,0,1-.91.79,2.64,2.64,0,0,1-1.24.29,3.08,3.08,0,0,1-1.26-.24,2.34,2.34,0,0,1-.93-.68,3.53,3.53,0,0,1-.61-1.08,5.94,5.94,0,0,1-.3-1.42v-.78a6,6,0,0,1,.31-1.49,3.62,3.62,0,0,1,.6-1.12,2.48,2.48,0,0,1,.92-.72,3.06,3.06,0,0,1,1.25-.24,2.77,2.77,0,0,1,1.25.27,2.47,2.47,0,0,1,.92.78,3.66,3.66,0,0,1,.57,1.21A6.29,6.29,0,0,1,119.5,72.08Zm-1.29.15v-.15a4.53,4.53,0,0,0-.12-1.06,2.84,2.84,0,0,0-.36-.87,1.78,1.78,0,0,0-.63-.59,1.75,1.75,0,0,0-.91-.22,2,2,0,0,0-.84.16,1.69,1.69,0,0,0-.6.45,2.26,2.26,0,0,0-.41.64,3.74,3.74,0,0,0-.23.74v1.79a3.68,3.68,0,0,0,.39.91,1.83,1.83,0,0,0,1.71,1,1.8,1.8,0,0,0,.89-.22,1.9,1.9,0,0,0,.63-.6,3,3,0,0,0,.36-.88A4.44,4.44,0,0,0,118.21,72.23Z"/><path class="cls-3" d="M125.77,71.35l0,.9h-1.3a4.75,4.75,0,0,0-1,.08,2.41,2.41,0,0,0-.72.26,1.19,1.19,0,0,0-.45.44,1.16,1.16,0,0,0-.15.6,1.31,1.31,0,0,0,.16.65,1.25,1.25,0,0,0,.48.46,1.71,1.71,0,0,0,.79.17,2.16,2.16,0,0,0,1-.25,2.29,2.29,0,0,0,.72-.61,1.38,1.38,0,0,0,.29-.7l.54.61a1.88,1.88,0,0,1-.26.65,2.91,2.91,0,0,1-.57.67,2.94,2.94,0,0,1-.85.54,2.72,2.72,0,0,1-1.09.21,2.85,2.85,0,0,1-1.34-.3,2.2,2.2,0,0,1-.88-.8,2.06,2.06,0,0,1-.32-1.12,2.28,2.28,0,0,1,.24-1.07,2.08,2.08,0,0,1,.68-.77,3.21,3.21,0,0,1,1.06-.46,5.47,5.47,0,0,1,1.39-.16Zm-.22,3.26V70.75a1.68,1.68,0,0,0-.17-.77,1.24,1.24,0,0,0-.53-.51,1.94,1.94,0,0,0-.88-.18,2.08,2.08,0,0,0-.85.16,1.49,1.49,0,0,0-.56.44.94.94,0,0,0-.21.58h-1.28a1.64,1.64,0,0,1,.21-.79,2.27,2.27,0,0,1,.6-.72,2.74,2.74,0,0,1,.94-.51,3.69,3.69,0,0,1,1.23-.19,3.59,3.59,0,0,1,1.44.27,2.26,2.26,0,0,1,1,.84,2.5,2.5,0,0,1,.35,1.39v3.5a5.64,5.64,0,0,0,.07.79,2.76,2.76,0,0,0,.2.73v.11h-1.34a2.4,2.4,0,0,1-.15-.59A4.39,4.39,0,0,1,125.55,74.61Z"/><path class="cls-3" d="M131.85,75a2,2,0,0,0,.84-.19,1.73,1.73,0,0,0,.64-.52,1.44,1.44,0,0,0,.29-.75h1.22a2.4,2.4,0,0,1-.45,1.24A3.13,3.13,0,0,1,131.85,76a3.38,3.38,0,0,1-1.47-.3,2.81,2.81,0,0,1-1-.82,3.46,3.46,0,0,1-.62-1.19,5.15,5.15,0,0,1-.2-1.43V72a5.09,5.09,0,0,1,.2-1.43,3.6,3.6,0,0,1,.62-1.2,2.81,2.81,0,0,1,1-.82,3.54,3.54,0,0,1,1.47-.29,3.15,3.15,0,0,1,1.54.35,2.67,2.67,0,0,1,1,1,2.84,2.84,0,0,1,.42,1.39h-1.22a2,2,0,0,0-.26-.84,1.84,1.84,0,0,0-.61-.6,1.77,1.77,0,0,0-.9-.22,2,2,0,0,0-1,.23,1.87,1.87,0,0,0-.63.62,3.14,3.14,0,0,0-.33.87,4.5,4.5,0,0,0-.1,1v.29a4.5,4.5,0,0,0,.1,1,2.48,2.48,0,0,0,.33.86,1.63,1.63,0,0,0,.63.62A1.86,1.86,0,0,0,131.85,75Z"/><path class="cls-3" d="M136.28,66.41a.8.8,0,0,1,.19-.53.74.74,0,0,1,.57-.21.73.73,0,0,1,.56.21.76.76,0,0,1,.2.53.74.74,0,0,1-.2.51.73.73,0,0,1-.56.21.74.74,0,0,1-.57-.21A.78.78,0,0,1,136.28,66.41Zm1.39,2v7.5h-1.29v-7.5Z"/><path class="cls-3" d="M139.41,72.23v-.15a5.45,5.45,0,0,1,.21-1.56,3.71,3.71,0,0,1,.6-1.21,2.61,2.61,0,0,1,.94-.78,2.66,2.66,0,0,1,1.21-.27,3,3,0,0,1,1.24.24,2.5,2.5,0,0,1,.9.72,3.39,3.39,0,0,1,.58,1.12,6.44,6.44,0,0,1,.3,1.49v.64A6.93,6.93,0,0,1,145.1,74a3.61,3.61,0,0,1-.59,1.12,2.47,2.47,0,0,1-.9.71,2.91,2.91,0,0,1-1.25.25,2.53,2.53,0,0,1-1.2-.29,2.64,2.64,0,0,1-.94-.79,3.81,3.81,0,0,1-.6-1.21A5.25,5.25,0,0,1,139.41,72.23Zm1.29-.15v.15a4.45,4.45,0,0,0,.11,1,2.68,2.68,0,0,0,.36.86,1.72,1.72,0,0,0,.61.59,1.81,1.81,0,0,0,.9.21,1.91,1.91,0,0,0,1-.27,2.14,2.14,0,0,0,.66-.71,4.91,4.91,0,0,0,.39-1V71.33a4.57,4.57,0,0,0-.24-.74,2.77,2.77,0,0,0-.4-.64,1.83,1.83,0,0,0-.61-.45,2,2,0,0,0-.84-.16,1.72,1.72,0,0,0-.9.22,1.75,1.75,0,0,0-.62.59,2.84,2.84,0,0,0-.36.87A4.54,4.54,0,0,0,140.7,72.08Zm3.75,2.36V65.25h1.29V75.89h-1.18Z"/><path class="cls-3" d="M152.37,71.35v.9h-1.29a4.86,4.86,0,0,0-1,.08,2.41,2.41,0,0,0-.72.26A1.24,1.24,0,0,0,149,73a1.08,1.08,0,0,0-.16.6,1.42,1.42,0,0,0,.16.65,1.21,1.21,0,0,0,.49.46,1.68,1.68,0,0,0,.79.17,2.19,2.19,0,0,0,1-.25,2.14,2.14,0,0,0,.71-.61,1.3,1.3,0,0,0,.29-.7l.55.61a1.88,1.88,0,0,1-.26.65,3.24,3.24,0,0,1-.58.67A2.78,2.78,0,0,1,150,76a2.81,2.81,0,0,1-1.33-.3,2.23,2.23,0,0,1-.89-.8,2.05,2.05,0,0,1-.31-1.12,2.28,2.28,0,0,1,.23-1.07,2.17,2.17,0,0,1,.68-.77,3.27,3.27,0,0,1,1.07-.46,5.42,5.42,0,0,1,1.39-.16Zm-.22,3.26V70.75A1.57,1.57,0,0,0,152,70a1.19,1.19,0,0,0-.53-.51,1.93,1.93,0,0,0-.87-.18,2,2,0,0,0-.85.16,1.61,1.61,0,0,0-.57.44.93.93,0,0,0-.2.58h-1.28a1.63,1.63,0,0,1,.2-.79,2.27,2.27,0,0,1,.6-.72,2.83,2.83,0,0,1,.94-.51,3.69,3.69,0,0,1,1.23-.19,3.64,3.64,0,0,1,1.45.27,2.24,2.24,0,0,1,1,.84,2.5,2.5,0,0,1,.36,1.39v3.5a5.56,5.56,0,0,0,.06.79,3.2,3.2,0,0,0,.2.73v.11h-1.33a2.36,2.36,0,0,1-.16-.59A5.89,5.89,0,0,1,152.15,74.61Z"/><path class="cls-3" d="M155.13,72.23v-.15a5.45,5.45,0,0,1,.21-1.56,3.71,3.71,0,0,1,.6-1.21,2.61,2.61,0,0,1,.94-.78,2.66,2.66,0,0,1,1.21-.27,3,3,0,0,1,1.24.24,2.5,2.5,0,0,1,.9.72,3.39,3.39,0,0,1,.58,1.12,6.44,6.44,0,0,1,.3,1.49v.64a6.93,6.93,0,0,1-.29,1.48,3.61,3.61,0,0,1-.59,1.12,2.42,2.42,0,0,1-.91.71,2.83,2.83,0,0,1-1.24.25,2.53,2.53,0,0,1-1.2-.29,2.64,2.64,0,0,1-.94-.79,3.81,3.81,0,0,1-.6-1.21A5.25,5.25,0,0,1,155.13,72.23Zm1.28-.15v.15a4.44,4.44,0,0,0,.12,1,2.48,2.48,0,0,0,.36.86,1.72,1.72,0,0,0,.61.59,1.81,1.81,0,0,0,.9.21,1.91,1.91,0,0,0,1-.27,2.14,2.14,0,0,0,.66-.71,4.35,4.35,0,0,0,.38-1V71.33a3.74,3.74,0,0,0-.23-.74,2.5,2.5,0,0,0-.41-.64,1.69,1.69,0,0,0-.6-.45,2,2,0,0,0-.84-.16,1.72,1.72,0,0,0-.9.22,1.67,1.67,0,0,0-.62.59,2.62,2.62,0,0,0-.36.87A4.53,4.53,0,0,0,156.41,72.08Zm3.76,2.36V65.25h1.29V75.89h-1.18Z"/><path class="cls-3" d="M95.73,84.52v-.14a5.47,5.47,0,0,1,.21-1.57,3.87,3.87,0,0,1,.61-1.2,2.66,2.66,0,0,1,.93-.78,2.58,2.58,0,0,1,1.22-.28,2.79,2.79,0,0,1,1.23.25,2.42,2.42,0,0,1,.91.71,3.65,3.65,0,0,1,.58,1.13,7.54,7.54,0,0,1,.3,1.49v.63a6.44,6.44,0,0,1-.3,1.49,3.59,3.59,0,0,1-.58,1.12,2.53,2.53,0,0,1-.91.71,3,3,0,0,1-1.25.24,2.56,2.56,0,0,1-1.2-.28,2.72,2.72,0,0,1-.93-.8A3.93,3.93,0,0,1,95.94,86,5.15,5.15,0,0,1,95.73,84.52ZM97,84.38v.14a4.32,4.32,0,0,0,.12,1,2.6,2.6,0,0,0,.35.87,1.75,1.75,0,0,0,1.51.8,1.86,1.86,0,0,0,1-.27,1.91,1.91,0,0,0,.66-.72,3.72,3.72,0,0,0,.39-1V83.62a3.36,3.36,0,0,0-.24-.74,2.41,2.41,0,0,0-.4-.63,1.69,1.69,0,0,0-.6-.45,2,2,0,0,0-.84-.17,1.75,1.75,0,0,0-.91.22,1.78,1.78,0,0,0-.62.6,2.6,2.6,0,0,0-.35.87A4.47,4.47,0,0,0,97,84.38Zm3.76,2.35V77.54h1.28V88.19h-1.17Z"/><path class="cls-3" d="M107.16,88.32a3.54,3.54,0,0,1-1.41-.26,3.12,3.12,0,0,1-1.09-.75,3.45,3.45,0,0,1-.7-1.15,4.3,4.3,0,0,1-.24-1.46v-.29a4.6,4.6,0,0,1,.27-1.63,3.88,3.88,0,0,1,.73-1.22,3.21,3.21,0,0,1,1.06-.75,3,3,0,0,1,1.22-.26,3.16,3.16,0,0,1,1.39.28,2.51,2.51,0,0,1,1,.77,3.52,3.52,0,0,1,.55,1.17,5.54,5.54,0,0,1,.18,1.45v.58h-5.6v-1h4.32v-.1a3.18,3.18,0,0,0-.21-1,1.69,1.69,0,0,0-.55-.78,1.65,1.65,0,0,0-1-.3,1.85,1.85,0,0,0-.81.18,1.79,1.79,0,0,0-.63.54,2.87,2.87,0,0,0-.41.88,4.82,4.82,0,0,0-.14,1.2v.29a3.22,3.22,0,0,0,.15,1,2.47,2.47,0,0,0,.43.82,2.22,2.22,0,0,0,.7.56,2.41,2.41,0,0,0,2.09-.08,2.77,2.77,0,0,0,.83-.74l.77.62a3.56,3.56,0,0,1-.61.7,3.06,3.06,0,0,1-.92.54A3.57,3.57,0,0,1,107.16,88.32Z"/><path class="cls-3" d="M118.09,87.27a1.86,1.86,0,0,0,.85-.19,1.69,1.69,0,0,0,.64-.51,1.43,1.43,0,0,0,.28-.75h1.22a2.21,2.21,0,0,1-.45,1.23,3,3,0,0,1-1.07.92,3,3,0,0,1-1.47.35,3.54,3.54,0,0,1-1.47-.29,2.9,2.9,0,0,1-1-.82A3.58,3.58,0,0,1,115,86a4.76,4.76,0,0,1-.21-1.43v-.29a4.8,4.8,0,0,1,.21-1.43,3.44,3.44,0,0,1,.61-1.19,2.9,2.9,0,0,1,1-.82,3.38,3.38,0,0,1,1.47-.3,3.16,3.16,0,0,1,1.54.36,2.7,2.7,0,0,1,1,1,2.83,2.83,0,0,1,.41,1.39h-1.22a1.84,1.84,0,0,0-.26-.84,1.67,1.67,0,0,0-.61-.6,1.72,1.72,0,0,0-.9-.22,1.85,1.85,0,0,0-1,.23,1.63,1.63,0,0,0-.63.62,2.77,2.77,0,0,0-.34.87,5,5,0,0,0-.1,1v.29a5.23,5.23,0,0,0,.1,1,3,3,0,0,0,.33.87,1.78,1.78,0,0,0,.63.62A2,2,0,0,0,118.09,87.27Z"/><path class="cls-3" d="M127.16,83.64l0,.9h-1.3a4.88,4.88,0,0,0-1,.09,2.35,2.35,0,0,0-.72.26,1.13,1.13,0,0,0-.59,1,1.27,1.27,0,0,0,.16.64,1,1,0,0,0,.48.46,1.59,1.59,0,0,0,.79.17,2.08,2.08,0,0,0,1-.25,2.17,2.17,0,0,0,.72-.61,1.35,1.35,0,0,0,.29-.7l.54.62a1.83,1.83,0,0,1-.26.64,2.94,2.94,0,0,1-.57.68,3.14,3.14,0,0,1-.85.53,2.72,2.72,0,0,1-1.09.21A3,3,0,0,1,123.5,88a2.21,2.21,0,0,1-.88-.8,2,2,0,0,1-.32-1.13,2.24,2.24,0,0,1,.24-1.06,2,2,0,0,1,.67-.77,3.37,3.37,0,0,1,1.07-.47,5.47,5.47,0,0,1,1.39-.16Zm-.22,3.26V83.05a1.61,1.61,0,0,0-.18-.78,1.14,1.14,0,0,0-.53-.51,1.87,1.87,0,0,0-.87-.18,2.08,2.08,0,0,0-.85.17,1.39,1.39,0,0,0-.56.44.92.92,0,0,0-.21.58h-1.28a1.68,1.68,0,0,1,.21-.8,2.35,2.35,0,0,1,.6-.71,2.94,2.94,0,0,1,.94-.52,3.69,3.69,0,0,1,1.23-.19,3.46,3.46,0,0,1,1.44.28,2.18,2.18,0,0,1,1,.83,2.62,2.62,0,0,1,.35,1.4v3.49a4.56,4.56,0,0,0,.07.8,2.68,2.68,0,0,0,.2.72v.12h-1.34a2,2,0,0,1-.15-.6A4.2,4.2,0,0,1,126.94,86.9Z"/><path class="cls-3" d="M131.52,81.87v6.32h-1.28v-7.5h1.25Zm2.34-1.22v1.19l-.3,0h-.32a2.13,2.13,0,0,0-.78.14,1.85,1.85,0,0,0-.58.39,2.1,2.1,0,0,0-.37.59,2.57,2.57,0,0,0-.17.75l-.36.21a5.76,5.76,0,0,1,.13-1.27,3.46,3.46,0,0,1,.42-1.06,2.07,2.07,0,0,1,.72-.72,2.1,2.1,0,0,1,1-.26l.32,0A1,1,0,0,1,133.86,80.65Z"/><path class="cls-3" d="M134.74,84.52v-.14a5.47,5.47,0,0,1,.21-1.57,3.62,3.62,0,0,1,.58-1.2,2.67,2.67,0,0,1,2.17-1.06,2.86,2.86,0,0,1,1.24.25,2.47,2.47,0,0,1,.9.71,3.65,3.65,0,0,1,.58,1.13,6.88,6.88,0,0,1,.3,1.49v.63a7,7,0,0,1-.29,1.49,3.83,3.83,0,0,1-.59,1.12,2.53,2.53,0,0,1-.91.71,3,3,0,0,1-1.24.24,2.58,2.58,0,0,1-1.22-.28,2.72,2.72,0,0,1-.93-.8A3.5,3.5,0,0,1,135,86,5.15,5.15,0,0,1,134.74,84.52Zm5.16-3.83h1.17V88a3.33,3.33,0,0,1-.41,1.69,2.64,2.64,0,0,1-1.11,1.06,3.65,3.65,0,0,1-1.66.36A4.22,4.22,0,0,1,137,91a3.41,3.41,0,0,1-1-.41,2.48,2.48,0,0,1-.84-.77l.67-.76a2.69,2.69,0,0,0,1,.79,2.58,2.58,0,0,0,1,.22,2.32,2.32,0,0,0,1-.23,1.71,1.71,0,0,0,.69-.67,2.32,2.32,0,0,0,.24-1.1V82.34ZM136,84.38v.14a4.32,4.32,0,0,0,.12,1,2.6,2.6,0,0,0,.35.87,1.69,1.69,0,0,0,.61.58,1.72,1.72,0,0,0,.9.22,1.81,1.81,0,0,0,1.71-1,4.11,4.11,0,0,0,.39-1V83.62a3.36,3.36,0,0,0-.24-.74,2.18,2.18,0,0,0-.4-.63,1.69,1.69,0,0,0-.6-.45,2,2,0,0,0-.85-.17,1.72,1.72,0,0,0-.9.22,1.78,1.78,0,0,0-.62.6,2.6,2.6,0,0,0-.35.87A4.47,4.47,0,0,0,136,84.38Z"/><path class="cls-3" d="M147.65,83.64l0,.9h-1.3a4.71,4.71,0,0,0-1,.09,2.17,2.17,0,0,0-.72.26,1.17,1.17,0,0,0-.45.43,1.2,1.2,0,0,0-.15.61,1.27,1.27,0,0,0,.16.64,1.07,1.07,0,0,0,.48.46,1.59,1.59,0,0,0,.79.17,2.05,2.05,0,0,0,1-.25,2.17,2.17,0,0,0,.72-.61,1.35,1.35,0,0,0,.29-.7l.54.62a1.83,1.83,0,0,1-.26.64,2.94,2.94,0,0,1-.57.68,3.14,3.14,0,0,1-.85.53,2.72,2.72,0,0,1-1.09.21A3,3,0,0,1,144,88a2.28,2.28,0,0,1-.88-.8,2.1,2.1,0,0,1-.32-1.13A2.24,2.24,0,0,1,143,85a1.93,1.93,0,0,1,.68-.77,3.22,3.22,0,0,1,1.06-.47,5.47,5.47,0,0,1,1.39-.16Zm-.22,3.26V83.05a1.73,1.73,0,0,0-.17-.78,1.24,1.24,0,0,0-.53-.51,1.94,1.94,0,0,0-.88-.18,2.08,2.08,0,0,0-.85.17,1.39,1.39,0,0,0-.56.44.92.92,0,0,0-.21.58H143a1.68,1.68,0,0,1,.21-.8,2.35,2.35,0,0,1,.6-.71,2.94,2.94,0,0,1,.94-.52,3.69,3.69,0,0,1,1.23-.19,3.43,3.43,0,0,1,1.44.28,2.18,2.18,0,0,1,1,.83,2.62,2.62,0,0,1,.35,1.4v3.49a5.77,5.77,0,0,0,.07.8,2.68,2.68,0,0,0,.2.72v.12h-1.34a2.37,2.37,0,0,1-.15-.6A4.2,4.2,0,0,1,147.43,86.9Z"/><path class="cls-3" d="M20.78,158.72a1.73,1.73,0,0,0-.11-.63,1.23,1.23,0,0,0-.37-.49,3.07,3.07,0,0,0-.74-.43,9.4,9.4,0,0,0-1.18-.4,11,11,0,0,1-1.35-.5,4.49,4.49,0,0,1-1-.63,2.28,2.28,0,0,1-.89-1.85,2.45,2.45,0,0,1,.24-1.09,2.77,2.77,0,0,1,.7-.87,3.34,3.34,0,0,1,1.09-.58,4.34,4.34,0,0,1,1.4-.21,4,4,0,0,1,1.93.44,3,3,0,0,1,1.21,1.13,2.78,2.78,0,0,1,.41,1.48H20.76a2.09,2.09,0,0,0-.24-1,1.69,1.69,0,0,0-.73-.69,2.73,2.73,0,0,0-1.25-.25,2.9,2.9,0,0,0-1.18.21,1.46,1.46,0,0,0-.91,1.42,1.24,1.24,0,0,0,.13.58,1.46,1.46,0,0,0,.43.48,2.92,2.92,0,0,0,.73.41,7.84,7.84,0,0,0,1.07.36,8.93,8.93,0,0,1,1.48.54,4.08,4.08,0,0,1,1,.67,2.58,2.58,0,0,1,.61.84,2.69,2.69,0,0,1,.19,1,2.4,2.4,0,0,1-.25,1.12,2.31,2.31,0,0,1-.71.85,3.39,3.39,0,0,1-1.11.55,5.36,5.36,0,0,1-1.45.19,4.94,4.94,0,0,1-1.37-.2,4.09,4.09,0,0,1-1.23-.58,3.1,3.1,0,0,1-.88-1,2.6,2.6,0,0,1-.33-1.33h1.33a1.86,1.86,0,0,0,.2.89,1.75,1.75,0,0,0,.56.62,2.27,2.27,0,0,0,.79.35,3.59,3.59,0,0,0,.93.12,3.18,3.18,0,0,0,1.19-.2,1.56,1.56,0,0,0,.74-.55A1.49,1.49,0,0,0,20.78,158.72Z"/><path class="cls-3" d="M26.74,161.41a3.55,3.55,0,0,1-1.41-.27,3.12,3.12,0,0,1-1.09-.75,3.45,3.45,0,0,1-.7-1.15,4.3,4.3,0,0,1-.24-1.46v-.29a4.6,4.6,0,0,1,.27-1.63,3.72,3.72,0,0,1,.73-1.21,3.1,3.1,0,0,1,1.06-.76,3,3,0,0,1,1.22-.26,3.31,3.31,0,0,1,1.39.28,2.6,2.6,0,0,1,1,.77,3.33,3.33,0,0,1,.55,1.17,5.56,5.56,0,0,1,.18,1.46v.57h-5.6v-1h4.32v-.09a3.17,3.17,0,0,0-.21-1,1.69,1.69,0,0,0-.55-.78,1.65,1.65,0,0,0-1-.3,1.85,1.85,0,0,0-.81.18,1.79,1.79,0,0,0-.63.54,3,3,0,0,0-.41.88,4.82,4.82,0,0,0-.14,1.2v.29a3.22,3.22,0,0,0,.15,1,2.52,2.52,0,0,0,.43.83,2.28,2.28,0,0,0,2.79.47,2.77,2.77,0,0,0,.83-.74l.77.62a3.56,3.56,0,0,1-.61.7,3.06,3.06,0,0,1-.92.54A3.56,3.56,0,0,1,26.74,161.41Z"/><path class="cls-3" d="M32.44,155.21v8.94H31.15V153.77h1.18Zm5.05,2.25v.14a5.64,5.64,0,0,1-.2,1.52,3.85,3.85,0,0,1-.56,1.21,2.58,2.58,0,0,1-2.15,1.08,3.08,3.08,0,0,1-1.26-.24,2.36,2.36,0,0,1-.93-.69,3.42,3.42,0,0,1-.61-1.08,6.33,6.33,0,0,1-.31-1.42v-.77a6.3,6.3,0,0,1,.32-1.49,3.68,3.68,0,0,1,.6-1.13,2.46,2.46,0,0,1,.92-.71,3.06,3.06,0,0,1,1.25-.25,2.77,2.77,0,0,1,1.25.28,2.47,2.47,0,0,1,.92.78,3.57,3.57,0,0,1,.57,1.21A6.23,6.23,0,0,1,37.49,157.46Zm-1.29.14v-.14a4.47,4.47,0,0,0-.12-1.06,2.84,2.84,0,0,0-.36-.87,2,2,0,0,0-.63-.6,1.86,1.86,0,0,0-.91-.22,2,2,0,0,0-.84.17,1.69,1.69,0,0,0-.6.45,2.13,2.13,0,0,0-.41.64,3.65,3.65,0,0,0-.23.73v1.8a3.84,3.84,0,0,0,.39.91,1.87,1.87,0,0,0,.66.68,1.9,1.9,0,0,0,1.05.26,1.8,1.8,0,0,0,.89-.21,1.9,1.9,0,0,0,.63-.6,3,3,0,0,0,.36-.88A4.47,4.47,0,0,0,36.2,157.6Z"/><path class="cls-3" d="M43.76,156.72l0,.9h-1.3a4.71,4.71,0,0,0-1,.09,2.41,2.41,0,0,0-.72.26,1.24,1.24,0,0,0-.45.43,1.23,1.23,0,0,0-.15.61,1.27,1.27,0,0,0,.16.64,1.12,1.12,0,0,0,.48.46,1.62,1.62,0,0,0,.79.17,2.05,2.05,0,0,0,1-.25,2.14,2.14,0,0,0,.72-.6,1.38,1.38,0,0,0,.29-.7l.54.61A1.88,1.88,0,0,1,44,160a3.06,3.06,0,0,1-1.42,1.2,2.56,2.56,0,0,1-1.09.22,2.85,2.85,0,0,1-1.34-.3,2.28,2.28,0,0,1-.88-.8,2.1,2.1,0,0,1-.32-1.13,2.27,2.27,0,0,1,.24-1.06,2,2,0,0,1,.68-.77,3.44,3.44,0,0,1,1.06-.47,6,6,0,0,1,1.39-.16ZM43.54,160v-3.86a1.65,1.65,0,0,0-.17-.77,1.24,1.24,0,0,0-.53-.51,1.94,1.94,0,0,0-.88-.18,2.08,2.08,0,0,0-.85.16,1.39,1.39,0,0,0-.56.44.92.92,0,0,0-.21.58H39.06a1.71,1.71,0,0,1,.21-.8,2.35,2.35,0,0,1,.6-.71,2.94,2.94,0,0,1,.94-.52,4,4,0,0,1,1.23-.19,3.59,3.59,0,0,1,1.44.28,2.2,2.2,0,0,1,1,.84,2.5,2.5,0,0,1,.35,1.39v3.49a5.77,5.77,0,0,0,.07.8,2.87,2.87,0,0,0,.2.73v.11H43.75a3,3,0,0,1-.15-.59A4.39,4.39,0,0,1,43.54,160Z"/><path class="cls-3" d="M48.12,155v6.32H46.84v-7.5h1.25Zm2.34-1.22v1.19a1.76,1.76,0,0,0-.31,0h-.32a1.94,1.94,0,0,0-.78.14,1.67,1.67,0,0,0-.58.38,2,2,0,0,0-.37.6,2.75,2.75,0,0,0-.17.75l-.36.2a5.76,5.76,0,0,1,.13-1.27,3.46,3.46,0,0,1,.42-1.06,2.18,2.18,0,0,1,.73-.72,2,2,0,0,1,1-.26l.32,0Z"/><path class="cls-3" d="M56.29,156.72v.9H55a4.81,4.81,0,0,0-1,.09,2.41,2.41,0,0,0-.72.26,1.3,1.3,0,0,0-.44.43,1.13,1.13,0,0,0-.16.61,1.38,1.38,0,0,0,.16.64,1.09,1.09,0,0,0,.49.46,1.57,1.57,0,0,0,.79.17,2.08,2.08,0,0,0,1-.25,2,2,0,0,0,.71-.6,1.3,1.3,0,0,0,.29-.7l.55.61a1.88,1.88,0,0,1-.26.65,3.24,3.24,0,0,1-.58.67,2.74,2.74,0,0,1-.84.53,2.6,2.6,0,0,1-1.1.22,2.81,2.81,0,0,1-1.33-.3,2.31,2.31,0,0,1-.89-.8,2.09,2.09,0,0,1-.31-1.13,2.27,2.27,0,0,1,.23-1.06,2.18,2.18,0,0,1,.68-.77,3.5,3.5,0,0,1,1.07-.47,5.9,5.9,0,0,1,1.39-.16ZM56.07,160v-3.86a1.54,1.54,0,0,0-.18-.77,1.19,1.19,0,0,0-.53-.51,1.9,1.9,0,0,0-.87-.18,2,2,0,0,0-.85.16,1.5,1.5,0,0,0-.57.44.91.91,0,0,0-.2.58H51.59a1.69,1.69,0,0,1,.2-.8,2.35,2.35,0,0,1,.6-.71,3,3,0,0,1,.94-.52,4,4,0,0,1,1.23-.19,3.64,3.64,0,0,1,1.45.28,2.17,2.17,0,0,1,1,.84,2.5,2.5,0,0,1,.36,1.39v3.49a5.7,5.7,0,0,0,.06.8,3.35,3.35,0,0,0,.2.73v.11H56.28a2.36,2.36,0,0,1-.16-.59A5.89,5.89,0,0,1,56.07,160Z"/><path class="cls-3" d="M62.36,160.35a2,2,0,0,0,.85-.18,1.81,1.81,0,0,0,.64-.52,1.43,1.43,0,0,0,.28-.75h1.22a2.27,2.27,0,0,1-.45,1.24,3.1,3.1,0,0,1-1.07.92,3.19,3.19,0,0,1-1.47.35,3.38,3.38,0,0,1-1.47-.3,2.9,2.9,0,0,1-1-.82,3.53,3.53,0,0,1-.61-1.19,4.8,4.8,0,0,1-.21-1.43v-.3a4.8,4.8,0,0,1,.21-1.43,3.53,3.53,0,0,1,.61-1.19,2.9,2.9,0,0,1,1-.82,3.38,3.38,0,0,1,1.47-.3,3.16,3.16,0,0,1,1.54.36,2.7,2.7,0,0,1,1,1,2.83,2.83,0,0,1,.41,1.39H64.13a1.84,1.84,0,0,0-.26-.84,1.67,1.67,0,0,0-.61-.6,1.72,1.72,0,0,0-.9-.22,1.85,1.85,0,0,0-1,.23,1.63,1.63,0,0,0-.63.62,2.77,2.77,0,0,0-.34.87,5.21,5.21,0,0,0-.1,1v.3a5.32,5.32,0,0,0,.1,1,2.79,2.79,0,0,0,.33.86,1.63,1.63,0,0,0,.63.62A1.91,1.91,0,0,0,62.36,160.35Z"/><path class="cls-3" d="M66.8,151.78a.74.74,0,0,1,.19-.52.69.69,0,0,1,.56-.22.71.71,0,0,1,.57.22.74.74,0,0,1,.19.52.72.72,0,0,1-.19.51.74.74,0,0,1-.57.21.69.69,0,0,1-.75-.72Zm1.38,2v7.5H66.89v-7.5Z"/><path class="cls-3" d="M69.9,157.6v-.16a4.54,4.54,0,0,1,.24-1.5,3.34,3.34,0,0,1,.68-1.21,3,3,0,0,1,1.07-.81,3.38,3.38,0,0,1,1.41-.29,3.48,3.48,0,0,1,1.43.29,3.07,3.07,0,0,1,1.08.81,3.66,3.66,0,0,1,.68,1.21,4.54,4.54,0,0,1,.23,1.5v.16a4.6,4.6,0,0,1-.23,1.51,3.71,3.71,0,0,1-.68,1.2,3.07,3.07,0,0,1-1.08.81,3.35,3.35,0,0,1-1.41.29,3.4,3.4,0,0,1-1.42-.29,3.08,3.08,0,0,1-1.08-.81,3.38,3.38,0,0,1-.68-1.2A4.6,4.6,0,0,1,69.9,157.6Zm1.28-.16v.16a4.46,4.46,0,0,0,.13,1.06,3.08,3.08,0,0,0,.4.88,2,2,0,0,0,.67.6,2,2,0,0,0,.94.21,1.81,1.81,0,0,0,1.58-.81,2.83,2.83,0,0,0,.4-.88,4,4,0,0,0,.14-1.06v-.16a4,4,0,0,0-.14-1.05,2.83,2.83,0,0,0-.4-.88,2,2,0,0,0-.67-.6,2.05,2.05,0,0,0-1.85,0,2,2,0,0,0-.67.6,3.08,3.08,0,0,0-.4.88A4.51,4.51,0,0,0,71.18,157.44Zm1.36-4.78,1.35-2h1.54l-1.86,2Z"/><path class="cls-3" d="M79.61,155.37v5.9H78.33v-7.5h1.21Zm-.3,1.87-.54,0a5,5,0,0,1,.23-1.43,3.71,3.71,0,0,1,.63-1.14,2.81,2.81,0,0,1,1-.75,2.77,2.77,0,0,1,1.23-.27,3.13,3.13,0,0,1,1,.15,1.83,1.83,0,0,1,.76.48,2.09,2.09,0,0,1,.48.84,4.13,4.13,0,0,1,.17,1.26v4.91H82.94v-4.93a2.07,2.07,0,0,0-.18-.94,1.06,1.06,0,0,0-.5-.52,1.84,1.84,0,0,0-.82-.17,1.81,1.81,0,0,0-.87.21,2,2,0,0,0-.67.55,2.75,2.75,0,0,0-.44.81A3,3,0,0,0,79.31,157.24Z"/><path class="cls-3" d="M14.89,169.9v-.15a5.45,5.45,0,0,1,.21-1.56,3.71,3.71,0,0,1,.6-1.21,3,3,0,0,1,.94-.78,2.7,2.7,0,0,1,1.22-.27,2.79,2.79,0,0,1,1.23.25,2.32,2.32,0,0,1,.9.71,3.66,3.66,0,0,1,.59,1.13,7.43,7.43,0,0,1,.3,1.48v.64a6.25,6.25,0,0,1-.3,1.48,3.46,3.46,0,0,1-.59,1.13,2.49,2.49,0,0,1-.9.71,3,3,0,0,1-1.25.24,2.53,2.53,0,0,1-1.2-.28,3,3,0,0,1-.94-.8,3.71,3.71,0,0,1-.6-1.21A5.2,5.2,0,0,1,14.89,169.9Zm1.29-.15v.15a5,5,0,0,0,.11,1,2.84,2.84,0,0,0,.36.87,1.72,1.72,0,0,0,.62.58,1.78,1.78,0,0,0,.89.21,1.88,1.88,0,0,0,1.05-.27,2,2,0,0,0,.66-.71,3.87,3.87,0,0,0,.39-1V169a4.57,4.57,0,0,0-.24-.74,2.47,2.47,0,0,0-.4-.64,1.87,1.87,0,0,0-1.45-.61,1.72,1.72,0,0,0-.9.22,1.75,1.75,0,0,0-.62.59,3,3,0,0,0-.36.88A5,5,0,0,0,16.18,169.75Zm3.75,2.36v-9.19h1.29v10.64H20Z"/><path class="cls-3" d="M26.32,173.7a3.82,3.82,0,0,1-1.42-.26,3.07,3.07,0,0,1-1.08-.76,3.12,3.12,0,0,1-.7-1.15,4.2,4.2,0,0,1-.24-1.45v-.29a4.6,4.6,0,0,1,.27-1.63,3.6,3.6,0,0,1,.73-1.22,3.17,3.17,0,0,1,1.05-.75,3.07,3.07,0,0,1,1.22-.26,3.13,3.13,0,0,1,1.39.28,2.51,2.51,0,0,1,1,.77,3.38,3.38,0,0,1,.56,1.16,5.61,5.61,0,0,1,.18,1.46v.58h-5.6v-1.05H28V169a3.31,3.31,0,0,0-.21-1,1.73,1.73,0,0,0-.56-.77,1.57,1.57,0,0,0-1-.31,1.69,1.69,0,0,0-.8.19,1.79,1.79,0,0,0-.63.54,2.87,2.87,0,0,0-.41.88,4.82,4.82,0,0,0-.14,1.2v.29a3.55,3.55,0,0,0,.14,1,2.49,2.49,0,0,0,.44.82,2.12,2.12,0,0,0,.7.56,2.2,2.2,0,0,0,.94.2,2.28,2.28,0,0,0,1.15-.28,2.88,2.88,0,0,0,.82-.74l.78.61a3.35,3.35,0,0,1-.62.7,2.65,2.65,0,0,1-.91.54A3.63,3.63,0,0,1,26.32,173.7Z"/><path class="cls-3" d="M35.53,167.25v6.31H34.25v-7.49H35.5ZM37.88,166v1.19a1.87,1.87,0,0,0-.3-.05h-.32a2.14,2.14,0,0,0-.79.14,1.53,1.53,0,0,0-.57.39,1.79,1.79,0,0,0-.37.59,2.94,2.94,0,0,0-.18.75l-.36.21a5.15,5.15,0,0,1,.14-1.27,3.44,3.44,0,0,1,.41-1.06,2.09,2.09,0,0,1,.73-.72,2,2,0,0,1,1.05-.26l.32,0A.77.77,0,0,1,37.88,166Z"/><path class="cls-3" d="M42.17,173.7a3.82,3.82,0,0,1-1.42-.26,3.07,3.07,0,0,1-1.08-.76,3.12,3.12,0,0,1-.7-1.15,4.2,4.2,0,0,1-.24-1.45v-.29a4.6,4.6,0,0,1,.27-1.63,3.6,3.6,0,0,1,.73-1.22,3.11,3.11,0,0,1,1.06-.75,3,3,0,0,1,1.21-.26,3.13,3.13,0,0,1,1.39.28,2.51,2.51,0,0,1,1,.77,3.38,3.38,0,0,1,.56,1.16,5.61,5.61,0,0,1,.18,1.46v.58h-5.6v-1.05h4.32V169a3.31,3.31,0,0,0-.21-1,1.73,1.73,0,0,0-.56-.77,1.57,1.57,0,0,0-1-.31,1.69,1.69,0,0,0-.8.19,1.79,1.79,0,0,0-.63.54,2.66,2.66,0,0,0-.41.88,4.39,4.39,0,0,0-.14,1.2v.29a3.22,3.22,0,0,0,.15,1,2.3,2.3,0,0,0,.43.82,2.12,2.12,0,0,0,.7.56,2.2,2.2,0,0,0,.94.2,2.28,2.28,0,0,0,1.15-.28,2.88,2.88,0,0,0,.82-.74l.78.61a3.35,3.35,0,0,1-.62.7,2.65,2.65,0,0,1-.91.54A3.6,3.6,0,0,1,42.17,173.7Z"/><path class="cls-3" d="M51,171.58a1,1,0,0,0-.61-1,4.43,4.43,0,0,0-1.12-.34A9,9,0,0,1,48.1,170a3.22,3.22,0,0,1-.85-.44,1.7,1.7,0,0,1-.54-.6,1.62,1.62,0,0,1-.19-.81,1.86,1.86,0,0,1,.2-.84,2.19,2.19,0,0,1,.56-.7,2.74,2.74,0,0,1,.88-.48,3.69,3.69,0,0,1,1.14-.17,3.47,3.47,0,0,1,1.54.32,2.31,2.31,0,0,1,1,.85,2.08,2.08,0,0,1,.34,1.17H50.87a1.16,1.16,0,0,0-.18-.61,1.42,1.42,0,0,0-.54-.48,1.7,1.7,0,0,0-.85-.2,1.9,1.9,0,0,0-.86.17,1,1,0,0,0-.48.41,1,1,0,0,0-.15.52.84.84,0,0,0,.07.37.81.81,0,0,0,.26.3,2.18,2.18,0,0,0,.53.26c.22.07.51.15.86.23a7.3,7.3,0,0,1,1.52.5,2.24,2.24,0,0,1,.89.71,1.81,1.81,0,0,1,.29,1,2,2,0,0,1-.2.9,2.08,2.08,0,0,1-.59.7,2.84,2.84,0,0,1-.92.46,4,4,0,0,1-1.19.16,3.65,3.65,0,0,1-1.67-.35,2.54,2.54,0,0,1-1-.92,2.12,2.12,0,0,1-.36-1.18h1.29a1.27,1.27,0,0,0,.31.83,1.41,1.41,0,0,0,.68.44,2.42,2.42,0,0,0,.79.13,2.56,2.56,0,0,0,.89-.14,1.17,1.17,0,0,0,.54-.38A.86.86,0,0,0,51,171.58Z"/><path class="cls-3" d="M53.91,164.08a.82.82,0,0,1,.19-.53.74.74,0,0,1,.57-.21.73.73,0,0,1,.56.21.78.78,0,0,1,.2.53.7.7,0,0,1-.76.72.74.74,0,0,1-.57-.21A.76.76,0,0,1,53.91,164.08Zm1.39,2v7.49H54v-7.49Z"/><path class="cls-3" d="M57,169.9v-.15a5.45,5.45,0,0,1,.21-1.56,3.71,3.71,0,0,1,.6-1.21,2.83,2.83,0,0,1,.94-.78,2.66,2.66,0,0,1,1.21-.27,2.83,2.83,0,0,1,1.24.25,2.47,2.47,0,0,1,.9.71,3.44,3.44,0,0,1,.58,1.13,6.25,6.25,0,0,1,.3,1.48v.64a6.81,6.81,0,0,1-.29,1.48,3.66,3.66,0,0,1-.59,1.13,2.53,2.53,0,0,1-.91.71,3,3,0,0,1-1.24.24,2.53,2.53,0,0,1-1.2-.28,2.77,2.77,0,0,1-.94-.8,3.71,3.71,0,0,1-.6-1.21A5.2,5.2,0,0,1,57,169.9Zm1.29-.15v.15a4.45,4.45,0,0,0,.11,1,2.84,2.84,0,0,0,.36.87,1.69,1.69,0,0,0,.61.58,1.81,1.81,0,0,0,.9.21,1.91,1.91,0,0,0,1-.27,2.05,2.05,0,0,0,.66-.71,4.82,4.82,0,0,0,.39-1V169a4.57,4.57,0,0,0-.24-.74,2.5,2.5,0,0,0-.41-.64,1.8,1.8,0,0,0-.6-.44,2,2,0,0,0-.84-.17,1.72,1.72,0,0,0-.9.22,1.75,1.75,0,0,0-.62.59,3,3,0,0,0-.36.88A4.45,4.45,0,0,0,58.33,169.75Zm3.75,2.36v-9.19h1.29v10.64H62.19Z"/><path class="cls-3" d="M70.18,170.25h.54a5.45,5.45,0,0,1-.16,1.38,3,3,0,0,1-.5,1.1,2.25,2.25,0,0,1-.91.72,3.11,3.11,0,0,1-1.36.26,2.87,2.87,0,0,1-1-.16,1.86,1.86,0,0,1-.78-.49,2.08,2.08,0,0,1-.5-.86,4.1,4.1,0,0,1-.18-1.29v-4.83h1.28v4.85a2.78,2.78,0,0,0,.11.83,1.21,1.21,0,0,0,.32.52,1.07,1.07,0,0,0,.44.27,1.7,1.7,0,0,0,.51.07,2.3,2.3,0,0,0,1.29-.31,1.75,1.75,0,0,0,.69-.85A3.29,3.29,0,0,0,70.18,170.25Zm-.24,1.58v-5.76h1.29v7.49H70Z"/><path class="cls-3" d="M72.84,169.9v-.16a4.92,4.92,0,0,1,.23-1.51,3.76,3.76,0,0,1,.68-1.21,3.17,3.17,0,0,1,1.08-.8,3.6,3.6,0,0,1,2.83,0,3,3,0,0,1,1.08.8,3.6,3.6,0,0,1,.69,1.21,4.92,4.92,0,0,1,.23,1.51v.16a4.81,4.81,0,0,1-.23,1.5,3.6,3.6,0,0,1-.69,1.21,2.93,2.93,0,0,1-1.07.8,3.62,3.62,0,0,1-2.84,0,2.93,2.93,0,0,1-1.07-.8,3.6,3.6,0,0,1-.69-1.21A4.81,4.81,0,0,1,72.84,169.9Zm1.28-.16v.16a4.05,4.05,0,0,0,.13,1.06,2.67,2.67,0,0,0,.4.87,1.83,1.83,0,0,0,.67.6,1.93,1.93,0,0,0,2.52-.6,2.67,2.67,0,0,0,.4-.87,4.05,4.05,0,0,0,.13-1.06v-.16a4,4,0,0,0-.13-1.05,3.08,3.08,0,0,0-.4-.88,1.86,1.86,0,0,0-1.6-.83,2,2,0,0,0-.93.22,2,2,0,0,0-.66.61,2.83,2.83,0,0,0-.4.88A4,4,0,0,0,74.12,169.74Z"/><path class="cls-3" d="M85.63,171.58a1.14,1.14,0,0,0-.12-.52,1.07,1.07,0,0,0-.49-.44,4.47,4.47,0,0,0-1.11-.34,9.13,9.13,0,0,1-1.13-.31,3.39,3.39,0,0,1-.85-.44,1.92,1.92,0,0,1-.54-.6,1.73,1.73,0,0,1-.18-.81,1.85,1.85,0,0,1,.19-.84,2.23,2.23,0,0,1,.57-.7,2.8,2.8,0,0,1,.87-.48,3.69,3.69,0,0,1,1.14-.17,3.41,3.41,0,0,1,1.54.32,2.34,2.34,0,0,1,1,.85,2.08,2.08,0,0,1,.34,1.17H85.56a1.09,1.09,0,0,0-.19-.61,1.46,1.46,0,0,0-.53-.48A1.74,1.74,0,0,0,84,167a1.93,1.93,0,0,0-.86.17,1,1,0,0,0-.48.41,1.07,1.07,0,0,0-.14.52.84.84,0,0,0,.07.37.72.72,0,0,0,.26.3,2.08,2.08,0,0,0,.52.26c.23.07.52.15.87.23a7.51,7.51,0,0,1,1.52.5,2.14,2.14,0,0,1,.88.71,1.74,1.74,0,0,1,.3,1,1.93,1.93,0,0,1-.21.9,2,2,0,0,1-.59.7,2.78,2.78,0,0,1-.91.46,4,4,0,0,1-1.19.16,3.73,3.73,0,0,1-1.68-.35,2.68,2.68,0,0,1-1-.92,2.2,2.2,0,0,1-.35-1.18h1.29a1.32,1.32,0,0,0,.3.83,1.51,1.51,0,0,0,.68.44,2.53,2.53,0,0,0,.8.13,2.5,2.5,0,0,0,.88-.14,1.26,1.26,0,0,0,.55-.38A.91.91,0,0,0,85.63,171.58Z"/><path class="cls-3" d="M15.16,181.83v-.07A10.13,10.13,0,0,1,15.5,179a9.29,9.29,0,0,1,.87-2.14,8.39,8.39,0,0,1,1.1-1.53,4.77,4.77,0,0,1,1.08-.87l.27.84a4.9,4.9,0,0,0-.83.86,6.31,6.31,0,0,0-.77,1.35,9,9,0,0,0-.56,1.85,11.34,11.34,0,0,0-.22,2.36v.1a11.38,11.38,0,0,0,.22,2.37,9.11,9.11,0,0,0,.56,1.86,6.49,6.49,0,0,0,.77,1.37,4.93,4.93,0,0,0,.83.9l-.27.77a4.51,4.51,0,0,1-1.08-.87,8.05,8.05,0,0,1-1.1-1.53,8.93,8.93,0,0,1-.87-2.14A10.13,10.13,0,0,1,15.16,181.83Z"/><path class="cls-3" d="M23.06,184.94a2,2,0,0,0,.85-.18,1.81,1.81,0,0,0,.64-.52,1.43,1.43,0,0,0,.28-.75h1.22a2.24,2.24,0,0,1-.45,1.24,3.1,3.1,0,0,1-1.07.92,3.16,3.16,0,0,1-1.47.35,3.38,3.38,0,0,1-1.47-.3,3,3,0,0,1-1-.82,3.44,3.44,0,0,1-.61-1.19,4.8,4.8,0,0,1-.21-1.43V182a4.76,4.76,0,0,1,.21-1.43,3.58,3.58,0,0,1,.61-1.2,3,3,0,0,1,1-.82,3.38,3.38,0,0,1,1.47-.29,3.15,3.15,0,0,1,1.54.35,2.7,2.7,0,0,1,1,1,2.83,2.83,0,0,1,.41,1.39H24.83a1.84,1.84,0,0,0-.26-.84,1.67,1.67,0,0,0-.61-.6,1.72,1.72,0,0,0-.9-.22,2,2,0,0,0-1,.23,1.63,1.63,0,0,0-.63.62,2.87,2.87,0,0,0-.34.87,5.23,5.23,0,0,0-.1,1v.29a5.32,5.32,0,0,0,.1,1,3,3,0,0,0,.33.86,1.63,1.63,0,0,0,.63.62A1.91,1.91,0,0,0,23.06,184.94Z"/><path class="cls-3" d="M27.15,182.19V182a4.55,4.55,0,0,1,.24-1.51,3.34,3.34,0,0,1,.68-1.21,3,3,0,0,1,1.07-.81,3.38,3.38,0,0,1,1.41-.28,3.48,3.48,0,0,1,1.43.28,3.07,3.07,0,0,1,1.08.81,3.49,3.49,0,0,1,.68,1.21A4.55,4.55,0,0,1,34,182v.15a4.6,4.6,0,0,1-.24,1.51,3.68,3.68,0,0,1-.68,1.21,3.17,3.17,0,0,1-1.08.8,3.35,3.35,0,0,1-1.41.29,3.4,3.4,0,0,1-1.42-.29,3.17,3.17,0,0,1-1.08-.8,3.51,3.51,0,0,1-.68-1.21A4.6,4.6,0,0,1,27.15,182.19Zm1.28-.15v.15a4.46,4.46,0,0,0,.13,1.06,3.08,3.08,0,0,0,.4.88,2,2,0,0,0,.67.6,2,2,0,0,0,.94.21,1.81,1.81,0,0,0,1.58-.81,2.83,2.83,0,0,0,.4-.88,4,4,0,0,0,.14-1.06V182a4,4,0,0,0-.14-1,2.73,2.73,0,0,0-.4-.88,2,2,0,0,0-.67-.61,2.05,2.05,0,0,0-1.85,0,2,2,0,0,0-.67.61,3,3,0,0,0-.4.88A4.44,4.44,0,0,0,28.43,182Zm1.36-4.78,1.35-2h1.54l-1.86,2Z"/><path class="cls-3" d="M35.26,182.19v-.14a5.11,5.11,0,0,1,.22-1.56,3.61,3.61,0,0,1,.6-1.21,2.66,2.66,0,0,1,.93-.78,2.73,2.73,0,0,1,1.22-.27,3,3,0,0,1,1.24.24,2.58,2.58,0,0,1,.9.71,3.76,3.76,0,0,1,.58,1.13,7.69,7.69,0,0,1,.3,1.49v.64a6.93,6.93,0,0,1-.29,1.48,3.83,3.83,0,0,1-.59,1.12,2.42,2.42,0,0,1-.91.71,2.83,2.83,0,0,1-1.24.25,2.6,2.6,0,0,1-1.21-.29,2.8,2.8,0,0,1-.93-.79,3.81,3.81,0,0,1-.6-1.21A4.94,4.94,0,0,1,35.26,182.19Zm1.29-.14v.14a4.47,4.47,0,0,0,.12,1.06,2.55,2.55,0,0,0,.35.86,1.75,1.75,0,0,0,.62.59,1.8,1.8,0,0,0,.89.21,1.86,1.86,0,0,0,1-.27,2.07,2.07,0,0,0,.67-.71,4.35,4.35,0,0,0,.38-1v-1.67a3.12,3.12,0,0,0-.24-.73,2.23,2.23,0,0,0-.4-.64,1.69,1.69,0,0,0-.6-.45,2,2,0,0,0-.84-.16,1.68,1.68,0,0,0-1.53.81,2.6,2.6,0,0,0-.35.87A4.53,4.53,0,0,0,36.55,182.05Zm3.76,2.35v-9.18H41.6v10.64H40.42Z"/><path class="cls-3" d="M43.59,176.38a.71.71,0,0,1,.76-.75.74.74,0,0,1,.56.22.76.76,0,0,1,.2.53.72.72,0,0,1-.2.5.7.7,0,0,1-.56.22.7.7,0,0,1-.76-.72Zm1.39,2v7.5H43.69v-7.5Z"/><path class="cls-3" d="M46.73,182.19v-.14a5.84,5.84,0,0,1,.2-1.56,3.79,3.79,0,0,1,.59-1.21,2.66,2.66,0,0,1,.93-.78,2.79,2.79,0,0,1,1.24-.27,2.93,2.93,0,0,1,1.23.24,2.41,2.41,0,0,1,.9.71,3.56,3.56,0,0,1,.59,1.13,7.69,7.69,0,0,1,.3,1.49v.64a6.35,6.35,0,0,1-.3,1.48,3.41,3.41,0,0,1-.59,1.12,2.32,2.32,0,0,1-.9.71,2.88,2.88,0,0,1-1.25.25,2.55,2.55,0,0,1-1.21-.29,2.62,2.62,0,0,1-.93-.79,3.81,3.81,0,0,1-.6-1.21A5.64,5.64,0,0,1,46.73,182.19Zm5.16-3.83h1.16v7.34a3.33,3.33,0,0,1-.4,1.69,2.6,2.6,0,0,1-1.12,1.06,3.52,3.52,0,0,1-1.65.37,4.14,4.14,0,0,1-.91-.12,4.26,4.26,0,0,1-1-.41,2.68,2.68,0,0,1-.84-.77l.67-.77a2.69,2.69,0,0,0,1,.79,2.57,2.57,0,0,0,1,.22,2.33,2.33,0,0,0,1.06-.22,1.74,1.74,0,0,0,.69-.68,2.29,2.29,0,0,0,.24-1.1V180ZM48,182.05v.14a4.47,4.47,0,0,0,.12,1.06,2.55,2.55,0,0,0,.35.86,1.72,1.72,0,0,0,.61.59,1.8,1.8,0,0,0,.89.21,1.92,1.92,0,0,0,1.06-.27,2,2,0,0,0,.66-.71,4.35,4.35,0,0,0,.38-1v-1.67a3.1,3.1,0,0,0-.23-.73,2.47,2.47,0,0,0-.4-.64,1.73,1.73,0,0,0-.61-.45,2,2,0,0,0-.84-.16,1.88,1.88,0,0,0-.91.21,1.84,1.84,0,0,0-.61.6,2.6,2.6,0,0,0-.35.87A4.53,4.53,0,0,0,48,182.05Z"/><path class="cls-3" d="M54.66,182.19V182a4.55,4.55,0,0,1,.24-1.51,3.34,3.34,0,0,1,.68-1.21,3,3,0,0,1,1.07-.81,3.38,3.38,0,0,1,1.41-.28,3.48,3.48,0,0,1,1.43.28,3.07,3.07,0,0,1,1.08.81,3.66,3.66,0,0,1,.68,1.21,4.56,4.56,0,0,1,.23,1.51v.15a4.6,4.6,0,0,1-.23,1.51,3.87,3.87,0,0,1-.68,1.21,3.17,3.17,0,0,1-1.08.8,3.6,3.6,0,0,1-2.83,0,3.17,3.17,0,0,1-1.08-.8,3.51,3.51,0,0,1-.68-1.21A4.6,4.6,0,0,1,54.66,182.19Zm1.28-.15v.15a4.46,4.46,0,0,0,.13,1.06,2.83,2.83,0,0,0,.4.88,2,2,0,0,0,.67.6,2,2,0,0,0,.94.21,1.81,1.81,0,0,0,1.58-.81,2.83,2.83,0,0,0,.4-.88,4,4,0,0,0,.14-1.06V182a4,4,0,0,0-.14-1,2.73,2.73,0,0,0-.4-.88,2,2,0,0,0-.67-.61,2.05,2.05,0,0,0-1.85,0,2,2,0,0,0-.67.61,2.73,2.73,0,0,0-.4.88A4.44,4.44,0,0,0,55.94,182Z"/><path class="cls-3" d="M69.61,184.94a2,2,0,0,0,.85-.18,1.78,1.78,0,0,0,.63-.52,1.44,1.44,0,0,0,.29-.75H72.6a2.4,2.4,0,0,1-.45,1.24,3.23,3.23,0,0,1-1.08.92,3.12,3.12,0,0,1-1.46.35,3.38,3.38,0,0,1-1.47-.3,2.81,2.81,0,0,1-1-.82,3.46,3.46,0,0,1-.62-1.19,5.15,5.15,0,0,1-.2-1.43V182a5.09,5.09,0,0,1,.2-1.43,3.6,3.6,0,0,1,.62-1.2,2.81,2.81,0,0,1,1-.82,3.38,3.38,0,0,1,1.47-.29,3.15,3.15,0,0,1,1.54.35,2.67,2.67,0,0,1,1,1,2.84,2.84,0,0,1,.42,1.39H71.38a2,2,0,0,0-.26-.84,1.68,1.68,0,0,0-1.51-.82,2,2,0,0,0-1,.23,1.78,1.78,0,0,0-.63.62,3.14,3.14,0,0,0-.33.87,4.5,4.5,0,0,0-.1,1v.29a4.57,4.57,0,0,0,.1,1,2.48,2.48,0,0,0,.33.86,1.63,1.63,0,0,0,.63.62A1.86,1.86,0,0,0,69.61,184.94Z"/><path class="cls-3" d="M73.7,182.19V182a4.83,4.83,0,0,1,.23-1.51,3.66,3.66,0,0,1,.68-1.21,3,3,0,0,1,1.08-.81,3.72,3.72,0,0,1,2.83,0,3.07,3.07,0,0,1,1.08.81,3.51,3.51,0,0,1,.69,1.21,4.83,4.83,0,0,1,.23,1.51v.15a4.88,4.88,0,0,1-.23,1.51,3.7,3.7,0,0,1-.69,1.21,3.13,3.13,0,0,1-1.07.8,3.62,3.62,0,0,1-2.84,0,3,3,0,0,1-1.07-.8,3.7,3.7,0,0,1-.69-1.21A4.88,4.88,0,0,1,73.7,182.19ZM75,182v.15a4,4,0,0,0,.13,1.06,2.83,2.83,0,0,0,.4.88,2,2,0,0,0,.67.6,2.16,2.16,0,0,0,1.86,0,2.1,2.1,0,0,0,.66-.6,3.08,3.08,0,0,0,.4-.88,4,4,0,0,0,.13-1.06V182a4,4,0,0,0-.13-1,3,3,0,0,0-.4-.88,2,2,0,0,0-.67-.61,2.08,2.08,0,0,0-1.86,0,2,2,0,0,0-.66.61,2.73,2.73,0,0,0-.4.88A4,4,0,0,0,75,182Z"/><path class="cls-3" d="M83.52,175.22v10.64H82.23V175.22Z"/><path class="cls-3" d="M85.24,182.19V182a4.83,4.83,0,0,1,.23-1.51,3.66,3.66,0,0,1,.68-1.21,3.07,3.07,0,0,1,1.08-.81,3.72,3.72,0,0,1,2.83,0,2.91,2.91,0,0,1,1.08.81,3.51,3.51,0,0,1,.69,1.21,4.83,4.83,0,0,1,.23,1.51v.15a4.88,4.88,0,0,1-.23,1.51,3.7,3.7,0,0,1-.69,1.21,3,3,0,0,1-1.07.8,3.62,3.62,0,0,1-2.84,0,3,3,0,0,1-1.07-.8,3.7,3.7,0,0,1-.69-1.21A4.88,4.88,0,0,1,85.24,182.19Zm1.28-.15v.15a4,4,0,0,0,.13,1.06,2.83,2.83,0,0,0,.4.88,2,2,0,0,0,.67.6,2.16,2.16,0,0,0,1.86,0,2.1,2.1,0,0,0,.66-.6,2.83,2.83,0,0,0,.4-.88,4,4,0,0,0,.13-1.06V182a4,4,0,0,0-.13-1,3,3,0,0,0-.4-.88,2,2,0,0,0-.67-.61,2.05,2.05,0,0,0-1.85,0,2,2,0,0,0-.67.61,2.73,2.73,0,0,0-.4.88A4,4,0,0,0,86.52,182Z"/><path class="cls-3" d="M95,179.54v6.32H93.67v-7.5h1.25Zm2.34-1.22v1.19l-.31,0h-.32a1.94,1.94,0,0,0-.78.14,1.67,1.67,0,0,0-.58.38,2,2,0,0,0-.37.6,2.57,2.57,0,0,0-.17.75l-.36.21a5.78,5.78,0,0,1,.13-1.28,3.3,3.3,0,0,1,.42-1,2.13,2.13,0,0,1,.73-.73,2,2,0,0,1,1-.25l.32,0A1.12,1.12,0,0,1,97.29,178.32Z"/><path class="cls-3" d="M101.43,181.76v.07a10.54,10.54,0,0,1-.34,2.74,9.36,9.36,0,0,1-.87,2.14,7.65,7.65,0,0,1-1.11,1.53,4.3,4.3,0,0,1-1.07.87l-.27-.77a4.34,4.34,0,0,0,.82-.87,6.49,6.49,0,0,0,.77-1.37,8.87,8.87,0,0,0,.57-1.88,12.28,12.28,0,0,0,.22-2.38v-.1a11.58,11.58,0,0,0-.23-2.38,10.3,10.3,0,0,0-.59-1.87,8.15,8.15,0,0,0-.78-1.37,5.28,5.28,0,0,0-.78-.86l.27-.78a4.54,4.54,0,0,1,1.07.87,8,8,0,0,1,1.11,1.53,9.75,9.75,0,0,1,.87,2.14A10.54,10.54,0,0,1,101.43,181.76Z"/><path class="cls-3" d="M169.37,151.18v10.09H168V151.18Zm5,0v1.1h-5.28v-1.1Zm-.64,4.34v1.09h-4.64v-1.09Zm.71,4.66v1.09h-5.35v-1.09Z"/><path class="cls-3" d="M175.93,153.77h1.29v8.39a2.75,2.75,0,0,1-.22,1.17,1.52,1.52,0,0,1-.65.72,2.22,2.22,0,0,1-1.09.25,3.51,3.51,0,0,1-.41,0,3,3,0,0,1-.39-.08v-1l.3,0,.29,0a1,1,0,0,0,.48-.11.67.67,0,0,0,.29-.33,1.46,1.46,0,0,0,.1-.61Zm-.13-2a.79.79,0,0,1,.19-.52.71.71,0,0,1,.57-.22.7.7,0,0,1,.56.22.75.75,0,0,1,.2.52.7.7,0,0,1-.76.72.74.74,0,0,1-.57-.21A.76.76,0,0,1,175.8,151.78Z"/><path class="cls-3" d="M182.4,161.41a3.55,3.55,0,0,1-1.41-.27,3.12,3.12,0,0,1-1.09-.75,3.45,3.45,0,0,1-.7-1.15,4.3,4.3,0,0,1-.24-1.46v-.29a4.6,4.6,0,0,1,.27-1.63,3.56,3.56,0,0,1,.73-1.21,3.12,3.12,0,0,1,2.28-1,3.35,3.35,0,0,1,1.39.28,2.6,2.6,0,0,1,1,.77,3.52,3.52,0,0,1,.55,1.17,5.56,5.56,0,0,1,.18,1.46v.57h-5.6v-1H184v-.09a3.17,3.17,0,0,0-.21-1,1.69,1.69,0,0,0-.55-.78,1.65,1.65,0,0,0-1-.3,1.85,1.85,0,0,0-.81.18,1.79,1.79,0,0,0-.63.54,3,3,0,0,0-.41.88,4.82,4.82,0,0,0-.14,1.2v.29a3.22,3.22,0,0,0,.15,1,2.52,2.52,0,0,0,.43.83,2.09,2.09,0,0,0,.7.55,2.41,2.41,0,0,0,2.09-.08,2.77,2.77,0,0,0,.83-.74l.77.62a3.92,3.92,0,0,1-.61.7,3.06,3.06,0,0,1-.92.54A3.56,3.56,0,0,1,182.4,161.41Z"/><path class="cls-3" d="M189.81,160.35a2,2,0,0,0,.85-.18,1.81,1.81,0,0,0,.64-.52,1.43,1.43,0,0,0,.28-.75h1.22a2.27,2.27,0,0,1-.45,1.24,3.1,3.1,0,0,1-1.07.92,3.16,3.16,0,0,1-1.47.35,3.38,3.38,0,0,1-1.47-.3,3,3,0,0,1-1-.82,3.53,3.53,0,0,1-.61-1.19,4.8,4.8,0,0,1-.21-1.43v-.3a4.8,4.8,0,0,1,.21-1.43,3.53,3.53,0,0,1,.61-1.19,3,3,0,0,1,1-.82,3.38,3.38,0,0,1,1.47-.3,3.16,3.16,0,0,1,1.54.36,2.7,2.7,0,0,1,1,1,2.83,2.83,0,0,1,.41,1.39h-1.22a1.84,1.84,0,0,0-.26-.84,1.67,1.67,0,0,0-.61-.6,1.72,1.72,0,0,0-.9-.22,1.85,1.85,0,0,0-1,.23,1.63,1.63,0,0,0-.63.62,2.77,2.77,0,0,0-.34.87,5.21,5.21,0,0,0-.1,1v.3a5.32,5.32,0,0,0,.1,1,3.07,3.07,0,0,0,.33.86,1.63,1.63,0,0,0,.63.62A1.91,1.91,0,0,0,189.81,160.35Z"/><path class="cls-3" d="M199.07,158l.53,0a6,6,0,0,1-.15,1.38,3.09,3.09,0,0,1-.5,1.1,2.52,2.52,0,0,1-.91.73,3.31,3.31,0,0,1-1.37.26,3.18,3.18,0,0,1-1-.16,2.11,2.11,0,0,1-.78-.49,2.46,2.46,0,0,1-.5-.87,4,4,0,0,1-.18-1.28v-4.84h1.29v4.85a2.52,2.52,0,0,0,.11.84,1.38,1.38,0,0,0,.31.52,1.17,1.17,0,0,0,.44.26,1.81,1.81,0,0,0,.51.08,2.34,2.34,0,0,0,1.3-.32,1.75,1.75,0,0,0,.69-.85A3.23,3.23,0,0,0,199.07,158Zm-.24,1.58v-5.77h1.29v7.5h-1.23Z"/><path class="cls-3" d="M205.06,160.35a2,2,0,0,0,.85-.18,1.81,1.81,0,0,0,.64-.52,1.43,1.43,0,0,0,.28-.75h1.22a2.35,2.35,0,0,1-.45,1.24,3,3,0,0,1-1.08.92,3.12,3.12,0,0,1-1.46.35,3.38,3.38,0,0,1-1.47-.3,2.9,2.9,0,0,1-1-.82,3.75,3.75,0,0,1-.62-1.19,5.15,5.15,0,0,1-.2-1.43v-.3a5.15,5.15,0,0,1,.2-1.43,3.75,3.75,0,0,1,.62-1.19,2.9,2.9,0,0,1,1-.82,3.38,3.38,0,0,1,1.47-.3,3.16,3.16,0,0,1,1.54.36,2.77,2.77,0,0,1,1,1,2.94,2.94,0,0,1,.41,1.39h-1.22a1.84,1.84,0,0,0-.26-.84,1.67,1.67,0,0,0-.61-.6,1.77,1.77,0,0,0-.9-.22,1.85,1.85,0,0,0-1,.23,1.73,1.73,0,0,0-.64.62,3,3,0,0,0-.33.87,5.21,5.21,0,0,0-.1,1v.3a4.57,4.57,0,0,0,.1,1,2.56,2.56,0,0,0,.33.86,1.63,1.63,0,0,0,.63.62A1.89,1.89,0,0,0,205.06,160.35Z"/><path class="cls-3" d="M209.5,151.78a.74.74,0,0,1,.19-.52.68.68,0,0,1,.56-.22.72.72,0,0,1,.57.22.74.74,0,0,1,.19.52.72.72,0,0,1-.19.51.75.75,0,0,1-.57.21.7.7,0,0,1-.56-.21A.72.72,0,0,1,209.5,151.78Zm1.38,2v7.5h-1.29v-7.5Z"/><path class="cls-3" d="M212.6,157.6v-.16a4.54,4.54,0,0,1,.24-1.5,3.47,3.47,0,0,1,.67-1.21,3.08,3.08,0,0,1,1.08-.81,3.6,3.6,0,0,1,2.83,0,3,3,0,0,1,1.09.81,3.66,3.66,0,0,1,.68,1.21,4.81,4.81,0,0,1,.23,1.5v.16a4.88,4.88,0,0,1-.23,1.51,3.71,3.71,0,0,1-.68,1.2,3.07,3.07,0,0,1-1.08.81,3.62,3.62,0,0,1-2.84,0,3,3,0,0,1-1.07-.81,3.38,3.38,0,0,1-.68-1.2A4.6,4.6,0,0,1,212.6,157.6Zm1.28-.16v.16a4.46,4.46,0,0,0,.13,1.06,2.83,2.83,0,0,0,.4.88,2,2,0,0,0,.67.6,2,2,0,0,0,.93.21,2,2,0,0,0,.93-.21,2,2,0,0,0,.66-.6,2.83,2.83,0,0,0,.4-.88,4,4,0,0,0,.13-1.06v-.16a4,4,0,0,0-.13-1.05,3.08,3.08,0,0,0-.4-.88,2,2,0,0,0-.67-.6,2.05,2.05,0,0,0-1.85,0,2,2,0,0,0-.67.6,2.83,2.83,0,0,0-.4.88A4.51,4.51,0,0,0,213.88,157.44Zm1.36-4.78,1.34-2h1.55l-1.86,2Z"/><path class="cls-3" d="M222.31,155.37v5.9H221v-7.5h1.21Zm-.3,1.87-.54,0a4.66,4.66,0,0,1,.23-1.43,3.71,3.71,0,0,1,.63-1.14,2.78,2.78,0,0,1,.95-.75,2.85,2.85,0,0,1,1.24-.27,3.13,3.13,0,0,1,1,.15,1.9,1.9,0,0,1,.76.48,2.09,2.09,0,0,1,.48.84,4.13,4.13,0,0,1,.17,1.26v4.91h-1.29v-4.93a2.07,2.07,0,0,0-.18-.94,1.06,1.06,0,0,0-.5-.52,1.84,1.84,0,0,0-.82-.17,1.81,1.81,0,0,0-.87.21,2,2,0,0,0-.67.55,2.75,2.75,0,0,0-.44.81A3,3,0,0,0,222,157.24Z"/><path class="cls-3" d="M163.64,169.9v-.15a5.45,5.45,0,0,1,.21-1.56,3.71,3.71,0,0,1,.6-1.21,2.83,2.83,0,0,1,.94-.78,2.66,2.66,0,0,1,1.21-.27,2.86,2.86,0,0,1,1.24.25,2.47,2.47,0,0,1,.9.71,3.44,3.44,0,0,1,.58,1.13,6.25,6.25,0,0,1,.3,1.48v.64a6.81,6.81,0,0,1-.29,1.48,3.66,3.66,0,0,1-.59,1.13,2.53,2.53,0,0,1-.91.71,3,3,0,0,1-1.24.24,2.53,2.53,0,0,1-1.2-.28,2.77,2.77,0,0,1-.94-.8,3.71,3.71,0,0,1-.6-1.21A5.2,5.2,0,0,1,163.64,169.9Zm1.29-.15v.15a4.45,4.45,0,0,0,.11,1,2.62,2.62,0,0,0,.36.87,1.69,1.69,0,0,0,.61.58,1.81,1.81,0,0,0,.9.21,1.91,1.91,0,0,0,1.05-.27,2.05,2.05,0,0,0,.66-.71,4.82,4.82,0,0,0,.39-1V169a4.57,4.57,0,0,0-.24-.74,2.5,2.5,0,0,0-.41-.64,1.8,1.8,0,0,0-.6-.44,2,2,0,0,0-.84-.17,1.72,1.72,0,0,0-.9.22,1.67,1.67,0,0,0-.62.59,2.76,2.76,0,0,0-.36.88A4.45,4.45,0,0,0,164.93,169.75Zm3.75,2.36v-9.19H170v10.64h-1.18Z"/><path class="cls-3" d="M175.07,173.7a3.74,3.74,0,0,1-1.42-.26,3.11,3.11,0,0,1-1.09-.76,3.24,3.24,0,0,1-.69-1.15,4,4,0,0,1-.25-1.45v-.29a4.6,4.6,0,0,1,.27-1.63,3.62,3.62,0,0,1,.74-1.22,3.17,3.17,0,0,1,1.05-.75,3,3,0,0,1,1.22-.26,3.13,3.13,0,0,1,1.39.28,2.51,2.51,0,0,1,1,.77,3.37,3.37,0,0,1,.55,1.16,5.61,5.61,0,0,1,.18,1.46v.58h-5.59v-1.05h4.31V169a3.64,3.64,0,0,0-.2-1,1.81,1.81,0,0,0-.56-.77,1.59,1.59,0,0,0-1-.31,1.66,1.66,0,0,0-.8.19,1.63,1.63,0,0,0-.63.54,2.47,2.47,0,0,0-.41.88,4.38,4.38,0,0,0-.15,1.2v.29a3.22,3.22,0,0,0,.15,1,2.49,2.49,0,0,0,.44.82,2,2,0,0,0,.7.56,2.13,2.13,0,0,0,.94.2,2.3,2.3,0,0,0,1.15-.28,3,3,0,0,0,.82-.74l.78.61a3.67,3.67,0,0,1-.62.7,2.7,2.7,0,0,1-.92.54A3.54,3.54,0,0,1,175.07,173.7Z"/><path class="cls-3" d="M184.28,167.51v8.94H183V166.07h1.18Zm5.05,2.24v.15a6,6,0,0,1-.19,1.51,3.66,3.66,0,0,1-.57,1.21,2.68,2.68,0,0,1-.91.8,2.61,2.61,0,0,1-1.24.28,3.26,3.26,0,0,1-1.26-.23,2.63,2.63,0,0,1-.93-.69,3.52,3.52,0,0,1-.6-1.08,5.39,5.39,0,0,1-.31-1.42v-.78a6.23,6.23,0,0,1,.31-1.48,3.68,3.68,0,0,1,.6-1.13,2.54,2.54,0,0,1,.92-.71,2.91,2.91,0,0,1,1.25-.25,2.77,2.77,0,0,1,1.25.27,2.58,2.58,0,0,1,.92.78,3.66,3.66,0,0,1,.57,1.21A5.85,5.85,0,0,1,189.33,169.75Zm-1.29.15v-.15a4.44,4.44,0,0,0-.12-1.05,3,3,0,0,0-.36-.88,1.7,1.7,0,0,0-.63-.59,1.72,1.72,0,0,0-.9-.22,2,2,0,0,0-.85.17,1.9,1.9,0,0,0-.6.44,2.5,2.5,0,0,0-.41.64,3.74,3.74,0,0,0-.23.74v1.79a3.52,3.52,0,0,0,.39.91,1.9,1.9,0,0,0,.66.69,2,2,0,0,0,1,.26,1.74,1.74,0,0,0,.9-.22,1.69,1.69,0,0,0,.62-.6,2.84,2.84,0,0,0,.36-.87A4.53,4.53,0,0,0,188,169.9Z"/><path class="cls-3" d="M195.61,169v.9h-1.3a4.71,4.71,0,0,0-1,.09,2,2,0,0,0-.72.26,1.24,1.24,0,0,0-.45.43,1.17,1.17,0,0,0-.15.61,1.38,1.38,0,0,0,.16.64,1.18,1.18,0,0,0,.48.46,1.75,1.75,0,0,0,.8.17,2.11,2.11,0,0,0,1-.25,2.36,2.36,0,0,0,.71-.61,1.27,1.27,0,0,0,.29-.7l.55.62a1.88,1.88,0,0,1-.27.64,2.94,2.94,0,0,1-.57.68,3.24,3.24,0,0,1-.84.53,3,3,0,0,1-2.43-.09,2.1,2.1,0,0,1-.89-.8,2.06,2.06,0,0,1-.32-1.12,2.24,2.24,0,0,1,.24-1.06,2,2,0,0,1,.68-.77,3,3,0,0,1,1.06-.47,5.5,5.5,0,0,1,1.4-.16Zm-.22,3.26v-3.86a1.59,1.59,0,0,0-.18-.77,1.24,1.24,0,0,0-.53-.51,1.94,1.94,0,0,0-.88-.18,2,2,0,0,0-.84.17,1.35,1.35,0,0,0-.57.43,1,1,0,0,0-.21.59H190.9a1.68,1.68,0,0,1,.21-.8,2.5,2.5,0,0,1,.6-.72,3.12,3.12,0,0,1,.94-.51,3.69,3.69,0,0,1,1.23-.19,3.47,3.47,0,0,1,1.45.28,2.2,2.2,0,0,1,1,.83,2.53,2.53,0,0,1,.36,1.4v3.49a5.81,5.81,0,0,0,.06.8,3.1,3.1,0,0,0,.2.72v.11h-1.34a2.62,2.62,0,0,1-.15-.59A4.31,4.31,0,0,1,195.39,172.28Z"/><path class="cls-3" d="M203.51,170.25H204a6,6,0,0,1-.15,1.38,3.17,3.17,0,0,1-.5,1.1,2.39,2.39,0,0,1-.91.72,3.16,3.16,0,0,1-1.37.26,2.91,2.91,0,0,1-1-.16,2,2,0,0,1-.78-.49,2.33,2.33,0,0,1-.5-.86,4.1,4.1,0,0,1-.18-1.29v-4.83h1.29v4.85a2.49,2.49,0,0,0,.11.83,1.31,1.31,0,0,0,.31.52,1.07,1.07,0,0,0,.44.27,1.79,1.79,0,0,0,.51.07,2.34,2.34,0,0,0,1.3-.31,1.75,1.75,0,0,0,.69-.85A3.29,3.29,0,0,0,203.51,170.25Zm-.24,1.58v-5.76h1.29v7.49h-1.23Z"/><path class="cls-3" d="M210.87,171.58a1.14,1.14,0,0,0-.12-.52,1.11,1.11,0,0,0-.5-.44,4.2,4.2,0,0,0-1.11-.34A9,9,0,0,1,208,170a3.46,3.46,0,0,1-.86-.44,1.77,1.77,0,0,1-.53-.6,1.62,1.62,0,0,1-.19-.81,1.86,1.86,0,0,1,.2-.84,2.19,2.19,0,0,1,.56-.7,2.74,2.74,0,0,1,.88-.48,3.69,3.69,0,0,1,1.14-.17,3.47,3.47,0,0,1,1.54.32,2.31,2.31,0,0,1,1,.85,2.08,2.08,0,0,1,.34,1.17h-1.28a1.16,1.16,0,0,0-.18-.61,1.42,1.42,0,0,0-.54-.48,1.7,1.7,0,0,0-.85-.2,1.9,1.9,0,0,0-.86.17,1,1,0,0,0-.48.41,1,1,0,0,0-.15.52.84.84,0,0,0,.07.37.81.81,0,0,0,.26.3,2.18,2.18,0,0,0,.53.26c.22.07.51.15.86.23a7.3,7.3,0,0,1,1.52.5,2.24,2.24,0,0,1,.89.71,1.81,1.81,0,0,1,.29,1,1.93,1.93,0,0,1-.21.9,2,2,0,0,1-.58.7,2.84,2.84,0,0,1-.92.46,4,4,0,0,1-1.19.16,3.65,3.65,0,0,1-1.67-.35,2.54,2.54,0,0,1-1-.92,2.12,2.12,0,0,1-.36-1.18h1.29a1.27,1.27,0,0,0,.31.83,1.41,1.41,0,0,0,.68.44,2.42,2.42,0,0,0,.79.13,2.56,2.56,0,0,0,.89-.14,1.22,1.22,0,0,0,.54-.38A.92.92,0,0,0,210.87,171.58Z"/><path class="cls-3" d="M218.47,169v.9h-1.3a4.71,4.71,0,0,0-1,.09,2,2,0,0,0-.72.26,1.24,1.24,0,0,0-.45.43,1.17,1.17,0,0,0-.15.61,1.38,1.38,0,0,0,.16.64,1.18,1.18,0,0,0,.48.46,1.75,1.75,0,0,0,.8.17,2.11,2.11,0,0,0,1-.25,2.25,2.25,0,0,0,.71-.61,1.27,1.27,0,0,0,.29-.7l.55.62a1.7,1.7,0,0,1-.27.64,2.94,2.94,0,0,1-.57.68,3.24,3.24,0,0,1-.84.53,2.77,2.77,0,0,1-1.1.21,2.81,2.81,0,0,1-1.33-.3,2.16,2.16,0,0,1-.89-.8,2.06,2.06,0,0,1-.32-1.12,2.24,2.24,0,0,1,.24-1.06,2,2,0,0,1,.68-.77,3,3,0,0,1,1.07-.47A5.42,5.42,0,0,1,217,169Zm-.22,3.26v-3.86a1.59,1.59,0,0,0-.18-.77,1.24,1.24,0,0,0-.53-.51,1.93,1.93,0,0,0-.87-.18,2,2,0,0,0-.85.17,1.41,1.41,0,0,0-.57.43,1,1,0,0,0-.21.59h-1.28a1.68,1.68,0,0,1,.21-.8,2.5,2.5,0,0,1,.6-.72,3.12,3.12,0,0,1,.94-.51,3.69,3.69,0,0,1,1.23-.19,3.47,3.47,0,0,1,1.45.28,2.2,2.2,0,0,1,1,.83,2.53,2.53,0,0,1,.36,1.4v3.49a5.81,5.81,0,0,0,.06.8,3.1,3.1,0,0,0,.2.72v.11h-1.34a2.62,2.62,0,0,1-.15-.59A4.31,4.31,0,0,1,218.25,172.28Z"/><path class="cls-3" d="M225.91,171.58a1.14,1.14,0,0,0-.12-.52,1.11,1.11,0,0,0-.5-.44,4.2,4.2,0,0,0-1.11-.34,9,9,0,0,1-1.12-.31,3.46,3.46,0,0,1-.86-.44,1.77,1.77,0,0,1-.53-.6,1.62,1.62,0,0,1-.19-.81,1.86,1.86,0,0,1,.2-.84,2.19,2.19,0,0,1,.56-.7,2.74,2.74,0,0,1,.88-.48,3.69,3.69,0,0,1,1.14-.17,3.47,3.47,0,0,1,1.54.32,2.31,2.31,0,0,1,1,.85,2.08,2.08,0,0,1,.34,1.17h-1.28a1.16,1.16,0,0,0-.18-.61,1.49,1.49,0,0,0-.54-.48,1.72,1.72,0,0,0-.85-.2,1.9,1.9,0,0,0-.86.17,1,1,0,0,0-.48.41,1,1,0,0,0-.15.52.84.84,0,0,0,.07.37.81.81,0,0,0,.26.3,2.18,2.18,0,0,0,.53.26c.22.07.51.15.86.23a7.3,7.3,0,0,1,1.52.5,2.24,2.24,0,0,1,.89.71,1.81,1.81,0,0,1,.29,1,1.93,1.93,0,0,1-.21.9,2,2,0,0,1-.58.7,2.94,2.94,0,0,1-.92.46,4,4,0,0,1-1.19.16,3.65,3.65,0,0,1-1.67-.35,2.54,2.54,0,0,1-1-.92,2.12,2.12,0,0,1-.36-1.18h1.29a1.27,1.27,0,0,0,.31.83,1.41,1.41,0,0,0,.68.44,2.42,2.42,0,0,0,.79.13,2.56,2.56,0,0,0,.89-.14,1.28,1.28,0,0,0,.54-.38A.92.92,0,0,0,225.91,171.58Z"/><path class="cls-3" d="M188.36,181.31v.91h-1.29a4.86,4.86,0,0,0-1,.08,2.64,2.64,0,0,0-.72.26,1.3,1.3,0,0,0-.44.43,1.23,1.23,0,0,0-.15.61,1.24,1.24,0,0,0,.16.64,1.09,1.09,0,0,0,.48.47,1.71,1.71,0,0,0,.79.17,2.19,2.19,0,0,0,1-.25A2.29,2.29,0,0,0,188,184a1.36,1.36,0,0,0,.28-.7l.55.61a1.88,1.88,0,0,1-.26.65,3.5,3.5,0,0,1-.57.67,2.94,2.94,0,0,1-.85.54,2.77,2.77,0,0,1-1.1.21,2.81,2.81,0,0,1-1.33-.3,2.31,2.31,0,0,1-.89-.8,2.09,2.09,0,0,1-.31-1.13,2.39,2.39,0,0,1,.23-1.06,2.18,2.18,0,0,1,.68-.77,3.5,3.5,0,0,1,1.07-.47,5.9,5.9,0,0,1,1.39-.16Zm-.22,3.27v-3.86A1.57,1.57,0,0,0,188,180a1.19,1.19,0,0,0-.53-.51,1.87,1.87,0,0,0-.87-.18,2,2,0,0,0-.85.16,1.5,1.5,0,0,0-.57.44,1,1,0,0,0-.2.58h-1.28a1.75,1.75,0,0,1,.2-.79,2.27,2.27,0,0,1,.6-.72,2.79,2.79,0,0,1,.95-.51,4,4,0,0,1,2.67.08,2.18,2.18,0,0,1,1,.84,2.5,2.5,0,0,1,.36,1.39v3.49a4.56,4.56,0,0,0,.07.8,3.22,3.22,0,0,0,.19.73v.11h-1.33a2.36,2.36,0,0,1-.16-.59A5.89,5.89,0,0,1,188.14,184.58Z"/><path class="cls-3" d="M194.44,184.94a2,2,0,0,0,.84-.18,1.81,1.81,0,0,0,.64-.52,1.43,1.43,0,0,0,.28-.75h1.22a2.24,2.24,0,0,1-.45,1.24,3.1,3.1,0,0,1-1.07.92,3.15,3.15,0,0,1-1.46.35,3.4,3.4,0,0,1-1.48-.3,2.86,2.86,0,0,1-1-.82,3.3,3.3,0,0,1-.62-1.19,4.8,4.8,0,0,1-.21-1.43V182a4.76,4.76,0,0,1,.21-1.43,3.43,3.43,0,0,1,.62-1.2,2.86,2.86,0,0,1,1-.82,3.4,3.4,0,0,1,1.48-.29,3.14,3.14,0,0,1,1.53.35,2.7,2.7,0,0,1,1,1,2.83,2.83,0,0,1,.41,1.39H196.2a1.84,1.84,0,0,0-.26-.84,1.67,1.67,0,0,0-.61-.6,1.7,1.7,0,0,0-.89-.22,2,2,0,0,0-1,.23,1.63,1.63,0,0,0-.63.62,2.62,2.62,0,0,0-.33.87,4.5,4.5,0,0,0-.1,1v.29a5.31,5.31,0,0,0,.09,1,3,3,0,0,0,.33.86,1.78,1.78,0,0,0,.63.62A1.92,1.92,0,0,0,194.44,184.94Z"/><path class="cls-3" d="M202,178.36v1H198v-1Zm-2.68-1.82h1.28V184a1.12,1.12,0,0,0,.12.58.55.55,0,0,0,.3.25,1.1,1.1,0,0,0,.41.07,1.35,1.35,0,0,0,.33,0l.27-.05v1.05l-.4.09a3.37,3.37,0,0,1-.6.05,1.9,1.9,0,0,1-.86-.19,1.37,1.37,0,0,1-.63-.63,2.6,2.6,0,0,1-.23-1.18Z"/><path class="cls-3" d="M203.51,176.38a.71.71,0,0,1,.76-.75.74.74,0,0,1,.56.22.76.76,0,0,1,.2.53.72.72,0,0,1-.2.5.7.7,0,0,1-.56.22.7.7,0,0,1-.76-.72Zm1.39,2v7.5h-1.29v-7.5Z"/><path class="cls-3" d="M207.52,178.36l2.11,6.38.15,1.12h-.86l-2.71-7.5Zm1.71,6.34,2.05-6.34h1.31l-2.69,7.5H209Z"/><path class="cls-3" d="M218.47,181.31v.91h-1.3a4.75,4.75,0,0,0-1,.08,2.41,2.41,0,0,0-.72.26,1.33,1.33,0,0,0-.45.43,1.23,1.23,0,0,0-.15.61,1.35,1.35,0,0,0,.16.64,1.21,1.21,0,0,0,.48.47,1.75,1.75,0,0,0,.8.17,2.22,2.22,0,0,0,1-.25,2.25,2.25,0,0,0,.71-.61,1.3,1.3,0,0,0,.29-.7l.55.61a1.73,1.73,0,0,1-.27.65,2.91,2.91,0,0,1-.57.67,3,3,0,0,1-.84.54,2.77,2.77,0,0,1-1.1.21,2.81,2.81,0,0,1-1.33-.3,2.31,2.31,0,0,1-.89-.8,2.1,2.1,0,0,1-.32-1.13,2.27,2.27,0,0,1,.24-1.06,2.09,2.09,0,0,1,.68-.77,3.4,3.4,0,0,1,1.07-.47,5.9,5.9,0,0,1,1.39-.16Zm-.22,3.27v-3.86a1.57,1.57,0,0,0-.18-.77,1.24,1.24,0,0,0-.53-.51,1.93,1.93,0,0,0-.87-.18,2,2,0,0,0-.85.16,1.43,1.43,0,0,0-.57.44.92.92,0,0,0-.21.58h-1.28a1.64,1.64,0,0,1,.21-.79,2.27,2.27,0,0,1,.6-.72,2.74,2.74,0,0,1,.94-.51,3.69,3.69,0,0,1,1.23-.19,3.64,3.64,0,0,1,1.45.27,2.29,2.29,0,0,1,1,.84,2.5,2.5,0,0,1,.36,1.39v3.49a5.7,5.7,0,0,0,.06.8,3.2,3.2,0,0,0,.2.73v.11h-1.34a3,3,0,0,1-.15-.59A4.31,4.31,0,0,1,218.25,184.58Z"/><path class="cls-3" d="M225.91,183.87a1.1,1.1,0,0,0-.12-.51,1.11,1.11,0,0,0-.5-.44,3.86,3.86,0,0,0-1.11-.34,8.89,8.89,0,0,1-1.12-.32,3.45,3.45,0,0,1-.86-.43,1.77,1.77,0,0,1-.53-.6,1.68,1.68,0,0,1-.19-.82,1.85,1.85,0,0,1,.2-.83,2.09,2.09,0,0,1,.56-.7,2.41,2.41,0,0,1,.88-.48,3.41,3.41,0,0,1,1.14-.17,3.47,3.47,0,0,1,1.54.31,2.45,2.45,0,0,1,1,.85,2.14,2.14,0,0,1,.34,1.18h-1.28a1.16,1.16,0,0,0-.18-.61,1.43,1.43,0,0,0-.54-.49,1.72,1.72,0,0,0-.85-.19,1.91,1.91,0,0,0-.86.16,1.16,1.16,0,0,0-.48.41,1,1,0,0,0-.15.53.87.87,0,0,0,.07.37.81.81,0,0,0,.26.3,2.2,2.2,0,0,0,.53.25,7.53,7.53,0,0,0,.86.24,6.76,6.76,0,0,1,1.52.5,2.24,2.24,0,0,1,.89.71,1.78,1.78,0,0,1,.29,1,1.93,1.93,0,0,1-.21.9,2,2,0,0,1-.58.71,2.92,2.92,0,0,1-.92.45,4,4,0,0,1-1.19.17,3.53,3.53,0,0,1-1.67-.36,2.52,2.52,0,0,1-1-.91,2.15,2.15,0,0,1-.36-1.18h1.29a1.29,1.29,0,0,0,.31.83,1.49,1.49,0,0,0,.68.44,2.71,2.71,0,0,0,.79.12,2.57,2.57,0,0,0,.89-.13,1.38,1.38,0,0,0,.54-.38A1,1,0,0,0,225.91,183.87Z"/><path class="cls-3" d="M193.71,194.12v-.07a10.1,10.1,0,0,1,.34-2.73,9.1,9.1,0,0,1,.86-2.14,7.37,7.37,0,0,1,1.11-1.53,4.85,4.85,0,0,1,1.08-.88l.27.85a4.28,4.28,0,0,0-.83.86,6.22,6.22,0,0,0-.77,1.34,9.87,9.87,0,0,0-.57,1.85A12.14,12.14,0,0,0,195,194v.1a12.22,12.22,0,0,0,.21,2.37,10.22,10.22,0,0,0,.57,1.86,6.75,6.75,0,0,0,.77,1.37,5.26,5.26,0,0,0,.83.9l-.27.77a4.59,4.59,0,0,1-1.08-.88,7.57,7.57,0,0,1-1.11-1.52,9.1,9.1,0,0,1-.86-2.14A10.2,10.2,0,0,1,193.71,194.12Z"/><path class="cls-3" d="M204.18,195.61a1.54,1.54,0,0,0-.11-.63,1.23,1.23,0,0,0-.37-.5,3.2,3.2,0,0,0-.73-.42c-.32-.13-.71-.27-1.18-.41a11.85,11.85,0,0,1-1.36-.49,4.87,4.87,0,0,1-1-.63,2.8,2.8,0,0,1-.66-.81,2.35,2.35,0,0,1-.22-1.05,2.47,2.47,0,0,1,.93-1.95,3.44,3.44,0,0,1,1.09-.58,4.42,4.42,0,0,1,1.4-.21,4,4,0,0,1,1.93.43,3.08,3.08,0,0,1,1.21,1.13,2.85,2.85,0,0,1,.42,1.49h-1.33a2.07,2.07,0,0,0-.24-1,1.77,1.77,0,0,0-.74-.69,2.7,2.7,0,0,0-1.25-.26,2.84,2.84,0,0,0-1.17.22,1.54,1.54,0,0,0-.69.58,1.6,1.6,0,0,0-.23.84,1.27,1.27,0,0,0,.14.58,1.54,1.54,0,0,0,.42.48,3.51,3.51,0,0,0,.73.41,11.33,11.33,0,0,0,1.08.36,9.28,9.28,0,0,1,1.48.54,4.27,4.27,0,0,1,1,.67,2.24,2.24,0,0,1,.6.84,2.69,2.69,0,0,1,.2,1.05,2.59,2.59,0,0,1-.25,1.12,2.54,2.54,0,0,1-.72.85,3.38,3.38,0,0,1-1.11.54,5.32,5.32,0,0,1-2.82,0,3.93,3.93,0,0,1-1.22-.58,3,3,0,0,1-.88-1,2.62,2.62,0,0,1-.33-1.33h1.33a1.77,1.77,0,0,0,.2.89,1.7,1.7,0,0,0,.55.61,2.16,2.16,0,0,0,.8.36,3.48,3.48,0,0,0,.93.12,3.16,3.16,0,0,0,1.18-.2,1.62,1.62,0,0,0,.74-.55A1.44,1.44,0,0,0,204.18,195.61Z"/><path class="cls-3" d="M212.61,195.61a1.73,1.73,0,0,0-.11-.63,1.26,1.26,0,0,0-.38-.5,3,3,0,0,0-.73-.42,12,12,0,0,0-1.18-.41,11,11,0,0,1-1.35-.49,4.63,4.63,0,0,1-1-.63,2.51,2.51,0,0,1-.66-.81,2.35,2.35,0,0,1-.23-1.05,2.44,2.44,0,0,1,.94-1.95,3.28,3.28,0,0,1,1.08-.58,4.44,4.44,0,0,1,1.41-.21,4,4,0,0,1,1.93.43,3.15,3.15,0,0,1,1.21,1.13,2.93,2.93,0,0,1,.41,1.49h-1.33a2.07,2.07,0,0,0-.24-1,1.74,1.74,0,0,0-.73-.69,2.72,2.72,0,0,0-1.25-.26,2.86,2.86,0,0,0-1.18.22,1.54,1.54,0,0,0-.69.58,1.6,1.6,0,0,0-.22.84,1.27,1.27,0,0,0,.13.58,1.54,1.54,0,0,0,.42.48,3.61,3.61,0,0,0,.74.41,11,11,0,0,0,1.07.36,8.93,8.93,0,0,1,1.48.54,4.08,4.08,0,0,1,1,.67,2.24,2.24,0,0,1,.6.84,2.69,2.69,0,0,1,.2,1.05,2.46,2.46,0,0,1-.25,1.12,2.51,2.51,0,0,1-.71.85,3.38,3.38,0,0,1-1.11.54,5.09,5.09,0,0,1-1.45.19,4.87,4.87,0,0,1-1.37-.19,4.09,4.09,0,0,1-1.23-.58,3,3,0,0,1-.88-1,2.62,2.62,0,0,1-.33-1.33H208a1.89,1.89,0,0,0,.2.89,1.79,1.79,0,0,0,.55.61,2.24,2.24,0,0,0,.8.36,3.59,3.59,0,0,0,.93.12,3.22,3.22,0,0,0,1.19-.2,1.59,1.59,0,0,0,.73-.55A1.45,1.45,0,0,0,212.61,195.61Z"/><path class="cls-3" d="M222.62,188.07v1.09h-7.79v-1.09Zm-3.24,0v10.08h-1.32V188.07Z"/><path class="cls-3" d="M226.88,194.05v.07a10.62,10.62,0,0,1-.34,2.75,9.55,9.55,0,0,1-.87,2.14,7.57,7.57,0,0,1-1.11,1.52,4.37,4.37,0,0,1-1.07.88l-.27-.77a4.34,4.34,0,0,0,.82-.87,6.58,6.58,0,0,0,.77-1.38,8.78,8.78,0,0,0,.57-1.87,12.4,12.4,0,0,0,.21-2.38V194a11.54,11.54,0,0,0-.22-2.38,9.34,9.34,0,0,0-.6-1.87,7.51,7.51,0,0,0-.77-1.37,5.28,5.28,0,0,0-.78-.86l.27-.79a4.61,4.61,0,0,1,1.07.88,7.37,7.37,0,0,1,1.11,1.53,9.55,9.55,0,0,1,.87,2.14A10.51,10.51,0,0,1,226.88,194.05Z"/></g></g></g></svg>