<svg xmlns="http://www.w3.org/2000/svg" viewBox="0 0 290.68 239.36"><defs><style>.cls-1{isolation:isolate;}.cls-2{mix-blend-mode:soft-light;}.cls-3{fill:#fff;}.cls-4{fill:#6c2911;}</style></defs><g class="cls-1"><g id="Capa_1" data-name="Capa 1"><g class="cls-2"><circle class="cls-3" cx="161.33" cy="119.38" r="110.54" transform="translate(-37.16 149.04) rotate(-45)"/></g><path class="cls-4" d="M238.83,54.44C220.47,21.76,190.81,3.72,153,2.26h-.12c-23.84.53-43,6.34-60.18,18.26l-.63.43a17.81,17.81,0,0,0-1.55,1.1l-.18.15c-1.67,1.37-5.15,4.22-2.14,8.33A5,5,0,0,0,93,32.88a9,9,0,0,0,4-1.88,93.21,93.21,0,0,1,21.4-11.64A90.64,90.64,0,0,1,239.9,89.24c3.9,24.64.57,47.77-9.9,68.74-10.91,21.85-15,42.41-12.41,62.88.29,2.31.82,6.53,5.35,6.52h.53a5.34,5.34,0,0,0,3.95-1.83c1.39-1.69,1.31-4,1.06-6-2.56-20.12,3.12-38.16,12.43-59.05C257.77,122.58,257.07,86.92,238.83,54.44Z"/><path class="cls-4" d="M95.45,226.14c-.4,0-.79.05-1.18,0l-4.94,0a108.12,108.12,0,0,1-17.69-.82c-3.5-.55-6.84-1.25-7.62-2.56s.18-4.5,1.22-7.46c2-5.77,1.36-10.85-2-15.54a17.34,17.34,0,0,1-2.37-4.3,3,3,0,0,1,0-2.43,3.06,3.06,0,0,1,2.43-1c1.67-.1,3.34-.08,5.1-.06l2.27,0c1.75,0,3.94-.2,5.42-1.71a5.33,5.33,0,0,0,1.42-4c-.08-5.18-5.05-5.13-6.69-5.12h-.27c-1.86,0-3.78,0-5.65,0-2.13-.06-3.65-.59-4.16-1.46s-.26-2.31.68-4.12a41.5,41.5,0,0,0,4.9-14.79c.32-2.85.25-5.07-1.15-6.65s-3.94-1.93-6.37-1.95c-4.27-.05-8.86-.08-13.55,0a3.74,3.74,0,0,1-1.08-.11,3.21,3.21,0,0,1,.1-1.2,20.83,20.83,0,0,1,2.66-6.25l2.22-3.83c2.49-4.27,5.07-8.7,7.42-13.17,3.87-7.36,5.29-15.36,4.46-25.2-1.28-15.2,3-30.56,13.18-47,1.6-2.58,3.5-5.08,5.34-7.51l1.26-1.66c3.38-4.49,1.65-7.3-.39-8.86-2.72-2.07-5.49-1.42-8.24,1.94A99.62,99.62,0,0,0,50.93,85.64a71.44,71.44,0,0,0-.43,22.5c.6,4.28-.92,8.19-3,12.87a131.94,131.94,0,0,1-9.86,17.57A28.85,28.85,0,0,0,33.07,151a10.13,10.13,0,0,0,10.48,12c3.22.09,6.69.14,10.13,0a4.47,4.47,0,0,1,1.14.06,4.41,4.41,0,0,1-.34,1.11c-.8,1.9-1.7,3.83-2.67,5.74-2.64,5.22-2.89,10.32-.72,15.16.57,1.28.6,1.69.21,2.45-2.81,5.55-2.23,11.31,1.68,16.68,2.19,3,2.52,5.51,1.22,9.27-2.15,6.22-2.14,11.07,0,14.83s6.51,6.25,13.16,7.51a74.48,74.48,0,0,0,13.9,1.27c1.3,0,2.62,0,3.94-.09h3.1c2.22,0,4.29,0,6.36,0h.1c2.07,0,4.64,0,6.29-1.78a5.38,5.38,0,0,0,1.31-4.1,5.25,5.25,0,0,0-1.57-3.79C99.27,225.93,97.15,226.05,95.45,226.14Z"/><path class="cls-4" d="M189.56,166.15a5.29,5.29,0,0,0-7.51,1.65,48.71,48.71,0,0,1-8.19,9.38,43.52,43.52,0,0,1-33.28,10.17,42.93,42.93,0,0,1-37-51A42.74,42.74,0,0,1,123.36,108c.36-.23.74-.42,1.13-.62s1-.52,1.51-.85c3.09-2,4-4.83,2.36-7.7-1.09-2-3.32-3.86-7.77-1.88a22.6,22.6,0,0,0-2.88,1.6c-15.89,10.08-25.32,25.25-25.88,41.59v.07c0,26.87,14,48.18,36.35,55.61a55.44,55.44,0,0,0,17.47,2.83,54,54,0,0,0,43.28-21.46,27.26,27.26,0,0,0,2.38-3.59C192.83,170.74,192.14,167.81,189.56,166.15Z"/><path class="cls-4" d="M109.64,144.85c.08,18.54,13,33.29,31.54,35.86l.41.06a18.34,18.34,0,0,0,2.61.23c2.34,0,5-.76,5.73-4.52a5.34,5.34,0,0,0-.7-4.22c-1.27-1.77-3.5-2.07-5.29-2.31l-.85-.13c-11.72-1.89-19-8.39-21.78-19.33-2.47-9.92.52-18.53,8.88-25.59,3.72-3.13,8.46-4.92,14.49-5.46,2.06-.18,4.14-.57,5.42-2.19a5,5,0,0,0,.92-4c-.72-5.23-5.79-4.88-7.47-4.76A36,36,0,0,0,109.64,144.85Z"/><path class="cls-4" d="M159.64,139.44c-5-.87-6.1,3.83-6.46,5.38-.78,3.39-2.7,7.4-7.4,7.4h-.21c-3.79-.09-6.17-2.49-7.26-7.32a9.52,9.52,0,0,0-1.64-3.88,6.14,6.14,0,0,0,3.68-1.54,10.19,10.19,0,0,1,5.69-2.41c3.3-.32,5.27-2.58,5-5.77a5.27,5.27,0,0,0-1.78-3.76,6,6,0,0,0-4.58-1.25,17.9,17.9,0,0,0-11.14,4.58c-3.86,3.42-2.47,6.42-1.3,7.91a7.26,7.26,0,0,0,.5.57c-.27,0-.55,0-.84.1-3.59.61-5.1,3.18-4.49,7.66A18.1,18.1,0,0,0,145.82,163H146a18,18,0,0,0,18.14-16.43C164.62,141.41,162,139.84,159.64,139.44Z"/><path class="cls-4" d="M161.43,164.39c-1.76,1.44-3.65,3.16-3.87,5.48a5.18,5.18,0,0,0,1.33,3.87,4.93,4.93,0,0,0,3.84,2c2.36,0,4.58-1.84,5.88-2.93,8.13-6.76,12.57-15.28,13.2-25.32v-.93c0-2.5,0-7.16-5.3-7.2h-.07c-5.16,0-5.44,4.92-5.54,6.77A24.56,24.56,0,0,1,161.43,164.39Z"/><path class="cls-4" d="M199.43,143.5a5,5,0,0,0-5.13-4.17h-.08a4.89,4.89,0,0,0-5.16,4.16c-.61,3.87-1.13,7.92-1.57,12.38a5.19,5.19,0,0,0,4.12,5.84,6.21,6.21,0,0,0,1.39.17,5.24,5.24,0,0,0,5.1-4.29c.58-2.28,1-4.63,1.27-6.51.11-.71.22-1.36.32-2a1.71,1.71,0,0,0,0-.45c0-.75,0-1.4-.05-2A19.7,19.7,0,0,0,199.43,143.5Z"/><path class="cls-4" d="M136.73,102.36h.47l2.58-.2c1.94-.15,3.89-.3,5.84-.48,3.57-.32,5.68-2.58,5.49-5.89a5.33,5.33,0,0,0-5.83-5.06,65.85,65.85,0,0,0-9.64,1,5.31,5.31,0,0,0-4.56,6.21C131.52,100.73,133.62,102.36,136.73,102.36Z"/></g></g></svg>