<svg id="Capa_1" data-name="Capa 1" xmlns="http://www.w3.org/2000/svg" viewBox="0 0 212.43 178.47"><defs><style>.cls-1{fill:#fccd74;}</style></defs><path class="cls-1" d="M115.81,2.14c4.53,1.73,9.43,1.84,14.06,3.26,30.4,9.29,50.45,29.06,60.38,59.17,1.64,5,.95,5.78-4.23,6.79C162.43,76,138.9,80.94,115.23,85.15c-7.59,1.34-13.3,4.65-18.81,9.79C78.88,111.28,61,127.25,43.2,143.34c-3.49,3.16-4.21,3.1-7-.62a86.49,86.49,0,0,1-16.46-37.87c-.23-1.34.07-3-1.26-4V78.91c1.36-1.15,1-2.86,1.3-4.32A87.59,87.59,0,0,1,38.31,34.28c1.39-1.72,2.77-2.64,4.88-1.38,1.42,2,.48,3.52-.81,5.18A84.05,84.05,0,0,0,25.82,73.61c-4.5,22.31-.27,42.67,11.85,61.64,2.29,3.58,2.36,3.52,5.43.74Q71,110.69,98.87,85.38a14.87,14.87,0,0,1,7.4-3.92c25.27-4.91,50.52-10,75.78-14.93,2.15-.42,2.8-1,2-3.35a76.91,76.91,0,0,0-9.44-18.91C155,16.73,128.22,4.64,94.69,8.52,78.57,10.38,64.34,17.27,52.11,28c-1.7,1.49-3.33,2.41-5.43.86-1.19-2.23.08-3.57,1.64-4.94A88.57,88.57,0,0,1,87.19,4.16c2.91-.69,6-.43,8.74-2Z"/><path class="cls-1" d="M95.24,177.62c-2.27-1.75-5.11-1.39-7.68-2A87.71,87.71,0,0,1,46.33,154c-2.7-2.52-2.7-3.55.08-6.08q27.87-25.34,55.77-50.63c2.89-2.63,4-2.48,6.19.81q21,31.44,41.92,62.89c1.81,2.71,1.13,4.28-1.52,5.71a89.57,89.57,0,0,1-31.29,10.26c-.61.08-1.43-.25-1.67.71Zm11.32-5.83a88.22,88.22,0,0,0,29-5.62c2.73-1.07,6.75-1.83,7.64-3.85s-2.54-4.73-4.06-7.16c-10.63-17-22.35-33.37-33.15-50.3-1.31-2.06-2.08-1.53-3.49-.23q-24.43,22.46-49,44.8c-1.3,1.18-1.6,1.75-.07,3C68.72,165,86.23,171.31,106.56,171.79Z"/><path class="cls-1" d="M194,100.85c-1.84,2.13-1.37,4.9-1.91,7.35-4.49,20.38-15,37-31,50.19-3.2,2.63-4.24,2.46-6.5-.92Q134.21,127,114,96.52c-2.32-3.49-1.62-5.11,2.4-5.91l70.41-13.88c5.27-1,5.27-1,7.2,3.55Zm-73.35-5.27c0,.34,0,.48,0,.56Q139,123.92,157.37,151.7c.94,1.43,1.67,1,2.69.12,19.79-17.85,29.07-40.13,28.2-66.72-.07-2.22-.77-2.86-3.17-2.32-7.44,1.67-15,3-22.44,4.5Z"/><path class="cls-1" d="M77.74,69.65c-2.73,0-5.46,0-8.2,0a3.22,3.22,0,0,1-3.35-1.83c-1.38-3,0-9.3,2.72-11.26a3.67,3.67,0,0,0,1.72-4,20.4,20.4,0,0,1-.09-3.41c.13-4.46,2.6-6.84,7.1-6.9,4.77-.07,7.23,2.2,7.46,6.87a5.66,5.66,0,0,1,0,1.69c-.83,2.86-.22,4.85,2.52,6.59,2.17,1.37,2.9,8.25,1.74,10.58-.73,1.46-2,1.68-3.46,1.7-2.73,0-5.46,0-8.19,0Zm0-5.54c1.48,0,2.95,0,4.43,0,.71,0,1.74.39,2-.72a2.39,2.39,0,0,0-1-2.67c-2.27-1.64-8-1.74-10.43-.16a2.41,2.41,0,0,0-1.24,2.57c.22,1.35,1.35.94,2.18,1C75,64.15,76.4,64.1,77.76,64.11Zm1.87-13.83c.06-1.29.16-2.47-1.75-2.51S76,48.79,76,50.14s.08,3.33,1.92,3.31C79.56,53.43,79.57,51.62,79.63,50.28Z"/><path class="cls-1" d="M95.55,66.78a2.28,2.28,0,0,1-2.16-1.61,2.83,2.83,0,0,1,.77-3.12q7.78-7.84,15.54-15.71c1.57-1.59,3.43-1.11,4.76,0,1.5,1.26.43,2.71-.66,3.82q-7.65,7.68-15.34,15.35A3.55,3.55,0,0,1,95.55,66.78Z"/><path class="cls-1" d="M107,61.47c1.85-.13,3.56.36,3.5,2.54,0,1.31-.06,3.36-2.49,3.07-2-.24-4.68.28-4.8-2.87C103.14,61.79,105,61.35,107,61.47Z"/><path class="cls-1" d="M104.9,48.1a3.78,3.78,0,0,1-4,2.64c-1.83,0-3.48-1-3.43-3.05.06-2.38,1.91-2.77,3.93-2.69S104.89,45.5,104.9,48.1Z"/><path class="cls-1" d="M97.59,154.19c0,5.35-1.48,6.38-6.79,5.9a103.89,103.89,0,0,0-13.32,0c-3.15.13-4.39-1.36-4.31-4.27.11-4,.25-8.09,4.51-10.3.9-.46,1.14-1.09.72-1.91-.72-1.42-.44-2.92-.43-4.37,0-4.46,2.55-7,6.91-7.13,5.28-.14,8.07,2.09,8.42,6.73a2.21,2.21,0,0,1,0,.68c-.62,3.26-.67,6.09,2.74,8.26C98.1,149.13,97.59,151.92,97.59,154.19Zm-12.24.06h0c1.47,0,3,.06,4.41,0,.78,0,2,.52,2.07-1a2.38,2.38,0,0,0-1.12-2.57c-2.61-1.64-8-1.6-10.41.08a2.43,2.43,0,0,0-.91,2.67c.15,1.19,1.18.78,1.89.81C82.63,154.29,84,154.25,85.35,154.25ZM83.67,140.2c.15,1.43.09,3.33,2,3.28,1.62,0,1.72-1.83,1.79-3.18s.06-2.5-1.84-2.5S83.55,138.76,83.67,140.2Z"/><path class="cls-1" d="M109.77,152.72a6.17,6.17,0,0,0-2.35,2.43c0-.3-.18-.31-.43-.07s-.24.38.05.43a15.1,15.1,0,0,1-2.27,1.5,2.8,2.8,0,0,1-3.4-.87c-.9-1.06-1.21-2.39-.19-3.43,5.66-5.79,11.34-11.56,17.14-17.21a2.57,2.57,0,0,1,3.94.39,3,3,0,0,1-.32,4.31c-2.47,2.53-5,5-7.49,7.53-1,1-1.85,2.17-2.78,3.26C110.4,150.86,110.1,151.81,109.77,152.72Z"/><path class="cls-1" d="M109.08,140.79c-2.24.16-4.07-.44-4.08-2.94s1.71-3,4-3,4,.61,4.06,2.93S111.28,141,109.08,140.79Z"/><path class="cls-1" d="M111.79,151.36c1.35,0,2.71,0,4.06.08a2.41,2.41,0,0,1,2.26,2.13c.31,1.29,0,2.58-1.1,2.81-2.17.47-4.68,1.52-6.28-1.27l.11-.11-.12-.1c0-.73,0-1.45,0-2.18C111.32,152.45,111.84,152.12,111.79,151.36Z"/><path class="cls-1" d="M110.72,154.9l.12.1-.11.11-.25,0Z"/><path class="cls-1" d="M148.62,120.36h-8.57a2.92,2.92,0,0,1-3.27-3.13c-.18-4.24-.64-8.61,4.11-11,1.45-.75.64-1.94.43-3-.95-5.08.57-8.7,4.27-10a7.9,7.9,0,0,1,8.09,1.08c2.75,2.22,3.08,5.35,2.36,8.43-.49,2.13-.15,3.2,1.7,4.42,2.74,1.79,4,8.6,2.58,11.67-.64,1.35-1.82,1.6-3.14,1.59Zm-.11-5.64c1.48,0,3,0,4.44,0,.71,0,1.72.39,1.93-.79a2.33,2.33,0,0,0-1-2.66c-2.53-1.71-8-1.73-10.45,0a2.39,2.39,0,0,0-1,2.67c.21,1.18,1.22.75,1.93.79C145.78,114.76,147.15,114.71,148.51,114.72Zm2.08-14.15c.09-1.54-.49-2.39-2.16-2.28-1.9.12-1.7,1.49-1.66,2.73.06,1.41.35,3.18,1.95,3.07C150.49,104,150.49,102.05,150.59,100.57Z"/><path class="cls-1" d="M166.38,117.58a2.68,2.68,0,0,1-2.28-1.69c-.81-1.54,0-2.67,1-3.65,3.44-3.49,6.94-6.93,10.41-10.39,1.7-1.69,3.41-3.37,5.1-5.07,1.35-1.36,2.86-2.14,4.43-.51s1.19,3.24-.4,4.75c-3.56,3.35-6.67,7.15-10.6,10.14-1.41,1.08-2.41,2.7-3.64,4C169.41,116.26,168.55,117.57,166.38,117.58Z"/><path class="cls-1" d="M177.75,117.63c-1.93,0-3.79-.2-3.8-2.74,0-2.33,1.52-3.09,3.59-3.1s4,.49,4,3S179.74,117.67,177.75,117.63Z"/><path class="cls-1" d="M172.05,101.11c-2.14.14-3.79-.33-3.72-2.82s1.73-2.91,3.72-3,3.8.62,3.86,2.84C176,100.65,174.18,101.34,172.05,101.11Z"/></svg>