<svg id="Capa_1" data-name="Capa 1" xmlns="http://www.w3.org/2000/svg" viewBox="0 0 241.1 239.36"><defs><style>.cls-1{fill:#fdf3e1;}</style></defs><path class="cls-1" d="M113.82,101.36a67.62,67.62,0,0,1-18.29,7.22A99,99,0,0,1,67,111.31c-3.2-.18-6.39-.36-9.57-.81-2.47-.34-3.48-1.53-3.17-3.6.27-1.74,1.91-2.67,4.15-2.34A88.67,88.67,0,0,0,73,105.4a95.9,95.9,0,0,0,21.72-2.77c.94-.24,1.57-.61,1.73-1.6,1.09-6.7,3.65-13,5.76-19.39C108,64,113.93,46.38,119.83,28.75a4.58,4.58,0,0,1,1.8-2.89,3,3,0,0,1,4.05,1,52.32,52.32,0,0,0,12.88,12.87,3.26,3.26,0,0,1,1.59,3.3,2.93,2.93,0,0,1-2.1,2.34c-1.3.46-2.26-.21-3.21-.89a64.47,64.47,0,0,1-9.92-8.83,8.81,8.81,0,0,1-.71-1.16c-7.35,22.06-14.52,43.6-21.83,65.55a40.84,40.84,0,0,0,11.91-6.28c1.13-.87,2.26-1.54,3.7-.78a3.56,3.56,0,0,1,1.83,3.55c0,5,0,10,0,15v2a20.2,20.2,0,0,1,8.88-2.88c11-.52,20.88,2.49,28.51,10.72,5.14,5.53,6,12.36,3.9,19.51a3,3,0,0,1-5.23,1.51c-7.86-7.1-17.33-10.75-27.47-12.95a36.43,36.43,0,0,0-7.3-1c-.89,0-1.32.13-1.31,1.18.06,4.38,0,8.76,0,13.14a1.71,1.71,0,0,0,1,1.59,42.49,42.49,0,0,0,19.06,6.73,41.65,41.65,0,0,0,30.39-8.73A42.21,42.21,0,0,0,182.62,127c1.18-2.4,3.22-3,4.89-1.45,1.29,1.17,1.17,2.53.5,4a45.76,45.76,0,0,1-6.48,10.25,48.49,48.49,0,0,1-60,12c-.48-.25-1-.47-1.75-.85,0,1.05,0,1.88,0,2.71-.11,5.36.17,10.72-.31,16.09a47.32,47.32,0,0,1-9.31,24.45c-7.25,9.79-16.89,16.29-28.8,18.55-19.65,3.72-36.06-2.33-48.59-18.06-7.18-9-10-19.52-10-31q.06-32.29,0-64.6c0-1,0-2,0-3A3.28,3.28,0,0,1,24.55,93a2.91,2.91,0,0,1,3.42.57A45.47,45.47,0,0,0,39.2,99.78c2.23.87,4.5,1.61,6.75,2.43A2.73,2.73,0,0,1,48,104.74c.11,2.3-1.64,3.67-4.1,3a56.68,56.68,0,0,1-8.49-3c-2.16-1-4.28-2.07-6.59-3.2,0,.65-.11,1.22-.11,1.8,0,20.48-.13,41,.06,61.45C29,181,35.94,193.61,49.87,202a42.48,42.48,0,0,0,63.91-36.62C113.91,144.14,113.82,122.91,113.82,101.36ZM156,134.71c.09-5.51-2.41-9.45-6.53-12.33a32.55,32.55,0,0,0-17.73-5.9,14.1,14.1,0,0,0-11.2,4.25c-.36.39-.94.73-.71,1.38s.95.44,1.44.46a67.66,67.66,0,0,1,24.58,6.32A63.58,63.58,0,0,1,156,134.71Z"/><path class="cls-1" d="M204.59,61.87c-2.47,0-4.74.63-7,.86a77.16,77.16,0,0,1-20.25-.95,107.17,107.17,0,0,1-30-9.79c-1.1-.54-2.08-1.11-2.33-2.4a2.85,2.85,0,0,1,4-3.3c4.31,1.75,8.5,3.8,12.91,5.32a98.45,98.45,0,0,0,24.05,5.13,61.66,61.66,0,0,0,16.73-.8c1.92-.37,3.79-1,5.69-1.51,2.64-.69,4.58,1.22,3.74,3.83-2.22,7-4.54,13.88-6.85,20.81q-5.49,16.5-11,33c-.45,1.36-.92,2.75-2.54,3.11a2.94,2.94,0,0,1-3.47-3.92c2.11-6.54,4.3-13.06,6.48-19.58q4.77-14.31,9.55-28.63C204.36,62.71,204.45,62.36,204.59,61.87Z"/><path class="cls-1" d="M71.15,192.59c-6.23-.14-12.22-1.18-17.36-5.05C49,183.91,46.41,179,45.41,173.1a21.72,21.72,0,0,1-.36-3.85,3,3,0,0,1,4.59-2.84c7.65,3.77,15.78,4.72,24.17,4.42A46.33,46.33,0,0,0,93,166.38a3,3,0,0,1,4.51,2.94c-.3,11.19-6.7,20.19-18.66,22.51A34.78,34.78,0,0,1,71.15,192.59ZM51.72,173.9c1.74,6,5,9.43,10.57,11.38A26.19,26.19,0,0,0,69,186.42a27.46,27.46,0,0,0,13-1.79c4-1.68,8-5.75,8.62-10.64A63.77,63.77,0,0,1,51.72,173.9Z"/><path class="cls-1" d="M151.28,97.72c-.07-9.77,5.91-17.94,15.27-21.83a19.63,19.63,0,0,1,21.06,4.41,20.4,20.4,0,0,1,2.26,3.13c1.1,1.72.87,3.4-.54,4.4s-3.26.72-4.4-1.11a12.94,12.94,0,0,0-5.5-5c-5.51-2.68-10.43-1-15.06,2.16-5.27,3.56-7.28,8.81-7.13,15,.1,4.1-1,7.57-4.66,9.74-3.94,2.31-8.08,1.85-12.08.25a16.53,16.53,0,0,1-7.75-6c-1.34-2-1.33-3.56.18-4.72s3.21-.79,4.68,1.21a11.5,11.5,0,0,0,6.94,4.5c4.75,1.09,6.76-.48,6.73-5.31Z"/><path class="cls-1" d="M68.67,166.4a16.93,16.93,0,0,1-10.15-3.28c-1.87-1.35-2.37-3-1.32-4.51s2.81-1.72,4.7-.38A11.4,11.4,0,0,0,71.69,160c3.51-.9,4.47-2.77,3.27-6.22A29.84,29.84,0,0,1,73.49,148c-1.19-8.76,2.24-15.62,8.79-21.09,6.74-5.65,14.11-5.95,21.78-2a15.26,15.26,0,0,1,2.67,2,3.08,3.08,0,0,1,.74,4.25,2.94,2.94,0,0,1-4.4.43,12.72,12.72,0,0,0-7.14-3.1,12.49,12.49,0,0,0-9.16,2.48c-4.11,3.27-7,7.26-7.5,12.64a18.63,18.63,0,0,0,1.32,8.28c1.78,4.91.79,9.09-2.9,12A13.82,13.82,0,0,1,68.67,166.4Z"/><path class="cls-1" d="M130.06,59.65c6.58.51,12.2,3.08,15.81,9.19,1,1.67.78,3.34-.53,4.25-1.58,1.11-3.23.8-4.4-1-3.26-5-7.87-7-13.72-6.1a23.12,23.12,0,0,0-2.63.77A2.84,2.84,0,0,1,120.75,65a2.89,2.89,0,0,1,1.77-3.75A18.63,18.63,0,0,1,130.06,59.65Z"/><path class="cls-1" d="M34.58,129.3c.12-2.3,1.94-3.12,3.34-4.08,6.52-4.47,16.42-3.71,22.28,1.57,1.57,1.42,1.83,3,.73,4.36s-2.74,1.46-4.4.28c-6-4.25-11-4.27-16.87,0a3.13,3.13,0,0,1-3.43.56A2.64,2.64,0,0,1,34.58,129.3Z"/><path class="cls-1" d="M128.4,72.2c3.77.26,7.06,1.7,9.18,5.22a3,3,0,0,1-.77,4.35c-1.41.92-2.92.6-4.14-1a5.48,5.48,0,0,0-6.44-2.18c-2.09.59-3.5-.17-4-2-.47-1.59.42-3,2.42-3.7a11.39,11.39,0,0,1,1.76-.52A18.44,18.44,0,0,1,128.4,72.2Z"/><path class="cls-1" d="M182.33,93.87c-.29,1.43-.75,2.46-2.14,2.9a2.62,2.62,0,0,1-3.24-1c-1.7-2.56-3.91-3.29-6.83-2.42a2.85,2.85,0,0,1-3.81-1.88c-.54-1.49.17-2.88,1.88-3.67,4.64-2.16,11.24,0,13.58,4.52A12.14,12.14,0,0,1,182.33,93.87Z"/><path class="cls-1" d="M48.21,135.11a9.52,9.52,0,0,1,7,2.61c1.43,1.39,1.62,2.89.53,4.25a3,3,0,0,1-4.14.38,5.52,5.52,0,0,0-7,0c-1.72,1.18-3.3.89-4.34-.6-.91-1.3-.56-3,.91-4.22A10.11,10.11,0,0,1,48.21,135.11Z"/><path class="cls-1" d="M94.81,135.13a9.76,9.76,0,0,1,6.6,2.31,3.08,3.08,0,0,1,1,4.22,2.87,2.87,0,0,1-4.33.69,5.56,5.56,0,0,0-7.12,0,2.88,2.88,0,0,1-4.1-.46c-1.07-1.4-.86-2.91.57-4.24A10,10,0,0,1,94.81,135.13Z"/></svg>