<svg id="Capa_1" data-name="Capa 1" xmlns="http://www.w3.org/2000/svg" viewBox="0 0 212.43 178.47"><defs><style>.cls-1{fill:#6c2910;}</style></defs><path class="cls-1" d="M108.39,108.05c-10.55-.25-19.93-1-29-3.9a31.54,31.54,0,0,1-9.07-4.32c-2.92-2.09-4.58-4.74-4.46-8.52.16-5.25.29-10.52,0-15.75-.34-5.52,2.3-8.89,6.81-11.31,6.15-3.31,12.85-4.73,19.68-5.67,14.3-2,28.48-1.43,42.39,2.74a45.76,45.76,0,0,1,7.42,3.09c4.44,2.27,6.87,5.7,6.53,11a120.12,120.12,0,0,0,0,14.94c.3,5-2,8.18-6.07,10.5-7.17,4.12-15.15,5.44-23.18,6.43C115.39,107.79,111.33,107.86,108.39,108.05Zm-1.17-46.4c-9.85.28-19.66.87-28.93,4.59-3.32,1.33-7.85,2.44-8,6.48-.13,4.38,4.54,5.73,8,6.85a90.73,90.73,0,0,0,58.24-.17c3.25-1.1,7.49-2.41,7.62-6.31.14-4.25-4.37-5.39-7.63-6.72C127.15,62.54,117.2,61.92,107.22,61.65ZM70,80.91a50.6,50.6,0,0,1-.06,7.38c-.82,5.58,2,8.56,6.77,10.39,1.38.53,2.74,1.1,4.15,1.54,13,4,26.22,4.18,39.56,2.78,6.57-.68,13-2.07,19-5.15,2.15-1.11,4.68-2.29,4.9-4.94.35-4,.1-8.14.1-12C119.37,90.84,94.89,90.86,70,80.91Z"/><path class="cls-1" d="M88.55,29.28c-5.18-.36-7.81-1.84-6.63-7,1.24-5.48.89-5.56,8.08-6-3.26-6.54-3.22-6.8,1.64-10.52C95.16,3,95.16,3,100.3,7.62c1.6-2-.72-5.55,2.32-6.66,2.28-.83,4.79-.44,7.22-.4,5.15.07,3.13,4.3,3.94,6.92,2.5-.38,2.78-3.68,5.13-3.68s3.82,1.84,5.43,3.23c3.29,2.86,3.25,2.9.13,9.21,7.16.42,7.16.42,8,6.41.67,4.61.67,4.61-6.54,7.22,5.5,1.91,5.87,4.82,3.29,9.24s-5.26,5.18-9.42,1.38c1.08,7.72,1,7.77-4.38,9.62-4.81,1.64-5,1.55-8-4-2.25.9-1.1,4.7-4,4.9-2.35.15-4.4-1.08-6.59-1.7-5-1.41-2.68-4.83-2-7.78-2.59-.6-4.12,3-6.45,1.32-2-1.43-2.86-3.84-4.17-5.87C81.35,32.56,85.67,31.89,88.55,29.28Zm36-8.27c-2.23,1-2.91-1.15-4.12-2.83-1.51-2.13-1-3.71.68-5.31,1.1-1.08,1.56-2,0-3.27-1.29-1-2.13-.82-3,.41-1.36,2-2.81,2.68-5.43,1.78-2.78-.94-3.6-2.43-3.34-5,.15-1.56-.66-2.1-2.18-2.11-1.67,0-2.12.88-2,2.29.2,2.42-.53,3.81-3.12,4.77-2.75,1-4.35.37-5.78-1.79-.94-1.42-1.84-1.05-3-.16-1.36,1.07-1,1.94,0,3,1.48,1.53,2.41,3,1,5.3-1.35,2.16-2.58,3.69-5.38,2.91-1.25-.35-2.39-.31-2.65,1.47s.47,2.49,2.13,2.6c2.16.13,3.33,1.08,3.64,3.45s.67,4.26-2,5.36c-1.39.58-2.2,1.39-1.15,3.06s2.1,1.35,3.33.43c1.84-1.37,3.29-1,5,.55s3,2.77,1.85,5.1c-.66,1.39-.84,2.42,1,3.15s2.47-.24,2.82-1.66c.63-2.57,2.41-2.68,4.63-2.72s3.65.45,4.24,2.7c.37,1.41.92,2.4,2.82,1.69s1.69-1.72,1-3.11c-1.13-2.3.1-3.63,1.79-5.1s3.07-2,5-.65c1.16.85,2.25,1.39,3.35-.29,1.27-1.95,0-2.67-1.38-3.29-2.48-1.11-2.06-3-1.74-5.08s1-3.32,3.1-3.53c1.5-.15,3-.17,2.75-2.47S126.45,20.83,124.52,21Z"/><path class="cls-1" d="M107.22,130.69c-9.46-.29-18.57-1-27.4-3.78A36.64,36.64,0,0,1,72,123.6a14.5,14.5,0,0,1-6-16.88,2,2,0,0,1,3.9.34,23.84,23.84,0,0,1,.06,4.85c-.64,4.52,1.68,7,5.45,8.8a56.68,56.68,0,0,0,18.65,4.93c12.26,1.31,24.48,1.22,36.51-1.91a66.57,66.57,0,0,0,7.62-2.63c4.48-1.74,7.15-4.69,6.27-9.88a14.07,14.07,0,0,1,0-2.43c0-1.62-.15-3.64,2.14-3.59s1.93,2.14,2,3.71c.31,10.64-1.73,13.66-11.79,17.27C127.13,129.64,117.07,130.41,107.22,130.69Z"/><path class="cls-1" d="M106.11,172c11.14-.28,21.06-1,30.48-4.73,7-2.75,7.84-4.12,7.86-11.62,0-.8,0-1.61,0-2.42,0-1.36.51-2.53,1.93-2.62,1.77-.11,2,1.26,2.19,2.72,1.09,10.38-1.25,14.74-11.2,18-20,6.6-40.18,6.43-60.27,0A25.44,25.44,0,0,1,72,169a14.46,14.46,0,0,1-6-16.84,2,2,0,0,1,3.91.33,32.22,32.22,0,0,1,0,5.64c-.42,3.66,1.39,5.82,4.35,7.43,6.39,3.48,13.39,4.79,20.47,5.66C98.92,171.71,103.1,171.79,106.11,172Z"/><path class="cls-1" d="M107.24,154c-10.81-.25-21.55-1-31.68-5.27-9-3.76-11.41-8.46-9.67-17.91.22-1.19.63-2.16,1.91-2.2,1.49-.06,2.12,1,2.17,2.34a20.2,20.2,0,0,1,0,4c-.83,4.93,1.89,7.49,5.9,9.33A58.75,58.75,0,0,0,95,149.16c13,1.24,25.84,1,38.42-2.83,1.54-.47,3.05-1.07,4.54-1.68,4.52-1.85,7.32-4.65,6.65-10.14-.23-1.95-1.64-5.83,2.1-5.74,3.16.08,1.55,3.64,1.87,5.69,1.2,7.48-2.93,11.53-9.25,14.15C129,152.87,118.2,153.79,107.24,154Z"/><path class="cls-1" d="M43.61,27.3c3.42,0,5.62,1.51,6.69,4.22,1.19,3,.75,6.07-2,7.94-2,1.36-2.32,2.95-2.29,5.07.08,5.92.17,11.85,0,17.76a5.34,5.34,0,0,0,3.12,5.45c3.05,1.71,5.92,3.72,8.87,5.58,1.33.84,2.63,1.82,1.51,3.53-1,1.45-2.3.87-3.52.09-4.08-2.61-8.16-5.21-12.27-7.76-1.62-1-1.83-2.44-1.81-4.15.05-6.86,0-13.72.05-20.58,0-2.11-.25-3.69-2.26-5.08a6,6,0,0,1-2.11-7.54A6.5,6.5,0,0,1,43.61,27.3ZM44.05,37c1.54-.32,2.66-1.12,2.58-2.91a2.47,2.47,0,0,0-2.49-2.57,2.53,2.53,0,0,0-2.87,2.62C41.21,35.77,42.32,36.73,44.05,37Z"/><path class="cls-1" d="M170.22,27.29c3.41.1,5.59,1.61,6.73,4.56s.4,5.8-2.13,7.53c-2,1.4-2.26,3-2.24,5.09.07,6.73-.08,13.46.08,20.18a5.22,5.22,0,0,1-2.88,5.22c-3.71,2.17-7.28,4.58-10.92,6.88-1.27.81-2.71,1.78-3.85.06s.25-2.67,1.56-3.5c2.39-1.51,4.62-3.37,7.17-4.5,4.09-1.82,5.22-4.71,4.84-9s-.1-8.33-.08-12.51c0-3.29.41-6.42-3.14-8.77-2.39-1.59-2.28-4.78-1-7.41A6.43,6.43,0,0,1,170.22,27.29Zm.36,9.7c1.62-.38,2.77-1.27,2.59-3a2.51,2.51,0,0,0-3-2.48,2.48,2.48,0,0,0-2.37,2.69C167.85,36,169,36.73,170.58,37Z"/><path class="cls-1" d="M23.58,150.53a6.5,6.5,0,0,1-6.48-5.09c-1-3.42.39-6.15,3.4-7.85s5.76-1.08,8.14,1.26c4.7,4.6,9.77,3.84,12.75-2,.74-1.43,1.45-2.88,2.19-4.32,4.47-8.67,4.47-8.65,14.21-7.83,1.59.13,3.18.38,3,2.34-.12,1.7-1.7,2.13-3.06,1.83-6.73-1.46-9.8,2.3-11.68,7.91-.13.38-.41.71-.53,1.09-1.84,6.08-5.55,9.16-12.18,7.75-2-.41-3.17.48-4.23,2.2A5.92,5.92,0,0,1,23.58,150.53Zm.32-9.62c-1.74.14-2.84,1.09-2.86,2.74a2.51,2.51,0,0,0,2.77,2.69,2.42,2.42,0,0,0,2.58-2.44C26.53,142.12,25.45,141.29,23.9,140.91Z"/><path class="cls-1" d="M161.25,124.73c4.1-1.17,6.87,1,8.44,5.46.74,2.14,2.38,4,3,6.14,1.4,4.6,4.43,5.78,8.84,5.24a4.72,4.72,0,0,0,3.63-1.9c2.87-3.61,7.19-3.93,10.23-1.07a6.89,6.89,0,0,1,0,10.08,6.58,6.58,0,0,1-10.2-1c-1.71-2.57-3.89-2.26-6-1.95-4.95.73-7.91-1.14-9.38-5.85-.48-1.52-1.61-2.83-2.12-4.34-1.73-5.07-4.78-7.75-10.47-6.63-1.51.3-3.66.26-3.67-2s2-2.15,3.63-2.15Zm29.62,21.64a2.58,2.58,0,0,0,2.53-2.93,2.67,2.67,0,0,0-5.34.27C188.08,145.46,189.15,146.29,190.87,146.37Z"/><path class="cls-1" d="M163.91,106c4.63-1.59,7.26,1.62,9.67,5.8,2.84,4.94,6.65,5.13,10.66.91a6.9,6.9,0,1,1,10,9.51c-2.7,2.82-7.32,3.18-9.64,0-2-2.66-4.17-3-6.91-2.71s-5-.41-6.19-3.23c-2.11-5.2-5.89-7.27-11.42-6.2a10.86,10.86,0,0,1-2.42,0c-1.38,0-2.93,0-3-1.92,0-2,1.55-2.23,3.14-2.23C159.59,106,161.34,106,163.91,106Zm28.14,11.11c-.45-1.31-1.19-2.53-3-2.37a2.5,2.5,0,0,0-2.49,2.6,2.56,2.56,0,0,0,2.7,2.83C190.92,120.19,191.86,119,192.05,117.14Z"/><path class="cls-1" d="M25,124.42a6.72,6.72,0,0,1-6.49-5.3,6.35,6.35,0,0,1,3.2-7.58,6.45,6.45,0,0,1,8.47,1.18c4.1,4.16,7.62,3.86,10.77-.81,1.38-2,2-5.33,4.73-5.67a82.77,82.77,0,0,1,12.5,0,1.81,1.81,0,0,1,1.6,2,1.77,1.77,0,0,1-1.74,1.85,4.11,4.11,0,0,1-1.2.09c-7.05-1.3-12.17,1-15,7.85-.92,2.23-3.24,1.56-5,1.53-2.73-.05-5.25-.2-6.89,2.78C29.09,123.85,27.15,124.35,25,124.42Zm2.92-7.4c-.41-1.31-1.21-2.46-3-2.25a2.54,2.54,0,0,0-2.43,2.68,2.58,2.58,0,0,0,2.79,2.74C26.93,120.14,27.87,119,27.93,117Z"/><path class="cls-1" d="M51.19,94.37c-4.87,1.61-7.92-1.23-10.47-5.89-2.62-4.81-6.57-4.92-10.37-.83a7,7,0,0,1-9.81.5,6.86,6.86,0,0,1-.13-10.07c2.81-2.74,7.38-3,9.62.29,2,2.87,4.39,2.69,7,2.52s4.82.43,5.86,3.1C45,89.46,49,91.31,54.62,90.34a15.88,15.88,0,0,1,3.23,0,1.79,1.79,0,0,1,1.91,1.69A1.89,1.89,0,0,1,58,94.33C56,94.48,54,94.37,51.19,94.37ZM25.1,85.75c1.71-.15,2.82-1,2.8-2.74a2.55,2.55,0,0,0-2.8-2.69,2.56,2.56,0,0,0-2.6,2.53A2.64,2.64,0,0,0,25.1,85.75Z"/><path class="cls-1" d="M196.22,83.16a7,7,0,0,1-12.3,4.24c-3.2-3.69-7.27-3.37-10,.58-1.51,2.18-2.21,5.69-4.86,6.16-4,.72-8.31.28-12.48.2a1.89,1.89,0,0,1-1.88-2.18,1.8,1.8,0,0,1,1.84-1.78,5.4,5.4,0,0,1,1.2-.06c6.81,1.16,12-.63,14.71-7.59.87-2.23,3.06-1.84,4.92-1.78,2.83.09,5.3.07,7.29-2.81,1.63-2.36,4.56-2.68,7.34-1.43A7,7,0,0,1,196.22,83.16ZM189,85.74c1.81,0,2.9-1,2.93-2.66a2.59,2.59,0,0,0-2.75-2.78,2.55,2.55,0,0,0-2.64,2.47C186.43,84.53,187.45,85.44,189,85.74Z"/><path class="cls-1" d="M46,156c-1.29-4.26,1.22-7.61,4.95-10.58,2.2-1.75,4.12-3.85,6.19-5.78,1-.93,2.12-1.27,3.21-.24s.6,2.22-.32,3.15a33.72,33.72,0,0,1-4.4,4.15c-4.58,3.14-6.14,7.33-5.52,12.78.28,2.48.38,4.42,2.71,6.14,3,2.2,2.94,6.62.55,9.38a6.93,6.93,0,0,1-9.75.68,6.79,6.79,0,0,1-.9-9.43C46,162,46,162,46,156Zm4.8,14.67c0-1.89-1-2.91-2.73-2.9a2.68,2.68,0,0,0,.16,5.36A2.44,2.44,0,0,0,50.75,170.62Z"/><path class="cls-1" d="M173.38,170.51c-.49,3.28-1.95,5.75-5.24,6.55s-6.21-.25-7.84-3.39a6.54,6.54,0,0,1,1.26-8.15c4.09-4.15,3.95-12.47-.32-16.56-2.24-2.13-4.5-4.25-6.72-6.41-.93-.91-1.56-2-.42-3.14s2.21-.81,3.21.13c3.42,3.23,7,6.36,10.19,9.77,2.06,2.18.81,5.17,1,7.78.22,3.37-.77,7,3.22,9.13C173.08,167,173.19,169,173.38,170.51ZM166,173.08c2,.06,2.95-.9,3-2.57a2.5,2.5,0,0,0-2.68-2.78,2.69,2.69,0,0,0-.34,5.35Z"/><path class="cls-1" d="M84.54,158.07c2.88,0,5.59,2.62,5.39,5.33-.08,1.08-.33,2.18-1.63,2.47a1.85,1.85,0,0,1-2.4-1.5c-.45-1.78-1.06-3-2.68-.83-.81,1.09-1.74,1.82-3,.87s-1-2.41-.29-3.61A5.19,5.19,0,0,1,84.54,158.07Z"/><path class="cls-1" d="M107.25,159.83a5.07,5.07,0,0,1,5,4c.36,1.26.3,2.51-1,3.15s-2.29-.14-2.8-1.4c-.72-1.78-1.58-2.3-2.6-.28-.7,1.38-1.5,2.38-3.07,1.34s-1.09-2.59-.4-3.95A5.15,5.15,0,0,1,107.25,159.83Z"/><path class="cls-1" d="M130.16,158.09a5.08,5.08,0,0,1,4.32,2.19c.82,1.25,1.68,2.62.23,3.95s-2.34.39-3.25-.82c-1.32-1.75-2.12-1.2-2.5.7a1.92,1.92,0,0,1-2.62,1.7c-1.44-.43-1.55-1.73-1.39-3C125.36,159.69,127.34,158.25,130.16,158.09Z"/><path class="cls-1" d="M86.76,142.22a19.58,19.58,0,0,1-7.6-2.86c-1.15-.73-1.71-1.76-1-3.05s2-1.13,3.11-.48A17,17,0,0,0,88,138.18c1.37.12,2.38.73,2.28,2.21C90.18,142.18,88.84,142.39,86.76,142.22Z"/><path class="cls-1" d="M137.92,138.35c-.27,1.82-1.25,3.05-3.16,3a2.73,2.73,0,0,1-2.7-2.94,2.67,2.67,0,0,1,2.67-3C136.61,135.31,137.67,136.45,137.92,138.35Z"/><path class="cls-1" d="M83.48,118.16c-1.79-.18-2.88-1.08-2.94-2.78a2.69,2.69,0,0,1,2.93-3c1.89,0,2.91,1.22,2.81,3.13A2.75,2.75,0,0,1,83.48,118.16Z"/><path class="cls-1" d="M128.24,141c-.22,1.85-1.19,3-3.11,2.93a2.59,2.59,0,0,1-2.72-2.83,2.63,2.63,0,0,1,2.61-2.95C127,138.07,127.93,139.21,128.24,141Z"/><path class="cls-1" d="M89.36,94.78c0,2-.36,3.18-1.73,3.53a1.77,1.77,0,0,1-2.29-1.64c-.43-2.43-1.24-2.92-2.86-.74-.72,1-1.71,1.38-2.78.55s-1-2.12-.41-3.26a5.39,5.39,0,0,1,10.07,1.56Z"/><path class="cls-1" d="M123.17,97.24a1.91,1.91,0,0,1-2.3-1.62c-.26-1.53.75-2.15,2-2.45,2.73-.64,5.47-1.27,8.19-1.93,1.27-.31,2.52-.38,3,1.06.62,1.7-.6,2.47-1.93,2.93A36.31,36.31,0,0,1,123.17,97.24Z"/><path class="cls-1" d="M117.32,26.16A10.1,10.1,0,1,1,107.44,16,10.16,10.16,0,0,1,117.32,26.16Zm-10.29-6a5.93,5.93,0,0,0-5.69,6,5.89,5.89,0,1,0,11.76-.39A5.89,5.89,0,0,0,107,20.19Z"/></svg>