<svg id="Capa_1" data-name="Capa 1" xmlns="http://www.w3.org/2000/svg" viewBox="0 0 224.68 199.45"><defs><style>.cls-1{fill:#c7895e;}</style></defs><path class="cls-1" d="M165.49,152.13a18.58,18.58,0,0,0-22.57-5.23c-2.71,1.26-5.4,2.57-8,4-1.14.63-1.65.37-2.26-.65-.88-1.5-1.92-2.89-2.86-4.35a1.65,1.65,0,0,0-1.51-.87,12,12,0,1,0,0,24.08,1.53,1.53,0,0,0,1.42-.76c1-1.63,2.17-3.2,3.18-4.84.46-.75.85-.81,1.6-.42,2.65,1.38,5.33,2.7,8,4a19.35,19.35,0,0,0,9.12,2A18.28,18.28,0,0,0,163.74,164c2-1.85,3.4-4.18,5.08-6.3.39-.49.23-.84-.1-1.26C167.63,155,166.61,153.52,165.49,152.13Zm-36.2,8.07c-.59.75-1.08,1.59-1.61,2.39-1.18,1.76-1.23,1.81-3.05.79a7.12,7.12,0,0,1,.64-12.88c.93-.42,1.59-.36,2.13.65a26.38,26.38,0,0,0,1.83,2.76c.69,1,1.29,2,.92,3.11A3.71,3.71,0,0,1,129.29,160.2Zm33.39-2.5a14.22,14.22,0,0,1-12.15,6.47,12.36,12.36,0,0,1-5.66-1.36c-2.94-1.43-5.85-2.93-8.8-4.37a1.37,1.37,0,0,1-1-1.39,1.33,1.33,0,0,1,.94-1.28c3-1.49,6-3.07,9.06-4.49a14,14,0,0,1,17.64,5.28A.9.9,0,0,1,162.68,157.7Z"/><path class="cls-1" d="M154.24,152.25a2.46,2.46,0,1,0,2.4,2.4A2.43,2.43,0,0,0,154.24,152.25Z"/><path class="cls-1" d="M75.3,109.19A2.4,2.4,0,1,0,73,111.67,2.46,2.46,0,0,0,75.3,109.19Z"/><path class="cls-1" d="M46.67,135.55l.55.84a5.05,5.05,0,0,1,1,.43c2.9,1.42,5.7,3,9,3.38a20.89,20.89,0,0,0,13.15-2.32A17.33,17.33,0,0,1,83,136.09a22.44,22.44,0,0,1,4.92,2.08,20.34,20.34,0,0,0,18.8.05c3.64-1.82,7.28-2.93,11.38-2.48a21,21,0,0,1,7,2.51,21,21,0,0,0,16.44,1,28.36,28.36,0,0,0,3.81-1.73,16,16,0,0,1,15.41.08c7.16,3.77,14.27,3.87,21.43.05l7.89-5.48V121.27c-8.25,0-16.5,0-24.75,0-1.25,0-1.67-.28-1.61-1.59.12-2.36.06-4.73,0-7.09,0-.79.15-1.18,1-1.4a14,14,0,0,0,10.57-10.58,1.08,1.08,0,0,1,1.17-1,14.3,14.3,0,0,0,13.43-12c0-.08.11-.14.17-.22v-4c-.4-1.22-.72-2.48-1.21-3.66a13.38,13.38,0,0,0-5.22-6.22,1.58,1.58,0,0,1-.81-1.64,11.7,11.7,0,0,0-6.39-11.44A11.52,11.52,0,0,1,172,55.94c-3.17-5.51-8.46-7.62-14.53-5.8-.73.23-1,.19-1.15-.61a11.92,11.92,0,0,0-6.42-8.45,8.44,8.44,0,0,1-3.65-3.42,13.35,13.35,0,0,0-9.47-7.33h-3.48A14.91,14.91,0,0,0,127.5,33a12.68,12.68,0,0,0-3,3.68A11.21,11.21,0,0,1,120,41.27a11.62,11.62,0,0,0-6.34,11.32,1.75,1.75,0,0,1-.86,1.76,14,14,0,0,0-6,15c1.42,5.95,5.27,9.79,11.3,10.82,2.27.39,3,1.22,3.77,3.24A13.35,13.35,0,0,0,131.36,92c1.13.31,1.39.75,1.38,1.84q-.06,13,0,26.07c0,1.06-.24,1.4-1.36,1.39-6.56-.05-13.12,0-19.69,0-1,0-1.42-.1-1.06-1.27a16.67,16.67,0,0,0,.5-4,6,6,0,0,0-9.72-5.39,30.66,30.66,0,0,1-14.24,5.63,5.17,5.17,0,0,1-2.08,0,15.4,15.4,0,0,0,2-5.1,11.91,11.91,0,0,0-23.19-5.27,2.63,2.63,0,0,1-2.18,2.23c-.94.19-1.82.67-2.75.88s-1.09.71-.77,1.63c1.11,3.23,1.09,3.27,4.33,2.22.88-.28,1.11-.13,1.51.74.74,1.64.35,2.49-1,3.64a13.12,13.12,0,0,0-2.55,16.71c.27.45.57.88,1,1.49a13.5,13.5,0,0,1-7.89-1.35c-2.49-1.27-4.94-2.65-7.76-3.06a21.71,21.71,0,0,1-2.44-.35c-1.37-.36-1.55.22-1.55,1.45,0,.8,0,1.59,0,2.39ZM155.32,57.9a7,7,0,0,1,12.15,0,19.05,19.05,0,0,0,7.08,7,6.81,6.81,0,0,1,3.08,8.25c-.75,2.41-.75,2.41,1.67,3.44,4,1.72,6.08,5.1,5.84,9.68a9.37,9.37,0,0,1-6.65,8.11,11.45,11.45,0,0,1-6.41-.17c-1.24-.33-1.43.16-1.3,1.2a10.64,10.64,0,0,1-.42,4.85,9.46,9.46,0,0,1-5.25,5.67c-.92.42-1.28.31-1.26-.8.05-2.9,0-5.79,0-8.69s0-5.6,0-8.4a2,2,0,0,1,1.09-2c2.93-1.68,5.79-3.48,8.71-5.17.87-.5,1-.91.46-1.79-1.9-3.19-1.87-3.21-5-1.31-1.28.76-2.56,1.55-3.85,2.3-.36.21-.72.69-1.13.49s-.28-.8-.21-1.18c.61-3.48-.68-6.09-3.44-8.21a34.76,34.76,0,0,1-3.81-3.77c-.52-.54-.9-.58-1.42,0a27.26,27.26,0,0,1-2.15,2.15c-.59.54-.45.92.06,1.42,1.65,1.62,3.27,3.27,4.93,4.9a2.26,2.26,0,0,1,.83,1.74q0,4.57,0,9.13c0,1-.21,1.21-1.12.64-2-1.28-4.15-2.47-6.19-3.74-.68-.42-1-.36-1.49.34-2.15,3.33-2.17,3.32,1.26,5.36,2.2,1.31,4.38,2.65,6.59,3.93a1.64,1.64,0,0,1,1,1.6c0,3.37,0,6.75,0,10.13,0,1.22-.47,1.28-1.39.82a9.36,9.36,0,0,1-5.55-8.93c0-2.82,0-2.86-2.76-2.37-4.1.73-7.47-.44-9.9-3.84A9.38,9.38,0,0,1,142.58,77c.43-.22.87-.41,1.32-.59,2.07-.82,2.07-.82,1.35-3a6.85,6.85,0,0,1,3.11-8.59A18.92,18.92,0,0,0,155.32,57.9ZM159,120c0,.8-.12,1.22-1.09,1.22-6.46,0-12.93,0-19.39,0-.79,0-1.12-.19-1.11-1,0-7.81,0-15.63,0-23.45a2.86,2.86,0,0,1,.15-.53c2,1.45,3.94,2.92,6.32,3s3.51,1.18,4.34,3.56c1.52,4.34,4.93,7.07,9.39,8.26,1.13.3,1.43.76,1.39,1.86C159,115.31,159,117.67,159,120ZM132.69,63.23a24.81,24.81,0,0,0,0,4.48c.05,1.2-.34,1.16-1.21.62-2-1.27-4.14-2.46-6.18-3.74-.67-.42-1-.39-1.48.32-2.13,3.29-2.15,3.28,1.18,5.27,2.19,1.31,4.36,2.66,6.58,3.93a1.94,1.94,0,0,1,1.13,1.94c-.07,3.28,0,6.56,0,9.84,0,1.41-.13,1.48-1.48.87a9.56,9.56,0,0,1-5.58-9.2c.06-2.6.06-2.61-2.54-2.12-4.12.78-7.61-.31-10.06-3.78a9.15,9.15,0,0,1-.43-10.24,9.25,9.25,0,0,1,5.71-4.37c1.15-.35,1.35-.83.94-2-1.64-4.52-.56-7.4,3.59-9.84a17.32,17.32,0,0,0,6.12-6.4,7,7,0,0,1,12.36,0l.37.62a14.54,14.54,0,0,0,5.87,5.84c3.46,1.83,4.64,4.82,4.2,8.45-.2,1.65-1.44,3-2.53,4.29A12.33,12.33,0,0,1,146,60.48a11.62,11.62,0,0,0-6.11,11.44c.11,1.58-1.38,1.47-2,2.45a3.72,3.72,0,0,1-.27-2c0-5.12,0-10.23,0-15.34a3.15,3.15,0,0,0-1.07-2.53c-2.09-2-4.12-4.06-6.14-6.14-.57-.59-.92-.57-1.52,0-2.83,2.66-3,2.87,0,5.34S133.28,59.25,132.69,63.23Zm-24.51,63.5a1,1,0,0,1,1-.53h74c2,0,2,0,2,2,0,2.76,0,2.74-2.58,3.77a27.46,27.46,0,0,0-2.75,1.28,16.58,16.58,0,0,1-16.43.05,21.16,21.16,0,0,0-20.75,0,16.53,16.53,0,0,1-16.3,0,21.33,21.33,0,0,0-20.88,0,11.3,11.3,0,0,1-5,1.65A28.49,28.49,0,0,0,108.18,126.73ZM66.62,120.4a37.48,37.48,0,0,1,3.93-2.7c1.06-.62,1.23-1.1.25-2a8,8,0,0,1-2.64-6.48,7.14,7.14,0,1,1,8.42,7c-1.07.17-1.32.51-1.31,1.53,0,3.46,0,3.46,3.47,3.46h2.32a35.82,35.82,0,0,0,23.15-6.76,1.27,1.27,0,0,1,1.47-.24,1.4,1.4,0,0,1,.69,1.47,17.65,17.65,0,0,1-4.69,11.54,26.52,26.52,0,0,1-9.92,6.59,2.88,2.88,0,0,1-2.69-.51A21.53,21.53,0,0,0,73.5,131.4a19.6,19.6,0,0,0-5.33,2.22,1.52,1.52,0,0,1-2-.27A8.47,8.47,0,0,1,66.62,120.4Z"/><path class="cls-1" d="M51.3,76c-.51,2.77-.51,2.75,2.29,2.22,6.1-1.18,11,.78,14.72,5.74l2.32,3.08c.53-.79,1-1.46,1.44-2.14C76,79.08,80.92,77,87.86,78.34c2.43.46,2.48.45,1.93-2.07A13.8,13.8,0,0,1,94,62.43a26.1,26.1,0,0,1,3.45-2.62c1-.64,1.16-1.08,0-1.69a19.3,19.3,0,0,1-2.28-1.53,13.93,13.93,0,0,1-5.62-9.27,18.72,18.72,0,0,1,.54-6.88c.2-1,0-1.16-1-.95a18.89,18.89,0,0,1-6.74.57c-4.68-.71-8-3.36-10.55-7.17-1.34-2-1.41-1.93-2.75.09-3.92,5.91-9.06,8.13-15.73,6.8-2.59-.52-2.58-.52-2.07,2Q53.14,51.33,45.31,57c-.92.67-1.82,1.37-2.82,2.13l2.41,1.64C50.38,64.45,52.49,69.54,51.3,76Zm0-17.62a18.91,18.91,0,0,0,5.3-12.2c0-.78.31-1.07,1.11-1.12a18.83,18.83,0,0,0,12.19-5.31c.51-.5.84-.41,1.31,0a18.8,18.8,0,0,0,12.21,5.28c.7,0,1.05.26,1.09,1a18.82,18.82,0,0,0,5.41,12.45,4.43,4.43,0,0,1,.31.41c0,.45-.36.62-.58.86a18,18,0,0,0-5,11.54c-.06,1.32-.65,1.69-1.86,1.76A17.75,17.75,0,0,0,71.54,78c-.75.69-1.14.84-2,.07a17.57,17.57,0,0,0-11.28-5c-1.16-.08-1.74-.39-1.83-1.75a18.24,18.24,0,0,0-5.2-11.63C50.82,59.23,50.77,58.9,51.26,58.4Z"/><path class="cls-1" d="M70.58,73.52A14.5,14.5,0,1,0,56,59,14.62,14.62,0,0,0,70.58,73.52Zm0-24A9.51,9.51,0,1,1,61,59,9.55,9.55,0,0,1,70.61,49.51Z"/></svg>