<svg xmlns="http://www.w3.org/2000/svg" viewBox="0 0 290.68 239.36"><defs><style>.cls-1{isolation:isolate;}.cls-2{mix-blend-mode:soft-light;}.cls-3{fill:#fff;}.cls-4{fill:#6c2911;}</style></defs><g class="cls-1"><g id="Capa_1" data-name="Capa 1"><g class="cls-2"><circle class="cls-3" cx="159.12" cy="111.46" r="95.18" transform="translate(-32.21 145.16) rotate(-45)"/></g><path class="cls-4" d="M151.55,101.77c-3-2.11-6-4-8.79-6.24A46.74,46.74,0,0,1,128.93,78c-4.26-9.3-1.43-17.24,8-21.34a53.79,53.79,0,0,0,27.39-26.21c1.87-3.74,1.08-4.54-3-4.6C107,25.09,65.22,72.6,72.47,127.13c.32,2.36.57,4.57-1,6.51a5.7,5.7,0,0,1-6.12,2.18c-3.28-.87-4.51-3.37-5-6.56-3-21.56.25-42.08,10.3-61.39A100.92,100.92,0,0,1,179,15.27c43.09,7.93,76.36,43.68,81.5,87.56,9,76.63-69.17,134.88-140,104.37-.75-.32-1.5-.66-2.24-1-4.86-2.28-6.56-5.49-4.83-9.09s5-4.35,9.69-2.19a95,95,0,0,0,25.83,7.42c15.19,2.24,37-1.2,47.91-7.81a22.45,22.45,0,0,0-14.67-5.62,17.14,17.14,0,0,1-13.43-6c-5.3-6.11-3.78-14,3.51-17.58a56,56,0,0,0,13.84-9.16,5.79,5.79,0,0,0,2.12-4.67A20,20,0,0,0,172,132c-8.83-1.71-17.69-3.22-26.52-4.89-6.65-1.25-11.06-5.44-11.68-10.91s2-9.1,7.66-9.83C145.23,105.84,148.9,105.28,151.55,101.77Zm30,22.06a5.11,5.11,0,0,0,.32-1.3c-.35-3.89-.72-8.29,4.48-8.72s5.33,3.87,5.76,7.82c1.28,11.54,5.13,22,14.24,29.78,2.73,2.35,4.9,4.88,2.23,8.29s-5.71,2.27-8.53-.13c-1.13-1-1.93-2-3.42,0-4.72,6.26-11,10.59-18,14-.93.46-2.66.61-2.21,2.1a4.55,4.55,0,0,0,2.46,2.2,10.26,10.26,0,0,0,3.81.74,33.21,33.21,0,0,1,21.1,8.16c2.87,2.43,4.8,2.08,7.54,0,21.25-15.69,33.63-36.46,37-62.76,5.5-43.29-25.39-87.1-67.87-96-2.6-.55-4.07-.31-5.22,2.55C168.64,47,157.32,59,141,66c-3.92,1.69-4.55,4.16-2.79,7.82,3.89,8.12,10,14,17.8,18.35,8,4.48,8.74,11,2.4,17.57-3.22,3.34-7.39,5-12.51,6.87C158.37,119.39,170.06,120.5,181.54,123.83Z"/><path class="cls-4" d="M52.81,188.45a47.44,47.44,0,0,1-15-2.62c-3.23-1.17-5-3.46-3.73-6.85,1.11-3.07,3.6-3.93,6.79-2.91,16.75,5.34,30.91.26,42.17-12.17,12.12-13.37,26.46-18.24,44.06-15.56,8.21,1.25,16.62,2.17,24.3-2.83,2.62-1.71,5.24-.64,6.69,2s.77,5.14-1.78,6.86a30.87,30.87,0,0,1-16.14,5.14c-6.26.31-12.43-.63-18.59-1.35-11.84-1.4-21.49,2.36-29.38,11.22-8.15,9.15-18,15.69-30.19,18C59,187.94,55.9,188.1,52.81,188.45Z"/><path class="cls-4" d="M56.65,208.86c16.17.32,27.85-7.9,36.26-21.4S113.62,167,129.48,166.3c3.27-.15,6.53-.54,9.79-.78,5.85-.42,11.25-2,15.77-5.93,2.6-2.29,5.41-2.61,7.72.22s1.25,5.43-1.25,7.72c-6.82,6.23-15.27,7.8-24,8.52-2.45.21-4.91.26-7.36.38-12.7.6-22.22,6.16-29,17.16C92,208.26,79,217.43,61.3,219A47.63,47.63,0,0,1,51,218.5c-3.27-.43-5.27-2.35-5-5.53.3-3.51,2.76-5,6.28-4.55C53.61,208.58,54.92,208.69,56.65,208.86Z"/><path class="cls-4" d="M105.51,138c-8.53,0-15.13,3.32-21.09,8.25-12,9.9-25.4,15.32-41.2,13.42a43.77,43.77,0,0,1-14.93-4.54c-3.08-1.58-4.58-4-3.05-7.21s4.29-3.55,7.48-2c15.25,7.29,29.83,4.87,42.21-5.53,14.79-12.42,30.54-15.07,48.5-9.46,7.37,2.3,14.91,3.69,22.53.29a4.57,4.57,0,0,1,6.52,2.61c1.2,3,0,5.46-2.93,6.86-7.13,3.37-14.53,3.31-22.08,1.78S112.69,138.13,105.51,138Z"/><path class="cls-4" d="M165.29,83.92a20,20,0,0,1,11.58,7.93,3.79,3.79,0,0,1-.57,5.29,3.67,3.67,0,0,1-5.62-.23,20.63,20.63,0,0,0-7.94-5.39,3.67,3.67,0,0,1-2.19-4.82C161.19,84.54,162.83,83.68,165.29,83.92Z"/></g></g></svg>