<svg id="Capa_1" data-name="Capa 1" xmlns="http://www.w3.org/2000/svg" viewBox="0 0 224.68 199.45"><defs><style>.cls-1{fill:#6c2910;}</style></defs><path class="cls-1" d="M147.16,175.33a2.94,2.94,0,0,1-1.68-3.28c.26-3.51.41-7,.62-10.55a6.54,6.54,0,0,1,3.63-5.47A63.18,63.18,0,0,1,156,153c1.17-.5,1.69-1.12,1.5-2.4a4.75,4.75,0,0,0-.39-1.61,19.18,19.18,0,0,1-1.64-6.62,14.72,14.72,0,0,1-.09-4.91,9.22,9.22,0,0,1,17.89-.06,10,10,0,0,1,.1,3.53c-.35,2.62-.42,5.31-1.63,7.73a6.33,6.33,0,0,0-.58,3,.79.79,0,0,0,.54.81c2,.95,4.05,1.89,6.06,2.87,2.56,1.25,4.59,3,4.84,6.07.16,2,.21,4,.34,5.92a27.21,27.21,0,0,0,.3,3.83v2.47a3.69,3.69,0,0,1-1.7,1.7h-1.39a3.3,3.3,0,0,1-1.72-3.24c-.09-3.11-.41-6.21-.45-9.32a3.17,3.17,0,0,0-2.16-3.1c-1.44-.67-2.89-1.34-4.31-2.06-.51-.25-.78-.22-1.12.28-1.27,1.9-2.6,3.76-3.91,5.64s-3.08,1.8-4.33,0c-1.06-1.52-2.11-3-3.17-4.55-1.18-1.69-1.18-1.69-3-.8-1.23.59-2.47,1.15-3.68,1.78a2.64,2.64,0,0,0-1.55,2.45c-.11,3.28-.38,6.57-.5,9.85a3,3,0,0,1-1.86,3.05Zm21.61-35.8a3.78,3.78,0,0,0-1.85-3.59,4.27,4.27,0,0,0-4.59-.3,3.84,3.84,0,0,0-2.35,3.9,36.69,36.69,0,0,0,.81,5.71,6.14,6.14,0,0,0,1.07,2.37,3.1,3.1,0,0,0,5.2-.19,6.25,6.25,0,0,0,.78-1.75A41.13,41.13,0,0,0,168.77,139.53Zm-6.52,14.87c0,.35-.11.78.15,1.16l1.67,2.4c.21.32.36.29.56,0a16.84,16.84,0,0,1,1.19-1.71,2.9,2.9,0,0,0,.65-2.21c0-.45-.07-.65-.61-.5a5.6,5.6,0,0,1-2.67.07C162.25,153.39,162.25,153.41,162.25,154.4Z"/><path class="cls-1" d="M52.43,24.12a20.41,20.41,0,0,1,2.4.79c3.35,1.75,5.36,4.39,5.25,8.29a34.7,34.7,0,0,1-1,7.16,7.11,7.11,0,0,1-.75,2A5.06,5.06,0,0,0,57.77,45a1.22,1.22,0,0,0,.84,1.33c2,.9,4,1.86,6,2.83,2.89,1.42,4.74,3.54,4.69,7,0,1.15.12,2.3.19,3.46.12,2.21.26,4.41.37,6.62A2.41,2.41,0,0,1,67.57,69c-1.39,0-2.37-1-2.46-2.59-.2-3.46-.41-6.93-.55-10.39a2.41,2.41,0,0,0-1.35-2.25c-1.78-.91-3.6-1.75-5.4-2.63-.47-.22-.59.16-.77.42l-3.92,5.62C51.85,59,50,59,48.74,57.18s-2.62-3.75-3.9-5.64c-.29-.42-.53-.52-1-.28-1.5.75-3,1.44-4.52,2.17a3,3,0,0,0-2,2.9c-.07,3.37-.33,6.73-.51,10.09a2.48,2.48,0,0,1-1.43,2.37A2.34,2.34,0,0,1,33,68.53c-.44-.31-.6-.82-.92-1.21V64.85a1.19,1.19,0,0,0,.13-.67c.16-3,.33-6,.49-8.92a6.17,6.17,0,0,1,1.47-3.73A10,10,0,0,1,37.66,49c2-.93,4-1.9,6-2.85.28-.13.47-.27.46-.62,0-1.12.15-2.26-.56-3.27a4.2,4.2,0,0,1-.41-1,30.66,30.66,0,0,1-1.26-7.42A8.58,8.58,0,0,1,46,25.5a12.4,12.4,0,0,1,3.48-1.38Zm2.93,9.1a3.78,3.78,0,0,0-1.7-3.51,4.31,4.31,0,0,0-4.59-.46,3.68,3.68,0,0,0-2.48,3.42,23.25,23.25,0,0,0,1.08,7.12c.62,1.85,1.88,2.87,3.34,2.84s2.67-1,3.29-2.9A32.63,32.63,0,0,0,55.36,33.22Zm-2.31,15v-.71c0-.28,0-.45-.39-.36a6.08,6.08,0,0,1-3.41,0c-.18,0-.4-.08-.39.2,0,.63-.21,1.3.15,1.88.51.83,1.1,1.6,1.65,2.41.2.3.35.3.55,0,.44-.66.88-1.32,1.37-2A1.8,1.8,0,0,0,53.05,48.23Z"/><path class="cls-1" d="M32.06,171.32a19.63,19.63,0,0,0,.25-3.06c.14-2,.3-4,.32-6a7,7,0,0,1,3.9-6.36c1.64-.91,3.37-1.65,5-2.47.65-.31,1.29-.65,2-.93a.86.86,0,0,0,.58-.94,7.38,7.38,0,0,0-.62-3.19,22.42,22.42,0,0,1-1.6-9.74,8.76,8.76,0,0,1,7.76-8.11,9.15,9.15,0,0,1,10.24,6.8,10,10,0,0,1,.12,3.45c-.35,2.65-.42,5.37-1.63,7.81a6.38,6.38,0,0,0-.59,3.11.75.75,0,0,0,.48.77c2,.92,3.94,1.89,5.92,2.8A10.14,10.14,0,0,1,67.88,158a6,6,0,0,1,1.35,3.46c.2,3.54.36,7.09.62,10.62a2.94,2.94,0,0,1-1.69,3.28H66.93a2.86,2.86,0,0,1-1.85-2.9c-.13-3.26-.42-6.52-.49-9.78a3,3,0,0,0-2-2.9c-1.53-.73-3.07-1.44-4.59-2.19a.62.62,0,0,0-1,.25c-1.27,1.87-2.58,3.71-3.86,5.58s-3.15,2-4.51.05c-1.19-1.71-2.37-3.43-3.57-5.13-.87-1.23-.55-1.07-1.77-.48-1.57.77-3.2,1.42-4.71,2.31a2.42,2.42,0,0,0-1.28,2.13c-.14,3.36-.39,6.72-.52,10.09a2.91,2.91,0,0,1-1.86,3H33.76a3.55,3.55,0,0,1-1.7-1.7Zm23.29-31.53a4.16,4.16,0,0,0-2.48-4.23c-3.13-1.42-6.57,1-6.31,4a40.05,40.05,0,0,0,.84,5.78,6.53,6.53,0,0,0,.9,2.12,3.14,3.14,0,0,0,5.47-.17,6.65,6.65,0,0,0,.72-1.77A43.3,43.3,0,0,0,55.35,139.79ZM53,154.33c-.33-.09.59-1-.44-.81a6.82,6.82,0,0,1-3.27,0c-.37-.1-.45,0-.46.37a3.08,3.08,0,0,0,.6,2.38,10,10,0,0,1,1.07,1.51c.29.48.5.57.83,0A21.61,21.61,0,0,1,52.58,156,1.9,1.9,0,0,0,53,154.33Z"/><path class="cls-1" d="M183.27,67.32c-.1.15-.2.29-.29.44A2.34,2.34,0,0,1,180.53,69a2.28,2.28,0,0,1-1.95-2c-.13-1.12-.16-2.25-.22-3.38-.15-2.59-.31-5.18-.42-7.78a2.06,2.06,0,0,0-1-1.79c-1.83-1.15-3.87-1.9-5.79-2.88-.38-.19-.5.14-.65.36-1.31,1.87-2.61,3.75-3.92,5.63s-3.14,1.93-4.47,0-2.57-3.66-3.81-5.51c-.35-.53-.64-.58-1.18-.3-1.4.71-2.83,1.35-4.24,2a3.22,3.22,0,0,0-2.15,3.12c-.06,3.32-.32,6.62-.51,9.93C150.13,68,149.16,69,147.78,69a2.36,2.36,0,0,1-2.3-2.64c.15-3.21.35-6.42.53-9.62,0-.7,0-1.4.14-2.08.43-2.81,2.31-4.43,4.7-5.6q3-1.47,6.05-2.88a1,1,0,0,0,.62-1,7.32,7.32,0,0,0-.61-3.11,24,24,0,0,1-1.62-9.89c.09-4,3.71-7.08,6.59-7.78a2.6,2.6,0,0,0,1-.29h2.93a1.7,1.7,0,0,0,.35.14,9.22,9.22,0,0,1,5.66,3.59,6.86,6.86,0,0,1,1.57,4,24.85,24.85,0,0,1-1.65,10.49,7.05,7.05,0,0,0-.58,2.74,1.14,1.14,0,0,0,.76,1.22c2.15,1,4.3,2,6.4,3.05,2.71,1.39,4.36,3.49,4.36,6.71,0,1.9.16,3.8.31,5.7a17.33,17.33,0,0,0,.26,3.13Zm-14.5-34.13a3.77,3.77,0,0,0-1.8-3.54,4.29,4.29,0,0,0-4.61-.35A3.82,3.82,0,0,0,160,33.19a26.84,26.84,0,0,0,1.07,6.53c.62,1.85,1.84,2.9,3.29,2.91s2.75-1,3.37-2.91A32.83,32.83,0,0,0,168.77,33.19Zm-6.52,15c0,.88,0,.89.88,2.12.39.54.7,1.5,1.18,1.5s.82-1,1.25-1.5a3.16,3.16,0,0,0,.91-2.65c-.05-.37-.07-.56-.53-.44a5.73,5.73,0,0,1-3.18,0c-.36-.11-.54,0-.51.37C162.26,47.75,162.25,48,162.25,48.16Z"/><path class="cls-1" d="M122.31,131.29a6.32,6.32,0,0,1-4.39-1.78c-.28-.27-.5-.53-1-.32s-.47.51-.48.91a6.31,6.31,0,0,1-6.35,6.23c-1.59,0-3.19,0-4.78,0a6.28,6.28,0,0,1-6.44-6.28c0-.39-.06-.67-.48-.85a.73.73,0,0,0-.93.24,6.32,6.32,0,0,1-9.07-.12c-1.08-1.06-2.16-2.13-3.22-3.21a6.32,6.32,0,0,1-.12-9.12.76.76,0,0,0,.2-.94c-.16-.4-.41-.44-.77-.45a6.31,6.31,0,0,1-6.35-6.47c0-1.54,0-3.08,0-4.63A6.3,6.3,0,0,1,84.48,98c.35,0,.62,0,.77-.44a.77.77,0,0,0-.17-.94,6.3,6.3,0,0,1,.15-9.17c1-1,2.06-2.08,3.1-3.11a6.31,6.31,0,0,1,9.12-.2c.28.26.51.45.94.26s.47-.44.49-.84a6.3,6.3,0,0,1,6.5-6.31H110a6.31,6.31,0,0,1,6.44,6.3c0,.38,0,.66.47.84s.64,0,.93-.23a6.32,6.32,0,0,1,9.18.22q1.59,1.57,3.16,3.16a6.34,6.34,0,0,1,.19,9c-.28.31-.56.53-.32,1s.55.44.94.45a6.25,6.25,0,0,1,6.15,5.85,51.89,51.89,0,0,1,0,5.85A6.26,6.26,0,0,1,131,115.6c-.42,0-.77,0-1,.5s.08.7.34,1a6.35,6.35,0,0,1-.16,9l-3.27,3.28A6.37,6.37,0,0,1,122.31,131.29ZM82.86,106.78c0,.79,0,1.59,0,2.39a1.59,1.59,0,0,0,1.71,1.68c.72,0,1.44,0,2.16,0A2.22,2.22,0,0,1,89,112.43a31.13,31.13,0,0,0,1.5,3.63,2.23,2.23,0,0,1-.48,2.69c-.48.5-1,1-1.47,1.47a1.59,1.59,0,0,0,0,2.45c1.1,1.15,2.23,2.27,3.38,3.38a1.57,1.57,0,0,0,2.34,0c.5-.47,1-1,1.47-1.46a2.28,2.28,0,0,1,2.89-.48,26,26,0,0,0,3.41,1.41,2.28,2.28,0,0,1,1.64,2.27c0,.72,0,1.44,0,2.16a1.57,1.57,0,0,0,1.61,1.7q2.43.06,4.86,0a1.57,1.57,0,0,0,1.63-1.68c0-.74,0-1.49,0-2.24a2.18,2.18,0,0,1,1.48-2.14c1.28-.46,2.53-1,3.77-1.56a2.15,2.15,0,0,1,2.61.49c.49.5,1,1,1.48,1.47a1.64,1.64,0,0,0,2.57,0c1.08-1.07,2.15-2.14,3.21-3.23a1.55,1.55,0,0,0,0-2.38c-.5-.55-1.06-1.06-1.57-1.59a2.22,2.22,0,0,1-.43-2.7,30.64,30.64,0,0,0,1.47-3.56,2.27,2.27,0,0,1,2.29-1.6c.7,0,1.39,0,2.09,0a1.6,1.6,0,0,0,1.74-1.73q0-2.31,0-4.62a1.64,1.64,0,0,0-1.75-1.74c-.72,0-1.44,0-2.16,0a2.23,2.23,0,0,1-2.21-1.6,27.19,27.19,0,0,0-1.43-3.49,2.24,2.24,0,0,1,.45-2.82c.5-.52,1-1,1.52-1.53a1.56,1.56,0,0,0,0-2.34q-1.64-1.68-3.32-3.33a1.64,1.64,0,0,0-2.52,0c-.51.5-1,1-1.52,1.53a2.12,2.12,0,0,1-2.56.43,38.4,38.4,0,0,0-3.7-1.53,2.23,2.23,0,0,1-1.55-2.25c0-.72,0-1.44,0-2.16A1.59,1.59,0,0,0,110.07,82c-1.59,0-3.19,0-4.78,0a1.59,1.59,0,0,0-1.68,1.72c0,.66,0,1.33,0,2a2.28,2.28,0,0,1-1.73,2.43,26.41,26.41,0,0,0-3.34,1.39,2.29,2.29,0,0,1-2.88-.48c-.48-.47-.94-.95-1.42-1.42a1.6,1.6,0,0,0-2.45,0Q90.1,89.27,88.46,91a1.58,1.58,0,0,0,0,2.39c.49.53,1,1,1.52,1.54a2.25,2.25,0,0,1,.45,2.76A27.72,27.72,0,0,0,89,101.12a2.28,2.28,0,0,1-2.27,1.64c-.72,0-1.44,0-2.16,0a1.6,1.6,0,0,0-1.7,1.69C82.84,105.23,82.86,106,82.86,106.78Z"/><path class="cls-1" d="M105.31,68.18c0-1.18,0-2.36,0-3.54a1,1,0,0,0-.65-1,7,7,0,0,1-3.73-8.66,7.09,7.09,0,0,1,13.79,2.8,6.82,6.82,0,0,1-4.06,5.86,1,1,0,0,0-.66,1c0,2.39,0,4.78,0,7.17,0,.62-.19.79-.79.77a30.28,30.28,0,0,0-3.16,0c-.68,0-.81-.23-.79-.84,0-1.18,0-2.36,0-3.55Zm0-11a2.35,2.35,0,1,0,2.35-2.35A2.37,2.37,0,0,0,105.32,57.19Z"/><path class="cls-1" d="M69.05,109.17c-1.2,0-2.41,0-3.62,0a.89.89,0,0,0-1,.64,7.09,7.09,0,1,1-.08-6.11,1.18,1.18,0,0,0,1.27.8c2.36,0,4.72,0,7.08,0,.54,0,.72.15.7.69,0,1.11-.05,2.21,0,3.32,0,.6-.2.73-.75.72C71.47,109.14,70.26,109.17,69.05,109.17Zm-11-4.7a2.35,2.35,0,1,0,2.37,2.33A2.36,2.36,0,0,0,58,104.47Z"/><path class="cls-1" d="M146.28,104.46c1.13,0,2.26,0,3.39,0a1.14,1.14,0,0,0,1.28-.78,7,7,0,0,1,7.91-3.79,7.09,7.09,0,1,1-8,9.93,1,1,0,0,0-1.1-.68c-2.39,0-4.79,0-7.18,0-.52,0-.72-.13-.7-.69,0-1.13,0-2.26,0-3.39,0-.51.16-.67.67-.65C143.81,104.48,145,104.46,146.28,104.46Zm11,4.7a2.35,2.35,0,1,0-2.33-2.38A2.37,2.37,0,0,0,157.25,109.16Z"/><path class="cls-1" d="M110,145.45c0,1.21,0,2.42,0,3.62a.86.86,0,0,0,.59.93,7.08,7.08,0,1,1-6,.06,1.06,1.06,0,0,0,.73-1.15c0-2.37,0-4.73,0-7.1,0-.55.1-.78.71-.75,1.11.05,2.21,0,3.32,0,.53,0,.72.14.71.69C110,143,110,144.21,110,145.45Zm0,11a2.35,2.35,0,1,0-2.35,2.36A2.35,2.35,0,0,0,110,156.43Z"/><path class="cls-1" d="M77,139.87a2.23,2.23,0,0,1-2.14-1.37,2.27,2.27,0,0,1,.46-2.64c1-1.07,2.1-2.11,3.16-3.16s2-1.95,2.94-2.95c.3-.31.5-.32.81,0,.85.88,1.72,1.76,2.61,2.62.26.25.26.42,0,.68-2.06,2-4.1,4.11-6.16,6.15A2.21,2.21,0,0,1,77,139.87Z"/><path class="cls-1" d="M140.73,137.5a2.22,2.22,0,0,1-1.35,2.15,2.16,2.16,0,0,1-2.52-.33c-2.14-2.07-4.23-4.2-6.34-6.3-.24-.24-.24-.4,0-.63.91-.9,1.82-1.81,2.72-2.72.24-.24.41-.22.64,0,2.1,2.12,4.21,4.22,6.3,6.34A2,2,0,0,1,140.73,137.5Z"/><path class="cls-1" d="M77,73.74a2.39,2.39,0,0,1,1.72.75c2,2,4,4,6,6,.33.32.36.53,0,.86-.85.82-1.68,1.66-2.5,2.51-.27.28-.47.39-.81.05-2-2.06-4.11-4.1-6.14-6.17a2.36,2.36,0,0,1,1.73-4Z"/><path class="cls-1" d="M140.73,76.1a2.23,2.23,0,0,1-.68,1.67c-2,2-4.07,4.06-6.09,6.11-.31.31-.51.31-.81,0-.83-.87-1.69-1.72-2.56-2.55-.33-.32-.27-.52,0-.81,2-2,4.07-4.08,6.12-6.1a2.36,2.36,0,0,1,4,1.69Z"/><path class="cls-1" d="M126.78,144.25a2.37,2.37,0,0,1-4.74,0,2.37,2.37,0,1,1,4.74,0Z"/><path class="cls-1" d="M91.93,66.26a2.37,2.37,0,1,1-2.37-2.34A2.36,2.36,0,0,1,91.93,66.26Z"/><path class="cls-1" d="M164.37,63.11A2.36,2.36,0,1,1,162,65.44,2.36,2.36,0,0,1,164.37,63.11Z"/><path class="cls-1" d="M124.41,63.92a2.36,2.36,0,0,1,2.37,2.33,2.37,2.37,0,1,1-4.74,0A2.37,2.37,0,0,1,124.41,63.92Z"/><path class="cls-1" d="M143.61,87.84a2.37,2.37,0,0,1,4.73,0,2.36,2.36,0,0,1-2.38,2.4A2.34,2.34,0,0,1,143.61,87.84Z"/><path class="cls-1" d="M50.88,67.81a2.35,2.35,0,1,1,2.45-2.25A2.35,2.35,0,0,1,50.88,67.81Z"/><path class="cls-1" d="M146,120.32a2.36,2.36,0,1,1-2.39,2.4A2.38,2.38,0,0,1,146,120.32Z"/><path class="cls-1" d="M91.93,144.23a2.37,2.37,0,0,1-4.74.07,2.37,2.37,0,1,1,4.74-.07Z"/><path class="cls-1" d="M70.36,122.7A2.36,2.36,0,1,1,68,120.32,2.36,2.36,0,0,1,70.36,122.7Z"/><path class="cls-1" d="M70.36,87.88a2.36,2.36,0,1,1-4.71-.13,2.36,2.36,0,0,1,4.71.13Z"/><path class="cls-1" d="M50.93,174.14a2.36,2.36,0,1,1,2.4-2.31A2.37,2.37,0,0,1,50.93,174.14Z"/><path class="cls-1" d="M164.34,169.43a2.36,2.36,0,1,1-2.34,2.36A2.35,2.35,0,0,1,164.34,169.43Z"/><path class="cls-1" d="M118.3,106.81a10.64,10.64,0,1,1-10.66-10.63A10.65,10.65,0,0,1,118.3,106.81Zm-16.53,0a5.9,5.9,0,1,0,5.86-5.91A5.9,5.9,0,0,0,101.77,106.83Z"/></svg>