<svg id="Capa_1" data-name="Capa 1" xmlns="http://www.w3.org/2000/svg" viewBox="0 0 163.4 192.05"><defs><style>.cls-1{fill:#6c2911;}</style></defs><path class="cls-1" d="M83.88,43.78c11.64.11,23.28.34,34.9,1,3.56.21,3.84.52,3.41,4.2-.4,3.3-.82,6.6-1.32,9.88-.27,1.79-.18,2.79,2.16,3a7.56,7.56,0,0,1,1.27,14.78A2.73,2.73,0,0,0,122,79.13c-.29,2-.17,9.9.41,11.78,2,6.66,1.27,13.17-1.35,19.49-.72,1.74-.73,2.93.57,4.42,6.25,7.17,7.42,15.8,6.7,24.85a6.58,6.58,0,0,1-7,6.14c-2.92-.09-4.57.59-5.88,3.5A11.24,11.24,0,0,1,105,156.12c-14,.18-28,.21-42.07,0-5.21-.09-9-3.19-11-8a3.16,3.16,0,0,0-3.44-2.27c-6.66,0-8.72-2.37-8.94-9.08-.26-8.43,1.59-16.09,7.29-22.52,1-1.17.82-2.11.31-3.36-3.37-8.26-4-16.5.54-24.6a2.46,2.46,0,0,0,0-2.6,14,14,0,0,1-1.55-4,3.41,3.41,0,0,0-2.79-3.13A7.54,7.54,0,0,1,44.53,62c2.55-.3,2.71-1.31,2.32-3.4-.6-3.27-.86-6.59-1.4-9.87-.43-2.63.41-3.77,3.22-3.92C60.4,44.16,72.14,43.9,83.88,43.78Zm24.61,29.34H121.9a3.68,3.68,0,0,0,3.72-2.31A3.52,3.52,0,0,0,125,67c-1.14-1.35-2.69-1.41-4.28-1.4q-9.66,0-19.33,0c-1.41,0-2.92-.07-2.92-1.95,0-1.63,1.3-1.91,2.66-1.91h8.42c7,0,7,0,8-7,.9-6.28.9-6.21-5.5-6.37-1.83-.05-2.66.45-2.82,2.32-.19,2.38-.6,4.74-.9,7.11-.18,1.39-.75,2.5-2.33,2.28s-1.66-1.39-1.51-2.64c.3-2.47.62-4.95.93-7.42.11-.83.33-1.82-.92-1.88-2.37-.09-5-.86-7.06.17-1.39.69-.79,3-1.1,4.64-.18.92-.32,1.84-.42,2.77-.17,1.44-.53,2.89-2.34,2.62S92,56.44,92.18,55.07c.21-1.75.39-3.51.69-5.25.26-1.51-.3-2.07-1.8-2-4.78,0-9.57.06-14.35,0-1.76,0-2.11.75-1.83,2.3.31,1.74.49,3.5.69,5.25.13,1.26-.16,2.37-1.63,2.54s-1.94-.92-2.19-2.11c-.13-.61-.16-1.24-.24-1.86-.81-6.48-.81-6.41-7.36-5.9-1.7.13-2.16.72-1.9,2.3.41,2.56.73,5.14,1.05,7.72a1.89,1.89,0,0,1-1.45,2.39c-1.42.29-2.14-.58-2.36-1.87s-.39-2.88-.59-4.32c-.85-6.24-.85-6.18-7.15-5.68-1.74.14-2.44.64-2.13,2.45a78.29,78.29,0,0,1,1.15,8.33c.13,2.14,1.16,2.5,3,2.46,4.37-.09,8.73,0,13.1,0,1.65,0,3.07.46,2.61,2.48-.36,1.56-1.86,1.39-3.11,1.4q-9.66,0-19.33,0c-2.55,0-4.61.69-4.84,3.64-.2,2.47,1.57,3.86,4.88,3.87,8.1,0,16.21,0,24.32,0,1.72,0,2.75-.3,3.48-2.19,1.51-3.87,4.72-5.71,8.82-5.76S91.26,67,92.85,71c.73,1.84,1.73,2.23,3.47,2.19C100.38,73.07,104.43,73.13,108.49,73.12ZM84,142.11h32.72c8,0,8,0,7.93-8-.11-15-11.43-26.37-26.48-26.45q-14.19-.07-28.36,0a29.68,29.68,0,0,0-5.57.52C52.91,110.51,42.36,120.79,43.34,137c.26,4.19,1,5.12,5.17,5.13Zm21.49-37.85a6.56,6.56,0,0,0-5.92-5.12c-1.65-.22-3.74-1.23-4.32,1.69-.15.73-1.06.93-1.85.79A1.67,1.67,0,0,1,92,100.17c-.19-1.12-.29-2.26-.39-3.4-.59-7.45-1.09-14.92-1.8-22.36A5.67,5.67,0,0,0,83.74,69a5.88,5.88,0,0,0-5.9,5.65c-.28,2.89-.47,5.8-.69,8.7q-.62,7.92-1.22,15.84c-.08,1.09-.31,2.13-1.55,2.41A1.75,1.75,0,0,1,72.12,100c-.14-.74-.52-1-1.24-1.11a6.87,6.87,0,0,0-7.54,5.18C77.31,103.86,91.29,103.64,105.53,104.26ZM83.9,145.9q-13.08,0-26.17,0c-.69,0-1.61-.33-2,.33-.54.86.32,1.54.77,2.17a8.88,8.88,0,0,0,7.44,3.92q20.1.07,40.2,0a8.91,8.91,0,0,0,7.27-3.62c.54-.71,1.52-1.46,1-2.42-.43-.79-1.51-.37-2.3-.37C101.36,145.89,92.63,145.9,83.9,145.9ZM48.36,98.57a25,25,0,0,0,1.86,9.73c.25.62.6,1.84,1.29,1.32,2.35-1.78,6.2-2,7.12-5.05,1.85-6.12,5.69-9.18,11.91-9.59a1.82,1.82,0,0,0,2-1.5c.66-2.75.15-3.53-2.64-3-6.13,1.22-12.15,1.85-17.75-1.89-1.3-.86-1.59.42-2,1.18A18.69,18.69,0,0,0,48.36,98.57Zm71.36.2a21.32,21.32,0,0,0-.82-6.45c-1.22-4.08-1.43-4.15-5.23-2.49a28.76,28.76,0,0,1-4.13,1.31c-4.07,1.1-8-.33-12-.71-.86-.09-2.36-.89-2.35.89,0,1.33-.78,3.34,1.77,3.55a35.29,35.29,0,0,1,3.7.47c3.83.74,7.16,2.78,8.07,6.47,1,4,3.91,5.47,6.81,7.36,1.24.81,1.75.56,2.26-.71A26,26,0,0,0,119.72,98.77Zm-10-21.69c-2.07,0-4.15-.07-6.22,0-.86,0-2.36-.68-2.39,1a2.64,2.64,0,0,0,2.2,2.66,7.53,7.53,0,0,0,3.67-.4c1.34-.35,2.86-.74,3.27,1.14s-1.11,2.21-2.44,2.61c-5.62,1.65-8.71,0-10.56-5.67a1.66,1.66,0,0,0-2-1.36c-1.21,0-1.16.85-1.21,1.72-.33,6.56.19,7.22,6.64,8.25,1.43.22,2.87.47,4.31.59,6,.49,11.29-2.82,13-8,.6-1.81.44-2.75-1.78-2.63S111.89,77.09,109.71,77.08Zm-50.95,0c-2.39,0-4.78.06-7.17,0-1.84-.06-2.15.77-1.64,2.31A11.6,11.6,0,0,0,55.29,86c3.66,2.12,7.55,1.82,11.52,1.19,6.88-1.09,6.89-1,6.82-8.06,0-.1,0-.21,0-.31,0-.73.11-1.54-.93-1.64s-1.11.57-1.38,1.31c-2.08,5.77-5,7.29-10.63,5.65-1.35-.4-2.8-.85-2.39-2.63s1.95-1.44,3.29-1.1,2.81.83,4.26.17a2.58,2.58,0,0,0,1.59-2.49c0-1.52-1.34-1-2.14-1C63.13,77,60.94,77.08,58.76,77.08Z"/><path class="cls-1" d="M84.08,136.69c-10,0-19.94-.08-29.91.05-2.87,0-3.79-1-3.76-3.83.1-10.5,8-18.65,18.46-18.75q15.12-.15,30.22,0c10.66.09,18.55,8.3,18.58,19,0,2.74-1,3.67-3.68,3.6-5-.14-10,0-14.95,0ZM77.54,124.1c4.14,0,4.14,0,4.52-.84,1.3-2.82-.21-5.31-3.23-5.32a12.94,12.94,0,0,1-1.87,0c-2.83-.44-3.64.65-3.67,3.54C73.23,125.57,76.11,123.58,77.54,124.1Zm13-6.16c-.2,0-.41,0-.62,0-2.32-.17-4.1-.27-4.06,3.21s1.81,3.06,3.93,3a8.13,8.13,0,0,1,1.56,0c2.65.41,3.47-.51,3.53-3.33C95,116.92,92.51,118.11,90.58,117.94Zm-13,14.93h3.1c1.54,0,1.52-1.13,1.45-2.18s.48-2.53-1.27-2.64c-2.06-.13-4.13,0-6.2,0-.89,0-1.15.56-1.29,1.39C72.86,132.43,73.4,132.89,77.6,132.87Zm12.42,0h1.47c1.73,0,3.42.39,3.4-2.49S93.08,128,91.41,128q-1.39,0-2.79,0a2.71,2.71,0,0,0-2.4,4.16C87.23,133.64,88.92,132.56,90,132.9Zm11.55-8.79c3.45,0,3.45,0,3.44-2.64,0-2.44-1.49-3.51-4.61-3.47-2.56,0-1.47,2-1.69,3.16C98.26,123.7,99.48,124.54,101.57,124.11ZM66.43,124c2.14.52,3.57-.06,3.12-2.76-.22-1.32.84-3.6-1.9-3.21-1.92.27-4.52-.23-4.49,3.28C63.18,123.8,64.08,124.48,66.43,124Zm35.25,8.84c1.92.16,3.48.22,3.41-2.54-.06-2.33-1.25-2.45-3-2.35s-3.54-.52-3.5,2.42C98.65,132.88,99.86,133.11,101.68,132.87Zm-35.12,0c1.66.15,3.06.17,3.06-2.4S68.29,128,66.49,128s-3.37-.12-3.31,2.63S64.82,132.92,66.56,132.87Zm-9,.11c1.23.34,1.79-.59,1.79-2.45S59,128,57,127.93c-2.53,0-2.43,1.7-2.64,3.27C54.09,133.26,55.68,132.78,57.57,133Zm56.07-2.16c-.08-1.57-.34-3-2.75-2.88-2,.09-1.92,1.2-2,2.62-.14,2,.79,2.48,2.55,2.35C112.71,132.81,114,133,113.64,130.82Z"/></svg>