<svg id="Capa_1" data-name="Capa 1" xmlns="http://www.w3.org/2000/svg" viewBox="0 0 224.68 199.45"><defs><style>.cls-1{fill:#6c2910;}</style></defs><path class="cls-1" d="M115.41,25.69c.16.15.38.13.57.17a9.58,9.58,0,0,1,5.68,3.48,1.48,1.48,0,0,0,1,.61,9.39,9.39,0,0,1,7,5.39,1.66,1.66,0,0,0,.87.86,10.47,10.47,0,0,1,5,5.22,5.93,5.93,0,0,1-1.76,7.09,1.41,1.41,0,0,0-.53,1.16c0,1.51,0,3-.14,4.53a1.53,1.53,0,0,0,.57,1.25A32.47,32.47,0,0,0,136.87,58a49.73,49.73,0,0,1,13.06,13.79,33.44,33.44,0,0,1,3.88,27.84,1.36,1.36,0,0,1-.93,1,18.09,18.09,0,0,0-7.19,4.85,5.66,5.66,0,0,1-.42.43s-.09,0-.25.07c.5-1.08,1.19-2,1.61-3a1.41,1.41,0,0,0-.87.12,130.88,130.88,0,0,1-41.36,3.48c-4.05-.29-8.07-.79-12.07-1.43a2.5,2.5,0,0,1-1.28-.58,18.26,18.26,0,0,0-7.49-3.9,1.85,1.85,0,0,1-1-.56A18,18,0,0,0,74,94.75a.93.93,0,0,1-.75-.94c-1-8.52,1.18-16.22,5.88-23.28A54.47,54.47,0,0,1,92.33,57.27c3.59-2.68,2.76-1.73,2.74-5.68,0-.18,0-.36,0-.53a3.54,3.54,0,0,0-1.27-3.21,5.82,5.82,0,0,1-.71-7.17A10.69,10.69,0,0,1,98,36.08a1,1,0,0,0,.52-.61,9.5,9.5,0,0,1,7.25-5.55.87.87,0,0,0,.63-.34,9.61,9.61,0,0,1,6.24-3.79.5.5,0,0,0,.19-.1Zm-1.3,55.15c.93,0,1.86,0,2.79,0s1.91-.07,2.87-.11a109.26,109.26,0,0,0,25.58-4.11c.91-.27.92-.27.43-1.11a42.72,42.72,0,0,0-9.6-11.07c-2-1.68-4.23-3.08-6.15-4.87A6.63,6.63,0,0,1,127.64,54c.06-.75,0-1.51.08-2.26.06-.59-.08-.74-.69-.63a29.33,29.33,0,0,1-3.73.51c-.82,0-1,.36-1,1.09,0,2,0,4,0,6.05a2.74,2.74,0,1,1-5.47,0c0-2,0-4,0-6,0-.56-.16-.73-.73-.72a77.38,77.38,0,0,1-15-.94c-.48-.08-.55.11-.54.51,0,1,0,1.91.05,2.87a6,6,0,0,1-1.48,4.1,15.48,15.48,0,0,1-2.83,2.59,64.62,64.62,0,0,0-7.54,6.27,41.23,41.23,0,0,0-6.38,8.2c-.36.61-.21.82.4.93a4.25,4.25,0,0,1,.51.14A112.56,112.56,0,0,0,114.11,80.84Zm0,20.59a127,127,0,0,0,17.1-1.13,113.7,113.7,0,0,0,17.11-3.63.92.92,0,0,0,.75-.81c.18-1.06.38-2.12.5-3.2a1,1,0,0,0-.32-.86,2.68,2.68,0,0,1,0-4.06.83.83,0,0,0,.28-.79,26.77,26.77,0,0,0-.89-4.59c-.27-.94-.27-.94-1.19-.66a117.36,117.36,0,0,1-33.84,4.66,116.57,116.57,0,0,1-33.29-4.78c-.46-.14-.61,0-.74.39a30.15,30.15,0,0,0-1,4.88,1.08,1.08,0,0,0,.36,1,2.52,2.52,0,0,1,.24,3.6,2,2,0,0,0-.52,2c.13.72.29,1.43.36,2.16a1.13,1.13,0,0,0,1,1.1A121.45,121.45,0,0,0,114.15,101.43Zm-.59-54.84a76,76,0,0,0,12.22-.81,14.72,14.72,0,0,0,3.85-1c.92-.43,1-.64.55-1.58a3.81,3.81,0,0,0-2.69-2.23,3.08,3.08,0,0,1-2.56-2.52,3.92,3.92,0,0,0-4.18-3.08,2.78,2.78,0,0,1-2.86-1.68,4.1,4.1,0,0,0-7.51,0,2.83,2.83,0,0,1-2.93,1.7,3.91,3.91,0,0,0-4.12,3,3.09,3.09,0,0,1-2.54,2.55,3.92,3.92,0,0,0-2.85,2.56.76.76,0,0,0,.39,1.11,10.09,10.09,0,0,0,2.72.89A64.57,64.57,0,0,0,113.56,46.59Z"/><path class="cls-1" d="M103.33,173.76c-1.07-.18-2.13-.32-3.19-.53A30.35,30.35,0,0,1,82.73,163c-1.89-2.19-3.86-4.32-5.78-6.48a5.73,5.73,0,0,0-.91-.79,13,13,0,0,1-2.94-2.9,7.26,7.26,0,0,1,.05-8.8,17,17,0,0,1,6.52-5A45.1,45.1,0,0,1,88,136c1.28-.35,2.3-1.24,3.55-1.66.24-.08.24-.37.32-.57a12.84,12.84,0,0,1,10.75-8.46,1.1,1.1,0,0,0,.83-.54,12.75,12.75,0,0,1,21.44,0,1.08,1.08,0,0,0,.82.54,12.78,12.78,0,0,1,10.69,8.32,2,2,0,0,0,.93,1c2.79,1.65,6,2.1,9,3.34a23.8,23.8,0,0,1,7.42,4.43c4,3.79,4.08,8.43,0,12.08a111,111,0,0,0-8.45,8.92,30.23,30.23,0,0,1-19.82,10.28,2.13,2.13,0,0,0-.43.13Zm41.77-30.2a16.82,16.82,0,0,1,.37,3.47,2.78,2.78,0,0,1-2.25,2.67,2.74,2.74,0,0,1-3-1.65,4.18,4.18,0,0,1-.24-1.48,7.5,7.5,0,0,0-5.63-7,3.34,3.34,0,0,1-2.79-2.84,7.39,7.39,0,0,0-7.32-5.82c-1.88.12-2.57-.28-3.38-2a7.37,7.37,0,0,0-7.86-4.24,7.28,7.28,0,0,0-5.66,4.39,2.79,2.79,0,0,1-3.18,1.84,5.34,5.34,0,0,0-1.2,0,7.46,7.46,0,0,0-6.32,6,3,3,0,0,1-2.52,2.55,5.48,5.48,0,0,0-1.56.55,7.62,7.62,0,0,0-4.3,6.86,2.77,2.77,0,0,1-2.85,2.87,2.81,2.81,0,0,1-2.63-3.09,14,14,0,0,1,.25-2.32c0-.19.17-.42,0-.58s-.37,0-.54.11a20.39,20.39,0,0,0-3.34,1.9c-2.66,1.94-2.67,3.35,0,5.31a22.65,22.65,0,0,0,5.43,2.78,68.08,68.08,0,0,0,17.21,3.77,114.4,114.4,0,0,0,30.48-.79,55,55,0,0,0,13-3.63,14.31,14.31,0,0,0,5.12-3.26,2,2,0,0,0-.05-3.11A16.35,16.35,0,0,0,145.1,143.56ZM88.91,161.18c0,.24.21.33.35.45a24,24,0,0,0,16.47,6.49c5.56,0,11.13,0,16.69,0a24.09,24.09,0,0,0,14.64-4.87,16,16,0,0,0,2.42-2.11A117,117,0,0,1,88.91,161.18Z"/><path class="cls-1" d="M26.42,127.07c1.14-4.26,4.47-6.33,8.08-8.1a41.51,41.51,0,0,1,8.1-2.87c1.31-.34,2.36-1.24,3.64-1.62.23-.06.24-.3.32-.48a12.81,12.81,0,0,1,10.77-8.34,1.11,1.11,0,0,0,.85-.51,12.93,12.93,0,0,1,21.46,0,1.15,1.15,0,0,0,.85.5,12.78,12.78,0,0,1,10.73,8.28,1.33,1.33,0,0,0,.7.7c2.85,1.64,6.13,2.1,9.12,3.34.6.25.64.36.2.87a5.35,5.35,0,0,1-2.87,1.78,13.8,13.8,0,0,0-4.15,1.94c-.4.26-.6.26-.89-.16a7.09,7.09,0,0,0-4.49-3A2.92,2.92,0,0,1,86.4,117,7.39,7.39,0,0,0,80,111.13a5.34,5.34,0,0,0-1.13,0,2.79,2.79,0,0,1-3.15-1.77A7.36,7.36,0,0,0,68.18,105a7.05,7.05,0,0,0-5.94,4.1,3.17,3.17,0,0,1-3.54,2,7.16,7.16,0,0,0-7.16,5.48,3.56,3.56,0,0,1-3,3,7.3,7.3,0,0,0-5.46,7,2.76,2.76,0,0,1-1.63,2.67,2.71,2.71,0,0,1-3.85-2.39,14.51,14.51,0,0,1,.37-3.36,18.48,18.48,0,0,0-4.3,2.34c-2.27,1.73-2.29,3,0,4.73a26.9,26.9,0,0,0,8.7,3.92,84.56,84.56,0,0,0,18.89,3.07c3.2.19,6.39.28,9.59.22.16,0,.35-.1.52.13a27.67,27.67,0,0,0-2.11,2.22,12.71,12.71,0,0,0-1.67,2.59.84.84,0,0,1-.94.54A108.83,108.83,0,0,1,44,140.6c-.12,0-.24-.09-.39.06a23.3,23.3,0,0,0,4.9,3.59,24.41,24.41,0,0,0,12.31,3.1c1.56,0,3.12,0,4.68,0,.52,0,.71.14.68.68a11.77,11.77,0,0,0,.51,4.25c.1.32.17.59-.33.59-4.65,0-9.32.23-13.88-1.07a31.13,31.13,0,0,1-15-9.52c-1.84-2.07-3.76-4.07-5.62-6.12-.75-.83-1.73-1.38-2.55-2.13a10.27,10.27,0,0,1-2.87-4.68Z"/><path class="cls-1" d="M201.83,134.78c-.7,2.73-2.54,4.55-4.7,6.24a34.58,34.58,0,0,0-3.6,3.75,65.72,65.72,0,0,1-6.84,6.92,30,30,0,0,1-18.87,6.64c-3,0-6,0-9.06,0H158c-.07-.35.19-.45.33-.6a13.84,13.84,0,0,0,2.81-4.35.76.76,0,0,1,.84-.55c2.54,0,5.09.12,7.62-.08a24.45,24.45,0,0,0,14.77-6.37,1.43,1.43,0,0,0,.2-.23s0,0,0-.11c-1.72.35-3.43.72-5.15,1a113.77,113.77,0,0,1-16.68,1.61c-.53,0-.68-.13-.69-.66a10.84,10.84,0,0,0-.84-4.12c-.24-.59-.11-.7.5-.71a101.65,101.65,0,0,0,18.08-1.79,47.22,47.22,0,0,0,12.55-4,11.45,11.45,0,0,0,3.15-2.18c1.1-1.14,1.11-2,0-3.14a16.34,16.34,0,0,0-5.08-3.12c-.18.42.05.75.07,1.08,0,.67.16,1.35.17,2a2.74,2.74,0,1,1-5.47.1,7.4,7.4,0,0,0-3.61-6.35,7,7,0,0,0-2.38-.93,2.85,2.85,0,0,1-2.37-2.41,7.34,7.34,0,0,0-7.84-5.87,2.73,2.73,0,0,1-2.79-1.66,7.5,7.5,0,0,0-13.72-.07,2.73,2.73,0,0,1-2.9,1.72,7.33,7.33,0,0,0-7.74,5.8,3.4,3.4,0,0,1-2.44,2.56,2.59,2.59,0,0,1-3.28-.82,13.46,13.46,0,0,0-3.49-2.41c1.41-.37,2.42-1.21,3.64-1.62a1.15,1.15,0,0,0,.76-.74,12.73,12.73,0,0,1,10.6-8.23,1.34,1.34,0,0,0,1-.62,12.93,12.93,0,0,1,21.31,0,1.36,1.36,0,0,0,1,.62,12.68,12.68,0,0,1,10.6,8.21,1.5,1.5,0,0,0,.75.76c3.19,1.8,6.89,2.22,10.17,3.76,1.14.53,2.29,1,3.37,1.69,2.75,1.64,5,3.67,5.9,6.92Z"/><path class="cls-1" d="M116.88,93.89a2.75,2.75,0,0,1-5.5,0,2.75,2.75,0,1,1,5.5,0Z"/><path class="cls-1" d="M144.73,91.68A2.75,2.75,0,0,1,142,94.42a2.74,2.74,0,1,1,2.73-2.74Z"/><path class="cls-1" d="M126.19,93.66a2.75,2.75,0,1,1-2.72-2.73A2.72,2.72,0,0,1,126.19,93.66Z"/><path class="cls-1" d="M95.51,90.2A2.74,2.74,0,1,1,92.76,93,2.72,2.72,0,0,1,95.51,90.2Z"/><path class="cls-1" d="M132.73,90.2a2.74,2.74,0,0,1,.08,5.47,2.74,2.74,0,1,1-.08-5.47Z"/><path class="cls-1" d="M89,91.68a2.74,2.74,0,1,1-2.72-2.74A2.73,2.73,0,0,1,89,91.68Z"/><path class="cls-1" d="M104.77,96.4a2.74,2.74,0,1,1,2.77-2.69A2.73,2.73,0,0,1,104.77,96.4Z"/></svg>