<svg id="Capa_1" data-name="Capa 1" xmlns="http://www.w3.org/2000/svg" viewBox="0 0 224.68 199.45"><defs><style>.cls-1{fill:#6c2910;}</style></defs><path class="cls-1" d="M116.71,110.72l6.5-13.53c1.92-4,3.82-8,5.76-11.94s5.89-5.5,10-3.54q20.81,10,41.57,20c2,1,2.43,2,1.47,4q-14.58,30.36-29.19,60.69c-.91,1.91-2,2.24-4,1.29q-15.74-7.56-31.47-15.15c-1-.46-1.3-.47-1.68.66a11.13,11.13,0,0,1-5.88,6.68c-.86.41-1.12.7-.83,1.7a6.9,6.9,0,0,1-2.56,7.6,7,7,0,0,1-7.9.33,6.92,6.92,0,0,1-3.21-7.35c.18-1-.12-1-.92-1q-8.72,0-17.41,0c-.84,0-1.08.13-.9,1.06a7,7,0,0,1-11.13,7,6.83,6.83,0,0,1-2.55-7.59c.3-1,0-1.27-.83-1.7A11.34,11.34,0,0,1,55,149.29q-.08-30.61,0-61.24A11.75,11.75,0,0,1,66.86,76.12c2.66,0,5.32-.07,8,0,1.2,0,1.44-.35,1.44-1.48q-.06-18.15,0-36.3a9.39,9.39,0,0,1,14-8.29,9.13,9.13,0,0,1,4.9,8.5q0,17.93,0,35.86c0,1.29.24,1.78,1.65,1.71,2.65-.12,5.31-.07,8,0a11.74,11.74,0,0,1,11.64,11.69c.06,7,0,14.07,0,21.1v1.73Zm-57,7.92c0,10.13,0,20.26,0,30.39,0,4.13,2.92,7.32,6.89,7.34q19.1.09,38.2,0a7,7,0,0,0,6.67-5.48,1.13,1.13,0,0,0-.77-1.58c-1.08-.46-2.14-1-3.19-1.51-4.52-2.22-5.78-6-3.59-10.52l7.22-15a4.22,4.22,0,0,0,.53-1.81c0-10.87,0-21.74,0-32.6a7,7,0,0,0-6.91-7c-2.85-.07-5.71,0-8.56,0-.87,0-1.07.29-1,1.1,0,2.41,0,4.82,0,7.23,0,3.55,0,3.5-3.49,3.52-1.11,0-1.27-.39-1.26-1.36.06-3.09,0-6.19,0-9.29,0-.83-.11-1.24-1.1-1.21-2.46.08-4.92.06-7.38,0-.77,0-1,.23-1,1,0,2.46,0,4.92,0,7.38,0,3.52,0,3.48-3.54,3.47-1,0-1.22-.34-1.2-1.26,0-3.15,0-6.29,0-9.44,0-.91-.25-1.17-1.16-1.15-2.51.06-5,0-7.52,0-5,0-7.87,2.85-7.87,7.86Q59.71,103.67,59.72,118.64Zm70.9-25.51c-.47.2-.53.68-.71,1.06q-10.9,22.62-21.78,45.26c-1,2.1-.64,3.1,1.47,4.12q19.26,9.26,38.49,18.54c1.09.53,1.44.28,1.91-.7q11.1-23.19,22.29-46.33c.56-1.16.28-1.52-.76-2-13.5-6.58-27.2-12.74-40.52-19.71C130.88,93.28,130.76,93.21,130.62,93.13ZM81,56.64c0,6,0,12,0,18,0,1.27.35,1.57,1.55,1.51,2.16-.1,4.33-.09,6.49,0,1.16,0,1.46-.29,1.46-1.45,0-11.9,0-23.8,0-35.7,0-3.23-1.93-5.4-4.77-5.37S81,35.77,81,38.94C81,44.84,81,50.74,81,56.64Zm52.24,31.71c0,.85.82,1.46,1.87,2q18.53,8.87,37,17.78c2.86,1.38,2.81,1.34,4.26-1.49.55-1.08.43-1.5-.7-2-10.81-5.14-21.6-10.35-32.39-15.54-2.26-1.09-4.49-2.22-6.79-3.22C134.81,85.08,133.19,86.2,133.21,88.35Zm-61.7,75.16a2.35,2.35,0,1,0-2.34,2.32A2.39,2.39,0,0,0,71.51,163.51Zm30.69,2.32a2.35,2.35,0,1,0,0-4.7,2.35,2.35,0,0,0,0,4.7Z"/><path class="cls-1" d="M131.57,31.34a12.43,12.43,0,0,1,8,2.61c2,1.53,3.71,1.59,5.91.27,3-1.81,6.32-3.18,9.45-4.82a2.82,2.82,0,0,1,3.71.57c3.41,3.36,3.43,3.37.51,7.25-1.09,1.45-2.17,2.92-3.29,4.35-.47.6-.62,1,.17,1.5,3.1,2,6.16,4,9.21,6.12a1.19,1.19,0,0,0,1.58-.06c1.49-1,3-2,4.52-3s2.42-.92,3.69.31,2.8,2.76,4.16,4.17,1.33,2.5,0,3.85c-3,3-5.93,6-9,9a6.83,6.83,0,0,1-8.68,1Q142.07,52.51,122.66,40.6c-1.88-1.15-2-2.63-.56-4.25C124.77,33.4,127.87,31.31,131.57,31.34Zm-4.14,6.55a2.93,2.93,0,0,0,.43.36l36,22a2.45,2.45,0,0,0,3.32-.43c2.12-2.13,4.25-4.24,6.35-6.38.38-.39,1.23-.74.37-1.49-.6-.53-1-1.36-2-.52s-2.35,1.61-3.54,2.4c-2.16,1.43-2.51,1.42-4.62,0q-6.12-4.11-12.26-8.19c-2.35-1.56-2.54-2.53-.89-4.76C152,38.92,153.4,37,154.84,35c-3.71,1.56-7.23,3.26-10.71,5.07a3.31,3.31,0,0,1-3.71-.17c-1.56-1-3.17-2-4.8-2.88A6.71,6.71,0,0,0,127.43,37.89Z"/><path class="cls-1" d="M99.86,65.14a6.59,6.59,0,0,0,0-.89c-.15-1,.15-1.44,1.28-1.54a6.22,6.22,0,0,0,3.6-1.87c7.21-6.54,16.5-6.43,23.58.24,1.6,1.51,2.69,1.54,4.37.14a7.31,7.31,0,0,1,10.36.44c4,4,7.92,8.06,12.9,10.92a44.48,44.48,0,0,0,16.5,5.58c1.81.23,1.85.18,1.18-1.49s-1.48-3.53-2.24-5.29c-.11-.27-.4-.58-.34-.8.47-1.62,2.24-1.4,3.29-2.25.69-.55.89.13,1.12.61a69.2,69.2,0,0,1,6.47,21.79c0,.19,0,.39.06.58.46,3.64.46,3.6-3.15,3.78-1,0-1.3-.22-1.35-1.18A64.38,64.38,0,0,0,176,84.45a1.49,1.49,0,0,0-1.63-1.4,47,47,0,0,1-28.52-12c-2.06-1.83-4-3.84-5.91-5.77-1.61-1.58-2.71-1.62-4.48-.17a7.35,7.35,0,0,1-10.26-.4c-5.39-5.16-11.77-5.28-17.36-.29a12.23,12.23,0,0,1-6.25,3.08c-1.71.29-1.74.27-1.74-1.44Z"/><path class="cls-1" d="M40.81,96.76C41.44,76.47,50.58,57.52,69,43.17c.91-.71,1.34-.68,2,.3,1.84,2.68,1.85,2.61-.66,4.66A66.2,66.2,0,0,0,51.89,128c.4.86.32,1.2-.55,1.62-3.25,1.6-3.23,1.64-4.68-1.69C42.73,118.89,40.83,109.48,40.81,96.76Z"/><path class="cls-1" d="M115.33,170.46c-1.09.32-1.28-.26-1.3-1.23-.08-3.42-.11-3.41,3.22-3.65A60,60,0,0,0,130.79,163c1-.3,1.51-.27,1.85.9,1,3.29,1,3.27-2.35,4.19A70.48,70.48,0,0,1,115.33,170.46Z"/><path class="cls-1" d="M112,28.9c1.79-.07,3.89.14,6,.26.86.05,1.13.33.94,1.17-.25,1.14.24,2.68-.58,3.37s-2.25,0-3.41,0a62.61,62.61,0,0,0-13.19.75c-1.11.2-1.51-.07-1.71-1.23-.58-3.4-.63-3.36,2.84-3.74A75.13,75.13,0,0,1,112,28.9Z"/><path class="cls-1" d="M69.16,124.53c0-8.61,0-17.21,0-25.81,0-1.12.3-1.4,1.39-1.38,3.36,0,3.36,0,3.36,3.36q0,24.71,0,49.41c0,1.31-.33,1.64-1.62,1.6-3.14-.1-3.14,0-3.14-3.14Z"/><path class="cls-1" d="M88.05,124.52c0,8.6,0,17.2,0,25.81,0,1.11-.29,1.39-1.39,1.37-3.36,0-3.36,0-3.36-3.35,0-16.47,0-32.94,0-49.41,0-1.31.32-1.65,1.61-1.61,3.14.1,3.14,0,3.14,3.14Z"/><path class="cls-1" d="M97.5,124.53c0-8.61,0-17.21,0-25.82,0-1.11.29-1.39,1.39-1.37,3.36,0,3.36,0,3.36,3.36,0,16.47,0,32.94,0,49.41,0,1.31-.32,1.64-1.61,1.6-3.14-.1-3.14,0-3.14-3.14Z"/><path class="cls-1" d="M142.39,106.17a16.52,16.52,0,1,1,0,33,16.52,16.52,0,0,1,0-33Zm-.49,28.14a11.3,11.3,0,0,0,9.41-3.91c.16-.18.35-.36.22-.64a18.71,18.71,0,0,0-3.95-1.81,1.31,1.31,0,0,0-.39.42A32,32,0,0,1,141.9,134.31ZM131,119.84c-1.36,3.52.66,9.47,2.75,10.48a23.65,23.65,0,0,1,1.13-7.67c.18-.53.16-.92-.45-1.18C133.31,121,132.19,120.39,131,119.84ZM151.33,115l-.42.1c0,.88.05,1.76,0,2.63a19.55,19.55,0,0,1-.42,2.76c-.74,3.38-.76,3.38,2.55,4.68l.13.06c.58.38.79,0,.87-.47A11.69,11.69,0,0,0,151.33,115Zm-8-4.06a11.92,11.92,0,0,0-9.63,3.83c-.44.47-.67.83.13,1.17,1,.43,2,.91,2.92,1.39a.57.57,0,0,0,.85-.26A26.27,26.27,0,0,1,143.29,110.92Zm-4.71,19.62a12.07,12.07,0,0,0,2.58-2.17c2.49-2.57,2.46-2.54-.69-4.05-1-.46-1.16-.06-1.34.7A18.72,18.72,0,0,0,138.58,130.54Zm7.56-15.7a11.17,11.17,0,0,0-4.14,4.23c-.62,1.29,1.12,1.16,1.8,1.58.42.26,1.28,1.37,1.72.08A13.06,13.06,0,0,0,146.14,114.84Z"/><path class="cls-1" d="M121.82,139l.76.34c6.33,3.05,12.64,6.12,19,9.11,1.06.49,1,.91.58,1.84-1.5,3-1.46,3-4.46,1.56-5.66-2.72-11.32-5.46-17-8.13-1.06-.5-1.28-1-.65-2a18.79,18.79,0,0,0,1-2.11C121.22,139.3,121.32,138.94,121.82,139Z"/></svg>