<svg xmlns="http://www.w3.org/2000/svg" viewBox="0 0 679.22 455.61"><defs><style>.cls-1{fill:#fccd74;}.cls-2{fill:#dbd59e;}.cls-3{fill:#6c2910;}.cls-4{fill:#d8c2ba;}.cls-5{fill:#fff;}</style></defs><g id="Capa_2" data-name="Capa 2"><g id="Capa_1-2" data-name="Capa 1"><path class="cls-1" d="M231.93,220a24.62,24.62,0,0,1,24.59-24.59h80.09V45.65H35.24A35.24,35.24,0,0,0,0,80.89V247.81H231.93Z" transform="translate(0 -0.34)"/><path class="cls-2" d="M644,45.65H342.61V195.36H422.7A24.62,24.62,0,0,1,447.29,220v27.86H679.22V80.89A35.24,35.24,0,0,0,644,45.65Z" transform="translate(0 -0.34)"/><path class="cls-3" d="M447.29,281.66a24.62,24.62,0,0,1-24.59,24.59H342.61V456H644a35.24,35.24,0,0,0,35.24-35.24V253.81H447.29Z" transform="translate(0 -0.34)"/><path class="cls-4" d="M256.52,306.25a24.62,24.62,0,0,1-24.59-24.59V253.81H0V420.72A35.24,35.24,0,0,0,35.24,456H336.61V306.25Z" transform="translate(0 -0.34)"/><path class="cls-3" d="M175,6.5V29.25h-4.68V6.5Zm2.3,22.75h-4.95l0-3.66h4.92a5.57,5.57,0,0,0,3.11-.83,5.16,5.16,0,0,0,1.91-2.45,10.25,10.25,0,0,0,.65-3.89V17.31a11.4,11.4,0,0,0-.37-3.08A6.11,6.11,0,0,0,181.54,12a4.56,4.56,0,0,0-1.77-1.37,5.87,5.87,0,0,0-2.4-.46h-5.1V6.5h5.1a11.11,11.11,0,0,1,4.18.77,9.64,9.64,0,0,1,3.29,2.21A10,10,0,0,1,187,12.91a12.3,12.3,0,0,1,.76,4.43v1.08a12.24,12.24,0,0,1-.76,4.42,9.64,9.64,0,0,1-2.14,3.43,9.42,9.42,0,0,1-3.29,2.2A11.14,11.14,0,0,1,177.32,29.25Z" transform="translate(0 -0.34)"/><path class="cls-3" d="M195.82,6.5V29.25h-4.69V6.5Zm10.56,0v3.67H194.29V6.5Zm-1.56,9.26v3.57H194.29V15.76Zm1.58,9.83v3.66H194.29V25.59Z" transform="translate(0 -0.34)"/><path class="cls-3" d="M221,23.29a3.21,3.21,0,0,0-.18-1.1,2.15,2.15,0,0,0-.67-.9,5.64,5.64,0,0,0-1.36-.82,21,21,0,0,0-2.26-.85,26.61,26.61,0,0,1-2.93-1.12A12,12,0,0,1,211.14,17a6.4,6.4,0,0,1-1.66-1.95,5.34,5.34,0,0,1-.6-2.58,5.33,5.33,0,0,1,.63-2.58,6,6,0,0,1,1.75-2,8.34,8.34,0,0,1,2.66-1.29,12,12,0,0,1,3.38-.45,10,10,0,0,1,4.39.9,7.08,7.08,0,0,1,2.92,2.49,6.42,6.42,0,0,1,1,3.61H221a3.66,3.66,0,0,0-.41-1.76,3,3,0,0,0-1.25-1.2,4.54,4.54,0,0,0-2.1-.44,5.06,5.06,0,0,0-2,.37,2.81,2.81,0,0,0-1.21,1,2.46,2.46,0,0,0-.41,1.38,2,2,0,0,0,.29,1.05,3,3,0,0,0,.87.87,7.74,7.74,0,0,0,1.42.77,20.31,20.31,0,0,0,1.95.7,20.31,20.31,0,0,1,3.27,1.27,9.76,9.76,0,0,1,2.37,1.57,5.86,5.86,0,0,1,1.44,2,6.28,6.28,0,0,1,.48,2.51,6,6,0,0,1-.57,2.66,5.5,5.5,0,0,1-1.68,2,7.7,7.7,0,0,1-2.61,1.24,12.69,12.69,0,0,1-3.39.42,12.88,12.88,0,0,1-3.32-.44,9.75,9.75,0,0,1-3-1.36A6.74,6.74,0,0,1,209,25.45a6.57,6.57,0,0,1-.8-3.33h4.7a4.39,4.39,0,0,0,.33,1.8,3,3,0,0,0,.93,1.19,3.81,3.81,0,0,0,1.44.65,7.48,7.48,0,0,0,1.83.21,5,5,0,0,0,2-.35,2.45,2.45,0,0,0,1.17-.95A2.5,2.5,0,0,0,221,23.29Z" transform="translate(0 -0.34)"/><path class="cls-3" d="M246,6.5v3.67H227.44V6.5Zm-7,0V29.25h-4.67V6.5Z" transform="translate(0 -0.34)"/><path class="cls-3" d="M253.65,6.5V29.25H249V6.5Z" transform="translate(0 -0.34)"/><path class="cls-3" d="M276.54,6.5V29.25h-4.69L262.71,14V29.25H258V6.5h4.69l9.16,15.26V6.5Z" transform="translate(0 -0.34)"/><path class="cls-3" d="M299.29,17.34v1.08a14.67,14.67,0,0,1-.7,4.66,10.07,10.07,0,0,1-2,3.5,8.34,8.34,0,0,1-3.05,2.21,10.39,10.39,0,0,1-7.85,0,8.58,8.58,0,0,1-3.07-2.21,10.26,10.26,0,0,1-2-3.5,14.39,14.39,0,0,1-.71-4.66V17.34a14.3,14.3,0,0,1,.71-4.66,10.21,10.21,0,0,1,2-3.51A8.61,8.61,0,0,1,285.67,7a10.52,10.52,0,0,1,7.85,0,8.61,8.61,0,0,1,3.06,2.22,10.39,10.39,0,0,1,2,3.51A14.3,14.3,0,0,1,299.29,17.34Zm-4.74,1.08V17.31a14.39,14.39,0,0,0-.32-3.19,7.18,7.18,0,0,0-1-2.31,4.22,4.22,0,0,0-1.57-1.41,4.86,4.86,0,0,0-4.21,0,4.14,4.14,0,0,0-1.54,1.41,7,7,0,0,0-1,2.31,13.78,13.78,0,0,0-.33,3.19v1.11A13.75,13.75,0,0,0,285,21.6a7,7,0,0,0,1,2.33,4.27,4.27,0,0,0,1.57,1.43,4.47,4.47,0,0,0,2.11.48,4.52,4.52,0,0,0,2.11-.48,4.12,4.12,0,0,0,1.54-1.43,7.2,7.2,0,0,0,1-2.33A14.36,14.36,0,0,0,294.55,18.42Z" transform="translate(0 -0.34)"/><path class="cls-3" d="M314.51,23.29a3.21,3.21,0,0,0-.18-1.1,2.15,2.15,0,0,0-.67-.9,5.64,5.64,0,0,0-1.36-.82,20.22,20.22,0,0,0-2.26-.85,26.61,26.61,0,0,1-2.93-1.12A12,12,0,0,1,304.67,17,6.36,6.36,0,0,1,303,15.09a5.24,5.24,0,0,1-.61-2.58A5.33,5.33,0,0,1,303,9.93a6.06,6.06,0,0,1,1.75-2,8.34,8.34,0,0,1,2.66-1.29,12.09,12.09,0,0,1,3.39-.45,10.06,10.06,0,0,1,4.39.9,7.05,7.05,0,0,1,2.91,2.49,6.42,6.42,0,0,1,1,3.61h-4.66a3.66,3.66,0,0,0-.41-1.76,2.9,2.9,0,0,0-1.25-1.2,4.54,4.54,0,0,0-2.1-.44,5,5,0,0,0-2,.37,2.78,2.78,0,0,0-1.22,1,2.46,2.46,0,0,0-.41,1.38,2,2,0,0,0,.29,1.05,3,3,0,0,0,.87.87,7.74,7.74,0,0,0,1.42.77,20.31,20.31,0,0,0,1.95.7,20.82,20.82,0,0,1,3.28,1.27,9.89,9.89,0,0,1,2.36,1.57,5.86,5.86,0,0,1,1.44,2,6.28,6.28,0,0,1,.48,2.51,6,6,0,0,1-.57,2.66,5.5,5.5,0,0,1-1.68,2,7.56,7.56,0,0,1-2.6,1.24,13.34,13.34,0,0,1-6.72,0,9.75,9.75,0,0,1-3-1.36,6.74,6.74,0,0,1-2.13-2.31,6.67,6.67,0,0,1-.8-3.33h4.7a4.39,4.39,0,0,0,.33,1.8,3,3,0,0,0,.93,1.19,3.81,3.81,0,0,0,1.44.65,7.54,7.54,0,0,0,1.83.21,5,5,0,0,0,2-.35,2.45,2.45,0,0,0,1.17-.95A2.5,2.5,0,0,0,314.51,23.29Z" transform="translate(0 -0.34)"/><path class="cls-3" d="M347.49,6.5v3.67H328.93V6.5Zm-7,0V29.25h-4.67V6.5Z" transform="translate(0 -0.34)"/><path class="cls-3" d="M362.71,6.5h4.67v15A8.26,8.26,0,0,1,366.27,26a7,7,0,0,1-3.08,2.7,11.66,11.66,0,0,1-9,0,7,7,0,0,1-3.1-2.7,8.26,8.26,0,0,1-1.12-4.42V6.5h4.69v15a5.51,5.51,0,0,0,.49,2.5,3,3,0,0,0,1.4,1.42,5.46,5.46,0,0,0,4.34,0A3,3,0,0,0,362.23,24a5.65,5.65,0,0,0,.48-2.5Z" transform="translate(0 -0.34)"/><path class="cls-3" d="M371.24,6.5h8.49a11.71,11.71,0,0,1,4.49.78,6.28,6.28,0,0,1,2.9,2.31,6.73,6.73,0,0,1,1,3.77,7.28,7.28,0,0,1-.61,3.13,6,6,0,0,1-1.74,2.17A8.82,8.82,0,0,1,383.16,20l-1.48.79H374.3l0-3.66h5.49a4.28,4.28,0,0,0,2-.44A2.84,2.84,0,0,0,383,15.51a3.75,3.75,0,0,0,.41-1.81,4.12,4.12,0,0,0-.4-1.89,2.71,2.71,0,0,0-1.24-1.22,4.54,4.54,0,0,0-2.07-.42h-3.8V29.25h-4.69ZM384,29.25l-5.19-10.14,5,0L389,29v.22Z" transform="translate(0 -0.34)"/><path class="cls-3" d="M396.73,6.5V29.25h-4.68V6.5Zm-4.49-1.35L395.3.34h4.89L395.9,5.15Z" transform="translate(0 -0.34)"/><path class="cls-3" d="M412.94,23.29a3.48,3.48,0,0,0-.17-1.1,2.23,2.23,0,0,0-.67-.9,5.85,5.85,0,0,0-1.36-.82,21,21,0,0,0-2.26-.85,25.86,25.86,0,0,1-2.93-1.12A11.76,11.76,0,0,1,403.11,17a6.4,6.4,0,0,1-1.66-1.95,5.34,5.34,0,0,1-.6-2.58,5.33,5.33,0,0,1,.63-2.58,6,6,0,0,1,1.75-2,8.24,8.24,0,0,1,2.66-1.29,12,12,0,0,1,3.38-.45,10,10,0,0,1,4.39.9,7.15,7.15,0,0,1,2.92,2.49,6.42,6.42,0,0,1,1,3.61H413a3.66,3.66,0,0,0-.41-1.76,3,3,0,0,0-1.25-1.2,4.55,4.55,0,0,0-2.11-.44,5,5,0,0,0-2,.37,2.9,2.9,0,0,0-1.22,1,2.45,2.45,0,0,0-.4,1.38,1.91,1.91,0,0,0,.29,1.05,3.07,3.07,0,0,0,.86.87,7.85,7.85,0,0,0,1.43.77,20.31,20.31,0,0,0,1.95.7,20.31,20.31,0,0,1,3.27,1.27,10,10,0,0,1,2.37,1.57,6,6,0,0,1,1.44,2,6.28,6.28,0,0,1,.48,2.51,5.88,5.88,0,0,1-.58,2.66,5.37,5.37,0,0,1-1.67,2,7.7,7.7,0,0,1-2.61,1.24,12.69,12.69,0,0,1-3.39.42,13,13,0,0,1-3.33-.44,9.81,9.81,0,0,1-3-1.36,6.87,6.87,0,0,1-2.14-2.31,6.67,6.67,0,0,1-.79-3.33h4.7a4.39,4.39,0,0,0,.33,1.8,3,3,0,0,0,.93,1.19,3.81,3.81,0,0,0,1.44.65,7.48,7.48,0,0,0,1.83.21,5.07,5.07,0,0,0,2-.35,2.45,2.45,0,0,0,1.17-.95A2.49,2.49,0,0,0,412.94,23.29Z" transform="translate(0 -0.34)"/><path class="cls-3" d="M438,6.5v3.67H419.41V6.5Zm-7,0V29.25H426.3V6.5Z" transform="translate(0 -0.34)"/><path class="cls-3" d="M445.62,6.5V29.25h-4.68V6.5Z" transform="translate(0 -0.34)"/><path class="cls-3" d="M463.18,21.7h4.67a8.45,8.45,0,0,1-1.26,4.08,7.57,7.57,0,0,1-3.11,2.78,10.49,10.49,0,0,1-4.79,1,9.65,9.65,0,0,1-3.92-.76,8.18,8.18,0,0,1-3-2.18,9.62,9.62,0,0,1-1.87-3.43,15.14,15.14,0,0,1-.64-4.52V17.09a14.55,14.55,0,0,1,.67-4.52,9.92,9.92,0,0,1,1.9-3.45,8.49,8.49,0,0,1,3-2.18,9.53,9.53,0,0,1,3.88-.77,10.2,10.2,0,0,1,4.8,1A7.68,7.68,0,0,1,466.58,10a9.7,9.7,0,0,1,1.3,4.13h-4.69a6.11,6.11,0,0,0-.54-2.34,3.17,3.17,0,0,0-1.42-1.45,5.4,5.4,0,0,0-2.5-.49,4.52,4.52,0,0,0-2.05.44,3.85,3.85,0,0,0-1.47,1.32,6.41,6.41,0,0,0-.88,2.25,14.73,14.73,0,0,0-.29,3.16v1.61a16.62,16.62,0,0,0,.26,3.1,7,7,0,0,0,.82,2.25,3.66,3.66,0,0,0,1.44,1.38,4.65,4.65,0,0,0,2.13.46,5.57,5.57,0,0,0,2.43-.47A3.32,3.32,0,0,0,462.58,24,5.47,5.47,0,0,0,463.18,21.7Z" transform="translate(0 -0.34)"/><path class="cls-3" d="M489.62,17.34v1.08a14.39,14.39,0,0,1-.71,4.66,10.21,10.21,0,0,1-2,3.5,8.38,8.38,0,0,1-3.06,2.21,10.36,10.36,0,0,1-7.84,0A8.5,8.5,0,0,1,473,26.58a10.26,10.26,0,0,1-2-3.5,14.39,14.39,0,0,1-.71-4.66V17.34a14.58,14.58,0,0,1,.7-4.66,10.23,10.23,0,0,1,2-3.51A8.61,8.61,0,0,1,476,7a10.49,10.49,0,0,1,7.84,0,8.56,8.56,0,0,1,3.07,2.22,10.39,10.39,0,0,1,2,3.51A14.3,14.3,0,0,1,489.62,17.34Zm-4.74,1.08V17.31a13.78,13.78,0,0,0-.33-3.19,7,7,0,0,0-1-2.31A4.22,4.22,0,0,0,482,10.4a4.86,4.86,0,0,0-4.21,0,4.14,4.14,0,0,0-1.54,1.41,7,7,0,0,0-1,2.31,14.39,14.39,0,0,0-.32,3.19v1.11a14.36,14.36,0,0,0,.32,3.18,7.2,7.2,0,0,0,1,2.33,4.27,4.27,0,0,0,1.57,1.43,4.86,4.86,0,0,0,4.21,0,4.14,4.14,0,0,0,1.55-1.43,7,7,0,0,0,.95-2.33A13.75,13.75,0,0,0,484.88,18.42Z" transform="translate(0 -0.34)"/><path class="cls-3" d="M504.84,23.29a3.21,3.21,0,0,0-.18-1.1,2.23,2.23,0,0,0-.67-.9,5.64,5.64,0,0,0-1.36-.82,21,21,0,0,0-2.26-.85,26.61,26.61,0,0,1-2.93-1.12A12,12,0,0,1,495,17a6.4,6.4,0,0,1-1.66-1.95,5.34,5.34,0,0,1-.6-2.58,5.33,5.33,0,0,1,.63-2.58,6,6,0,0,1,1.75-2,8.24,8.24,0,0,1,2.66-1.29,12,12,0,0,1,3.38-.45,10,10,0,0,1,4.39.9,7.08,7.08,0,0,1,2.92,2.49,6.42,6.42,0,0,1,1,3.61h-4.66a3.66,3.66,0,0,0-.41-1.76,3,3,0,0,0-1.25-1.2,4.54,4.54,0,0,0-2.1-.44,5.06,5.06,0,0,0-2,.37,2.81,2.81,0,0,0-1.21,1,2.38,2.38,0,0,0-.41,1.38,2,2,0,0,0,.29,1.05,3,3,0,0,0,.87.87,7.42,7.42,0,0,0,1.42.77,20.31,20.31,0,0,0,1.95.7,20.31,20.31,0,0,1,3.27,1.27,9.76,9.76,0,0,1,2.37,1.57,5.86,5.86,0,0,1,1.44,2,6.28,6.28,0,0,1,.48,2.51,5.88,5.88,0,0,1-.58,2.66,5.37,5.37,0,0,1-1.67,2,7.7,7.7,0,0,1-2.61,1.24,12.69,12.69,0,0,1-3.39.42,13,13,0,0,1-3.33-.44,9.81,9.81,0,0,1-3-1.36,6.74,6.74,0,0,1-2.13-2.31,6.57,6.57,0,0,1-.8-3.33h4.7a4.39,4.39,0,0,0,.33,1.8,3,3,0,0,0,.93,1.19,3.81,3.81,0,0,0,1.44.65,7.48,7.48,0,0,0,1.83.21,5,5,0,0,0,2-.35,2.45,2.45,0,0,0,1.17-.95A2.5,2.5,0,0,0,504.84,23.29Z" transform="translate(0 -0.34)"/><path class="cls-3" d="M284.71,241.08a2.54,2.54,0,0,0-.16-.94,1.87,1.87,0,0,0-.57-.78,4.77,4.77,0,0,0-1.16-.7,15.3,15.3,0,0,0-1.94-.73,22,22,0,0,1-2.52-1,10.61,10.61,0,0,1-2.09-1.25,5.62,5.62,0,0,1-1.42-1.67,4.62,4.62,0,0,1-.51-2.21,4.7,4.7,0,0,1,.53-2.22,5.2,5.2,0,0,1,1.5-1.71,7.29,7.29,0,0,1,2.29-1.11,10.17,10.17,0,0,1,2.9-.39,8.5,8.5,0,0,1,3.76.78,6,6,0,0,1,2.5,2.13,5.43,5.43,0,0,1,.89,3.09h-4a3.13,3.13,0,0,0-.35-1.5,2.5,2.5,0,0,0-1.08-1,3.82,3.82,0,0,0-1.8-.37,4.23,4.23,0,0,0-1.74.31,2.34,2.34,0,0,0-1,.85,2,2,0,0,0-.35,1.18,1.73,1.73,0,0,0,.24.9,2.67,2.67,0,0,0,.75.75,7.19,7.19,0,0,0,1.22.66c.48.2,1,.4,1.67.6a18.36,18.36,0,0,1,2.81,1.08,9.09,9.09,0,0,1,2,1.36,5.07,5.07,0,0,1,1.23,1.7,5.25,5.25,0,0,1,.42,2.15,5.09,5.09,0,0,1-.5,2.28,4.67,4.67,0,0,1-1.43,1.7,6.64,6.64,0,0,1-2.24,1.06,10.94,10.94,0,0,1-2.91.36,10.63,10.63,0,0,1-2.85-.38,8.23,8.23,0,0,1-2.55-1.16,5.78,5.78,0,0,1-1.83-2,5.65,5.65,0,0,1-.69-2.85h4a3.75,3.75,0,0,0,.28,1.54,2.54,2.54,0,0,0,.8,1,3.48,3.48,0,0,0,1.23.56,7,7,0,0,0,1.57.17,4.44,4.44,0,0,0,1.72-.29,2.08,2.08,0,0,0,1.34-2Z" transform="translate(0 -0.34)"/><path class="cls-3" d="M295.72,226.68v19.51h-4V226.68Z" transform="translate(0 -0.34)"/><path class="cls-3" d="M309.63,241.08a2.76,2.76,0,0,0-.16-.94,1.87,1.87,0,0,0-.57-.78,4.77,4.77,0,0,0-1.16-.7,14.94,14.94,0,0,0-1.95-.73,22.54,22.54,0,0,1-2.51-1,10.32,10.32,0,0,1-2.09-1.25,5.62,5.62,0,0,1-1.42-1.67,4.62,4.62,0,0,1-.51-2.21,4.7,4.7,0,0,1,.53-2.22,5.2,5.2,0,0,1,1.5-1.71,7.29,7.29,0,0,1,2.29-1.11,10.17,10.17,0,0,1,2.9-.39,8.5,8.5,0,0,1,3.76.78,6.1,6.1,0,0,1,2.5,2.13,5.51,5.51,0,0,1,.89,3.09h-4a3,3,0,0,0-.36-1.5,2.43,2.43,0,0,0-1.07-1,3.87,3.87,0,0,0-1.8-.37,4.2,4.2,0,0,0-1.74.31,2.37,2.37,0,0,0-1.05.85,2.09,2.09,0,0,0-.34,1.18,1.73,1.73,0,0,0,.24.9,2.67,2.67,0,0,0,.75.75,6.83,6.83,0,0,0,1.22.66c.48.2,1,.4,1.67.6a18.36,18.36,0,0,1,2.81,1.08,9.09,9.09,0,0,1,2,1.36,5.07,5.07,0,0,1,1.23,1.7,5.25,5.25,0,0,1,.41,2.15,5.09,5.09,0,0,1-.49,2.28,4.67,4.67,0,0,1-1.43,1.7,6.73,6.73,0,0,1-2.24,1.06,10.94,10.94,0,0,1-2.91.36,10.63,10.63,0,0,1-2.85-.38,8.23,8.23,0,0,1-2.55-1.16,5.78,5.78,0,0,1-1.83-2,5.65,5.65,0,0,1-.69-2.85h4a3.75,3.75,0,0,0,.28,1.54,2.51,2.51,0,0,0,.79,1,3.62,3.62,0,0,0,1.24.56,6.93,6.93,0,0,0,1.57.17,4.44,4.44,0,0,0,1.72-.29,2.2,2.2,0,0,0,1-.82A2.16,2.16,0,0,0,309.63,241.08Z" transform="translate(0 -0.34)"/><path class="cls-3" d="M331.09,226.68v3.15H315.17v-3.15Zm-6,0v19.51h-4V226.68Z" transform="translate(0 -0.34)"/><path class="cls-3" d="M337.38,226.68v19.51h-4V226.68Zm9.06,0v3.15H336.07v-3.15Zm-1.34,7.94v3.06h-9v-3.06Zm1.35,8.43v3.14H336.07v-3.14Z" transform="translate(0 -0.34)"/><path class="cls-3" d="M348.8,226.68h3.39l.61,14v5.55h-4Zm1.83,0H354l5,14.32,5-14.32h3.4l-7,19.51h-2.73Zm15.28,0h3.4v19.51h-4v-5.55Z" transform="translate(0 -0.34)"/><path class="cls-3" d="M380.75,230l-5.31,16.17h-4.27l7.25-19.51h2.72Zm4.17,8.9v3.15H374.61v-3.15Zm.24,7.27L379.84,230l-.43-3.34h2.75l7.28,19.51Z" transform="translate(0 -0.34)"/><path class="cls-3" d="M401.41,241.08a2.54,2.54,0,0,0-.16-.94,1.93,1.93,0,0,0-.56-.78,5.07,5.07,0,0,0-1.17-.7,15.3,15.3,0,0,0-1.94-.73,22.71,22.71,0,0,1-2.52-1,10.24,10.24,0,0,1-2.08-1.25,5.51,5.51,0,0,1-1.43-1.67,4.94,4.94,0,0,1,0-4.43,5,5,0,0,1,1.5-1.71,7.13,7.13,0,0,1,2.28-1.11,10.22,10.22,0,0,1,2.9-.39,8.5,8.5,0,0,1,3.76.78,6,6,0,0,1,2.5,2.13,5.43,5.43,0,0,1,.89,3.09h-4a3.13,3.13,0,0,0-.35-1.5,2.54,2.54,0,0,0-1.07-1,3.89,3.89,0,0,0-1.81-.37,4.27,4.27,0,0,0-1.74.31,2.34,2.34,0,0,0-1,.85,2,2,0,0,0-.35,1.18,1.65,1.65,0,0,0,.25.9,2.5,2.5,0,0,0,.74.75,7.19,7.19,0,0,0,1.22.66c.48.2,1,.4,1.67.6a18,18,0,0,1,2.81,1.08,9.09,9.09,0,0,1,2,1.36,4.93,4.93,0,0,1,1.23,1.7,5.25,5.25,0,0,1,.42,2.15,5.09,5.09,0,0,1-.5,2.28,4.67,4.67,0,0,1-1.43,1.7,6.64,6.64,0,0,1-2.24,1.06,10.88,10.88,0,0,1-2.91.36,10.63,10.63,0,0,1-2.85-.38,8.23,8.23,0,0,1-2.55-1.16,5.88,5.88,0,0,1-1.83-2,5.65,5.65,0,0,1-.68-2.85h4a3.75,3.75,0,0,0,.28,1.54,2.54,2.54,0,0,0,.8,1,3.48,3.48,0,0,0,1.23.56,7,7,0,0,0,1.57.17,4.53,4.53,0,0,0,1.73-.29,2.09,2.09,0,0,0,1.33-2Z" transform="translate(0 -0.34)"/><path class="cls-3" d="M264.77,253.6v19.51h-4V253.6Z" transform="translate(0 -0.34)"/><path class="cls-3" d="M284.4,253.6v19.51h-4L272.54,260v13.07h-4V253.6h4l7.85,13.09V253.6Z" transform="translate(0 -0.34)"/><path class="cls-3" d="M302.61,253.6v3.15H286.69V253.6Zm-6,0v19.51h-4V253.6Z" transform="translate(0 -0.34)"/><path class="cls-3" d="M308.9,253.6v19.51h-4V253.6Zm9.06,0v3.15H307.59V253.6Zm-1.34,8v3.05h-9v-3.05ZM318,270v3.13H307.59V270Z" transform="translate(0 -0.34)"/><path class="cls-3" d="M335.78,262.92v7.73a7,7,0,0,1-1.41,1.18,9.21,9.21,0,0,1-2.45,1.09,12.38,12.38,0,0,1-3.63.46,9.13,9.13,0,0,1-3.45-.63,7.34,7.34,0,0,1-2.67-1.82,8.31,8.31,0,0,1-1.72-3,12.28,12.28,0,0,1-.6-4v-1.22a12.62,12.62,0,0,1,.58-4,8.28,8.28,0,0,1,1.67-3,7.06,7.06,0,0,1,2.58-1.84,8.57,8.57,0,0,1,3.34-.63,9.25,9.25,0,0,1,4.18.83,6,6,0,0,1,2.5,2.27,8.16,8.16,0,0,1,1.06,3.33h-3.9a4.71,4.71,0,0,0-.56-1.72,2.93,2.93,0,0,0-1.18-1.16,4.29,4.29,0,0,0-2-.41,3.72,3.72,0,0,0-1.79.41,3.59,3.59,0,0,0-1.32,1.2,5.82,5.82,0,0,0-.82,1.95,11.52,11.52,0,0,0-.28,2.71V264a11.46,11.46,0,0,0,.29,2.7,5.59,5.59,0,0,0,.88,2,3.78,3.78,0,0,0,1.44,1.2,4.64,4.64,0,0,0,2,.4,6.55,6.55,0,0,0,1.59-.16,4,4,0,0,0,1-.39,3.86,3.86,0,0,0,.61-.45v-3.46h-3.67v-2.86Z" transform="translate(0 -0.34)"/><path class="cls-3" d="M339,253.6h7.27a10.21,10.21,0,0,1,3.86.67,5.37,5.37,0,0,1,2.48,2,5.7,5.7,0,0,1,.87,3.23,6.25,6.25,0,0,1-.53,2.68,4.94,4.94,0,0,1-1.49,1.86,7.58,7.58,0,0,1-2.24,1.19l-1.27.67h-6.33l0-3.14h4.7a3.63,3.63,0,0,0,1.75-.37,2.5,2.5,0,0,0,1.06-1.05,3.31,3.31,0,0,0,.35-1.55,3.45,3.45,0,0,0-.35-1.62,2.34,2.34,0,0,0-1.06-1.05,3.89,3.89,0,0,0-1.78-.36H343v16.36h-4Zm10.9,19.51-4.44-8.69,4.24,0,4.5,8.53v.19Z" transform="translate(0 -0.34)"/><path class="cls-3" d="M364.53,256.94l-5.31,16.17H355l7.25-19.51h2.71Zm4.16,8.91V269h-10.3v-3.15Zm.24,7.26-5.31-16.17-.43-3.34h2.74l7.29,19.51Z" transform="translate(0 -0.34)"/><path class="cls-3" d="M379.05,253.6v19.51h-4V253.6ZM387.57,270v3.13h-9.82V270Z" transform="translate(0 -0.34)"/><path class="cls-3" d="M393.89,253.6v19.51h-4V253.6Zm9.06,0v3.15H392.58V253.6Zm-1.34,8v3.05h-9v-3.05ZM403,270v3.13H392.58V270Z" transform="translate(0 -0.34)"/><path class="cls-3" d="M415.46,268a2.83,2.83,0,0,0-.15-.95,2.06,2.06,0,0,0-.57-.78,5.45,5.45,0,0,0-1.17-.7,17.21,17.21,0,0,0-1.94-.72,24.71,24.71,0,0,1-2.51-1,9.49,9.49,0,0,1-2.09-1.25,5.36,5.36,0,0,1-1.42-1.67,4.48,4.48,0,0,1-.52-2.21,4.61,4.61,0,0,1,.54-2.22,5.3,5.3,0,0,1,1.5-1.71,7.13,7.13,0,0,1,2.28-1.11,10.6,10.6,0,0,1,2.9-.38,8.69,8.69,0,0,1,3.77.77,6.16,6.16,0,0,1,2.5,2.13,5.57,5.57,0,0,1,.89,3.1h-4a3.07,3.07,0,0,0-.36-1.51,2.52,2.52,0,0,0-1.07-1,3.87,3.87,0,0,0-1.8-.38,4.28,4.28,0,0,0-1.75.32,2.39,2.39,0,0,0-1,.84,2.13,2.13,0,0,0-.35,1.19,1.59,1.59,0,0,0,.25.89,2.5,2.5,0,0,0,.74.75,6.55,6.55,0,0,0,1.22.66,14.56,14.56,0,0,0,1.68.6,18.2,18.2,0,0,1,2.8,1.09,8.53,8.53,0,0,1,2,1.35,5.06,5.06,0,0,1,1.24,1.7,5.51,5.51,0,0,1,.41,2.16,5,5,0,0,1-.5,2.28,4.66,4.66,0,0,1-1.43,1.7,6.74,6.74,0,0,1-2.24,1.06,10.81,10.81,0,0,1-2.9.36,11.07,11.07,0,0,1-2.86-.38,8.69,8.69,0,0,1-2.55-1.16,5.92,5.92,0,0,1-1.83-2,5.72,5.72,0,0,1-.68-2.85h4a3.89,3.89,0,0,0,.28,1.54,2.62,2.62,0,0,0,.8,1,3.16,3.16,0,0,0,1.23.56,6.53,6.53,0,0,0,1.58.18,4.28,4.28,0,0,0,1.72-.3,2.09,2.09,0,0,0,1.33-2Z" transform="translate(0 -0.34)"/><path class="cls-3" d="M156.44,112.9v19.5h-4V112.9Zm9.06,0V116H155.13V112.9Zm-1.34,7.94v3h-9v-3Zm1.35,8.43v3.13H155.13v-3.13Z" transform="translate(0 -0.34)"/><path class="cls-3" d="M171.69,111.82V132.4h-3.87V111.82Z" transform="translate(0 -0.34)"/><path class="cls-3" d="M181.55,132.67a8.1,8.1,0,0,1-3-.54,6.47,6.47,0,0,1-3.69-3.75,7.56,7.56,0,0,1-.5-2.73v-.54a9.27,9.27,0,0,1,.47-3,6.91,6.91,0,0,1,1.35-2.37,5.81,5.81,0,0,1,2.13-1.55,7.15,7.15,0,0,1,2.84-.54,6.94,6.94,0,0,1,2.74.51,5.49,5.49,0,0,1,2,1.44,6.27,6.27,0,0,1,1.22,2.25,9.45,9.45,0,0,1,.42,2.9v1.61H176v-2.58h7.73v-.29a3.46,3.46,0,0,0-.29-1.44,2.29,2.29,0,0,0-.86-1,2.69,2.69,0,0,0-1.48-.38,2.41,2.41,0,0,0-1.31.34,2.49,2.49,0,0,0-.89.93,4.86,4.86,0,0,0-.51,1.42,8.86,8.86,0,0,0-.17,1.77v.54a4.9,4.9,0,0,0,.25,1.61,3.67,3.67,0,0,0,.71,1.27,3.18,3.18,0,0,0,1.12.83,3.67,3.67,0,0,0,1.51.29,4.69,4.69,0,0,0,2-.4A4.31,4.31,0,0,0,185.3,128l1.88,2a5.88,5.88,0,0,1-1.24,1.26,6.82,6.82,0,0,1-1.88,1A7.79,7.79,0,0,1,181.55,132.67Z" transform="translate(0 -0.34)"/><path class="cls-3" d="M193.55,120.91V132.4h-3.87V117.91h3.63Zm-.53,3.73H192a9.91,9.91,0,0,1,.37-2.79,6.56,6.56,0,0,1,1.08-2.22,5,5,0,0,1,1.78-1.47,5.42,5.42,0,0,1,2.45-.52,5.06,5.06,0,0,1,1.77.29,3.61,3.61,0,0,1,1.38.89,4.27,4.27,0,0,1,.91,1.58,7.63,7.63,0,0,1,.32,2.33v9.67h-3.86v-9.24a3.49,3.49,0,0,0-.27-1.53,1.5,1.5,0,0,0-.76-.75,2.91,2.91,0,0,0-1.17-.21,2.52,2.52,0,0,0-2.22,1.15,4.16,4.16,0,0,0-.54,1.27A7,7,0,0,0,193,124.64Zm8.63-.44-1.38.18a9.26,9.26,0,0,1,.35-2.64,6.55,6.55,0,0,1,1.06-2.15,5,5,0,0,1,1.75-1.44,5.41,5.41,0,0,1,2.41-.51,5.69,5.69,0,0,1,1.9.3,3.7,3.7,0,0,1,1.47,1,4.43,4.43,0,0,1,.94,1.69,8.63,8.63,0,0,1,.32,2.56v9.26H206.6v-9.26a3.45,3.45,0,0,0-.26-1.53,1.46,1.46,0,0,0-.75-.74,2.9,2.9,0,0,0-1.16-.2,2.64,2.64,0,0,0-1.22.27,2.54,2.54,0,0,0-.87.76,3.55,3.55,0,0,0-.52,1.11A5.14,5.14,0,0,0,201.65,124.2Z" transform="translate(0 -0.34)"/><path class="cls-3" d="M220.13,132.67a8,8,0,0,1-3-.54,6.59,6.59,0,0,1-2.27-1.51,6.5,6.5,0,0,1-1.43-2.24,7.56,7.56,0,0,1-.5-2.73v-.54a9.27,9.27,0,0,1,.47-3,6.91,6.91,0,0,1,1.35-2.37,5.84,5.84,0,0,1,2.14-1.55,7.09,7.09,0,0,1,2.84-.54,6.92,6.92,0,0,1,2.73.51,5.49,5.49,0,0,1,2,1.44,6.45,6.45,0,0,1,1.23,2.25,9.77,9.77,0,0,1,.41,2.9v1.61H214.56v-2.58h7.73v-.29A3.46,3.46,0,0,0,222,122a2.29,2.29,0,0,0-.86-1,2.67,2.67,0,0,0-1.47-.38,2.45,2.45,0,0,0-1.32.34,2.57,2.57,0,0,0-.89.93,4.86,4.86,0,0,0-.51,1.42,8.86,8.86,0,0,0-.17,1.77v.54a5.17,5.17,0,0,0,.25,1.61,3.83,3.83,0,0,0,.71,1.27,3.22,3.22,0,0,0,1.13.83,3.6,3.6,0,0,0,1.51.29,4.68,4.68,0,0,0,1.94-.4,4.26,4.26,0,0,0,1.57-1.24l1.87,2a5.65,5.65,0,0,1-1.24,1.26,6.82,6.82,0,0,1-1.88,1A7.74,7.74,0,0,1,220.13,132.67Z" transform="translate(0 -0.34)"/><path class="cls-3" d="M232.06,121v11.4H228.2V117.91h3.62Zm-.57,3.64h-1a9.72,9.72,0,0,1,.41-2.9,6.85,6.85,0,0,1,1.17-2.21,5,5,0,0,1,1.79-1.4,5.33,5.33,0,0,1,2.32-.49,5.87,5.87,0,0,1,1.87.29,3.68,3.68,0,0,1,1.45.94,4.28,4.28,0,0,1,.94,1.7,8.82,8.82,0,0,1,.33,2.59v9.24h-3.89v-9.26a3.41,3.41,0,0,0-.27-1.5,1.54,1.54,0,0,0-.78-.75,3.21,3.21,0,0,0-1.27-.22,2.82,2.82,0,0,0-1.34.3,2.65,2.65,0,0,0-.94.85,4.19,4.19,0,0,0-.56,1.27A6.39,6.39,0,0,0,231.49,124.64Z" transform="translate(0 -0.34)"/><path class="cls-3" d="M250.76,117.91v2.73h-8.44v-2.73Zm-6.35-3.58h3.86V128a2.14,2.14,0,0,0,.17,1,.87.87,0,0,0,.5.46,2.25,2.25,0,0,0,.84.13,4.28,4.28,0,0,0,.65,0,4.41,4.41,0,0,0,.49-.07v2.84a6.46,6.46,0,0,1-1.07.25,7.11,7.11,0,0,1-1.27.1,5.43,5.43,0,0,1-2.22-.42,3,3,0,0,1-1.45-1.36,5.18,5.18,0,0,1-.51-2.47Z" transform="translate(0 -0.34)"/><path class="cls-3" d="M252.33,125.3V125a9.25,9.25,0,0,1,.45-2.94,6.9,6.9,0,0,1,1.33-2.34,6,6,0,0,1,2.14-1.55,7.24,7.24,0,0,1,2.92-.55,7.38,7.38,0,0,1,2.94.55,6.07,6.07,0,0,1,2.16,1.55,6.58,6.58,0,0,1,1.33,2.34,9,9,0,0,1,.46,2.94v.28a9,9,0,0,1-.46,2.93,6.58,6.58,0,0,1-1.33,2.34,5.91,5.91,0,0,1-2.15,1.55,7.24,7.24,0,0,1-2.92.55,7.33,7.33,0,0,1-2.93-.55,5.91,5.91,0,0,1-2.15-1.55,6.76,6.76,0,0,1-1.34-2.34A9.23,9.23,0,0,1,252.33,125.3Zm3.86-.28v.28a8.25,8.25,0,0,0,.16,1.7,4.4,4.4,0,0,0,.51,1.39,2.59,2.59,0,0,0,.93.93,2.83,2.83,0,0,0,1.41.33,2.71,2.71,0,0,0,1.38-.33,2.49,2.49,0,0,0,.92-.93A4.41,4.41,0,0,0,262,127a8.23,8.23,0,0,0,.17-1.7V125a8.08,8.08,0,0,0-.17-1.67,4.78,4.78,0,0,0-.52-1.39,2.53,2.53,0,0,0-2.33-1.31,2.62,2.62,0,0,0-1.38.35,2.68,2.68,0,0,0-.93,1,4.5,4.5,0,0,0-.51,1.39A8.09,8.09,0,0,0,256.19,125Z" transform="translate(0 -0.34)"/><path class="cls-3" d="M276.27,128.4a1.24,1.24,0,0,0-.24-.75,2.1,2.1,0,0,0-.89-.63,9.56,9.56,0,0,0-1.87-.53,13,13,0,0,1-2-.61,6.48,6.48,0,0,1-1.63-.89,3.86,3.86,0,0,1-1.08-1.24,3.34,3.34,0,0,1-.39-1.64,3.71,3.71,0,0,1,.4-1.71,4.29,4.29,0,0,1,1.14-1.43,5.54,5.54,0,0,1,1.82-1,8.89,8.89,0,0,1,5.68.25,4.86,4.86,0,0,1,2.09,1.66,4.12,4.12,0,0,1,.73,2.39h-3.86a2.25,2.25,0,0,0-.23-1,1.79,1.79,0,0,0-.73-.71,2.71,2.71,0,0,0-1.26-.26,2.76,2.76,0,0,0-1.12.22,1.75,1.75,0,0,0-.71.59,1.41,1.41,0,0,0-.25.81,1.27,1.27,0,0,0,.14.6,1.48,1.48,0,0,0,.46.48,4.15,4.15,0,0,0,.84.39,9.36,9.36,0,0,0,1.28.33,14.45,14.45,0,0,1,2.8.84,5,5,0,0,1,2,1.39,3.52,3.52,0,0,1,.72,2.3,3.68,3.68,0,0,1-.43,1.77,4.4,4.4,0,0,1-1.23,1.4,6.29,6.29,0,0,1-1.93.92,8.82,8.82,0,0,1-2.51.33,7.39,7.39,0,0,1-3.42-.72,5.45,5.45,0,0,1-2.12-1.85,4.24,4.24,0,0,1-.71-2.29h3.65a2,2,0,0,0,1.39,2A3.64,3.64,0,0,0,274,130a3.23,3.23,0,0,0,1.25-.21,1.78,1.78,0,0,0,.76-.56A1.38,1.38,0,0,0,276.27,128.4Z" transform="translate(0 -0.34)"/><path class="cls-3" d="M168.3,139.82v19.51h-4l-7.84-13.08v13.08h-4V139.82h4l7.86,13.09V139.82Z" transform="translate(0 -0.34)"/><path class="cls-3" d="M179.88,150.5l0,2.18h-2.15a4.72,4.72,0,0,0-1.33.17,2.51,2.51,0,0,0-.92.49,1.85,1.85,0,0,0-.53.73,2.27,2.27,0,0,0-.17.91,1.7,1.7,0,0,0,.23.9,1.53,1.53,0,0,0,.65.61,2.15,2.15,0,0,0,1,.22,3,3,0,0,0,1.51-.35,2.81,2.81,0,0,0,1-.85,1.79,1.79,0,0,0,.37-1l1,1.64a7.79,7.79,0,0,1-.59,1.14,5,5,0,0,1-.93,1.1,4.38,4.38,0,0,1-1.35.85,5.06,5.06,0,0,1-1.88.32,5.56,5.56,0,0,1-2.5-.55,4.47,4.47,0,0,1-1.76-1.54,4,4,0,0,1-.65-2.25,4.51,4.51,0,0,1,.43-2,3.83,3.83,0,0,1,1.26-1.49,6,6,0,0,1,2.1-.93,12.11,12.11,0,0,1,2.92-.31Zm-.51,5.56V149.6a3,3,0,0,0-.23-1.2,1.71,1.71,0,0,0-.7-.78,2.38,2.38,0,0,0-1.23-.28,2.53,2.53,0,0,0-1.11.22,1.61,1.61,0,0,0-.73.63,1.84,1.84,0,0,0-.25.95h-3.86a3.71,3.71,0,0,1,.43-1.75,4.55,4.55,0,0,1,1.25-1.47,6.4,6.4,0,0,1,1.95-1,8.31,8.31,0,0,1,2.53-.36,7.69,7.69,0,0,1,3,.56,4.72,4.72,0,0,1,2.07,1.69,5,5,0,0,1,.75,2.82v6.2a10.43,10.43,0,0,0,.15,1.95,5.25,5.25,0,0,0,.43,1.32v.23h-3.9a5.33,5.33,0,0,1-.42-1.48A10.8,10.8,0,0,1,179.37,156.06Z" transform="translate(0 -0.34)"/><path class="cls-3" d="M193.33,144.83v2.73h-8.44v-2.73ZM187,141.25h3.85V155a2.2,2.2,0,0,0,.17,1,.92.92,0,0,0,.5.47,2.6,2.6,0,0,0,.85.12,6.32,6.32,0,0,0,.65,0,4.56,4.56,0,0,0,.49-.08v2.85a8,8,0,0,1-1.07.25,8.34,8.34,0,0,1-1.27.09,5.43,5.43,0,0,1-2.22-.42,3,3,0,0,1-1.45-1.36,5.14,5.14,0,0,1-.51-2.46Z" transform="translate(0 -0.34)"/><path class="cls-3" d="M204.51,152.88l1.14,0a10.38,10.38,0,0,1-.33,2.69,6.33,6.33,0,0,1-1,2.14,4.45,4.45,0,0,1-1.69,1.41,5.23,5.23,0,0,1-2.39.5,6,6,0,0,1-1.95-.3,3.78,3.78,0,0,1-1.53-.95,4.36,4.36,0,0,1-1-1.67,7.55,7.55,0,0,1-.36-2.48v-9.36h3.86v9.39a3.17,3.17,0,0,0,.16,1.09,1.85,1.85,0,0,0,.43.72,1.61,1.61,0,0,0,.66.4,2.86,2.86,0,0,0,.85.12,3.26,3.26,0,0,0,1.89-.48,2.63,2.63,0,0,0,1-1.32A5.78,5.78,0,0,0,204.51,152.88Zm-.43,3v-11h3.86v14.5h-3.63Z" transform="translate(0 -0.34)"/><path class="cls-3" d="M214.74,148v11.34h-3.86v-14.5h3.63Zm4.36-3.25-.06,3.57-.68-.07-.72,0a4.57,4.57,0,0,0-1.41.2,2.6,2.6,0,0,0-1,.61,2.5,2.5,0,0,0-.59,1,4.38,4.38,0,0,0-.22,1.31l-.78-.24a11.12,11.12,0,0,1,.28-2.59,6.9,6.9,0,0,1,.83-2.07,4.06,4.06,0,0,1,1.33-1.37,3.4,3.4,0,0,1,1.81-.48,4.87,4.87,0,0,1,.65.05A2.12,2.12,0,0,1,219.1,144.74Z" transform="translate(0 -0.34)"/><path class="cls-3" d="M229.26,150.5l0,2.18h-2.15a4.78,4.78,0,0,0-1.33.17,2.6,2.6,0,0,0-.92.49,2,2,0,0,0-.53.73,2.46,2.46,0,0,0-.17.91,1.8,1.8,0,0,0,.23.9,1.53,1.53,0,0,0,.65.61,2.15,2.15,0,0,0,1,.22,3,3,0,0,0,1.51-.35,2.81,2.81,0,0,0,1-.85,1.79,1.79,0,0,0,.37-1l1,1.64a7.79,7.79,0,0,1-.59,1.14,5,5,0,0,1-.93,1.1,4.38,4.38,0,0,1-1.35.85,5.06,5.06,0,0,1-1.88.32,5.49,5.49,0,0,1-2.49-.55A4.43,4.43,0,0,1,221,157.5a4,4,0,0,1-.65-2.25,4.51,4.51,0,0,1,.43-2,3.83,3.83,0,0,1,1.26-1.49,6,6,0,0,1,2.1-.93,12.11,12.11,0,0,1,2.92-.31Zm-.51,5.56V149.6a3,3,0,0,0-.23-1.2,1.71,1.71,0,0,0-.7-.78,2.38,2.38,0,0,0-1.23-.28,2.53,2.53,0,0,0-1.11.22,1.58,1.58,0,0,0-.72.63,1.76,1.76,0,0,0-.26.95h-3.86a3.84,3.84,0,0,1,.43-1.75,4.55,4.55,0,0,1,1.25-1.47,6.4,6.4,0,0,1,2-1,8.33,8.33,0,0,1,2.54-.36,7.68,7.68,0,0,1,3,.56,4.72,4.72,0,0,1,2.07,1.69,5,5,0,0,1,.75,2.82v6.2a10.43,10.43,0,0,0,.15,1.95,5.25,5.25,0,0,0,.43,1.32v.23h-3.9a5.33,5.33,0,0,1-.42-1.48A12,12,0,0,1,228.75,156.06Z" transform="translate(0 -0.34)"/><path class="cls-3" d="M239.68,138.75v20.58h-3.87V138.75Z" transform="translate(0 -0.34)"/><path class="cls-3" d="M249.54,159.59a8.1,8.1,0,0,1-3-.54,6.41,6.41,0,0,1-2.27-1.51,6.81,6.81,0,0,1-1.43-2.24,7.47,7.47,0,0,1-.49-2.73V152a9.33,9.33,0,0,1,.47-3,7.06,7.06,0,0,1,1.34-2.37,6,6,0,0,1,2.14-1.55,7.15,7.15,0,0,1,2.84-.54,6.85,6.85,0,0,1,2.73.51,5.36,5.36,0,0,1,2,1.45,6.14,6.14,0,0,1,1.22,2.24,9.45,9.45,0,0,1,.42,2.9v1.61H244V150.7h7.73v-.3a3.53,3.53,0,0,0-.29-1.44,2.35,2.35,0,0,0-.86-1,2.69,2.69,0,0,0-1.48-.37,2.47,2.47,0,0,0-1.31.33,2.6,2.6,0,0,0-.89.94,4.69,4.69,0,0,0-.51,1.41,9,9,0,0,0-.17,1.78v.53a4.9,4.9,0,0,0,.25,1.61,3.58,3.58,0,0,0,.71,1.27,3.07,3.07,0,0,0,1.12.83,3.67,3.67,0,0,0,1.51.3,4.7,4.7,0,0,0,1.95-.41,4.11,4.11,0,0,0,1.56-1.24l1.88,2a5.88,5.88,0,0,1-1.24,1.26,6.54,6.54,0,0,1-1.88,1A7.52,7.52,0,0,1,249.54,159.59Z" transform="translate(0 -0.34)"/><path class="cls-3" d="M265.52,155.32a1.24,1.24,0,0,0-.24-.75,2.18,2.18,0,0,0-.89-.62,8.72,8.72,0,0,0-1.87-.53,14.36,14.36,0,0,1-2-.61,6.89,6.89,0,0,1-1.64-.89,3.83,3.83,0,0,1-1.07-1.24,3.4,3.4,0,0,1-.39-1.64,3.9,3.9,0,0,1,.39-1.72,4.53,4.53,0,0,1,1.14-1.42,5.29,5.29,0,0,1,1.82-1,7.68,7.68,0,0,1,2.44-.36,7.81,7.81,0,0,1,3.24.61,4.79,4.79,0,0,1,2.09,1.65,4.07,4.07,0,0,1,.73,2.39h-3.85a2.12,2.12,0,0,0-.24-1,1.7,1.7,0,0,0-.72-.71,2.63,2.63,0,0,0-1.27-.26,2.53,2.53,0,0,0-1.11.22,1.77,1.77,0,0,0-.72.59,1.43,1.43,0,0,0-.24.81,1.21,1.21,0,0,0,.14.6,1.28,1.28,0,0,0,.46.47,3.67,3.67,0,0,0,.84.4,8.34,8.34,0,0,0,1.27.32,15.73,15.73,0,0,1,2.8.84,4.92,4.92,0,0,1,2,1.4,3.49,3.49,0,0,1,.72,2.29,3.76,3.76,0,0,1-.42,1.77,4.21,4.21,0,0,1-1.24,1.4,5.92,5.92,0,0,1-1.92.93,9.26,9.26,0,0,1-2.51.32,7.39,7.39,0,0,1-3.42-.72,5.36,5.36,0,0,1-2.12-1.84,4.2,4.2,0,0,1-.72-2.3h3.66A2.07,2.07,0,0,0,261,156a2.11,2.11,0,0,0,1,.7,3.79,3.79,0,0,0,1.29.21,3.19,3.19,0,0,0,1.24-.2,1.68,1.68,0,0,0,.76-.57A1.3,1.3,0,0,0,265.52,155.32Z" transform="translate(0 -0.34)"/><path class="cls-3" d="M156.44,335.38v19.5h-4v-19.5Zm9.06,0v3.14H155.13v-3.14Zm-1.34,7.94v3.05h-9v-3.05Zm1.35,8.43v3.13H155.13v-3.13Z" transform="translate(0 -0.34)"/><path class="cls-3" d="M171.69,334.3v20.58h-3.87V334.3Z" transform="translate(0 -0.34)"/><path class="cls-3" d="M181.55,355.15a8.1,8.1,0,0,1-3-.54,6.47,6.47,0,0,1-3.69-3.75,7.56,7.56,0,0,1-.5-2.73v-.54a9.27,9.27,0,0,1,.47-3,6.91,6.91,0,0,1,1.35-2.37,5.81,5.81,0,0,1,2.13-1.55,7.15,7.15,0,0,1,2.84-.54,6.94,6.94,0,0,1,2.74.51,5.49,5.49,0,0,1,2,1.44,6.27,6.27,0,0,1,1.22,2.25,9.45,9.45,0,0,1,.42,2.9v1.61H176v-2.58h7.73V346a3.46,3.46,0,0,0-.29-1.44,2.29,2.29,0,0,0-.86-1,2.69,2.69,0,0,0-1.48-.38,2.41,2.41,0,0,0-1.31.34,2.49,2.49,0,0,0-.89.93,4.86,4.86,0,0,0-.51,1.42,8.86,8.86,0,0,0-.17,1.77v.54a4.9,4.9,0,0,0,.25,1.61,3.67,3.67,0,0,0,.71,1.27,3.18,3.18,0,0,0,1.12.83,3.67,3.67,0,0,0,1.51.29,4.69,4.69,0,0,0,2-.4,4.31,4.31,0,0,0,1.56-1.24l1.88,2a5.88,5.88,0,0,1-1.24,1.26,6.82,6.82,0,0,1-1.88,1A7.79,7.79,0,0,1,181.55,355.15Z" transform="translate(0 -0.34)"/><path class="cls-3" d="M193.55,343.39v11.49h-3.87V340.39h3.63Zm-.53,3.73H192a9.91,9.91,0,0,1,.37-2.79,6.56,6.56,0,0,1,1.08-2.22,5,5,0,0,1,1.78-1.47,5.42,5.42,0,0,1,2.45-.52,5.06,5.06,0,0,1,1.77.29,3.61,3.61,0,0,1,1.38.89,4.27,4.27,0,0,1,.91,1.58,7.63,7.63,0,0,1,.32,2.33v9.67h-3.86v-9.24a3.49,3.49,0,0,0-.27-1.53,1.5,1.5,0,0,0-.76-.75,2.91,2.91,0,0,0-1.17-.21,2.52,2.52,0,0,0-2.22,1.15,4.16,4.16,0,0,0-.54,1.27A7,7,0,0,0,193,347.12Zm8.63-.44-1.38.18a9.26,9.26,0,0,1,.35-2.64,6.55,6.55,0,0,1,1.06-2.15,5,5,0,0,1,1.75-1.44,5.41,5.41,0,0,1,2.41-.51,5.69,5.69,0,0,1,1.9.3,3.7,3.7,0,0,1,1.47.95,4.43,4.43,0,0,1,.94,1.69,8.63,8.63,0,0,1,.32,2.56v9.26H206.6v-9.26a3.45,3.45,0,0,0-.26-1.53,1.46,1.46,0,0,0-.75-.74,2.9,2.9,0,0,0-1.16-.2,2.64,2.64,0,0,0-1.22.27,2.54,2.54,0,0,0-.87.76,3.55,3.55,0,0,0-.52,1.11A5.14,5.14,0,0,0,201.65,346.68Z" transform="translate(0 -0.34)"/><path class="cls-3" d="M220.13,355.15a8,8,0,0,1-3-.54,6.59,6.59,0,0,1-2.27-1.51,6.5,6.5,0,0,1-1.43-2.24,7.56,7.56,0,0,1-.5-2.73v-.54a9.27,9.27,0,0,1,.47-3,6.91,6.91,0,0,1,1.35-2.37,5.84,5.84,0,0,1,2.14-1.55,7.09,7.09,0,0,1,2.84-.54,6.92,6.92,0,0,1,2.73.51,5.49,5.49,0,0,1,2,1.44,6.45,6.45,0,0,1,1.23,2.25,9.77,9.77,0,0,1,.41,2.9v1.61H214.56v-2.58h7.73V346a3.46,3.46,0,0,0-.29-1.44,2.29,2.29,0,0,0-.86-1,2.67,2.67,0,0,0-1.47-.38,2.45,2.45,0,0,0-1.32.34,2.57,2.57,0,0,0-.89.93,4.86,4.86,0,0,0-.51,1.42,8.86,8.86,0,0,0-.17,1.77v.54a5.17,5.17,0,0,0,.25,1.61,3.83,3.83,0,0,0,.71,1.27,3.22,3.22,0,0,0,1.13.83,3.6,3.6,0,0,0,1.51.29,4.68,4.68,0,0,0,1.94-.4,4.26,4.26,0,0,0,1.57-1.24l1.87,2a5.65,5.65,0,0,1-1.24,1.26,6.82,6.82,0,0,1-1.88,1A7.74,7.74,0,0,1,220.13,355.15Z" transform="translate(0 -0.34)"/><path class="cls-3" d="M232.06,343.48v11.4H228.2V340.39h3.62Zm-.57,3.64h-1a9.72,9.72,0,0,1,.41-2.9A6.74,6.74,0,0,1,232,342a5,5,0,0,1,1.79-1.4,5.33,5.33,0,0,1,2.32-.49,5.87,5.87,0,0,1,1.87.29,3.68,3.68,0,0,1,1.45.94,4.28,4.28,0,0,1,.94,1.7,8.82,8.82,0,0,1,.33,2.59v9.24h-3.89v-9.26a3.41,3.41,0,0,0-.27-1.5,1.54,1.54,0,0,0-.78-.75,3.21,3.21,0,0,0-1.27-.22,2.82,2.82,0,0,0-1.34.3,2.65,2.65,0,0,0-.94.85,4.19,4.19,0,0,0-.56,1.27A6.39,6.39,0,0,0,231.49,347.12Z" transform="translate(0 -0.34)"/><path class="cls-3" d="M250.76,340.39v2.73h-8.44v-2.73Zm-6.35-3.58h3.86v13.7a2.14,2.14,0,0,0,.17,1,.87.87,0,0,0,.5.46,2.25,2.25,0,0,0,.84.13,4.28,4.28,0,0,0,.65,0,4.41,4.41,0,0,0,.49-.07v2.84a6.46,6.46,0,0,1-1.07.25,7.11,7.11,0,0,1-1.27.1,5.43,5.43,0,0,1-2.22-.42,3,3,0,0,1-1.45-1.36,5.18,5.18,0,0,1-.51-2.47Z" transform="translate(0 -0.34)"/><path class="cls-3" d="M252.33,347.78v-.28a9.25,9.25,0,0,1,.45-2.94,6.9,6.9,0,0,1,1.33-2.34,6,6,0,0,1,2.14-1.55,7.24,7.24,0,0,1,2.92-.55,7.38,7.38,0,0,1,2.94.55,6.07,6.07,0,0,1,2.16,1.55,6.58,6.58,0,0,1,1.33,2.34,9,9,0,0,1,.46,2.94v.28a9,9,0,0,1-.46,2.93,6.58,6.58,0,0,1-1.33,2.34,5.91,5.91,0,0,1-2.15,1.55,7.24,7.24,0,0,1-2.92.55,7.33,7.33,0,0,1-2.93-.55,5.91,5.91,0,0,1-2.15-1.55,6.76,6.76,0,0,1-1.34-2.34A9.23,9.23,0,0,1,252.33,347.78Zm3.86-.28v.28a8.25,8.25,0,0,0,.16,1.7,4.4,4.4,0,0,0,.51,1.39,2.59,2.59,0,0,0,.93.93,2.83,2.83,0,0,0,1.41.33,2.71,2.71,0,0,0,1.38-.33,2.49,2.49,0,0,0,.92-.93,4.41,4.41,0,0,0,.52-1.39,8.23,8.23,0,0,0,.17-1.7v-.28a8.08,8.08,0,0,0-.17-1.67,4.78,4.78,0,0,0-.52-1.39,2.53,2.53,0,0,0-2.33-1.31,2.62,2.62,0,0,0-1.38.35,2.68,2.68,0,0,0-.93,1,4.5,4.5,0,0,0-.51,1.39A8.09,8.09,0,0,0,256.19,347.5Z" transform="translate(0 -0.34)"/><path class="cls-3" d="M276.27,350.88a1.29,1.29,0,0,0-.24-.76,2.18,2.18,0,0,0-.89-.62,9.56,9.56,0,0,0-1.87-.53,13,13,0,0,1-2-.61,6.48,6.48,0,0,1-1.63-.89,3.86,3.86,0,0,1-1.08-1.24,3.34,3.34,0,0,1-.39-1.64,3.71,3.71,0,0,1,.4-1.71,4.29,4.29,0,0,1,1.14-1.43,5.54,5.54,0,0,1,1.82-1,8.89,8.89,0,0,1,5.68.25,4.86,4.86,0,0,1,2.09,1.66,4.12,4.12,0,0,1,.73,2.39h-3.86a2.25,2.25,0,0,0-.23-1,1.79,1.79,0,0,0-.73-.71,2.71,2.71,0,0,0-1.26-.26,2.76,2.76,0,0,0-1.12.22,1.75,1.75,0,0,0-.71.59,1.41,1.41,0,0,0-.25.81,1.27,1.27,0,0,0,.14.6,1.48,1.48,0,0,0,.46.48,4.15,4.15,0,0,0,.84.39,9.36,9.36,0,0,0,1.28.33,14.45,14.45,0,0,1,2.8.84,5,5,0,0,1,2,1.39,3.52,3.52,0,0,1,.72,2.3,3.68,3.68,0,0,1-.43,1.77,4.4,4.4,0,0,1-1.23,1.4,6.29,6.29,0,0,1-1.93.92,8.82,8.82,0,0,1-2.51.33,7.39,7.39,0,0,1-3.42-.72,5.45,5.45,0,0,1-2.12-1.85,4.24,4.24,0,0,1-.71-2.29h3.65a2,2,0,0,0,1.39,2,3.64,3.64,0,0,0,1.29.22,3.23,3.23,0,0,0,1.25-.21,1.78,1.78,0,0,0,.76-.56A1.38,1.38,0,0,0,276.27,350.88Z" transform="translate(0 -0.34)"/><path class="cls-3" d="M162.58,376.7a2.77,2.77,0,0,0-.15-.94,2.06,2.06,0,0,0-.57-.78,5.07,5.07,0,0,0-1.17-.7,15.3,15.3,0,0,0-1.94-.73,21.81,21.81,0,0,1-2.51-1,10.32,10.32,0,0,1-2.09-1.25,5.34,5.34,0,0,1-1.42-1.67,4.51,4.51,0,0,1-.52-2.21,4.59,4.59,0,0,1,.54-2.22,5,5,0,0,1,1.5-1.71,7.13,7.13,0,0,1,2.28-1.11,10.22,10.22,0,0,1,2.9-.39,8.58,8.58,0,0,1,3.77.78,6.16,6.16,0,0,1,2.5,2.13,5.51,5.51,0,0,1,.89,3.09h-4a3,3,0,0,0-.35-1.5,2.48,2.48,0,0,0-1.07-1,3.87,3.87,0,0,0-1.8-.37,4.28,4.28,0,0,0-1.75.31,2.34,2.34,0,0,0-1,.85,2.1,2.1,0,0,0-.35,1.18,1.65,1.65,0,0,0,.25.9,2.5,2.5,0,0,0,.74.75,7.19,7.19,0,0,0,1.22.66q.72.3,1.68.6a18.22,18.22,0,0,1,2.8,1.08,8.86,8.86,0,0,1,2,1.36,4.81,4.81,0,0,1,1.23,1.7,5.25,5.25,0,0,1,.42,2.15,5.09,5.09,0,0,1-.5,2.28,4.58,4.58,0,0,1-1.43,1.7,6.55,6.55,0,0,1-2.24,1.06,10.81,10.81,0,0,1-2.9.36,10.65,10.65,0,0,1-2.86-.38,8.23,8.23,0,0,1-2.55-1.16,6,6,0,0,1-1.83-2,5.75,5.75,0,0,1-.68-2.85h4a3.75,3.75,0,0,0,.28,1.54,2.62,2.62,0,0,0,.8,1,3.48,3.48,0,0,0,1.23.56,7,7,0,0,0,1.58.17,4.47,4.47,0,0,0,1.72-.29,2.09,2.09,0,0,0,1.33-2Z" transform="translate(0 -0.34)"/><path class="cls-3" d="M168.46,374.71v-.29a9,9,0,0,1,.46-2.94,6.76,6.76,0,0,1,1.32-2.33,5.91,5.91,0,0,1,2.15-1.55,7.24,7.24,0,0,1,2.92-.56,7.33,7.33,0,0,1,2.93.56,6,6,0,0,1,2.17,1.55,7,7,0,0,1,1.33,2.33,9.25,9.25,0,0,1,.45,2.94v.29a9.12,9.12,0,0,1-.45,2.92,7,7,0,0,1-1.33,2.35,6.06,6.06,0,0,1-2.15,1.54,8.05,8.05,0,0,1-5.85,0,5.92,5.92,0,0,1-2.16-1.54,6.87,6.87,0,0,1-1.33-2.35A8.85,8.85,0,0,1,168.46,374.71Zm3.86-.29v.29a8.39,8.39,0,0,0,.16,1.7,4.35,4.35,0,0,0,.52,1.38,2.44,2.44,0,0,0,.93.93,2.67,2.67,0,0,0,1.4.34,2.62,2.62,0,0,0,1.38-.34,2.44,2.44,0,0,0,.93-.93,4.6,4.6,0,0,0,.51-1.38,7.72,7.72,0,0,0,.17-1.7v-.29a7.36,7.36,0,0,0-.17-1.66,4.57,4.57,0,0,0-.52-1.4,2.65,2.65,0,0,0-.93-.95,2.94,2.94,0,0,0-2.78,0,2.62,2.62,0,0,0-.92.95,4.57,4.57,0,0,0-.52,1.4A8,8,0,0,0,172.32,374.42Z" transform="translate(0 -0.34)"/><path class="cls-3" d="M190.55,379.06a2.66,2.66,0,0,0,1.26-.28,2.1,2.1,0,0,0,.87-.77,2.3,2.3,0,0,0,.33-1.19h3.63a4.9,4.9,0,0,1-.82,2.72,5.59,5.59,0,0,1-2.16,1.86,6.68,6.68,0,0,1-3,.67,7.08,7.08,0,0,1-2.94-.56,5.6,5.6,0,0,1-2.08-1.56,6.78,6.78,0,0,1-1.25-2.33,9.79,9.79,0,0,1-.41-2.86v-.39a9.81,9.81,0,0,1,.41-2.87,6.78,6.78,0,0,1,1.25-2.33,5.73,5.73,0,0,1,2.08-1.57,7.11,7.11,0,0,1,2.92-.56,6.81,6.81,0,0,1,3.13.69,5.13,5.13,0,0,1,2.11,1.94,5.73,5.73,0,0,1,.79,3H193a3,3,0,0,0-.31-1.31,2.25,2.25,0,0,0-2.16-1.3,2.44,2.44,0,0,0-1.38.35,2.38,2.38,0,0,0-.83,1,4.65,4.65,0,0,0-.41,1.38,10.44,10.44,0,0,0-.11,1.61v.39a12.15,12.15,0,0,0,.1,1.62,4.65,4.65,0,0,0,.41,1.38,2.35,2.35,0,0,0,.84.95A2.53,2.53,0,0,0,190.55,379.06Z" transform="translate(0 -0.34)"/><path class="cls-3" d="M198.82,363.53a1.82,1.82,0,0,1,.59-1.39,2.53,2.53,0,0,1,3.15,0,1.79,1.79,0,0,1,.6,1.39,1.83,1.83,0,0,1-.6,1.4,2.57,2.57,0,0,1-3.15,0A1.86,1.86,0,0,1,198.82,363.53Zm4.11,3.78v14.5h-3.87v-14.5Z" transform="translate(0 -0.34)"/><path class="cls-3" d="M214.45,373l0,2.18h-2.16a4.65,4.65,0,0,0-1.32.17,2.56,2.56,0,0,0-.93.49,2.07,2.07,0,0,0-.53.73,2.45,2.45,0,0,0-.16.91,1.79,1.79,0,0,0,.22.9,1.56,1.56,0,0,0,.66.61,2.15,2.15,0,0,0,1,.22,3,3,0,0,0,1.51-.35,2.81,2.81,0,0,0,1-.85,1.87,1.87,0,0,0,.37-1l1,1.64a6.82,6.82,0,0,1-.58,1.14,5,5,0,0,1-.93,1.1,4.63,4.63,0,0,1-1.35.85,5.1,5.1,0,0,1-1.88.32,5.56,5.56,0,0,1-2.5-.55,4.57,4.57,0,0,1-1.77-1.54,4,4,0,0,1-.65-2.25,4.65,4.65,0,0,1,.43-2,4,4,0,0,1,1.27-1.49,6,6,0,0,1,2.1-.93,12.11,12.11,0,0,1,2.92-.31Zm-.51,5.56v-6.46a3,3,0,0,0-.22-1.2,1.73,1.73,0,0,0-.71-.78,2.32,2.32,0,0,0-1.22-.28,2.53,2.53,0,0,0-1.11.22,1.56,1.56,0,0,0-.73.63,1.75,1.75,0,0,0-.25.95h-3.86a3.71,3.71,0,0,1,.43-1.75,4.51,4.51,0,0,1,1.24-1.47,6.64,6.64,0,0,1,2-1A8.38,8.38,0,0,1,212,367a7.61,7.61,0,0,1,3,.56,4.61,4.61,0,0,1,2.07,1.69,4.9,4.9,0,0,1,.76,2.82v6.2a10.43,10.43,0,0,0,.15,1.95,5.25,5.25,0,0,0,.43,1.32v.23h-3.9a5.33,5.33,0,0,1-.42-1.48A10.81,10.81,0,0,1,213.94,378.54Z" transform="translate(0 -0.34)"/><path class="cls-3" d="M224.88,361.23v20.58H221V361.23Z" transform="translate(0 -0.34)"/><path class="cls-3" d="M234.74,382.07a8,8,0,0,1-3-.54,6.41,6.41,0,0,1-2.27-1.51,6.65,6.65,0,0,1-1.43-2.24,7.47,7.47,0,0,1-.49-2.73v-.53a9.34,9.34,0,0,1,.46-3,7.26,7.26,0,0,1,1.35-2.37,6,6,0,0,1,2.14-1.55,7.12,7.12,0,0,1,2.84-.54,6.89,6.89,0,0,1,2.73.51,5.32,5.32,0,0,1,2,1.45,6.31,6.31,0,0,1,1.23,2.24,9.45,9.45,0,0,1,.41,2.9v1.61H229.16v-2.57h7.73v-.3a3.52,3.52,0,0,0-.28-1.44,2.37,2.37,0,0,0-.87-1,2.63,2.63,0,0,0-1.47-.37,2.54,2.54,0,0,0-1.32.33,2.68,2.68,0,0,0-.89.94,5.3,5.3,0,0,0-.51,1.41,9,9,0,0,0-.16,1.78v.53a4.9,4.9,0,0,0,.25,1.61,3.58,3.58,0,0,0,.71,1.27,3,3,0,0,0,1.12.83,3.63,3.63,0,0,0,1.51.3,4.77,4.77,0,0,0,2-.41,4.11,4.11,0,0,0,1.56-1.24l1.87,2a5.45,5.45,0,0,1-1.24,1.26,6.54,6.54,0,0,1-1.88,1A7.46,7.46,0,0,1,234.74,382.07Z" transform="translate(0 -0.34)"/><path class="cls-3" d="M250.72,377.8a1.24,1.24,0,0,0-.24-.75,2.18,2.18,0,0,0-.89-.62,8.9,8.9,0,0,0-1.87-.53,14,14,0,0,1-2-.61,6.89,6.89,0,0,1-1.64-.89,3.86,3.86,0,0,1-1.08-1.24,3.4,3.4,0,0,1-.39-1.64,3.91,3.91,0,0,1,.4-1.72,4.26,4.26,0,0,1,1.14-1.42,5.2,5.2,0,0,1,1.82-1,7.66,7.66,0,0,1,2.43-.36,7.86,7.86,0,0,1,3.25.61,4.85,4.85,0,0,1,2.09,1.65,4.07,4.07,0,0,1,.73,2.39h-3.86a2.24,2.24,0,0,0-.23-1,1.67,1.67,0,0,0-.73-.71,2.57,2.57,0,0,0-1.26-.26,2.53,2.53,0,0,0-1.11.22,1.65,1.65,0,0,0-.72.59,1.36,1.36,0,0,0-.25.81,1.33,1.33,0,0,0,.14.6,1.46,1.46,0,0,0,.46.47,4.13,4.13,0,0,0,.84.4,8.5,8.5,0,0,0,1.28.32,15.73,15.73,0,0,1,2.8.84,5.06,5.06,0,0,1,2,1.4,3.49,3.49,0,0,1,.72,2.29,3.65,3.65,0,0,1-.43,1.77,4.07,4.07,0,0,1-1.23,1.4,6.13,6.13,0,0,1-1.92.93,9.34,9.34,0,0,1-2.52.32,7.45,7.45,0,0,1-3.42-.72,5.33,5.33,0,0,1-2.11-1.84,4.2,4.2,0,0,1-.72-2.3h3.66a2.07,2.07,0,0,0,.4,1.27,2.16,2.16,0,0,0,1,.7,3.9,3.9,0,0,0,1.3.21,3.19,3.19,0,0,0,1.24-.2,1.8,1.8,0,0,0,.76-.57A1.36,1.36,0,0,0,250.72,377.8Z" transform="translate(0 -0.34)"/><path class="cls-3" d="M409.32,112.9v19.5h-4V112.9Zm9.06,0V116H408V112.9ZM417,120.84v3h-9v-3Zm1.35,8.43v3.13H408v-3.13Z" transform="translate(0 -0.34)"/><path class="cls-3" d="M424.57,111.82V132.4H420.7V111.82Z" transform="translate(0 -0.34)"/><path class="cls-3" d="M434.43,132.67a8,8,0,0,1-3-.54,6.52,6.52,0,0,1-3.7-3.75,7.55,7.55,0,0,1-.49-2.73v-.54a9,9,0,0,1,.47-3,7.06,7.06,0,0,1,1.34-2.37,5.93,5.93,0,0,1,2.14-1.55,7.15,7.15,0,0,1,2.84-.54,6.85,6.85,0,0,1,2.73.51,5.45,5.45,0,0,1,2,1.44,6.43,6.43,0,0,1,1.22,2.25,9.45,9.45,0,0,1,.42,2.9v1.61H428.86v-2.58h7.73v-.29a3.46,3.46,0,0,0-.29-1.44,2.25,2.25,0,0,0-.87-1,2.63,2.63,0,0,0-1.47-.38,2.39,2.39,0,0,0-1.31.34,2.42,2.42,0,0,0-.89.93,4.86,4.86,0,0,0-.51,1.42,8.86,8.86,0,0,0-.17,1.77v.54a4.9,4.9,0,0,0,.25,1.61,3.67,3.67,0,0,0,.71,1.27,3.18,3.18,0,0,0,1.12.83,3.63,3.63,0,0,0,1.51.29,4.69,4.69,0,0,0,1.95-.4,4.31,4.31,0,0,0,1.56-1.24l1.88,2a5.88,5.88,0,0,1-1.24,1.26,6.88,6.88,0,0,1-1.89,1A7.68,7.68,0,0,1,434.43,132.67Z" transform="translate(0 -0.34)"/><path class="cls-3" d="M446.43,120.91V132.4h-3.87V117.91h3.63Zm-.53,3.73h-1.08a10.29,10.29,0,0,1,.37-2.79,6.77,6.77,0,0,1,1.09-2.22,5,5,0,0,1,1.77-1.47,5.48,5.48,0,0,1,2.45-.52,5,5,0,0,1,1.77.29,3.57,3.57,0,0,1,1.39.89,4.12,4.12,0,0,1,.9,1.58,7.31,7.31,0,0,1,.33,2.33v9.67H451v-9.24a3.49,3.49,0,0,0-.27-1.53,1.5,1.5,0,0,0-.76-.75,2.91,2.91,0,0,0-1.17-.21,2.72,2.72,0,0,0-1.31.3,2.64,2.64,0,0,0-.91.85,4.16,4.16,0,0,0-.54,1.27A6.4,6.4,0,0,0,445.9,124.64Zm8.62-.44-1.38.18a9.26,9.26,0,0,1,.36-2.64,6.55,6.55,0,0,1,1.06-2.15,5,5,0,0,1,1.75-1.44,5.41,5.41,0,0,1,2.41-.51,5.74,5.74,0,0,1,1.9.3,3.7,3.7,0,0,1,1.47,1,4.29,4.29,0,0,1,.93,1.69,8.61,8.61,0,0,1,.33,2.56v9.26h-3.87v-9.26a3.6,3.6,0,0,0-.26-1.53,1.46,1.46,0,0,0-.75-.74,2.94,2.94,0,0,0-1.16-.2,2.64,2.64,0,0,0-1.22.27,2.45,2.45,0,0,0-.87.76,3.34,3.34,0,0,0-.52,1.11A5.14,5.14,0,0,0,454.52,124.2Z" transform="translate(0 -0.34)"/><path class="cls-3" d="M473,132.67a8.1,8.1,0,0,1-3-.54,6.47,6.47,0,0,1-3.69-3.75,7.56,7.56,0,0,1-.5-2.73v-.54a9.27,9.27,0,0,1,.47-3,6.91,6.91,0,0,1,1.35-2.37,5.81,5.81,0,0,1,2.13-1.55,7.15,7.15,0,0,1,2.84-.54,6.94,6.94,0,0,1,2.74.51,5.49,5.49,0,0,1,2,1.44,6.27,6.27,0,0,1,1.22,2.25,9.45,9.45,0,0,1,.42,2.9v1.61H467.44v-2.58h7.73v-.29a3.46,3.46,0,0,0-.29-1.44,2.29,2.29,0,0,0-.86-1,2.69,2.69,0,0,0-1.48-.38,2.41,2.41,0,0,0-1.31.34,2.49,2.49,0,0,0-.89.93,4.86,4.86,0,0,0-.51,1.42,8.86,8.86,0,0,0-.17,1.77v.54a5.17,5.17,0,0,0,.25,1.61,3.83,3.83,0,0,0,.71,1.27,3.13,3.13,0,0,0,1.13.83,3.59,3.59,0,0,0,1.5.29,4.69,4.69,0,0,0,1.95-.4,4.15,4.15,0,0,0,1.56-1.24l1.88,2a5.88,5.88,0,0,1-1.24,1.26,6.82,6.82,0,0,1-1.88,1A7.79,7.79,0,0,1,473,132.67Z" transform="translate(0 -0.34)"/><path class="cls-3" d="M484.94,121v11.4h-3.86V117.91h3.61Zm-.57,3.64h-1a9.72,9.72,0,0,1,.41-2.9,6.85,6.85,0,0,1,1.17-2.21,5,5,0,0,1,1.79-1.4,5.3,5.3,0,0,1,2.32-.49,5.76,5.76,0,0,1,1.86.29,3.64,3.64,0,0,1,1.46.94,4.27,4.27,0,0,1,.93,1.7,8.82,8.82,0,0,1,.33,2.59v9.24h-3.88v-9.26a3.41,3.41,0,0,0-.27-1.5,1.54,1.54,0,0,0-.78-.75,3.21,3.21,0,0,0-1.27-.22,2.86,2.86,0,0,0-1.35.3,2.62,2.62,0,0,0-.93.85,4.19,4.19,0,0,0-.56,1.27A6.39,6.39,0,0,0,484.37,124.64Z" transform="translate(0 -0.34)"/><path class="cls-3" d="M503.64,117.91v2.73H495.2v-2.73Zm-6.35-3.58h3.86V128a2.3,2.3,0,0,0,.16,1,.89.89,0,0,0,.51.46,2.25,2.25,0,0,0,.84.13,4.28,4.28,0,0,0,.65,0l.49-.07v2.84a6.71,6.71,0,0,1-1.07.25,7.11,7.11,0,0,1-1.27.1,5.43,5.43,0,0,1-2.22-.42,3,3,0,0,1-1.45-1.36,5.18,5.18,0,0,1-.51-2.47Z" transform="translate(0 -0.34)"/><path class="cls-3" d="M505.21,125.3V125a9.25,9.25,0,0,1,.45-2.94,6.74,6.74,0,0,1,1.33-2.34,6,6,0,0,1,2.14-1.55,8.05,8.05,0,0,1,5.85,0,6.11,6.11,0,0,1,2.17,1.55,6.74,6.74,0,0,1,1.33,2.34,9.24,9.24,0,0,1,.46,2.94v.28a9.23,9.23,0,0,1-.46,2.93,6.74,6.74,0,0,1-1.33,2.34,6,6,0,0,1-2.15,1.55,8.05,8.05,0,0,1-5.85,0,6,6,0,0,1-2.16-1.55,6.74,6.74,0,0,1-1.33-2.34A9.23,9.23,0,0,1,505.21,125.3Zm3.85-.28v.28a9,9,0,0,0,.16,1.7,4.41,4.41,0,0,0,.52,1.39,2.59,2.59,0,0,0,.93.93,3.11,3.11,0,0,0,2.79,0,2.49,2.49,0,0,0,.92-.93,4.67,4.67,0,0,0,.52-1.39,8.23,8.23,0,0,0,.17-1.7V125a8.08,8.08,0,0,0-.17-1.67,4.78,4.78,0,0,0-.52-1.39,2.56,2.56,0,0,0-2.33-1.31,2.5,2.5,0,0,0-2.31,1.31,4.51,4.51,0,0,0-.52,1.39A8.85,8.85,0,0,0,509.06,125Z" transform="translate(0 -0.34)"/><path class="cls-3" d="M529.15,128.4a1.25,1.25,0,0,0-.25-.75A2,2,0,0,0,528,127a9.15,9.15,0,0,0-1.87-.53,13.17,13.17,0,0,1-2-.61,6.48,6.48,0,0,1-1.63-.89,3.86,3.86,0,0,1-1.08-1.24,3.34,3.34,0,0,1-.39-1.64,3.71,3.71,0,0,1,.4-1.71,4.39,4.39,0,0,1,1.13-1.43,5.7,5.7,0,0,1,1.83-1,7.92,7.92,0,0,1,2.43-.35,8,8,0,0,1,3.25.6,4.86,4.86,0,0,1,2.09,1.66,4.12,4.12,0,0,1,.73,2.39H529a2.13,2.13,0,0,0-.24-1,1.7,1.7,0,0,0-.72-.71,2.75,2.75,0,0,0-1.27-.26,2.71,2.71,0,0,0-1.11.22,1.75,1.75,0,0,0-.71.59,1.41,1.41,0,0,0-.25.81,1.16,1.16,0,0,0,.14.6,1.48,1.48,0,0,0,.46.48,3.69,3.69,0,0,0,.84.39,9.36,9.36,0,0,0,1.28.33,14.45,14.45,0,0,1,2.8.84,4.93,4.93,0,0,1,1.95,1.39,3.47,3.47,0,0,1,.73,2.3,3.79,3.79,0,0,1-.43,1.77,4.4,4.4,0,0,1-1.23,1.4,6.29,6.29,0,0,1-1.93.92,8.82,8.82,0,0,1-2.51.33,7.39,7.39,0,0,1-3.42-.72,5.38,5.38,0,0,1-2.12-1.85,4.17,4.17,0,0,1-.72-2.29h3.66a2.16,2.16,0,0,0,.41,1.27,2.09,2.09,0,0,0,1,.69,3.64,3.64,0,0,0,1.29.22,3.23,3.23,0,0,0,1.25-.21,1.69,1.69,0,0,0,.75-.56A1.32,1.32,0,0,0,529.15,128.4Z" transform="translate(0 -0.34)"/><path class="cls-3" d="M420.82,152.85h4a7.28,7.28,0,0,1-1.08,3.5,6.5,6.5,0,0,1-2.66,2.39,9.11,9.11,0,0,1-4.11.85,8.19,8.19,0,0,1-3.36-.65,6.91,6.91,0,0,1-2.54-1.87,8.33,8.33,0,0,1-1.6-2.94,12.61,12.61,0,0,1-.55-3.87V148.9a12.4,12.4,0,0,1,.57-3.88,8.43,8.43,0,0,1,1.63-3,7.33,7.33,0,0,1,2.56-1.88,8.26,8.26,0,0,1,3.32-.65,8.77,8.77,0,0,1,4.12.88,6.47,6.47,0,0,1,2.61,2.44,8.43,8.43,0,0,1,1.12,3.54h-4a5,5,0,0,0-.47-2,2.71,2.71,0,0,0-1.21-1.25,4.7,4.7,0,0,0-2.15-.42,3.9,3.9,0,0,0-1.76.37,3.26,3.26,0,0,0-1.26,1.14,5.62,5.62,0,0,0-.75,1.92,12.86,12.86,0,0,0-.25,2.72v1.38a13.94,13.94,0,0,0,.23,2.66,5.78,5.78,0,0,0,.7,1.92,3.09,3.09,0,0,0,1.23,1.18,3.86,3.86,0,0,0,1.83.4,4.85,4.85,0,0,0,2.08-.4,2.84,2.84,0,0,0,1.25-1.2A4.78,4.78,0,0,0,420.82,152.85Z" transform="translate(0 -0.34)"/><path class="cls-3" d="M436.22,152.88l1.14,0a10.38,10.38,0,0,1-.33,2.69,6.33,6.33,0,0,1-1,2.14,4.45,4.45,0,0,1-1.69,1.41,5.23,5.23,0,0,1-2.39.5,6,6,0,0,1-1.95-.3,3.78,3.78,0,0,1-1.53-.95,4.49,4.49,0,0,1-1-1.67,7.55,7.55,0,0,1-.36-2.48v-9.36H431v9.39a3.17,3.17,0,0,0,.16,1.09,1.85,1.85,0,0,0,.43.72,1.61,1.61,0,0,0,.66.4,2.88,2.88,0,0,0,.86.12,3.25,3.25,0,0,0,1.88-.48,2.63,2.63,0,0,0,1-1.32A5.78,5.78,0,0,0,436.22,152.88Zm-.43,3v-11h3.86v14.5H436Z" transform="translate(0 -0.34)"/><path class="cls-3" d="M446.66,138.75v20.58h-3.87V138.75Z" transform="translate(0 -0.34)"/><path class="cls-3" d="M457,144.83v2.73h-8.44v-2.73Zm-6.35-3.58h3.86V155a2.22,2.22,0,0,0,.16,1,.94.94,0,0,0,.51.47,2.49,2.49,0,0,0,.84.12,6.32,6.32,0,0,0,.65,0,4.18,4.18,0,0,0,.49-.08v2.85a7.65,7.65,0,0,1-1.07.25,8.24,8.24,0,0,1-1.27.09,5.43,5.43,0,0,1-2.22-.42,3,3,0,0,1-1.45-1.36,5.14,5.14,0,0,1-.51-2.46Z" transform="translate(0 -0.34)"/><path class="cls-3" d="M468.14,152.88l1.13,0a10.38,10.38,0,0,1-.33,2.69,6.15,6.15,0,0,1-1,2.14,4.42,4.42,0,0,1-1.68,1.41,5.31,5.31,0,0,1-2.4.5,6,6,0,0,1-2-.3,3.85,3.85,0,0,1-1.53-.95,4.49,4.49,0,0,1-1-1.67,7.57,7.57,0,0,1-.35-2.48v-9.36h3.85v9.39a3.44,3.44,0,0,0,.16,1.09,2,2,0,0,0,.43.72,1.58,1.58,0,0,0,.67.4,2.77,2.77,0,0,0,.85.12,3.25,3.25,0,0,0,1.88-.48,2.57,2.57,0,0,0,1-1.32A5.78,5.78,0,0,0,468.14,152.88Zm-.43,3v-11h3.85v14.5h-3.63Z" transform="translate(0 -0.34)"/><path class="cls-3" d="M478.36,148v11.34H474.5v-14.5h3.63Zm4.36-3.25-.06,3.57-.68-.07-.72,0a4.57,4.57,0,0,0-1.41.2,2.6,2.6,0,0,0-1,.61,2.63,2.63,0,0,0-.59,1,4.72,4.72,0,0,0-.22,1.31l-.78-.24a11.68,11.68,0,0,1,.28-2.59,7.17,7.17,0,0,1,.83-2.07,4.06,4.06,0,0,1,1.33-1.37,3.42,3.42,0,0,1,1.81-.48,5.14,5.14,0,0,1,.66.05A2.14,2.14,0,0,1,482.72,144.74Z" transform="translate(0 -0.34)"/><path class="cls-3" d="M492.88,150.5l0,2.18h-2.16a4.78,4.78,0,0,0-1.33.17,2.6,2.6,0,0,0-.92.49,2,2,0,0,0-.53.73,2.46,2.46,0,0,0-.17.91,1.8,1.8,0,0,0,.23.9,1.5,1.5,0,0,0,.66.61,2.11,2.11,0,0,0,1,.22,3,3,0,0,0,1.51-.35,2.73,2.73,0,0,0,1-.85,1.79,1.79,0,0,0,.37-1l1,1.64a7.68,7.68,0,0,1-.58,1.14,5.6,5.6,0,0,1-.93,1.1,4.55,4.55,0,0,1-1.36.85,5,5,0,0,1-1.87.32,5.53,5.53,0,0,1-2.5-.55,4.43,4.43,0,0,1-1.77-1.54,4,4,0,0,1-.65-2.25,4.51,4.51,0,0,1,.43-2,3.92,3.92,0,0,1,1.26-1.49,6,6,0,0,1,2.1-.93,12.11,12.11,0,0,1,2.92-.31Zm-.51,5.56V149.6a3,3,0,0,0-.23-1.2,1.66,1.66,0,0,0-.7-.78,2.38,2.38,0,0,0-1.23-.28,2.53,2.53,0,0,0-1.11.22,1.58,1.58,0,0,0-.72.63,1.76,1.76,0,0,0-.26.95h-3.85a3.83,3.83,0,0,1,.42-1.75,4.67,4.67,0,0,1,1.25-1.47,6.4,6.4,0,0,1,1.95-1,8.33,8.33,0,0,1,2.54-.36,7.68,7.68,0,0,1,3,.56,4.72,4.72,0,0,1,2.07,1.69,5,5,0,0,1,.76,2.82v6.2a10.54,10.54,0,0,0,.14,1.95,5.25,5.25,0,0,0,.43,1.32v.23h-3.9a5.69,5.69,0,0,1-.42-1.48A12,12,0,0,1,492.37,156.06Z" transform="translate(0 -0.34)"/><path class="cls-3" d="M503.3,138.75v20.58h-3.87V138.75Z" transform="translate(0 -0.34)"/><path class="cls-3" d="M513.16,159.59a8,8,0,0,1-3-.54,6.36,6.36,0,0,1-2.28-1.51,6.63,6.63,0,0,1-1.42-2.24,7.48,7.48,0,0,1-.5-2.73V152a9.33,9.33,0,0,1,.47-3,6.91,6.91,0,0,1,1.35-2.37,5.92,5.92,0,0,1,2.13-1.55,7.15,7.15,0,0,1,2.84-.54,6.94,6.94,0,0,1,2.74.51,5.4,5.4,0,0,1,2,1.45,6.31,6.31,0,0,1,1.23,2.24,9.77,9.77,0,0,1,.41,2.9v1.61H507.59V150.7h7.73v-.3A3.53,3.53,0,0,0,515,149a2.35,2.35,0,0,0-.86-1,2.69,2.69,0,0,0-1.48-.37,2.5,2.5,0,0,0-1.31.33,2.6,2.6,0,0,0-.89.94,4.69,4.69,0,0,0-.51,1.41,9,9,0,0,0-.17,1.78v.53a5.17,5.17,0,0,0,.25,1.61,3.74,3.74,0,0,0,.71,1.27,3,3,0,0,0,1.13.83,3.59,3.59,0,0,0,1.5.3,4.7,4.7,0,0,0,2-.41,4,4,0,0,0,1.56-1.24l1.88,2a5.65,5.65,0,0,1-1.24,1.26,6.54,6.54,0,0,1-1.88,1A7.48,7.48,0,0,1,513.16,159.59Z" transform="translate(0 -0.34)"/><path class="cls-3" d="M529.15,155.32a1.25,1.25,0,0,0-.25-.75A2.11,2.11,0,0,0,528,154a8.55,8.55,0,0,0-1.87-.53,14.36,14.36,0,0,1-2-.61,6.81,6.81,0,0,1-1.63-.89,3.86,3.86,0,0,1-1.08-1.24A3.4,3.4,0,0,1,521,149a3.78,3.78,0,0,1,.4-1.72,4.36,4.36,0,0,1,1.13-1.42,5.34,5.34,0,0,1,1.83-1,7.62,7.62,0,0,1,2.43-.36,7.86,7.86,0,0,1,3.25.61,4.91,4.91,0,0,1,2.09,1.65,4.14,4.14,0,0,1,.73,2.39H529a2.12,2.12,0,0,0-.24-1,1.6,1.6,0,0,0-.72-.71,2.63,2.63,0,0,0-1.27-.26,2.56,2.56,0,0,0-1.11.22,1.67,1.67,0,0,0-.71.59,1.36,1.36,0,0,0-.25.81,1.21,1.21,0,0,0,.14.6,1.36,1.36,0,0,0,.46.47,3.67,3.67,0,0,0,.84.4,8.2,8.2,0,0,0,1.28.32,16,16,0,0,1,2.8.84,5,5,0,0,1,1.95,1.4,3.44,3.44,0,0,1,.73,2.29,3.77,3.77,0,0,1-.43,1.77,4.29,4.29,0,0,1-1.23,1.4,6.08,6.08,0,0,1-1.93.93,9.21,9.21,0,0,1-2.51.32,7.39,7.39,0,0,1-3.42-.72,5.36,5.36,0,0,1-2.12-1.84,4.2,4.2,0,0,1-.72-2.3h3.66a2.14,2.14,0,0,0,.41,1.27,2.11,2.11,0,0,0,1,.7,3.88,3.88,0,0,0,1.29.21,3.24,3.24,0,0,0,1.25-.2,1.71,1.71,0,0,0,.75-.57A1.3,1.3,0,0,0,529.15,155.32Z" transform="translate(0 -0.34)"/><path class="cls-5" d="M409.32,335.38v19.5h-4v-19.5Zm9.06,0v3.14H408v-3.14ZM417,343.32v3.05h-9v-3.05Zm1.35,8.43v3.13H408v-3.13Z" transform="translate(0 -0.34)"/><path class="cls-5" d="M424.57,334.3v20.58H420.7V334.3Z" transform="translate(0 -0.34)"/><path class="cls-5" d="M434.43,355.15a8,8,0,0,1-3-.54,6.52,6.52,0,0,1-3.7-3.75,7.55,7.55,0,0,1-.49-2.73v-.54a9,9,0,0,1,.47-3,7.06,7.06,0,0,1,1.34-2.37,5.93,5.93,0,0,1,2.14-1.55,7.15,7.15,0,0,1,2.84-.54,6.85,6.85,0,0,1,2.73.51,5.45,5.45,0,0,1,2,1.44,6.43,6.43,0,0,1,1.22,2.25,9.45,9.45,0,0,1,.42,2.9v1.61H428.86v-2.58h7.73V346a3.46,3.46,0,0,0-.29-1.44,2.25,2.25,0,0,0-.87-1,2.63,2.63,0,0,0-1.47-.38,2.39,2.39,0,0,0-1.31.34,2.42,2.42,0,0,0-.89.93,4.86,4.86,0,0,0-.51,1.42,8.86,8.86,0,0,0-.17,1.77v.54a4.9,4.9,0,0,0,.25,1.61A3.67,3.67,0,0,0,432,351a3.18,3.18,0,0,0,1.12.83,3.63,3.63,0,0,0,1.51.29,4.69,4.69,0,0,0,1.95-.4,4.31,4.31,0,0,0,1.56-1.24l1.88,2a5.88,5.88,0,0,1-1.24,1.26,6.88,6.88,0,0,1-1.89,1A7.68,7.68,0,0,1,434.43,355.15Z" transform="translate(0 -0.34)"/><path class="cls-5" d="M446.43,343.39v11.49h-3.87V340.39h3.63Zm-.53,3.73h-1.08a10.29,10.29,0,0,1,.37-2.79,6.77,6.77,0,0,1,1.09-2.22,5,5,0,0,1,1.77-1.47,5.48,5.48,0,0,1,2.45-.52,5,5,0,0,1,1.77.29,3.57,3.57,0,0,1,1.39.89,4.12,4.12,0,0,1,.9,1.58,7.31,7.31,0,0,1,.33,2.33v9.67H451v-9.24a3.49,3.49,0,0,0-.27-1.53,1.5,1.5,0,0,0-.76-.75,2.91,2.91,0,0,0-1.17-.21,2.72,2.72,0,0,0-1.31.3,2.64,2.64,0,0,0-.91.85,4.16,4.16,0,0,0-.54,1.27A6.4,6.4,0,0,0,445.9,347.12Zm8.62-.44-1.38.18a9.26,9.26,0,0,1,.36-2.64,6.55,6.55,0,0,1,1.06-2.15,5,5,0,0,1,1.75-1.44,5.41,5.41,0,0,1,2.41-.51,5.74,5.74,0,0,1,1.9.3,3.7,3.7,0,0,1,1.47.95,4.29,4.29,0,0,1,.93,1.69,8.61,8.61,0,0,1,.33,2.56v9.26h-3.87v-9.26a3.6,3.6,0,0,0-.26-1.53,1.46,1.46,0,0,0-.75-.74,2.94,2.94,0,0,0-1.16-.2,2.64,2.64,0,0,0-1.22.27,2.45,2.45,0,0,0-.87.76,3.34,3.34,0,0,0-.52,1.11A5.14,5.14,0,0,0,454.52,346.68Z" transform="translate(0 -0.34)"/><path class="cls-5" d="M473,355.15a8.1,8.1,0,0,1-3-.54,6.47,6.47,0,0,1-3.69-3.75,7.56,7.56,0,0,1-.5-2.73v-.54a9.27,9.27,0,0,1,.47-3,6.91,6.91,0,0,1,1.35-2.37,5.81,5.81,0,0,1,2.13-1.55,7.15,7.15,0,0,1,2.84-.54,6.94,6.94,0,0,1,2.74.51,5.49,5.49,0,0,1,2,1.44,6.27,6.27,0,0,1,1.22,2.25,9.45,9.45,0,0,1,.42,2.9v1.61H467.44v-2.58h7.73V346a3.46,3.46,0,0,0-.29-1.44,2.29,2.29,0,0,0-.86-1,2.69,2.69,0,0,0-1.48-.38,2.41,2.41,0,0,0-1.31.34,2.49,2.49,0,0,0-.89.93,4.86,4.86,0,0,0-.51,1.42,8.86,8.86,0,0,0-.17,1.77v.54a5.17,5.17,0,0,0,.25,1.61,3.83,3.83,0,0,0,.71,1.27,3.13,3.13,0,0,0,1.13.83,3.59,3.59,0,0,0,1.5.29,4.69,4.69,0,0,0,1.95-.4,4.15,4.15,0,0,0,1.56-1.24l1.88,2a5.88,5.88,0,0,1-1.24,1.26,6.82,6.82,0,0,1-1.88,1A7.79,7.79,0,0,1,473,355.15Z" transform="translate(0 -0.34)"/><path class="cls-5" d="M484.94,343.48v11.4h-3.86V340.39h3.61Zm-.57,3.64h-1a9.72,9.72,0,0,1,.41-2.9,6.74,6.74,0,0,1,1.17-2.21,5,5,0,0,1,1.79-1.4,5.3,5.3,0,0,1,2.32-.49,5.76,5.76,0,0,1,1.86.29,3.64,3.64,0,0,1,1.46.94,4.27,4.27,0,0,1,.93,1.7,8.82,8.82,0,0,1,.33,2.59v9.24h-3.88v-9.26a3.41,3.41,0,0,0-.27-1.5,1.54,1.54,0,0,0-.78-.75,3.21,3.21,0,0,0-1.27-.22,2.86,2.86,0,0,0-1.35.3,2.62,2.62,0,0,0-.93.85,4.19,4.19,0,0,0-.56,1.27A6.39,6.39,0,0,0,484.37,347.12Z" transform="translate(0 -0.34)"/><path class="cls-5" d="M503.64,340.39v2.73H495.2v-2.73Zm-6.35-3.58h3.86v13.7a2.3,2.3,0,0,0,.16,1,.89.89,0,0,0,.51.46,2.25,2.25,0,0,0,.84.13,4.28,4.28,0,0,0,.65,0,4.79,4.79,0,0,0,.49-.07v2.84a6.71,6.71,0,0,1-1.07.25,7.11,7.11,0,0,1-1.27.1,5.43,5.43,0,0,1-2.22-.42,3,3,0,0,1-1.45-1.36,5.18,5.18,0,0,1-.51-2.47Z" transform="translate(0 -0.34)"/><path class="cls-5" d="M505.21,347.78v-.28a9.25,9.25,0,0,1,.45-2.94,6.74,6.74,0,0,1,1.33-2.34,6,6,0,0,1,2.14-1.55,8.05,8.05,0,0,1,5.85,0,6.11,6.11,0,0,1,2.17,1.55,6.74,6.74,0,0,1,1.33,2.34,9.24,9.24,0,0,1,.46,2.94v.28a9.23,9.23,0,0,1-.46,2.93,6.74,6.74,0,0,1-1.33,2.34A6,6,0,0,1,515,354.6a8.05,8.05,0,0,1-5.85,0,6,6,0,0,1-2.16-1.55,6.74,6.74,0,0,1-1.33-2.34A9.23,9.23,0,0,1,505.21,347.78Zm3.85-.28v.28a9,9,0,0,0,.16,1.7,4.41,4.41,0,0,0,.52,1.39,2.59,2.59,0,0,0,.93.93,3.11,3.11,0,0,0,2.79,0,2.49,2.49,0,0,0,.92-.93,4.67,4.67,0,0,0,.52-1.39,8.23,8.23,0,0,0,.17-1.7v-.28a8.08,8.08,0,0,0-.17-1.67,4.78,4.78,0,0,0-.52-1.39,2.56,2.56,0,0,0-2.33-1.31,2.5,2.5,0,0,0-2.31,1.31,4.51,4.51,0,0,0-.52,1.39A8.85,8.85,0,0,0,509.06,347.5Z" transform="translate(0 -0.34)"/><path class="cls-5" d="M529.15,350.88a1.3,1.3,0,0,0-.25-.76,2.11,2.11,0,0,0-.89-.62,9.15,9.15,0,0,0-1.87-.53,13.17,13.17,0,0,1-2-.61,6.48,6.48,0,0,1-1.63-.89,3.86,3.86,0,0,1-1.08-1.24,3.34,3.34,0,0,1-.39-1.64,3.71,3.71,0,0,1,.4-1.71,4.39,4.39,0,0,1,1.13-1.43,5.7,5.7,0,0,1,1.83-1,7.92,7.92,0,0,1,2.43-.35,8,8,0,0,1,3.25.6,4.86,4.86,0,0,1,2.09,1.66,4.12,4.12,0,0,1,.73,2.39H529a2.13,2.13,0,0,0-.24-1A1.7,1.7,0,0,0,528,343a2.75,2.75,0,0,0-1.27-.26,2.71,2.71,0,0,0-1.11.22,1.75,1.75,0,0,0-.71.59,1.41,1.41,0,0,0-.25.81,1.16,1.16,0,0,0,.14.6,1.48,1.48,0,0,0,.46.48,3.69,3.69,0,0,0,.84.39,9.36,9.36,0,0,0,1.28.33,14.45,14.45,0,0,1,2.8.84,4.93,4.93,0,0,1,1.95,1.39,3.47,3.47,0,0,1,.73,2.3,3.79,3.79,0,0,1-.43,1.77,4.4,4.4,0,0,1-1.23,1.4,6.29,6.29,0,0,1-1.93.92,8.82,8.82,0,0,1-2.51.33,7.39,7.39,0,0,1-3.42-.72,5.38,5.38,0,0,1-2.12-1.85,4.17,4.17,0,0,1-.72-2.29h3.66a2.16,2.16,0,0,0,.41,1.27,2.09,2.09,0,0,0,1,.69,3.64,3.64,0,0,0,1.29.22,3.23,3.23,0,0,0,1.25-.21,1.69,1.69,0,0,0,.75-.56A1.32,1.32,0,0,0,529.15,350.88Z" transform="translate(0 -0.34)"/><path class="cls-5" d="M388.68,362.3v19.51h-4V362.3Zm9.05,0v3.15H387.36V362.3Zm-1.34,7.94v3.06h-9v-3.06Zm1.36,8.43v3.14H387.36v-3.14Z" transform="translate(0 -0.34)"/><path class="cls-5" d="M405.84,379.06a2.72,2.72,0,0,0,1.26-.28A2.14,2.14,0,0,0,408,378a2.3,2.3,0,0,0,.33-1.19h3.63a4.82,4.82,0,0,1-.82,2.72A5.49,5.49,0,0,1,409,381.4a6.68,6.68,0,0,1-3,.67,7,7,0,0,1-2.94-.56A5.52,5.52,0,0,1,400.9,380a6.62,6.62,0,0,1-1.25-2.33,9.46,9.46,0,0,1-.42-2.86v-.39a9.48,9.48,0,0,1,.42-2.87,6.62,6.62,0,0,1,1.25-2.33A5.7,5.7,0,0,1,403,367.6a7.14,7.14,0,0,1,2.92-.56,6.78,6.78,0,0,1,3.13.69,5.16,5.16,0,0,1,2.12,1.94,5.82,5.82,0,0,1,.78,3h-3.63a3.11,3.11,0,0,0-.3-1.31,2.32,2.32,0,0,0-.83-.95,2.36,2.36,0,0,0-1.33-.35,2.4,2.4,0,0,0-1.38.35,2.31,2.31,0,0,0-.83,1,4.37,4.37,0,0,0-.41,1.38,10.42,10.42,0,0,0-.12,1.61v.39a12.12,12.12,0,0,0,.11,1.62,4.37,4.37,0,0,0,.41,1.38,2.35,2.35,0,0,0,.84.95A2.51,2.51,0,0,0,405.84,379.06Z" transform="translate(0 -0.34)"/><path class="cls-5" d="M413.53,374.71v-.29a9.25,9.25,0,0,1,.45-2.94,7,7,0,0,1,1.33-2.33,6,6,0,0,1,2.14-1.55,7.95,7.95,0,0,1,5.86,0,5.86,5.86,0,0,1,2.16,1.55,6.8,6.8,0,0,1,1.34,2.33,9.25,9.25,0,0,1,.45,2.94v.29a9.12,9.12,0,0,1-.45,2.92,6.89,6.89,0,0,1-1.34,2.35,5.89,5.89,0,0,1-2.15,1.54,7.24,7.24,0,0,1-2.92.55,7.33,7.33,0,0,1-2.93-.55,5.89,5.89,0,0,1-2.15-1.54,6.89,6.89,0,0,1-1.34-2.35A9.12,9.12,0,0,1,413.53,374.71Zm3.86-.29v.29a8.39,8.39,0,0,0,.16,1.7,4.6,4.6,0,0,0,.51,1.38,2.54,2.54,0,0,0,.94.93,2.67,2.67,0,0,0,1.4.34,2.62,2.62,0,0,0,1.38-.34,2.51,2.51,0,0,0,.93-.93,4.6,4.6,0,0,0,.51-1.38,8.37,8.37,0,0,0,.17-1.7v-.29a8,8,0,0,0-.17-1.66,4.57,4.57,0,0,0-.52-1.4,2.73,2.73,0,0,0-.93-.95,2.59,2.59,0,0,0-1.39-.35,2.54,2.54,0,0,0-1.39.35,2.73,2.73,0,0,0-.93.95,4.83,4.83,0,0,0-.51,1.4A8,8,0,0,0,417.39,374.42Z" transform="translate(0 -0.34)"/><path class="cls-5" d="M433.41,370.41v11.4h-3.86v-14.5h3.62Zm-.56,3.64H431.8a9.36,9.36,0,0,1,.42-2.9,6.54,6.54,0,0,1,1.16-2.21,5.19,5.19,0,0,1,1.79-1.41,5.84,5.84,0,0,1,4.19-.19,3.59,3.59,0,0,1,1.45.93,4.25,4.25,0,0,1,.94,1.71,8.7,8.7,0,0,1,.33,2.58v9.25h-3.89v-9.26a3.58,3.58,0,0,0-.26-1.5,1.54,1.54,0,0,0-.79-.76,3.13,3.13,0,0,0-1.26-.22,2.75,2.75,0,0,0-1.35.31,2.64,2.64,0,0,0-.94.85,4,4,0,0,0-.55,1.27A5.93,5.93,0,0,0,432.85,374.05Z" transform="translate(0 -0.34)"/><path class="cls-5" d="M444.4,374.71v-.29a9.25,9.25,0,0,1,.45-2.94,7,7,0,0,1,1.33-2.33,5.87,5.87,0,0,1,2.14-1.55,7.24,7.24,0,0,1,2.92-.56,7.38,7.38,0,0,1,2.94.56,6,6,0,0,1,2.16,1.55,6.78,6.78,0,0,1,1.33,2.33,9,9,0,0,1,.46,2.94v.29a8.85,8.85,0,0,1-.46,2.92,6.87,6.87,0,0,1-1.33,2.35,6,6,0,0,1-2.15,1.54,8.05,8.05,0,0,1-5.85,0,6,6,0,0,1-2.16-1.54,7,7,0,0,1-1.33-2.35A9.12,9.12,0,0,1,444.4,374.71Zm3.85-.29v.29a8.37,8.37,0,0,0,.17,1.7,4.12,4.12,0,0,0,.51,1.38,2.59,2.59,0,0,0,.93.93,2.7,2.7,0,0,0,1.41.34,2.67,2.67,0,0,0,1.38-.34,2.49,2.49,0,0,0,.92-.93,4.61,4.61,0,0,0,.52-1.38,8.37,8.37,0,0,0,.17-1.7v-.29a8,8,0,0,0-.17-1.66,4.84,4.84,0,0,0-.52-1.4,2.73,2.73,0,0,0-.93-.95,2.6,2.6,0,0,0-1.4-.35,2.51,2.51,0,0,0-1.38.35,2.73,2.73,0,0,0-.93.95,4.31,4.31,0,0,0-.51,1.4A8,8,0,0,0,448.25,374.42Zm1.14-9.07,2.63-4.12h4.19l-3.68,4.12Z" transform="translate(0 -0.34)"/><path class="cls-5" d="M464.36,370.31v11.5h-3.87v-14.5h3.63Zm-.54,3.74h-1.07a9.86,9.86,0,0,1,.37-2.79A6.71,6.71,0,0,1,464.2,369a5,5,0,0,1,1.78-1.47,5.56,5.56,0,0,1,2.45-.52,5.3,5.3,0,0,1,1.77.29,3.55,3.55,0,0,1,1.39.9,4.1,4.1,0,0,1,.9,1.58,7.56,7.56,0,0,1,.32,2.32v9.68H469v-9.25a3.49,3.49,0,0,0-.27-1.53,1.56,1.56,0,0,0-.75-.75,3,3,0,0,0-1.17-.21,2.62,2.62,0,0,0-1.31.31,2.58,2.58,0,0,0-.92.85,3.74,3.74,0,0,0-.53,1.27A6.4,6.4,0,0,0,463.82,374.05Zm8.63-.44-1.38.17a9.63,9.63,0,0,1,.35-2.64,6.5,6.5,0,0,1,1.06-2.14,4.79,4.79,0,0,1,1.75-1.44,5.31,5.31,0,0,1,2.41-.52,5.69,5.69,0,0,1,1.9.3,3.56,3.56,0,0,1,1.47,1A4.35,4.35,0,0,1,481,370a8.61,8.61,0,0,1,.33,2.56v9.26h-3.87v-9.26a3.69,3.69,0,0,0-.26-1.54,1.5,1.5,0,0,0-.76-.73,2.88,2.88,0,0,0-1.15-.21,2.61,2.61,0,0,0-1.22.27,2.55,2.55,0,0,0-.87.76,3.41,3.41,0,0,0-.53,1.12A5.51,5.51,0,0,0,472.45,373.61Z" transform="translate(0 -0.34)"/><path class="cls-5" d="M484.23,363.53a1.81,1.81,0,0,1,.58-1.39,2.54,2.54,0,0,1,3.16,0,1.79,1.79,0,0,1,.6,1.39,1.83,1.83,0,0,1-.6,1.4,2.58,2.58,0,0,1-3.16,0A1.85,1.85,0,0,1,484.23,363.53Zm4.11,3.78v14.5h-3.87v-14.5Z" transform="translate(0 -0.34)"/><path class="cls-5" d="M497.52,379.06a2.65,2.65,0,0,0,1.25-.28,2.1,2.1,0,0,0,.87-.77,2.3,2.3,0,0,0,.33-1.19h3.63a4.82,4.82,0,0,1-.82,2.72,5.52,5.52,0,0,1-2.16,1.86,6.67,6.67,0,0,1-3,.67,7.09,7.09,0,0,1-3-.56,5.68,5.68,0,0,1-2.08-1.56,6.6,6.6,0,0,1-1.24-2.33,9.46,9.46,0,0,1-.42-2.86v-.39a9.48,9.48,0,0,1,.42-2.87,6.6,6.6,0,0,1,1.24-2.33,5.82,5.82,0,0,1,2.08-1.57,7.11,7.11,0,0,1,2.92-.56,6.78,6.78,0,0,1,3.13.69,5.13,5.13,0,0,1,2.11,1.94,5.73,5.73,0,0,1,.79,3H500a3.11,3.11,0,0,0-.3-1.31,2.28,2.28,0,0,0-2.17-1.3,2.44,2.44,0,0,0-1.38.35,2.38,2.38,0,0,0-.83,1,4.65,4.65,0,0,0-.41,1.38,11.86,11.86,0,0,0-.11,1.61v.39a10.66,10.66,0,0,0,.11,1.62,4.37,4.37,0,0,0,.4,1.38,2.42,2.42,0,0,0,.84.95A2.55,2.55,0,0,0,497.52,379.06Z" transform="translate(0 -0.34)"/><path class="cls-5" d="M505.2,374.71v-.29a9.24,9.24,0,0,1,.46-2.94,6.78,6.78,0,0,1,1.33-2.33,5.87,5.87,0,0,1,2.14-1.55,7.92,7.92,0,0,1,5.85,0,6,6,0,0,1,2.17,1.55,6.78,6.78,0,0,1,1.33,2.33,9.24,9.24,0,0,1,.46,2.94v.29a9.12,9.12,0,0,1-.46,2.92,6.87,6.87,0,0,1-1.33,2.35,6,6,0,0,1-2.15,1.54,8.05,8.05,0,0,1-5.85,0A6,6,0,0,1,507,380a6.87,6.87,0,0,1-1.33-2.35A9.12,9.12,0,0,1,505.2,374.71Zm3.86-.29v.29a9.17,9.17,0,0,0,.16,1.7,4.35,4.35,0,0,0,.52,1.38,2.59,2.59,0,0,0,.93.93,3,3,0,0,0,2.79,0,2.49,2.49,0,0,0,.92-.93,4.61,4.61,0,0,0,.52-1.38,8.39,8.39,0,0,0,.16-1.7v-.29a8,8,0,0,0-.16-1.66,4.84,4.84,0,0,0-.52-1.4,2.67,2.67,0,0,0-.94-.95,2.94,2.94,0,0,0-2.78,0,2.7,2.7,0,0,0-.92.95,4.57,4.57,0,0,0-.52,1.4A8.74,8.74,0,0,0,509.06,374.42Z" transform="translate(0 -0.34)"/><path class="cls-5" d="M529.15,377.8a1.25,1.25,0,0,0-.25-.75,2.11,2.11,0,0,0-.89-.62,8.55,8.55,0,0,0-1.87-.53,14.36,14.36,0,0,1-2-.61,6.81,6.81,0,0,1-1.63-.89,3.86,3.86,0,0,1-1.08-1.24,3.4,3.4,0,0,1-.39-1.64,3.78,3.78,0,0,1,.4-1.72,4.36,4.36,0,0,1,1.13-1.42,5.34,5.34,0,0,1,1.83-1,7.62,7.62,0,0,1,2.43-.36,7.86,7.86,0,0,1,3.25.61,4.91,4.91,0,0,1,2.09,1.65,4.14,4.14,0,0,1,.73,2.39H529a2.12,2.12,0,0,0-.24-1A1.6,1.6,0,0,0,528,370a2.63,2.63,0,0,0-1.27-.26,2.56,2.56,0,0,0-1.11.22,1.67,1.67,0,0,0-.71.59,1.36,1.36,0,0,0-.25.81,1.21,1.21,0,0,0,.14.6,1.36,1.36,0,0,0,.46.47,3.67,3.67,0,0,0,.84.4,8.2,8.2,0,0,0,1.28.32,16,16,0,0,1,2.8.84,5,5,0,0,1,1.95,1.4,3.44,3.44,0,0,1,.73,2.29,3.77,3.77,0,0,1-.43,1.77,4.29,4.29,0,0,1-1.23,1.4,6.08,6.08,0,0,1-1.93.93,9.21,9.21,0,0,1-2.51.32,7.39,7.39,0,0,1-3.42-.72,5.36,5.36,0,0,1-2.12-1.84,4.2,4.2,0,0,1-.72-2.3h3.66a2.14,2.14,0,0,0,.41,1.27,2.11,2.11,0,0,0,1,.7,3.88,3.88,0,0,0,1.29.21,3.24,3.24,0,0,0,1.25-.2,1.71,1.71,0,0,0,.75-.57A1.3,1.3,0,0,0,529.15,377.8Z" transform="translate(0 -0.34)"/><path class="cls-3" d="M135.41,132.13a74.29,74.29,0,0,0-1.51,7.5q-3.19,16.92-6.33,33.85a3.58,3.58,0,0,1-1.06,2q-4.47,4.44-8.89,8.9a3.92,3.92,0,0,1-3,1.11c-10.3-.11-20.61-.2-30.91-.33a2.33,2.33,0,0,0-1.89.76c-2.22,2.28-4.49,4.51-6.74,6.76a2.69,2.69,0,0,1-2.71.92A2.45,2.45,0,0,1,70.8,190a6.3,6.3,0,0,1,1-1.16c2.14-2.16,4.28-4.32,6.45-6.44a2.33,2.33,0,0,0,.79-1.88c-.12-10.23-.18-20.46-.31-30.69a4.71,4.71,0,0,1,1.52-3.74c2.81-2.71,5.55-5.49,8.29-8.27A4.56,4.56,0,0,1,91,136.47q20.13-3.74,40.24-7.52c2.41-.45,3.09-.2,4.13,1.66ZM87.8,179.89a.49.49,0,0,0,.54.24l25.49.24a1.5,1.5,0,0,0,1.13-.51q3.63-3.66,7.28-7.29a2,2,0,0,0,.59-1.12q3.33-17.89,6.68-35.78c.24-1.29.23-1.29-1-1.06q-17.73,3.33-35.46,6.62a3.12,3.12,0,0,0-1.77.93c-2.23,2.27-4.47,4.52-6.75,6.74a2.25,2.25,0,0,0-.75,1.79q.14,12.42.24,24.84c0,.26-.15.58.24.83,2.09-2.1,4.17-4.2,6.27-6.29a1.61,1.61,0,0,0,.42-1.18c.16-2.85.3-5.7.5-8.55a19.55,19.55,0,0,1,.34-3.66,2.38,2.38,0,0,1,2.68-1.83,2.35,2.35,0,0,1,2.14,2.34c0,1.08-.07,2.16-.12,3.25s-.12,2.39-.19,3.9c1.84-1.86,3.4-3.52,5.06-5.07a3.3,3.3,0,0,0,1.08-2.46c.11-2.5.27-5,.44-7.47a2.53,2.53,0,0,1,1.76-2.47,2.47,2.47,0,0,1,3.23,2.47c0,1.09-.09,2.17-.15,3.53,2.7-2.71,5.2-5.21,7.71-7.71a7.57,7.57,0,0,1,1.14-1,2.43,2.43,0,0,1,3.35.67c.77,1.11.6,2.32-.55,3.49-2.42,2.44-4.86,4.86-7.28,7.29-.21.21-.57.35-.51.82l2.7-.19a3,3,0,0,1,2.16.55,2.48,2.48,0,0,1-1.32,4.42c-2.45.19-4.91.38-7.36.45a4.28,4.28,0,0,0-3.27,1.5c-1.42,1.57-3,3-4.71,4.72,2.31-.15,4.27-.28,6.24-.39a4,4,0,0,1,1.71.16,2.45,2.45,0,0,1,1.56,2.67,2.48,2.48,0,0,1-2.58,2.16c-3.68.24-7.36.45-11,.68-.5,0-1-.08-1.45.32Z" transform="translate(0 -0.34)"/><path class="cls-3" d="M57.08,173a41.49,41.49,0,0,0,4.8,2.72A23.74,23.74,0,0,1,64.29,177a2.45,2.45,0,0,1-2,4.44,29.76,29.76,0,0,1-6.2-3,45.79,45.79,0,0,1-21.65-31.05,35.71,35.71,0,0,1-.67-5.16c0-.72-.27-1-1-1-1.84.06-3.69.05-5.53,0-2.07-.05-3.29-1.6-2.69-3.34A2.46,2.46,0,0,1,27,136.2c1.88,0,3.76,0,5.64,0,.81,0,1.06-.25,1.11-1a43.32,43.32,0,0,1,2.36-11.53c.22-.63,0-.82-.52-1-1.8-.74-3.61-1.48-5.39-2.28a2.45,2.45,0,0,1-1.59-2.77,2.42,2.42,0,0,1,2.06-2.06,3.22,3.22,0,0,1,1.88.37c1.7.7,3.4,1.41,5.08,2.16.5.23.75.18,1-.33a44,44,0,0,1,6.37-9.39c.42-.48.2-.72-.14-1.06q-2.05-2-4.07-4.06a2.62,2.62,0,0,1-.66-3.15,2.51,2.51,0,0,1,4.13-.48c1.37,1.28,2.7,2.62,4,4,.53.56.86.63,1.48.08a42.22,42.22,0,0,1,9.63-6.39c.78-.37.75-.74.47-1.41-.77-1.83-1.53-3.66-2.19-5.53a2.32,2.32,0,0,1,1.06-2.9,2.42,2.42,0,0,1,2.91.25,3.61,3.61,0,0,1,.91,1.45c.67,1.68,1.38,3.34,2,5,.23.6.47.76,1.12.55a41.56,41.56,0,0,1,10.7-2.08c.75,0,1-.35.95-1.07,0-1.85-.06-3.69,0-5.53.06-2,1.42-3.15,3.14-2.71a2.24,2.24,0,0,1,1.82,2,38.07,38.07,0,0,1,.07,5.85c0,1.09.3,1.42,1.36,1.48a40.27,40.27,0,0,1,10.9,2.23c.71.25,1.06.19,1.36-.59.7-1.81,1.48-3.61,2.3-5.37A2.41,2.41,0,0,1,101,87.45a2.5,2.5,0,0,1,2,2.12,3.3,3.3,0,0,1-.36,1.78c-.7,1.67-1.39,3.34-2.12,5-.26.57-.31.91.37,1.25a42.73,42.73,0,0,1,9.13,6.17c.5.43.78.42,1.24-.05,1.35-1.41,2.72-2.8,4.14-4.15a2.5,2.5,0,0,1,4.32,2.2,3.28,3.28,0,0,1-1,1.62c-1.31,1.31-2.6,2.62-3.92,3.9-.43.41-.47.68-.07,1.14a44.43,44.43,0,0,1,6.64,10c.28.58.58.57,1.11.35,1.72-.73,3.47-1.43,5.22-2.11a2.6,2.6,0,0,1,3.16.54,2.5,2.5,0,0,1-1,4c-1.14.53-2.34,1-3.51,1.42l-4.22,1.71c-2.23.89-3.3.48-4.31-1.75a44.27,44.27,0,0,0-5.38-9.12A41.15,41.15,0,0,0,75.94,97.68a40.26,40.26,0,0,0-22,9A41,41,0,0,0,40,128.41a43.7,43.7,0,0,0-1.24,7.8c0,.45.06.63.55.7a5.77,5.77,0,0,0,6.24-3.4,2.51,2.51,0,0,1,4.65,0,6.17,6.17,0,0,0,8.12,3.24,4.88,4.88,0,0,0,3.11-3.09,2.43,2.43,0,0,1,2.37-1.74,2.33,2.33,0,0,1,2.38,1.72c1,3.1,4.74,4,7.49,3.26.49-.12,1-.32,1.45-.45a2.49,2.49,0,0,1,3.18,1.47,2.53,2.53,0,0,1-1.46,3.22,11.69,11.69,0,0,1-5.27,1.06,11,11,0,0,1-7.19-2.58.76.76,0,0,0-1.19,0,11.86,11.86,0,0,1-14.81-.06.72.72,0,0,0-1.1,0,11.21,11.21,0,0,1-7.49,2.35c-.8,0-1,.23-.9,1a45,45,0,0,0,1.73,8.36,1.17,1.17,0,0,0,.78.82,6.93,6.93,0,0,0,7.75-2.94,2.41,2.41,0,0,1,2.21-1.33,2.23,2.23,0,0,1,2.27,1.54c1,3.5,5.09,4.21,8,3.34a5,5,0,0,0,3.3-3.19A2.43,2.43,0,0,1,68.17,148a2,2,0,0,1,1.26,1.11,6.92,6.92,0,0,0,3.2,3.66,2.35,2.35,0,0,1,.81,3.06,2.46,2.46,0,0,1-2.9,1.29,5.44,5.44,0,0,1-2.34-1.32c-.68-.66-1.16-.6-1.88,0a11.76,11.76,0,0,1-14.45-.29,1.12,1.12,0,0,0-1.65-.13A12,12,0,0,1,44,157.28c-.79,0-.8.24-.47.87a40.94,40.94,0,0,0,6.24,8.69c2.49,2.65,8,1.76,9.62-1.52.14-.29.26-.59.41-.88A2.4,2.4,0,0,1,62.12,163a2.25,2.25,0,0,1,2.2,1.49c1,2.74,3.09,3.73,5.84,3.74a2.72,2.72,0,0,1,2.71,1.43,2.35,2.35,0,0,1-.16,2.47,2.72,2.72,0,0,1-2.44,1.15,11.28,11.28,0,0,1-7.55-2.51c-.53-.45-.85-.44-1.34,0A12,12,0,0,1,57.08,173Z" transform="translate(0 -0.34)"/><path class="cls-3" d="M28.39,408.66c-4.61-3.31-4.57-11.78.31-16,1.53-1.33,1.87-2.28,1.23-4.22-1.5-4.47.88-9.31,5.34-11.42,1.18-.56,2.56-.76,2.68-2.56,0-.67.87-1.09,1.68-1.1s1.71.34,1.84,1.25c.22,1.43,1.22,1.76,2.33,2.24a9.68,9.68,0,0,1,5.45,12.31c-.55,1.57-.16,2.2,1,3.07a9.31,9.31,0,0,1,3.27,4.54,2.69,2.69,0,0,0,1.86,2c2,.68,2.16,2.6.34,3.57a2.35,2.35,0,0,0-1.53,2.16c-.1,2-1.7,3-3,4.22Zm11.28-4c2.8,0,5.6,0,8.4,0,.75,0,1.89.26,2-.87.2-2.69.46-5.46-1.63-7.69-1.3-1.38-2.53-2.24-4.65-1.08a8.39,8.39,0,0,1-8.1,0c-2.24-1.2-3.55-.29-4.87,1.23-1.61,1.86-1.58,4.12-1.63,6.4,0,1.57.62,2.06,2.09,2C34.06,404.58,36.87,404.62,39.67,404.63Zm6.09-18.81a6.08,6.08,0,1,0-6,6A6,6,0,0,0,45.76,385.82Z" transform="translate(0 -0.34)"/><path class="cls-3" d="M116.28,408.66c-1.63-1.31-3.13-2.71-3.12-5a1.6,1.6,0,0,0-.78-1.32c-1.63-1.28-1.53-2.55.23-3.6a2.31,2.31,0,0,0,1.11-1.41c.8-2.49,2.91-4,4.33-6.05s-1-4.57-.32-7.13a11.3,11.3,0,0,1,4.23-6.38c1.57-1.15,3.66-1.38,4.54-3.77.51-1.38,2.59-.89,3.08.69a3,3,0,0,0,2.1,2.08,9.69,9.69,0,0,1,5.66,12.43c-.47,1.37-.32,2,.81,2.89,4.37,3.37,4.58,8.13,4,13-.22,1.73-1.79,2.6-3.08,3.56Zm11.5-4h0c2.8,0,5.6,0,8.4,0,.88,0,2,.16,2-1.17.1-2.17.25-4.35-.93-6.33-1.51-2.53-3-3-5.71-2a10.2,10.2,0,0,1-7.66,0c-2.65-1-4.2-.48-5.66,2a7.52,7.52,0,0,0-.94,3.89c0,3.59,0,3.59,3.43,3.6Zm6.05-18.79a6.08,6.08,0,1,0-6,6A6,6,0,0,0,133.83,385.84Z" transform="translate(0 -0.34)"/><path class="cls-3" d="M94.74,348.45c1.67.18,3.11.24,4.52.5a11.44,11.44,0,0,1,9.42,10.73c.13,3.06,0,6.14.06,9.21,0,1.45-.46,2.64-2,2.66s-2-1.25-2-2.66c0-2.53.05-5.06,0-7.58-.14-5.59-3.09-8.52-8.61-8.53q-12.33,0-24.65,0c-5.36,0-8,2.33-8.7,7.59-.19,1.45-.37,2.88-2.23,2.71s-1.83-1.66-1.81-3.08a11.58,11.58,0,0,1,9.42-11c1.47-.27,3-.35,4.52-.52-5.83-9.38-5.35-17.07,1.3-22.63a15.35,15.35,0,0,1,19.68.14C100.19,331.59,100.61,339.33,94.74,348.45Zm-10.89.15a11.17,11.17,0,0,0,11.06-11.31,11.19,11.19,0,0,0-22.37.25A11.14,11.14,0,0,0,83.85,348.6Z" transform="translate(0 -0.34)"/><path class="cls-3" d="M83.88,386.73c-6.33,0-12.65,0-19,0-4.61,0-6.16-1.59-6.18-6.2,0-3,0-6,0-8.94,0-1.51.28-2.92,2-2.89s2,1.53,2,3c0,2.8.13,5.62-.07,8.4s1.29,2.58,3.19,2.62,2.73-.32,2.65-2.49c-.17-4.78,0-9.58-.06-14.37,0-1.57.18-3.14,2.13-3.05,1.75.08,1.87,1.6,1.86,3.05,0,4.79.07,9.58,0,14.37,0,1.83.38,2.53,2.37,2.49,6-.13,11.93-.12,17.89,0,1.84,0,2.51-.43,2.46-2.39-.14-4.78,0-9.57,0-14.36,0-1.55.08-3.19,2-3.16s2,1.71,2,3.24c0,4.88.07,9.76,0,14.64,0,1.83.77,2.23,2.27,2s3.56,1,3.5-1.9a13.22,13.22,0,0,1,.08-1.89,1.71,1.71,0,0,1,1.78-1.68,1.94,1.94,0,0,1,2.09,1.71c1.12,5-1.22,7.86-6.38,7.86Z" transform="translate(0 -0.34)"/><path class="cls-3" d="M39.53,334.4c-3.07,0-6.15.05-9.21,0-3.41-.07-5-1.83-5.2-5.24-.25-4.66.6-8.85,4.71-11.71,1.25-.86.46-1.7.19-2.58a10,10,0,0,1,7.67-13,10.28,10.28,0,0,1,12.15,8.77c.3,2.21-1.52,4.47-.68,6.18s3,2.75,3.92,4.68a15,15,0,0,1,1,9c-.41,2.54-2.21,3.84-4.81,3.86C46,334.42,42.78,334.4,39.53,334.4Zm0-4c2.89,0,5.77,0,8.66,0,.77,0,1.83.2,1.9-1,.14-2.42.41-4.91-1.21-7-1.35-1.76-2.76-2.94-5.24-1.61a8.14,8.14,0,0,1-7.82,0c-2.62-1.4-4-.14-5.4,1.73s-1.18,3.9-1.23,6c0,1.41.59,1.91,2,1.89C33.92,330.37,36.72,330.41,39.51,330.4Zm.08-12.83a6,6,0,0,0,6.19-5.84,6.09,6.09,0,0,0-12.17-.19A5.91,5.91,0,0,0,39.59,317.57Z" transform="translate(0 -0.34)"/><path class="cls-3" d="M127.79,334.4c-3.16,0-6.32.05-9.48,0s-4.94-1.81-5.12-5.06c-.27-4.73.56-9,4.79-11.95,1.29-.88.35-1.71.1-2.57-1.18-4.13-.3-7.76,3-10.55a9.72,9.72,0,0,1,11.12-1.5c3.76,1.78,6.35,5,5.63,9-.67,3.74.22,6.06,2.65,8.74,2.58,2.86,2.23,6.8,1.65,10.37-.37,2.25-2.17,3.48-4.55,3.5-3.25,0-6.5,0-9.75,0Zm0-4h8.39c.9,0,1.93.11,2-1.19.16-2.45.23-4.92-1.4-7-1.3-1.64-2.68-2.73-5-1.44a8.14,8.14,0,0,1-7.82,0c-2.72-1.44-4.19-.09-5.58,1.91-1.16,1.66-1,3.58-1.08,5.47-.08,1.6.44,2.28,2.14,2.21C122.22,330.33,125,330.4,127.81,330.41Zm-.12-12.84a5.91,5.91,0,0,0,6.15-5.86,6.08,6.08,0,1,0-6.15,5.86Z" transform="translate(0 -0.34)"/><path class="cls-3" d="M102.32,398.49c1.79,0,3.41.19,3.34,2.12-.08,2.12-1.88,2-3.46,2s-3.18-.19-3.11-2.11C99.16,398.4,101,398.54,102.32,398.49Z" transform="translate(0 -0.34)"/><path class="cls-3" d="M37.64,364.72c-.07-1.86,0-3.63,2.1-3.62,1.94,0,2,1.72,2,3.22s0,3.39-2.14,3.36C37.73,367.65,37.5,366,37.64,364.72Z" transform="translate(0 -0.34)"/><path class="cls-3" d="M129.82,364.59c.1,1.4-.06,3.05-1.95,3.09-2.11.05-2.16-1.73-2.15-3.34s0-3.21,2-3.24C129.78,361.07,129.87,362.84,129.82,364.59Z" transform="translate(0 -0.34)"/><path class="cls-3" d="M78,402.62c-1.64.07-3.37-.09-3.29-2.19.08-1.89,1.79-2,3.3-1.94s3.2,0,3.28,2C81.34,402.59,79.58,402.66,78,402.62Z" transform="translate(0 -0.34)"/><path class="cls-3" d="M37.64,339.8c-.09-1.58.2-3.19,2.08-3.12,2.1.08,2,1.93,2,3.49s-.17,3.19-2.12,3.11C37.5,343.19,37.62,341.36,37.64,339.8Z" transform="translate(0 -0.34)"/><path class="cls-3" d="M90.1,402.63c-1.5,0-3.13,0-3.15-2,0-2.25,1.81-2.07,3.33-2.1s3.16,0,3.16,2C93.44,402.7,91.67,402.64,90.1,402.63Z" transform="translate(0 -0.34)"/><path class="cls-3" d="M65.6,402.64c-1.5,0-3.13-.1-3.06-2.11.08-2.18,1.86-2,3.41-2s3.15.14,3.07,2.11C69,402.73,67.17,402.65,65.6,402.64Z" transform="translate(0 -0.34)"/><path class="cls-3" d="M102.32,311.68c1.79,0,3.41.2,3.34,2.13-.08,2.12-1.88,2-3.46,2s-3.18-.19-3.11-2.11C99.16,311.6,101,311.73,102.32,311.68Z" transform="translate(0 -0.34)"/><path class="cls-3" d="M78,315.82c-1.64.07-3.37-.09-3.29-2.19.08-1.89,1.79-2,3.3-1.94s3.2,0,3.28,1.95C81.34,315.78,79.58,315.86,78,315.82Z" transform="translate(0 -0.34)"/><path class="cls-3" d="M90.1,315.83c-1.5,0-3.13,0-3.15-2,0-2.25,1.81-2.07,3.33-2.1s3.16,0,3.16,2C93.44,315.9,91.67,315.84,90.1,315.83Z" transform="translate(0 -0.34)"/><path class="cls-3" d="M65.6,315.84c-1.5,0-3.13-.1-3.06-2.12.08-2.17,1.86-2,3.41-2s3.15.14,3.07,2.11S67.17,315.85,65.6,315.84Z" transform="translate(0 -0.34)"/><path class="cls-3" d="M129.82,339.82c0,1.69,0,3.49-2.11,3.45-1.94,0-2-1.72-2-3.23s0-3.41,2.14-3.36C129.74,336.72,129.91,338.38,129.82,339.82Z" transform="translate(0 -0.34)"/><path class="cls-3" d="M41.74,351.92c0,1.75,0,3.44-1.93,3.52-2.15.1-2.2-1.64-2.18-3.24s0-3.32,2.18-3.24C41.86,349,41.65,350.77,41.74,351.92Z" transform="translate(0 -0.34)"/><path class="cls-3" d="M129.82,352.21c.06,1.5,0,3.17-1.91,3.24-2.14.09-2.22-1.65-2.18-3.26,0-1.44-.12-3.15,1.92-3.23C129.86,348.89,129.83,350.63,129.82,352.21Z" transform="translate(0 -0.34)"/><path class="cls-3" d="M624.44,152.35a93,93,0,0,1-7.29,7.66c-.46.41-.29,1-.29,1.54,0,4.49,0,9,0,13.49a6.13,6.13,0,1,1-12.25.36c-.46-6-.77-12.1-1.12-18.15-.08-1.38.69-2.52,1.26-3.7a38.46,38.46,0,0,1,5.21-8.12,1.74,1.74,0,0,0,.42-2.19,3.76,3.76,0,0,1,.37-3.63c1.76-3.27,3.53-6.54,4.23-10.25a19.05,19.05,0,0,0,.32-4.52c0-.86-.29-1.2-1.26-1-2.33.54-4.69.91-7,1.44a3.13,3.13,0,0,1-3.64-1.39c-3.23-4.48-6.57-8.88-9.86-13.31a6.15,6.15,0,0,1,1.25-8.7c2.64-1.94,6-1.14,8.14,1.83,1.69,2.4,3.51,4.7,5.19,7.1a1.75,1.75,0,0,0,2.1.77c9.91-2,19.83-3.94,29.73-6a3.84,3.84,0,0,1,4.22,1.42c3.71,4.35,7.55,8.59,11.35,12.86a5.89,5.89,0,0,1,1.46,6.22,5.51,5.51,0,0,1-4.62,3.8,5.62,5.62,0,0,1-5.16-1.85c-2.52-2.66-5-5.34-7.55-8-1-1-1.88-1-3.93,0-1.15.56-.41,1.41-.3,2a45.64,45.64,0,0,0,6.48,16.54,29.36,29.36,0,0,1,2.4,4.36c1.29,3.15.51,5.66-2.46,7.56a3.06,3.06,0,0,0-1.46,2.17c-.45,2.2-1.05,4.37-1.51,6.56-.79,3.74.08,7.39.63,11.06.4,2.6.81,5.21,1.24,7.81.61,3.76-.6,6.33-3.55,7.47a7.35,7.35,0,0,1-8.56-3.06c-1.36-2.11-1.34-4.56-1.73-6.9C625.59,168,624.15,160.31,624.44,152.35Zm8.78-4.06a12.7,12.7,0,0,0,6-1.25,1.72,1.72,0,0,0,.8-2.67c-.72-1.22-1.37-2.48-2.12-3.68a50.63,50.63,0,0,1-7.44-21.11c-.2-1.66.26-2.45,1.85-3,1.89-.67,3.81-1.24,5.68-1.94a2.9,2.9,0,0,1,3.52.92c2.77,3,5.62,6,8.43,9,.71.75,1.49,1.5,2.47.57s.24-1.66-.4-2.4c-3.44-3.87-6.88-7.74-10.27-11.66a2.18,2.18,0,0,0-2.41-.77c-10,2-20,4-30,6a3.32,3.32,0,0,1-3.84-1.56c-2-2.88-4.15-5.67-6.24-8.51-.5-.67-1.1-1.29-1.93-.63a1.55,1.55,0,0,0-.3,2.23c.08.12.18.23.26.35,2.88,3.89,5.78,7.76,8.63,11.67a1.67,1.67,0,0,0,2,.74c2.62-.59,5.26-1.1,7.9-1.61,2.15-.42,3,.13,3.45,2.25a20.79,20.79,0,0,1,.53,4.65c0,5.25-1.91,9.92-4.36,14.43-1,1.74-1,1.81.76,2.87A36.06,36.06,0,0,0,633.22,148.29Zm-18.81-.89c-.45,0-.61.33-.82.59a39.06,39.06,0,0,0-5.24,8.25,4.26,4.26,0,0,0-.36,2.14c.32,5.35.62,10.71.94,16.07.1,1.59,1,2.82,2,2.63,1.52-.29,1.52-1.57,1.52-2.76,0-4.83,0-9.67,0-14.5a3.33,3.33,0,0,1,1.3-2.77,48.29,48.29,0,0,0,5.79-6c.63-.75.52-1.08-.38-1.41a32.11,32.11,0,0,1-2.94-1.31C615.57,148,615,147.7,614.41,147.4Zm20.29,34.27c1.25.05,1.93-.74,1.73-2.12s-.48-2.69-.65-4.05c-.56-4.25-1.63-8.44-1.69-12.77a29.78,29.78,0,0,1,1.49-8.78c.29-1,.09-1.38-1.06-1.31a20,20,0,0,1-4.09-.15c-1.16-.17-1.38.18-1.42,1.28-.28,8.58,1.64,16.9,2.87,25.31A3.16,3.16,0,0,0,634.7,181.67Z" transform="translate(0 -0.34)"/><path class="cls-3" d="M550,164.9c-.84-7.81.34-15.52,1.29-23.22a16.31,16.31,0,0,0-1-8.67c-3.18-7.67-6.08-15.46-9.08-23.2a6.5,6.5,0,0,1,.87-6.91c2.7-3.25,7.23-2.61,9.49,1.35,2.1,3.69,4.11,7.44,6.17,11.16,1.32,2.39,2.66,4.78,4,7.19a1.91,1.91,0,0,0,1.56,1.1c3.91.61,7.8,1.3,11.7,2a10.09,10.09,0,0,1,5.28,2.66,85.11,85.11,0,0,0,7.34,5.6,1.78,1.78,0,0,0,1.67.17c2.41-.6,4.82-1.25,7.26-1.75a5.44,5.44,0,0,1,5.7,2.16,5.53,5.53,0,0,1,.58,6.08,5.61,5.61,0,0,1-3.47,3c-4.13,1.35-8.28,2.66-12.39,4.07a3.73,3.73,0,0,1-3.21-.26c-1.59-.86-3.27-1.56-4.83-2.47-1-.6-1.4-.29-1.75.72-.55,1.57-1.18,3.11-1.86,4.62-.43.93-.32,1.39.64,1.95a95.69,95.69,0,0,1,11.44,7.64c2.41,1.91,3,4.06,2,6.95a125.07,125.07,0,0,1-8.19,18,4.25,4.25,0,0,1-5.64,1.65,7.89,7.89,0,0,1-4.51-9.92c.66-2,1.46-4,2.25-6,.31-.77.18-1.14-.62-1.42-1.42-.51-2.83-1.07-4.21-1.7-1.05-.48-1.18-.06-1.24.89q-.8,12.28-1.67,24.58a7.09,7.09,0,0,1-6.93,6.79,6.87,6.87,0,0,1-7-6.57c-.54-7.95-.93-15.91-1.38-23.86Zm4.27-2.15h.05c.09,1.42.18,2.83.26,4.25q.71,12.66,1.42,25.33c.1,1.77,1.1,2.8,2.58,2.78s2.41-1.15,2.53-2.86l.6-8.93c.43-6.39.83-12.78,1.3-19.17.19-2.45,1.41-3.18,3.67-2.29q5,2,10.06,4c1.94.79,2.32,1.69,1.57,3.69-1,2.7-2.06,5.38-3,8.09-.67,1.86-.29,2.87,1.2,4.11.69.57,1,.44,1.4-.32a134.87,134.87,0,0,0,7.16-15.72,2.13,2.13,0,0,0-.86-2.84,142.42,142.42,0,0,0-12.81-8.25c-1.63-1-1.92-1.8-1.24-3.54q2-5.12,4.09-10.2c.8-1.95,1.81-2.35,3.68-1.44,2.2,1.06,4.39,2.14,6.55,3.28a2.87,2.87,0,0,0,2.49.17c3.51-1.21,7-2.35,10.57-3.5.87-.28,1.61-.7,1.36-1.73s-1.14-1.15-2.11-.9c-2.65.67-5.31,1.31-8,2a2.82,2.82,0,0,1-2.52-.3,100.14,100.14,0,0,1-8.67-6.52,8.68,8.68,0,0,0-4.68-2.16c-3.91-.62-7.79-1.35-11.71-1.92a3.6,3.6,0,0,1-2.89-2.11c-3.37-6.19-6.79-12.33-10.2-18.49-.24-.43-.49-.85-.76-1.25a1.21,1.21,0,0,0-1.38-.6,1.32,1.32,0,0,0-.92,1.2,3.91,3.91,0,0,0,.44,2.12q5.13,13.18,10.27,26.36a5.39,5.39,0,0,1,.37,2.7c-.46,3.69-.8,7.39-1.26,11.08-.14,1.11.17,1.44,1.3,1.42,2.84-.08,5.67,0,8.51,0,1.75,0,2.73.78,2.78,2.13s-1,2.28-2.8,2.29c-2.94,0-5.87.08-8.8,0-1.34,0-1.68.39-1.64,1.64C554.35,158.45,554.29,160.6,554.29,162.75Z" transform="translate(0 -0.34)"/><path class="cls-3" d="M563.09,112a8.88,8.88,0,0,1,8.82-8.89,8.94,8.94,0,1,1,.2,17.88A8.88,8.88,0,0,1,563.09,112Zm4.43.11a4.49,4.49,0,1,0,4.49-4.59A4.51,4.51,0,0,0,567.52,112.12Z" transform="translate(0 -0.34)"/><path class="cls-3" d="M630.33,96.43a8.94,8.94,0,1,1-8.85-9A8.9,8.9,0,0,1,630.33,96.43Zm-8.89,4.4a4.49,4.49,0,1,0-4.57-4.51A4.51,4.51,0,0,0,621.44,100.83Z" transform="translate(0 -0.34)"/><path class="cls-3" d="M556.4,89.8c-6.53-.83-11.54,1.58-16,5.45-.22.19-.43.41-.67.58a2.12,2.12,0,0,1-3-.28,2,2,0,0,1,0-2.91c5.45-5.16,11.75-8.15,19.46-7.32a2.22,2.22,0,0,1,2.27,2.5A2.1,2.1,0,0,1,556.4,89.8Z" transform="translate(0 -0.34)"/><path class="cls-3" d="M657.32,146.13a33.24,33.24,0,0,1-4.69,16.13,2.21,2.21,0,0,1-3.19,1.05,2.17,2.17,0,0,1-.67-3.18,30.86,30.86,0,0,0,4-12,22.47,22.47,0,0,0-.08-4.1c-.13-1.56.65-2.61,2-2.74s2.19.69,2.39,2.21C657.19,144.5,657.26,145.53,657.32,146.13Z" transform="translate(0 -0.34)"/><path class="cls-3" d="M576.52,78.4a2.92,2.92,0,0,1-1.8-.89c-1.37-1.38-2.77-2.74-4.12-4.14a2.23,2.23,0,0,1-.16-3.25,2.09,2.09,0,0,1,3.22.09c1.51,1.44,3,2.94,4.44,4.44a2.07,2.07,0,0,1,.38,2.43A2.33,2.33,0,0,1,576.52,78.4Z" transform="translate(0 -0.34)"/><path class="cls-3" d="M583.3,80.7a2.25,2.25,0,0,1,1.61.72c1.45,1.45,2.93,2.87,4.35,4.35a2.24,2.24,0,0,1,0,3.17,2.19,2.19,0,0,1-3.16,0c-1.52-1.45-3-3-4.44-4.48a2.07,2.07,0,0,1-.43-2.43A2.1,2.1,0,0,1,583.3,80.7Z" transform="translate(0 -0.34)"/><path class="cls-3" d="M648.61,80.57c-1.16,0-1.83-.35-2.21-1.14a2,2,0,0,1,.25-2.46c1.55-1.62,3.13-3.23,4.78-4.74a2.17,2.17,0,0,1,3.09,3c-1.5,1.66-3.14,3.21-4.74,4.78A1.74,1.74,0,0,1,648.61,80.57Z" transform="translate(0 -0.34)"/><path class="cls-3" d="M585.47,71.71a2.15,2.15,0,0,1,2,1.25,1.88,1.88,0,0,1-.21,2.2,25.21,25.21,0,0,1-2.68,2.69,2,2,0,0,1-2.9-.17,2,2,0,0,1-.13-2.91c.79-.93,1.71-1.74,2.58-2.59A1.76,1.76,0,0,1,585.47,71.71Z" transform="translate(0 -0.34)"/><path class="cls-3" d="M578.71,83.18a1.86,1.86,0,0,1-.56,1.14c-.78.81-1.54,1.63-2.38,2.39a2.18,2.18,0,0,1-3,0,2.1,2.1,0,0,1-.12-3,24.29,24.29,0,0,1,2.48-2.49,2,2,0,0,1,2.32-.31A2.32,2.32,0,0,1,578.71,83.18Z" transform="translate(0 -0.34)"/><path class="cls-3" d="M643.82,78.38a2.2,2.2,0,0,1-1.24,2,2,2,0,0,1-2.21-.13,25.26,25.26,0,0,1-2.79-2.78,2,2,0,0,1,.09-2.68,1.91,1.91,0,0,1,2.5-.59,9.58,9.58,0,0,1,3.52,3.6A2,2,0,0,1,643.82,78.38Z" transform="translate(0 -0.34)"/><path class="cls-3" d="M639.46,89.58a2.19,2.19,0,0,1-2-3.23,10.9,10.9,0,0,1,3.2-3.18,1.94,1.94,0,0,1,2.44.32,1.85,1.85,0,0,1,.62,2.25,9.7,9.7,0,0,1-3.63,3.7A1.71,1.71,0,0,1,639.46,89.58Z" transform="translate(0 -0.34)"/><path class="cls-3" d="M652.77,87.18a2.28,2.28,0,0,1-1.26,2.17,1.91,1.91,0,0,1-2.21-.21,21.55,21.55,0,0,1-2.77-2.8,2,2,0,0,1,.16-2.68,1.89,1.89,0,0,1,2.51-.52,12,12,0,0,1,3.32,3.24A2.06,2.06,0,0,1,652.77,87.18Z" transform="translate(0 -0.34)"/><path class="cls-5" d="M603.57,402.5H555c-4.49,0-5.18-.67-5.18-5q0-35.14,0-70.29a12.59,12.59,0,0,1,.14-2.82,2.72,2.72,0,0,1,3-2.18,2.53,2.53,0,0,1,2.65,2.23,26.48,26.48,0,0,1,.16,3.45c0,21.75,0,43.5-.05,65.25,0,2.57.61,3.58,3.3,3.36a49.77,49.77,0,0,1,8.19,0c2.47.2,2.93-.78,2.92-3-.09-16.6-.05-33.2-.05-49.8,0-5.94.07-6.12,5.86-6.17,2.26,0,2.23-.69,1.72-2.57-4.45-16.54,4.23-32.87,20.08-38S630.17,300,636.27,316c.62,1.62,1.3,2.43,3.12,2.26a44.57,44.57,0,0,1,5,0c3.56.07,4.42.92,4.43,4.53q0,17.81,0,35.62c0,11.66.08,23.32-.07,35,0,2.56.78,3.27,3.19,3.08s5.12-.3,5,3.09-2.92,2.93-5.21,2.94ZM632,326.3A24.75,24.75,0,1,0,607.14,351,24.64,24.64,0,0,0,632,326.3Zm10.79,34c0-11.23,0-22.46,0-33.69,0-1.78-.56-2.37-2.35-2.33-1.6,0-2.41.22-2.45,2.18a30.08,30.08,0,0,1-11.77,24,3.94,3.94,0,0,0-1.63,3.47c.05,13.22.09,26.45,0,39.67,0,2.5.9,3,3.11,2.89,4-.15,8-.18,12,0,2.45.12,3.21-.61,3.18-3.13C642.73,382.32,642.81,371.3,642.8,360.28Zm-66.56,9.48c0,8,0,16,0,23.95,0,1.93.36,2.84,2.56,2.76,4.41-.16,8.83-.13,13.24,0,2,.05,2.48-.73,2.47-2.58-.06-12.51,0-25,0-37.51,0-1.07,0-2.08-1.15-2.67a32.62,32.62,0,0,1-11.16-9.53c-1.32-1.69-3.39-.9-5-.67s-.84,1.91-.85,2.93C576.21,354.21,576.24,362,576.24,369.76Zm42.38,5.91c0-6.1,0-12.19,0-18.28,0-1.82-.29-2.4-2.29-1.75a26.5,26.5,0,0,1-13.68,1c-1.87-.37-2.33.27-2.32,2.07.06,11.77.08,23.54,0,35.31,0,2,.77,2.47,2.59,2.43,4.41-.1,8.83-.11,13.24,0,1.94.06,2.52-.58,2.49-2.51C618.56,387.86,618.63,381.76,618.62,375.67Z" transform="translate(0 -0.34)"/><path class="cls-5" d="M610.45,319.12c-.8,3.27.55,4.63,3.71,5.4,4.23,1,6.22,3.93,6.45,7.91.28,4.74-2.14,7.77-6.18,9.66-2.23,1-4.78,1.39-4.22,5,.23,1.44-1.37,2.33-2.86,2.29-1.67,0-3-1-2.86-2.72.2-2.64-1.22-3.29-3.37-3.78a17.93,17.93,0,0,1-6.62-3.54,2.79,2.79,0,0,1-.77-4.15c1-1.54,2.5-1.78,4.12-.78l.26.16c1.85,1.14,4.27,3.62,5.69,2.32,1.63-1.48.49-4.76.49-7.25,0-1.71-1.57-1.39-2.58-1.69-5.88-1.71-8.42-5-7.73-10.46.55-4.39,3.56-6.75,7.39-8.19,1.73-.64,3.25-1,3.13-3.45-.09-1.7,1.23-2.69,2.91-2.65a2.7,2.7,0,0,1,2.93,3c-.08,1.73.6,2.33,2.25,2.66a18.68,18.68,0,0,1,7,3.46c1.72,1.23,2.37,2.78,1.17,4.58s-2.84,1.45-4.43.44c-.35-.23-.67-.5-1-.71-1.44-.81-3-2.42-4.51-1.57C609.67,315.65,610.67,317.76,610.45,319.12Zm-6-.35c-.73-1.23.91-3.1-1.08-3.78-1.21-.41-3.74,2.3-3.57,3.72a3.42,3.42,0,0,0,3.37,3.11C605.49,321.84,603.77,319.73,604.5,318.77Zm5.57,14.62c1.29.9-1,3.27,1.3,3.37a3.42,3.42,0,0,0,3.26-3.6,3.09,3.09,0,0,0-3.08-3C609.15,330.11,611.06,332.27,610.07,333.39Z" transform="translate(0 -0.34)"/></g></g></svg>