<svg xmlns="http://www.w3.org/2000/svg" viewBox="0 0 143.8 143.81"><defs><style>.cls-1{fill:#6c2910;}</style></defs><g id="Capa_2" data-name="Capa 2"><g id="Capa_1-2" data-name="Capa 1"><path class="cls-1" d="M82.78,113.61a3.06,3.06,0,0,1,1.61,3.28c-2.06,13.18-9.66,23-21.79,26.05-8.32,2.06-16.2.3-23.52-3.73-12.92-7.11-22.17-17.4-25.61-32.05-3.71-15.81,5-30.33,20.82-34,10.7-2.53,18.41-8.34,24-17.7C64.67,44.71,75.75,42,87.77,48.16c3,1.53,4.49,1.16,6.65-1.11,5.86-6.18,12-12.1,18-18.11,1-1,1.91-1.63.33-3-1.19-1.05-1-2.62.21-3.74a2.58,2.58,0,0,1,3.58-.17c.76.56,1.24,1.61,2.49.4s.32-1.83-.33-2.71a2.55,2.55,0,0,1,.3-3.56c1.06-1.06,2.52-1.33,3.52-.26,1.46,1.57,2.3.82,3.31-.34.56-.63,1.2-1.18,1.78-1.79,1.71-1.82,3.33-1.64,5,.07,3.67,3.67,7.42,7.27,11.13,10.9v2.8l-2.4,2.2c-1.44,1.32-3.11,2.43-.58,4.48,1.23,1,.82,2.64-.41,3.69s-2.55.86-3.8-.17c-.74-.59-1.18-2-2.64-.65s-.13,2,.54,2.83c1.1,1.36,1.21,2.78-.11,4a2.55,2.55,0,0,1-4-.21c-1.29-1.53-2.06-1-3.22.17-6.42,6.52-12.86,13-19.42,19.39-1.37,1.34-1.28,2.22-.46,3.73,3,5.45,4.58,11.21,3.34,17.48-1.5,7.54-6.57,12.1-13,15.44a2.93,2.93,0,0,1-3.38-.61c-1.42-2.57,0-4,2.1-5.11,10.14-5.34,11.44-15.26,5.58-25-7,7-14,14-21.06,21A5.66,5.66,0,0,0,79.08,94a15.59,15.59,0,0,1-15.84,14.35A15.76,15.76,0,0,1,47.87,93.75,15.43,15.43,0,0,1,61.21,77.38a9.17,9.17,0,0,0,5.91-3.12c1.51-1.66,3.16-3.19,4.75-4.77L87.15,54.24C76.75,47.75,68.05,49.83,62,60a34.73,34.73,0,0,1-2.83,4.17,38.76,38.76,0,0,1-22.32,14C23.69,81,16.37,92,18.66,105.05c2.59,14.74,18,30,32.81,32.61,12,2.09,22.55-4.43,26-16.07.51-1.7.82-3.45,1.26-5.17C79.26,114.32,80.44,113.11,82.78,113.61Zm35.93-69.24c-.44-.49-.79-.9-1.17-1.28-1.45-1.46-3-2.84-4.34-4.38-1-1.1-1.57-1.08-2.62,0Q91.31,58.06,71.93,77.35c-1,1-1.34,1.54.2,2.37A11.16,11.16,0,0,1,76.46,84c.73,1.27,1.2,1.55,2.39.35Q98.11,65,117.47,45.68C117.86,45.29,118.22,44.89,118.71,44.37Zm-55.08,58.4a10.1,10.1,0,0,0,10-10,10.08,10.08,0,1,0-10,10ZM131,32.44c-.48-.6-.67-.91-.93-1.17-1.69-1.71-3.42-3.38-5.1-5.12-.72-.75-1.21-.53-1.81.13s-1,1.08-.24,1.85c1.78,1.75,3.53,3.54,5.31,5.3.33.32.7.58,1.2.17S130.42,32.84,131,32.44Zm-13.44-1.22c-.34.59-.61,1.18-1,1.71s-.05,1,.34,1.41c1.63,1.65,3.3,3.25,4.89,4.93.76.8,1.29.71,2,0s.78-1.28,0-2c-1.67-1.59-3.28-3.26-4.92-4.9C118.64,32.09,118.35,31.89,117.53,31.22ZM135.24,28l1.08-1.32c.49-.6.09-1-.31-1.43-1.65-1.65-3.31-3.28-4.94-4.95-.62-.63-1.11-.8-1.86-.1s-.72,1.34,0,2.06c1.67,1.62,3.29,3.29,4.95,4.93C134.46,27.44,134.78,27.64,135.24,28Z"/><path class="cls-1" d="M86,0C92.9,2.79,95.45,6.24,95,12.25a11.55,11.55,0,0,1-3.68,7.64c-3.82,3.74-8.28,6.66-12.68,9.66a3.1,3.1,0,0,1-3.89-.13A117.19,117.19,0,0,1,62.89,20.1c-7-6.58-4.41-17.47,3.7-19.68.13,0,.19-.28.29-.42h4.49a17.4,17.4,0,0,1,4.81,2.56c.5.45,1,.79,1.66.18C79.35,1.31,81.38.89,83.16,0Zm3.44,11.13a5.06,5.06,0,0,0-2.86-4.78c-1.89-1-3.64-.48-5.18.82-.79.65-1.44,1.47-2.2,2.15a2.86,2.86,0,0,1-4.43-.11,24.23,24.23,0,0,0-2.36-2.39,4.81,4.81,0,0,0-7.8,3.26,6.5,6.5,0,0,0,2.09,5.83,93.65,93.65,0,0,0,9,7.2,1.8,1.8,0,0,0,2.49,0,81.11,81.11,0,0,0,9.08-7A6.25,6.25,0,0,0,89.41,11.13Z"/><path class="cls-1" d="M13.49,50.7c0-6.57.11-13-.06-19.45-.06-2.63,1-3.89,3.37-4.66,6.48-2.07,12.9-4.32,19.35-6.47,3.56-1.19,4.9-.23,4.91,3.5,0,9.54,0,19.08,0,28.62a9.45,9.45,0,0,1-8.85,9.49A9.52,9.52,0,0,1,29.68,42.9a10.42,10.42,0,0,1,5.65.54V26.3c-5.09,1.73-10,3.5-15,5.05C18.7,31.86,19.13,33,19.13,34c0,8.51,0,17,0,25.53A9.62,9.62,0,0,1,11.75,69,9.53,9.53,0,0,1,1.13,64a8.94,8.94,0,0,1,.71-9.8,9,9,0,0,1,9.29-3.86ZM9.8,55.85a3.91,3.91,0,0,0-4.05,3.44,3.84,3.84,0,0,0,3.58,4.16,3.89,3.89,0,0,0,4.09-3.68A4,4,0,0,0,9.8,55.85ZM31.64,56a3.82,3.82,0,1,0-.29-7.63A3.82,3.82,0,0,0,31.64,56Z"/><path class="cls-1" d="M123.38,102.25c0,8.6.07,16.92,0,25.23-.06,6.25-4.4,10.44-10.21,10.1a9.44,9.44,0,0,1-8.7-10.64c.5-5.17,5.64-9.23,10.76-8.15,2.32.49,2.64-.11,2.59-2.2-.12-5.7-.07-11.41,0-17.11,0-3.78,1.31-4.68,4.93-3.48,2.65.88,5.28,1.82,7.93,2.71,1.86.63,2.55,2,1.93,3.72s-2,2.1-3.66,1.56S125.39,102.88,123.38,102.25Zm-13,25.15c-.17,2.52,1.4,4.37,3.44,4.32a3.35,3.35,0,0,0,3.6-3.45,3.24,3.24,0,0,0-3.3-3.71A3.38,3.38,0,0,0,110.33,127.4Z"/><path class="cls-1" d="M85.47,108.38c-.93-1.35-1.58-2.74-.23-4.19s2.6-1,4-.3c.87,1.34,1.22,2.71,0,4S86.82,108.94,85.47,108.38Z"/><path class="cls-1" d="M32.48,106.21a3.76,3.76,0,0,1,2.62,1.3L48.59,121c1.42,1.41,2.17,3,.46,4.59-1.56,1.47-3.07.79-4.41-.55-4.49-4.51-9-9-13.48-13.49-1-1-1.69-2-1.08-3.48A3,3,0,0,1,32.48,106.21Z"/><path class="cls-1" d="M45.61,102.63a2.46,2.46,0,0,1,1.52.79c1.92,1.91,3.87,3.78,5.71,5.76a2.76,2.76,0,0,1-4,3.86c-2-1.86-3.87-3.78-5.73-5.74a2.55,2.55,0,0,1-.51-3.1C43.17,103.19,44,102.68,45.61,102.63Z"/></g></g></svg>