<svg xmlns="http://www.w3.org/2000/svg" viewBox="0 0 290.68 239.36"><defs><style>.cls-1{isolation:isolate;}.cls-2{mix-blend-mode:soft-light;}.cls-3{fill:#fff;}.cls-4{fill:#6c2911;}</style></defs><g class="cls-1"><g id="Capa_1" data-name="Capa 1"><g class="cls-2"><circle class="cls-3" cx="180.14" cy="128.82" r="110.54" transform="translate(-38.33 165.11) rotate(-45)"/></g><path class="cls-4" d="M141.43,177.28c-11.25-2.38-21.28-7-28.7-16.16-6.74-8.37-9.35-18.22-9.88-28.69-.27-5.18-.71-10.5,1.4-15.44.84-1.95.85-3.19-.85-4.63a13,13,0,0,1-4-6.94c-2.75-10.9.12-20.68,6.38-29.55,8.81-12.49,26.53-16.57,40-9.35a9.24,9.24,0,0,0,8.42.34c9.62-3.8,19.47-3.64,29.33-1.11,8,2.06,15,6.29,21.93,10.62,13.65,8.54,26.28,18.59,39.79,27.34,6.93,4.49,13.86,9,21.83,11.59a8.08,8.08,0,0,1,5.83,7.61,8.47,8.47,0,0,1-5.12,8.8A209,209,0,0,0,248.4,143c-16.34,10.21-32.67,20.43-50.54,27.83-12.76,5.29-25.9,8.85-39.14,8.37A112.67,112.67,0,0,1,141.43,177.28Zm105.32-55.87c-8.9-.78-17.27,1.68-25.67,4-14.38,4-28.86,7.85-43.73,9.3-11.26,1.09-22.65,1.38-33.83-1.35a33.35,33.35,0,0,1-16.31-9.29,23.25,23.25,0,0,0-8.29-5.81c-4.07-1.54-6.68-.31-7.06,4-1.92,21.78,5.16,40.06,29,45.76,18.95,4.54,37.06,1.83,54.72-5.82,17.23-7.47,33.09-17.34,48.94-27.26,6-3.78,12.1-7.49,18.36-11.18C257.53,122.25,252.13,121.88,246.75,121.41Zm-18.54-18.62c-12.1-8.4-23.77-17.46-36.86-24.37-11.38-6-23.06-7.59-35.34-2.83-4.26,1.65-8.77,1.88-12.83-.58-13.42-8.15-31.45-.81-35.33,17.26a26.75,26.75,0,0,0-.58,7.76c.6,7.78,7.52,11.28,14.24,7.2,3.09-1.89,5.73-4.46,9-6a58.26,58.26,0,0,1,34.53-4.51,437.44,437.44,0,0,1,66.85,16c1.6.53,5.3.34,9.9-.51C236.9,108.81,232.55,105.81,228.21,102.79Zm-69.89,2.15c-9.76-.94-19.2.86-27.58,6.53-1.87,1.27-2.11,1.87-.3,3.89,9.65,10.73,22.32,11.36,35.31,11.23,16.67-.16,32.65-4.29,48.63-8.46A9,9,0,0,0,216,117C196.53,111.9,177.73,106.81,158.32,104.94Z"/><path class="cls-4" d="M14.16,90.08c0,1.13-.05,2.27,0,3.4.15,2.67,2.19,5,4.39,4.65,2.6-.39,4.29-1.86,4.31-4.78a68.7,68.7,0,0,1,5.31-26.79C39,41.22,58.2,26.33,85.23,21.48a68.68,68.68,0,0,1,10.15-.83c2.9-.08,4.5-1.4,4.71-4.2S98.38,12,95.29,12A78.67,78.67,0,0,0,42.93,31.43C25,46.8,15.52,66.48,14.16,90.08Z"/><path class="cls-4" d="M14.17,147.7c.79,35.48,28.31,68.44,63.44,75.93a75.29,75.29,0,0,0,17.18,2c3.37-.07,5.49-1.66,5.37-4.3-.11-2.28-1.59-4.33-5.29-4.43-34.69-1-62.85-24.1-70.32-57.62a65.94,65.94,0,0,1-1.69-14.14c0-3.47-1.83-5.71-4.47-5.68s-4.23,2.29-4.22,5.88Z"/><path class="cls-4" d="M32.59,90.88v.68c-.07,4.2,1.38,6.49,4.17,6.61s4.43-2.23,4.52-6.31c.58-26.51,21.51-49.23,48.14-52.25a59.73,59.73,0,0,1,6.08-.56c3,0,4.56-1.58,4.57-4.31s-1.63-4.34-4.55-4.36a58,58,0,0,0-26.9,6.11C46.26,47.72,34.57,66.11,32.59,90.88Z"/><path class="cls-4" d="M32.57,146.33C33.25,176.07,57,202.49,86,206.53a52.87,52.87,0,0,0,9.14.7c3.1-.11,5-1.75,5.07-4.31s-1.86-4.22-5-4.33c-26.49-1-47.33-18.33-52.86-44.06a46.54,46.54,0,0,1-1.1-9.43c0-3.51-1.82-5.72-4.47-5.66s-4.21,2.28-4.21,5.88Z"/><path class="cls-4" d="M51,91.4c0,.57,0,1.14,0,1.7.07,2.88,2,5.34,4.35,5,2.78-.39,4.3-2,4.39-5.07A35.59,35.59,0,0,1,71.83,66.7C78.4,60.77,86.25,57.94,95,57.41c3.4-.21,5.24-1.75,5.13-4.44s-2-4.16-5.45-4.19C72,48.6,51.58,68.49,51,91.4Z"/><path class="cls-4" d="M51,146.24c.58,22.9,21.07,42.87,43.71,42.58,3.43,0,5.48-1.56,5.44-4.23s-2.22-4.42-5.19-4.52c-19.11-.68-34.54-15.78-35.27-34.2-.17-4.24-1.66-6.42-4.41-6.44S50.88,141.83,51,146.24Z"/></g></g></svg>