<svg xmlns="http://www.w3.org/2000/svg" viewBox="0 0 290.68 239.36"><defs><style>.cls-1{isolation:isolate;}.cls-2{mix-blend-mode:soft-light;}.cls-3{fill:#fff;}.cls-4{fill:#6c2911;}</style></defs><g class="cls-1"><g id="Capa_1" data-name="Capa 1"><g class="cls-2"><circle class="cls-3" cx="160.13" cy="122.63" r="110.54" transform="translate(-39.81 149.15) rotate(-45)"/></g><path class="cls-4" d="M124.11,159.67c-12.84,5.85-11.93,12.71-9.19,22.34,7.77,27.41,7.1,27.6,35.48,26.52,20.39-.77,20.39-.77,24.61,19.23a10.7,10.7,0,0,0,.32,1.81c1.6,3.89.48,11,7.16,9.61,6.47-1.34,3.55-7.61,2.86-11.71a218.82,218.82,0,0,0-5-21.49c-1.9-7-6.87-9.72-13.94-9.3-9.82.58-19.65,1-29.47,1.52-6.28.32-9.9-2.36-10.24-8.95-.16-3.06-.07-6.33-1.14-9.11-2.35-6.08-.92-9.65,4.74-13.33,8.16-5.31,7.37-11.6-1.83-15.56-6.65-2.86-10.84-5.81-8.77-14.05,2-7.87-3.38-9.8-9.93-10.86-10.39-1.66-11-3.35-5.25-12.27,2.32-3.62,4.64-7.26,7.23-10.68a54.52,54.52,0,0,0,11.68-34.83c-.11-28.13,16-48.11,42.85-56.6,1.17-.37,2.35-.69,3.54-1,3.58-1,8-1.73,6.8-6.78-1.32-5.38-6-4.4-9.87-3.41C148.39,5.4,133.64,15.24,123.3,31.25a67.26,67.26,0,0,0-10.79,38.5,39.09,39.09,0,0,1-8.24,25.55,176.92,176.92,0,0,0-10.1,15.42c-7.62,12.75-4.18,21.5,10.29,25.58,3.22.9,5.26,1.78,4.35,5.31C106,152.29,111.92,157,124.11,159.67Z"/><path class="cls-4" d="M15.8,155.75c.27,19.49,6.64,36.73,19.38,51.52,2.25,2.61,4.66,7.13,8.87,3.85s.6-6.41-1.71-9.27c-23.85-29.62-23.72-66.17.39-95.49,2.24-2.71,5.07-5.4,1.33-8.52s-6.14.54-8.4,2.82C23.35,113.09,15.6,134.77,15.8,155.75Z"/><path class="cls-4" d="M40.22,155c.71,14,5,27.19,14.74,38.24,2,2.23,4.22,5.28,7.65,2.66,3.86-3,1.27-5.75-.81-8.57-17.1-23.28-16.85-41.71.9-65,1.78-2.35,3.61-4.63,1-7.21-3-3-5.61-1-7.89,1.3C45.36,126.9,40.42,139.71,40.22,155Z"/><path class="cls-4" d="M64.18,154.74c.4,8.53,3,15.25,8,21,1.83,2.12,4,4.33,7,2.1,2.79-2.08,2.34-4.77.36-7.22-8.67-10.71-8.28-21.17.69-31.49,2-2.25,3.26-4.82.43-7.18-2.67-2.23-5.13-.92-7.19,1.33A33.53,33.53,0,0,0,64.18,154.74Z"/></g></g></svg>