<svg id="Capa_1" data-name="Capa 1" xmlns="http://www.w3.org/2000/svg" viewBox="0 0 163.4 192.05"><defs><style>.cls-1{fill:#6c2910;}</style></defs><path class="cls-1" d="M149.79,140.67a3.48,3.48,0,0,1-3.47,1.81c-6-.07-12.06,0-18.09,0a8.68,8.68,0,0,1-1,0,2.74,2.74,0,0,1-2.47-2.89,2.54,2.54,0,0,1,2.62-2.27c5.23,0,10.45-.05,15.67,0,1.32,0,1.6-.35,1.6-1.62q-.06-31.47,0-62.94c0-1.34-.38-1.62-1.63-1.58-3.32.08-3.32,0-3.32,3.3v54.4c0,2.7-.78,3.48-3.47,3.49H95.31a7.74,7.74,0,0,0-7.13,3.86c-.45.75-.44,1.08.6,1.07,5.06,0,10.11,0,15.17,0,1.82,0,3.06.93,3.1,2.3,0,1.75-1.17,2.88-3.14,2.88-12.11,0-24.21,0-36.31,0-1.26,0-1.76.21-1.69,1.61.12,2.72-.74,3.51-3.42,3.52H53.7c-2.1,0-3-.94-3-3s0-2.06-2.07-2.06h-26c-2.44,0-3.29-.85-3.29-3.3V69.33c0-2.51.84-3.33,3.39-3.33,1.78,0,3.57-.1,5.35,0,1.29.1,1.55-.37,1.48-1.55-.1-1.74,0-3.48,0-5.22,0-2.64.8-3.45,3.39-3.45,4.29,0,8.58,0,12.87,0A1.59,1.59,0,0,0,47.3,55c2.8-4.25,5.64-8.49,8.46-12.72,1.59-2.38,3.49-2.38,5.08,0Q65.09,48.63,69.3,55a1.59,1.59,0,0,0,1.54.82,41,41,0,0,1,5,.08,12.24,12.24,0,0,1,8,4.19c.47.53.72.78,1.33.09a12.83,12.83,0,0,1,10.17-4.39c13.59,0,27.18,0,40.77,0,2.69,0,3.47.79,3.47,3.5,0,1.91,0,3.82,0,5.73,0,.82.26,1,1,1,1.91,0,3.83.06,5.73,0a3.34,3.34,0,0,1,3.47,1.8Zm-62.69-11c3-2.2,6.19-2.59,9.53-2.58,12.18.06,24.37,0,36.55.05,1,0,1.34-.23,1.34-1.31q0-31.84,0-63.69c0-1.09-.32-1.3-1.35-1.3q-18.78.06-37.57,0c-5.43,0-8.5,3.08-8.5,8.54v60.26ZM50.36,115.65c-.32-3.69-.63-7.28-.93-10.87q-1.8-21.45-3.57-42.89c-.08-.9-.43-1-1.17-1-2.89,0-5.78.08-8.66,0-1.18,0-1.45.31-1.45,1.46q.06,29.1,0,58.22c0,1.91,0,3.82,0,5.73,0,.65.17.88.85.88q7.2,0,14.4,0c.71,0,.84-.29.82-.9,0-1.4-.06-2.81,0-4.21,0-.74-.25-1-.92-1.21a16.09,16.09,0,0,1-6.49-3.37,7.56,7.56,0,0,1-2.78-5.14,2.6,2.6,0,0,1,2.27-3,2.54,2.54,0,0,1,2.79,2.36,3,3,0,0,0,.89,1.77A9.41,9.41,0,0,0,50.36,115.65ZM82,129.76v-15.9q0-22.47,0-44.95A7.6,7.6,0,0,0,75.5,61c-1.16-.18-2.37,0-3.55-.12-.87-.06-1.15.2-1.21,1.1-.3,4.23-.68,8.46-1,12.68q-1.47,17.44-3,34.88c-.17,2-.31,4-.48,6.19,2.27-1.07,4.56-1.73,4.94-4.61a2.37,2.37,0,0,1,2.72-1.79,2.57,2.57,0,0,1,2.21,2.44,6.65,6.65,0,0,1-1.53,4.35,13.87,13.87,0,0,1-5.63,4c-1,.45-2.45.33-2.9,1.26s-.12,2.16-.12,3.26c0,2.49,0,2.46,2.53,2.49C73.06,127.23,77.79,126.45,82,129.76ZM58.29,116.92c.25,0,.5,0,.76,0,1.93,0,1.92,0,2.07-1.9q1-12.37,2.08-24.74Q64.49,75,65.78,59.71a2,2,0,0,0-.42-1.41c-2.15-3.21-4.3-6.42-6.42-9.65-.47-.72-.73-.84-1.26,0-2.13,3.27-4.31,6.51-6.48,9.75a1.86,1.86,0,0,0-.38,1.3c.18,1.86.29,3.72.45,5.58q1.09,12.94,2.2,25.88c.66,7.78,1.29,15.56,2,23.34C55.66,116.94,55.71,116.93,58.29,116.92ZM29.42,101V94.11c0-7.22,0-14.44,0-21.66,0-1-.25-1.39-1.28-1.28a10.31,10.31,0,0,1-2.29,0c-1.16-.15-1.4.32-1.4,1.42q.06,31.65,0,63.32c0,1.19.38,1.38,1.45,1.38,7,0,14,0,21,0,1.17,0,2.7.55,3.42-.26s.1-2.29.22-3.46c.1-1-.28-1.21-1.22-1.2-5.48,0-11,0-16.44,0-2.72,0-3.5-.78-3.5-3.45Zm31.34,31.24c0-2.12,0-4.24,0-6.36,0-1.17.5-2.7-.2-3.44s-2.33-.14-3.54-.29c-1-.13-1.19.31-1.18,1.23,0,5.08,0,10.17,0,15.26,0,1.18-.5,2.7.21,3.44s2.33.15,3.53.3c1,.12,1.2-.32,1.19-1.23C60.73,138.17,60.76,135.2,60.76,132.23Zm12.83,5c2.24,0,4.49,0,6.73,0,1,0,1-.28.58-1a7.49,7.49,0,0,0-5.05-3.71,30.94,30.94,0,0,0-6.08-.21c-3.93,0-3.91,0-3.75,4,0,.73.25,1,1,.95C69.18,137.24,71.39,137.26,73.59,137.26Z"/><path class="cls-1" d="M115.83,137.27a2.56,2.56,0,0,1,2.68,2.32,2.62,2.62,0,1,1-5.23.12A2.52,2.52,0,0,1,115.83,137.27Z"/><path class="cls-1" d="M93,83.35c0-1.48,0-3,0-4.45a2.56,2.56,0,0,1,2.73-2.71A35.17,35.17,0,0,0,101,76a14.86,14.86,0,0,0,7.54-3.72c1.7-1.55,2.77-1.57,4.42-.06a14.88,14.88,0,0,0,10.42,4c.94,0,1.87,0,2.81,0a2.4,2.4,0,0,1,2.38,2.23c.27,7.88.16,15.7-3.41,23a37.6,37.6,0,0,1-12.44,14.69c-1.57,1.1-2.34,1.11-3.92,0C98.48,108.65,93.22,98.52,93,85.77,92.94,85,93,84.16,93,83.35Zm5.16,1.52a27.57,27.57,0,0,0,.18,4.45A31.48,31.48,0,0,0,110,110.63a1.06,1.06,0,0,0,1.62,0,33.2,33.2,0,0,0,7-7.86c4-6.33,5.22-13.34,4.92-20.7,0-.78-.42-.76-1-.78a19.36,19.36,0,0,1-10.94-3.63,1.18,1.18,0,0,0-1.66,0,19.78,19.78,0,0,1-8.65,3.46c-1.07.16-2.56-.34-3.09.5S98.12,83.77,98.12,84.87Z"/><path class="cls-1" d="M118.47,94.08a7.67,7.67,0,1,1-7.66-7.72A7.68,7.68,0,0,1,118.47,94.08Zm-5.14,0a2.53,2.53,0,1,0-2.6,2.44A2.57,2.57,0,0,0,113.33,94.13Z"/></svg>