<svg id="Capa_1" data-name="Capa 1" xmlns="http://www.w3.org/2000/svg" viewBox="0 0 198.13 271.77"><defs><style>.cls-1{fill:#6c2910;}.cls-2{fill:#fff;}</style></defs><circle class="cls-1" cx="104.5" cy="234.58" r="28.85"/><path class="cls-2" d="M106.8,222.91v19.81h-4.59V228.08l-4.52,1.32v-3.48l8.69-3Z"/><path class="cls-1" d="M64.68,170c-1-2.58-1.83-4.6-2.47-6.7-2.71-8.9,0-16.17,7.87-21.12,2.3-1.45,5.91-2.12,6.61-4.43.78-2.56-3.21-3.32-4.73-5.3-2.74-3.58-3.45-7.31-1.83-11.49a3.07,3.07,0,0,1,2.7-2.23,2.72,2.72,0,0,1,3,1.72c1.64,4,5.09,5.65,8.85,6.69,4.16,1.15,8.44,1.92,12.65,2.91a26,26,0,0,1,4.24,1.3c5.29,2.18,6.06,6.07,2,10-2.87,2.78-6.42,4.61-9.82,6.64-4,2.39-4.38,4.29-1.17,7.6a57.89,57.89,0,0,0,22.94,14c4,1.37,8.84.37,13.29.31,2,0,.94-1.3.55-2a28.41,28.41,0,0,0-7.12-8.49c-1.74-1.44-3.43-3-1.58-5.22s3.74-.93,5.46.52a35.56,35.56,0,0,1,6.76,7.37c1,1.55,1.73,1.8,2.85.1a17.27,17.27,0,0,1,4.76-4.65c1.67-1.13,3.3-1.19,4.55.56s.57,3.08-.88,4.2a18.08,18.08,0,0,0-4.9,5.51c-.85,1.53-.55,2.23,1.33,2.2,4.71-.06,9.42-.08,14.12,0,1.93,0,2.21-.94,2.2-2.54-.06-5.57-.1-11.15,0-16.72,0-2-.85-2.58-2.59-2.75a24.78,24.78,0,0,1-4-.77c-13.17-3.46-18.09-11.49-15-24.67,3.42-14.59,7-29.12,12.55-43.09a68.07,68.07,0,0,1,4.49-9.35c4.72-8.09,10.22-8.11,15-.17,3.64,6,5.89,12.52,8,19.11,3.51,10.71,5.88,21.74,9,32.55,4,14.11-3,23.69-16.87,26-4.05.67-5,2.09-4.74,5.85a104.42,104.42,0,0,1,0,13c-.14,2.72.6,3.74,3.48,3.6,5.06-.22,10.15,0,15.23-.07,2.1,0,4,.51,4,2.82.07,2.48-1.8,3.23-4.07,3.22-8.3,0-16.6,0-24.9,0H23.14c-1.11,0-2.23.05-3.34,0-2-.15-3.38-1.2-3.23-3.27.13-1.88,1.48-2.72,3.37-2.71,3.59,0,7.19-.08,10.77,0,2,.06,3.08-.49,2.83-2.69a25,25,0,0,1,0-2.6c0-2.85.71-6-.24-8.47-1.1-2.85-4.94-1.88-7.46-3-6.93-3-10.52-9.08-8.89-16.38,2.71-12.21,5.69-24.35,10.46-36a44.57,44.57,0,0,1,3.16-6.29c3.81-6.11,8.45-6,12.24.17a43.58,43.58,0,0,1,3.15,6.3c4.71,11.63,7.83,23.74,10.41,36,1.84,8.72-3.25,15.36-13.09,17.33-3,.59-4,1.63-3.68,4.54.41,3.53-1.52,8,.83,10.36,2.17,2.14,6.61.55,10,.63C55,170.07,59.61,170,64.68,170Zm98.19-44.91c0,4.83,0,9.66,0,14.49,0,1-.45,2.22,1.33,2.51,6.59,1,15.11-5.64,15.24-12.28a26,26,0,0,0-1.06-6.56c-3.83-15.87-7.62-31.76-14.3-46.74-1-2.2-1.82-5.57-4.19-5.68-2.57-.11-2.95,3.49-4.22,5.51a8.14,8.14,0,0,0-.62,1.34c-6.7,15.92-10.7,32.64-14.54,49.39a10.59,10.59,0,0,0,4.13,11.22c2.6,2,5.79,2.68,8.89,3.54,2.64.73,3.39-.16,3.35-2.86-.15-9.41,0-18.82-.07-28.22,0-2.19.41-4.21,3-4.27s3.09,1.91,3.07,4.13C162.83,115.42,162.86,120.25,162.87,125.07ZM36.56,96.69a23.93,23.93,0,0,0-3.87,7.21c-4.2,10.6-6.9,21.65-9.55,32.71-1.55,6.47,1.11,10.43,7.65,11.91,2.18.49,2.8-.14,2.77-2.33-.11-6.43,0-12.87-.05-19.3,0-2.4.28-4.86,3.27-4.77,2.81.08,2.84,2.56,2.83,4.75,0,6.43,0,12.87,0,19.3,0,1.09-.52,2.55,1.64,2.54,5.92,0,10.39-5.14,9.06-11-2.58-11.33-5.4-22.6-9.62-33.46C39.7,101.68,38.77,99,36.56,96.69ZM101.37,170c-5.28-3.54-9.82-6.27-13.34-10.26-5.72-6.49-4.82-12.44,2.55-16.9,2.83-1.71,5.87-3.12,8.55-5.81-5.52-2.11-11.06-2.38-16.54-4,2.08,4.92,1.53,7.18-2.52,10.17a57.83,57.83,0,0,1-5.69,3.5,14,14,0,0,0-2.63,22.48,2.73,2.73,0,0,0,1.59.76C82.31,170,91.29,170,101.37,170Z"/><path class="cls-1" d="M112.84,93.21c-1.11,4.86-2.06,9.18-3.1,13.48-.33,1.4.23,1.76,1.48,1.74,2.11,0,4.22.08,6.32,0a3.58,3.58,0,0,1,4.16,3.28q2,10.59,3.92,21.17c.39,2.15.17,4.2-2.46,4.52-2.34.28-3.14-1.5-3.51-3.49-1-5.48-2.1-10.94-3-16.43-.36-2.16-1.08-3.33-3.55-3a45.8,45.8,0,0,1-6.31,0c-3.65-.08-4.69-1.35-3.94-4.87.87-4.06,1.82-8.1,3-13.15L89,111.36c-.84.74-1.66,1.5-2.53,2.2-1.46,1.17-3,1.28-4.29-.18a2.83,2.83,0,0,1,.31-4.29c2.06-2,4.16-3.9,6.36-5.7,1.49-1.22,1.87-2-.1-3.15C85.07,98,81.47,95.53,78,93c-1.71-1.24-2.72-.8-4.07.52-4.69,4.59-9.49,9.07-14.26,13.58-1.63,1.55-3.39,3.55-5.65,1.31s-.36-4,1.32-5.58c5.67-5.36,11.4-10.66,17-16.14,2.2-2.17,4-2.2,6.48-.47,4.85,3.43,9.9,6.58,14.76,10,1.52,1.06,2.47.94,3.78-.27,3.54-3.29,7.24-6.4,10.79-9.67,1.86-1.72,3.53-1.87,5.56-.23,6.74,5.44,13.56,10.8,20.35,16.18,1.71,1.36,3,3,1.23,5s-3.48,1-5.17-.34C124.47,102.39,118.86,98,112.84,93.21Z"/><path class="cls-1" d="M130.74,76.46c-3.09,0-6.19,0-9.29,0-6.27-.1-11.18-4.15-12.12-9.93a11.7,11.7,0,0,1,8.32-13.22,4.4,4.4,0,0,0,3.25-3.37c2.51-7.89,8-12.82,16.1-14.18,8.43-1.4,15.41,1.57,20.31,8.65,1.2,1.74,2.21,2,4.17,1.76,11.17-1.36,19.72,8.24,17,18.85-.56,2.16-1.34,4.29-4.14,3.59-2.61-.66-2.4-2.75-1.82-4.82a8.74,8.74,0,0,0-3-9.68,8.4,8.4,0,0,0-9.73-1.16c-3.37,1.74-4.83.51-6.13-2.66a13.85,13.85,0,0,0-13.8-8.77A14.22,14.22,0,0,0,126.9,51a21.09,21.09,0,0,0-.87,4.35c-.28,2.33-1.3,3.48-3.85,3.46-4.46,0-7,2.29-6.91,5.88.1,3.39,2.78,5.68,6.9,5.72q9.11.09,18.21,0c2.21,0,4.21.4,4.21,3s-2,3.09-4.18,3C137.19,76.42,134,76.47,130.74,76.46Z"/><path class="cls-1" d="M33.35,44.2a20.41,20.41,0,1,1,20.2,20.39A20.39,20.39,0,0,1,33.35,44.2Zm6-.17a14.37,14.37,0,1,0,28.73.13A14.37,14.37,0,0,0,39.38,44Z"/><path class="cls-1" d="M22.63,41.16c2,.29,5.58-.92,5.55,3.06s-3.5,2.86-5.93,3.05c-.49,0-1,0-1.48,0-2.13,0-4.21-.36-4.31-2.91-.11-2.82,2.07-3.25,4.36-3.2C21.31,41.17,21.8,41.16,22.63,41.16Z"/><path class="cls-1" d="M85.14,41.17c.74,0,1.48,0,2.22,0,1.92,0,3.52.7,3.62,2.83.1,2.31-1.47,3.2-3.59,3.25-1.47,0-3,0-4.42,0-2.1,0-3.8-.76-3.82-3s1.68-3.07,3.78-3Z"/><path class="cls-1" d="M56.64,13c0,1,.06,2,0,2.94a2.69,2.69,0,0,1-2.86,2.74,2.72,2.72,0,0,1-3-2.62,44.34,44.34,0,0,1-.09-5.88c.06-2,1.13-3.39,3.16-3.32s2.88,1.58,2.85,3.56c0,.86,0,1.72,0,2.58Z"/><path class="cls-1" d="M56.69,75.82c-.22,2.05.86,5.6-3,5.6s-3-3.44-3.07-5.94c0-.74,0-1.48,0-2.21.07-2.11.9-3.69,3.24-3.61,2.17.07,2.81,1.65,2.81,3.59C56.68,74,56.69,74.72,56.69,75.82Z"/><path class="cls-1" d="M78.05,17a2.81,2.81,0,0,1,2.4,4.46,25.78,25.78,0,0,1-5.19,5.19c-1.87,1.37-4.52-.25-4.52-2.49C70.74,22.23,76.14,16.94,78.05,17Z"/><path class="cls-1" d="M81,68.7c-.33,2-1.71,3.4-3.77,2.51a12.19,12.19,0,0,1-6.15-6.1c-1-2.13.5-3.55,2.65-3.82C75.58,61.05,81,66.51,81,68.7Z"/><path class="cls-1" d="M29.46,17c2,0,7.19,5.24,7.14,7.21a2.84,2.84,0,0,1-4.45,2.41A23.69,23.69,0,0,1,27,21.41,2.82,2.82,0,0,1,29.46,17Z"/><path class="cls-1" d="M36.58,64.11c-.06,2-5.07,7.15-6.9,7.28-2.17.16-3.95-1.94-2.92-3.87a12.46,12.46,0,0,1,6.17-6C35.05,60.66,36.36,62.08,36.58,64.11Z"/></svg>