<svg xmlns="http://www.w3.org/2000/svg" viewBox="0 0 175.48 175.48"><defs><style>.cls-1{fill:#fccd74;}</style></defs><g id="Capa_2" data-name="Capa 2"><g id="Capa_1-2" data-name="Capa 1"><path class="cls-1" d="M97.34,0c4.53,1.73,9.43,1.84,14.06,3.26,30.4,9.29,50.45,29.06,60.38,59.18,1.63,4.94.95,5.77-4.23,6.79C144,73.84,120.43,78.81,96.76,83,89.17,84.36,83.46,87.66,78,92.8c-17.54,16.35-35.45,32.31-53.22,48.4-3.49,3.16-4.21,3.1-7-.62A86.45,86.45,0,0,1,1.26,102.72c-.23-1.35.07-3-1.26-4V76.77c1.35-1.15,1-2.86,1.3-4.32A87.59,87.59,0,0,1,19.84,32.14c1.39-1.72,2.77-2.64,4.88-1.38,1.42,2,.48,3.52-.81,5.18A84.09,84.09,0,0,0,7.35,71.48c-4.5,22.3-.27,42.66,11.85,61.63,2.29,3.58,2.36,3.53,5.43.74q27.89-25.29,55.77-50.6a14.89,14.89,0,0,1,7.4-3.93c25.27-4.91,50.52-10,75.78-14.93,2.15-.42,2.8-1,2-3.35a76.91,76.91,0,0,0-9.44-18.91C136.5,14.59,109.75,2.5,76.22,6.38,60.1,8.24,45.87,15.13,33.64,25.89c-1.7,1.5-3.33,2.42-5.43.86-1.19-2.23.08-3.57,1.64-4.94A88.57,88.57,0,0,1,68.72,2c2.91-.68,6-.42,8.74-2Z"/><path class="cls-1" d="M76.77,175.48c-2.27-1.75-5.11-1.38-7.68-2a87.78,87.78,0,0,1-41.23-21.69c-2.7-2.53-2.7-3.56.08-6.09Q55.81,120.4,83.71,95.1c2.89-2.62,4-2.48,6.19.81q21,31.46,41.92,62.89c1.81,2.71,1.13,4.28-1.52,5.72A89.76,89.76,0,0,1,99,174.77c-.61.08-1.43-.24-1.67.71Zm11.32-5.83a88.46,88.46,0,0,0,29-5.61c2.73-1.08,6.75-1.83,7.64-3.85s-2.54-4.74-4.06-7.16c-10.63-17.05-22.35-33.37-33.15-50.3-1.31-2.07-2.08-1.53-3.49-.24q-24.44,22.46-49,44.8c-1.3,1.18-1.6,1.75-.07,3C50.25,162.85,67.76,169.17,88.09,169.65Z"/><path class="cls-1" d="M175.48,98.71c-1.83,2.13-1.36,4.9-1.9,7.35-4.49,20.38-15,37-31,50.19-3.2,2.63-4.24,2.46-6.5-.92q-20.29-30.47-40.56-60.94c-2.32-3.5-1.62-5.12,2.4-5.91L168.29,74.6c5.27-1,5.27-1,7.19,3.55Zm-73.34-5.27c0,.34,0,.48,0,.56q18.38,27.78,36.75,55.56c.94,1.43,1.67,1,2.69.12,19.79-17.85,29.07-40.13,28.2-66.71-.07-2.22-.77-2.87-3.17-2.33-7.44,1.67-15,3-22.44,4.51Z"/><path class="cls-1" d="M59.27,67.51c-2.73,0-5.46,0-8.2,0a3.21,3.21,0,0,1-3.35-1.83c-1.38-3,0-9.3,2.72-11.26a3.67,3.67,0,0,0,1.72-4A20.4,20.4,0,0,1,52.07,47c.13-4.45,2.6-6.84,7.1-6.9,4.77-.06,7.23,2.2,7.46,6.87a5.73,5.73,0,0,1,0,1.7c-.83,2.86-.22,4.85,2.52,6.58,2.17,1.37,2.9,8.26,1.74,10.58-.73,1.46-2,1.69-3.46,1.7-2.73,0-5.46,0-8.19,0Zm0-5.54c1.48,0,3,.05,4.43,0,.71,0,1.74.39,2-.72a2.39,2.39,0,0,0-1-2.67c-2.27-1.64-8-1.73-10.43-.16A2.41,2.41,0,0,0,53,61c.22,1.36,1.35.94,2.18,1C56.57,62,57.93,62,59.29,62Zm1.87-13.82c.06-1.3.16-2.47-1.75-2.52s-1.91,1-1.86,2.37.08,3.33,1.92,3.31C61.09,51.29,61.1,49.49,61.16,48.15Z"/><path class="cls-1" d="M77.08,64.64A2.28,2.28,0,0,1,74.92,63a2.84,2.84,0,0,1,.77-3.12q7.78-7.84,15.54-15.71c1.57-1.59,3.43-1.11,4.76,0,1.5,1.26.43,2.72-.66,3.82Q87.68,55.74,80,63.39A3.55,3.55,0,0,1,77.08,64.64Z"/><path class="cls-1" d="M88.55,59.33c1.85-.13,3.56.36,3.5,2.55,0,1.31-.06,3.36-2.49,3.06-2-.24-4.68.28-4.8-2.87C84.67,59.65,86.49,59.21,88.55,59.33Z"/><path class="cls-1" d="M86.43,46a3.77,3.77,0,0,1-4,2.64c-1.83,0-3.48-1-3.43-3,.06-2.39,1.91-2.78,3.93-2.69S86.42,43.36,86.43,46Z"/><path class="cls-1" d="M79.12,152.05c0,5.35-1.48,6.38-6.79,5.91A102.09,102.09,0,0,0,59,158c-3.15.13-4.39-1.36-4.31-4.27.11-4,.25-8.09,4.51-10.29.9-.47,1.14-1.1.72-1.92-.72-1.42-.44-2.92-.43-4.37,0-4.46,2.55-7,6.91-7.12,5.28-.15,8.07,2.09,8.42,6.72a2.28,2.28,0,0,1,0,.69c-.62,3.25-.67,6.08,2.74,8.25C79.63,147,79.12,149.78,79.12,152.05Zm-12.24.06h0c1.47,0,3,.06,4.41,0,.78-.05,2,.51,2.07-1a2.38,2.38,0,0,0-1.12-2.57c-2.61-1.63-8-1.59-10.41.08a2.44,2.44,0,0,0-.91,2.68c.15,1.18,1.18.77,1.89.8C64.16,152.15,65.52,152.11,66.88,152.11Zm-1.68-14c.15,1.42.09,3.32,2,3.27,1.62-.05,1.72-1.83,1.79-3.18s.06-2.5-1.84-2.5S65.08,136.62,65.2,138.07Z"/><path class="cls-1" d="M91.3,150.58A6.17,6.17,0,0,0,89,153c0-.3-.18-.31-.43-.06s-.24.38,0,.43a15,15,0,0,1-2.27,1.49,2.8,2.8,0,0,1-3.4-.87c-.91-1.06-1.21-2.38-.19-3.43,5.66-5.79,11.34-11.55,17.14-17.21a2.57,2.57,0,0,1,3.94.39,3,3,0,0,1-.32,4.31c-2.47,2.53-5,5-7.49,7.53-1,1-1.86,2.17-2.78,3.26C91.93,148.72,91.63,149.67,91.3,150.58Z"/><path class="cls-1" d="M90.61,138.65c-2.24.16-4.07-.44-4.08-2.94s1.71-3,4-3,4,.62,4.06,2.93S92.81,138.86,90.61,138.65Z"/><path class="cls-1" d="M93.32,149.23c1.35,0,2.71,0,4.06.07a2.42,2.42,0,0,1,2.26,2.13c.31,1.29,0,2.59-1.1,2.82-2.17.46-4.68,1.51-6.28-1.28l.11-.1-.12-.11c0-.72,0-1.45,0-2.18C92.85,150.31,93.37,150,93.32,149.23Z"/><path class="cls-1" d="M92.25,152.76l.12.11-.11.1L92,153Z"/><path class="cls-1" d="M130.15,118.22h-8.57a2.91,2.91,0,0,1-3.27-3.13c-.18-4.24-.64-8.6,4.11-11,1.45-.75.64-1.93.43-3-.95-5.07.57-8.7,4.27-10a7.9,7.9,0,0,1,8.09,1.08c2.75,2.22,3.08,5.35,2.36,8.43-.49,2.13-.15,3.2,1.7,4.42,2.74,1.79,4,8.61,2.58,11.67-.64,1.35-1.82,1.6-3.14,1.6Zm-.11-5.64c1.48,0,3,0,4.44,0,.71,0,1.72.4,1.93-.79a2.34,2.34,0,0,0-1-2.66c-2.53-1.71-8-1.73-10.45,0a2.39,2.39,0,0,0-1,2.67c.21,1.19,1.22.76,1.93.79C127.31,112.62,128.68,112.57,130,112.58Zm2.08-14.15c.09-1.54-.49-2.39-2.16-2.28-1.9.12-1.71,1.49-1.66,2.74.06,1.4.35,3.17,1.94,3.06C132,101.83,132,99.91,132.12,98.43Z"/><path class="cls-1" d="M147.91,115.45a2.69,2.69,0,0,1-2.28-1.7c-.81-1.54,0-2.67,1-3.65,3.44-3.49,6.94-6.93,10.41-10.39,1.7-1.69,3.41-3.37,5.1-5.07,1.35-1.36,2.86-2.14,4.43-.5s1.19,3.23-.4,4.74c-3.56,3.35-6.67,7.15-10.6,10.15a32.6,32.6,0,0,0-3.64,4C150.94,114.13,150.08,115.44,147.91,115.45Z"/><path class="cls-1" d="M159.28,115.49c-1.94,0-3.79-.2-3.8-2.74,0-2.33,1.51-3.09,3.59-3.1s4,.49,4,3S161.27,115.53,159.28,115.49Z"/><path class="cls-1" d="M153.58,99c-2.14.14-3.79-.33-3.72-2.82s1.73-2.91,3.72-3,3.8.62,3.86,2.84C157.5,98.51,155.71,99.21,153.58,99Z"/></g></g></svg>