<svg id="Capa_1" data-name="Capa 1" xmlns="http://www.w3.org/2000/svg" viewBox="0 0 198.13 165.4"><defs><style>.cls-1{fill:#c7895e;}</style></defs><path class="cls-1" d="M100.18,12.79h79.21c4.13,0,5.18,1,5.18,5.14q0,38.37,0,76.73c0,9,1,6.51-5.35,13-5.65,5.71-11.37,11.34-17,17a6.26,6.26,0,0,1-4.8,2q-53.38-.07-106.77,0H19.93c-3.15,0-4.4-1.19-4.4-4.35q0-32.34,0-64.69,0-20.05,0-40.11c0-3.55,1.19-4.7,4.77-4.71Zm-.14,6.9v0H82.72q-29.38,0-58.75,0c-1.25,0-1.54.34-1.54,1.56q.06,48.45,0,96.89c0,1.31.36,1.62,1.64,1.62q64.79,0,129.56,0c1.38,0,1.6-.47,1.58-1.68-.06-5.28,0-10.56,0-15.85,0-3.67,1.24-4.91,4.93-4.91,5.39,0,10.78,0,16.17,0,1.1,0,1.37-.32,1.37-1.38q0-37.47,0-74.93c0-1.08-.3-1.37-1.38-1.37Q138.17,19.71,100,19.69Zm72.43,84.52H163c-.58,0-.93.14-.92.82,0,3.16,0,6.33,0,9.54C165.59,111.09,169,107.72,172.47,104.21Z"/><path class="cls-1" d="M89.82,131.9q34.83,0,69.66,0a7.54,7.54,0,0,1,2.44.27c6.61,2.25,13.25,4.42,19.87,6.66,2.38.8,3.27,2.59,2.46,4.71a3.16,3.16,0,0,1-2.09,1.94c-6.8,2.28-13.6,4.58-20.42,6.81a8.8,8.8,0,0,1-2.77.31H20.32c-3.63,0-4.82-1.21-4.81-4.86s0-7.59,0-11.39c0-3.29,1.21-4.46,4.47-4.46Q54.91,131.89,89.82,131.9ZM100,138.81H54.81c-3.41,0-6.82,0-10.23,0-1,0-1.51.19-1.43,1.34a38.37,38.37,0,0,1,0,4.29c0,1,.23,1.32,1.28,1.32q21.21-.06,42.41,0H131.4c8,0,16.06,0,24.09,0,1.19,0,1.53-.41,1.45-1.53a20.84,20.84,0,0,1,0-3.62c.16-1.45-.32-1.82-1.78-1.81Q127.6,138.86,100,138.81Zm-70.75,6.91c1.92,0,3.85,0,5.77,0,.93,0,1.27-.31,1.24-1.24-.07-1.53-.09-3.08,0-4.62,0-.93-.38-1.08-1.18-1.07-3.85,0-7.7,0-11.55,0-.9,0-1.12.32-1.1,1.15.06,1.54.07,3.09,0,4.62-.05,1,.34,1.2,1.24,1.18C25.54,145.68,27.42,145.72,29.29,145.72Zm134.53-5.63c0,1.1,0,2,0,2.86s.11,1.46,1.26,1c1.54-.61,3.13-1.09,5.05-1.74Z"/><path class="cls-1" d="M56.82,28.31H75.28c.66,0,1.32,0,2,0,2.51.21,3.7,1.29,3.78,3.83.12,3.79.06,7.58.06,11.37,0,2.75,0,5.5,0,8.24,0,3-1.29,4.16-4.25,4.16-5.56,0-11.12,0-16.67,0-1.17,0-1.48.33-1.45,1.47.07,3.13.06,6.27,0,9.4,0,1,.31,1.32,1.32,1.31q12.5-.06,25,0c1,0,1.23-.39,1.22-1.34,0-7.76,0-15.52,0-23.28,0-3.5,1.15-4.67,4.59-4.69,2,0,4.07-.06,6.1,0,1.11,0,1.63-.2,1.49-1.43a25.13,25.13,0,0,1,0-3.13c0-2.88,1.22-4.09,4.13-4.1,8.14,0,16.28,0,24.42,0,2.86,0,5.72,0,8.58,0s4.19,1.23,4.19,4.19q0,7.83,0,15.68c0,3-1.29,4.27-4.34,4.28-4.3,0-8.59,0-12.88,0H102.81c-3.16,0-4.41-1.25-4.43-4.35v-.5c0-3.85,0-3.81-3.92-3.79-1.1,0-1.38.33-1.37,1.39.06,4.13,0,8.26,0,12.38V64c0,4.13,0,4.11,4.11,4.07.82,0,1.18-.2,1.15-1.12-.07-1.64,0-3.3,0-4.95.05-3.21,1.28-4.41,4.55-4.41h32.18a8,8,0,0,1,1.95.25,3.09,3.09,0,0,1,2.58,3.18q.09,8.74,0,17.49a3.09,3.09,0,0,1-3.12,3.17c-4.17.1-8.34.08-12.51.09-6.91,0-13.83-.09-20.75,0-3.74.07-5.22-1.43-4.88-4.82.19-1.89-.62-2.15-2.22-2.09-3,.1-3,0-3,3,0,5.39,0,10.78,0,16.17,0,1.11.21,1.51,1.42,1.5,3.82,0,3.83,0,3.87-3.84,0-.93,0-1.87,0-2.8a3.36,3.36,0,0,1,3.73-3.62h34.16a3.31,3.31,0,0,1,3.38,3.31q.07,8.67,0,17.33a3.41,3.41,0,0,1-3.64,3.45q-17,0-34,0c-2.37,0-3.62-1.45-3.67-3.92-.07-3-.07-3-3-3H91.06c-3.75,0-4.86-1.13-4.86-5V77.26c0-2.31,0-2.31-2.31-2.31H57c-.6,0-1.21,0-1.81-.06-2.26-.26-3.34-1.4-3.36-3.67,0-4.62-.08-9.24,0-13.86,0-1.21-.39-1.44-1.49-1.43-4.46.06-8.91,0-13.37,0-2.77,0-4.2-1.35-4.22-4.11q0-9.66,0-19.32c0-2.81,1.48-4.2,4.32-4.2C43.63,28.3,50.23,28.31,56.82,28.31Zm0,6.89v0c-5.28,0-10.56,0-15.84,0-1,0-1.34.25-1.33,1.29.06,3.79.05,7.59,0,11.39,0,1,.39,1.15,1.25,1.15q16,0,32,0c1.15,0,1.36-.42,1.35-1.43,0-3.58-.09-7.16,0-10.73,0-1.42-.44-1.74-1.78-1.72C67.25,35.24,62,35.2,56.8,35.2Zm62.13,12.17c4.17,0,8.35,0,12.53,0,1,0,1.35-.19,1.32-1.26q-.12-3.87,0-7.75c0-1.09-.33-1.38-1.38-1.37-8.29,0-16.58.05-24.87,0-1.09,0-1.28.39-1.26,1.34,0,2.58.06,5.16,0,7.75,0,1,.27,1.31,1.3,1.29C110.68,47.34,114.8,47.37,118.93,47.37Zm-.07,27.56c4.18,0,8.36,0,12.54,0,1.09,0,1.41-.32,1.38-1.4-.08-2.63-.06-5.28,0-7.91,0-.88-.26-1.12-1.12-1.11q-12.62,0-25.24,0c-1,0-1.15.44-1.14,1.28,0,2.58.06,5.17,0,7.75,0,1.08.31,1.42,1.4,1.4C110.72,74.9,114.79,74.93,118.86,74.93Zm.34,17.33c-4.23,0-8.46,0-12.7,0-.88,0-1.26.17-1.24,1.16.07,2.64.06,5.28,0,7.92,0,.93.26,1.21,1.19,1.21q12.54,0,25.08,0c1.09,0,1.25-.41,1.23-1.35-.05-2.53-.07-5.06,0-7.58,0-1.08-.29-1.39-1.37-1.38C127.34,92.3,123.27,92.26,119.2,92.26Z"/><path class="cls-1" d="M55.32,104.21c6.88,0,13.75,0,20.63,0,1.44,0,1.79.42,1.67,1.75a24.93,24.93,0,0,0,0,4c.08,1.06-.36,1.27-1.32,1.27q-21.21,0-42.42,0c-1,0-1.23-.3-1.19-1.23a36,36,0,0,0,0-4.28c-.08-1.2.38-1.47,1.5-1.47C41.23,104.23,48.28,104.21,55.32,104.21Z"/><path class="cls-1" d="M45.65,90.47c-3.91,0-7.81,0-11.72,0-.93,0-1.28-.22-1.24-1.18q.11-2.31,0-4.62c0-.92.36-1.09,1.16-1.09q11.94,0,23.86,0c.77,0,1.06.22,1,1a44.31,44.31,0,0,0,0,4.61c.07,1.11-.42,1.27-1.35,1.27C53.46,90.45,49.55,90.46,45.65,90.47Z"/><path class="cls-1" d="M45.72,93.93c3.9,0,7.8,0,11.69,0,1,0,1.39.21,1.33,1.26a41.12,41.12,0,0,0,0,4.44c0,1.06-.39,1.27-1.34,1.27q-11.7,0-23.39,0c-1,0-1.37-.29-1.28-1.3.16-1.84-.76-4.25.37-5.36.91-.9,3.33-.28,5.07-.29C40.67,93.91,43.19,93.93,45.72,93.93Z"/><path class="cls-1" d="M151,30.24c1.36,0,3.15-.53,3.95.14s.22,2.57.25,3.92c0,2.73,0,2.73-2.78,2.74-1.59,0-3.18,0-4.76,0-.77,0-1.08-.24-1.06-1,0-1.64,0-3.29,0-4.94,0-.7.22-1,.95-.95,1.15,0,2.3,0,3.45,0Z"/><path class="cls-1" d="M164.76,37h-.16c-1.35-.07-3.19.63-3.91-.28s-.22-2.63-.22-4c0-2.61,0-2.62,2.72-2.61,1.59,0,3.18.06,4.77,0,.88,0,1.18.28,1.1,1.13-.05.49,0,1,0,1.48-.1,1.4.62,3.27-.33,4.06s-2.6.14-4,.14Z"/><path class="cls-1" d="M150.88,47.43c-1.36-.06-3.18.38-4-.32s-.27-2.68-.29-4.09c-.05-2.58,0-2.58,2.57-2.58,1.6,0,3.19.07,4.78,0,1.07-.06,1.36.36,1.24,1.33-.05.43,0,.87,0,1.31-.09,1.41.62,3.28-.33,4.08s-2.61.14-4,.14Z"/><path class="cls-1" d="M164.42,47.37c-1.1-.14-2.85.6-3.7-.27s-.24-2.62-.25-4c0-2.69,0-2.69,2.64-2.69,1.59,0,3.19.05,4.77,0,1-.05,1.23.3,1.19,1.22-.06,1.53-.06,3.07,0,4.61,0,.84-.2,1.19-1.1,1.14C166.88,47.32,165.78,47.37,164.42,47.37Z"/><path class="cls-1" d="M150.94,57.63h-.5c-3.84,0-3.84,0-3.84-3.94,0-3,0-3,2.89-3,1.59,0,3.19,0,4.77,0,.71,0,1,.21,1,.94-.05,1.69-.05,3.4,0,5.09,0,.75-.29.94-1,.92-1.1,0-2.2,0-3.29,0Z"/><path class="cls-1" d="M164.36,57.62c-.94-.11-2.76.65-3.64-.27s-.24-2.71-.26-4.12c0-2.51,0-2.51,2.51-2.51,1.64,0,3.29,0,4.93,0,.8,0,1.21.15,1.17,1.07-.06,1.64,0,3.29,0,4.93,0,.73-.27.95-1,.92C167,57.59,165.92,57.62,164.36,57.62Z"/><path class="cls-1" d="M150.69,68.08c-1.14-.16-2.94.63-3.84-.31s-.22-2.62-.24-4c0-2.6,0-2.6,2.55-2.61,1.64,0,3.28,0,4.92,0,.83,0,1.18.21,1.14,1.1-.07,1.59-.07,3.18,0,4.76,0,.9-.32,1.13-1.15,1.09C153,68,152,68.08,150.69,68.08Z"/><path class="cls-1" d="M164.55,68.08c-1.14-.16-3,.64-3.86-.31s-.21-2.62-.23-4c0-2.62,0-2.62,2.59-2.62,1.6,0,3.19.07,4.79,0,.9,0,1.28.2,1.23,1.17-.07,1.59,0,3.19,0,4.79,0,.7-.22,1-.94,1C167,68.05,165.92,68.08,164.55,68.08Z"/><path class="cls-1" d="M65.84,83.61c3.17,0,3.17,0,3.17,3.23,0,3.63,0,3.63-3.7,3.63-3.23,0-3.23,0-3.23-3.11C62.08,83.62,62.08,83.62,65.84,83.61Z"/></svg>