<svg id="Capa_1" data-name="Capa 1" xmlns="http://www.w3.org/2000/svg" viewBox="0 0 212.43 178.47"><defs><style>.cls-1{fill:#c7895e;}</style></defs><path class="cls-1" d="M152,74.7c-.09-5-.06-10,0-14.93q0-3.24,0-6.48s0-.1,0-.15V28.46c0-5.09-2.16-7.69-7.22-8.7-12.59-2.52-23.08-7-32.1-13.75-3.58-2.68-6.63-2.68-10.19,0-8.66,6.54-19,11-31.67,13.69-5.69,1.21-7.61,3.48-7.61,9q0,6.84,0,13.69c0,10.24.06,20.83-.09,31.23A33,33,0,0,0,72.71,98c8,8.36,18.21,14.29,33,19.22a5.74,5.74,0,0,0,1.8.28,6.2,6.2,0,0,0,2-.32c14.24-4.62,24.63-10.63,32.71-18.89C148.87,91.48,152.18,83.54,152,74.7Zm-8.3-21.54c0,2.12,0,4.25,0,6.37,0,4.79-.07,9.73.08,14.6C144,81,141.6,87,136.48,92.32c-7.84,8.21-17.79,12.74-26.49,16.08a6.11,6.11,0,0,1-4.82,0c-7.27-2.8-16.59-6.9-24.23-13.85-5.19-4.72-8.09-9.44-9.09-14.86a22.22,22.22,0,0,1-.33-4.1q0-8.13,0-16.26c0-9.83,0-20-.06-30,0-1.21,0-1.33,1.4-1.62,13.54-2.83,24.8-7.72,34.45-14.94.19-.14.29-.19.3-.2a2.1,2.1,0,0,1,.39.24c9.77,7.32,21.25,12.24,35.1,15.06a3.41,3.41,0,0,1,.59.17,1.77,1.77,0,0,1,.07.68c0,6.09,0,12.18,0,18.28Z"/><path class="cls-1" d="M62.68,164.77l-.49-.48c-3.4-3.45-6.91-6.9-10.31-10.23-4.23-4.14-8.6-8.43-12.79-12.75a31.43,31.43,0,0,1-9-19.42c-1.76-16.36-1.87-33.08-2-49.24,0-3.57-.05-7.13-.09-10.7,0-.88.16-1.22.22-1.27s.29-.22,1.52,0a9.42,9.42,0,0,1,7.63,8c1,6,2.19,12,3.6,18a5.56,5.56,0,0,0,2.3,3.65,3.74,3.74,0,0,0,2.9.4c1.2-.31,3.88-1.5,2.86-5.86-1.51-6.52-2.65-12.27-3.49-17.6A17.89,17.89,0,0,0,30.42,52.43a9.42,9.42,0,0,0-7.57,2,9.45,9.45,0,0,0-3,7.26q0,8.26,0,16.54v7.08c.39,13.35.82,25.38,2.13,37.5,1.09,10,4.36,17.36,10.3,23.15,2,2,4,4.11,6,6.17,1.15,1.21,2.3,2.43,3.46,3.63,2.07,2.13,4.25,4.21,6.36,6.21A134.23,134.23,0,0,1,58.5,172.72a3.75,3.75,0,0,0,2.92,1.44,4.35,4.35,0,0,0,2.18-.63,4,4,0,0,0,1.74-5A9.2,9.2,0,0,0,62.68,164.77Z"/><path class="cls-1" d="M195.36,61.49a9.23,9.23,0,0,0-2.91-7,9.09,9.09,0,0,0-7.17-2.07,17.37,17.37,0,0,0-13.67,9,21.82,21.82,0,0,0-2.4,8.08c-.82,5.48-2.07,10.85-3.27,16a4,4,0,0,0,3,5.19c2.29.56,4.21-.66,4.91-3.11.14-.51.28-1,.41-1.55,1.37-5.66,2.41-11.46,3.42-17.07l.09-.49c.74-4.17,3.18-6.72,7.45-7.78,1.29-.32,1.59-.1,1.59-.1s.28.24.27,1.56c0,3-.05,6.05-.07,9.07-.1,15.34-.2,31.19-1.56,46.73-.85,9.62-2.74,17.22-9.23,23a9.12,9.12,0,0,0-.87.9l-.29.32c-4.43,4.77-9.2,9.39-13.81,13.86-2.79,2.7-5.68,5.5-8.48,8.31l-.21.22a10.68,10.68,0,0,0-2.65,3.57,4,4,0,0,0,1.65,5.28,4.31,4.31,0,0,0,2.18.62,3.91,3.91,0,0,0,3.3-1.91,17.13,17.13,0,0,1,2.38-2.7l.49-.5c3.59-3.59,7.27-7.22,10.83-10.73s7.08-7,10.6-10.51a40.75,40.75,0,0,0,12-26.09c1-10.6,1.56-21.89,2-36.6V78Q195.4,69.76,195.36,61.49Z"/><path class="cls-1" d="M165.54,131.2a8.39,8.39,0,0,0,2.15-2.38c4.23-6.67,8.36-13.92,12.25-21.55a8.56,8.56,0,0,0-2.6-10.91,14,14,0,0,0-19.12,2l-.49.56c-.77.88-1.56,1.78-2.27,2.76a20.22,20.22,0,0,1-12.19,8.3c-6.81,1.67-12.4,4.5-16.64,8.42-8.73,8.06-12.55,18.9-11.37,32.23.07.78.15,1.56.23,2.34.4,3.93.77,7.65-.08,11.39a25.15,25.15,0,0,0-.43,3.39c0,.46-.07.92-.12,1.37a4.77,4.77,0,0,0,.87,3.62,3.9,3.9,0,0,0,2.79,1.39l.48,0c2.25,0,3.8-1.59,4.07-4.25.14-1.37.32-2.77.51-4.13.66-5,1.36-10.14-.06-15.42a12.09,12.09,0,0,1-.3-2.52c0-.42,0-.85-.08-1.28l.12-1.52c.09-1.16.18-2.35.36-3.47,1.73-10.88,7-17.95,16.18-21.59a113.7,113.7,0,0,1,10.87-3.75,13,13,0,0,0,6.92-4.45c1.61-2,3.35-4,5-5.89q.85-1,1.68-1.92a5.76,5.76,0,0,1,7.45-1.39c1,.58,1,.85.52,1.66l-.51.95c-3.32,6.14-6.76,12.49-10.56,18.46a4.63,4.63,0,0,1-1.15,1.39l-5.63,3.94q-3.67,2.58-7.37,5.14c-3.75,2.59-2.61,5.21-2,6.21a3.94,3.94,0,0,0,2.53,1.77,5.31,5.31,0,0,0,4-1.1C155.86,138,160.28,135,165.54,131.2Z"/><path class="cls-1" d="M100.29,168.59c-.13-1.38-.31-2.76-.48-4.1-.59-4.5-1.14-8.76,0-13.05a14.73,14.73,0,0,0,.39-3.32c0-.44,0-.88.08-1.32v-.18c-.62-18.53-8.85-30.38-24.45-35.24-8.48-2.64-14.33-6.64-19-12.95C52.76,92.74,44.44,91.64,38.38,96c-4.13,3-5.21,7.35-2.9,11.77,3.27,6.24,7.23,13.59,11.84,20.77l0,.09a8.5,8.5,0,0,0,2.16,2.51l2.34,1.65c3.9,2.75,7.93,5.59,11.93,8.33a4.83,4.83,0,0,0,3.8.95,3.92,3.92,0,0,0,2.55-1.85c.48-.78,1.77-3.52-1.86-6-2.2-1.52-4.38-3-6.57-4.58s-4.41-3.09-6.62-4.62a4.13,4.13,0,0,1-1-1.22c-4-6.3-7.63-13-11.13-19.49l-.06-.11c-.39-.73-.47-1,.59-1.63A5.75,5.75,0,0,1,50.94,104l.5.57c2.16,2.47,4.39,5,6.5,7.58A11.53,11.53,0,0,0,64,116a98.15,98.15,0,0,1,11.67,4c5.92,2.52,9.82,5.82,12.25,10.38,3.73,7,5,13.41,3.76,19.61-1.12,5.74-.48,11.29.14,16.65.13,1.15.27,2.3.38,3.46A4.14,4.14,0,0,0,95.7,174a4.32,4.32,0,0,0,.7.06,3.94,3.94,0,0,0,3.59-2.32,5.18,5.18,0,0,0,.33-2.94Z"/><path class="cls-1" d="M124.68,48.18a4.92,4.92,0,0,0-3.81,1.7L115.2,55c-4.18,3.8-8.51,7.72-12.72,11.64A2.89,2.89,0,0,1,102,67a3.49,3.49,0,0,1-.47-.4c-1.78-1.76-3.67-3.44-5.49-5.07l-2.19-2a4.21,4.21,0,0,0-4.92-.77,3.84,3.84,0,0,0-2.2,3.76,4.34,4.34,0,0,0,1.7,3.25l2.67,2.43c2.53,2.31,5.05,4.61,7.56,6.93a4.47,4.47,0,0,0,6.67,0c2-1.82,3.94-3.62,5.92-5.41l5.53-5,10-9.1A4.29,4.29,0,0,0,128.29,51,4,4,0,0,0,124.68,48.18Z"/></svg>