<svg id="Capa_1" data-name="Capa 1" xmlns="http://www.w3.org/2000/svg" viewBox="0 0 163.4 192.05"><defs><style>.cls-1{fill:#6c2911;}</style></defs><path class="cls-1" d="M149.62,151.1a3.39,3.39,0,0,1-.89,1.4,2.51,2.51,0,0,1-2.87.3q-13.12-6.57-26.26-13.13a.68.68,0,0,1-.44-.71q0-11,0-22a1.31,1.31,0,0,1,.5-.92,27.82,27.82,0,0,0,7-12.85,21.18,21.18,0,0,0,.35-2.77c0-.35.17-.46.48-.47a3.77,3.77,0,0,1,.47,0,1.92,1.92,0,0,0,1.92-1.13,15.47,15.47,0,0,0,1.8-5.31c.13-.75.22-1.5.3-2.25a1.5,1.5,0,0,0-.85-1.61c-.64-.34-1.22-.77-1.86-1.11a.51.51,0,0,1-.27-.74,76.09,76.09,0,0,0,2.52-8.88,49.93,49.93,0,0,0,1.33-12.83,21,21,0,0,0-1.55-7.46,11.13,11.13,0,0,0-8.55-6.79c-.69-.14-1.39-.22-2.09-.34-.25,0-.51,0-.66-.35a12.56,12.56,0,0,0-6.33-5.5,17.64,17.64,0,0,0-8.89-1.58A34.17,34.17,0,0,0,95,45.92,19.54,19.54,0,0,0,82.91,58.67a35.74,35.74,0,0,0-1.64,12.71,70.42,70.42,0,0,0,2.62,16.38c.12.44,0,.66-.35.87-.61.32-1.17.72-1.77,1.06A1.33,1.33,0,0,0,81,91a18.56,18.56,0,0,0,2,7.55c.05.1.11.18.16.27A2,2,0,0,0,85,99.94c.93,0,1,0,1,.91.45,5.57,3.08,10.16,6.51,14.39a1.88,1.88,0,0,0,.35.39,2.36,2.36,0,0,1,.91,2.29q0,10.52,0,21a.75.75,0,0,1-.54.81L64.91,152.65a3.23,3.23,0,0,1-2.19.41,2.54,2.54,0,0,1-.4-4.81l7.5-3.41c6.15-2.79,12.3-5.6,18.45-8.38a.66.66,0,0,0,.45-.71q0-8.44,0-16.91a1.17,1.17,0,0,0-.3-.81,29.6,29.6,0,0,1-6.72-13.51c0-.19,0-.4-.28-.53a8.89,8.89,0,0,1-3.73-4.71A25.11,25.11,0,0,1,76,91.69a7,7,0,0,1,1-4.35,2.78,2.78,0,0,1,1-1,.48.48,0,0,0,.28-.64A74.19,74.19,0,0,1,76.6,76c-.68-6.2-.6-12.35,1.32-18.35,2.84-8.85,8.89-14.41,17.68-17.1A34.25,34.25,0,0,1,107,39c6.09.24,11.4,2.39,15.46,7.1a3.31,3.31,0,0,0,1.88,1.16,16.85,16.85,0,0,1,8.82,5,18,18,0,0,1,3.94,8,35,35,0,0,1,.71,10.55,64.34,64.34,0,0,1-2.95,14.93.64.64,0,0,0,.29.85,4.79,4.79,0,0,1,1.66,3.09,12.68,12.68,0,0,1-.21,4.87,20.9,20.9,0,0,1-2.08,6.34,7.72,7.72,0,0,1-2.93,3.12.74.74,0,0,0-.35.55,29.6,29.6,0,0,1-6.77,13.6.94.94,0,0,0-.25.66q0,8.56,0,17.13a.62.62,0,0,0,.4.64l22.44,11.2a6.1,6.1,0,0,0,.57.29,3.15,3.15,0,0,1,2,2Z"/><path class="cls-1" d="M31.9,108c4.08-1.26,7.94-2.93,10.9-6.19a13.08,13.08,0,0,0,1.46-2.07c.22-.35.42-.39.8-.25a32.82,32.82,0,0,0,12.21,2.11,21.57,21.57,0,0,0,10.19-2.53,21.89,21.89,0,0,0,2-1.28,2.53,2.53,0,0,1,3,4.07,22.45,22.45,0,0,1-9.52,4.2,32.41,32.41,0,0,1-16.18-.86c-.26-.08-.46-.15-.7.12a26.5,26.5,0,0,1-11.91,7.31,33,33,0,0,1-7.46,1.62,2.83,2.83,0,0,1-1.92-.45,2.74,2.74,0,0,1-.82-3.3c.95-1.75,2.19-3.31,3.31-5,1.71-2.52,3.37-5.07,4.89-7.71a.8.8,0,0,0,0-1,51.86,51.86,0,0,1-6.23-11.6,35.26,35.26,0,0,1-2.11-17.17,33.74,33.74,0,0,1,5.84-15.44A29.7,29.7,0,0,1,42.43,42.43a39.34,39.34,0,0,1,18.13-2.91A38.66,38.66,0,0,1,75.3,43.25a19.93,19.93,0,0,1,2.17,1.2,2.53,2.53,0,0,1-2.58,4.34A33,33,0,0,0,61.2,44.7a35.65,35.65,0,0,0-14.15,1.39,25.31,25.31,0,0,0-11.56,7.2,26.93,26.93,0,0,0-5.88,11.26,31.12,31.12,0,0,0,2.48,22.62,60.19,60.19,0,0,0,6,9.43.74.74,0,0,1,.08.89,84.34,84.34,0,0,1-6.09,10l-.28.44Z"/><path class="cls-1" d="M121.7,98.39a2.51,2.51,0,0,1-2,2.49,2.45,2.45,0,0,1-2.85-1.54c-.76-2.1-1.47-4.21-2.2-6.32-.35-1-.7-2-1-3a.49.49,0,0,0-.55-.41q-6.57,0-13.16,0c-.33,0-.44.13-.54.42q-1.56,4.56-3.16,9.12a2.51,2.51,0,0,1-3,1.68,2.56,2.56,0,0,1-2-2.65,5.39,5.39,0,0,1,.37-1.32Q97.8,79,104,61.17a2.56,2.56,0,0,1,5,0q6.2,17.89,12.39,35.79A4.11,4.11,0,0,1,121.7,98.39Zm-10-13.82-5.15-14.88h-.12l-5.16,14.88Z"/><path class="cls-1" d="M52.61,67.92c-3.17,0-6.34,0-9.51,0a2.52,2.52,0,0,1-2.71-2.7,2.49,2.49,0,0,1,2.09-2.32,5.92,5.92,0,0,1,.84,0h9c.75,0,.72.16.72-.75,0-1.81,0-3.63,0-5.44A2.53,2.53,0,0,1,58,55.92,3.72,3.72,0,0,1,58.1,57c0,1.74,0,3.49,0,5.23,0,.51.16.61.63.61,3.82,0,7.64,0,11.46,0A2.57,2.57,0,0,1,73,64.94a2.49,2.49,0,0,1-2.18,2.94,19.13,19.13,0,0,1-2.27,0c-.32,0-.47.08-.54.41a26.19,26.19,0,0,1-7,13.13c-.3.31-.28.45,0,.71,1.2,1,2.42,1.94,3.69,2.84a2.54,2.54,0,1,1-2.94,4.13,48.84,48.84,0,0,1-4.61-3.61.62.62,0,0,0-.94,0,39.44,39.44,0,0,1-9.92,5,2.54,2.54,0,0,1-2.77-4.09,2.77,2.77,0,0,1,1.2-.73,36,36,0,0,0,7.88-3.79c.35-.22.31-.33.06-.59a48.37,48.37,0,0,1-4.41-5.19A2.52,2.52,0,0,1,49.6,72a2.42,2.42,0,0,1,2.66,1A53.21,53.21,0,0,0,56.56,78c.29.3.43.29.72,0a22.24,22.24,0,0,0,5.47-9.45c.23-.82.2-.66-.52-.66C59,67.91,55.82,67.92,52.61,67.92Z"/></svg>