<svg id="Capa_1" data-name="Capa 1" xmlns="http://www.w3.org/2000/svg" viewBox="0 0 212.43 178.47"><defs><style>.cls-1{fill:#6c2910;}</style></defs><path class="cls-1" d="M104.51,169.29q-37,0-74,0a3.46,3.46,0,0,1-2.78-1.15c-1.93-2-3.94-4-5.94-5.95a2.52,2.52,0,0,1-.86-2c.05-2.66.08-5.32,0-8,0-1.1.31-1.39,1.37-1.38,6.23,0,12.46,0,18.7.05,1.34,0,1.69-.35,1.68-1.68-.06-7.05,0-14.11,0-21.16,0-6.64-2.36-12.56-5.6-18.21A86.29,86.29,0,0,0,28,97.12a3.13,3.13,0,0,1-.81-2.22c0-3.29.07-6.58,0-9.87a1.64,1.64,0,0,1,1.42-1.91c1.81-.51,3.58-1.15,5.37-1.75a3.14,3.14,0,0,0,2.51-3.43c0-4.6.06-9.19,0-13.78a12.35,12.35,0,0,0-12.3-12.43A12.63,12.63,0,0,0,11.61,64a15,15,0,0,0,2.47,9.08,21.75,21.75,0,0,1,3.69,12.74c-.07,3,0,6,0,9a3.49,3.49,0,0,1-.72,2.26,27.56,27.56,0,0,0-5.44,16.8c0,17.89,0,35.78,0,53.67,0,1.37-.31,1.92-1.74,1.73a8.72,8.72,0,0,0-2.6,0c-1.57.25-1.81-.46-1.79-1.84.07-5.61,0-11.22,0-16.83q0-18.55,0-37.13a33.67,33.67,0,0,1,5.58-18.62,2.09,2.09,0,0,0,.54-1.15c-.05-3.58.22-7.16-.14-10.73a16.18,16.18,0,0,0-2.62-6.68c-4.25-7-4.71-14.21-.72-21.47A18.05,18.05,0,0,1,28.1,46.07,18.36,18.36,0,0,1,42.4,62.36a154.34,154.34,0,0,1,.08,16.24C42.34,82.87,40,85.68,36,87.1a10,10,0,0,1-1.38.43c-1,.21-1.27.77-1.36,1.81a10.46,10.46,0,0,0,2.65,8,59.49,59.49,0,0,1,11.48,21,44.92,44.92,0,0,1,1.37,13.06c0,6.14,0,12.27,0,18.41,0,1.17.64,1.07,1.38,1.07H67.21c14.94,0,29.88,0,44.82,0,1.42,0,1.89.38,1.72,1.77a11,11,0,0,0,0,2.75c.19,1.42-.44,1.65-1.69,1.63-5.47-.05-10.93,0-16.39,0q-33.44,0-66.87,0c-.58,0-1.39-.36-1.68.41s.1,1.48.66,2.21c2.23,2.9,5,3.74,8.71,3.73q69.7-.23,139.4-.08a3.26,3.26,0,0,0,2.77-1.17,29,29,0,0,1,2.66-2.66,1.83,1.83,0,0,0,.53-2c-.23-.8-1-.45-1.5-.45-4.15,0-8.31-.05-12.47,0-1.08,0-1.64-.21-1.5-1.42.18-1.52-.66-3.5.35-4.45s2.86-.24,4.35-.25c5.17,0,10.33,0,15.5,0,1.14,0,1.47.33,1.43,1.46-.08,2.61-.06,5.23,0,7.83a2.69,2.69,0,0,1-.92,2.16c-2,1.95-4,3.92-5.94,5.95a3.37,3.37,0,0,1-2.67,1.09q-35.46,0-70.93,0Z"/><path class="cls-1" d="M197.34,139.92c0-8.7,0-17.4,0-26.1a27.46,27.46,0,0,0-5.4-16.66,3.67,3.67,0,0,1-.75-2.4c0-2.9.06-5.8,0-8.7a22.85,22.85,0,0,1,3.72-13c3.15-5,3.43-10.27.37-15.5A12,12,0,0,0,182,52.06c-5,1.17-9.15,5.67-9.38,10.73-.23,5.21-.1,10.44-.08,15.66a3,3,0,0,0,2.42,2.9c1.88.63,3.75,1.27,5.64,1.85a1.45,1.45,0,0,1,1.22,1.63c-.07,3.44-.05,6.87,0,10.3a2.83,2.83,0,0,1-.79,1.94c-4.72,5.65-9.06,11.55-12,18.39A32.4,32.4,0,0,0,166.28,129c.06,2.75,0,5.51,0,8.27,0,.91.23,1.27,1.21,1.26,4.4,0,8.8,0,13.2,0,.95,0,1.25-.29,1.24-1.24q-.06-5.22,0-10.44a2.37,2.37,0,0,0-.85-1.89c-1.26-1.2-2.46-2.46-3.72-3.65-.53-.5-.64-.84,0-1.39,1-.94,2-2,3-3,.51-.55.88-.54,1.41,0,1.86,1.91,3.74,3.78,5.64,5.64a2.14,2.14,0,0,1,.66,1.67c0,6.43,0,12.86,0,19.28,0,1.32-.8,1.05-1.53,1.05h-33.2c-1.76,0-1.78,0-1.3,1.69.41,1.48.45,3.41,1.43,4.3s3,.24,4.49.29c2.69.08,2.22-.25,2.23,2.22,0,1.24.54,2.85-.23,3.63s-2.39.25-3.63.25c-11.37,0-22.73,0-34.09,0a1.58,1.58,0,0,1-1.86-1.41c-3.09-11.47-6.27-22.92-9.36-34.39-.59-2.22-.17-4.53-.24-6.79,0-.64.41-.67.87-.67h31.19c1.9,0,2,0,1.88,1.82a24.07,24.07,0,0,0,1.08,8c1.33,4.54,2.53,9.12,3.73,13.69.25.95.61,1.34,1.66,1.3,2.56-.08,5.13-.08,7.68,0,1.19,0,1.44-.39,1.43-1.49,0-4-.13-7.94.13-11.89.49-7.1,3.27-13.46,6.89-19.49a75.91,75.91,0,0,1,7.13-10,4.82,4.82,0,0,0,1.32-3.8c-.12-1.19.3-2.59-.18-3.56s-2.12-.92-3.21-1.4c-3.46-1.48-5.63-4-5.8-7.81a142.26,142.26,0,0,1,0-16.52,18.39,18.39,0,0,1,36-3.73,20.09,20.09,0,0,1-2.18,17,20.22,20.22,0,0,0-3.13,11.09c0,4.18.26,8,2.64,11.82,2.73,4.35,3.55,9.46,3.55,14.62q0,27.2,0,54.38c0,1.27-.3,1.74-1.59,1.6a14.79,14.79,0,0,0-3.19,0c-1.14.11-1.34-.36-1.34-1.4,0-8.51,0-17,0-25.53v-2.46ZM136,150.84c3.14,0,6.28-.06,9.42,0,1.31,0,1.5-.3,1.16-1.52q-3.94-14.23-7.77-28.49c-.22-.81-.53-1.07-1.37-1.06q-9.55,0-19.12,0c-1,0-1.34.21-1,1.29q3.94,14.29,7.81,28.62a1.3,1.3,0,0,0,1.49,1.15C129.67,150.81,132.81,150.84,136,150.84Z"/><path class="cls-1" d="M56.58,8.52H94.29c4.7,0,7,2.32,7,7q0,30.09,0,60.18c0,4.58-2.36,6.93-7,7-4.88,0-9.76,0-14.64,0a4.14,4.14,0,0,0-3.2,1.28C73,87.36,69.45,90.7,66,94.11a2.93,2.93,0,0,1-2.3.93C61.2,95,58.73,95,56.27,95c-1.08,0-1.43-.27-1.4-1.37.07-3.23,0-6.48,0-9.71,0-1-.34-1.35-1.33-1.3-1.25.07-2.51,0-3.76,0-.73,0-1.11-.22-1-1v-.15c0-1.59-.55-3.66.24-4.65s3-.27,4.57-.32c1.84-.06,3.68.07,5.51,0,1.4-.09,1.94.24,1.87,1.79-.14,3-.06,6.09,0,9.13,0,.48-.31,1.17.36,1.4a1.66,1.66,0,0,0,1.82-.52c2.58-2.54,5.22-5,7.83-7.54,1.15-1.1,2.33-2.18,3.43-3.33a2.87,2.87,0,0,1,2.31-.92c5.65,0,11.31,0,17,0,1.14,0,1.58-.2,1.58-1.48q-.08-29.52,0-59c0-1.2-.3-1.54-1.52-1.54-16.14,0-32.29,0-48.43,0-8.65,0-17.3,0-25.95,0-1.42,0-1.64.49-1.63,1.74.05,7.34,0,14.69.05,22,0,1.14-.2,1.7-1.49,1.55a18.52,18.52,0,0,0-3.33,0c-1,.08-1.31-.28-1.3-1.3.05-5.12,0-10.24,0-15.37,0-2.75,0-5.51,0-8.26a6.07,6.07,0,0,1,6.48-6.42H56.58Z"/><path class="cls-1" d="M152.46,8.53h38.15c4.07,0,6.65,2.5,6.66,6.55,0,7.83,0,15.66,0,23.5,0,1-.26,1.38-1.29,1.3a23.78,23.78,0,0,0-3.48,0c-1.13.1-1.35-.36-1.34-1.4,0-7.25,0-14.5,0-21.76,0-2.56.19-2.17-2.15-2.17q-36.71,0-73.39,0c-1.93,0-1.93,0-1.93,2v58c0,2.13,0,2.15,2.15,2.14,5.41,0,10.82-.07,16.23-.16a3.32,3.32,0,0,1,2.55,1c3.66,3.59,7.39,7.1,11.06,10.68a1.73,1.73,0,0,0,1.92.59c.68-.27.35-1,.36-1.54,0-3.19,0-6.38,0-9.57,0-.88.22-1.2,1.12-1.19,3.34,0,6.67,0,10,0,.7,0,1.07.15,1,1-.06,1.59.53,3.57-.21,4.67s-2.93.4-4.47.42c-1.2,0-1.46.43-1.44,1.52.06,3.24,0,6.48.05,9.72,0,.88-.27,1.17-1.16,1.15-2.7,0-5.41,0-8.12,0a2.44,2.44,0,0,1-1.83-1c-3.53-3.38-7.06-6.75-10.55-10.17a3.92,3.92,0,0,0-3.06-1.24c-4.88.06-9.77-.06-14.65,0-4.47.09-7.15-3-7.12-7,.11-20.11.05-40.22.05-60.34,0-4.4,2.39-6.8,6.81-6.8h38Z"/><path class="cls-1" d="M21,133.15c0-3.52,0-7.05,0-10.57,0-.88.23-1.21,1.14-1.16,1.3.07,2.6,0,3.91,0,.69,0,1.05.11,1.05.93q0,10.65,0,21.3c0,.82-.38.94-1.06.92-1.3,0-2.61-.06-3.91,0-.91,0-1.14-.28-1.13-1.16C21,140,21,136.58,21,133.15Z"/><path class="cls-1" d="M61.13,45.61c0,3,0,3-3.05,3S55,48.6,55,45.5s0-3,2.91-3H58C61.12,42.53,61.12,42.53,61.13,45.61Z"/><path class="cls-1" d="M154,45.46c0,3.14,0,3.14-3.19,3.14-3,0-3,0-2.94-2.94,0-3.13,0-3.13,3.18-3.13C154,42.52,154,42.52,154,45.46Z"/><path class="cls-1" d="M45.68,42.53c3.07,0,3.07,0,3.06,3.08s0,3-3,3-3.07,0-3.07-3.09S42.65,42.53,45.68,42.53Z"/><path class="cls-1" d="M70.52,42.53c3,0,3,0,3,2.91,0,3.16,0,3.16-3.15,3.16-2.94,0-2.94,0-2.94-2.92C67.38,42.53,67.38,42.53,70.52,42.53Z"/><path class="cls-1" d="M141.58,45.68c0,2.92,0,2.92-3,2.92-3.15,0-3.15,0-3.15-3.16,0-2.91,0-2.91,3-2.91C141.58,42.53,141.58,42.53,141.58,45.68Z"/><path class="cls-1" d="M163.3,42.53c3,0,3,0,3,3s0,3.11-3.09,3.08-3,0-3-3S160.23,42.53,163.3,42.53Z"/></svg>