<svg id="Capa_1" data-name="Capa 1" xmlns="http://www.w3.org/2000/svg" viewBox="0 0 224.68 199.45"><defs><style>.cls-1{fill:#c7895e;}</style></defs><path class="cls-1" d="M139.48,137.85c7.09-1.28,14.19-2.5,21.37-3.19a136,136,0,0,1,27.59-.26c5,.53,5.23.77,5.24,5.68,0,4.27,0,8.55,0,12.83a2.88,2.88,0,0,0,1.74,3.11,9.14,9.14,0,0,1,5.09,10.65,9.25,9.25,0,0,1-9.41,7.18q-33.21.06-66.42,0c-5.09,0-8.31-2.69-9.55-7.69-.28-1.13-.35-2.44-1.82-2.5-1.68-.06-1.75,1.35-2,2.57-1.22,5-4.5,7.62-9.61,7.63q-33.08.06-66.13,0c-4.87,0-8.48-2.72-9.58-7-1.15-4.46.7-8.63,5.11-10.9a2.69,2.69,0,0,0,1.67-2.86c-.07-4.56,0-9.12,0-13.68,0-4.07.32-4.46,4.45-4.95a132,132,0,0,1,28.45.18c7.16.71,14.25,1.87,21.37,3-15.46-10.44-31.25-19.78-51.13-15.92-.56.1-1.14.13-1.69.28-1.7.43-3.18.17-3.56-1.74s1-2.64,2.67-3a55.85,55.85,0,0,1,26.79.85c7.74,2.24,14.73,6,21.58,10.17,8.46,5.1,16.77,10.42,25.91,14.32a13.3,13.3,0,0,0,11.38,0,173.32,173.32,0,0,0,21-11.35c6.88-4.22,13.75-8.46,21.32-11.41a55.44,55.44,0,0,1,31.64-2.59c1.74.35,3.32.94,2.87,3.07-.4,1.92-1.92,2-3.61,1.67-13.37-2.8-25.86-.24-37.66,6.29-5.13,2.84-10.14,5.9-15.21,8.87Zm18.25,31.28h31.64a19.24,19.24,0,0,0,2.28,0,4.59,4.59,0,0,0,4.27-4.81,4.49,4.49,0,0,0-4.35-4.41c-.95-.08-1.9,0-2.85,0-19,0-38,0-57,0a5.13,5.13,0,0,1-5-2.75,15.74,15.74,0,0,0-27,0,5.14,5.14,0,0,1-5.07,2.72c-19.09-.07-38.19,0-57.29,0a19.08,19.08,0,0,0-3.12.11,4.21,4.21,0,0,0-3.7,3.79,4.42,4.42,0,0,0,2.61,4.91,6.41,6.41,0,0,0,3.06.48q32.35,0,64.7,0c3.75,0,4.94-1,5.86-4.8.83-3.41,3.16-5.43,6.34-5.49s5.74,2,6.59,5.52c.94,3.85,2.1,4.77,6.17,4.78Zm-54.11-22.32c-7.18-1.95-13.72-3.48-20.33-4.71C69,139.43,54.56,137.94,40,138.93c-3.08.21-2.42,2.06-2.59,3.89-.21,2.27,1.2,2.13,2.69,2.12H64.26c1.52,0,3,0,4.56,0a2.27,2.27,0,0,1,2.47,2.24,2.33,2.33,0,0,1-2.53,2.49c-.76,0-1.52,0-2.28,0-8.92,0-17.85.06-26.77,0-2,0-2.42.71-2.35,2.49.06,1.63-.07,2.84,2.29,2.83,18-.09,35.89,0,53.84,0,.84,0,1.7.1,2.27-.81C97.6,151.21,100.22,149,103.62,146.81Zm19,.06a22.77,22.77,0,0,1,8,7.31c.58.9,1.44.77,2.28.78,18,0,35.89,0,53.84,0,2.08,0,2.25-.92,2.26-2.57s-.15-2.78-2.38-2.75c-8,.13-16,.06-23.93,0-1.71,0-3.42,0-5.13,0a2.29,2.29,0,0,1-2.48-2.24c-.08-1.6.94-2.4,2.49-2.5.76-.05,1.52,0,2.28,0h26.21c1.48,0,3.09.4,3-2.15-.11-2.12.1-3.69-2.93-3.88a161.75,161.75,0,0,0-32.1,1.4A234,234,0,0,0,122.62,146.87Z"/><path class="cls-1" d="M84.54,88.92a33.82,33.82,0,0,1,3.19-13.19,84.28,84.28,0,0,1,10.65-17.8c1.05-1.39,2.24-2.57,4-1.34s.92,2.59.13,4c-2.49,4.49-1.75,9,.17,13.43,3.72,8.56,10,15.17,16.82,21.27,1.21,1.07,2.48,2.08,3.6,3.23,7.4,7.63,8.15,16.9,2.12,25.62a45.44,45.44,0,0,1-10,10,2.77,2.77,0,0,1-3.16.56,2.62,2.62,0,0,1-1.24-2.67c.12-9.66-4.21-17.14-11.47-23.13-2.63-2.18-5.3-4.32-8.06-6.33A15.54,15.54,0,0,1,84.54,88.92Zm30.81,39a35.3,35.3,0,0,0,5.51-5.8c5.4-7.36,4.78-14.54-1.86-20.87-1.78-1.7-3.76-3.2-5.55-4.89-6.67-6.31-12.59-13.19-15.83-22-.5-1.34-.89-2.71-1.48-4.55-3.31,5.72-5.91,11.06-6.72,17.1-.67,5,.67,9.2,5.07,12.13,1.19.78,2.28,1.71,3.41,2.57C106.56,108.19,113.91,115.68,115.35,127.88Z"/><path class="cls-1" d="M138.83,48.92c0,4.75-1.48,7.88-4.61,10.23-2.12,1.59-4.22,3.24-6.21,5a17.15,17.15,0,0,0-6.25,13.22c0,1.2-.17,2.3-1.42,2.86a2.79,2.79,0,0,1-3.12-.75c-1.16-1-2.36-1.92-3.43-3-7.91-7.84-7.61-16,.82-23.19A40.46,40.46,0,0,0,124.73,41.1c1.65-3.26,2.48-6.56.49-10A2.32,2.32,0,0,1,129,28.42C134,34.76,138.13,41.5,138.83,48.92ZM117.39,72.85a22.23,22.23,0,0,1,7.36-12.22c2.06-1.81,4.22-3.52,6.42-5.16a6.34,6.34,0,0,0,2.82-5.3c0-3.68-1.32-7-3.32-10.55a35.73,35.73,0,0,1-4,7.61,60.74,60.74,0,0,1-10.12,10.71C111.4,62.49,111.68,68.37,117.39,72.85Z"/></svg>