<svg xmlns="http://www.w3.org/2000/svg" viewBox="0 0 290.68 239.36"><defs><style>.cls-1{isolation:isolate;}.cls-2{mix-blend-mode:soft-light;}.cls-3{fill:#fff;}.cls-4{fill:#6c2911;}</style></defs><g class="cls-1"><g id="Capa_1" data-name="Capa 1"><g class="cls-2"><circle class="cls-3" cx="162.81" cy="119.68" r="110.54" transform="translate(-36.94 150.18) rotate(-45)"/></g><path class="cls-4" d="M173.81,201.16c-7.1.07-14,1.48-21,2.54a76.74,76.74,0,0,1-14.27,1.2,23.08,23.08,0,0,1-7.47-1.44,6,6,0,0,1-4-4.42,25.24,25.24,0,0,1,1.19-16.68c.45-1,.89-2.06,1.43-3,3.12-5.53,3.48-11.37,2.06-17.44-.52-2.22-.91-4.48-1.49-6.68-.3-1.14.08-1.52,1.12-1.71,2.19-.39,4.37-.86,6.56-1.28,6.54-1.25,10.92-5.54,11.76-11.53a15.29,15.29,0,0,0-8-15.43c-3.15-1.64-6.6-2.32-10-3.28-1-.29-2.52-.28-2.74-1.24-.18-.81,1.24-1.42,2-2.06,2-1.71,4.11-3.36,6.13-5.08a21.39,21.39,0,0,0,4.14-4.61c2.67-4.14,1.94-8.61-2-11.54C135,94.23,130.61,91,126.13,88a9.2,9.2,0,0,1-3.73-5.84c-1.08-4.22-.09-7.52,3.28-10.47a220.14,220.14,0,0,1,19.1-15.13C159.73,46.06,167.29,31.37,170,13.78a29.13,29.13,0,0,0,.2-6,5.07,5.07,0,0,0-5.32-5.15C162,2.68,160.1,5,160,8.12c-.51,14.43-5.74,26.83-16.66,36.41-5.42,4.76-11.43,8.83-17.14,13.25a89.58,89.58,0,0,0-9.2,8.1c-3.87,4-6.12,8.43-5.19,14.21a37,37,0,0,0,2,8.81A15.19,15.19,0,0,0,119,95.43c3.84,2.74,7.63,5.58,11.5,8.28,1.17.81,1,1.27.05,2.05-2,1.54-3.88,3.15-5.78,4.77-1.33,1.13-2.69,2.26-3.9,3.51-4.65,4.8-4.16,10.65,1.18,14.7a19.67,19.67,0,0,0,6.62,3c2.3.65,4.61,1.24,6.89,2a5.08,5.08,0,0,1,3.89,4,3.29,3.29,0,0,1-2.73,4.24c-3.43.73-6.91,1.19-10.27,2.23a16.48,16.48,0,0,0-4.83,2.38,5.51,5.51,0,0,0-2.33,6.13c.78,3.58,1.46,7.18,2.36,10.73a15.6,15.6,0,0,1-1.42,12,35,35,0,0,0-3.92,21.89c1.29,10.28,6.52,15.66,16.76,17.34,7.14,1.17,14.19.23,21.24-.82,6.3-1,12.55-2.26,18.95-2.43a22.65,22.65,0,0,1,9.09,1.21,15.31,15.31,0,0,1,9.59,16.74c-.07.42-.16.83-.24,1.25a5.11,5.11,0,0,0,3.9,6,5.06,5.06,0,0,0,6.14-3.93,24.75,24.75,0,0,0-3.92-20.34c-5.38-7.7-13-11.1-22.26-11.23Z"/><path class="cls-4" d="M21.33,123.81c.2,29.2,9,55.52,26.55,78.87.38.51.76,1,1.19,1.5a5.15,5.15,0,0,0,7,.75,5.08,5.08,0,0,0,1-7.12c-2.81-3.8-5.58-7.62-8-11.66a117.47,117.47,0,0,1-17.28-56.82C30.5,100,38.86,73.59,56.65,50.19c1.73-2.27,1.91-4.56.52-6.61a5.17,5.17,0,0,0-5.64-2,5.61,5.61,0,0,0-2.89,2.13A129.44,129.44,0,0,0,24.29,95.82a122,122,0,0,0-2.21,13.67A126.84,126.84,0,0,0,21.33,123.81Z"/><path class="cls-4" d="M49.48,124.5A101.33,101.33,0,0,0,68.3,182.85c1.34,1.91,2.93,3.26,5.41,3a5.07,5.07,0,0,0,3.53-8.08A90.87,90.87,0,0,1,70,165.92q-23.64-49.44,6.52-95.2c.3-.44.62-.86.9-1.31a5.11,5.11,0,0,0-1.38-6.93,5,5,0,0,0-7,1.06,88.92,88.92,0,0,0-7.94,12.68A102.7,102.7,0,0,0,49.48,124.5Z"/><path class="cls-4" d="M77.68,123.75A73.82,73.82,0,0,0,88.9,162.9a5.1,5.1,0,0,0,6.6,2.21,5.17,5.17,0,0,0,2.91-5.79,11.69,11.69,0,0,0-1.56-3.12A63.87,63.87,0,0,1,97.55,90c2.1-3.43.5-7.34-3.23-8.07a5.07,5.07,0,0,0-5.4,2.54,73.59,73.59,0,0,0-11.24,39.29Z"/></g></g></svg>