<svg id="Capa_1" data-name="Capa 1" xmlns="http://www.w3.org/2000/svg" viewBox="0 0 163.4 192.05"><defs><style>.cls-1{fill:#6c2910;}</style></defs><path class="cls-1" d="M90.16,31.84c9.9,1.61,18.61,5.52,25,13.5,10,12.38,11.52,25.94,5.1,40.38-2.9,6.52-1,13.26-1.35,19.9,0,.41.49.88.83,1.26,7.57,8.62,8.29,18.55,5.6,29.16A49.11,49.11,0,0,1,119,150.52c-1.42,2.21-3.41,3.33-5.26.75-7.45-10.35-11.17-26.23-5.71-37.86a25,25,0,0,1,2.09-3.71c3.77-5.45,3.91-6,3-13.55-5.63,5-11.71,8.94-19,9.92-4.07.55-5.19,2.05-5,6.08.22,4.2.8,7.71,3.45,11.38,5.88,8.15,5.62,17.49,3.07,26.82a48.78,48.78,0,0,1-6.27,13.71c-1.52,2.33-3.59,3.11-5.22.55C76.68,153,73,140.71,78.38,127.1a8.56,8.56,0,0,1,1.83-3.38c4.78-4.06,3.64-9.5,3.68-14.69,0-1.26-.1-2.26-1.78-2.37a34.17,34.17,0,0,1-11.89-3.36c-3.65-1.67-6.76-4.18-10.31-7.08-.11,4.86-.88,8.84,2.46,13,6,7.47,6.28,16.48,4.26,25.54A46.15,46.15,0,0,1,60.16,150c-2.33,3.56-4.15,3.65-6.34.12-6.15-9.91-9.22-20.49-6.55-32.2a20.58,20.58,0,0,1,5.08-9.89,6.39,6.39,0,0,0,2-5.56,31.56,31.56,0,0,1,0-3.89,38.25,38.25,0,0,0-2.7-15.76c-9-22.13,5.37-46.66,29-50.37a10.23,10.23,0,0,0,1.81-.63Zm-6.27,64.6c.86-2.94-.82-4.9-4-6.26a27.67,27.67,0,0,1-6.71-3.89c-3.85-3.22-7.22-2.47-11,.14-2.05,1.41-1.82,2.21-.43,3.8A33,33,0,0,0,79,100.87C83.89,102.09,83.89,102.07,83.89,96.44Zm-.44-55.23c-.55-.59,2.33-4.17-1.6-3.64A31,31,0,0,0,61.23,49.44c-.63.8-1.37,1.37-.06,2.44,4.18,3.41,6.58,3.72,11.28,1.06,2.48-1.4,4.87-3,7.44-4.16C82.9,47.39,84.86,45.6,83.45,41.21ZM65.12,69.52c.08-5,1.37-10.37-5.46-12.69-2.32-.8-2.9-.3-3.52,1.55-2,5.89-2.69,11.9-1.06,17.94,2.26,8.45,1.05,7.47,8.45,3.37a3,3,0,0,0,1.61-3.18C65.05,74.18,65.12,71.85,65.12,69.52ZM89.23,96.17c0,5.89,0,5.91,5.33,4.52a31.37,31.37,0,0,0,17-10.9c.49-.61,1.53-1.13.82-2.29-1.44-2.34-7.71-3.88-10.17-2.47-3,1.73-6,3.59-9.11,5.14C90.27,91.57,88.24,93.2,89.23,96.17Zm0-53.66c-.84,2.92.79,4.92,3.93,6.3a31.1,31.1,0,0,1,6.7,3.85c3.7,3,7,2.7,10.71,0,1.94-1.4,2.43-2.07.7-4A32.91,32.91,0,0,0,94.06,38.1C89.25,37,89.24,37,89.24,42.51Zm18.83,27c0,2.2,0,4.4,0,6.6s5,7,7.16,6.83c.82-.05,1-.75,1.19-1.27a31.77,31.77,0,0,0,0-24.19c-.42-1-.84-1.53-2.28-.92-5.44,2.3-6.1,3.11-6.11,9.06C108.07,66.88,108.08,68.17,108.07,69.47Zm5,46.44c-4.25,7.53-2.42,22.74,3.44,28.16,4.88-9,6.69-18.2,2.89-28.49-1.59,2.71,1.08,7.32-3.33,7.28C111.45,122.82,114.54,118.28,113.07,115.91ZM83.6,129.45c-4.41,6.6-2.91,20.56,3,28.2,5.76-9.07,7.09-22.08,2.86-27.84-1,2.19,1.28,6.49-2.81,6.54C81.91,136.4,84.88,131.69,83.6,129.45ZM54,116.11c-4.37,6.69-2.71,21.41,3.16,28,5.71-9.4,7-22,2.75-27.89-.95,2.3,1.35,6.72-3.1,6.62S55.31,118.26,54,116.11ZM91.19,66.83c3.6,0,6.43,0,9.26,0,.74,0,1.55.15,2-.69,1.05-1.8-.45-5.9-2.21-7.34-3-2.47-4.34-.94-5.61,1.78C93.76,62.52,92.58,64.34,91.19,66.83Zm-4.7,8c-1.79,3.07-3.34,5.7-4.86,8.35-.29.51-.7,1-.21,1.7,1.37,2.07,5.49,2.55,8.13,1.4,4.1-1.79,1.31-3.78.39-5.65S87.86,77.15,86.49,74.87Zm0-10.76c1.47-2.52,2.64-4.52,3.8-6.53.26-.44.5-.9.74-1.36.36-.65,1-1.23.61-2.1-.72-1.55-5.42-2.78-7.15-2-3.08,1.32-4,3-1.66,5.91A55.5,55.5,0,0,1,86.51,64.11Zm-4.63,2.7c-1.79-3.13-3.18-5.58-4.58-8-.38-.65-.65-1.46-1.57-1.53-1.81-.13-5.13,3.55-5.44,5.54-.56,3.71,1.25,4.37,4.39,4C76.82,66.63,79,66.81,81.88,66.81Zm9.3,5.4c1.86,3.25,3.29,5.79,4.76,8.3.31.52.6,1.09,1.43,1.09,2.1,0,4.93-3.31,5.31-5.55.68-4.06-1.71-4-4.5-3.86C96.14,72.3,94.08,72.21,91.18,72.21Zm-9.42,0c-3.56,0-6.59,0-9.61,0-.61,0-1.25-.06-1.67.62-1,1.64.26,5.84,2,7.1,2.74,2,4.59,1.78,5.94-1.57A62,62,0,0,1,81.76,72.22Z"/></svg>