<svg id="Capa_1" data-name="Capa 1" xmlns="http://www.w3.org/2000/svg" viewBox="0 0 163.4 192.05"><defs><style>.cls-1{fill:#6c2911;}</style></defs><path class="cls-1" d="M96.28,42.68a5.26,5.26,0,0,0-4.15-.75c0-.61,0-1.23,0-1.84a5.53,5.53,0,0,0-2.3-4.42,5.44,5.44,0,0,0-4.41-.78,5.05,5.05,0,0,0-2.05-3.4,5.41,5.41,0,0,0-8.6,3.37,5.22,5.22,0,0,0-4.23.74A5.82,5.82,0,0,0,68,40.68c.08,5.49.07,11.08,0,16.49q0,3.77,0,7.52c0,.25,0,.48,0,.7L68,65.14c-.15-.7-.29-1.4-.43-2.1-.28-1.36-.55-2.72-.87-4.08a5.14,5.14,0,0,0-10,2.27q.65,3.12,1.31,6.22.75,3.49,1.47,7a35.85,35.85,0,0,0,2.47,7.69,25.32,25.32,0,0,0,6.69,8.53,3.89,3.89,0,0,1,1.57,3.47,2.84,2.84,0,0,0-2.92,3.1c0,.66,0,1.32,0,2,0,.49,0,1,0,1.46-2.36,1-2.36,3.28-2.36,4.3q0,19.69,0,39.39v12.76a3.78,3.78,0,0,0,0,.87,2,2,0,0,0,2,1.68h0a1.94,1.94,0,0,0,2-1.63,8.17,8.17,0,0,0,.08-1.37V105c0-.14,0-.29,0-.43H92.81V157c0,.21,0,.41,0,.61a2.07,2.07,0,0,0,4.14,0c0-.35,0-.71,0-1.07V144.46q0-19.92,0-39.82a3.84,3.84,0,0,0-2.36-3.94v-3c0-2.34-.8-3.29-3-3.52a5.28,5.28,0,0,1,.91-3.47c.67-.88,1.29-1.8,1.9-2.69.36-.52.71-1,1.08-1.56A17.65,17.65,0,0,0,98.76,76q0-3.81,0-7.61c0-6.77,0-13.76,0-20.64A5.83,5.83,0,0,0,96.28,42.68Zm-5.85,57.77h-19c0-.72,0-1.44,0-2.16,2.32,0,4.65,0,7,0h5.1c2.32,0,4.65,0,7,0C90.39,99,90.41,99.71,90.43,100.45Zm-3-6.32c-2.15,0-4.34,0-6.56,0s-4.38,0-6.6,0a7.27,7.27,0,0,0-2.8-6.45,21.83,21.83,0,0,1-7.34-11.45c-.4-1.5-.72-3.07-1-4.58l-.3-1.42q-.82-3.86-1.63-7.72l-.38-1.82c-.28-1.31.44-1.47.68-1.52a.84.84,0,0,1,.65.08,1.58,1.58,0,0,1,.57,1L63,61.86c.27,1.27.54,2.54.77,3.81a9.41,9.41,0,0,0,2.69,5,2.84,2.84,0,0,0,2.59.87,2.77,2.77,0,0,0,2-1.75,13.71,13.71,0,0,0,1.11-5.3c0-5.79,0-11.59,0-17.38V40.73c0-.14,0-.28,0-.42,0-.87.52-1.43,1.24-1.43h0a1.27,1.27,0,0,1,1.21,1.42V59.91a3.32,3.32,0,0,0,.69,2.46,1.91,1.91,0,0,0,1.44.52c2.06,0,2.06-2.14,2.06-2.93V36.23c0-.63.18-1.68,1.23-1.68h0c1,0,1.21,1.07,1.21,1.71V59.68c0,.27,0,.54,0,.81A2.55,2.55,0,0,0,82,62.41a1.88,1.88,0,0,0,1.44.48c.75-.06,2-.45,2-2.46V41c0-.24,0-.47,0-.71,0-.83.55-1.45,1.24-1.4A1.26,1.26,0,0,1,88,40.22c0,1.46,0,2.93,0,4.39V60.29a5,5,0,0,0,0,.92,2.07,2.07,0,0,0,4,.09,5.22,5.22,0,0,0,.09-1.15q0-4.84,0-9.68V47.84c0-.14,0-.28,0-.42,0-.34.12-1.44,1.2-1.45h0c.71,0,1.2.57,1.22,1.42,0,.32,0,.65,0,1V66.52c0,3.15,0,6.31,0,9.47A13.18,13.18,0,0,1,92,84.09c-.37.51-.73,1-1.08,1.54-.46.69-.94,1.39-1.44,2A9.37,9.37,0,0,0,87.43,94.13Z"/><path class="cls-1" d="M144.1,79.25a5.05,5.05,0,0,0-3.22-2.19,5.13,5.13,0,0,0-6.14,4.09q-.54,2.47-1,5l-.14.65c0,.21-.09.41-.14.59q0-.36,0-.75V83.46q0-10.59,0-21.17a5.59,5.59,0,0,0-2.21-4.6,5.48,5.48,0,0,0-4.51-.79,5.38,5.38,0,0,0-10.62,0,5.32,5.32,0,0,0-4.37.75A5.44,5.44,0,0,0,109.35,62c0,.67,0,1.34,0,2a5.64,5.64,0,0,0-4.54.85,5.83,5.83,0,0,0-2.11,4.84q0,14.33,0,28.63a16.8,16.8,0,0,0,1.6,7.24,33.08,33.08,0,0,0,3.35,5.28c.34.46.67.91,1,1.38a6.07,6.07,0,0,1,1.22,3.91c-1.94,0-3,1.18-3,3.21,0,.82,0,1.65,0,2.48v.86c-1.57.61-2.36,1.93-2.35,3.92,0,3.54,0,7.07,0,10.61v19.91a4.3,4.3,0,0,0,.07.92,2,2,0,0,0,1.94,1.63h.06a2,2,0,0,0,2-1.65,6.91,6.91,0,0,0,.07-1.22q0-14.91,0-29.84v-.36h23.79v29.84c0,.23,0,.47,0,.71v.34a2,2,0,0,0,2.05,2.15,2.16,2.16,0,0,0,1.44-.55,2.2,2.2,0,0,0,.6-1.62V144.67l0-18.35a3.62,3.62,0,0,0-2.35-3.63q0-1.34,0-2.67v-.48c0-2.16-.84-3.16-2.91-3.39a3.38,3.38,0,0,1,1.25-3.18,12.06,12.06,0,0,0,1.09-1c.23-.24.45-.48.7-.7a23,23,0,0,0,6.8-11.36C142.23,96,143,92,143.81,88.1c.32-1.62.65-3.25,1-4.87A5.25,5.25,0,0,0,144.1,79.25ZM129.66,110a7,7,0,0,0-2.49,6s0,.09,0,.15h-3.72c-3.12,0-6.24,0-9.36,0H114a9,9,0,0,0-2-6.35c-1.12-1.48-2.15-3-3-4.34a12.68,12.68,0,0,1-2.14-7.15v-14a1.64,1.64,0,0,0,0-.22V70c0-.22,0-.44,0-.66.06-.88.55-1.41,1.32-1.41s1.14.59,1.16,1.38c0,1.54,0,3.08,0,4.62V75c0,2.5,0,5,0,7.5a2.42,2.42,0,0,0,.63,1.78,2,2,0,0,0,1.46.57,2.07,2.07,0,0,0,2.08-2.36l0-16.58V64.44c0-.71,0-1.43,0-2.14,0-.91.55-1.44,1.31-1.41s1.18.77,1.18,1.47L116,82v.22c0,.24,0,.47,0,.71a2,2,0,0,0,2.07,2,2.1,2.1,0,0,0,2.1-1.94,5.62,5.62,0,0,0,0-.82V74.94c0-5.62,0-11.25,0-16.88,0-.6.15-1.34.9-1.48a1.3,1.3,0,0,1,1.09.22,1.22,1.22,0,0,1,.42,1c0,1.1,0,2.24,0,3.34,0,.53,0,1.06,0,1.6V82.3a4.91,4.91,0,0,0,.05.83,2.08,2.08,0,0,0,4.13-.14c0-.26,0-.51,0-.77V62.51a2.52,2.52,0,0,1,.07-.77,1.22,1.22,0,0,1,2.33,0,3.18,3.18,0,0,1,.08.92v6.15c0,5.92,0,11.85,0,17.77a13.37,13.37,0,0,0,1.12,5.19,2.79,2.79,0,0,0,2,1.72,2.83,2.83,0,0,0,2.55-.84,9.54,9.54,0,0,0,2.71-5c.36-2,.78-3.88,1.17-5.66a1,1,0,0,1,1.16-.9,1,1,0,0,1,.61.39,1.18,1.18,0,0,1,.13.92L140,85.92c-.79,3.83-1.62,7.79-2.51,11.65a21.1,21.1,0,0,1-6.88,11.5c-.19.16-.36.34-.53.51A3.87,3.87,0,0,1,129.66,110Zm.38,12.46c-2.36,0-4.72,0-7.09,0h-5c-2.31,0-4.61,0-6.91,0a19.45,19.45,0,0,0,0-2.16c7,0,13.26,0,19.05,0A19.6,19.6,0,0,0,130,122.44Z"/><path class="cls-1" d="M60.34,88.36a5.16,5.16,0,0,0-6.14,4.22c-.22,1-.43,2-.64,3s-.39,1.88-.59,2.82c0,.07,0,.13,0,.19,0-.19,0-.39,0-.6V74.14a10.79,10.79,0,0,0,0-1.26,5.47,5.47,0,0,0-2.44-4,5.34,5.34,0,0,0-4.25-.66,5.3,5.3,0,0,0-4.93-4.5,5.38,5.38,0,0,0-5.64,4.24l-.06.27A5.47,5.47,0,0,0,31.1,69a5.71,5.71,0,0,0-2.27,4.78c0,.51,0,1,0,1.53a5.49,5.49,0,0,0-4.47.84,5.73,5.73,0,0,0-2.17,4.79q0,14.36,0,28.71a17,17,0,0,0,3.08,9.82l.8,1.18c.68,1,1.38,2,2.13,3a5.75,5.75,0,0,1,1.17,3.82c-2,0-3,1.11-3,3.16q0,1.33,0,2.67V134A3.82,3.82,0,0,0,24,138c0,4.62,0,9.23,0,13.84v5c0,2.35,1.12,2.85,2.07,2.85h0c.94,0,2.06-.5,2.07-2.84v-4.25c0-4.84,0-9.68,0-14.53v-.16h.18q8.79,0,17.58,0h6c0,.13,0,.26,0,.39v19a2.57,2.57,0,0,0,.69,1.94,1.88,1.88,0,0,0,1.32.51h.12c.76,0,2-.41,2-2.45,0-1.08,0-2.16,0-3.24v-5.84c0-3.48,0-7,0-10.43A3.61,3.61,0,0,0,53.71,134c0-1.05,0-2.11,0-3.16,0-2.22-.82-3.12-2.92-3.34A3.37,3.37,0,0,1,52,124.38a11.74,11.74,0,0,0,1.24-1.19c.25-.26.49-.52.76-.76A23.75,23.75,0,0,0,61,109.84c.87-3.69,1.65-7.45,2.4-11.09l.84-4.07A5.15,5.15,0,0,0,60.34,88.36Zm-29.85,43.2c2.31,0,4.62,0,6.94,0h5.12q3.5,0,7,0a19.68,19.68,0,0,0,0,2.18c-2.64,0-5.27,0-7.91,0h-6.8l-4.37,0A14.23,14.23,0,0,0,30.49,131.56Zm18.62-10.25a6.94,6.94,0,0,0-2.43,6,.49.49,0,0,1,0,.13h-.43l-7.27,0c-1.83,0-3.66,0-5.48,0h0a9.15,9.15,0,0,0-2-6.43c-.65-.85-1.26-1.76-1.86-2.64l-.86-1.24a13.16,13.16,0,0,1-2.39-7.62V81a5.43,5.43,0,0,1,0-.57,1.21,1.21,0,0,1,1.19-1.1,1.23,1.23,0,0,1,1.25,1.1,4,4,0,0,1,0,.6V93.57c0,.21,0,.41,0,.62a2,2,0,0,0,2.06,2A2,2,0,0,0,33,94.35a7,7,0,0,0,0-.89L33,74.1a5.26,5.26,0,0,1,0-.92,1.2,1.2,0,0,1,1.24-1,1.23,1.23,0,0,1,1.15,1.13,3.34,3.34,0,0,1,0,.45V93.59a4.58,4.58,0,0,0,0,.81,2,2,0,0,0,2.08,1.79h0a2,2,0,0,0,2-1.69,4.14,4.14,0,0,0,.06-1v-24a3.89,3.89,0,0,1,0-.71,1.2,1.2,0,0,1,1.2-1h0A1.16,1.16,0,0,1,42,68.8a6.52,6.52,0,0,1,.06,1.11V93.56c0,2.44,1.61,2.64,2.09,2.65a1.92,1.92,0,0,0,1.41-.55,2.8,2.8,0,0,0,.68-2.09V73.91a4.66,4.66,0,0,1,0-.65,1.26,1.26,0,0,1,1.22-1.08h0a1.21,1.21,0,0,1,1.19,1,4.2,4.2,0,0,1,.05.82V89.83c0,2.83,0,5.67,0,8.5a12.05,12.05,0,0,0,1.2,4.92,2.58,2.58,0,0,0,1.92,1.57,2.79,2.79,0,0,0,2.52-.8,9.18,9.18,0,0,0,2.73-4.86c.24-1.24.5-2.48.76-3.71l.41-2c.17-.83.53-1,.86-1a.88.88,0,0,1,.81.22,1.35,1.35,0,0,1,.24,1.22q-.82,3.94-1.67,7.89l-.65,3-.27,1.31a32.52,32.52,0,0,1-1.43,5.43,18.85,18.85,0,0,1-4.84,7.6c-.4.35-.77.73-1.14,1.11S49.49,121,49.11,121.31ZM26.32,158.64Z"/><path class="cls-1" d="M74.41,105.76a4.65,4.65,0,0,0-3.29,1.38,4.74,4.74,0,0,0,0,6.69,4.64,4.64,0,0,0,3.29,1.34h0a4.71,4.71,0,0,0,0-9.41Zm.55,4.71a.57.57,0,0,1-.53.52.61.61,0,0,1-.52-.5.52.52,0,0,1,.15-.37.51.51,0,0,1,.36-.17h0a.57.57,0,0,1,.53.52Z"/><path class="cls-1" d="M127,127.75h0a4.71,4.71,0,0,0-4.66,4.75,4.68,4.68,0,0,0,4.7,4.66h0a4.68,4.68,0,0,0,4.65-4.74A4.72,4.72,0,0,0,127,127.75Zm.53,4.71h0a.52.52,0,0,1-.88.36.51.51,0,0,1-.16-.36.55.55,0,0,1,.51-.52h0a.52.52,0,0,1,.35.15A.55.55,0,0,1,127.53,132.46Z"/><path class="cls-1" d="M46.45,139.07a4.69,4.69,0,0,0,0,9.38h0a4.69,4.69,0,0,0-.1-9.38ZM46,143.73a.57.57,0,0,1,.51-.5h0a.59.59,0,0,1,.52.52.49.49,0,0,1-.16.36.51.51,0,0,1-.74,0A.53.53,0,0,1,46,143.73Z"/></svg>