<svg xmlns="http://www.w3.org/2000/svg" viewBox="0 0 924.1 611.14"><defs><style>.cls-1,.cls-2,.cls-3,.cls-4,.cls-5,.cls-6,.cls-7{fill:none;stroke:#1d1d1b;stroke-linecap:round;stroke-linejoin:round;stroke-width:3px;}.cls-2{stroke-dasharray:4.09 9.2;}.cls-3{stroke-dasharray:3.97 8.93;}.cls-4{stroke-dasharray:3.89 8.75;}.cls-5{stroke-dasharray:4 9;}.cls-6{stroke-dasharray:4.03 9.07;}.cls-7{stroke-dasharray:3.94 8.86;}.cls-8{fill:#c88a5e;}.cls-9{fill:#1d1d1b;}</style></defs><g id="Capa_2" data-name="Capa 2"><g id="Capa_1-2" data-name="Capa 1"><line class="cls-1" x1="591.19" y1="203.68" x2="593.19" y2="203.68"/><line class="cls-2" x1="602.4" y1="203.68" x2="850.36" y2="203.68"/><line class="cls-1" x1="854.96" y1="203.68" x2="856.96" y2="203.68"/><line class="cls-1" x1="402.59" y1="203.68" x2="404.59" y2="203.68"/><line class="cls-3" x1="413.52" y1="203.68" x2="525.1" y2="203.68"/><line class="cls-1" x1="529.57" y1="203.68" x2="531.57" y2="203.68"/><line class="cls-1" x1="160.73" y1="203.68" x2="162.73" y2="203.68"/><line class="cls-4" x1="171.48" y1="203.68" x2="280.88" y2="203.68"/><line class="cls-1" x1="285.26" y1="203.68" x2="287.26" y2="203.68"/><line class="cls-1" x1="160.73" y1="294" x2="162.73" y2="294"/><line class="cls-5" x1="171.73" y1="294" x2="687.2" y2="294"/><line class="cls-1" x1="691.7" y1="294" x2="693.7" y2="294"/><line class="cls-1" x1="160.73" y1="423.73" x2="162.73" y2="423.73"/><line class="cls-6" x1="171.8" y1="423.73" x2="507.75" y2="423.73"/><line class="cls-1" x1="512.28" y1="423.73" x2="514.28" y2="423.73"/><line class="cls-1" x1="160.73" y1="542.22" x2="162.73" y2="542.22"/><line class="cls-7" x1="171.59" y1="542.22" x2="256.71" y2="542.22"/><line class="cls-1" x1="261.14" y1="542.22" x2="263.14" y2="542.22"/><path class="cls-8" d="M419.31,227.75c-2.26-17.22-4.21-34.49-6.65-51.68-1.87-13.13-4.1-26.21-7.21-39.14-1.34-5.54-3.71-9-9.86-8.89a14.05,14.05,0,0,1-2.91-.63c-9.66-1.93-11.49-3.4-12-13.26a234.83,234.83,0,0,0-3.36-26.25c-1.42-8.38-2.72-16.79-5.27-25-3.45-11.07-8.8-20.38-20-25.49-6.46-2.95-13-1.17-19.47-1.24a4.88,4.88,0,0,0-2.67,1.25c-6.81,5.3-13,11.25-15.53,19.77-4.06,13.9-6,28.09-4.58,42.64A143.49,143.49,0,0,1,311,117.08c-.07,3.26-1.42,5.3-4.68,6.32a65.14,65.14,0,0,1-13.55,3.06c-4.09.36-6.45,2.26-7.64,6.46a184.42,184.42,0,0,0-5.25,26.16c-.32,2.43-1.85,4.2-2.32,6.48a564.34,564.34,0,0,0-8.91,60.38,19.48,19.48,0,0,0,1.2,8.79,120.21,120.21,0,0,0,15,28.76c4.15,5.74,3.2,11.8,3.05,17.4-.23,8.7-1.17,17.42-.87,26.16.87,25.68,4.65,51.11,6.64,76.7.69,8.91,1,8.89,10,9.11a8.34,8.34,0,0,0,1,0c2.32-.31,3.15.81,3.18,3a64.85,64.85,0,0,0,2.68,16.66,52.91,52.91,0,0,1,2.08,14.74c-.23,22.86,1.51,45.51,6.29,67.94,1.2,5.62,3.53,10.81,4.9,16.34.57,2.29-.65,4.1-.13,6.38,1.19,5.34,3.61,10.31,3.44,16.11-.22,7.27,1.92,14.94-.84,21.73-4.47,11-7.57,23.16-19.06,29.79a3.46,3.46,0,0,0-1.56,4.31c.48,1.73,1.86,2.08,3.36,2.13,4.64.16,9.31,0,13.92.45,8.13.85,13.44-2.12,15.59-10.23a15.36,15.36,0,0,1,1.77-3.56,12.48,12.48,0,0,1,3.17-3.8c.59-.47,1.29-1.13,2.07-.61s.31,1.39,0,2.06c-1.45,2.74-2.79,5.54-4.4,8.17a15.09,15.09,0,0,0-2.11,7.21c-.16,2.61.93,3.63,3.39,3.74,3.42.16,6.84.42,9.63.59,3.41-.17,6.18-.24,8.93-.48,5.52-.46,7.15-1.44,8.15-6.92A96,96,0,0,1,374.88,570a20.4,20.4,0,0,0,.88-2.85c1.1-4.41.74-8.6-2.15-12.29a7.38,7.38,0,0,1-1.46-4.6c-.33-7.7,1.08-15.24,2.43-22.73,2.22-12.31,6.1-24.23,9.56-36.23,5.63-19.55,5.23-39.33,3.37-59.27-1.07-11.56-2.55-23.12-.78-34.76,1-6.47.89-6.59,7.46-6.82,2.37-.08,3.28-.78,3.37-3.24.42-11.5.86-23,1.58-34.49,1.56-24.93,1.85-49.77-4.79-74.17-.46-1.69.32-2.31,1.68-2.51,2.43-.35,2.75-1.66,2.12-3.78-.7-2.32-1-4.77-1.77-7.07a3.54,3.54,0,0,1,1.22-4.31A224.42,224.42,0,0,0,414.49,244,19.29,19.29,0,0,0,419.31,227.75Zm-102.62-51a110.88,110.88,0,0,1,0-14.42c-.26-4.2.63-9.87.79-15.56.09-3.16.07-7.14,2.14-10.36a6.37,6.37,0,0,0,.87-4.44c-.66-2.76,1.32-4.55,1.82-6.83.23-1.06,1.12-1.11,1.78-.49,2.8,2.67,6.43,2.23,9.82,3a33.24,33.24,0,0,0,23.36-3c.49-.25,1.06-.63,1.52-.17.66.66.17,1.47,0,2.19a233,233,0,0,1-9.59,30.65c-5.66,14.91-12.17,29.39-21.29,42.56-.58.85-.92,2.38-2.22,2.14s-1.23-1.68-1.62-2.69C321.22,192,317.37,184.9,316.69,176.78Zm39.47,357.59c-1.11,4.74-2.66,9.33-4,14-.58,2-1.35,1.24-2.2.4-1.46-1.45-1.34-3.49-1.62-5.28-1.34-8.61-3.11-17.15-2.85-26,.07-2.43-.22-4.79.56-7.18s-.54-4.93-.89-7.4c-.18-1.32-.56-2.65,1-3.46.95-.49.85-1.49.92-2.35,1.26-16.3,3.13-32.59,1.08-49A35.48,35.48,0,0,0,347.1,442a39.27,39.27,0,0,1-1-20.31c1.69-7.75,1.49-15.6,1.81-23.43,1.68,7.28,1.59,14.75,2.9,22,3.89,21.7,2.36,43.67,3.49,65.51.27,5.27-.07,10.63,1.85,15.73.9,2.39-.66,4.65-.4,7.15C356.64,517.18,358.17,525.73,356.16,534.37Zm22.34-298c.23,7.63-2.59,12.8-9,16.36a5.14,5.14,0,0,0-1.29,1C360.79,262,352,259.83,343.22,257a56.23,56.23,0,0,1-13.05-6.45c-.65-.42-1.31-.82-2-1.2-1.81-1-3.49-.78-4.69.89s0,3,1.27,3.92c2.89,2.21,5.92,4.26,8.86,6.42,1.53,1.12,2.93,2.36,2.12,4.7-3.23-4.37-8.5-5.39-12.69-8.12-1.88-1.22-2.79-2.25-2.56-4.68,1.36-14.3,2.55-28.62,3.75-42.94.49-5.89.43-5.92,6.5-5.62,14.91.75,29.74,2.36,44.59,3.91,2.77.29,3.53,1.56,3.65,4C379.38,220,378.25,228.18,378.5,236.32Zm12-8.83c-.31,1.74-.7,4-2.61,4.13-1.53.08-1.29-2.26-1.6-3.52-1.85-7.5-4.12-15-2.33-22.85a46.8,46.8,0,0,1,2.43-8.15c1.55,4.64,1.56,8.86,2.2,12.94.82,5.13,1.27,10.31,1.86,15.47A6.59,6.59,0,0,1,390.48,227.49Z"/><path class="cls-8" d="M611.36,244.63c-1.4-10.72-2.61-21.47-4.14-32.18-1.16-8.17-2.54-16.32-4.48-24.36-.84-3.46-2.32-5.63-6.14-5.54a8.37,8.37,0,0,1-1.81-.39c-6-1.2-7.16-2.12-7.49-8.26a141.71,141.71,0,0,0-2.09-16.34A117.15,117.15,0,0,0,581.93,142c-2.15-6.89-5.47-12.69-12.42-15.87-4-1.84-8.08-.73-12.13-.77a3,3,0,0,0-1.66.77c-4.24,3.31-8.12,7-9.67,12.31A70.12,70.12,0,0,0,543.2,165a89.17,89.17,0,0,1,.71,10.71,3.75,3.75,0,0,1-2.92,3.94,40.77,40.77,0,0,1-8.44,1.91c-2.54.22-4,1.4-4.75,4a114.74,114.74,0,0,0-3.27,16.28c-.2,1.52-1.15,2.62-1.44,4a350.55,350.55,0,0,0-5.55,37.6,12.13,12.13,0,0,0,.74,5.47,74.93,74.93,0,0,0,9.32,17.91c2.58,3.57,2,7.34,1.9,10.83-.15,5.41-.73,10.85-.54,16.29.54,16,2.89,31.82,4.13,47.75.43,5.55.61,5.53,6.25,5.67a4.3,4.3,0,0,0,.62,0c1.45-.2,2,.5,2,1.88a40.92,40.92,0,0,0,1.67,10.37,32.79,32.79,0,0,1,1.3,9.18,192.07,192.07,0,0,0,3.92,42.3c.74,3.5,2.19,6.73,3,10.17.36,1.43-.4,2.56-.08,4,.74,3.32,2.25,6.42,2.15,10-.14,4.52,1.19,9.3-.53,13.52-2.78,6.84-4.71,14.43-11.86,18.56a2.15,2.15,0,0,0-1,2.68c.3,1.07,1.16,1.29,2.09,1.33,2.89.09,5.81,0,8.67.27,5.07.53,8.37-1.31,9.71-6.37a9.7,9.7,0,0,1,1.1-2.21,7.78,7.78,0,0,1,2-2.37c.37-.29.81-.7,1.29-.38s.2.87,0,1.29c-.9,1.7-1.74,3.44-2.74,5.08a9.29,9.29,0,0,0-1.31,4.49c-.11,1.63.58,2.26,2.11,2.33,2.13.1,4.26.26,6,.37,2.13-.11,3.85-.16,5.56-.3,3.44-.29,4.45-.9,5.08-4.31a59.1,59.1,0,0,1,3.64-11.59,13.4,13.4,0,0,0,.54-1.77,8.44,8.44,0,0,0-1.34-7.65,4.7,4.7,0,0,1-.91-2.87c-.2-4.8.68-9.49,1.52-14.15,1.38-7.67,3.8-15.09,6-22.56,3.5-12.17,3.25-24.49,2.1-36.9-.67-7.2-1.59-14.39-.49-21.64.61-4,.56-4.11,4.65-4.25,1.47-.05,2-.49,2.09-2,.26-7.16.54-14.33,1-21.48,1-15.53,1.15-31-3-46.18-.28-1,.2-1.44,1-1.56,1.51-.22,1.71-1,1.32-2.35s-.62-3-1.1-4.41a2.19,2.19,0,0,1,.76-2.68,141,141,0,0,0,10.51-10.52A12,12,0,0,0,611.36,244.63Zm-63.88-31.74a66.38,66.38,0,0,1,0-9c-.16-2.62.4-6.15.49-9.69.06-2,0-4.45,1.33-6.45a4,4,0,0,0,.55-2.77c-.42-1.71.82-2.83,1.13-4.25.14-.66.69-.69,1.1-.3,1.75,1.66,4,1.39,6.12,1.85a20.68,20.68,0,0,0,14.55-1.85c.3-.16.66-.39.94-.11s.11.92,0,1.37a143.43,143.43,0,0,1-6,19.08c-3.52,9.28-7.58,18.3-13.25,26.5-.37.53-.58,1.48-1.38,1.33s-.78-1-1-1.67C550.3,222.35,547.9,218,547.48,212.89Zm24.57,222.65c-.69,2.95-1.66,5.81-2.49,8.72-.37,1.27-.84.77-1.37.24-.91-.9-.84-2.17-1-3.28-.84-5.36-1.94-10.68-1.78-16.19a15.68,15.68,0,0,1,.35-4.47c.52-1.58-.33-3.07-.55-4.6-.12-.83-.35-1.65.64-2.16.59-.3.53-.93.57-1.46.78-10.15,2-20.29.68-30.48a23.61,23.61,0,0,0-.68-3.86,24.48,24.48,0,0,1-.63-12.65c1.06-4.82.93-9.71,1.13-14.58,1.05,4.53,1,9.18,1.81,13.71,2.42,13.52,1.46,27.2,2.17,40.79.17,3.29,0,6.62,1.15,9.8.56,1.49-.41,2.89-.25,4.45C572.34,424.84,573.3,430.16,572.05,435.54ZM586,250c.15,4.75-1.61,8-5.62,10.19a3.1,3.1,0,0,0-.81.63c-4.59,5.13-10.1,3.81-15.53,2a35.37,35.37,0,0,1-8.13-4c-.4-.26-.81-.51-1.23-.74a2,2,0,0,0-2.92.55c-.77,1.07,0,1.86.79,2.44,1.8,1.38,3.68,2.65,5.51,4,1,.7,1.83,1.47,1.33,2.92-2-2.71-5.3-3.35-7.91-5.05-1.17-.76-1.74-1.4-1.59-2.91.85-8.91,1.59-17.83,2.33-26.74.31-3.67.27-3.69,4.05-3.5,9.28.47,18.52,1.47,27.76,2.44,1.73.18,2.2,1,2.28,2.48C586.51,239.8,585.8,244.9,586,250Zm7.47-5.5c-.2,1.09-.44,2.5-1.63,2.57-.95.05-.8-1.41-1-2.19-1.15-4.67-2.56-9.31-1.45-14.23a29.5,29.5,0,0,1,1.52-5.07c1,2.89,1,5.51,1.37,8.06.51,3.19.79,6.41,1.16,9.63A4.61,4.61,0,0,1,593.42,244.47Z"/><path class="cls-8" d="M766.13,142.66c-1.08-8.21-2-16.44-3.17-24.64-.9-6.26-2-12.49-3.44-18.66-.64-2.64-1.77-4.31-4.7-4.23a7.06,7.06,0,0,1-1.39-.3c-4.6-.92-5.48-1.63-5.73-6.33A109.41,109.41,0,0,0,746.1,76a88.66,88.66,0,0,0-2.51-11.9c-1.64-5.28-4.19-9.72-9.51-12.15-3.08-1.41-6.19-.56-9.29-.6a2.37,2.37,0,0,0-1.27.6c-3.24,2.53-6.21,5.36-7.4,9.42a53.54,53.54,0,0,0-2.18,20.33,70.44,70.44,0,0,1,.54,8.21,2.87,2.87,0,0,1-2.24,3,30.52,30.52,0,0,1-6.46,1.46,3.76,3.76,0,0,0-3.64,3.08,88.8,88.8,0,0,0-2.5,12.47c-.15,1.16-.88,2-1.11,3.09a268.47,268.47,0,0,0-4.24,28.79,9.21,9.21,0,0,0,.57,4.19A57.26,57.26,0,0,0,702,159.7c2,2.73,1.53,5.62,1.46,8.29-.12,4.15-.56,8.31-.42,12.47.41,12.24,2.22,24.37,3.16,36.57.33,4.24.47,4.23,4.79,4.33a2.57,2.57,0,0,0,.48,0c1.1-.15,1.5.39,1.51,1.44a31.36,31.36,0,0,0,1.28,7.94,25,25,0,0,1,1,7,147.46,147.46,0,0,0,3,32.39c.57,2.68,1.68,5.15,2.34,7.79.27,1.09-.31,2-.07,3,.57,2.54,1.73,4.91,1.65,7.68-.11,3.46.91,7.12-.41,10.35-2.13,5.24-3.6,11.05-9.08,14.21a1.66,1.66,0,0,0-.75,2.05c.23.83.89,1,1.6,1,2.22.07,4.45,0,6.64.21,3.88.41,6.41-1,7.44-4.87a6.9,6.9,0,0,1,.84-1.7,6,6,0,0,1,1.51-1.81c.28-.22.61-.54,1-.29s.14.66,0,1c-.69,1.3-1.33,2.64-2.1,3.89a7.23,7.23,0,0,0-1,3.44c-.07,1.25.45,1.73,1.62,1.78,1.63.08,3.26.2,4.59.29,1.63-.09,3-.12,4.26-.23,2.63-.23,3.41-.69,3.88-3.31a45.39,45.39,0,0,1,2.79-8.86,9.25,9.25,0,0,0,.41-1.36,6.44,6.44,0,0,0-1-5.86,3.61,3.61,0,0,1-.7-2.2,49.82,49.82,0,0,1,1.16-10.83,174.82,174.82,0,0,1,4.56-17.27c2.68-9.32,2.49-18.75,1.61-28.26-.51-5.51-1.22-11-.38-16.56.47-3.09.43-3.15,3.56-3.26,1.13,0,1.56-.37,1.61-1.54.2-5.48.41-11,.75-16.44.75-11.89.88-23.73-2.28-35.36-.22-.81.15-1.1.8-1.2,1.16-.17,1.31-.79,1-1.8s-.48-2.27-.84-3.37a1.67,1.67,0,0,1,.58-2.05,109.31,109.31,0,0,0,8.05-8.06A9.21,9.21,0,0,0,766.13,142.66Zm-48.92-24.3a52,52,0,0,1,0-6.87c-.13-2,.3-4.71.37-7.42,0-1.51,0-3.41,1-4.94A3,3,0,0,0,719,97c-.32-1.31.63-2.16.87-3.25.11-.51.53-.53.84-.23,1.34,1.27,3.07,1.06,4.68,1.41a15.82,15.82,0,0,0,11.14-1.42c.23-.12.51-.29.73-.08s.08.7,0,1a112.91,112.91,0,0,1-4.57,14.61,93.91,93.91,0,0,1-10.15,20.29c-.28.4-.44,1.13-1.06,1s-.59-.8-.77-1.28C719.37,125.6,717.53,122.23,717.21,118.36ZM736,288.82c-.53,2.27-1.26,4.46-1.9,6.68-.28,1-.65.59-1,.19a4.08,4.08,0,0,1-.78-2.51c-.63-4.11-1.48-8.18-1.36-12.4a11.93,11.93,0,0,1,.27-3.42c.4-1.21-.25-2.35-.42-3.53-.09-.63-.27-1.26.49-1.65.45-.23.41-.71.44-1.12.6-7.77,1.49-15.53.51-23.34a17.17,17.17,0,0,0-.51-2.95,18.62,18.62,0,0,1-.48-9.68c.8-3.69.71-7.44.86-11.17.8,3.47.76,7,1.38,10.5,1.86,10.35,1.13,20.82,1.66,31.23.13,2.52,0,5.07.89,7.5.43,1.14-.32,2.22-.19,3.41C736.25,280.63,737,284.71,736,288.82Zm10.65-142.08c.11,3.64-1.23,6.1-4.31,7.8a2.63,2.63,0,0,0-.61.49c-3.52,3.93-7.74,2.92-11.9,1.56a27.07,27.07,0,0,1-6.22-3.07l-.94-.58a1.57,1.57,0,0,0-2.24.43c-.59.82,0,1.42.6,1.87,1.38,1,2.82,2,4.23,3.06.73.53,1.4,1.12,1,2.24-1.54-2.08-4.06-2.57-6-3.87a2.07,2.07,0,0,1-1.22-2.23c.65-6.82,1.21-13.65,1.78-20.47.24-2.81.21-2.83,3.1-2.68,7.11.35,14.18,1.12,21.26,1.86,1.32.14,1.69.75,1.74,1.91C747.09,139,746.55,142.86,746.67,146.74Zm5.71-4.21c-.15.84-.33,1.92-1.24,2-.73,0-.62-1.07-.77-1.68-.88-3.57-2-7.13-1.11-10.89a23.62,23.62,0,0,1,1.16-3.88,33.49,33.49,0,0,1,1.05,6.17c.39,2.44.61,4.91.89,7.37A3,3,0,0,1,752.38,142.53Z"/><path class="cls-8" d="M924,109.69c-.87-6.63-1.62-13.28-2.56-19.9-.72-5.06-1.58-10.1-2.78-15.08-.51-2.13-1.43-3.48-3.79-3.42a5,5,0,0,1-1.12-.25c-3.73-.74-4.43-1.31-4.63-5.11a87.42,87.42,0,0,0-1.3-10.1,70.62,70.62,0,0,0-2-9.62c-1.33-4.27-3.38-7.85-7.68-9.82-2.49-1.14-5-.45-7.5-.48a1.88,1.88,0,0,0-1,.48c-2.62,2-5,4.34-6,7.62a43.19,43.19,0,0,0-1.77,16.42,54.41,54.41,0,0,1,.44,6.63,2.33,2.33,0,0,1-1.8,2.44,25.44,25.44,0,0,1-5.22,1.18,3,3,0,0,0-3,2.49,70.68,70.68,0,0,0-2,10.07c-.12.94-.71,1.62-.89,2.5A214.45,214.45,0,0,0,866,109a7.36,7.36,0,0,0,.46,3.38,46.47,46.47,0,0,0,5.76,11.08c1.6,2.21,1.23,4.54,1.18,6.7-.09,3.35-.45,6.71-.34,10.08.33,9.89,1.79,19.69,2.56,29.54.26,3.43.37,3.42,3.87,3.51a2.41,2.41,0,0,0,.38,0c.89-.12,1.21.32,1.22,1.17a25,25,0,0,0,1,6.42,20.55,20.55,0,0,1,.8,5.67,119.2,119.2,0,0,0,2.42,26.17c.46,2.17,1.36,4.17,1.89,6.3.22.88-.25,1.57-.05,2.45.46,2.06,1.39,4,1.32,6.21-.08,2.8.74,5.75-.32,8.37-1.72,4.23-2.92,8.92-7.34,11.47a1.32,1.32,0,0,0-.6,1.66c.18.67.71.81,1.29.83,1.79.05,3.59,0,5.36.17,3.14.32,5.18-.82,6-3.94a6.32,6.32,0,0,1,.68-1.38,5,5,0,0,1,1.22-1.46c.23-.18.5-.44.8-.23s.12.53,0,.79c-.55,1-1.07,2.13-1.69,3.15a5.68,5.68,0,0,0-.81,2.78c-.07,1,.35,1.39,1.3,1.44,1.32.06,2.64.16,3.71.22,1.31-.07,2.38-.09,3.44-.18,2.13-.18,2.75-.56,3.14-2.67a37.09,37.09,0,0,1,2.25-7.17,9.39,9.39,0,0,0,.34-1.1,5.24,5.24,0,0,0-.83-4.73,2.81,2.81,0,0,1-.56-1.77,40.08,40.08,0,0,1,.93-8.75,142.62,142.62,0,0,1,3.69-14c2.16-7.53,2-15.15,1.3-22.83-.42-4.45-1-8.9-.31-13.39.38-2.49.35-2.54,2.88-2.62.91,0,1.26-.31,1.29-1.25.17-4.43.33-8.86.61-13.29.61-9.6.72-19.17-1.84-28.57-.18-.65.12-.89.64-1,.94-.14,1.06-.65.82-1.46s-.38-1.84-.68-2.72a1.36,1.36,0,0,1,.47-1.66,88.85,88.85,0,0,0,6.51-6.51A7.42,7.42,0,0,0,924,109.69ZM884.49,90.06a42.39,42.39,0,0,1,0-5.55c-.1-1.62.24-3.81.3-6a7.61,7.61,0,0,1,.83-4,2.47,2.47,0,0,0,.33-1.71c-.25-1.06.51-1.75.7-2.63.09-.41.43-.43.69-.19,1.08,1,2.48.86,3.78,1.15a12.82,12.82,0,0,0,9-1.15c.19-.1.41-.24.58-.06s.07.56,0,.84A90.29,90.29,0,0,1,897,82.58,75.46,75.46,0,0,1,888.8,99c-.22.33-.36.92-.85.82s-.48-.64-.63-1C886.23,95.91,884.75,93.19,884.49,90.06Zm15.2,137.74c-.43,1.82-1,3.59-1.54,5.39-.23.79-.52.48-.85.15a3.21,3.21,0,0,1-.62-2,54.2,54.2,0,0,1-1.1-10,9.58,9.58,0,0,1,.21-2.77c.32-1-.2-1.9-.34-2.85-.07-.51-.21-1,.4-1.33.36-.19.33-.57.35-.9.49-6.28,1.21-12.56.42-18.86a13.75,13.75,0,0,0-.42-2.39,15.16,15.16,0,0,1-.39-7.82,50.67,50.67,0,0,0,.7-9c.65,2.81.61,5.69,1.12,8.49,1.5,8.36.91,16.82,1.34,25.23.11,2,0,4.1.71,6.06.35.92-.25,1.8-.15,2.76C899.87,221.18,900.46,224.47,899.69,227.8ZM908.29,113a6.31,6.31,0,0,1-3.48,6.31,1.88,1.88,0,0,0-.5.39c-2.84,3.18-6.24,2.36-9.61,1.26a21.92,21.92,0,0,1-5-2.48l-.77-.47a1.27,1.27,0,0,0-1.81.35c-.47.66,0,1.15.49,1.51,1.12.85,2.28,1.64,3.42,2.47.58.43,1.13.91.81,1.81-1.24-1.68-3.27-2.07-4.88-3.13a1.67,1.67,0,0,1-1-1.8c.52-5.51,1-11,1.44-16.54.19-2.27.17-2.28,2.51-2.16,5.74.28,11.45.91,17.17,1.5,1.07.11,1.36.6,1.41,1.54C908.63,106.71,908.2,109.86,908.29,113Zm4.62-3.4c-.12.67-.27,1.55-1,1.59s-.49-.87-.61-1.35c-.72-2.89-1.59-5.76-.9-8.8a18,18,0,0,1,.93-3.14,27.63,27.63,0,0,1,.85,5c.32,2,.49,4,.72,6A2.78,2.78,0,0,1,912.91,109.59Z"/><path class="cls-8" d="M175.53,148.25a271.49,271.49,0,0,0-12.38-37.73,7.46,7.46,0,0,0-5-4.41c-5.54-1.73-11.08-3.51-16.58-5.38-10.84-3.67-22.22-6.23-28.79-17.32-2.74-4.61-3.31-4.28-6.11.25-13,21-24.74,42.61-31.71,66.52-3.51,12-7.45,23.91-11.43,36.63a19,19,0,0,1-1.07-2.65C59.91,171,58,157.73,59.16,144.29c1-12.06,1.51-24.14,2-36.22.24-5.53-.62-11.31,3.54-16.36C57.13,94.6,50.89,98.84,44.6,103a22.35,22.35,0,0,1-8.06,3.13c-9.21,1.87-10.87,3.44-12,12.66-4,32.07-10.11,63.86-11.83,96.21-.5,9.37-2.56,18.82,3.83,27.21a3.35,3.35,0,0,1-.37,4.52c-4.3,4.29-3.82,9.39-2.79,14.69.71,3.73,2.27,7.2,2.12,11.24-.13,3.61-1.81,6.85-1.55,10.53.15,2.11,1.52,4,.57,6.39-2.12,5.46-1,8.55,4.17,11.28,2.53,1.34,3.33,2.68,2.39,5.42-.73,2.13-1.12,4.49,2.28,5,1.76.27,1.49,1.88,1.59,3.07.53,6,1,12.06,1.45,18.09,1.07,14.49,1.72,29,5.51,43.18,2.32,8.64,5.29,17.17,5.54,26.21A299,299,0,0,0,42,443.39a181.63,181.63,0,0,1,1.37,52.51c-2.4,19.4-5,38.77-5,58.34,0,5.06-2,8.33-5.05,11.84-4.7,5.36-10.24,8.55-17.37,9.2-3.92.36-7.81,1.19-11.71,1.8-3,.46-4.1,2.49-4.22,5.16s1.78,3.62,4,4a55.72,55.72,0,0,0,6.91.85c11.47.44,23.2,2.76,34.25-1.35,7-2.6,13.91-3.31,21.12-3.41a73.92,73.92,0,0,0,13.19-1.24c2-.38,3.9-1,4.3-3.45.85-5,2.09-10.21.29-15.18-1.24-3.4-1.11-6.56-.82-10,3-34.67,3.64-69.46,5.09-104.21.31-7.43.9-14.91-.58-22.27a56.09,56.09,0,0,1-1.13-13.16,210.74,210.74,0,0,1,2-22.59c.29-2,.14-4.24,1.56-6.89,2,6.73,16.32,58.8,19,75.22,1.17,7.34,4.16,14.24,4.65,21.78.81,12.68.52,25.36.72,38a47.49,47.49,0,0,0,3.78,18.3c4.19,9.81,9.1,19.36,11.57,29.86.64,2.71,1.58,5.34,2.49,8,.49,1.46,1.27,2.87,3,3.12,2,.3,1.82,1.47,1.64,3-.76,6.47-1.51,12.94-2,19.43-.46,5.76,2,9.15,7.62,10.32a39.46,39.46,0,0,0,22.59-2.24,5.56,5.56,0,0,0,3.9-5.9,36.47,36.47,0,0,0-1.81-11.31,67.23,67.23,0,0,1-3-12.52c-.12-.8-.6-1.84.1-2.32,2.71-1.83,1.82-4.56,1.84-7,0-6-.61-12.06-.72-18-.13-6.71.18-13.51.23-20.26.11-14.22-1.8-28.31-3.32-42.42-1.39-12.83-2.44-25.78-6.28-38.15-2.79-9-6.32-17.75-6.86-27.29-.47-8.36-.36-16.78-1.65-25.06C142.89,368,145,338,145.13,308c0-.77-.16-2.1.76-2.06,2.8.11,3-2.28,3.83-3.83,2.79-5.22,5.37-10.57,8-15.89,6.07-12.33,10.72-25,9.53-39.12a40,40,0,0,1,.47-7.31A9.57,9.57,0,0,1,170,234c3-3.26,4-7.3,4.18-11.55q1.06-27.9,2-55.8C176.32,160.53,177.06,154.17,175.53,148.25Z"/><path class="cls-8" d="M55.1,42C53.34,53,60.44,61,64,70.26a.8.8,0,0,0,.23.26A9.27,9.27,0,0,1,67,78.77q-.42,3.81-.67,7.64c-.07,1-.35,2.06.6,2.93a6.69,6.69,0,0,1,1.71,6.78C67,103,70,108.3,73.76,113.51c1.18,1.63,1.9,1.67,3,0,2.94-4.46,6-8.87,9-13.29a5.52,5.52,0,0,0,.91-4.95c-.67-2.13.1-3.54,1.84-4.74,4-2.77,7.76-6,12-8.31,3.94-2.1,4.37-4.52,4.09-8.73-.4-6.1.83-12.26,6.41-16.36a5.56,5.56,0,0,0,2.08-3.53c.85-4.34,1.72-8.67,1.5-13.13a4.77,4.77,0,0,1,.36-3c1.73-2.8,1.61-6,1.78-8.74,0-7.19-1.24-10.41-6-15.43-3-3.2-6.17-6.3-9.32-9.39A12.93,12.93,0,0,0,91.31,0a112.38,112.38,0,0,0-26,4.83,7.21,7.21,0,0,0-4,2.65c-5.19,7.24-9.08,14.8-7.71,24.23C54.13,35.16,55.67,38.53,55.1,42Z"/><path class="cls-9" d="M195,516.17l2.51-3.81h2.89L197,516.17Zm2.57,1.39v18.85h-2.49V517.56Z"/><path class="cls-9" d="M204.17,525.4v11h-2.4v-14H204Zm-.57,3.48-1,0a8.38,8.38,0,0,1,.43-2.66,6.44,6.44,0,0,1,1.16-2.13,5.15,5.15,0,0,1,4.11-1.9,6,6,0,0,1,1.86.27,3.61,3.61,0,0,1,1.42.89,4.08,4.08,0,0,1,.9,1.57,8,8,0,0,1,.31,2.35v9.18h-2.41v-9.2a4.15,4.15,0,0,0-.32-1.77,2,2,0,0,0-.95-1,3.88,3.88,0,0,0-3.15.07,3.82,3.82,0,0,0-1.26,1,4.93,4.93,0,0,0-.81,1.5A5.39,5.39,0,0,0,203.6,528.88Z"/><path class="cls-9" d="M222.28,522.4v1.84H214.7V522.4Zm-5-3.4h2.39v13.94a2.1,2.1,0,0,0,.22,1.08,1.1,1.1,0,0,0,.57.48,2.56,2.56,0,0,0,.75.11,3.52,3.52,0,0,0,.63-.06l.5-.09v1.95a7.36,7.36,0,0,1-.74.18,7,7,0,0,1-1.11.08,3.77,3.77,0,0,1-1.62-.35,2.55,2.55,0,0,1-1.17-1.17,4.79,4.79,0,0,1-.43-2.22Z"/><path class="cls-9" d="M225.1,518.69a1.43,1.43,0,0,1,.35-1,1.56,1.56,0,0,1,2.11,0,1.36,1.36,0,0,1,.37,1,1.32,1.32,0,0,1-.37.95,1.59,1.59,0,0,1-2.11,0A1.39,1.39,0,0,1,225.1,518.69Zm2.59,3.71v14h-2.41v-14Z"/><path class="cls-9" d="M233.91,525.19v11.22h-2.4v-14h2.27Zm-.49,3.69-1.11,0a9.71,9.71,0,0,1,.37-2.66,6.29,6.29,0,0,1,1.08-2.13,4.8,4.8,0,0,1,1.77-1.41,6.33,6.33,0,0,1,4.27-.22,3.66,3.66,0,0,1,1.44.88,4,4,0,0,1,.95,1.53,6.76,6.76,0,0,1,.33,2.25v9.33h-2.39v-9.22a3.68,3.68,0,0,0-.37-1.76,2.2,2.2,0,0,0-1-1,3.87,3.87,0,0,0-1.58-.3,3.81,3.81,0,0,0-1.78.37,3.08,3.08,0,0,0-1.14,1,4.55,4.55,0,0,0-.61,1.5A8.08,8.08,0,0,0,233.42,528.88Zm9.08-1.32-1.61.49a7.07,7.07,0,0,1,.38-2.21,5.89,5.89,0,0,1,1.08-1.89,5.09,5.09,0,0,1,1.74-1.32,5.57,5.57,0,0,1,2.37-.48,6.43,6.43,0,0,1,2,.29,3.72,3.72,0,0,1,1.47.92,4,4,0,0,1,.92,1.57,7.66,7.66,0,0,1,.31,2.28v9.2h-2.41v-9.23a3.73,3.73,0,0,0-.37-1.83,2,2,0,0,0-1-.92,4.19,4.19,0,0,0-1.58-.26,3.43,3.43,0,0,0-1.4.27,3,3,0,0,0-1,.74,3.26,3.26,0,0,0-.63,1.08A4,4,0,0,0,242.5,527.56Z"/><path class="cls-9" d="M263.45,527.92l0,1.68h-2.42a10.05,10.05,0,0,0-1.83.16,4.21,4.21,0,0,0-1.34.49,2.31,2.31,0,0,0-.83.81,2.18,2.18,0,0,0-.29,1.13,2.43,2.43,0,0,0,.3,1.2,2.1,2.1,0,0,0,.9.87,3.18,3.18,0,0,0,1.48.31,4,4,0,0,0,1.95-.46,4.18,4.18,0,0,0,1.34-1.14,2.45,2.45,0,0,0,.53-1.31l1,1.15a3.5,3.5,0,0,1-.5,1.21,5.55,5.55,0,0,1-1.06,1.26,6,6,0,0,1-1.58,1,5.2,5.2,0,0,1-2.05.39,5.39,5.39,0,0,1-2.5-.56,4.19,4.19,0,0,1-1.65-1.49,3.84,3.84,0,0,1-.59-2.11,4.19,4.19,0,0,1,.44-2,3.73,3.73,0,0,1,1.27-1.44,6.15,6.15,0,0,1,2-.87,10.43,10.43,0,0,1,2.6-.3ZM263,534v-7.21a3,3,0,0,0-.33-1.45,2.28,2.28,0,0,0-1-1,3.61,3.61,0,0,0-1.63-.34,3.76,3.76,0,0,0-1.59.32,2.66,2.66,0,0,0-1.06.81,1.81,1.81,0,0,0-.38,1.09h-2.4a3.16,3.16,0,0,1,.39-1.49,4.53,4.53,0,0,1,1.12-1.34,5.83,5.83,0,0,1,1.76-1,7,7,0,0,1,2.3-.35,6.7,6.7,0,0,1,2.7.51,4.19,4.19,0,0,1,1.84,1.56,4.82,4.82,0,0,1,.67,2.61v6.53a9.82,9.82,0,0,0,.12,1.48,5.25,5.25,0,0,0,.37,1.36v.21h-2.5a4.51,4.51,0,0,1-.29-1.11A8.54,8.54,0,0,1,263,534Z"/><path class="cls-9" d="M199.5,496.8v10.52h-1.33v-8.86l-2.68,1v-1.2l3.8-1.44Z"/><path class="cls-9" d="M205.08,502.34l-1.06-.27.52-5.21h5.37v1.23h-4.24l-.31,2.84a4,4,0,0,1,.73-.31,3.42,3.42,0,0,1,1-.14,3.14,3.14,0,0,1,1.3.25,2.58,2.58,0,0,1,1,.71,3,3,0,0,1,.62,1.1,4.37,4.37,0,0,1,.22,1.45,4.65,4.65,0,0,1-.2,1.38,3.21,3.21,0,0,1-.62,1.1,2.65,2.65,0,0,1-1,.73,3.63,3.63,0,0,1-1.46.26,4.3,4.3,0,0,1-1.2-.17,3,3,0,0,1-1-.54,2.69,2.69,0,0,1-.72-.91,3.44,3.44,0,0,1-.35-1.27h1.26a2.58,2.58,0,0,0,.35,1,1.67,1.67,0,0,0,.68.61,2.28,2.28,0,0,0,1,.2,2.06,2.06,0,0,0,.84-.16,1.82,1.82,0,0,0,.62-.48,2.2,2.2,0,0,0,.38-.75,3.32,3.32,0,0,0,.13-1,3,3,0,0,0-.13-.92,2.14,2.14,0,0,0-.41-.74,1.9,1.9,0,0,0-.66-.49,2,2,0,0,0-.89-.18,2.25,2.25,0,0,0-1,.18A3.91,3.91,0,0,0,205.08,502.34Z"/><path class="cls-9" d="M216.06,499.55l2,6,.34,1.4-.95.49-2.86-7.92Zm1.59,7,2.16-7h1.42l-3.12,9a4.64,4.64,0,0,1-.28.62,3.73,3.73,0,0,1-.45.64,2.19,2.19,0,0,1-.66.49,2.11,2.11,0,0,1-.91.19,2.28,2.28,0,0,1-.4,0,2.08,2.08,0,0,1-.35-.07v-1.08l.19,0h.17a2.18,2.18,0,0,0,.77-.12,1.14,1.14,0,0,0,.54-.39,2.45,2.45,0,0,0,.37-.76Z"/><path class="cls-9" d="M233,503.8v1.09h-7.56v-.78l4.69-7.25h1.08l-1.16,2.1L227,503.8Zm-1.46-6.94v10.46h-1.33V496.86Z"/><path class="cls-9" d="M235.88,502.34l-1.06-.27.52-5.21h5.37v1.23h-4.24l-.32,2.84a4.32,4.32,0,0,1,.73-.31,3.49,3.49,0,0,1,1-.14,3.21,3.21,0,0,1,1.3.25,2.66,2.66,0,0,1,1,.71,3,3,0,0,1,.62,1.1A4.66,4.66,0,0,1,241,504a4.34,4.34,0,0,1-.2,1.38,3.19,3.19,0,0,1-.61,1.1,2.73,2.73,0,0,1-1,.73,3.71,3.71,0,0,1-1.47.26,4.17,4.17,0,0,1-1.19-.17,3.07,3.07,0,0,1-1-.54,3,3,0,0,1-.72-.91,3.44,3.44,0,0,1-.34-1.27h1.26a2.57,2.57,0,0,0,.34,1,1.73,1.73,0,0,0,.68.61,2.32,2.32,0,0,0,1,.2,2,2,0,0,0,.84-.16,1.73,1.73,0,0,0,.62-.48,2.05,2.05,0,0,0,.39-.75,3.69,3.69,0,0,0,.13-1,3,3,0,0,0-.14-.92,2.12,2.12,0,0,0-.4-.74,1.9,1.9,0,0,0-.66-.49,2.11,2.11,0,0,0-.89-.18,2.22,2.22,0,0,0-1,.18A3.58,3.58,0,0,0,235.88,502.34Z"/><path class="cls-9" d="M249.37,506.37a2,2,0,0,0,.88-.19,1.92,1.92,0,0,0,.66-.54,1.46,1.46,0,0,0,.29-.78h1.26a2.27,2.27,0,0,1-.46,1.28,3.08,3.08,0,0,1-1.12,1,3.21,3.21,0,0,1-1.51.36,3.48,3.48,0,0,1-1.53-.31,3,3,0,0,1-1.08-.84,3.82,3.82,0,0,1-.63-1.24,4.84,4.84,0,0,1-.22-1.49v-.3a4.78,4.78,0,0,1,.22-1.48,3.72,3.72,0,0,1,.63-1.24,3.12,3.12,0,0,1,1.08-.85,3.63,3.63,0,0,1,1.53-.31,3.33,3.33,0,0,1,1.59.37,2.77,2.77,0,0,1,1.08,1,2.89,2.89,0,0,1,.42,1.44H251.2a1.85,1.85,0,0,0-.27-.87,1.7,1.7,0,0,0-.63-.62,1.79,1.79,0,0,0-.93-.24,2,2,0,0,0-1,.24,1.87,1.87,0,0,0-.66.65,3,3,0,0,0-.34.9,4.79,4.79,0,0,0-.11,1v.3a5.67,5.67,0,0,0,.1,1,3,3,0,0,0,.34.9,1.76,1.76,0,0,0,.66.64A2,2,0,0,0,249.37,506.37Z"/><path class="cls-9" d="M255.28,501.09v6.23h-1.34v-7.77h1.27Zm-.27,2.05-.62,0a5,5,0,0,1,.21-1.48,3.44,3.44,0,0,1,.59-1.18,2.69,2.69,0,0,1,1-.78,3.09,3.09,0,0,1,1.36-.28,3,3,0,0,1,1,.16,2,2,0,0,1,.8.48,2.26,2.26,0,0,1,.52.85,3.54,3.54,0,0,1,.19,1.25v5.18h-1.33V502.2a1.94,1.94,0,0,0-.21-1,1.19,1.19,0,0,0-.57-.54,2.19,2.19,0,0,0-.88-.17,2.06,2.06,0,0,0-1,.21,1.63,1.63,0,0,0-.64.58,2.46,2.46,0,0,0-.34.83A4.65,4.65,0,0,0,255,503.14Zm5-.73-.89.27a4.17,4.17,0,0,1,.21-1.23,3.42,3.42,0,0,1,.6-1.05,2.73,2.73,0,0,1,1-.73,3,3,0,0,1,1.31-.27,3.41,3.41,0,0,1,1.11.17,2.13,2.13,0,0,1,.82.5,2.3,2.3,0,0,1,.51.88,4.22,4.22,0,0,1,.17,1.26v5.11h-1.34V502.2a2.17,2.17,0,0,0-.2-1,1.15,1.15,0,0,0-.58-.51,2.31,2.31,0,0,0-.88-.15,1.86,1.86,0,0,0-.77.15,1.51,1.51,0,0,0-.57.42,1.79,1.79,0,0,0-.35.6A2.09,2.09,0,0,0,260,502.41Z"/><path class="cls-9" d="M431.45,377.35v1.1h-7.56v-.79l4.68-7.25h1.09l-1.16,2.1-3.1,4.84ZM430,370.41v10.46h-1.33V370.41Z"/><path class="cls-9" d="M437.75,370.4h.11v1.13h-.11a4,4,0,0,0-1.77.34,3,3,0,0,0-1.13.91,3.67,3.67,0,0,0-.6,1.28,5.94,5.94,0,0,0-.18,1.45V377a4.24,4.24,0,0,0,.16,1.24,2.93,2.93,0,0,0,.46.9,2,2,0,0,0,.65.55,1.56,1.56,0,0,0,.76.19,1.79,1.79,0,0,0,.81-.18,1.72,1.72,0,0,0,.61-.49,2.36,2.36,0,0,0,.38-.76,3.59,3.59,0,0,0,.13-1,3.44,3.44,0,0,0-.12-.91,2.25,2.25,0,0,0-.35-.77,1.78,1.78,0,0,0-.59-.54,1.75,1.75,0,0,0-.85-.2,2.06,2.06,0,0,0-1,.27,2.32,2.32,0,0,0-.78.71,1.93,1.93,0,0,0-.35.94h-.7a4.35,4.35,0,0,1,.37-1.37,3.23,3.23,0,0,1,.69-.94,2.7,2.7,0,0,1,.93-.53,3.55,3.55,0,0,1,1.09-.17,2.86,2.86,0,0,1,1.35.3,2.63,2.63,0,0,1,.93.78,3.39,3.39,0,0,1,.55,1.11,4.85,4.85,0,0,1,.17,1.26,4.5,4.5,0,0,1-.21,1.39,3.18,3.18,0,0,1-.62,1.13,2.73,2.73,0,0,1-1,.76,3.27,3.27,0,0,1-1.4.28,3,3,0,0,1-1.48-.35,3,3,0,0,1-1.05-.93,4.3,4.3,0,0,1-.63-1.29,5.14,5.14,0,0,1-.21-1.45v-.62a10.45,10.45,0,0,1,.23-2.17,5.55,5.55,0,0,1,.77-1.93,3.89,3.89,0,0,1,1.52-1.37A5.42,5.42,0,0,1,437.75,370.4Z"/><path class="cls-9" d="M445.3,373.1l2,6,.35,1.41-1,.48-2.86-7.92Zm1.59,7,2.16-7h1.43l-3.12,9a4.79,4.79,0,0,1-.29.62,2.71,2.71,0,0,1-.44.64,2.27,2.27,0,0,1-.66.49,2,2,0,0,1-.92.19,2.23,2.23,0,0,1-.4,0l-.34-.07v-1.08l.18,0h.18a2.18,2.18,0,0,0,.77-.12,1.26,1.26,0,0,0,.53-.39,2.56,2.56,0,0,0,.38-.76Z"/><path class="cls-9" d="M459.54,370.36v10.51h-1.33V372l-2.68,1v-1.2l3.8-1.43Z"/><path class="cls-9" d="M470.29,379.78v1.09h-6.84v-.95l3.43-3.82c.42-.47.74-.86,1-1.19a3.59,3.59,0,0,0,.48-.89,2.18,2.18,0,0,0,.14-.8,2.05,2.05,0,0,0-.21-.93,1.69,1.69,0,0,0-.62-.68,1.91,1.91,0,0,0-1-.25,2.29,2.29,0,0,0-1.16.27,1.67,1.67,0,0,0-.69.75,2.45,2.45,0,0,0-.23,1.11h-1.33a3.4,3.4,0,0,1,.39-1.62,2.79,2.79,0,0,1,1.15-1.16,3.7,3.7,0,0,1,1.87-.44,3.85,3.85,0,0,1,1.7.35,2.57,2.57,0,0,1,1.08,1,2.78,2.78,0,0,1,.37,1.46,3.13,3.13,0,0,1-.15.94,4.77,4.77,0,0,1-.42.93,7.52,7.52,0,0,1-.63.92c-.24.3-.49.6-.76.89l-2.8,3Z"/><path class="cls-9" d="M478.27,374.81v1.6a8.86,8.86,0,0,1-.22,2.16,3.88,3.88,0,0,1-.67,1.43,2.44,2.44,0,0,1-1,.78A3.72,3.72,0,0,1,475,381a4,4,0,0,1-1.12-.15,2.59,2.59,0,0,1-.91-.49,2.77,2.77,0,0,1-.69-.87,4.48,4.48,0,0,1-.44-1.31,9.43,9.43,0,0,1-.15-1.79v-1.6a8.17,8.17,0,0,1,.23-2.15,3.88,3.88,0,0,1,.66-1.4,2.48,2.48,0,0,1,1-.76,3.92,3.92,0,0,1,1.36-.23,4,4,0,0,1,1.13.15,2.61,2.61,0,0,1,.91.46,2.8,2.8,0,0,1,.69.85,4.54,4.54,0,0,1,.43,1.29A9.43,9.43,0,0,1,478.27,374.81Zm-1.33,1.81v-2a9,9,0,0,0-.08-1.24,4.7,4.7,0,0,0-.24-.92,2,2,0,0,0-.4-.62,1.53,1.53,0,0,0-.56-.34,2.21,2.21,0,0,0-1.54.06,1.48,1.48,0,0,0-.61.56,2.82,2.82,0,0,0-.38,1,7.89,7.89,0,0,0-.13,1.5v2a7.58,7.58,0,0,0,.09,1.24,3.7,3.7,0,0,0,.24.93,2.19,2.19,0,0,0,.41.65,1.53,1.53,0,0,0,.54.37,1.94,1.94,0,0,0,.7.11,1.9,1.9,0,0,0,.85-.18,1.59,1.59,0,0,0,.62-.59,3,3,0,0,0,.37-1A8.17,8.17,0,0,0,476.94,376.62Z"/><path class="cls-9" d="M486.88,379.92a2,2,0,0,0,.88-.19,1.82,1.82,0,0,0,.66-.53,1.46,1.46,0,0,0,.29-.78H490a2.39,2.39,0,0,1-.47,1.28,3.25,3.25,0,0,1-2.63,1.32,3.66,3.66,0,0,1-1.53-.31,3,3,0,0,1-1.07-.85,3.57,3.57,0,0,1-.64-1.24,5.14,5.14,0,0,1-.21-1.48v-.3a5.16,5.16,0,0,1,.21-1.49,3.66,3.66,0,0,1,.64-1.24,2.86,2.86,0,0,1,1.07-.84,3.51,3.51,0,0,1,1.53-.31,3.29,3.29,0,0,1,1.6.37,2.79,2.79,0,0,1,1.07,1,3.07,3.07,0,0,1,.43,1.44h-1.27a1.85,1.85,0,0,0-.27-.87,1.78,1.78,0,0,0-.63-.62,1.83,1.83,0,0,0-.93-.23,2,2,0,0,0-1,.24,1.79,1.79,0,0,0-.66.65,3,3,0,0,0-.34.89,4.88,4.88,0,0,0-.11,1v.3a4.79,4.79,0,0,0,.11,1,2.71,2.71,0,0,0,.34.9,1.74,1.74,0,0,0,.65.64A2,2,0,0,0,486.88,379.92Z"/><path class="cls-9" d="M492.79,374.65v6.22h-1.33V373.1h1.26Zm-.27,2-.62,0a5.81,5.81,0,0,1,.21-1.48,3.38,3.38,0,0,1,.6-1.18,2.78,2.78,0,0,1,1-.78,3.52,3.52,0,0,1,2.37-.12,2.19,2.19,0,0,1,.8.49,2.22,2.22,0,0,1,.52.84,3.61,3.61,0,0,1,.19,1.25v5.18h-1.33v-5.11a2.1,2.1,0,0,0-.2-1,1.24,1.24,0,0,0-.58-.53,2,2,0,0,0-.88-.17,2.06,2.06,0,0,0-1,.21,1.61,1.61,0,0,0-.64.57,2.64,2.64,0,0,0-.34.84A4.49,4.49,0,0,0,492.52,376.69Zm5-.73-.9.27a4,4,0,0,1,.22-1.23,3.06,3.06,0,0,1,.59-1,2.82,2.82,0,0,1,1-.73,3,3,0,0,1,1.31-.27,3.42,3.42,0,0,1,1.11.16,2,2,0,0,1,.82.51,2.33,2.33,0,0,1,.51.87,4.34,4.34,0,0,1,.17,1.27v5.1H501v-5.12a2,2,0,0,0-.2-1,1.15,1.15,0,0,0-.57-.52,2.58,2.58,0,0,0-.88-.14,1.87,1.87,0,0,0-.78.15,1.7,1.7,0,0,0-.57.41,2,2,0,0,0-.35.6A2.17,2.17,0,0,0,497.56,376Z"/><path class="cls-9" d="M649.91,225.78V236.3h-1.33v-8.86l-2.68,1v-1.2l3.8-1.44Z"/><path class="cls-9" d="M660.66,235.2v1.1h-6.84v-1l3.42-3.81a11.92,11.92,0,0,0,1-1.2,3.47,3.47,0,0,0,.49-.88,2.21,2.21,0,0,0,.14-.8,2.06,2.06,0,0,0-.21-.94A1.6,1.6,0,0,0,658,227a1.82,1.82,0,0,0-1-.25,2.37,2.37,0,0,0-1.16.26,1.72,1.72,0,0,0-.7.76,2.57,2.57,0,0,0-.23,1.1h-1.32a3.44,3.44,0,0,1,.38-1.61,2.94,2.94,0,0,1,1.15-1.17,3.76,3.76,0,0,1,1.88-.44,3.8,3.8,0,0,1,1.69.35,2.51,2.51,0,0,1,1.08,1,2.73,2.73,0,0,1,.38,1.47,3.11,3.11,0,0,1-.15.93,6,6,0,0,1-.43.94,7.33,7.33,0,0,1-.62.91c-.24.31-.49.6-.76.9l-2.8,3Z"/><path class="cls-9" d="M668.64,230.23v1.6a8.43,8.43,0,0,1-.23,2.17,3.67,3.67,0,0,1-.66,1.42,2.41,2.41,0,0,1-1,.78,3.66,3.66,0,0,1-1.36.24,3.94,3.94,0,0,1-1.12-.15,2.44,2.44,0,0,1-.91-.49,2.94,2.94,0,0,1-.7-.87,4.68,4.68,0,0,1-.43-1.31,9.43,9.43,0,0,1-.15-1.79v-1.6a8.27,8.27,0,0,1,.23-2.15,3.72,3.72,0,0,1,.66-1.4,2.57,2.57,0,0,1,1-.76,3.92,3.92,0,0,1,1.36-.23,4.06,4.06,0,0,1,1.13.15,2.55,2.55,0,0,1,.91.47,2.57,2.57,0,0,1,.69.85,4.57,4.57,0,0,1,.43,1.28A9.43,9.43,0,0,1,668.64,230.23ZM667.31,232v-2a9,9,0,0,0-.08-1.24,4,4,0,0,0-.25-.91,1.73,1.73,0,0,0-.39-.62,1.43,1.43,0,0,0-.56-.35,2.19,2.19,0,0,0-.7-.11,2.07,2.07,0,0,0-.84.17,1.55,1.55,0,0,0-.61.56,2.9,2.9,0,0,0-.38,1,7.15,7.15,0,0,0-.13,1.5v2a9.16,9.16,0,0,0,.08,1.25,4.16,4.16,0,0,0,.25.93,2.33,2.33,0,0,0,.4.64,1.45,1.45,0,0,0,.55.37,1.94,1.94,0,0,0,.7.12,1.78,1.78,0,0,0,.85-.19,1.56,1.56,0,0,0,.62-.58,3.42,3.42,0,0,0,.37-1A8.17,8.17,0,0,0,667.31,232Z"/><path class="cls-9" d="M674.73,228.52l2,6,.35,1.4-1,.49-2.86-7.93Zm1.59,7,2.16-7h1.43l-3.12,9c-.07.19-.17.39-.28.62a3.32,3.32,0,0,1-.45.63,2.35,2.35,0,0,1-.66.5,2.16,2.16,0,0,1-.92.18,2.23,2.23,0,0,1-.4,0l-.34-.07v-1.08l.18,0h.18a2.18,2.18,0,0,0,.77-.12,1.21,1.21,0,0,0,.53-.39,2.56,2.56,0,0,0,.38-.76Z"/><path class="cls-9" d="M640.66,249.16v-.8h1.14a4.88,4.88,0,0,1,1.65.24,2.73,2.73,0,0,1,1,.63,2.2,2.2,0,0,1,.53.87,3,3,0,0,1,.16.93,3.28,3.28,0,0,1-.25,1.3,2.84,2.84,0,0,1-.7,1,3,3,0,0,1-1.05.59,4,4,0,0,1-1.32.2,4.13,4.13,0,0,1-1.28-.19,3.46,3.46,0,0,1-1.06-.56,2.64,2.64,0,0,1-1-2.16h1.32a1.85,1.85,0,0,0,.24,1,1.68,1.68,0,0,0,.69.63,2.24,2.24,0,0,0,1.06.23,2.47,2.47,0,0,0,1.06-.21,1.56,1.56,0,0,0,.68-.64,2.23,2.23,0,0,0,.24-1.09,2,2,0,0,0-.27-1.07,1.69,1.69,0,0,0-.78-.63,3.18,3.18,0,0,0-1.17-.2Zm0-1.09h1a2.45,2.45,0,0,0,1.15-.24,1.51,1.51,0,0,0,.68-.64,1.74,1.74,0,0,0,.23-.91,2.41,2.41,0,0,0-.2-1,1.36,1.36,0,0,0-.6-.61,2.2,2.2,0,0,0-1-.21,2.07,2.07,0,0,0-1,.22,1.55,1.55,0,0,0-.67.62,1.81,1.81,0,0,0-.24.95h-1.33a2.77,2.77,0,0,1,.4-1.45,2.94,2.94,0,0,1,1.13-1.05,3.67,3.67,0,0,1,1.7-.38,3.93,3.93,0,0,1,1.66.33,2.46,2.46,0,0,1,1.1,1,3.09,3.09,0,0,1,.4,1.64,2.11,2.11,0,0,1-.19.84,2.63,2.63,0,0,1-.56.84,2.85,2.85,0,0,1-1,.63,3.78,3.78,0,0,1-1.46.25h-1.14Z"/><path class="cls-9" d="M652.09,243.48h.12v1.12h-.12a4.07,4.07,0,0,0-1.77.35,2.92,2.92,0,0,0-1.13.91,3.84,3.84,0,0,0-.59,1.28,5.37,5.37,0,0,0-.19,1.44v1.54a4.11,4.11,0,0,0,.17,1.23,2.71,2.71,0,0,0,.45.9,2,2,0,0,0,.65.56,1.67,1.67,0,0,0,.76.18,1.83,1.83,0,0,0,.82-.17,1.61,1.61,0,0,0,.6-.5,2.17,2.17,0,0,0,.38-.76,3.23,3.23,0,0,0,.13-1,3.82,3.82,0,0,0-.11-.9,2.53,2.53,0,0,0-.36-.78,1.67,1.67,0,0,0-.59-.53,1.63,1.63,0,0,0-.84-.2,2,2,0,0,0-1,.27,2.42,2.42,0,0,0-.79.7,2,2,0,0,0-.35,1h-.7a4.33,4.33,0,0,1,.38-1.38,2.76,2.76,0,0,1,.69-.93,2.57,2.57,0,0,1,.92-.53,3.6,3.6,0,0,1,1.09-.17,3,3,0,0,1,1.35.29,2.78,2.78,0,0,1,.94.79,3.58,3.58,0,0,1,.54,1.11,4.81,4.81,0,0,1,0,2.64,3.5,3.5,0,0,1-.62,1.14,3,3,0,0,1-1,.76,3.4,3.4,0,0,1-1.4.27,2.92,2.92,0,0,1-1.48-.35,3.12,3.12,0,0,1-1.05-.93,4.08,4.08,0,0,1-.63-1.29,5.38,5.38,0,0,1-.2-1.44v-.63a10.51,10.51,0,0,1,.22-2.17,5.61,5.61,0,0,1,.77-1.92A3.91,3.91,0,0,1,649.6,244,5.35,5.35,0,0,1,652.09,243.48Z"/><path class="cls-9" d="M661.82,247.89v1.59a8.43,8.43,0,0,1-.23,2.17,3.67,3.67,0,0,1-.66,1.42,2.41,2.41,0,0,1-1,.78,3.66,3.66,0,0,1-1.36.24,3.94,3.94,0,0,1-1.12-.15,2.57,2.57,0,0,1-.91-.48,3.13,3.13,0,0,1-.7-.88,4.61,4.61,0,0,1-.43-1.3,9.47,9.47,0,0,1-.16-1.8v-1.59a8.26,8.26,0,0,1,.24-2.16,3.8,3.8,0,0,1,.66-1.4,2.46,2.46,0,0,1,1-.75,3.7,3.7,0,0,1,1.36-.23,4.48,4.48,0,0,1,1.13.14,2.72,2.72,0,0,1,.91.47,2.68,2.68,0,0,1,.69.85,4.54,4.54,0,0,1,.43,1.29A9.35,9.35,0,0,1,661.82,247.89Zm-1.33,1.81v-2a7.58,7.58,0,0,0-.09-1.24,3.54,3.54,0,0,0-.24-.91,1.83,1.83,0,0,0-.39-.62,1.56,1.56,0,0,0-.56-.35,2.19,2.19,0,0,0-.7-.11,1.92,1.92,0,0,0-.84.18,1.46,1.46,0,0,0-.61.55,3,3,0,0,0-.38,1,7.21,7.21,0,0,0-.13,1.5v2a9,9,0,0,0,.08,1.24,4.16,4.16,0,0,0,.25.93,2.33,2.33,0,0,0,.4.64,1.45,1.45,0,0,0,.55.37,1.94,1.94,0,0,0,.7.12,1.78,1.78,0,0,0,.85-.19,1.56,1.56,0,0,0,.62-.58,3.42,3.42,0,0,0,.37-1A8.13,8.13,0,0,0,660.49,249.7Z"/><path class="cls-9" d="M670.43,253a2,2,0,0,0,.88-.19,1.92,1.92,0,0,0,.66-.54,1.4,1.4,0,0,0,.29-.78h1.26a2.27,2.27,0,0,1-.46,1.28,3.08,3.08,0,0,1-1.12,1,3.21,3.21,0,0,1-1.51.36,3.48,3.48,0,0,1-1.53-.31,3,3,0,0,1-1.08-.84,3.82,3.82,0,0,1-.63-1.24,4.84,4.84,0,0,1-.22-1.49v-.3a4.82,4.82,0,0,1,.22-1.48,3.72,3.72,0,0,1,.63-1.24,3.12,3.12,0,0,1,1.08-.85,3.63,3.63,0,0,1,1.53-.31,3.33,3.33,0,0,1,1.59.37,2.84,2.84,0,0,1,1.08,1,2.89,2.89,0,0,1,.42,1.44h-1.26A1.85,1.85,0,0,0,672,248a1.63,1.63,0,0,0-.63-.62,1.78,1.78,0,0,0-.93-.23,2,2,0,0,0-1,.24,1.76,1.76,0,0,0-.66.64,3,3,0,0,0-.34.9,4.79,4.79,0,0,0-.11,1v.3a5.67,5.67,0,0,0,.1,1,3,3,0,0,0,.34.9,1.76,1.76,0,0,0,.66.64A2,2,0,0,0,670.43,253Z"/><path class="cls-9" d="M676.34,247.72V254H675v-7.77h1.27Zm-.27,2.05-.62,0a5.34,5.34,0,0,1,.21-1.48,3.44,3.44,0,0,1,.59-1.18,2.69,2.69,0,0,1,1-.78,3.37,3.37,0,0,1,2.37-.12,2,2,0,0,1,.8.48,2.26,2.26,0,0,1,.52.85,3.57,3.57,0,0,1,.19,1.25V254h-1.33v-5.11a2,2,0,0,0-.21-1,1.24,1.24,0,0,0-.57-.54,2.19,2.19,0,0,0-.88-.17,2.06,2.06,0,0,0-1,.21,1.63,1.63,0,0,0-.64.58,2.68,2.68,0,0,0-.34.83A4.65,4.65,0,0,0,676.07,249.77Zm5-.73-.89.27a4.17,4.17,0,0,1,.21-1.23A3.42,3.42,0,0,1,681,247a2.85,2.85,0,0,1,1-.73,3,3,0,0,1,1.31-.27,3.41,3.41,0,0,1,1.11.17,2,2,0,0,1,.82.51,2.18,2.18,0,0,1,.51.87,4.22,4.22,0,0,1,.17,1.26V254h-1.34v-5.12a2.17,2.17,0,0,0-.2-1,1.15,1.15,0,0,0-.58-.51,2.31,2.31,0,0,0-.88-.15,1.86,1.86,0,0,0-.77.15,1.63,1.63,0,0,0-.57.42,1.79,1.79,0,0,0-.35.6A2.09,2.09,0,0,0,681.1,249Z"/><path class="cls-9" d="M794.36,160.87v-.8h1.14a4.88,4.88,0,0,1,1.65.24,2.66,2.66,0,0,1,1,.63,2.27,2.27,0,0,1,.53.87,3,3,0,0,1,.16.94,3.35,3.35,0,0,1-.25,1.3,2.9,2.9,0,0,1-.7,1,3,3,0,0,1-1,.59,4,4,0,0,1-1.32.2,4.13,4.13,0,0,1-1.28-.19,3.46,3.46,0,0,1-1.06-.56,2.73,2.73,0,0,1-.72-.92,2.85,2.85,0,0,1-.25-1.23h1.32a1.84,1.84,0,0,0,.25.95,1.65,1.65,0,0,0,.69.64,2.29,2.29,0,0,0,1,.22,2.47,2.47,0,0,0,1.06-.21,1.5,1.5,0,0,0,.68-.64,2.23,2.23,0,0,0,.24-1.09,2,2,0,0,0-.27-1.07,1.64,1.64,0,0,0-.78-.63,3.18,3.18,0,0,0-1.17-.2Zm0-1.09h.95a2.59,2.59,0,0,0,1.15-.23,1.59,1.59,0,0,0,.69-.64,1.9,1.9,0,0,0,.22-.92,2.19,2.19,0,0,0-.2-1,1.29,1.29,0,0,0-.6-.62,2.2,2.2,0,0,0-1-.21,2.07,2.07,0,0,0-1,.22,1.61,1.61,0,0,0-.67.62,1.84,1.84,0,0,0-.24.95h-1.33a2.77,2.77,0,0,1,.4-1.45,2.87,2.87,0,0,1,1.14-1,3.51,3.51,0,0,1,1.69-.39,3.93,3.93,0,0,1,1.66.33,2.58,2.58,0,0,1,1.1,1,3.09,3.09,0,0,1,.4,1.64,2.11,2.11,0,0,1-.19.84,2.63,2.63,0,0,1-.56.84,3,3,0,0,1-1,.64,4,4,0,0,1-1.46.24h-1.14Z"/><path class="cls-9" d="M805.79,155.19h.12v1.13h-.12a4.08,4.08,0,0,0-1.77.34,2.82,2.82,0,0,0-1.12.91,3.67,3.67,0,0,0-.6,1.28,5.5,5.5,0,0,0-.19,1.45v1.53a4.11,4.11,0,0,0,.17,1.23,2.87,2.87,0,0,0,.45.91,2.1,2.1,0,0,0,.65.55,1.71,1.71,0,0,0,.76.19,1.8,1.8,0,0,0,.82-.18,1.61,1.61,0,0,0,.6-.5,2,2,0,0,0,.38-.75,3.35,3.35,0,0,0,.13-1,3.82,3.82,0,0,0-.11-.9,2.38,2.38,0,0,0-.36-.77,1.61,1.61,0,0,0-.59-.54,1.74,1.74,0,0,0-.84-.2,2.06,2.06,0,0,0-1,.27,2.42,2.42,0,0,0-.79.7,1.86,1.86,0,0,0-.34.95h-.71a4.27,4.27,0,0,1,.38-1.37,2.7,2.7,0,0,1,.69-.94,2.57,2.57,0,0,1,.92-.53,3.6,3.6,0,0,1,1.09-.17,2.81,2.81,0,0,1,1.35.3,2.64,2.64,0,0,1,.94.78,3.58,3.58,0,0,1,.54,1.11,4.46,4.46,0,0,1,.18,1.26,4.54,4.54,0,0,1-.21,1.39,3.45,3.45,0,0,1-.62,1.13,2.85,2.85,0,0,1-1,.76,3.4,3.4,0,0,1-1.4.27,3,3,0,0,1-1.48-.34,3.36,3.36,0,0,1-1-.93,4,4,0,0,1-.62-1.3,5,5,0,0,1-.21-1.44v-.63A10.35,10.35,0,0,1,801,159a5.87,5.87,0,0,1,.77-1.93,4,4,0,0,1,1.53-1.37A5.35,5.35,0,0,1,805.79,155.19Z"/><path class="cls-9" d="M815.52,159.6v1.59a8.43,8.43,0,0,1-.23,2.17,3.72,3.72,0,0,1-.66,1.43,2.5,2.5,0,0,1-1,.77,3.75,3.75,0,0,1-1.37.24,3.66,3.66,0,0,1-1.12-.15,2.57,2.57,0,0,1-.91-.48,2.94,2.94,0,0,1-.7-.87,4.8,4.8,0,0,1-.43-1.31,9.46,9.46,0,0,1-.15-1.8V159.6a8.3,8.3,0,0,1,.23-2.16,3.83,3.83,0,0,1,.66-1.39,2.4,2.4,0,0,1,1-.76,3.7,3.7,0,0,1,1.36-.23,4.06,4.06,0,0,1,1.13.15,2.53,2.53,0,0,1,.91.46,2.8,2.8,0,0,1,.69.85,4.54,4.54,0,0,1,.43,1.29A9.35,9.35,0,0,1,815.52,159.6Zm-1.33,1.81v-2a8.9,8.9,0,0,0-.08-1.24,4.52,4.52,0,0,0-.24-.92,2,2,0,0,0-.4-.62,1.53,1.53,0,0,0-.56-.34,2.07,2.07,0,0,0-1.54.06,1.48,1.48,0,0,0-.61.56,2.84,2.84,0,0,0-.38,1,7.32,7.32,0,0,0-.13,1.51v2a9,9,0,0,0,.08,1.24,4.16,4.16,0,0,0,.25.93,2.19,2.19,0,0,0,.4.64,1.41,1.41,0,0,0,.55.37,1.94,1.94,0,0,0,.7.12,1.9,1.9,0,0,0,.85-.18,1.59,1.59,0,0,0,.62-.59,3.42,3.42,0,0,0,.37-1A8.13,8.13,0,0,0,814.19,161.41Z"/><path class="cls-9" d="M824.13,164.71a2,2,0,0,0,.88-.19,1.83,1.83,0,0,0,.66-.54,1.4,1.4,0,0,0,.29-.78h1.27a2.42,2.42,0,0,1-.47,1.29,3.12,3.12,0,0,1-1.11.95,3.25,3.25,0,0,1-1.52.36,3.66,3.66,0,0,1-1.53-.3,3,3,0,0,1-1.07-.85,3.57,3.57,0,0,1-.64-1.24,5.14,5.14,0,0,1-.22-1.48v-.31a5.14,5.14,0,0,1,.22-1.48,3.57,3.57,0,0,1,.64-1.24,3,3,0,0,1,1.07-.85,3.66,3.66,0,0,1,1.53-.3,3.22,3.22,0,0,1,1.59.37,2.74,2.74,0,0,1,1.08,1,3,3,0,0,1,.43,1.44H826a1.85,1.85,0,0,0-.27-.87,1.7,1.7,0,0,0-.63-.62,1.89,1.89,0,0,0-.93-.23,2,2,0,0,0-1,.24,1.76,1.76,0,0,0-.66.64,3,3,0,0,0-.34.9,4.79,4.79,0,0,0-.11,1v.31a5.56,5.56,0,0,0,.1,1,3,3,0,0,0,.35.9,1.74,1.74,0,0,0,.65.64A2,2,0,0,0,824.13,164.71Z"/><path class="cls-9" d="M830,159.43v6.23h-1.33v-7.77H830Zm-.27,2-.62,0a5.81,5.81,0,0,1,.21-1.48,3.38,3.38,0,0,1,.6-1.18,2.78,2.78,0,0,1,1-.78,3.52,3.52,0,0,1,2.37-.12,2,2,0,0,1,.8.48,2.26,2.26,0,0,1,.52.85,3.57,3.57,0,0,1,.19,1.25v5.18h-1.33v-5.11a2.07,2.07,0,0,0-.2-1,1.32,1.32,0,0,0-.58-.54,2.16,2.16,0,0,0-.88-.16,2.19,2.19,0,0,0-1,.2,1.63,1.63,0,0,0-.64.58,2.64,2.64,0,0,0-.34.84A4.49,4.49,0,0,0,829.77,161.48Zm5-.73-.89.27a3.93,3.93,0,0,1,.22-1.23,3.2,3.2,0,0,1,.59-1,3,3,0,0,1,1-.73,3.19,3.19,0,0,1,1.31-.26,3.42,3.42,0,0,1,1.11.16,2,2,0,0,1,.82.51,2.25,2.25,0,0,1,.51.87,4.27,4.27,0,0,1,.17,1.26v5.11h-1.34v-5.12a2.05,2.05,0,0,0-.2-1,1.15,1.15,0,0,0-.58-.51,2.54,2.54,0,0,0-.88-.14,1.86,1.86,0,0,0-.77.15,1.61,1.61,0,0,0-.57.41,1.79,1.79,0,0,0-.35.6A2.13,2.13,0,0,0,834.8,160.75Z"/><path class="cls-9" d="M420.54,402.71h-5v-2h5a5.16,5.16,0,0,0,2.36-.47,2.92,2.92,0,0,0,1.33-1.29,4.17,4.17,0,0,0,.42-1.89,4.1,4.1,0,0,0-.42-1.83,3.21,3.21,0,0,0-1.33-1.38,4.66,4.66,0,0,0-2.36-.52h-4.46v16.8h-2.5V391.25h7a8.06,8.06,0,0,1,3.61.74,5.23,5.23,0,0,1,2.24,2,5.76,5.76,0,0,1,.76,3,5.9,5.9,0,0,1-.76,3.09,4.82,4.82,0,0,1-2.24,2A8.68,8.68,0,0,1,420.54,402.71Z"/><path class="cls-9" d="M435.76,410.36a6.8,6.8,0,0,1-2.65-.5,5.81,5.81,0,0,1-2-1.4,6.16,6.16,0,0,1-1.3-2.15,8,8,0,0,1-.46-2.72v-.54a8.52,8.52,0,0,1,.51-3.05,6.75,6.75,0,0,1,1.37-2.27,5.86,5.86,0,0,1,2-1.42,5.78,5.78,0,0,1,2.28-.47,6.07,6.07,0,0,1,2.59.51,4.84,4.84,0,0,1,1.8,1.45,6.23,6.23,0,0,1,1,2.17,10.21,10.21,0,0,1,.34,2.73v1.07H430.75v-1.95h8.06v-.19a6,6,0,0,0-.38-1.81,3.38,3.38,0,0,0-1-1.45,3,3,0,0,0-1.94-.57,3.26,3.26,0,0,0-2.68,1.36,5.25,5.25,0,0,0-.77,1.65,8.33,8.33,0,0,0-.27,2.24v.54a6,6,0,0,0,.28,1.87,4.69,4.69,0,0,0,.82,1.53,3.77,3.77,0,0,0,1.3,1,4,4,0,0,0,1.76.38,4.25,4.25,0,0,0,2.15-.52,5.47,5.47,0,0,0,1.54-1.39l1.45,1.15a6.7,6.7,0,0,1-1.16,1.31,5.3,5.3,0,0,1-1.71,1A6.71,6.71,0,0,1,435.76,410.36Z"/><path class="cls-9" d="M446.4,398.3v11.8H444v-14h2.33Zm4.37-2.28v2.22a4,4,0,0,0-.56-.08l-.6,0a3.94,3.94,0,0,0-1.47.26,3,3,0,0,0-1.07.72,3.31,3.31,0,0,0-.69,1.11,5.21,5.21,0,0,0-.33,1.4l-.68.39a10.65,10.65,0,0,1,.26-2.38,6.06,6.06,0,0,1,.78-2,3.65,3.65,0,0,1,3.31-1.83,3.38,3.38,0,0,1,.6.05A1.54,1.54,0,0,1,450.77,396Z"/><path class="cls-9" d="M461.14,406.39a2.13,2.13,0,0,0-.22-1,2,2,0,0,0-.92-.81,7.68,7.68,0,0,0-2.08-.64,15.68,15.68,0,0,1-2.1-.59,6.14,6.14,0,0,1-1.6-.81,3.45,3.45,0,0,1-1-1.13,3.18,3.18,0,0,1-.35-1.51,3.39,3.39,0,0,1,.37-1.57,4.22,4.22,0,0,1,1.05-1.31,5.06,5.06,0,0,1,1.64-.89,6.48,6.48,0,0,1,2.13-.32,6.38,6.38,0,0,1,2.88.59,4.51,4.51,0,0,1,1.82,1.59,4,4,0,0,1,.64,2.19H461a2.09,2.09,0,0,0-.34-1.13,2.61,2.61,0,0,0-1-.91,3.16,3.16,0,0,0-1.6-.37,3.55,3.55,0,0,0-1.61.31,2,2,0,0,0-.89.77,1.85,1.85,0,0,0-.28,1,1.52,1.52,0,0,0,.14.69,1.39,1.39,0,0,0,.48.56,3.58,3.58,0,0,0,1,.47,13.84,13.84,0,0,0,1.62.44,12.91,12.91,0,0,1,2.84.94,4.09,4.09,0,0,1,1.65,1.33,3.21,3.21,0,0,1,.55,1.91,3.78,3.78,0,0,1-.38,1.69,3.93,3.93,0,0,1-1.1,1.31,5.49,5.49,0,0,1-1.71.86,7.64,7.64,0,0,1-2.22.3,6.81,6.81,0,0,1-3.14-.66,4.86,4.86,0,0,1-1.94-1.71,4.1,4.1,0,0,1-.66-2.21h2.41a2.42,2.42,0,0,0,.57,1.56,2.84,2.84,0,0,0,1.27.81,4.88,4.88,0,0,0,1.49.24,4.47,4.47,0,0,0,1.65-.26,2.27,2.27,0,0,0,1-.71A1.61,1.61,0,0,0,461.14,406.39Z"/><path class="cls-9" d="M466,403.25V403a8.59,8.59,0,0,1,.44-2.82,6.79,6.79,0,0,1,1.26-2.27,6,6,0,0,1,2-1.5,6.89,6.89,0,0,1,5.3,0,5.8,5.8,0,0,1,2,1.5,6.83,6.83,0,0,1,1.28,2.27,8.87,8.87,0,0,1,.44,2.82v.29a8.76,8.76,0,0,1-.44,2.81,6.78,6.78,0,0,1-1.28,2.26,5.82,5.82,0,0,1-2,1.5,6.8,6.8,0,0,1-5.31,0,6,6,0,0,1-2-1.5,6.59,6.59,0,0,1-1.27-2.26A8.49,8.49,0,0,1,466,403.25Zm2.39-.29v.29a7.46,7.46,0,0,0,.25,2,5.06,5.06,0,0,0,.74,1.63,3.51,3.51,0,0,0,3,1.53,3.49,3.49,0,0,0,1.73-.41,3.56,3.56,0,0,0,1.23-1.12,5.3,5.3,0,0,0,.75-1.63,7.89,7.89,0,0,0,.25-2V403a7.81,7.81,0,0,0-.25-2,5.47,5.47,0,0,0-.75-1.64,3.65,3.65,0,0,0-1.25-1.13,3.45,3.45,0,0,0-1.74-.42,3.49,3.49,0,0,0-1.73.42,3.62,3.62,0,0,0-1.24,1.13,5.21,5.21,0,0,0-.74,1.64A7.38,7.38,0,0,0,468.43,403Z"/><path class="cls-9" d="M484.19,399.09v11h-2.4v-14h2.27Zm-.57,3.48-1,0a8.38,8.38,0,0,1,.43-2.66,6.44,6.44,0,0,1,1.16-2.13,5.11,5.11,0,0,1,4.1-1.9,6,6,0,0,1,1.87.27,3.57,3.57,0,0,1,1.42.89,4.08,4.08,0,0,1,.9,1.57,8,8,0,0,1,.31,2.35v9.18H490.4v-9.2a4,4,0,0,0-.33-1.77,2,2,0,0,0-.94-1,3.47,3.47,0,0,0-1.53-.31,3.52,3.52,0,0,0-1.62.38,3.82,3.82,0,0,0-1.26,1,4.93,4.93,0,0,0-.81,1.5A5.39,5.39,0,0,0,483.62,402.57Z"/><path class="cls-9" d="M505.1,401.61l0,1.68h-2.42a10.05,10.05,0,0,0-1.83.16,4.21,4.21,0,0,0-1.34.49,2.16,2.16,0,0,0-.83.81,2.18,2.18,0,0,0-.29,1.13,2.43,2.43,0,0,0,.3,1.2,2.16,2.16,0,0,0,.9.87,3.18,3.18,0,0,0,1.48.31,4,4,0,0,0,1.95-.46,4.18,4.18,0,0,0,1.34-1.14,2.45,2.45,0,0,0,.53-1.31l1,1.15a3.71,3.71,0,0,1-.5,1.21,5.55,5.55,0,0,1-1.06,1.26,6.16,6.16,0,0,1-1.58,1,5.22,5.22,0,0,1-2.06.39,5.32,5.32,0,0,1-2.49-.56,4.19,4.19,0,0,1-1.65-1.49,3.84,3.84,0,0,1-.59-2.11,4.19,4.19,0,0,1,.44-2,3.73,3.73,0,0,1,1.27-1.44,6.15,6.15,0,0,1,2-.87,10.43,10.43,0,0,1,2.6-.3Zm-.41,6.1V400.5a3,3,0,0,0-.33-1.45,2.28,2.28,0,0,0-1-.95,3.61,3.61,0,0,0-1.63-.34,3.76,3.76,0,0,0-1.59.32,2.66,2.66,0,0,0-1.06.81,1.81,1.81,0,0,0-.38,1.09h-2.4a3.16,3.16,0,0,1,.39-1.49,4.38,4.38,0,0,1,1.12-1.34,5.83,5.83,0,0,1,1.76-1,6.94,6.94,0,0,1,2.3-.35,6.7,6.7,0,0,1,2.7.51,4.19,4.19,0,0,1,1.84,1.56,4.82,4.82,0,0,1,.66,2.61v6.53a9.89,9.89,0,0,0,.13,1.48,5.25,5.25,0,0,0,.37,1.36v.21h-2.5a4.51,4.51,0,0,1-.29-1.11A8.54,8.54,0,0,1,504.69,407.71Z"/><path class="cls-9" d="M513.45,390.22V410.1h-2.4V390.22Z"/><path class="cls-9" d="M634.85,275.07a3.06,3.06,0,0,0-.2-1.17,2.16,2.16,0,0,0-.7-.92,5.5,5.5,0,0,0-1.37-.79,19.57,19.57,0,0,0-2.21-.77,18.81,18.81,0,0,1-2.52-.92,8.77,8.77,0,0,1-1.93-1.18,4.76,4.76,0,0,1-1.23-1.51,4.37,4.37,0,0,1-.43-1.95,4.63,4.63,0,0,1,.46-2,4.69,4.69,0,0,1,1.3-1.62,6.29,6.29,0,0,1,2-1.08,8.39,8.39,0,0,1,2.63-.39,7.44,7.44,0,0,1,3.61.81,5.77,5.77,0,0,1,2.26,2.11,5.39,5.39,0,0,1,.77,2.77h-2.48a3.77,3.77,0,0,0-.46-1.88,3.07,3.07,0,0,0-1.37-1.29,5,5,0,0,0-2.33-.48,5.2,5.2,0,0,0-2.2.41,2.85,2.85,0,0,0-1.29,1.08,3,3,0,0,0-.42,1.57,2.27,2.27,0,0,0,.26,1.08,2.73,2.73,0,0,0,.79.9,5.61,5.61,0,0,0,1.37.76,15.93,15.93,0,0,0,2,.68,17.51,17.51,0,0,1,2.77,1,7.77,7.77,0,0,1,1.92,1.25,4.58,4.58,0,0,1,1.13,1.56,5.14,5.14,0,0,1,.36,2,4.43,4.43,0,0,1-1.79,3.67,6.52,6.52,0,0,1-2.08,1,9.49,9.49,0,0,1-2.7.35,9.33,9.33,0,0,1-2.57-.36,7.33,7.33,0,0,1-2.29-1.09,5.53,5.53,0,0,1-1.65-1.79,4.88,4.88,0,0,1-.61-2.48h2.48a3.46,3.46,0,0,0,.38,1.67,3.22,3.22,0,0,0,1,1.14,4.5,4.5,0,0,0,1.49.67,7,7,0,0,0,1.74.21,6,6,0,0,0,2.21-.36,2.92,2.92,0,0,0,1.38-1A2.62,2.62,0,0,0,634.85,275.07Z"/><path class="cls-9" d="M639.55,273v-.3a8.76,8.76,0,0,1,.44-2.81,6.88,6.88,0,0,1,1.27-2.27,5.77,5.77,0,0,1,2-1.5,6.23,6.23,0,0,1,2.64-.54,6.35,6.35,0,0,1,2.66.54,5.9,5.9,0,0,1,2,1.5,6.71,6.71,0,0,1,1.27,2.27,8.49,8.49,0,0,1,.44,2.81v.3a8.53,8.53,0,0,1-.44,2.81,6.86,6.86,0,0,1-1.27,2.26,6,6,0,0,1-2,1.5,6.24,6.24,0,0,1-2.65.53,6.3,6.3,0,0,1-2.65-.53,5.86,5.86,0,0,1-2-1.5A6.88,6.88,0,0,1,640,275.8,8.8,8.8,0,0,1,639.55,273Zm2.4-.3v.3a7.76,7.76,0,0,0,.24,2,5.25,5.25,0,0,0,.75,1.64,3.51,3.51,0,0,0,3,1.53,3.54,3.54,0,0,0,1.73-.41,3.6,3.6,0,0,0,1.24-1.12,5.23,5.23,0,0,0,.74-1.64,7.33,7.33,0,0,0,.26-2v-.3a7.36,7.36,0,0,0-.26-2,5.25,5.25,0,0,0-.75-1.64,3.65,3.65,0,0,0-1.24-1.14,3.61,3.61,0,0,0-1.74-.41,3.57,3.57,0,0,0-1.73.41,3.65,3.65,0,0,0-1.24,1.14,5.25,5.25,0,0,0-.75,1.64A7.8,7.8,0,0,0,642,272.69Z"/><path class="cls-9" d="M660.91,278.13a3.62,3.62,0,0,0,1.58-.35,3.23,3.23,0,0,0,1.19-1,2.59,2.59,0,0,0,.53-1.4h2.28a4.25,4.25,0,0,1-.83,2.31,5.84,5.84,0,0,1-4.75,2.37,6.37,6.37,0,0,1-2.75-.55,5.33,5.33,0,0,1-1.94-1.53,6.65,6.65,0,0,1-1.15-2.23,9,9,0,0,1-.38-2.68v-.54a9,9,0,0,1,.38-2.67,6.56,6.56,0,0,1,1.15-2.23,5.33,5.33,0,0,1,1.94-1.53,6.37,6.37,0,0,1,2.75-.56,5.89,5.89,0,0,1,2.88.67,5,5,0,0,1,1.93,1.81,5.28,5.28,0,0,1,.77,2.6h-2.28a3.48,3.48,0,0,0-.48-1.57,3.14,3.14,0,0,0-1.14-1.12,3.27,3.27,0,0,0-1.68-.42,3.58,3.58,0,0,0-1.84.43,3.23,3.23,0,0,0-1.18,1.17,5.1,5.1,0,0,0-.62,1.62,8.34,8.34,0,0,0-.19,1.8v.54a9.21,9.21,0,0,0,.18,1.82,5.19,5.19,0,0,0,.62,1.62,3.23,3.23,0,0,0,1.17,1.15A3.66,3.66,0,0,0,660.91,278.13Z"/><path class="cls-9" d="M669.2,262.11a1.42,1.42,0,0,1,.35-1,1.59,1.59,0,0,1,2.11,0,1.39,1.39,0,0,1,.37,1,1.34,1.34,0,0,1-.37,1,1.41,1.41,0,0,1-2.46-1Zm2.59,3.72v14h-2.41v-14Z"/><path class="cls-9" d="M684.3,271.34l0,1.69h-2.42a9.23,9.23,0,0,0-1.83.16,4.47,4.47,0,0,0-1.34.48,2.31,2.31,0,0,0-.83.81,2.22,2.22,0,0,0-.29,1.14,2.43,2.43,0,0,0,.3,1.2,2.14,2.14,0,0,0,.9.86,3.17,3.17,0,0,0,1.48.32,3.92,3.92,0,0,0,1.94-.47,4,4,0,0,0,1.34-1.14,2.36,2.36,0,0,0,.54-1.3l1,1.15a3.42,3.42,0,0,1-.49,1.2,5.61,5.61,0,0,1-1.07,1.26,5.7,5.7,0,0,1-1.57,1,5.22,5.22,0,0,1-2.06.39,5.31,5.31,0,0,1-2.49-.55,4.24,4.24,0,0,1-1.66-1.5,3.86,3.86,0,0,1-.58-2.1,4.26,4.26,0,0,1,.44-2,3.84,3.84,0,0,1,1.26-1.43,6.1,6.1,0,0,1,2-.88,10.38,10.38,0,0,1,2.6-.3Zm-.41,6.1v-7.21a3,3,0,0,0-.33-1.44,2.22,2.22,0,0,0-1-1,3.51,3.51,0,0,0-1.63-.34,3.73,3.73,0,0,0-1.59.31,2.7,2.7,0,0,0-1.06.82,1.76,1.76,0,0,0-.38,1.08h-2.4a3.19,3.19,0,0,1,.39-1.49,4.5,4.5,0,0,1,1.12-1.34,5.6,5.6,0,0,1,1.76-.95,6.94,6.94,0,0,1,2.3-.36,6.54,6.54,0,0,1,2.7.52,4.07,4.07,0,0,1,1.84,1.56,4.77,4.77,0,0,1,.66,2.61v6.52a8.84,8.84,0,0,0,.13,1.49,5.25,5.25,0,0,0,.37,1.36v.21h-2.5a4.64,4.64,0,0,1-.29-1.11A8.56,8.56,0,0,1,683.89,277.44Z"/><path class="cls-9" d="M692.65,260v19.89h-2.41V260Z"/><path class="cls-9" d="M783.13,185.93h-5v-2h5a5.21,5.21,0,0,0,2.37-.46,3,3,0,0,0,1.33-1.3,4.31,4.31,0,0,0,0-3.71A3.33,3.33,0,0,0,785.5,177a4.7,4.7,0,0,0-2.37-.52h-4.45v16.8h-2.5V174.47h7a8,8,0,0,1,3.61.74,5.17,5.17,0,0,1,2.24,2,5.71,5.71,0,0,1,.76,3,5.9,5.9,0,0,1-.76,3.09,4.77,4.77,0,0,1-2.24,1.95A8.65,8.65,0,0,1,783.13,185.93Z"/><path class="cls-9" d="M801.56,187.13l1,0a11,11,0,0,1-.29,2.59,5.77,5.77,0,0,1-.94,2.05,4.3,4.3,0,0,1-1.7,1.35,5.89,5.89,0,0,1-2.55.49,5.6,5.6,0,0,1-1.87-.3,3.79,3.79,0,0,1-1.45-.92,4,4,0,0,1-.94-1.62,7.62,7.62,0,0,1-.33-2.39v-9h2.39v9.06a4.61,4.61,0,0,0,.22,1.56,2.31,2.31,0,0,0,.58,1,2,2,0,0,0,.83.5,3,3,0,0,0,1,.15,4.38,4.38,0,0,0,2.42-.59,3.38,3.38,0,0,0,1.29-1.6A6.07,6.07,0,0,0,801.56,187.13Zm-4.83-9.89,2.52-3.81h2.88l-3.47,3.81Zm4.38,12.84V179.31h2.41v14h-2.29Z"/><path class="cls-9" d="M807.14,173.43h2.41V190.6l-.21,2.72h-2.2ZM819,186.2v.27a10.59,10.59,0,0,1-.36,2.83,7,7,0,0,1-1.06,2.26,5.07,5.07,0,0,1-1.71,1.49,5,5,0,0,1-2.32.53,5.63,5.63,0,0,1-2.33-.46,4.49,4.49,0,0,1-1.69-1.33,7,7,0,0,1-1.1-2.1,12.8,12.8,0,0,1-.56-2.77v-1.19a12.89,12.89,0,0,1,.56-2.78,7,7,0,0,1,1.1-2.1,4.47,4.47,0,0,1,1.68-1.34,5.58,5.58,0,0,1,2.32-.46,5.16,5.16,0,0,1,2.34.51A4.92,4.92,0,0,1,817.6,181a6.84,6.84,0,0,1,1,2.26A11.07,11.07,0,0,1,819,186.2Zm-2.4.27v-.27a9.63,9.63,0,0,0-.2-2,5.37,5.37,0,0,0-.62-1.63,3.16,3.16,0,0,0-1.13-1.11,3.37,3.37,0,0,0-1.72-.41,3.79,3.79,0,0,0-1.57.31,3.41,3.41,0,0,0-1.13.84,4.47,4.47,0,0,0-.76,1.19,6,6,0,0,0-.43,1.38v3.12a6.11,6.11,0,0,0,.68,1.74A3.82,3.82,0,0,0,811,191a3.44,3.44,0,0,0,2,.54,3.34,3.34,0,0,0,1.66-.4,3.19,3.19,0,0,0,1.13-1.09,5.33,5.33,0,0,0,.64-1.62A8.82,8.82,0,0,0,816.61,186.47Z"/><path class="cls-9" d="M824.64,173.43v19.89h-2.4V173.43Z"/><path class="cls-9" d="M828.5,175.6a1.44,1.44,0,0,1,.36-1,1.36,1.36,0,0,1,1-.4,1.4,1.4,0,0,1,1.06.4,1.44,1.44,0,0,1,.37,1,1.36,1.36,0,0,1-.37,1,1.4,1.4,0,0,1-1.06.39,1.29,1.29,0,0,1-1.41-1.34Zm2.59,3.71v14h-2.41v-14Z"/><path class="cls-9" d="M840.54,191.61a3.62,3.62,0,0,0,1.58-.35,3.2,3.2,0,0,0,1.19-1,2.62,2.62,0,0,0,.53-1.41h2.28a4.18,4.18,0,0,1-.84,2.31,5.62,5.62,0,0,1-2,1.72,5.74,5.74,0,0,1-2.73.66,6.37,6.37,0,0,1-2.75-.56,5.33,5.33,0,0,1-1.94-1.53,6.39,6.39,0,0,1-1.15-2.23,9,9,0,0,1-.39-2.67V186a9,9,0,0,1,.39-2.67,6.39,6.39,0,0,1,1.15-2.23,5.33,5.33,0,0,1,1.94-1.53,6.37,6.37,0,0,1,2.75-.56,6,6,0,0,1,2.87.67,5.05,5.05,0,0,1,1.94,1.81,5.31,5.31,0,0,1,.77,2.6h-2.28a3.48,3.48,0,0,0-.48-1.57,3.14,3.14,0,0,0-1.14-1.12,3.27,3.27,0,0,0-1.68-.42,3.68,3.68,0,0,0-1.84.43,3.23,3.23,0,0,0-1.18,1.17,5.19,5.19,0,0,0-.62,1.62,8.34,8.34,0,0,0-.19,1.8v.55a9.18,9.18,0,0,0,.18,1.81,5.33,5.33,0,0,0,.61,1.62,3.36,3.36,0,0,0,1.18,1.16A3.66,3.66,0,0,0,840.54,191.61Z"/><path class="cls-9" d="M857.49,184.83l0,1.68h-2.42a9.06,9.06,0,0,0-1.82.16,4.18,4.18,0,0,0-1.35.49,2.23,2.23,0,0,0-.83.81,2.18,2.18,0,0,0-.28,1.13,2.42,2.42,0,0,0,.29,1.2,2.08,2.08,0,0,0,.9.86,3.07,3.07,0,0,0,1.49.32,3.85,3.85,0,0,0,1.94-.47,4.29,4.29,0,0,0,1.34-1.13,2.45,2.45,0,0,0,.53-1.31l1,1.15a3.46,3.46,0,0,1-.5,1.2,5.81,5.81,0,0,1-1.06,1.27,5.73,5.73,0,0,1-1.58,1,5,5,0,0,1-2.05.4,5.39,5.39,0,0,1-2.5-.56,4.19,4.19,0,0,1-1.65-1.49,3.84,3.84,0,0,1-.59-2.11,4.26,4.26,0,0,1,.44-2,3.78,3.78,0,0,1,1.27-1.43,6,6,0,0,1,2-.88,10.94,10.94,0,0,1,2.6-.29Zm-.42,6.09v-7.21a3,3,0,0,0-.33-1.44,2.22,2.22,0,0,0-1-1,3.48,3.48,0,0,0-1.63-.34,4,4,0,0,0-1.59.31,2.77,2.77,0,0,0-1.06.82,1.78,1.78,0,0,0-.38,1.09H848.7a3.26,3.26,0,0,1,.38-1.49,4.53,4.53,0,0,1,1.12-1.34,5.83,5.83,0,0,1,1.76-1,7,7,0,0,1,2.3-.36,6.7,6.7,0,0,1,2.7.52,4.19,4.19,0,0,1,1.84,1.56,4.82,4.82,0,0,1,.67,2.61v6.52a9.84,9.84,0,0,0,.12,1.49,5.25,5.25,0,0,0,.37,1.36v.21h-2.5a4.64,4.64,0,0,1-.29-1.11A10.11,10.11,0,0,1,857.07,190.92Z"/></g></g></svg>