<svg xmlns="http://www.w3.org/2000/svg" viewBox="0 0 198.04 160.84"><defs><style>.cls-1{fill:#6c2910;}</style></defs><g id="Capa_2" data-name="Capa 2"><g id="Capa_1-2" data-name="Capa 1"><path class="cls-1" d="M99.06,160.77q-37,0-74,0a3.49,3.49,0,0,1-2.79-1.15c-1.93-2-3.93-4-5.94-5.95a2.59,2.59,0,0,1-.86-2c.06-2.66.08-5.32,0-8,0-1.1.3-1.38,1.37-1.38,6.23,0,12.46,0,18.69.06,1.35,0,1.7-.36,1.69-1.69-.06-7,0-14.1,0-21.16,0-6.63-2.35-12.56-5.59-18.21a86.29,86.29,0,0,0-9.12-12.7,3.07,3.07,0,0,1-.81-2.22c0-3.29.07-6.58,0-9.86A1.65,1.65,0,0,1,23.1,74.6c1.81-.51,3.59-1.15,5.37-1.75A3.14,3.14,0,0,0,31,69.42c0-4.59.05-9.19,0-13.78a12.36,12.36,0,0,0-12.3-12.43A12.64,12.64,0,0,0,6.17,55.53,15,15,0,0,0,8.64,64.6a21.67,21.67,0,0,1,3.68,12.74c-.06,3,0,6,0,9a3.54,3.54,0,0,1-.72,2.27,27.53,27.53,0,0,0-5.44,16.79c0,17.89,0,35.78,0,53.67,0,1.38-.32,1.93-1.74,1.73a8.78,8.78,0,0,0-2.61,0C.27,161,0,160.34.06,159c.07-5.61,0-11.22,0-16.82q0-18.57,0-37.14A33.63,33.63,0,0,1,5.69,86.38c.23-.37.55-.68.54-1.16-.05-3.58.22-7.16-.15-10.72a16,16,0,0,0-2.62-6.69c-4.24-7-4.71-14.21-.71-21.47a18.06,18.06,0,0,1,19.91-8.79A18.34,18.34,0,0,1,37,53.85,154.14,154.14,0,0,1,37,70.08c-.14,4.27-2.5,7.08-6.52,8.5a11.07,11.07,0,0,1-1.38.44c-1,.2-1.26.76-1.35,1.8a10.45,10.45,0,0,0,2.64,8,59.6,59.6,0,0,1,11.49,21,44.92,44.92,0,0,1,1.37,13.06c0,6.14,0,12.28,0,18.41,0,1.17.64,1.07,1.39,1.07H61.76c14.94,0,29.88,0,44.82,0,1.42,0,1.9.38,1.73,1.77a11,11,0,0,0,0,2.75c.19,1.42-.45,1.65-1.7,1.64-5.46-.06-10.92,0-16.39,0q-33.43,0-66.87,0c-.57,0-1.38-.37-1.67.4s.1,1.49.65,2.21c2.24,2.91,5,3.74,8.72,3.73q69.69-.21,139.4-.07a3.26,3.26,0,0,0,2.77-1.18,29,29,0,0,1,2.66-2.66,1.83,1.83,0,0,0,.53-2c-.23-.79-1-.45-1.5-.45-4.16,0-8.31,0-12.47,0-1.08,0-1.64-.21-1.5-1.42.17-1.52-.66-3.5.34-4.45s2.86-.24,4.35-.25c5.17,0,10.34,0,15.51,0,1.14,0,1.47.34,1.43,1.47-.08,2.6-.07,5.22,0,7.83a2.68,2.68,0,0,1-.92,2.15c-2,2-4,3.92-6,5.95a3.33,3.33,0,0,1-2.66,1.09q-35.46,0-70.93,0Z"/><path class="cls-1" d="M191.89,131.4q0-13.05,0-26.1a27.37,27.37,0,0,0-5.41-16.65,3.77,3.77,0,0,1-.75-2.41c0-2.9.07-5.8,0-8.7a22.86,22.86,0,0,1,3.73-13c3.15-5,3.43-10.27.37-15.5a12,12,0,0,0-13.26-5.48c-5,1.18-9.15,5.67-9.38,10.73s-.11,10.44-.09,15.66a3,3,0,0,0,2.43,2.91c1.87.62,3.75,1.26,5.64,1.84a1.44,1.44,0,0,1,1.21,1.64c-.06,3.43,0,6.86,0,10.29a2.82,2.82,0,0,1-.8,1.94c-4.71,5.66-9.06,11.56-12,18.39a32.43,32.43,0,0,0-2.78,13.52c0,2.76,0,5.51,0,8.27,0,.92.24,1.27,1.22,1.26,4.4-.05,8.8,0,13.2,0,.95,0,1.25-.29,1.24-1.24-.05-3.48,0-7,0-10.45a2.39,2.39,0,0,0-.85-1.89c-1.26-1.19-2.47-2.45-3.73-3.65-.52-.49-.64-.84,0-1.39,1-.94,2-2,3-3,.52-.55.89-.54,1.42,0,1.86,1.91,3.74,3.78,5.64,5.64a2.15,2.15,0,0,1,.66,1.68c0,6.42-.05,12.85,0,19.28,0,1.31-.81,1-1.53,1q-16.59,0-33.2,0c-1.76,0-1.78,0-1.31,1.69.42,1.48.46,3.41,1.43,4.31s3,.23,4.5.28c2.68.08,2.22-.25,2.23,2.22,0,1.24.54,2.85-.23,3.63s-2.39.25-3.64.25c-11.36,0-22.72,0-34.08,0a1.6,1.6,0,0,1-1.87-1.42c-3.09-11.47-6.26-22.92-9.35-34.39-.6-2.22-.17-4.53-.24-6.79,0-.64.4-.67.87-.67,1.06,0,2.13,0,3.19,0h28c1.91,0,2,0,1.89,1.82a24.07,24.07,0,0,0,1.08,8c1.32,4.54,2.53,9.12,3.73,13.7.25.94.61,1.33,1.66,1.3q3.84-.13,7.68,0c1.19,0,1.44-.39,1.43-1.49,0-4-.14-7.94.13-11.88.49-7.11,3.27-13.47,6.89-19.49a75.29,75.29,0,0,1,7.12-10,4.81,4.81,0,0,0,1.33-3.8c-.12-1.19.3-2.58-.18-3.56s-2.12-.92-3.22-1.39c-3.46-1.49-5.62-4.06-5.8-7.82a142.26,142.26,0,0,1,0-16.52,18.39,18.39,0,0,1,36-3.73,20.05,20.05,0,0,1-2.17,17,20.09,20.09,0,0,0-3.13,11.1c0,4.18.26,8,2.64,11.82,2.72,4.34,3.55,9.45,3.55,14.62q0,27.18,0,54.37c0,1.27-.3,1.74-1.6,1.6a16.09,16.09,0,0,0-3.18,0c-1.14.11-1.35-.36-1.34-1.4,0-8.51,0-17,0-25.52V131.4Zm-61.38,10.92c3.14,0,6.28-.06,9.41,0,1.32,0,1.51-.3,1.17-1.52q-3.94-14.22-7.78-28.49c-.21-.8-.52-1.07-1.36-1.06q-9.57,0-19.13,0c-1,0-1.33.21-1,1.29q3.94,14.3,7.8,28.63a1.3,1.3,0,0,0,1.5,1.14C124.23,142.29,127.37,142.32,130.51,142.32Z"/><path class="cls-1" d="M51.14,0h37.7c4.71,0,7,2.33,7,7V67.21c0,4.59-2.36,6.94-7,7-4.88,0-9.77,0-14.65,0A4.07,4.07,0,0,0,71,75.41c-3.47,3.43-7,6.78-10.52,10.19a2.92,2.92,0,0,1-2.29.92c-2.47-.06-4.93-.07-7.4,0-1.07,0-1.42-.26-1.39-1.36.06-3.24,0-6.48,0-9.72,0-1-.34-1.35-1.33-1.29-1.25.06-2.51,0-3.77,0-.73,0-1.1-.21-1-1a.75.75,0,0,0,0-.15c0-1.59-.54-3.66.25-4.64s3-.28,4.57-.33c1.83-.06,3.68.07,5.51,0,1.39-.08,1.94.24,1.87,1.79-.15,3-.06,6.09,0,9.13,0,.48-.32,1.17.35,1.41a1.7,1.7,0,0,0,1.83-.53c2.58-2.54,5.21-5,7.83-7.54C66.7,71.19,67.87,70.11,69,69a2.92,2.92,0,0,1,2.3-.92c5.66,0,11.32,0,17,0,1.14,0,1.58-.2,1.57-1.48q-.06-29.5,0-59c0-1.2-.3-1.54-1.52-1.53q-24.21,0-48.43,0c-8.65,0-17.3,0-25.95,0-1.42,0-1.64.49-1.63,1.73,0,7.35,0,14.69,0,22,0,1.14-.19,1.7-1.49,1.56a18.51,18.51,0,0,0-3.33,0c-1,.08-1.3-.28-1.29-1.29,0-5.13,0-10.25,0-15.38,0-2.75,0-5.51,0-8.26A6.08,6.08,0,0,1,12.73,0H51.14Z"/><path class="cls-1" d="M147,0h38.15c4.06,0,6.64,2.51,6.65,6.55,0,7.83,0,15.67,0,23.5,0,1-.26,1.38-1.29,1.3a22.46,22.46,0,0,0-3.48,0c-1.13.09-1.35-.37-1.35-1.41,0-7.25,0-14.5,0-21.75,0-2.57.19-2.18-2.15-2.18q-36.71,0-73.4,0c-1.92,0-1.92,0-1.92,1.95q0,29,0,58c0,2.14,0,2.16,2.16,2.14,5.41,0,10.82-.07,16.23-.15a3.26,3.26,0,0,1,2.55,1c3.66,3.58,7.39,7.09,11,10.67a1.76,1.76,0,0,0,1.93.6c.68-.27.35-1,.36-1.55,0-3.19,0-6.38,0-9.57,0-.87.22-1.2,1.13-1.19,3.34,0,6.67,0,10,0,.69,0,1.07.16,1,1-.07,1.59.53,3.57-.21,4.68s-2.94.39-4.47.41c-1.2,0-1.46.43-1.44,1.52.06,3.24,0,6.48,0,9.72,0,.89-.26,1.17-1.15,1.16-2.71,0-5.42-.06-8.12,0a2.48,2.48,0,0,1-1.84-1C134,82.17,130.47,78.81,127,75.39a4,4,0,0,0-3.06-1.25c-4.88.07-9.77-.06-14.65,0-4.47.1-7.15-3-7.13-7,.12-20.12,0-40.23.06-60.35,0-4.4,2.39-6.79,6.8-6.8h38Z"/><path class="cls-1" d="M15.52,124.63c0-3.52,0-7,0-10.57,0-.88.22-1.21,1.13-1.16,1.3.07,2.61,0,3.91,0,.69,0,1.06.12,1.05.94q0,10.64,0,21.29c0,.83-.38.94-1.06.93-1.3,0-2.61-.07-3.91,0-.91.05-1.15-.28-1.13-1.15C15.55,131.49,15.52,128.06,15.52,124.63Z"/><path class="cls-1" d="M55.68,37.09c0,3,0,3-3,3s-3.09,0-3.08-3.1,0-3,2.9-3h.15C55.68,34,55.68,34,55.68,37.09Z"/><path class="cls-1" d="M148.52,36.94c0,3.14,0,3.14-3.19,3.14-3,0-3,0-3-2.94,0-3.13,0-3.13,3.18-3.13C148.51,34,148.51,34,148.52,36.94Z"/><path class="cls-1" d="M40.23,34c3.07,0,3.07,0,3.07,3.09s0,3-3,3-3.08,0-3.08-3.09S37.2,34,40.23,34Z"/><path class="cls-1" d="M65.08,34c3,0,3,0,3,2.91,0,3.17,0,3.16-3.15,3.16-2.94,0-2.94,0-2.94-2.92C61.94,34,61.94,34,65.08,34Z"/><path class="cls-1" d="M136.14,37.16c0,2.93,0,2.93-2.95,2.92-3.15,0-3.15,0-3.15-3.16C130,34,130,34,133,34,136.14,34,136.14,34,136.14,37.16Z"/><path class="cls-1" d="M157.86,34c3,0,3,0,3,3s0,3.11-3.08,3.09-3,0-3-3S154.78,34,157.86,34Z"/></g></g></svg>