<svg id="Capa_1" data-name="Capa 1" xmlns="http://www.w3.org/2000/svg" viewBox="0 0 221.09 221.09"><defs><style>.cls-1{fill:#fdf3e1;}</style></defs><path class="cls-1" d="M119.24,12.92a4.14,4.14,0,0,1,1.76,2,37.72,37.72,0,0,1,3.77,13.3c.14,1.17.16,1.19,1.15.51,2.82-1.92,5.62-3.87,8.44-5.79a2.3,2.3,0,0,1,2.94-.16,2.34,2.34,0,0,1,.86,2,46.78,46.78,0,0,1-2,13.8c-.3,1-.3,1,.73.85a40.17,40.17,0,0,0,10.81-3.79,2.34,2.34,0,0,1,2.38-.08,2.21,2.21,0,0,1,1,2.59,29.24,29.24,0,0,1-5,11.53c-.74,1.07-1.53,2.11-2.44,3.36,1.73-.09,3.27-.1,4.79-.25,2.75-.27,5.5-.6,8.25-1a2.28,2.28,0,0,1,2.44,1,2.32,2.32,0,0,1-.17,2.71,45.91,45.91,0,0,1-7.27,8.23l-.28.26c-1.82,1.68-1.83,1.69.41,2.89a62.61,62.61,0,0,0,8.41,3.39,7.09,7.09,0,0,1,1.42.59,2.2,2.2,0,0,1-.36,3.85,83.52,83.52,0,0,1-8.89,3.74c-1.77.61-3.49,1.32-5.25,2-.63.23-.75.49-.49,1.13a25.08,25.08,0,0,0,4.25,6.86c1.57,1.87,1.31,3.13-.84,4.3-4.61,2.51-9.49,4.46-14.27,6.64a2.13,2.13,0,0,1-2.93-1,2.18,2.18,0,0,1,1.19-3c3.75-1.72,7.5-3.43,11.26-5.1.78-.35,1-.61.39-1.4a23.94,23.94,0,0,1-4-8.21c-.46-1.71-.09-2.49,1.49-3.25,3.26-1.57,6.71-2.65,10.07-4a2.15,2.15,0,0,0,1-.52c-1.47-.68-2.94-1.32-4.38-2a18.67,18.67,0,0,1-4.86-3.45,2.24,2.24,0,0,1,0-3.6c2.16-2,4.4-4,6.43-6.14a1.27,1.27,0,0,0,.52-.79c-1.42.13-2.81.27-4.21.36a38.08,38.08,0,0,1-8.47-.21c-2.14-.34-2.83-2.06-1.55-3.83,1.6-2.21,3.48-4.22,5-6.51a27.08,27.08,0,0,0,2.71-5.23c-.54.19-.91.31-1.29.46a36.65,36.65,0,0,1-11.19,2.35c-2,.11-3.08-1.29-2.39-3.19a51.12,51.12,0,0,0,2.76-10.73c.06-.44.09-.89.13-1.35-.5,0-.75.31-1.06.52-2.64,1.83-5.3,3.65-8.07,5.29-2,1.16-3.62.28-3.71-2a44,44,0,0,0-1.9-11.79c-.12-.39-.27-.77-.41-1.16-.42.08-.47.41-.61.64q-2.72,4.52-5,9.23a2.32,2.32,0,0,1-2.22,1.54,2.35,2.35,0,0,1-2.2-1.59c-1.51-3.1-3.17-6.11-4.94-9.07-.16-.26-.34-.52-.6-.93a31,31,0,0,0-1.72,6.35,54.93,54.93,0,0,0-.7,7A2.17,2.17,0,0,1,96.89,35c-2.88-1.65-5.6-3.56-8.33-5.44-.28-.19-.58-.37-1-.64a26,26,0,0,0,.65,4.59A52.75,52.75,0,0,0,90.39,41c.75,2.08-.28,3.43-2.5,3.32a37.65,37.65,0,0,1-12.14-2.76c-.14.43.1.71.23,1a35.77,35.77,0,0,0,5.48,8.37c.64.77,1.27,1.55,1.84,2.37a2.3,2.3,0,0,1-1.65,3.8,44,44,0,0,1-10.69,0l-1.87-.18c0,.47.33.66.55.9,2,2.06,4.11,4,6.23,5.92,1.33,1.21,1.37,2.48.12,3.73a23.33,23.33,0,0,1-7.75,4.8l-1.47.6c.25.43.67.44,1,.57,3.33,1.27,6.73,2.39,10,3.89,1.73.8,2.1,1.63,1.58,3.48a24.71,24.71,0,0,1-4,8.19c-.45.59-.41.87.29,1.18,3.41,1.51,6.81,3.07,10.2,4.61.44.2.89.39,1.32.62a2.19,2.19,0,1,1-1.89,3.94C82.12,98,79,96.57,75.9,95.14c-1.75-.81-3.47-1.69-5.18-2.6s-2-2.37-.72-3.88a26.3,26.3,0,0,0,4.43-7c.29-.7.14-1-.55-1.28-4.12-1.64-8.4-2.9-12.4-4.87-.52-.26-1-.5-1.57-.74a2.15,2.15,0,0,1-1.4-2.2,2.12,2.12,0,0,1,1.57-2c2.35-.87,4.74-1.65,7-2.64a33.39,33.39,0,0,0,3.52-1.81c.62-.37.75-.6.13-1.16a60.34,60.34,0,0,1-6.32-6.37,34.88,34.88,0,0,1-2.36-3.18,2.23,2.23,0,0,1,2.25-3.56A107.79,107.79,0,0,0,76,53h1.3c0-.52-.4-.79-.65-1.12a31.39,31.39,0,0,1-6.54-13.62,2.37,2.37,0,0,1,.74-2.53,2.27,2.27,0,0,1,2.63-.1,39.33,39.33,0,0,0,10.89,3.83c.83.16.92,0,.68-.77A47.45,47.45,0,0,1,82.93,25,2.3,2.3,0,0,1,86.82,23q4.16,2.91,8.36,5.75c1,.68,1,.66,1.16-.5a37.64,37.64,0,0,1,3.9-13.56,4,4,0,0,1,1.61-1.73h1.35a4.34,4.34,0,0,1,1.61,1.6c1.83,2.87,3.49,5.84,5.16,8.81.17.31.25.72.68.88,1.83-3.28,3.63-6.53,5.64-9.67a4.44,4.44,0,0,1,1.6-1.62Z"/><path class="cls-1" d="M38.09,131c.15-.88.31-1.77.46-2.65.66-4,2.31-7.76,3.8-11.53a32.61,32.61,0,0,0,2.54-9,11.72,11.72,0,0,0-1-6.13,2.15,2.15,0,0,1,.37-2.59A2.12,2.12,0,0,1,47,98.73c3.78,1.83,6.08,5,7.56,8.77a34.84,34.84,0,0,1,1.22,4.35,26.88,26.88,0,0,0,1-6.86,60.51,60.51,0,0,0-1.92-14.8c-.3-1.35,0-2.18.84-2.74a2,2,0,0,1,2-.19C62.77,89.74,67.2,93,69.89,98.18s2.43,10.55.58,15.93A47.35,47.35,0,0,1,65,124.48a82.26,82.26,0,0,0-6.56,11.13c-4.16,9.3,0,17.41,5.71,22.53A19.89,19.89,0,0,0,68.32,161a2.23,2.23,0,0,1-1.25,4.26,31.13,31.13,0,0,1-28.79-27.58c0-.24,0-.52-.19-.72ZM58,158.42a2.69,2.69,0,0,0-.66-1.07c-5.36-7.31-6.6-15.14-3-23.58A72.08,72.08,0,0,1,60.66,123a52.17,52.17,0,0,0,5.49-9.85c2.9-7.57,1.13-13.9-5.29-18.83-.21-.16-.38-.45-.77-.3,0,.29.09.57.14.85a46.47,46.47,0,0,1,.28,16A25.87,25.87,0,0,1,56,121.61a2.18,2.18,0,0,1-2.6,1,2.23,2.23,0,0,1-1.51-2.32c0-.74,0-1.48-.06-2.22a25.75,25.75,0,0,0-1.76-9.82,2.56,2.56,0,0,0-.76-1.19,27.42,27.42,0,0,1-1.3,7c-.72,2.27-1.65,4.46-2.54,6.67-.67,1.67-1.33,3.35-1.85,5.08a27.26,27.26,0,0,0,9.68,29.82A25.19,25.19,0,0,0,58,158.42Z"/><path class="cls-1" d="M183,137c-.43,1.81-.62,3.66-1.12,5.46a31,31,0,0,1-28,22.85,2.17,2.17,0,0,1-2.41-1.63A2.21,2.21,0,0,1,152.8,161a22,22,0,0,0,10.33-11.43,16.84,16.84,0,0,0-.08-13.07,52.69,52.69,0,0,0-4.88-9,90.93,90.93,0,0,1-6.78-11.45c-2-4.47-2.87-9.07-1.67-13.92S154,93.51,158,90.51a35.64,35.64,0,0,1,4.67-2.9c1-.54,2-.82,3,0s.89,1.75.64,2.82A63.61,63.61,0,0,0,164.41,103a29.87,29.87,0,0,0,.93,8.88c.27-1,.44-1.84.67-2.62,1.26-4.31,3.47-7.94,7.52-10.21a5.49,5.49,0,0,1,1.05-.48,2.1,2.1,0,0,1,2.22.56,1.9,1.9,0,0,1,.49,2.22c-1.84,4-1.16,7.85.1,11.76,1,3,2.29,6,3.42,8.92a35.13,35.13,0,0,1,2,7.94,1.57,1.57,0,0,0,.2.83Zm-11.31-29.83a13.18,13.18,0,0,0-1.83,4.81,46.85,46.85,0,0,0-.68,8.45,2.15,2.15,0,0,1-1.1,2,2.21,2.21,0,0,1-3-.83,25.69,25.69,0,0,1-4.48-10.77A45.87,45.87,0,0,1,160.87,95a1.58,1.58,0,0,0,0-1c-6.32,4.27-8.42,10-6.82,16.4a34.39,34.39,0,0,0,4.44,9.7c1.86,3,3.84,5.87,5.66,8.87a29.05,29.05,0,0,1,4.48,12.13c.62,5.92-1.24,11.16-4.64,15.93-.31.43-.64.86-1,1.28A2.08,2.08,0,0,0,164,158a25.66,25.66,0,0,0,10.88-10.24c4.54-8,4.88-16.31,1.58-24.82-1-2.61-2.07-5.2-3-7.83A29.88,29.88,0,0,1,171.69,107.14Z"/><path class="cls-1" d="M107.84,202.28c-2.07-.88-2.66-2.5-2.65-4.65,0-14.37,0-28.73,0-43.09a6.76,6.76,0,0,1,.09-1.35,2.17,2.17,0,0,1,4.27.18,10.55,10.55,0,0,1,0,1.26v42.21c0,.62-.06,1.11.86,1.1s1.06-.26,1.06-1.09q0-21.16,0-42.32c0-.35,0-.71,0-1.06a2.15,2.15,0,0,1,2-2,2.11,2.11,0,0,1,2.25,1.71,5.51,5.51,0,0,1,.07,1.15c0,14.49,0,29,0,43.47,0,2.12-.67,3.62-2.65,4.45Z"/><path class="cls-1" d="M125.44,147.5l9.12,10.84q12.28,14.58,24.58,29.17l.43.52a2.23,2.23,0,0,1-.16,3.2,2.19,2.19,0,0,1-3.18-.36c-1.08-1.23-2.12-2.5-3.18-3.76q-16.37-19.43-32.71-38.86a2,2,0,0,0-1.72-.77q-8.07,0-16.13,0a2,2,0,0,0-1.73.77Q83,169.45,65.13,190.59c-.89,1.06-1.78,1.39-2.76,1A2.22,2.22,0,0,1,61.6,188c2.08-2.5,4.19-5,6.28-7.46L95,148.29c.17-.19.32-.39.51-.63a1.83,1.83,0,0,0-1.15-.16H79.77c-2.76,0-4.17-1.42-4.18-4.15,0-1.23,0-2.45,0-3.67,0-2.61,1.46-4.09,4.06-4.09h61.53c2.94,0,4.33,1.38,4.32,4.31v3.67a3.67,3.67,0,0,1-4,3.95H125.44ZM110.65,140H82c-2,0-1.91,0-2,2,0,1,.24,1.23,1.21,1.22q28.89,0,57.76,0c2.15,0,2.12,0,2.16-2.17,0-.79-.18-1-1-1C130.29,140,120.47,140,110.65,140Z"/><path class="cls-1" d="M127,77a10.33,10.33,0,0,1-5.75,1.49c-.29,0-.58,0-.86,0-2-.23-3.54-.89-2.85-3.77a14.22,14.22,0,0,0-.68-8.47,6.91,6.91,0,0,1-7,2.23c-2.77-.68-4-2.85-4.87-5.56a16.79,16.79,0,0,0-.59,3.89,52.4,52.4,0,0,0,.5,12.32c.32,2.08-.4,3-2.51,3.23a6.94,6.94,0,0,1-6.9-3.36c-.47-.71-.85-1.49-1.36-2.41-.87,3-1.45,5.88-.23,8.8A4.59,4.59,0,0,0,95,86.75,2.2,2.2,0,1,1,92,90a9.86,9.86,0,0,1-3.14-7.14,21.35,21.35,0,0,1,1.42-8.7,42,42,0,0,1,2.65-5.79A2.16,2.16,0,0,1,95.52,67a2.19,2.19,0,0,1,1.68,2.29,17.1,17.1,0,0,0,1.51,6.45,4.27,4.27,0,0,0,1.46,1.76c-.06-1-.11-1.75-.16-2.53-.56-8.32.4-16.39,4-24a5.53,5.53,0,0,1,1.3-2,2.51,2.51,0,0,1,4.15,1.24,8.53,8.53,0,0,1-.16,3.92,18.7,18.7,0,0,0-.08,7.19,6.79,6.79,0,0,0,.46,1.47,2.05,2.05,0,0,0,3.51.76,3.79,3.79,0,0,0,1.25-2.44A2.16,2.16,0,0,1,116.14,59a2.23,2.23,0,0,1,2.46,1.11A19.81,19.81,0,0,1,122.16,73c-.07,1.12-.06,1.12,1,.81a7,7,0,0,0,4.12-3.72c.24-.45.41-.94.63-1.4a2.18,2.18,0,0,1,4.12.49,19.1,19.1,0,0,1-.7,8.88A33.78,33.78,0,0,1,126,88.62a2.2,2.2,0,0,1-3.07.63,2.17,2.17,0,0,1-.51-3.15,34.14,34.14,0,0,0,4.19-7.69c.12-.33.23-.67.33-1A1.79,1.79,0,0,0,127,77Z"/><path class="cls-1" d="M115.88,103v6.57c0,1.17,0,1.19,1.09.63a14.62,14.62,0,0,0,8.37-12.86c.08-1.44.62-2.28,1.64-2.52a2.21,2.21,0,0,1,2.74,2.38A19.14,19.14,0,0,1,116.9,115a1.3,1.3,0,0,0-1,1.5c0,4.25,0,8.5,0,12.75a2.56,2.56,0,0,1-.61,2,2.19,2.19,0,0,1-3.76-1.61c0-4.13,0-8.25,0-12.37,0-1.13-.38-1.4-1.52-1.15-.54.13-.37.54-.37.85,0,2.48,0,5,0,7.44v4.83c0,1.71-.83,2.71-2.21,2.69s-2.19-1-2.19-2.74c0-4.09,0-8.18,0-12.27a1.78,1.78,0,0,0-1.41-2A19,19,0,0,1,91.4,97.22a2.16,2.16,0,0,1,2.06-2.42,2.14,2.14,0,0,1,2.29,2.3,14.69,14.69,0,0,0,8.3,13.1c1.14.61,1.16.58,1.16-.71,0-4.22,0-8.44,0-12.66A4.65,4.65,0,0,1,108.47,92,6,6,0,0,1,115,93.67a4.46,4.46,0,0,1,.89,2.8C115.87,98.66,115.88,100.85,115.88,103Zm-6.27.89c0,2.32,0,4.63,0,6.95,0,.87.45.79,1,.81s.92-.09.91-.82q0-6.95,0-13.88c0-.83-.44-.86-1-.89s-.92.19-.9.89C109.63,99.3,109.61,101.62,109.61,103.93Z"/><path class="cls-1" d="M120.82,164a2.36,2.36,0,0,1,2.23,1.55q3.63,6.91,7.29,13.83T137.55,193c.11.2.22.4.31.6a2.26,2.26,0,0,1-.87,2.95,2.19,2.19,0,0,1-3-.9c-1.15-2.09-2.24-4.21-3.35-6.31q-5.76-10.89-11.5-21.77a2.57,2.57,0,0,1-.36-2.12A2.12,2.12,0,0,1,120.82,164Z"/><path class="cls-1" d="M102.42,166a2.51,2.51,0,0,1-.37,1.38q-7.38,14-14.77,28a2.23,2.23,0,0,1-3.13,1.16c-1.15-.6-1.45-1.9-.74-3.26l14.7-27.82a2.25,2.25,0,0,1,2.45-1.48,2,2,0,0,1,1.77,1.55A2.32,2.32,0,0,1,102.42,166Z"/><path class="cls-1" d="M86,128.22c0,.77,0,1.54,0,2.31a2.18,2.18,0,0,1-4.36.06c-.07-1.6-.07-3.21,0-4.81a2.14,2.14,0,0,1,2.24-2.06A2.18,2.18,0,0,1,86,125.91c0,.77,0,1.54,0,2.31Z"/><path class="cls-1" d="M86,114.16c0,.77,0,1.54,0,2.31a2.15,2.15,0,0,1-2.07,2.13,2.09,2.09,0,0,1-2.26-1.91,28,28,0,0,1,0-5.18A2,2,0,0,1,84,109.69a2.07,2.07,0,0,1,2,2.06C86.05,112.55,86,113.36,86,114.16Z"/><path class="cls-1" d="M139.48,114.16c0,.74,0,1.49,0,2.23a2.18,2.18,0,0,1-2.19,2.22,2.14,2.14,0,0,1-2.17-2.24c0-1.51,0-3,0-4.54a2.1,2.1,0,0,1,2.14-2.15,2.12,2.12,0,0,1,2.22,2.17C139.5,112.62,139.48,113.39,139.48,114.16Z"/><path class="cls-1" d="M73.65,121.18c0-.73,0-1.47,0-2.21a2.19,2.19,0,0,1,2.12-2.28,2.17,2.17,0,0,1,2.27,2.24c0,1.51,0,3,0,4.52a2.2,2.2,0,1,1-4.39,0C73.63,122.66,73.65,121.92,73.65,121.18Z"/><path class="cls-1" d="M147.44,121.2c0,.77,0,1.54,0,2.31a2.17,2.17,0,0,1-2.19,2.13,2.11,2.11,0,0,1-2.16-2.14c-.05-1.54-.05-3.09,0-4.63a2.18,2.18,0,0,1,4.36,0c0,.77,0,1.54,0,2.32Z"/><path class="cls-1" d="M139.47,128.22c0,.74,0,1.48,0,2.22a2.2,2.2,0,0,1-2.26,2.24,2.17,2.17,0,0,1-2.1-2.29c0-1.48,0-2.95,0-4.43a2.14,2.14,0,0,1,2.15-2.24,2.19,2.19,0,0,1,2.21,2.2C139.5,126.68,139.47,127.45,139.47,128.22Z"/><path class="cls-1" d="M127.15,121.19c0-.81,0-1.62,0-2.42a2.14,2.14,0,0,1,2.12-2.08,2.1,2.1,0,0,1,2.19,2q.09,2.46,0,4.92a2.09,2.09,0,0,1-2.16,2,2.11,2.11,0,0,1-2.15-2.14C127.12,122.73,127.15,122,127.15,121.19Z"/><path class="cls-1" d="M94,121.18c0,.77,0,1.54,0,2.31a2.14,2.14,0,0,1-2.14,2.15,2.11,2.11,0,0,1-2.2-2.09c-.06-1.6-.06-3.21,0-4.81a2.17,2.17,0,0,1,4.33,0C94,119.58,94,120.38,94,121.18Z"/></svg>