<svg xmlns="http://www.w3.org/2000/svg" viewBox="0 0 131.54 131.54"><defs><style>.cls-1{fill:#6c2910;}</style></defs><g id="Capa_2" data-name="Capa 2"><g id="Capa_1-2" data-name="Capa 1"><path class="cls-1" d="M131.54,67.11c-.08.35-.17.69-.25,1A10.63,10.63,0,0,1,122,76.69c-.17,0-.36,0-.53.16.38.21.75.41,1.1.63a10.81,10.81,0,0,1,3.58,14.36c-.26.47-.56.91-.84,1.37-.19.3-.34.27-.55,0-.7-.93-1.41-1.85-2.14-2.75-.24-.3-.12-.52,0-.79a6.88,6.88,0,0,0,0-6.39,6.06,6.06,0,0,0-1.63-1.93c-.65-.52-.66-.51-.88.26-.38,1.31-.83,2.59-1.31,3.87-.06.16-.08.35-.28.47l-3-2.69c-.31-.28-.12-.53,0-.79a52.25,52.25,0,0,0-5.59-45A51.16,51.16,0,0,0,79.19,15.14a51.22,51.22,0,0,0-37,3.89.89.89,0,0,1-1.21-.15c-.74-.71-1.53-1.37-2.33-2-.39-.31-.36-.44.07-.67a57.62,57.62,0,0,1,11-4.6c.83-.25.83-.25.27-.94a6.72,6.72,0,0,0-7.74-1.86,6.78,6.78,0,0,0-4.42,6.76c0,.16,0,.31,0,.51a1.62,1.62,0,0,1-.76-.55c-.93-.87-1.86-1.75-2.86-2.54-.3-.23-.25-.47-.16-.77a10.85,10.85,0,0,1,8.39-7.75A10.55,10.55,0,0,1,54.36,9.92c.08.14.1.4.33.37s.18-.28.18-.44A10.51,10.51,0,0,1,63.92.14,4.84,4.84,0,0,0,64.43,0h2.68l.65.16a10.65,10.65,0,0,1,8.1,6.24,12.27,12.27,0,0,1,.93,3.7,15.89,15.89,0,0,1,1.55-2.32A11,11,0,0,1,92,5.53a10.65,10.65,0,0,1,5.18,12.64c-.06.18-.26.39-.06.55s.31-.11.43-.21A10.79,10.79,0,0,1,113,20.06a10.62,10.62,0,0,1,.06,13.85.32.32,0,0,0-.12.35,10.47,10.47,0,0,1,4.93-.54,10.59,10.59,0,0,1,4.59,1.77,9.73,9.73,0,0,1,3.36,3.68c3.15,6.54,1.55,11.73-4.65,15.58l.58.09a10.55,10.55,0,0,1,9.42,8.1c.13.49.24,1,.36,1.49Zm-27.63-47a6.21,6.21,0,0,0-2.67.85c-.56.31-.51.49,0,.86a54,54,0,0,1,8.64,8.66c.31.39.51.45.74,0,.08-.16.18-.31.26-.47C113,25.5,109.45,20.07,103.91,20.07Zm16.28,30.29a1.16,1.16,0,0,0,.64-.35,6.76,6.76,0,0,0,1.65-8.38,6.67,6.67,0,0,0-6.9-3.81c-.58.09-.57.26-.32.71a52.12,52.12,0,0,1,3.61,7.9C119.34,47.73,119.75,49.05,120.19,50.36ZM93.61,15a6.85,6.85,0,0,0-4.78-6.39,6.7,6.7,0,0,0-7.51,2.06c-.46.61-.46.64.26.84a56.36,56.36,0,0,1,10.66,4.34C93.58,16.56,93.61,16.55,93.61,15Zm33.81,50.81a6.76,6.76,0,0,0-4.87-6.7c-.46-.11-.69-.13-.61.5a53.92,53.92,0,0,1,0,12.18c-.09.81-.07.83.75.58A6.72,6.72,0,0,0,127.42,65.81ZM72.11,9.62c.42,0,.46-.06.32-.61a6.84,6.84,0,0,0-7.88-4.79,6.52,6.52,0,0,0-5.39,4.64c-.25.77-.2.8.58.72,1.51-.16,3-.28,4.55-.31A53.81,53.81,0,0,1,72.11,9.62Z"/><path class="cls-1" d="M0,64.43a25.7,25.7,0,0,1,.74-2.7,10.43,10.43,0,0,1,8.9-6.88c.15,0,.32,0,.44-.12,0-.15-.19-.17-.3-.23C4,51.6,2.4,44.17,6,38.73a13.7,13.7,0,0,1,1.58-1.91.38.38,0,0,1,.62,0,16.05,16.05,0,0,0,2.87,2c.55.28.11.41-.08.57A7.16,7.16,0,0,0,9,48.2a6.85,6.85,0,0,0,1.81,2.13c.42.33.56.22.7-.25A57.46,57.46,0,0,1,15,41c.23-.49.47-.61,1-.48a20.62,20.62,0,0,0,3.67.4c-.33.65-.63,1.24-.92,1.84a52.08,52.08,0,0,0,5.11,54.31,51.55,51.55,0,0,0,32.94,20.3,50.9,50.9,0,0,0,21.76-.8.91.91,0,0,1,1,.31,18.51,18.51,0,0,0,1.51,1.43c.51.43,1,.82,1.61,1.27a2.31,2.31,0,0,1-1,.39c-.6.12-.52.36-.22.75A6.53,6.53,0,0,0,88.3,123a2.8,2.8,0,0,1,1.81.09,41.91,41.91,0,0,0,4.18,1.28,10.49,10.49,0,0,1-3.65,2.25,10.71,10.71,0,0,1-13.47-5c-.07-.15-.09-.4-.32-.37s-.17.24-.18.38a10.51,10.51,0,0,1-9.24,9.8c-.11,0-.21.08-.32.11H64.43a1.19,1.19,0,0,0-.64-.15,10.62,10.62,0,0,1-8.93-9.55c0-.13.06-.32-.15-.38,0,0-.07.06-.09.1-2.3,4.34-6,6.19-10.78,5.82a11.12,11.12,0,0,1-9.78-8.57,10.19,10.19,0,0,1,.27-5.42c.06-.18.26-.42.08-.56s-.37.16-.54.28-.59.48-.9.69a10.68,10.68,0,0,1-12.49-.45,11,11,0,0,1-4.05-12.11,10.51,10.51,0,0,1,2.33-3.95c-5.49,1.55-10.06.18-12.82-4.68-3.67-6.46-1.87-11.84,4.37-15.79l-.2-.08-.33,0A10.39,10.39,0,0,1,.84,70.07a23.23,23.23,0,0,1-.84-3Zm27.1,47.05a6.44,6.44,0,0,0,3.26-.89c.44-.25.53-.41.06-.78a54.93,54.93,0,0,1-8.58-8.53c-.56-.7-.56-.7-1,.08C18.42,105.72,22,111.47,27.1,111.48Zm-12-17.67.59-.06c.87-.12.87-.12.45-.89a56.13,56.13,0,0,1-4.63-11.1c-.2-.71-.22-.71-.78-.28A6.7,6.7,0,0,0,8.69,89,6.94,6.94,0,0,0,15.15,93.81Zm22.79,22.8A6.81,6.81,0,0,0,42.82,123a6.66,6.66,0,0,0,7.38-2.09c.5-.63.5-.63-.3-.87a55.9,55.9,0,0,1-10.53-4.28C38,115,37.93,115,37.94,116.61Zm27.84,10.81a6.72,6.72,0,0,0,6.62-4.79c.2-.72.18-.74-.58-.66a53.92,53.92,0,0,1-12.18,0c-.65-.08-.65.14-.51.64A6.73,6.73,0,0,0,65.78,127.42ZM4.13,65.72A6.72,6.72,0,0,0,8.92,72.4c.71.2.74.17.66-.58a55.72,55.72,0,0,1,0-12.11c.08-.74.06-.77-.68-.56A6.72,6.72,0,0,0,4.13,65.72Z"/><path class="cls-1" d="M102.05,121.34A34.38,34.38,0,0,1,86.3,117c-4.5-2.47-6.92-6.46-7.92-11.4a51.55,51.55,0,0,1-.81-9.28c0-2.28-.18-4.56-.13-6.84A12.45,12.45,0,0,0,75,82a92.86,92.86,0,0,0-9.2-11.17c-2.29-2.48-4.66-4.89-7.08-7.25-.17-.17-.31-.54-.64-.08a14.14,14.14,0,0,1-11.3,6.19c-6.74.3-12.11-2.34-15.48-8.31A13,13,0,0,1,36,43.72c.67-.4.67-.4.08-.91l-7.38-6.33a5.59,5.59,0,0,0-1.72-1,2.37,2.37,0,0,0-1.88.08A13.26,13.26,0,1,1,17.3,10.46a12.79,12.79,0,0,1,9,1.84,63.82,63.82,0,0,1,7.88,6.11C43,26.09,51.84,33.69,60.67,41.32l37.16,32.1c5.38,4.65,10.78,9.28,16.11,14a44.44,44.44,0,0,1,8.79,10.15,17.46,17.46,0,0,1,2.56,6.73,8.55,8.55,0,0,1-4.39,9,3.22,3.22,0,0,0-.66.57A25.07,25.07,0,0,1,102.05,121.34Zm11.75-7.54c-.69-.18-1.21-.31-1.71-.46a39.23,39.23,0,0,1-11.7-6.14A29.89,29.89,0,0,1,88.6,90.58,40.84,40.84,0,0,0,77,71.61Q68,63.32,59.06,55.08,45.41,42.47,31.74,29.87a8.14,8.14,0,0,1-2.3-9.56.59.59,0,0,0-.2-.79A49.43,49.43,0,0,0,24,15.7a8.22,8.22,0,0,0-6.18-1.12,8.77,8.77,0,0,0-7.17,6.64,8.55,8.55,0,0,0,3,9.34,8.87,8.87,0,0,0,9.76,1.25,6.53,6.53,0,0,1,1.51-.55,7.5,7.5,0,0,1,6.28,1.89q9.72,8.16,19.1,16.69c7,6.4,13.88,12.92,20.24,20a78.86,78.86,0,0,1,8.38,10.72A14.91,14.91,0,0,1,81.53,89c0,1.74.07,3.49.12,5.23a66.52,66.52,0,0,0,.64,10c.67,3.72,2.3,6.84,5.61,8.91a25.1,25.1,0,0,0,4.74,2.18,25.63,25.63,0,0,0,14.44,1.31A20.61,20.61,0,0,0,113.8,113.8Zm3-3.83a3.8,3.8,0,0,0,4-2.06,5.48,5.48,0,0,0,.38-3.41,13.25,13.25,0,0,0-1.74-4.41A40.19,40.19,0,0,0,111,90.27q-13.8-12-27.68-24L42.19,30.8l-8.74-7.54c-.13-.11-.25-.32-.44-.25s-.11.32-.11.48a4.17,4.17,0,0,0,1.47,3.19l11,10.1C56.38,47,67.37,57.27,78.51,67.39A48.65,48.65,0,0,1,92.85,90.27a22.28,22.28,0,0,0,4.81,9,38.75,38.75,0,0,0,11.73,8.6A18.35,18.35,0,0,0,116.8,110Zm-64.17-49a11.47,11.47,0,0,0,1.93-.16c.24,0,.49-.07.6-.35s-.13-.44-.29-.6l-2.24-2.12q-5.58-5.26-11.34-10.34c-.63-.56-.63-.55-.81.3a9.48,9.48,0,0,0,0,3.79A12.21,12.21,0,0,0,52.63,60.94ZM36.08,49a2.41,2.41,0,0,0-.69.77,8.79,8.79,0,0,0-.59,9.41,12.29,12.29,0,0,0,12.4,6.37,5.31,5.31,0,0,0,2.43-.66C41.42,62.81,36.59,57.8,36.08,49Z"/><path class="cls-1" d="M73.67,45a2,2,0,0,1-1.11,1.74,1.8,1.8,0,0,1-2.08-.12c-1.72-1.39-3.41-2.81-5.06-4.29a2,2,0,0,1,2.65-3.07c1.7,1.37,3.36,2.81,5,4.24A1.88,1.88,0,0,1,73.67,45Z"/><path class="cls-1" d="M62.69,35.62a2,2,0,0,1-1.1,1.79,1.82,1.82,0,0,1-2.09-.11c-1.71-1.39-3.41-2.81-5.06-4.28a2,2,0,0,1-.07-2.75,2,2,0,0,1,2.72-.33c1.7,1.37,3.35,2.8,5,4.23A1.85,1.85,0,0,1,62.69,35.62Z"/><path class="cls-1" d="M77.92,48.17a2.1,2.1,0,0,1,1.4.56c1.51,1.29,3,2.56,4.54,3.86a2.06,2.06,0,1,1-2.63,3.16q-2.37-2-4.69-4A2,2,0,0,1,76,49.45,2,2,0,0,1,77.92,48.17Z"/><path class="cls-1" d="M95.61,63.58a2,2,0,0,1-1.08,1.74,1.85,1.85,0,0,1-2.09-.11c-1.72-1.39-3.41-2.81-5.06-4.29a2,2,0,0,1,0-2.78,2,2,0,0,1,2.73-.27c1.68,1.37,3.31,2.79,5,4.2A1.85,1.85,0,0,1,95.61,63.58Z"/></g></g></svg>