<svg id="Capa_1" data-name="Capa 1" xmlns="http://www.w3.org/2000/svg" viewBox="0 0 198.13 165.4"><defs><style>.cls-1{fill:#c7895e;}</style></defs><path class="cls-1" d="M35.91,93.94q0-28.14,0-56.28a8.84,8.84,0,0,1,7.26-9,11.2,11.2,0,0,1,2.16-.13c3.63,0,7.26,0,10.9,0,.67,0,.95-.16.92-.89-.06-1.06,0-2.13,0-3.19a6.91,6.91,0,0,1,7-6.82c1.34,0,2.69,0,4,0,.78,0,.93-.26.93-1a24.27,24.27,0,0,1,.11-4.59,7.15,7.15,0,0,1,6.94-6q13.82-.07,27.63,0a7.21,7.21,0,0,1,7.07,7c0,1.22,0,2.44,0,3.66,0,.72.22.91.91.88,1.34-.05,2.69,0,4,0a6.94,6.94,0,0,1,7,6.89c0,1,.06,1.94,0,2.91s.17,1.13,1.07,1.11c3.57,0,7.14,0,10.71,0,5.73,0,9.47,3.73,9.47,9.46,0,8.55,0,17.1,0,25.65,0,.86.2,1.15,1.11,1.24a35.18,35.18,0,0,1,3,69.42,19.89,19.89,0,0,1-3,.44c-.87.05-1.15.31-1.14,1.22,0,4.67,0,9.34,0,14,0,5.55-3.77,9.37-9.29,9.37H45.07a8.84,8.84,0,0,1-9.16-9.2Zm5.9,0v55.72c0,2.8,1,3.82,3.76,3.82H131c1.31,0,2.63,0,3.94,0a2.93,2.93,0,0,0,3.15-3.19c0-4.82,0-9.64,0-14.47,0-.68-.2-.9-.88-1C115,132.32,100.53,110.12,107.65,89c4.75-14.08,14.93-22,29.67-24.14.51-.07.78-.16.78-.76,0-8.9,0-17.79,0-26.69a2.87,2.87,0,0,0-3-3c-3.85,0-7.7,0-11.55,0-.57,0-.78.17-.77.75,0,1.34,0,2.69,0,4a7,7,0,0,1-6.94,6.87q-25.78,0-51.59,0A7,7,0,0,1,57.15,39c0-1.16-.06-2.32,0-3.48,0-.83-.18-1.13-1.08-1.11-3.54.05-7.08,0-10.62,0-2.59,0-3.65,1.06-3.65,3.64Zm99.25-23.35a29.29,29.29,0,1,0,29.27,29.13A29.35,29.35,0,0,0,141.06,70.54ZM89.94,40.2h25.18c1.45,0,1.74-.3,1.74-1.77V25.09c0-1.24-.31-1.55-1.56-1.55-2.44,0-4.89,0-7.33,0a2.93,2.93,0,0,1-3.07-3.07q0-3.24,0-6.48c0-1.59-.41-2-2-2H82.55c-2,0-4,0-6,0A1.37,1.37,0,0,0,75,13.56c0,2.16,0,4.33,0,6.48s-1.08,3.49-3.3,3.5h-7c-1.29,0-1.6.31-1.6,1.6q0,6.63,0,13.25c0,1.52.3,1.81,1.81,1.81Z"/><path class="cls-1" d="M98.51,65Q88,65,77.57,65c-2.37,0-3.84-1.92-3.07-4A2.85,2.85,0,0,1,77,59.08a5.85,5.85,0,0,1,.84,0h41.5c1.85,0,3,.77,3.36,2.24a2.88,2.88,0,0,1-2.28,3.59A7.22,7.22,0,0,1,119,65Q108.75,65,98.51,65Z"/><path class="cls-1" d="M98.46,140.59H77.53a3,3,0,0,1-3.18-3.49,2.92,2.92,0,0,1,2.57-2.38,7.86,7.86,0,0,1,.84,0h41.41c1.87,0,2.92.6,3.41,1.91a2.94,2.94,0,0,1-2.52,4c-.53.05-1.06,0-1.6,0Z"/><path class="cls-1" d="M88.4,96.87c3.67,0,7.33,0,11,0a2.94,2.94,0,0,1,2.82,4.21,3,3,0,0,1-3,1.71H85c-2.57,0-5.13,0-7.7,0a3,3,0,0,1-2.93-2.21,3,3,0,0,1,1.24-3.21,3.41,3.41,0,0,1,2-.49Z"/><path class="cls-1" d="M88.38,121.71c-3.66,0-7.32,0-11,0a2.92,2.92,0,0,1-2.82-4.14,2.84,2.84,0,0,1,2.77-1.75q11,0,22.07,0a2.95,2.95,0,1,1,0,5.89C95.71,121.73,92.05,121.71,88.38,121.71Z"/><path class="cls-1" d="M88.5,78c3.57,0,7.14,0,10.71,0,2,0,3.3,1.2,3.29,2.94a3,3,0,0,1-3.3,3H77.41A3,3,0,0,1,76.3,78.1,4.16,4.16,0,0,1,77.7,78Z"/><path class="cls-1" d="M57.59,126.9a2.92,2.92,0,0,1-2.22-.88c-1.74-1.72-3.48-3.42-5.18-5.18a2.95,2.95,0,1,1,4.18-4.15c.82.77,1.65,1.55,2.39,2.39.53.6.85.65,1.45,0,2.41-2.49,4.89-4.93,7.35-7.37a3,3,0,1,1,4.18,4.16l-9.95,10A3,3,0,0,1,57.59,126.9Z"/><path class="cls-1" d="M57.52,70.16a2.91,2.91,0,0,1-2.12-.84c-1.73-1.73-3.47-3.44-5.17-5.19a2.94,2.94,0,0,1,4.12-4.2c.87.8,1.72,1.64,2.52,2.52.47.52.75.51,1.25,0,2.54-2.59,5.12-5.15,7.7-7.7A2.8,2.8,0,0,1,69,54.14a2.76,2.76,0,0,1,1.77,2.55A2.86,2.86,0,0,1,69.93,59L59.63,69.27A2.85,2.85,0,0,1,57.52,70.16Z"/><path class="cls-1" d="M70.93,94.29a3,3,0,0,1-.87,2.35c-3.5,3.49-7,7-10.49,10.47a2.89,2.89,0,0,1-4.21,0c-1.74-1.71-3.47-3.43-5.17-5.18a2.94,2.94,0,0,1,4.13-4.19c.89.83,1.76,1.69,2.58,2.58.46.5.73.46,1.18,0q3.89-3.95,7.83-7.83a2.79,2.79,0,0,1,3.29-.6A2.73,2.73,0,0,1,70.93,94.29Z"/><path class="cls-1" d="M52.31,134.73a2.93,2.93,0,0,1,2.19.94c.82.82,1.66,1.62,2.44,2.47.43.47.69.41,1.11,0,2.55-2.58,5.13-5.14,7.7-7.71a2.91,2.91,0,0,1,3.1-.8,2.8,2.8,0,0,1,2,2.28,2.85,2.85,0,0,1-.86,2.66q-5.17,5.19-10.37,10.35a2.86,2.86,0,0,1-4.14.08c-1.83-1.75-3.62-3.55-5.37-5.38a2.7,2.7,0,0,1-.47-3.15A2.81,2.81,0,0,1,52.31,134.73Z"/><path class="cls-1" d="M52.24,78a3,3,0,0,1,2.26,1c.81.79,1.64,1.56,2.38,2.4.5.57.79.45,1.25,0,2.53-2.56,5.06-5.12,7.64-7.64a2.92,2.92,0,0,1,4.75.73A3,3,0,0,1,69.78,78l-8.56,8.57c-.53.53-1.06,1.08-1.6,1.59a2.87,2.87,0,0,1-4.14.08c-1.84-1.75-3.63-3.55-5.38-5.38a2.7,2.7,0,0,1-.47-3.23A2.78,2.78,0,0,1,52.24,78Z"/><path class="cls-1" d="M163.54,86.68a3.38,3.38,0,0,1-1.12,2.48q-8.78,8.75-17.53,17.52-4,4-8,8c-1.56,1.55-3.2,1.56-4.76,0q-6.28-6.25-12.55-12.54a3,3,0,0,1-.18-4.36,3,3,0,0,1,4.35.17c3.31,3.29,6.61,6.58,9.88,9.91.64.66,1,.78,1.72,0C143,100.2,150.64,92.59,158.27,85A3,3,0,0,1,161.5,84a2.83,2.83,0,0,1,2,2.28A2.47,2.47,0,0,1,163.54,86.68Z"/></svg>