<svg id="Capa_1" data-name="Capa 1" xmlns="http://www.w3.org/2000/svg" viewBox="0 0 224.68 199.45"><defs><style>.cls-1{fill:#6c2910;}</style></defs><path class="cls-1" d="M86.26,169.36a3.55,3.55,0,0,1-2.41-3.77q0-18.19,0-36.4c0-2.29,1-3.57,2.76-3.65s3.15,1.29,3.15,3.54q0,9.64,0,19.29c0,5.7,0,11.41,0,17.11,0,1.88-.62,3.24-2.46,3.88Z"/><path class="cls-1" d="M124.89,30.09A3.57,3.57,0,0,1,127.36,34c-.07,3.43,0,6.87,0,10.3a2.93,2.93,0,0,1-4.08,2.88,3,3,0,0,1-1.79-3c-.06-3.61,0-7.23,0-10.85a3.27,3.27,0,0,1,2.38-3.24Z"/><path class="cls-1" d="M156.93,85.62a32,32,0,0,1-26.05,31.9c-2.06.4-2.71,1-3.18,3.08-2,8.75-7.71,13.89-16.52,15.47a17.54,17.54,0,0,1-7-.31c-1.87-.43-3-1.9-2.64-3.51a3.1,3.1,0,0,1,3.77-2.27,14.91,14.91,0,0,0,6.58,0A13.75,13.75,0,0,0,122.23,118a13,13,0,0,0-2.35-8.84,4.56,4.56,0,0,1-.41-5.17,8.94,8.94,0,0,0-1.78-10.52,9.57,9.57,0,0,0-10.41-2.06c-2.79,1.14-3.54.95-5.21-1.53-1.89-2.79-4.5-4.7-7.16-6.72-7.54-5.72-20.63-3.1-26.47,4.53a4.87,4.87,0,0,1-3.87,2,13.77,13.77,0,0,0-3.84,26.79,5,5,0,0,1,3.92,3.78A20.37,20.37,0,0,0,71,130.06a2.87,2.87,0,0,1,.9,3.42,2.79,2.79,0,0,1-4.59,1.06,25.82,25.82,0,0,1-7.72-10.83,3.26,3.26,0,0,0-2-2.06,19.59,19.59,0,0,1-5.77-32.49A19,19,0,0,1,63.33,84a2,2,0,0,0,1.31-.85,26.85,26.85,0,0,1,20.79-8.91,21.42,21.42,0,0,1,6.68,1.07c.88.3,1.22.15,1.56-.77,3.44-9.25,9.71-15.87,18.92-19.41a31.33,31.33,0,0,1,28.54,2.44c9.21,5.52,14.31,13.83,15.78,24.4A26.43,26.43,0,0,1,156.93,85.62Zm-5.69.31a26.83,26.83,0,0,0-4.85-15.7c-6.77-9.05-15.81-13-26.95-11-10.22,1.87-17,8.12-20.54,17.92a1.12,1.12,0,0,0,.52,1.56,23,23,0,0,1,6.07,5.57,1.6,1.6,0,0,0,2,.6,14.61,14.61,0,0,1,10,1c5.26,2.46,9.36,8,8.76,15.82-.13,1.61-1.37,3.09-.83,4.65s1.58,3,1.94,4.62c.21,1,.65,1.09,1.58.94A26.71,26.71,0,0,0,151.24,85.93Z"/><path class="cls-1" d="M93.07,138.62q0-9.31,0-18.62a3,3,0,0,1,2.06-3.14,2.88,2.88,0,0,1,3.37,1.36,4.59,4.59,0,0,1,.46,2.36q0,14.67,0,29.35a63.19,63.19,0,0,1-.12,8.14A2.9,2.9,0,0,1,96,160.58a2.93,2.93,0,0,1-2.81-2.14,6.24,6.24,0,0,1-.15-1.61Q93.06,147.72,93.07,138.62Z"/><path class="cls-1" d="M80.56,131.42c0,6.21,0,12.42,0,18.63,0,2.43-2.09,3.85-4.13,2.88a3,3,0,0,1-1.64-3c0-4.26,0-8.52,0-12.78q0-11.57,0-23.11c0-.59,0-1.19,0-1.77a2.88,2.88,0,1,1,5.76.15c0,3.49,0,7,0,10.47v8.56Z"/><path class="cls-1" d="M171,88.51c-1.72,0-3.44,0-5.16,0-2,0-3.34-1.29-3.29-3a3,3,0,0,1,3.3-2.88c3.53,0,7.06,0,10.59,0a3.15,3.15,0,0,1,3.05,1.67,2.76,2.76,0,0,1-.29,3.06,3.49,3.49,0,0,1-3,1.19c-1.72,0-3.45,0-5.17,0Z"/><path class="cls-1" d="M164.36,48.51a2.62,2.62,0,0,1-1,2.22c-2.51,2.55-5,5.1-7.58,7.6-1.43,1.38-3.21,1.44-4.37.28a3,3,0,0,1,.17-4.39c2.59-2.65,5.26-5.24,7.89-7.85a2.8,2.8,0,0,1,3.25-.6A2.6,2.6,0,0,1,164.36,48.51Z"/><path class="cls-1" d="M161.47,125.55a2.69,2.69,0,0,1-2.27-1c-2.54-2.52-5.08-5-7.58-7.59-1.4-1.43-1.45-3.09-.24-4.35a2.92,2.92,0,0,1,4.35.17c2.59,2.52,5.12,5.12,7.67,7.68a2.91,2.91,0,0,1,.74,3.46A2.53,2.53,0,0,1,161.47,125.55Z"/><path class="cls-1" d="M98.23,56.38a2.89,2.89,0,0,1-4.13,2.73,4.65,4.65,0,0,1-1.08-.8q-3.72-3.68-7.4-7.38A3.77,3.77,0,0,1,84.41,49a2.75,2.75,0,0,1,1.19-3,2.67,2.67,0,0,1,3.16,0,14.62,14.62,0,0,1,2.59,2.38l5.56,5.56A3.61,3.61,0,0,1,98.23,56.38Z"/></svg>