<svg xmlns="http://www.w3.org/2000/svg" viewBox="0 0 247.48 237.94"><defs><style>.cls-1{isolation:isolate;}.cls-2{fill:#c7895e;mix-blend-mode:multiply;}.cls-3{fill:#fff;}</style></defs><g class="cls-1"><g id="Capa_2" data-name="Capa 2"><g id="Capa_1-2" data-name="Capa 1"><circle class="cls-2" cx="122.41" cy="72.07" r="72.07"/><circle class="cls-2" cx="72.07" cy="165.87" r="72.07"/><circle class="cls-2" cx="175.41" cy="165.87" r="72.07"/><path class="cls-3" d="M92,61.24v.64a6.75,6.75,0,0,1-.28,2,4.32,4.32,0,0,1-.82,1.53,3.51,3.51,0,0,1-1.27,1,4.11,4.11,0,0,1-1.67.33,4,4,0,0,1-1.64-.33,3.67,3.67,0,0,1-1.29-1,4.51,4.51,0,0,1-.84-1.53,6.44,6.44,0,0,1-.3-2v-.64a6.37,6.37,0,0,1,.3-2A4.33,4.33,0,0,1,85,57.68a3.49,3.49,0,0,1,1.29-1,4,4,0,0,1,1.64-.33,4.07,4.07,0,0,1,1.66.33,3.38,3.38,0,0,1,1.28,1,4.33,4.33,0,0,1,.83,1.53A6.69,6.69,0,0,1,92,61.24Zm-1.32.64v-.65a6.47,6.47,0,0,0-.18-1.6,3.2,3.2,0,0,0-.54-1.16,2.27,2.27,0,0,0-.86-.71,2.66,2.66,0,0,0-1.15-.25,2.57,2.57,0,0,0-1.13.25,2.34,2.34,0,0,0-.86.71,3.38,3.38,0,0,0-.55,1.16,6,6,0,0,0-.19,1.6v.65a6,6,0,0,0,.19,1.6,3.35,3.35,0,0,0,.56,1.17,2.36,2.36,0,0,0,.86.72,2.6,2.6,0,0,0,1.13.24,2.7,2.7,0,0,0,1.16-.24,2.25,2.25,0,0,0,.85-.72,3.33,3.33,0,0,0,.53-1.17A6.41,6.41,0,0,0,90.64,61.88Z"/><path class="cls-3" d="M93.76,56h1.29v9.19l-.11,1.45H93.76Zm6.35,6.83v.15a5.58,5.58,0,0,1-.19,1.51,3.66,3.66,0,0,1-.57,1.21,2.51,2.51,0,0,1-2.16,1.08,3.06,3.06,0,0,1-1.25-.24,2.58,2.58,0,0,1-.9-.71,3.65,3.65,0,0,1-.58-1.13,6.9,6.9,0,0,1-.31-1.48v-.64a7,7,0,0,1,.31-1.49A3.71,3.71,0,0,1,95,59.93a2.47,2.47,0,0,1,.9-.71,3.14,3.14,0,0,1,2.5,0,2.63,2.63,0,0,1,.91.78,3.66,3.66,0,0,1,.57,1.21A5.85,5.85,0,0,1,100.11,62.79Zm-1.29.15v-.15a5.06,5.06,0,0,0-.1-1,3,3,0,0,0-.33-.88,1.72,1.72,0,0,0-.61-.59,1.74,1.74,0,0,0-.92-.22,2,2,0,0,0-.84.17,2,2,0,0,0-.61.44,2.47,2.47,0,0,0-.4.64,3.74,3.74,0,0,0-.23.74v1.67a3.32,3.32,0,0,0,.36.93,2.16,2.16,0,0,0,.68.73,1.86,1.86,0,0,0,1.06.28,1.8,1.8,0,0,0,.89-.21,1.75,1.75,0,0,0,.6-.58,2.82,2.82,0,0,0,.34-.87A4.45,4.45,0,0,0,98.82,62.94Z"/><path class="cls-3" d="M106.1,64.61a1.13,1.13,0,0,0-.12-.51,1.11,1.11,0,0,0-.5-.44,4.2,4.2,0,0,0-1.11-.34,9,9,0,0,1-1.12-.31,3.46,3.46,0,0,1-.86-.44,1.77,1.77,0,0,1-.53-.6,1.62,1.62,0,0,1-.19-.81,1.86,1.86,0,0,1,.2-.84,2.19,2.19,0,0,1,.56-.7,2.74,2.74,0,0,1,.88-.48,3.69,3.69,0,0,1,1.14-.17,3.47,3.47,0,0,1,1.54.32,2.31,2.31,0,0,1,1,.85,2.08,2.08,0,0,1,.34,1.17H106a1.16,1.16,0,0,0-.18-.61,1.49,1.49,0,0,0-.54-.48,1.7,1.7,0,0,0-.85-.2,2.06,2.06,0,0,0-.86.16,1.11,1.11,0,0,0-.48.42,1,1,0,0,0-.15.52.84.84,0,0,0,.07.37.81.81,0,0,0,.26.3,2.18,2.18,0,0,0,.53.26c.22.07.51.15.86.23a7.3,7.3,0,0,1,1.52.5,2.24,2.24,0,0,1,.89.71,1.81,1.81,0,0,1,.29,1,1.93,1.93,0,0,1-.21.9,2,2,0,0,1-.58.7,2.94,2.94,0,0,1-.92.46,4,4,0,0,1-1.19.16,3.65,3.65,0,0,1-1.67-.35,2.54,2.54,0,0,1-1-.92,2.12,2.12,0,0,1-.36-1.18h1.29a1.27,1.27,0,0,0,.31.83,1.41,1.41,0,0,0,.68.44,2.42,2.42,0,0,0,.79.13,2.56,2.56,0,0,0,.89-.14,1.22,1.22,0,0,0,.54-.38A.92.92,0,0,0,106.1,64.61Z"/><path class="cls-3" d="M112.17,66.74a3.74,3.74,0,0,1-1.42-.26,3.11,3.11,0,0,1-1.09-.76,3.41,3.41,0,0,1-.7-1.15,4.2,4.2,0,0,1-.24-1.45v-.29A4.57,4.57,0,0,1,109,61.2a3.62,3.62,0,0,1,.74-1.22,3.17,3.17,0,0,1,1-.75A2.88,2.88,0,0,1,112,59a3.16,3.16,0,0,1,1.39.28,2.51,2.51,0,0,1,1,.77,3.37,3.37,0,0,1,.55,1.16,5.61,5.61,0,0,1,.18,1.46v.58h-5.6v-1h4.32v-.1a3.64,3.64,0,0,0-.2-1,1.81,1.81,0,0,0-.56-.77,1.59,1.59,0,0,0-1-.31,1.66,1.66,0,0,0-.8.19,1.63,1.63,0,0,0-.63.54,2.47,2.47,0,0,0-.41.88,4.38,4.38,0,0,0-.15,1.2v.29a3.27,3.27,0,0,0,.15,1,2.31,2.31,0,0,0,.44.82,1.89,1.89,0,0,0,.7.55,2,2,0,0,0,.93.21,2.25,2.25,0,0,0,1.15-.28,2.91,2.91,0,0,0,.83-.74l.78.61a3.67,3.67,0,0,1-.62.7,2.7,2.7,0,0,1-.92.54A3.54,3.54,0,0,1,112.17,66.74Z"/><path class="cls-3" d="M117.86,60.29V66.6h-1.28V59.11h1.24Zm2.34-1.22v1.19a1.57,1.57,0,0,0-.3,0h-.32a2.09,2.09,0,0,0-.78.14,1.56,1.56,0,0,0-.58.39,2,2,0,0,0-.37.59,2.57,2.57,0,0,0-.17.75l-.36.21a5.69,5.69,0,0,1,.13-1.27,3.46,3.46,0,0,1,.42-1.06,2.07,2.07,0,0,1,.72-.72,2.1,2.1,0,0,1,1-.26l.32,0A.77.77,0,0,1,120.2,59.07Z"/><path class="cls-3" d="M122,59.11l2.12,6.37.14,1.12h-.86l-2.71-7.49Zm1.71,6.34,2.06-6.34H127l-2.69,7.49h-.86Z"/><path class="cls-3" d="M132.9,62.06V63h-1.29a4.81,4.81,0,0,0-1,.09,2,2,0,0,0-.72.26,1.21,1.21,0,0,0-.44.43,1.17,1.17,0,0,0-.16.6,1.39,1.39,0,0,0,.16.65,1.15,1.15,0,0,0,.49.46,1.68,1.68,0,0,0,.79.17,2.08,2.08,0,0,0,1-.25,2.14,2.14,0,0,0,.71-.61,1.27,1.27,0,0,0,.29-.7l.55.62a1.83,1.83,0,0,1-.26.64,3.28,3.28,0,0,1-.58.68,2.94,2.94,0,0,1-.84.53,2.77,2.77,0,0,1-1.1.21,2.81,2.81,0,0,1-1.33-.3,2.16,2.16,0,0,1-.89-.8,2.05,2.05,0,0,1-.31-1.12,2.31,2.31,0,0,1,.23-1.07,2.06,2.06,0,0,1,.68-.76,3.08,3.08,0,0,1,1.07-.47,5.42,5.42,0,0,1,1.39-.16Zm-.22,3.26V61.46a1.59,1.59,0,0,0-.18-.77,1.19,1.19,0,0,0-.53-.51,1.9,1.9,0,0,0-.87-.18,2,2,0,0,0-.85.17,1.48,1.48,0,0,0-.57.43,1,1,0,0,0-.2.59H128.2a1.66,1.66,0,0,1,.2-.8,2.5,2.5,0,0,1,.6-.72,3.25,3.25,0,0,1,.94-.51,3.69,3.69,0,0,1,1.23-.19,3.47,3.47,0,0,1,1.45.28,2.15,2.15,0,0,1,1,.83,2.53,2.53,0,0,1,.36,1.4V65a5.56,5.56,0,0,0,.06.79,3.06,3.06,0,0,0,.2.73v.11h-1.33a2.14,2.14,0,0,1-.16-.59A5.89,5.89,0,0,1,132.68,65.32Z"/><path class="cls-3" d="M139,65.69a1.86,1.86,0,0,0,.85-.19,1.69,1.69,0,0,0,.64-.51,1.43,1.43,0,0,0,.28-.76H142a2.21,2.21,0,0,1-.45,1.24,3,3,0,0,1-1.07.92,3,3,0,0,1-1.47.35,3.38,3.38,0,0,1-1.47-.3,2.87,2.87,0,0,1-1-.81,3.58,3.58,0,0,1-.61-1.2,4.8,4.8,0,0,1-.21-1.43v-.29a4.8,4.8,0,0,1,.21-1.43,3.58,3.58,0,0,1,.61-1.2,3,3,0,0,1,1-.81A3.38,3.38,0,0,1,139,59a3.16,3.16,0,0,1,1.54.36,2.63,2.63,0,0,1,1,1,2.79,2.79,0,0,1,.41,1.38h-1.22a1.84,1.84,0,0,0-.26-.83,1.67,1.67,0,0,0-.61-.6A1.72,1.72,0,0,0,139,60a2,2,0,0,0-1,.23,1.73,1.73,0,0,0-.63.63,2.81,2.81,0,0,0-.34.86,5.23,5.23,0,0,0-.1,1V63a5.23,5.23,0,0,0,.1,1,3,3,0,0,0,.33.87,1.7,1.7,0,0,0,.63.62A2,2,0,0,0,139,65.69Z"/><path class="cls-3" d="M143.41,57.12a.77.77,0,0,1,.19-.53.72.72,0,0,1,.56-.21.74.74,0,0,1,.57.21.78.78,0,0,1,.2.53.73.73,0,0,1-.2.51.74.74,0,0,1-.57.21.69.69,0,0,1-.75-.72Zm1.38,2V66.6h-1.28V59.11Z"/><path class="cls-3" d="M146.51,62.94v-.16a4.64,4.64,0,0,1,.24-1.51,3.42,3.42,0,0,1,.68-1.21,3,3,0,0,1,1.07-.8,3.38,3.38,0,0,1,1.41-.29,3.48,3.48,0,0,1,1.43.29,3.17,3.17,0,0,1,1.08.8,3.76,3.76,0,0,1,.68,1.21,4.64,4.64,0,0,1,.24,1.51v.16a4.54,4.54,0,0,1-.24,1.5,3.76,3.76,0,0,1-.68,1.21,3.17,3.17,0,0,1-1.08.8,3.2,3.2,0,0,1-1.41.29,3.25,3.25,0,0,1-1.42-.29,3.17,3.17,0,0,1-1.08-.8,3.42,3.42,0,0,1-.68-1.21A4.54,4.54,0,0,1,146.51,62.94Zm1.28-.16v.16a4.44,4.44,0,0,0,.13,1.05,2.85,2.85,0,0,0,.4.88,1.93,1.93,0,0,0,.67.6,1.89,1.89,0,0,0,.94.22,1.85,1.85,0,0,0,1.58-.82,2.63,2.63,0,0,0,.4-.88,4,4,0,0,0,.14-1.05v-.16a4,4,0,0,0-.14-1.05,2.83,2.83,0,0,0-.4-.88,1.86,1.86,0,0,0-1.6-.83,1.92,1.92,0,0,0-.92.22,2,2,0,0,0-.67.61,3.08,3.08,0,0,0-.4.88A4.44,4.44,0,0,0,147.79,62.78ZM149.15,58l1.34-2H152l-1.86,2Z"/><path class="cls-3" d="M156.22,60.71V66.6h-1.28V59.11h1.21Zm-.3,1.86-.53,0a4.59,4.59,0,0,1,.22-1.42,3.5,3.5,0,0,1,.63-1.14,2.67,2.67,0,0,1,1-.75,2.77,2.77,0,0,1,1.23-.27,3.09,3.09,0,0,1,1,.15,1.92,1.92,0,0,1,.76.47,2.16,2.16,0,0,1,.48.84,4.22,4.22,0,0,1,.17,1.26V66.6h-1.29V61.68a2.31,2.31,0,0,0-.17-1,1.12,1.12,0,0,0-.51-.52,1.82,1.82,0,0,0-.82-.16,1.92,1.92,0,0,0-.87.2,2.08,2.08,0,0,0-.67.55,2.88,2.88,0,0,0-.44.81A3,3,0,0,0,155.92,62.57Z"/><path class="cls-3" d="M88.74,75.23v-.14A5.45,5.45,0,0,1,89,73.53a3.61,3.61,0,0,1,.6-1.21,2.67,2.67,0,0,1,2.15-1.06,3,3,0,0,1,1.24.25,2.58,2.58,0,0,1,.9.71,3.78,3.78,0,0,1,.59,1.13,7.69,7.69,0,0,1,.3,1.49v.64a6.91,6.91,0,0,1-.3,1.48,3.41,3.41,0,0,1-.59,1.12,2.47,2.47,0,0,1-.9.71,2.88,2.88,0,0,1-1.25.25,2.53,2.53,0,0,1-1.2-.29,2.84,2.84,0,0,1-.94-.79,3.81,3.81,0,0,1-.6-1.21A5.27,5.27,0,0,1,88.74,75.23ZM90,75.09v.14a5.07,5.07,0,0,0,.11,1.06,2.78,2.78,0,0,0,.36.86,1.75,1.75,0,0,0,.62.59A1.78,1.78,0,0,0,92,78a1.91,1.91,0,0,0,1-.27,2.14,2.14,0,0,0,.66-.71,3.94,3.94,0,0,0,.39-1V74.33a4.46,4.46,0,0,0-.24-.73,2.47,2.47,0,0,0-.4-.64,1.83,1.83,0,0,0-.61-.45,1.94,1.94,0,0,0-.84-.16,1.81,1.81,0,0,0-.9.21,1.87,1.87,0,0,0-.62.6,2.84,2.84,0,0,0-.36.87A5.14,5.14,0,0,0,90,75.09Zm3.75,2.35V68.26h1.29V78.9H93.89Z"/><path class="cls-3" d="M100.17,79a3.63,3.63,0,0,1-1.42-.27A3.21,3.21,0,0,1,97,76.87a4.26,4.26,0,0,1-.24-1.46v-.29A4.6,4.6,0,0,1,97,73.49a3.56,3.56,0,0,1,.73-1.21,3.08,3.08,0,0,1,2.27-1,3.28,3.28,0,0,1,1.39.28,2.6,2.6,0,0,1,1,.77,3.35,3.35,0,0,1,.56,1.17,5.56,5.56,0,0,1,.18,1.46v.57h-5.6v-1h4.31v-.1a3,3,0,0,0-.2-1,1.76,1.76,0,0,0-.56-.78,1.63,1.63,0,0,0-1-.3,1.77,1.77,0,0,0-.8.18,1.82,1.82,0,0,0-.63.55,2.66,2.66,0,0,0-.41.88A4.27,4.27,0,0,0,98,75.12v.29a3.68,3.68,0,0,0,.14,1,2.59,2.59,0,0,0,.44.82,2.09,2.09,0,0,0,.7.55,2.41,2.41,0,0,0,2.09-.08,2.74,2.74,0,0,0,.82-.74l.78.62a3.63,3.63,0,0,1-.62.7,2.94,2.94,0,0,1-.92.54A3.54,3.54,0,0,1,100.17,79Z"/><path class="cls-3" d="M106,68.26V78.9h-1.29V68.26Z"/><path class="cls-3" d="M112.83,72.84v8.94h-1.29V71.4h1.18Zm5,2.25v.14a5.65,5.65,0,0,1-.19,1.52,3.76,3.76,0,0,1-.57,1.21,2.56,2.56,0,0,1-.91.79A2.61,2.61,0,0,1,115,79a3.15,3.15,0,0,1-1.26-.24,2.49,2.49,0,0,1-.93-.68,3.52,3.52,0,0,1-.6-1.08,6.45,6.45,0,0,1-.31-1.42v-.78a7,7,0,0,1,.31-1.49,3.81,3.81,0,0,1,.61-1.13,2.56,2.56,0,0,1,.92-.71,3,3,0,0,1,1.24-.25,2.85,2.85,0,0,1,1.26.28,2.55,2.55,0,0,1,.92.78,3.38,3.38,0,0,1,.56,1.21A5.85,5.85,0,0,1,117.88,75.09Zm-1.29.14v-.14a4.54,4.54,0,0,0-.11-1.06,2.63,2.63,0,0,0-.37-.87,1.68,1.68,0,0,0-1.53-.81,2,2,0,0,0-.84.16,1.83,1.83,0,0,0-.61.45,2.23,2.23,0,0,0-.4.64,3.12,3.12,0,0,0-.24.73v1.8a4.62,4.62,0,0,0,.39.91,2,2,0,0,0,.67.68,1.85,1.85,0,0,0,1,.26,1.81,1.81,0,0,0,.9-.21,1.87,1.87,0,0,0,.62-.6,2.78,2.78,0,0,0,.37-.88A4.48,4.48,0,0,0,116.59,75.23Z"/><path class="cls-3" d="M124.35,75.59l.53,0a5.58,5.58,0,0,1-.16,1.39,3,3,0,0,1-.5,1.09,2.36,2.36,0,0,1-.91.73A3.23,3.23,0,0,1,122,79a3.18,3.18,0,0,1-1-.16,2.11,2.11,0,0,1-.78-.49,2.24,2.24,0,0,1-.5-.87,4,4,0,0,1-.18-1.28V71.4h1.28v4.85a2.49,2.49,0,0,0,.12.84,1.27,1.27,0,0,0,.31.52,1.17,1.17,0,0,0,.44.26,1.81,1.81,0,0,0,.51.08,2.34,2.34,0,0,0,1.3-.32,1.82,1.82,0,0,0,.69-.85A3.19,3.19,0,0,0,124.35,75.59Zm-2.59-5.29,1.35-2h1.54l-1.85,2Zm2.34,6.87V71.4h1.29v7.5h-1.22Z"/><path class="cls-3" d="M127.33,68.26h1.29v9.18l-.11,1.46h-1.18Zm6.35,6.83v.14a5.65,5.65,0,0,1-.19,1.52,3.76,3.76,0,0,1-.57,1.21A2.58,2.58,0,0,1,130.77,79a2.88,2.88,0,0,1-1.25-.25,2.42,2.42,0,0,1-.91-.71A3.59,3.59,0,0,1,128,77a6.35,6.35,0,0,1-.3-1.48v-.64a6.44,6.44,0,0,1,.3-1.49,3.76,3.76,0,0,1,.58-1.13,2.58,2.58,0,0,1,.9-.71,3,3,0,0,1,1.24-.25,2.82,2.82,0,0,1,1.26.28,2.55,2.55,0,0,1,.92.78,3.76,3.76,0,0,1,.56,1.21A5.85,5.85,0,0,1,133.68,75.09Zm-1.28.14v-.14a5.14,5.14,0,0,0-.11-1.06,2.81,2.81,0,0,0-.33-.87,1.72,1.72,0,0,0-.6-.6,1.87,1.87,0,0,0-.92-.21,2,2,0,0,0-.85.16,1.79,1.79,0,0,0-.6.45,2.5,2.5,0,0,0-.41.64,3.65,3.65,0,0,0-.23.73V76a3.58,3.58,0,0,0,.36.94,2.26,2.26,0,0,0,.68.73,1.88,1.88,0,0,0,1.06.28,1.78,1.78,0,0,0,.89-.21,1.62,1.62,0,0,0,.6-.59,2.77,2.77,0,0,0,.35-.86A5.07,5.07,0,0,0,132.4,75.23Z"/><path class="cls-3" d="M136.7,68.26V78.9h-1.29V68.26Z"/><path class="cls-3" d="M138.76,69.42a.8.8,0,0,1,.19-.53.74.74,0,0,1,.57-.22.74.74,0,0,1,.56.22.76.76,0,0,1,.2.53.72.72,0,0,1-.2.5.7.7,0,0,1-.56.22.71.71,0,0,1-.57-.22A.76.76,0,0,1,138.76,69.42Zm1.39,2v7.5h-1.29V71.4Z"/><path class="cls-3" d="M145.21,78a2,2,0,0,0,.84-.18,1.81,1.81,0,0,0,.64-.52,1.43,1.43,0,0,0,.28-.75h1.22a2.24,2.24,0,0,1-.45,1.24,3.1,3.1,0,0,1-1.07.92,3.15,3.15,0,0,1-1.46.35,3.4,3.4,0,0,1-1.48-.3,3,3,0,0,1-1-.82,3.44,3.44,0,0,1-.61-1.19,4.8,4.8,0,0,1-.21-1.43V75a4.76,4.76,0,0,1,.21-1.43,3.58,3.58,0,0,1,.61-1.2,3,3,0,0,1,1-.82,3.4,3.4,0,0,1,1.48-.3,3.14,3.14,0,0,1,1.53.36,2.7,2.7,0,0,1,1,1,2.83,2.83,0,0,1,.41,1.39H147a1.84,1.84,0,0,0-.26-.84,1.67,1.67,0,0,0-.61-.6,1.7,1.7,0,0,0-.89-.22,2,2,0,0,0-1,.23,1.63,1.63,0,0,0-.63.62,2.54,2.54,0,0,0-.33.87,4.51,4.51,0,0,0-.11,1v.29a5.32,5.32,0,0,0,.1,1,3,3,0,0,0,.33.86,1.78,1.78,0,0,0,.63.62A1.92,1.92,0,0,0,145.21,78Z"/><path class="cls-3" d="M149.29,75.23v-.15a4.55,4.55,0,0,1,.24-1.51,3.49,3.49,0,0,1,.68-1.21,3,3,0,0,1,1.07-.81,3.38,3.38,0,0,1,1.41-.29,3.48,3.48,0,0,1,1.43.29,3.07,3.07,0,0,1,1.08.81,3.49,3.49,0,0,1,.68,1.21,4.55,4.55,0,0,1,.24,1.51v.15a4.6,4.6,0,0,1-.24,1.51A3.68,3.68,0,0,1,155.2,78a3.17,3.17,0,0,1-1.08.8,3.35,3.35,0,0,1-1.41.29,3.4,3.4,0,0,1-1.42-.29,3.17,3.17,0,0,1-1.08-.8,3.68,3.68,0,0,1-.68-1.21A4.6,4.6,0,0,1,149.29,75.23Zm1.28-.15v.15a4,4,0,0,0,.14,1.06,2.81,2.81,0,0,0,.39.88,2.13,2.13,0,0,0,.67.6,2,2,0,0,0,.94.21,1.81,1.81,0,0,0,1.58-.81,2.83,2.83,0,0,0,.4-.88,4,4,0,0,0,.14-1.06v-.15a4,4,0,0,0-.14-1,2.73,2.73,0,0,0-.4-.88,2,2,0,0,0-.66-.61,1.89,1.89,0,0,0-.94-.22,1.82,1.82,0,0,0-.92.22,2,2,0,0,0-.67.61,2.71,2.71,0,0,0-.39.88A4,4,0,0,0,150.57,75.08Z"/><path class="cls-3" d="M21.49,159.6h1.33a4.3,4.3,0,0,1-.54,1.71,3.17,3.17,0,0,1-1.26,1.2,4.22,4.22,0,0,1-2,.44,3.83,3.83,0,0,1-1.61-.33,3.74,3.74,0,0,1-1.25-1,4.52,4.52,0,0,1-.8-1.47,6.47,6.47,0,0,1-.28-1.93v-1a6.35,6.35,0,0,1,.28-1.92,4.31,4.31,0,0,1,.81-1.48,3.63,3.63,0,0,1,1.28-1,4.14,4.14,0,0,1,1.69-.33,4.08,4.08,0,0,1,1.93.42,3.13,3.13,0,0,1,1.23,1.19,4.43,4.43,0,0,1,.54,1.76H21.49a3.57,3.57,0,0,0-.36-1.22,1.77,1.77,0,0,0-.75-.78,2.45,2.45,0,0,0-1.26-.28,2.57,2.57,0,0,0-1.18.26,2.39,2.39,0,0,0-.86.72,3.25,3.25,0,0,0-.51,1.13,5.56,5.56,0,0,0-.18,1.46v1a6.25,6.25,0,0,0,.16,1.4,3.65,3.65,0,0,0,.47,1.14,2.48,2.48,0,0,0,.81.77,2.3,2.3,0,0,0,1.17.28,2.91,2.91,0,0,0,1.36-.27,1.82,1.82,0,0,0,.76-.77A3.8,3.8,0,0,0,21.49,159.6Z"/><path class="cls-3" d="M24.1,159.15V159a4.6,4.6,0,0,1,.24-1.51,3.58,3.58,0,0,1,.68-1.21,3.07,3.07,0,0,1,1.07-.81,3.74,3.74,0,0,1,2.84,0,3.2,3.2,0,0,1,1.08.81,3.42,3.42,0,0,1,.68,1.21,4.6,4.6,0,0,1,.24,1.51v.16a4.54,4.54,0,0,1-.24,1.5,3.51,3.51,0,0,1-.68,1.21,3.23,3.23,0,0,1-1.07.8,3.62,3.62,0,0,1-2.84,0,3.17,3.17,0,0,1-1.08-.8,3.68,3.68,0,0,1-.68-1.21A4.54,4.54,0,0,1,24.1,159.15Zm1.29-.16v.16a4,4,0,0,0,.13,1,2.83,2.83,0,0,0,.4.88,1.85,1.85,0,0,0,1.6.82,1.92,1.92,0,0,0,.92-.22,2,2,0,0,0,.67-.6,3.06,3.06,0,0,0,.39-.88,4,4,0,0,0,.14-1V159a4,4,0,0,0-.14-1.05,2.73,2.73,0,0,0-.4-.88,2,2,0,0,0-.66-.61,1.88,1.88,0,0,0-.93-.22,1.85,1.85,0,0,0-.93.22,1.92,1.92,0,0,0-.66.61,2.73,2.73,0,0,0-.4.88A4,4,0,0,0,25.39,159Z"/><path class="cls-3" d="M33.81,156.8v6H32.52v-7.5h1.22Zm-.26,2-.6,0a5.43,5.43,0,0,1,.2-1.43,3.41,3.41,0,0,1,.58-1.14,2.6,2.6,0,0,1,1-.75,3.12,3.12,0,0,1,1.31-.26,3,3,0,0,1,1,.15,1.89,1.89,0,0,1,.77.46,2.2,2.2,0,0,1,.51.82,3.55,3.55,0,0,1,.18,1.21v5H37.13v-4.93a1.94,1.94,0,0,0-.19-.94,1.18,1.18,0,0,0-.56-.52,2,2,0,0,0-.85-.16,1.92,1.92,0,0,0-.94.2A1.55,1.55,0,0,0,34,157a2.23,2.23,0,0,0-.33.81A4.22,4.22,0,0,0,33.55,158.78Zm4.85-.71-.86.27a3.91,3.91,0,0,1,.21-1.19,3,3,0,0,1,.57-1,2.6,2.6,0,0,1,.93-.7,2.89,2.89,0,0,1,1.27-.26,3.21,3.21,0,0,1,1.07.16,1.87,1.87,0,0,1,.79.48,2,2,0,0,1,.49.85,3.92,3.92,0,0,1,.17,1.21v4.93H41.75v-4.94a2,2,0,0,0-.2-1,1.09,1.09,0,0,0-.55-.49,2.2,2.2,0,0,0-.85-.14,2,2,0,0,0-.75.14,1.59,1.59,0,0,0-.55.4,1.75,1.75,0,0,0-.33.58A2,2,0,0,0,38.4,158.07Z"/><path class="cls-3" d="M46.26,156.76v8.93H45V155.31h1.18ZM51.31,159v.15a5.57,5.57,0,0,1-.2,1.51,3.55,3.55,0,0,1-.56,1.21,2.54,2.54,0,0,1-.91.79,2.64,2.64,0,0,1-1.24.29,3.08,3.08,0,0,1-1.26-.24,2.34,2.34,0,0,1-.93-.68A3.53,3.53,0,0,1,45.6,161a5.94,5.94,0,0,1-.3-1.42v-.78a6,6,0,0,1,.31-1.49,3.62,3.62,0,0,1,.6-1.12,2.48,2.48,0,0,1,.92-.72,3.06,3.06,0,0,1,1.25-.24,2.77,2.77,0,0,1,1.25.27,2.47,2.47,0,0,1,.92.78,3.66,3.66,0,0,1,.57,1.21A6.29,6.29,0,0,1,51.31,159Zm-1.29.15V159a4.53,4.53,0,0,0-.12-1.06,2.84,2.84,0,0,0-.36-.87,1.78,1.78,0,0,0-.63-.59,1.75,1.75,0,0,0-.91-.22,2,2,0,0,0-.84.16,1.69,1.69,0,0,0-.6.45,2.26,2.26,0,0,0-.41.64,3.74,3.74,0,0,0-.23.74V160a3.68,3.68,0,0,0,.39.91,1.83,1.83,0,0,0,1.71,1,1.8,1.8,0,0,0,.89-.22,1.9,1.9,0,0,0,.63-.6,3,3,0,0,0,.36-.88A4.44,4.44,0,0,0,50,159.15Z"/><path class="cls-3" d="M54.22,156.49v6.32H52.94v-7.5h1.25Zm2.35-1.22v1.19l-.3,0h-.32a2.14,2.14,0,0,0-.79.14,1.61,1.61,0,0,0-.57.39,1.69,1.69,0,0,0-.37.59,2.94,2.94,0,0,0-.18.75l-.36.21a5.77,5.77,0,0,1,.14-1.28,3.65,3.65,0,0,1,.41-1.05,2.09,2.09,0,0,1,.73-.72,2,2,0,0,1,1-.26l.32,0Z"/><path class="cls-3" d="M60.86,163a3.63,3.63,0,0,1-1.42-.27,3.21,3.21,0,0,1-1.78-1.9,4.24,4.24,0,0,1-.24-1.45V159a4.64,4.64,0,0,1,.27-1.63,3.66,3.66,0,0,1,.73-1.21,3.14,3.14,0,0,1,1.06-.76,3,3,0,0,1,1.21-.25,3.28,3.28,0,0,1,1.39.27,2.63,2.63,0,0,1,1,.78,3.3,3.3,0,0,1,.56,1.16,5.61,5.61,0,0,1,.18,1.46v.57h-5.6v-1H62.5v-.1a3.24,3.24,0,0,0-.21-1,1.82,1.82,0,0,0-.56-.78,1.63,1.63,0,0,0-1-.3,1.8,1.8,0,0,0-.8.18,1.93,1.93,0,0,0-.63.55,2.87,2.87,0,0,0-.41.88,4.68,4.68,0,0,0-.14,1.19v.3a3.32,3.32,0,0,0,.15,1,2.57,2.57,0,0,0,.43.82,2.09,2.09,0,0,0,.7.55,2.06,2.06,0,0,0,.94.2,2.28,2.28,0,0,0,1.15-.27,2.91,2.91,0,0,0,.82-.75l.78.62a3.35,3.35,0,0,1-.62.7,3,3,0,0,1-.91.54A3.6,3.6,0,0,1,60.86,163Z"/><path class="cls-3" d="M66.56,156.92v5.89H65.27v-7.5h1.22Zm-.31,1.86-.53,0a4.42,4.42,0,0,1,.23-1.43,3.5,3.5,0,0,1,.62-1.14,2.75,2.75,0,0,1,2.2-1,3.07,3.07,0,0,1,1,.15,1.72,1.72,0,0,1,.76.47,2.16,2.16,0,0,1,.48.84,4.17,4.17,0,0,1,.17,1.26v4.91H69.88v-4.93a2.26,2.26,0,0,0-.17-.94,1.12,1.12,0,0,0-.51-.52,1.82,1.82,0,0,0-.82-.16,1.85,1.85,0,0,0-.87.2,2.08,2.08,0,0,0-.67.55,2.86,2.86,0,0,0-.43.81A2.76,2.76,0,0,0,66.25,158.78Z"/><path class="cls-3" d="M77.47,160.82a1.13,1.13,0,0,0-.12-.51,1.07,1.07,0,0,0-.49-.44,4.08,4.08,0,0,0-1.11-.34,9.13,9.13,0,0,1-1.13-.31,3.75,3.75,0,0,1-.85-.44,1.92,1.92,0,0,1-.54-.6,1.76,1.76,0,0,1-.18-.81,1.85,1.85,0,0,1,.19-.84,2.22,2.22,0,0,1,.56-.7,2.76,2.76,0,0,1,.88-.48,3.95,3.95,0,0,1,2.68.14,2.49,2.49,0,0,1,1,.85,2.14,2.14,0,0,1,.34,1.18H77.4a1.09,1.09,0,0,0-.19-.61,1.48,1.48,0,0,0-.53-.49,1.74,1.74,0,0,0-.86-.19,1.94,1.94,0,0,0-.86.16,1.16,1.16,0,0,0-.48.41,1,1,0,0,0-.14.53.87.87,0,0,0,.07.37.72.72,0,0,0,.26.3,2.1,2.1,0,0,0,.52.25,8.44,8.44,0,0,0,.87.24,6.93,6.93,0,0,1,1.52.5,2.21,2.21,0,0,1,.88.71,1.71,1.71,0,0,1,.29,1,2,2,0,0,1-.2.9,2.07,2.07,0,0,1-.59.7,2.78,2.78,0,0,1-.91.46,4.39,4.39,0,0,1-1.19.16,3.73,3.73,0,0,1-1.68-.35,2.68,2.68,0,0,1-1-.92,2.22,2.22,0,0,1-.35-1.18h1.29a1.32,1.32,0,0,0,.3.83,1.54,1.54,0,0,0,.68.44,2.84,2.84,0,0,0,.8.13,2.5,2.5,0,0,0,.88-.14,1.35,1.35,0,0,0,.55-.38A.94.94,0,0,0,77.47,160.82Z"/><path class="cls-3" d="M80.44,153.33a.75.75,0,0,1,.19-.53.72.72,0,0,1,.56-.21.74.74,0,0,1,.57.21.76.76,0,0,1,.2.53.73.73,0,0,1-.2.51.74.74,0,0,1-.57.21.69.69,0,0,1-.75-.72Zm1.38,2v7.5H80.53v-7.5Z"/><path class="cls-3" d="M83.54,159.15V159a4.6,4.6,0,0,1,.24-1.51,3.42,3.42,0,0,1,.68-1.21,3.07,3.07,0,0,1,1.07-.81,3.38,3.38,0,0,1,1.41-.28,3.48,3.48,0,0,1,1.43.28,3.2,3.2,0,0,1,1.08.81,3.58,3.58,0,0,1,.68,1.21,4.6,4.6,0,0,1,.24,1.51v.16a4.54,4.54,0,0,1-.24,1.5,3.68,3.68,0,0,1-.68,1.21,3.17,3.17,0,0,1-1.08.8A3.35,3.35,0,0,1,87,163a3.4,3.4,0,0,1-1.42-.29,3.17,3.17,0,0,1-1.08-.8,3.51,3.51,0,0,1-.68-1.21A4.54,4.54,0,0,1,83.54,159.15Zm1.28-.16v.16a4.44,4.44,0,0,0,.13,1,3.08,3.08,0,0,0,.4.88,2,2,0,0,0,.67.6,2,2,0,0,0,.94.22,1.92,1.92,0,0,0,.92-.22,1.9,1.9,0,0,0,.66-.6,2.83,2.83,0,0,0,.4-.88,4,4,0,0,0,.14-1V159a4,4,0,0,0-.14-1.05,2.73,2.73,0,0,0-.4-.88,2,2,0,0,0-.67-.61,2.05,2.05,0,0,0-1.85,0,2,2,0,0,0-.67.61,3,3,0,0,0-.4.88A4.44,4.44,0,0,0,84.82,159Zm1.36-4.78,1.35-2h1.54l-1.86,2Z"/><path class="cls-3" d="M93.25,156.92v5.89H92v-7.5h1.21Zm-.3,1.86-.53,0a4.71,4.71,0,0,1,.22-1.43,3.71,3.71,0,0,1,.63-1.14,2.74,2.74,0,0,1,2.19-1,3.09,3.09,0,0,1,1,.15,1.72,1.72,0,0,1,.76.47,2.16,2.16,0,0,1,.48.84,4.17,4.17,0,0,1,.17,1.26v4.91H96.58v-4.93a2.26,2.26,0,0,0-.17-.94,1.12,1.12,0,0,0-.51-.52,2.08,2.08,0,0,0-1.69,0,2.08,2.08,0,0,0-.67.55,2.88,2.88,0,0,0-.44.81A3,3,0,0,0,93,158.78Z"/><path class="cls-3" d="M14.89,171.44v-.14a5.47,5.47,0,0,1,.21-1.57,3.65,3.65,0,0,1,.6-1.2,2.79,2.79,0,0,1,.94-.78,2.58,2.58,0,0,1,1.22-.28,2.79,2.79,0,0,1,1.23.25,2.32,2.32,0,0,1,.9.71,3.66,3.66,0,0,1,.59,1.13,7.54,7.54,0,0,1,.3,1.49v.63a6.44,6.44,0,0,1-.3,1.49,3.41,3.41,0,0,1-.59,1.12,2.49,2.49,0,0,1-.9.71,3,3,0,0,1-1.25.24,2.53,2.53,0,0,1-1.2-.28,2.85,2.85,0,0,1-.94-.8,3.75,3.75,0,0,1-.6-1.2A5.27,5.27,0,0,1,14.89,171.44Zm1.29-.14v.14a4.9,4.9,0,0,0,.11,1.05,2.84,2.84,0,0,0,.36.87,1.84,1.84,0,0,0,.62.59,1.78,1.78,0,0,0,.89.21,1.86,1.86,0,0,0,1.05-.27,2,2,0,0,0,.66-.72,3.72,3.72,0,0,0,.39-1v-1.67a4.91,4.91,0,0,0-.24-.74,2.41,2.41,0,0,0-.4-.63,1.89,1.89,0,0,0-.6-.45,2,2,0,0,0-.85-.17,1.82,1.82,0,0,0-.9.22,1.78,1.78,0,0,0-.62.6,2.84,2.84,0,0,0-.36.87A5.07,5.07,0,0,0,16.18,171.3Zm3.75,2.35v-9.18h1.29v10.64H20Z"/><path class="cls-3" d="M26.32,175.24A3.63,3.63,0,0,1,24.9,175a3.18,3.18,0,0,1-1.08-.75,3.29,3.29,0,0,1-.7-1.15,4.3,4.3,0,0,1-.24-1.46v-.29a4.6,4.6,0,0,1,.27-1.63,3.7,3.7,0,0,1,.73-1.22,3.11,3.11,0,0,1,1.06-.75,3,3,0,0,1,1.21-.26,3.13,3.13,0,0,1,1.39.28,2.51,2.51,0,0,1,1,.77,3.35,3.35,0,0,1,.56,1.17,5.54,5.54,0,0,1,.18,1.45v.58h-5.6v-1.05H28v-.09a3.17,3.17,0,0,0-.21-1,1.71,1.71,0,0,0-.56-.78,1.63,1.63,0,0,0-1-.3,1.8,1.8,0,0,0-.8.18,1.79,1.79,0,0,0-.63.54,3,3,0,0,0-.41.88,4.39,4.39,0,0,0-.14,1.2v.29a3.22,3.22,0,0,0,.15,1,2.3,2.3,0,0,0,.43.82,2.12,2.12,0,0,0,.7.56,2.41,2.41,0,0,0,2.09-.08,2.74,2.74,0,0,0,.82-.74l.78.62a3.63,3.63,0,0,1-.62.7,3,3,0,0,1-.91.54A3.61,3.61,0,0,1,26.32,175.24Z"/><path class="cls-3" d="M37.25,174.19a1.86,1.86,0,0,0,.85-.19,1.69,1.69,0,0,0,.64-.51,1.43,1.43,0,0,0,.28-.75h1.22a2.29,2.29,0,0,1-.45,1.23,3,3,0,0,1-1.08.92,3,3,0,0,1-1.46.35,3.38,3.38,0,0,1-1.47-.29,2.9,2.9,0,0,1-1-.82,3.8,3.8,0,0,1-.62-1.2,5.09,5.09,0,0,1-.2-1.43v-.29a5.15,5.15,0,0,1,.2-1.43,3.64,3.64,0,0,1,.62-1.19,2.9,2.9,0,0,1,1-.82,3.38,3.38,0,0,1,1.47-.3,3.16,3.16,0,0,1,1.54.36,2.77,2.77,0,0,1,1,1,2.94,2.94,0,0,1,.41,1.39H39a1.84,1.84,0,0,0-.26-.84,1.67,1.67,0,0,0-.61-.6,1.77,1.77,0,0,0-.9-.22,1.85,1.85,0,0,0-1,.23,1.73,1.73,0,0,0-.64.62,3,3,0,0,0-.33.87,5,5,0,0,0-.1,1v.29a4.5,4.5,0,0,0,.1,1,2.54,2.54,0,0,0,.33.87,1.7,1.7,0,0,0,.63.62A2,2,0,0,0,37.25,174.19Z"/><path class="cls-3" d="M41.34,171.44v-.16a4.54,4.54,0,0,1,.24-1.5,3.61,3.61,0,0,1,.67-1.22,3.17,3.17,0,0,1,1.08-.8,3.6,3.6,0,0,1,2.83,0,3.12,3.12,0,0,1,1.09.8,3.81,3.81,0,0,1,.68,1.22,4.81,4.81,0,0,1,.23,1.5v.16a4.92,4.92,0,0,1-.23,1.51,3.71,3.71,0,0,1-.68,1.2,3.07,3.07,0,0,1-1.08.81,3.38,3.38,0,0,1-1.41.28,3.48,3.48,0,0,1-1.43-.28,3,3,0,0,1-1.07-.81,3.38,3.38,0,0,1-.68-1.2A4.64,4.64,0,0,1,41.34,171.44Zm1.28-.16v.16a4.46,4.46,0,0,0,.13,1.06,2.67,2.67,0,0,0,.4.87,1.83,1.83,0,0,0,.67.6,1.89,1.89,0,0,0,.94.22,1.84,1.84,0,0,0,.92-.22,1.8,1.8,0,0,0,.66-.6,2.67,2.67,0,0,0,.4-.87,4,4,0,0,0,.13-1.06v-.16a4,4,0,0,0-.13-1.05,2.83,2.83,0,0,0-.4-.88,1.93,1.93,0,0,0-.67-.6,2.05,2.05,0,0,0-1.85,0,1.93,1.93,0,0,0-.67.6,2.83,2.83,0,0,0-.4.88A4.44,4.44,0,0,0,42.62,171.28Z"/><path class="cls-3" d="M51.05,169.21v5.9H49.77v-7.5H51Zm-.3,1.86-.54,0a4.64,4.64,0,0,1,.23-1.42,3.5,3.5,0,0,1,.63-1.14,2.72,2.72,0,0,1,1-.75,2.77,2.77,0,0,1,1.23-.27,3.13,3.13,0,0,1,1,.15,1.9,1.9,0,0,1,.76.48,2,2,0,0,1,.48.84,4.1,4.1,0,0,1,.17,1.25v4.92H54.38v-4.93a2.07,2.07,0,0,0-.18-.94,1,1,0,0,0-.5-.52,1.84,1.84,0,0,0-.82-.17,1.92,1.92,0,0,0-.87.2,2.11,2.11,0,0,0-.67.56,2.69,2.69,0,0,0-.44.8A3.11,3.11,0,0,0,50.75,171.07Z"/><path class="cls-3" d="M60.61,174.19a1.85,1.85,0,0,0,.84-.19,1.69,1.69,0,0,0,.64-.51,1.43,1.43,0,0,0,.28-.75h1.22a2.21,2.21,0,0,1-.45,1.23,3,3,0,0,1-1.07.92,3,3,0,0,1-1.46.35,3.4,3.4,0,0,1-1.48-.29,2.9,2.9,0,0,1-1-.82,3.58,3.58,0,0,1-.61-1.2,4.76,4.76,0,0,1-.21-1.43v-.29a4.8,4.8,0,0,1,.21-1.43,3.44,3.44,0,0,1,.61-1.19,2.9,2.9,0,0,1,1-.82,3.4,3.4,0,0,1,1.48-.3,3.14,3.14,0,0,1,1.53.36,2.7,2.7,0,0,1,1,1,2.83,2.83,0,0,1,.41,1.39H62.37a1.84,1.84,0,0,0-.26-.84,1.67,1.67,0,0,0-.61-.6,1.7,1.7,0,0,0-.89-.22,1.86,1.86,0,0,0-1,.23,1.63,1.63,0,0,0-.63.62,2.77,2.77,0,0,0-.34.87,5,5,0,0,0-.1,1v.29a5.23,5.23,0,0,0,.1,1,3,3,0,0,0,.33.87,1.78,1.78,0,0,0,.63.62A2,2,0,0,0,60.61,174.19Z"/><path class="cls-3" d="M68.14,175.24a3.54,3.54,0,0,1-1.41-.26,3.12,3.12,0,0,1-1.09-.75,3.45,3.45,0,0,1-.7-1.15,4.3,4.3,0,0,1-.24-1.46v-.29A4.6,4.6,0,0,1,65,169.7a3.7,3.7,0,0,1,.73-1.22,3.11,3.11,0,0,1,1.06-.75,3,3,0,0,1,1.22-.26,3.12,3.12,0,0,1,1.38.28,2.43,2.43,0,0,1,1,.77,3.35,3.35,0,0,1,.56,1.17,5.54,5.54,0,0,1,.18,1.45v.58h-5.6v-1.05h4.32v-.09a3.17,3.17,0,0,0-.21-1,1.71,1.71,0,0,0-.56-.78,1.62,1.62,0,0,0-1-.3,1.82,1.82,0,0,0-.81.18,1.79,1.79,0,0,0-.63.54,3,3,0,0,0-.41.88,4.82,4.82,0,0,0-.14,1.2v.29a3.22,3.22,0,0,0,.15,1,2.47,2.47,0,0,0,.43.82,2.12,2.12,0,0,0,.7.56,2.41,2.41,0,0,0,2.09-.08,2.77,2.77,0,0,0,.83-.74l.77.62a3.63,3.63,0,0,1-.62.7,2.89,2.89,0,0,1-.91.54A3.61,3.61,0,0,1,68.14,175.24Z"/><path class="cls-3" d="M73.84,169.05V178H72.55V167.61h1.18Zm5,2.25v.14a5.64,5.64,0,0,1-.2,1.52,3.91,3.91,0,0,1-.56,1.2,2.57,2.57,0,0,1-.91.8,2.63,2.63,0,0,1-1.24.28,3.08,3.08,0,0,1-1.26-.23,2.46,2.46,0,0,1-.93-.69,3.34,3.34,0,0,1-.61-1.08,6.33,6.33,0,0,1-.31-1.42v-.77a6.86,6.86,0,0,1,.31-1.49,3.92,3.92,0,0,1,.61-1.13,2.46,2.46,0,0,1,.92-.71,2.91,2.91,0,0,1,1.25-.25,2.68,2.68,0,0,1,1.25.28,2.55,2.55,0,0,1,.92.78,3.61,3.61,0,0,1,.57,1.2A6.31,6.31,0,0,1,78.89,171.3Zm-1.29.14v-.14a4.47,4.47,0,0,0-.12-1.06,2.84,2.84,0,0,0-.36-.87,1.9,1.9,0,0,0-.63-.6,1.86,1.86,0,0,0-.91-.22,2,2,0,0,0-.84.17,1.83,1.83,0,0,0-.61.45,2.41,2.41,0,0,0-.4.63,3.33,3.33,0,0,0-.23.74v1.8a4.27,4.27,0,0,0,.38.91,2,2,0,0,0,.67.68,1.9,1.9,0,0,0,1,.26,1.7,1.7,0,0,0,.89-.22,1.8,1.8,0,0,0,.63-.6,2.84,2.84,0,0,0,.36-.87A4.47,4.47,0,0,0,77.6,171.44Z"/><path class="cls-3" d="M83.66,167.61v1h-4v-1ZM81,165.79h1.28v7.46a1.08,1.08,0,0,0,.12.57.57.57,0,0,0,.3.26,1.34,1.34,0,0,0,.4.06l.34,0,.27-.05v1.05l-.39.09a3.54,3.54,0,0,1-.6,0,2,2,0,0,1-.86-.18,1.42,1.42,0,0,1-.63-.63,2.62,2.62,0,0,1-.23-1.19Z"/><path class="cls-3" d="M84.82,171.44v-.16a4.54,4.54,0,0,1,.24-1.5,3.63,3.63,0,0,1,.68-1.22,3,3,0,0,1,1.07-.8,3.38,3.38,0,0,1,1.41-.29,3.45,3.45,0,0,1,1.43.29,3.17,3.17,0,0,1,1.08.8,3.63,3.63,0,0,1,.68,1.22,4.54,4.54,0,0,1,.24,1.5v.16a4.64,4.64,0,0,1-.24,1.51,3.54,3.54,0,0,1-.68,1.2,3.08,3.08,0,0,1-1.08.81,3.35,3.35,0,0,1-1.41.28,3.4,3.4,0,0,1-1.42-.28,3.08,3.08,0,0,1-1.08-.81,3.54,3.54,0,0,1-.68-1.2A4.64,4.64,0,0,1,84.82,171.44Zm1.28-.16v.16a4,4,0,0,0,.14,1.06,2.66,2.66,0,0,0,.39.87,1.91,1.91,0,0,0,.67.6,1.89,1.89,0,0,0,.94.22,1.82,1.82,0,0,0,.92-.22,1.73,1.73,0,0,0,.66-.6,2.67,2.67,0,0,0,.4-.87,4,4,0,0,0,.14-1.06v-.16a4,4,0,0,0-.14-1.05,2.83,2.83,0,0,0-.4-.88,2,2,0,0,0-.66-.6,1.89,1.89,0,0,0-.94-.22,1.84,1.84,0,0,0-.92.22,1.93,1.93,0,0,0-.67.6,2.81,2.81,0,0,0-.39.88A4,4,0,0,0,86.1,171.28Z"/><path class="cls-3" d="M97.62,173.12a1.14,1.14,0,0,0-.12-.52,1.12,1.12,0,0,0-.49-.43,4,4,0,0,0-1.12-.35,7.51,7.51,0,0,1-1.12-.31,3,3,0,0,1-.85-.44,1.7,1.7,0,0,1-.54-.6,1.62,1.62,0,0,1-.19-.81,1.92,1.92,0,0,1,.2-.84,2.31,2.31,0,0,1,.56-.7,2.55,2.55,0,0,1,.88-.47,3.41,3.41,0,0,1,1.14-.18,3.47,3.47,0,0,1,1.54.32,2.38,2.38,0,0,1,1,.85,2.08,2.08,0,0,1,.34,1.17H97.54a1.13,1.13,0,0,0-.18-.6,1.36,1.36,0,0,0-.54-.49,1.7,1.7,0,0,0-.85-.19,1.91,1.91,0,0,0-.86.16,1.09,1.09,0,0,0-.48.41,1,1,0,0,0-.15.53.87.87,0,0,0,.07.37.89.89,0,0,0,.26.3,2.66,2.66,0,0,0,.53.25,8.45,8.45,0,0,0,.86.23,7.3,7.3,0,0,1,1.52.5,2.26,2.26,0,0,1,.89.72,1.78,1.78,0,0,1,.29,1,2,2,0,0,1-.2.9,2.08,2.08,0,0,1-.59.7,2.84,2.84,0,0,1-.92.46,4,4,0,0,1-1.19.16,3.53,3.53,0,0,1-1.67-.35,2.52,2.52,0,0,1-1-.91,2.17,2.17,0,0,1-.35-1.19h1.28a1.32,1.32,0,0,0,.31.84,1.47,1.47,0,0,0,.68.43,2.47,2.47,0,0,0,.79.13,2.31,2.31,0,0,0,.89-.14,1.17,1.17,0,0,0,.54-.38A.84.84,0,0,0,97.62,173.12Z"/><path class="cls-3" d="M18.21,186.49a1.82,1.82,0,0,0,.84-.19,1.64,1.64,0,0,0,.64-.52A1.44,1.44,0,0,0,20,185h1.21a2.28,2.28,0,0,1-.44,1.24,3.13,3.13,0,0,1-2.54,1.27,3.35,3.35,0,0,1-1.47-.3,2.9,2.9,0,0,1-1-.81,3.6,3.6,0,0,1-.62-1.2,4.8,4.8,0,0,1-.2-1.43v-.29a4.8,4.8,0,0,1,.2-1.43,3.6,3.6,0,0,1,.62-1.2,2.79,2.79,0,0,1,1-.81,3.35,3.35,0,0,1,1.47-.3,3.27,3.27,0,0,1,1.54.35,2.75,2.75,0,0,1,1,1,2.86,2.86,0,0,1,.41,1.39H20a2,2,0,0,0-.26-.84,1.81,1.81,0,0,0-.61-.59,1.77,1.77,0,0,0-.9-.23,2,2,0,0,0-1,.23,1.9,1.9,0,0,0-.63.63,3.07,3.07,0,0,0-.33.86,4.5,4.5,0,0,0-.1,1v.29a4.5,4.5,0,0,0,.1,1,2.6,2.6,0,0,0,.32.86,1.9,1.9,0,0,0,.63.63A2,2,0,0,0,18.21,186.49Z"/><path class="cls-3" d="M24,176.76V187.4H22.74V176.76Z"/><path class="cls-3" d="M30.73,182.86v.9h-1.3a5.59,5.59,0,0,0-1,.08,2.41,2.41,0,0,0-.72.26,1.27,1.27,0,0,0-.45.44,1.16,1.16,0,0,0-.15.6,1.42,1.42,0,0,0,.16.65,1.25,1.25,0,0,0,.48.46,1.75,1.75,0,0,0,.8.17,2.22,2.22,0,0,0,1-.25,2.25,2.25,0,0,0,.71-.61,1.27,1.27,0,0,0,.29-.7l.55.62a2,2,0,0,1-.27.64,2.94,2.94,0,0,1-.57.68,3.24,3.24,0,0,1-.84.53,2.77,2.77,0,0,1-1.1.21,2.81,2.81,0,0,1-1.33-.3,2.17,2.17,0,0,1-.89-.8,2.06,2.06,0,0,1-.32-1.12,2.28,2.28,0,0,1,.24-1.07,2.17,2.17,0,0,1,.68-.77,3.21,3.21,0,0,1,1.06-.46,5.5,5.5,0,0,1,1.4-.16Zm-.22,3.26v-3.86a1.59,1.59,0,0,0-.18-.77,1.24,1.24,0,0,0-.53-.51,1.93,1.93,0,0,0-.87-.18,2,2,0,0,0-.85.17,1.41,1.41,0,0,0-.57.43.94.94,0,0,0-.21.58H26a1.67,1.67,0,0,1,.21-.79,2.38,2.38,0,0,1,.6-.72,3.12,3.12,0,0,1,.94-.51,3.69,3.69,0,0,1,1.23-.19,3.64,3.64,0,0,1,1.45.27,2.29,2.29,0,0,1,1,.84,2.53,2.53,0,0,1,.36,1.4v3.49a5.56,5.56,0,0,0,.06.79,3.2,3.2,0,0,0,.2.73v.11H30.71a2.78,2.78,0,0,1-.15-.59A4.31,4.31,0,0,1,30.51,186.12Z"/><path class="cls-3" d="M34.37,179.91l2.11,6.37.15,1.12h-.86l-2.72-7.49Zm1.71,6.33,2.05-6.33h1.31l-2.69,7.49h-.86Z"/><path class="cls-3" d="M43.79,187.54a3.56,3.56,0,0,1-1.42-.27,3.08,3.08,0,0,1-1.09-.75,3.41,3.41,0,0,1-.7-1.15,4.24,4.24,0,0,1-.24-1.45v-.29a4.66,4.66,0,0,1,.27-1.64,3.68,3.68,0,0,1,.74-1.21,3.2,3.2,0,0,1,1-.76,3,3,0,0,1,1.22-.25A3.31,3.31,0,0,1,45,180a2.63,2.63,0,0,1,1,.78,3.37,3.37,0,0,1,.55,1.16,5.61,5.61,0,0,1,.18,1.46V184H41.1v-1h4.32v-.1a3.64,3.64,0,0,0-.2-1,1.81,1.81,0,0,0-.56-.77,1.59,1.59,0,0,0-1-.31,1.77,1.77,0,0,0-.8.18,1.86,1.86,0,0,0-.64.55,2.65,2.65,0,0,0-.4.88,4.28,4.28,0,0,0-.15,1.2v.29a3.27,3.27,0,0,0,.15,1,2.4,2.4,0,0,0,.44.82,2,2,0,0,0,1.63.75,2.25,2.25,0,0,0,1.15-.27,2.91,2.91,0,0,0,.83-.74l.77.61a3.3,3.3,0,0,1-.61.7,3.06,3.06,0,0,1-.92.54A3.54,3.54,0,0,1,43.79,187.54Z"/><path class="cls-3" d="M160.1,160.26a1.81,1.81,0,0,0-.1-.63,1.33,1.33,0,0,0-.38-.49,2.87,2.87,0,0,0-.73-.42,9.83,9.83,0,0,0-1.18-.41,11,11,0,0,1-1.35-.5,4.69,4.69,0,0,1-1-.62,2.54,2.54,0,0,1-.65-.82,2.18,2.18,0,0,1-.23-1,2.49,2.49,0,0,1,.24-1.09,2.52,2.52,0,0,1,.7-.87,3.28,3.28,0,0,1,1.08-.58,4.45,4.45,0,0,1,1.41-.2,4,4,0,0,1,1.93.43,3,3,0,0,1,1.2,1.13,2.81,2.81,0,0,1,.42,1.48h-1.33a2,2,0,0,0-.24-1,1.68,1.68,0,0,0-.74-.7,2.69,2.69,0,0,0-1.24-.25,2.87,2.87,0,0,0-1.18.21,1.51,1.51,0,0,0-.92,1.42,1.21,1.21,0,0,0,.14.58,1.35,1.35,0,0,0,.42.48,3,3,0,0,0,.74.41,7,7,0,0,0,1.07.36,11.75,11.75,0,0,1,1.48.54,4.59,4.59,0,0,1,1,.67,2.41,2.41,0,0,1,.6.84,2.71,2.71,0,0,1,.2,1.06,2.52,2.52,0,0,1-.25,1.11,2.36,2.36,0,0,1-.72.85,3.39,3.39,0,0,1-1.11.55,5,5,0,0,1-1.44.19,5.34,5.34,0,0,1-1.38-.19,4,4,0,0,1-1.22-.59,3,3,0,0,1-.88-1,2.59,2.59,0,0,1-.33-1.32h1.33a1.71,1.71,0,0,0,.75,1.5,2.54,2.54,0,0,0,.8.36,4,4,0,0,0,.93.11,3.17,3.17,0,0,0,1.18-.19,1.59,1.59,0,0,0,.74-.56A1.42,1.42,0,0,0,160.1,160.26Z"/><path class="cls-3" d="M162.62,159.15V159a4.88,4.88,0,0,1,.23-1.51,3.76,3.76,0,0,1,.68-1.21,3.2,3.2,0,0,1,1.08-.81,3.72,3.72,0,0,1,2.83,0,3,3,0,0,1,1.08.81,3.6,3.6,0,0,1,.69,1.21,4.88,4.88,0,0,1,.23,1.51v.16a4.81,4.81,0,0,1-.23,1.5,3.7,3.7,0,0,1-.69,1.21,3,3,0,0,1-1.07.8,3.62,3.62,0,0,1-2.84,0,3,3,0,0,1-1.07-.8,3.7,3.7,0,0,1-.69-1.21A4.81,4.81,0,0,1,162.62,159.15Zm1.28-.16v.16a4,4,0,0,0,.13,1,2.83,2.83,0,0,0,.4.88,2,2,0,0,0,.67.6,2.08,2.08,0,0,0,1.86,0,2.1,2.1,0,0,0,.66-.6,2.83,2.83,0,0,0,.4-.88,4,4,0,0,0,.13-1V159a4,4,0,0,0-.13-1.05,3,3,0,0,0-.4-.88,2,2,0,0,0-.67-.61,1.85,1.85,0,0,0-.93-.22,1.88,1.88,0,0,0-.93.22,2,2,0,0,0-.66.61,2.73,2.73,0,0,0-.4.88A4,4,0,0,0,163.9,159Z"/><path class="cls-3" d="M172.33,156.92v5.89h-1.28v-7.5h1.21Zm-.3,1.86-.54,0a4.71,4.71,0,0,1,.23-1.43,3.91,3.91,0,0,1,.62-1.14,2.91,2.91,0,0,1,1-.75,3,3,0,0,1,1.24-.26,3.13,3.13,0,0,1,1,.15,1.77,1.77,0,0,1,.76.47,2.16,2.16,0,0,1,.48.84,4.2,4.2,0,0,1,.16,1.26v4.91h-1.28v-4.93a2.1,2.1,0,0,0-.18-.94,1.06,1.06,0,0,0-.5-.52,1.85,1.85,0,0,0-.82-.16,1.8,1.8,0,0,0-.87.2,2,2,0,0,0-.67.55,2.88,2.88,0,0,0-.44.81A3,3,0,0,0,172,158.78Z"/><path class="cls-3" d="M178.57,159.15V159a5.45,5.45,0,0,1,.21-1.56,3.71,3.71,0,0,1,.6-1.21,2.66,2.66,0,0,1,.93-.78,2.73,2.73,0,0,1,1.22-.27,3,3,0,0,1,1.24.24,2.5,2.5,0,0,1,.9.72,3.59,3.59,0,0,1,.58,1.12,7,7,0,0,1,.3,1.49v.64a6.93,6.93,0,0,1-.29,1.48,3.83,3.83,0,0,1-.59,1.12,2.42,2.42,0,0,1-.91.71,2.83,2.83,0,0,1-1.24.25,2.6,2.6,0,0,1-1.21-.29,2.69,2.69,0,0,1-.93-.79,3.81,3.81,0,0,1-.6-1.21A5.2,5.2,0,0,1,178.57,159.15Zm1.28-.15v.15a4.44,4.44,0,0,0,.12,1,2.47,2.47,0,0,0,.35.86,1.84,1.84,0,0,0,.62.59,1.8,1.8,0,0,0,.89.21,1.86,1.86,0,0,0,1-.27,2.07,2.07,0,0,0,.67-.71,4.35,4.35,0,0,0,.38-1v-1.66a3.2,3.2,0,0,0-.24-.74,2.23,2.23,0,0,0-.4-.64,1.69,1.69,0,0,0-.6-.45,2,2,0,0,0-.84-.16,1.78,1.78,0,0,0-.91.22,1.84,1.84,0,0,0-.62.59,2.6,2.6,0,0,0-.35.87A4.53,4.53,0,0,0,179.85,159Zm3.76,2.36v-9.19h1.29v10.64h-1.18Z"/><path class="cls-3" d="M190,163a3.56,3.56,0,0,1-1.42-.27,3.22,3.22,0,0,1-1.09-.75,3.51,3.51,0,0,1-.7-1.15,4.24,4.24,0,0,1-.24-1.45V159a4.64,4.64,0,0,1,.27-1.63,3.68,3.68,0,0,1,.74-1.21,3.2,3.2,0,0,1,1.05-.76,3,3,0,0,1,1.22-.25,3.31,3.31,0,0,1,1.39.27,2.63,2.63,0,0,1,1,.78,3.28,3.28,0,0,1,.55,1.16,5.61,5.61,0,0,1,.18,1.46v.57h-5.6v-1h4.32v-.1a3.56,3.56,0,0,0-.2-1,1.91,1.91,0,0,0-.56-.78,1.65,1.65,0,0,0-1-.3,1.77,1.77,0,0,0-.8.18,1.86,1.86,0,0,0-.64.55,2.65,2.65,0,0,0-.4.88,4.25,4.25,0,0,0-.15,1.19v.3a3.32,3.32,0,0,0,.15,1,2.4,2.4,0,0,0,.44.82,2,2,0,0,0,1.63.75,2.25,2.25,0,0,0,1.15-.27,3,3,0,0,0,.83-.75l.77.62a3.3,3.3,0,0,1-.61.7,3.06,3.06,0,0,1-.92.54A3.54,3.54,0,0,1,190,163Z"/><path class="cls-3" d="M194.07,159.15V159a4.88,4.88,0,0,1,.23-1.51,3.76,3.76,0,0,1,.68-1.21,3.2,3.2,0,0,1,1.08-.81,3.72,3.72,0,0,1,2.83,0,3,3,0,0,1,1.08.81,3.6,3.6,0,0,1,.69,1.21,4.88,4.88,0,0,1,.23,1.51v.16a4.81,4.81,0,0,1-.23,1.5,3.7,3.7,0,0,1-.69,1.21,3,3,0,0,1-1.07.8,3.62,3.62,0,0,1-2.84,0,3,3,0,0,1-1.07-.8,3.7,3.7,0,0,1-.69-1.21A4.81,4.81,0,0,1,194.07,159.15Zm1.28-.16v.16a4,4,0,0,0,.13,1,2.83,2.83,0,0,0,.4.88,2,2,0,0,0,.67.6,2.08,2.08,0,0,0,1.86,0,2.1,2.1,0,0,0,.66-.6,2.83,2.83,0,0,0,.4-.88,4,4,0,0,0,.13-1V159a4,4,0,0,0-.13-1.05,3,3,0,0,0-.4-.88,2,2,0,0,0-.67-.61,2.05,2.05,0,0,0-1.85,0,2,2,0,0,0-.67.61,2.73,2.73,0,0,0-.4.88A4,4,0,0,0,195.35,159Z"/><path class="cls-3" d="M206.86,160.82a1.13,1.13,0,0,0-.12-.51,1.07,1.07,0,0,0-.49-.44,4.08,4.08,0,0,0-1.11-.34,9.13,9.13,0,0,1-1.13-.31,3.75,3.75,0,0,1-.85-.44,1.92,1.92,0,0,1-.54-.6,1.76,1.76,0,0,1-.18-.81,1.85,1.85,0,0,1,.19-.84,2.22,2.22,0,0,1,.56-.7,2.76,2.76,0,0,1,.88-.48,3.95,3.95,0,0,1,2.68.14,2.49,2.49,0,0,1,1,.85,2.14,2.14,0,0,1,.34,1.18h-1.28a1.09,1.09,0,0,0-.19-.61,1.48,1.48,0,0,0-.53-.49,1.74,1.74,0,0,0-.86-.19,1.94,1.94,0,0,0-.86.16,1.16,1.16,0,0,0-.48.41,1,1,0,0,0-.14.53.87.87,0,0,0,.07.37.72.72,0,0,0,.26.3,2.1,2.1,0,0,0,.52.25,8.44,8.44,0,0,0,.87.24,6.93,6.93,0,0,1,1.52.5,2.21,2.21,0,0,1,.88.71,1.71,1.71,0,0,1,.29,1,2,2,0,0,1-.2.9,2.07,2.07,0,0,1-.59.7,2.78,2.78,0,0,1-.91.46,4.39,4.39,0,0,1-1.19.16,3.73,3.73,0,0,1-1.68-.35,2.68,2.68,0,0,1-1-.92,2.22,2.22,0,0,1-.35-1.18h1.29a1.32,1.32,0,0,0,.3.83,1.54,1.54,0,0,0,.68.44,2.84,2.84,0,0,0,.8.13,2.5,2.5,0,0,0,.88-.14,1.35,1.35,0,0,0,.55-.38A.94.94,0,0,0,206.86,160.82Z"/><path class="cls-3" d="M213,159.15V159a5.45,5.45,0,0,1,.21-1.56,3.53,3.53,0,0,1,.61-1.21,2.66,2.66,0,0,1,.93-.78,2.7,2.7,0,0,1,1.22-.27,2.93,2.93,0,0,1,1.23.24,2.34,2.34,0,0,1,.9.72,3.41,3.41,0,0,1,.59,1.12,7.69,7.69,0,0,1,.3,1.49v.64a6.35,6.35,0,0,1-.3,1.48,3.41,3.41,0,0,1-.59,1.12,2.32,2.32,0,0,1-.9.71A2.88,2.88,0,0,1,216,163a2.53,2.53,0,0,1-1.2-.29,2.69,2.69,0,0,1-.93-.79,3.63,3.63,0,0,1-.61-1.21A5.2,5.2,0,0,1,213,159.15Zm1.29-.15v.15a5,5,0,0,0,.11,1,2.68,2.68,0,0,0,.36.86,1.75,1.75,0,0,0,.62.59,1.8,1.8,0,0,0,.89.21,1.86,1.86,0,0,0,1.05-.27,2,2,0,0,0,.66-.71,3.94,3.94,0,0,0,.39-1v-1.66a3.2,3.2,0,0,0-.24-.74,2.47,2.47,0,0,0-.4-.64,1.79,1.79,0,0,0-.6-.45,2,2,0,0,0-.84-.16,1.73,1.73,0,0,0-.91.22,1.75,1.75,0,0,0-.62.59,2.84,2.84,0,0,0-.36.87A5.14,5.14,0,0,0,214.31,159Zm3.76,2.36v-9.19h1.28v10.64h-1.17Z"/><path class="cls-3" d="M224.45,163a3.55,3.55,0,0,1-1.41-.27,3.12,3.12,0,0,1-1.09-.75,3.35,3.35,0,0,1-.7-1.15,4.24,4.24,0,0,1-.24-1.45V159a4.64,4.64,0,0,1,.27-1.63,3.66,3.66,0,0,1,.73-1.21,3.14,3.14,0,0,1,1.06-.76,3,3,0,0,1,1.22-.25,3.27,3.27,0,0,1,1.38.27,2.55,2.55,0,0,1,1,.78,3.3,3.3,0,0,1,.56,1.16,5.61,5.61,0,0,1,.18,1.46v.57h-5.6v-1h4.32v-.1a3.24,3.24,0,0,0-.21-1,1.82,1.82,0,0,0-.56-.78,1.62,1.62,0,0,0-1-.3,1.82,1.82,0,0,0-.81.18,1.93,1.93,0,0,0-.63.55,2.87,2.87,0,0,0-.41.88,4.68,4.68,0,0,0-.14,1.19v.3a3.32,3.32,0,0,0,.15,1,2.57,2.57,0,0,0,.43.82,2.09,2.09,0,0,0,.7.55,2.06,2.06,0,0,0,.94.2,2.28,2.28,0,0,0,1.15-.27,3,3,0,0,0,.83-.75l.77.62a3.35,3.35,0,0,1-.62.7,2.89,2.89,0,0,1-.91.54A3.6,3.6,0,0,1,224.45,163Z"/><path class="cls-3" d="M159.31,171.44v-.16a4.54,4.54,0,0,1,.24-1.5,3.63,3.63,0,0,1,.68-1.22,3,3,0,0,1,1.07-.8,3.38,3.38,0,0,1,1.41-.29,3.45,3.45,0,0,1,1.43.29,3.17,3.17,0,0,1,1.08.8,3.63,3.63,0,0,1,.68,1.22,4.54,4.54,0,0,1,.24,1.5v.16a4.64,4.64,0,0,1-.24,1.51,3.54,3.54,0,0,1-.68,1.2,3.13,3.13,0,0,1-1.07.81,3.74,3.74,0,0,1-2.84,0,3.07,3.07,0,0,1-1.08-.81,3.54,3.54,0,0,1-.68-1.2A4.64,4.64,0,0,1,159.31,171.44Zm1.29-.16v.16a4,4,0,0,0,.13,1.06,2.48,2.48,0,0,0,.4.87,1.8,1.8,0,0,0,.66.6,1.89,1.89,0,0,0,.94.22,1.88,1.88,0,0,0,1.59-.82,2.88,2.88,0,0,0,.39-.87,4,4,0,0,0,.14-1.06v-.16a4,4,0,0,0-.14-1.05,2.83,2.83,0,0,0-.4-.88,2,2,0,0,0-.66-.6,1.89,1.89,0,0,0-.94-.22,1.84,1.84,0,0,0-.92.22,1.81,1.81,0,0,0-.66.6,2.62,2.62,0,0,0-.4.88A4,4,0,0,0,160.6,171.28Z"/><path class="cls-3" d="M169,169.05V178h-1.29V167.61h1.18Zm5.05,2.25v.14a5.64,5.64,0,0,1-.2,1.52,3.91,3.91,0,0,1-.56,1.2,2.57,2.57,0,0,1-.91.8,2.63,2.63,0,0,1-1.24.28,3.08,3.08,0,0,1-1.26-.23,2.46,2.46,0,0,1-.93-.69,3.34,3.34,0,0,1-.61-1.08,6.33,6.33,0,0,1-.31-1.42v-.77a6.86,6.86,0,0,1,.31-1.49,3.92,3.92,0,0,1,.61-1.13,2.46,2.46,0,0,1,.92-.71,2.88,2.88,0,0,1,1.25-.25,2.68,2.68,0,0,1,1.25.28,2.55,2.55,0,0,1,.92.78,3.61,3.61,0,0,1,.57,1.2A6.31,6.31,0,0,1,174.08,171.3Zm-1.29.14v-.14a4.47,4.47,0,0,0-.12-1.06,2.84,2.84,0,0,0-.36-.87,1.9,1.9,0,0,0-.63-.6,1.86,1.86,0,0,0-.91-.22,2,2,0,0,0-.84.17,1.83,1.83,0,0,0-.61.45,2.41,2.41,0,0,0-.4.63,3.33,3.33,0,0,0-.23.74v1.8a4.27,4.27,0,0,0,.38.91,2,2,0,0,0,.67.68,1.9,1.9,0,0,0,1,.26,1.7,1.7,0,0,0,.89-.22,1.8,1.8,0,0,0,.63-.6,2.84,2.84,0,0,0,.36-.87A4.47,4.47,0,0,0,172.79,171.44Z"/><path class="cls-3" d="M175.72,165.62a.73.73,0,0,1,.19-.52.69.69,0,0,1,.56-.22.71.71,0,0,1,.57.22.73.73,0,0,1-.57,1.24.69.69,0,0,1-.75-.72Zm1.38,2v7.5h-1.29v-7.5Z"/><path class="cls-3" d="M180.44,169.21v5.9h-1.28v-7.5h1.21Zm-.3,1.86-.54,0a5,5,0,0,1,.23-1.42,3.5,3.5,0,0,1,.63-1.14,2.72,2.72,0,0,1,1-.75,2.77,2.77,0,0,1,1.23-.27,3.13,3.13,0,0,1,1,.15,1.83,1.83,0,0,1,.76.48,2,2,0,0,1,.48.84,4.1,4.1,0,0,1,.17,1.25v4.92h-1.29v-4.93a2.07,2.07,0,0,0-.18-.94,1,1,0,0,0-.5-.52,1.84,1.84,0,0,0-.82-.17,1.92,1.92,0,0,0-.87.2,2.11,2.11,0,0,0-.67.56,2.69,2.69,0,0,0-.44.8A3.11,3.11,0,0,0,180.14,171.07Z"/><path class="cls-3" d="M187,165.62a.77.77,0,0,1,.19-.52.71.71,0,0,1,.57-.22.7.7,0,0,1,.56.22.77.77,0,0,1-1.13,1A.76.76,0,0,1,187,165.62Zm1.39,2v7.5H187.1v-7.5Z"/><path class="cls-3" d="M190.11,171.44v-.16a4.54,4.54,0,0,1,.23-1.5,3.81,3.81,0,0,1,.68-1.22,3.13,3.13,0,0,1,1.07-.8,3.62,3.62,0,0,1,2.84,0,3.17,3.17,0,0,1,1.08.8,3.47,3.47,0,0,1,.68,1.22,4.54,4.54,0,0,1,.24,1.5v.16a4.64,4.64,0,0,1-.24,1.51,3.38,3.38,0,0,1-.68,1.2,3,3,0,0,1-1.07.81,3.74,3.74,0,0,1-2.84,0,3.08,3.08,0,0,1-1.08-.81,3.71,3.71,0,0,1-.68-1.2A4.64,4.64,0,0,1,190.11,171.44Zm1.28-.16v.16a4,4,0,0,0,.13,1.06,2.67,2.67,0,0,0,.4.87,1.83,1.83,0,0,0,.67.6,1.85,1.85,0,0,0,.93.22,1.85,1.85,0,0,0,1.59-.82,2.9,2.9,0,0,0,.4-.87,4,4,0,0,0,.13-1.06v-.16a4,4,0,0,0-.13-1.05,2.85,2.85,0,0,0-.41-.88,2,2,0,0,0-2.52-.6,2,2,0,0,0-.66.6,2.83,2.83,0,0,0-.4.88A4,4,0,0,0,191.39,171.28Zm1.36-4.78,1.34-2h1.54l-1.85,2Z"/><path class="cls-3" d="M199.82,169.21v5.9h-1.28v-7.5h1.21Zm-.31,1.86-.53,0a4.64,4.64,0,0,1,.23-1.42,3.48,3.48,0,0,1,.62-1.14,2.91,2.91,0,0,1,1-.75,2.82,2.82,0,0,1,1.24-.27,3.13,3.13,0,0,1,1,.15,1.86,1.86,0,0,1,.75.48,2.15,2.15,0,0,1,.49.84,4.13,4.13,0,0,1,.16,1.25v4.92h-1.29v-4.93a2.08,2.08,0,0,0-.17-.94,1,1,0,0,0-.51-.52,1.8,1.8,0,0,0-.81-.17,1.92,1.92,0,0,0-.87.2,2,2,0,0,0-.67.56,2.49,2.49,0,0,0-.44.8A3.12,3.12,0,0,0,199.51,171.07Z"/><path class="cls-3" d="M209.57,171.44v-.14a5.47,5.47,0,0,1,.21-1.57,3.67,3.67,0,0,1,.61-1.2,2.66,2.66,0,0,1,.93-.78,2.58,2.58,0,0,1,1.22-.28,2.79,2.79,0,0,1,1.23.25,2.32,2.32,0,0,1,.9.71,3.46,3.46,0,0,1,.59,1.13,7.54,7.54,0,0,1,.3,1.49v.63a6.44,6.44,0,0,1-.3,1.49,3.41,3.41,0,0,1-.59,1.12,2.41,2.41,0,0,1-.9.71,3,3,0,0,1-1.25.24,2.53,2.53,0,0,1-1.2-.28,2.72,2.72,0,0,1-.93-.8,3.77,3.77,0,0,1-.61-1.2A5.27,5.27,0,0,1,209.57,171.44Zm1.29-.14v.14a4.32,4.32,0,0,0,.12,1.05,2.6,2.6,0,0,0,.35.87,1.84,1.84,0,0,0,.62.59,1.8,1.8,0,0,0,.89.21,1.86,1.86,0,0,0,1-.27,1.91,1.91,0,0,0,.66-.72,3.72,3.72,0,0,0,.39-1v-1.67a3.36,3.36,0,0,0-.24-.74,2.41,2.41,0,0,0-.4-.63,1.69,1.69,0,0,0-.6-.45,2,2,0,0,0-.84-.17,1.86,1.86,0,0,0-.91.22,1.78,1.78,0,0,0-.62.6,2.6,2.6,0,0,0-.35.87A4.47,4.47,0,0,0,210.86,171.3Zm3.76,2.35v-9.18h1.28v10.64h-1.17Z"/><path class="cls-3" d="M221,175.24a3.54,3.54,0,0,1-1.41-.26,3.12,3.12,0,0,1-1.09-.75,3.45,3.45,0,0,1-.7-1.15,4.3,4.3,0,0,1-.24-1.46v-.29a4.6,4.6,0,0,1,.27-1.63,3.7,3.7,0,0,1,.73-1.22,3.11,3.11,0,0,1,1.06-.75,3,3,0,0,1,1.22-.26,3.19,3.19,0,0,1,1.39.28,2.4,2.4,0,0,1,1,.77,3.35,3.35,0,0,1,.56,1.17,5.54,5.54,0,0,1,.18,1.45v.58h-5.6v-1.05h4.32v-.09a3.17,3.17,0,0,0-.21-1,1.69,1.69,0,0,0-.55-.78,1.65,1.65,0,0,0-1-.3,1.85,1.85,0,0,0-.81.18,1.79,1.79,0,0,0-.63.54,3,3,0,0,0-.41.88,4.82,4.82,0,0,0-.14,1.2v.29a3.22,3.22,0,0,0,.15,1,2.47,2.47,0,0,0,.43.82,2.12,2.12,0,0,0,.7.56,2.41,2.41,0,0,0,2.09-.08,2.77,2.77,0,0,0,.83-.74l.77.62a3.92,3.92,0,0,1-.61.7,3.06,3.06,0,0,1-.92.54A3.61,3.61,0,0,1,221,175.24Z"/><path class="cls-3" d="M226.81,164.47v10.64h-1.29V164.47Z"/><path class="cls-3" d="M184,181.35v8.93h-1.29V179.91h1.17Zm5.05,2.24v.15a5.57,5.57,0,0,1-.2,1.51,4,4,0,0,1-.56,1.21,2.68,2.68,0,0,1-.91.8,2.63,2.63,0,0,1-1.24.28,3.08,3.08,0,0,1-1.26-.24,2.34,2.34,0,0,1-.93-.68,3.34,3.34,0,0,1-.61-1.08,6.45,6.45,0,0,1-.31-1.42v-.78a7,7,0,0,1,.31-1.49,3.86,3.86,0,0,1,.61-1.12,2.59,2.59,0,0,1,.92-.72,3,3,0,0,1,1.24-.24,2.81,2.81,0,0,1,1.26.27,2.55,2.55,0,0,1,.92.78,3.66,3.66,0,0,1,.57,1.21A6.29,6.29,0,0,1,189,183.59Zm-1.29.15v-.15a4.59,4.59,0,0,0-.12-1.06,2.84,2.84,0,0,0-.36-.87,1.86,1.86,0,0,0-.63-.59,1.78,1.78,0,0,0-.91-.22,2,2,0,0,0-.84.16,2,2,0,0,0-.61.45,2.47,2.47,0,0,0-.4.64,3.18,3.18,0,0,0-.23.74v1.79a4.07,4.07,0,0,0,.38.91,2,2,0,0,0,.67.69,2,2,0,0,0,1.05.26,1.8,1.8,0,0,0,.89-.22,2,2,0,0,0,.63-.6,2.9,2.9,0,0,0,.36-.88A4.44,4.44,0,0,0,187.74,183.74Z"/><path class="cls-3" d="M195.49,184.09H196a6,6,0,0,1-.15,1.38,3.18,3.18,0,0,1-.51,1.1,2.29,2.29,0,0,1-.9.72,3.31,3.31,0,0,1-1.37.26,2.91,2.91,0,0,1-1-.16,2.11,2.11,0,0,1-.78-.49,2.17,2.17,0,0,1-.5-.87,4,4,0,0,1-.18-1.28v-4.83h1.28v4.85a2.47,2.47,0,0,0,.12.83,1.27,1.27,0,0,0,.31.52,1.07,1.07,0,0,0,.44.27,1.79,1.79,0,0,0,.51.07,2.34,2.34,0,0,0,1.3-.31,1.8,1.8,0,0,0,.69-.85A3.29,3.29,0,0,0,195.49,184.09Zm-2.59-5.29,1.35-2h1.54l-1.85,2Zm2.35,6.87v-5.76h1.28v7.49h-1.22Z"/><path class="cls-3" d="M198.47,176.76h1.29V186l-.11,1.45h-1.18Zm6.36,6.83v.15a5.57,5.57,0,0,1-.2,1.51,3.76,3.76,0,0,1-.57,1.21,2.51,2.51,0,0,1-2.15,1.08,2.88,2.88,0,0,1-1.25-.25,2.32,2.32,0,0,1-.9-.71,3.61,3.61,0,0,1-.59-1.12,6.91,6.91,0,0,1-.3-1.48v-.64a7,7,0,0,1,.3-1.49,3.61,3.61,0,0,1,.59-1.12,2.44,2.44,0,0,1,.9-.72,3,3,0,0,1,1.24-.24,2.77,2.77,0,0,1,1.25.27,2.47,2.47,0,0,1,.92.78,3.65,3.65,0,0,1,.56,1.21A5.84,5.84,0,0,1,204.83,183.59Zm-1.29.15v-.15a5.22,5.22,0,0,0-.11-1.06,2.58,2.58,0,0,0-.33-.87,1.62,1.62,0,0,0-.6-.59,1.77,1.77,0,0,0-.92-.22,1.94,1.94,0,0,0-.84.16,2,2,0,0,0-.61.45,2.5,2.5,0,0,0-.41.64,3.74,3.74,0,0,0-.23.74v1.67a3.69,3.69,0,0,0,.37.93,2.07,2.07,0,0,0,.68.73,1.83,1.83,0,0,0,1.05.28,1.75,1.75,0,0,0,.89-.21,1.59,1.59,0,0,0,.6-.58,2.83,2.83,0,0,0,.35-.87A5,5,0,0,0,203.54,183.74Z"/><path class="cls-3" d="M207.84,176.76V187.4h-1.29V176.76Z"/><path class="cls-3" d="M209.9,177.92a.76.76,0,0,1,.2-.53.7.7,0,0,1,.56-.21.73.73,0,0,1,.56.21.72.72,0,0,1,.2.53.69.69,0,0,1-.2.51.73.73,0,0,1-.56.21.7.7,0,0,1-.56-.21A.73.73,0,0,1,209.9,177.92Zm1.39,2v7.49H210v-7.49Z"/><path class="cls-3" d="M216.35,186.49a1.85,1.85,0,0,0,.84-.19,1.71,1.71,0,0,0,.64-.52,1.35,1.35,0,0,0,.28-.75h1.22a2.28,2.28,0,0,1-.44,1.24,3.13,3.13,0,0,1-2.54,1.27,3.32,3.32,0,0,1-1.47-.3,2.9,2.9,0,0,1-1-.81,3.6,3.6,0,0,1-.62-1.2,4.8,4.8,0,0,1-.21-1.43v-.29a4.8,4.8,0,0,1,.21-1.43,3.6,3.6,0,0,1,.62-1.2,2.79,2.79,0,0,1,1-.81,3.32,3.32,0,0,1,1.47-.3,3.23,3.23,0,0,1,1.53.35,2.78,2.78,0,0,1,1,1,2.86,2.86,0,0,1,.41,1.39h-1.22a1.84,1.84,0,0,0-.26-.84,1.73,1.73,0,0,0-.61-.59,1.71,1.71,0,0,0-.89-.23,2,2,0,0,0-1,.23,1.73,1.73,0,0,0-.63.63,2.56,2.56,0,0,0-.33.86,4.5,4.5,0,0,0-.1,1v.29a5.23,5.23,0,0,0,.09,1,2.85,2.85,0,0,0,.33.86,1.9,1.9,0,0,0,.63.63A2,2,0,0,0,216.35,186.49Z"/><path class="cls-3" d="M220.43,183.74v-.16a4.6,4.6,0,0,1,.24-1.51,3.58,3.58,0,0,1,.68-1.21,3.07,3.07,0,0,1,1.07-.81,3.74,3.74,0,0,1,2.84,0,3.2,3.2,0,0,1,1.08.81,3.42,3.42,0,0,1,.68,1.21,4.6,4.6,0,0,1,.24,1.51v.16a4.54,4.54,0,0,1-.24,1.5,3.42,3.42,0,0,1-.68,1.21,3.23,3.23,0,0,1-1.07.8,3.62,3.62,0,0,1-2.84,0,3.17,3.17,0,0,1-1.08-.8,3.58,3.58,0,0,1-.68-1.21A4.54,4.54,0,0,1,220.43,183.74Zm1.29-.16v.16a4,4,0,0,0,.13,1,2.73,2.73,0,0,0,.4.88,1.85,1.85,0,0,0,1.6.82,1.92,1.92,0,0,0,.92-.22,2,2,0,0,0,.67-.6,2.94,2.94,0,0,0,.39-.88,4,4,0,0,0,.14-1v-.16a4,4,0,0,0-.14-1.05,2.73,2.73,0,0,0-.4-.88,2,2,0,0,0-.66-.61,1.88,1.88,0,0,0-.93-.22,1.85,1.85,0,0,0-.93.22,1.92,1.92,0,0,0-.66.61,2.73,2.73,0,0,0-.4.88A4,4,0,0,0,221.72,183.58Z"/></g></g></g></svg>