<svg id="Capa_1" data-name="Capa 1" xmlns="http://www.w3.org/2000/svg" viewBox="0 0 198.13 271.77"><defs><style>.cls-1{fill:#6c2910;}.cls-2{fill:#fff;}</style></defs><circle class="cls-1" cx="103.22" cy="236.1" r="28.85"/><path class="cls-2" d="M110.19,241.71v3.54H96.37v-3l6.37-6.69a18.94,18.94,0,0,0,1.36-1.74,7.47,7.47,0,0,0,.75-1.39,3.23,3.23,0,0,0,.24-1.13,3.61,3.61,0,0,0-.25-1.44,1.89,1.89,0,0,0-.74-.88,2.21,2.21,0,0,0-1.19-.3,2,2,0,0,0-1.24.41,2.79,2.79,0,0,0-.82,1.12,4.21,4.21,0,0,0-.29,1.59H96a6.37,6.37,0,0,1,.89-3.33,6.55,6.55,0,0,1,2.48-2.42,7.36,7.36,0,0,1,3.69-.9,8.73,8.73,0,0,1,3.68.68,4.87,4.87,0,0,1,2.23,2,6,6,0,0,1,.76,3.1,6.06,6.06,0,0,1-.33,2,8.06,8.06,0,0,1-.94,1.88,14.89,14.89,0,0,1-1.49,1.91c-.58.66-1.25,1.35-2,2.09l-2.56,3Z"/><path class="cls-1" d="M25.14,188c-2.63-1-3.48-3-3.47-5.71,0-18.88,0-37.76,0-56.63,0-4.33,1.5-5.8,5.89-5.81a2,2,0,0,1,.35,0c1.68.25,2.49-.12,2.72-2.17.47-4.23,3.65-7.21,7.85-8,.5-.09,1-.22,1.5-.33a4.11,4.11,0,0,0-.82-1.82c-4.7-8.17-9.46-16.31-14.12-24.51-3-5.3-.34-11.59,5.4-12.75a34.84,34.84,0,0,1,4.7-.28c-4.4-8.4-4.26-16.54,1.8-23.85s14-9,23.2-6.2c0-1.3,0-2.52,0-3.74a4.44,4.44,0,0,1,4.38-4.6c.53,0,1.06,0,1.6,0H166.31c4.59,0,6.06,1.45,6.06,6V156.53c0,4.38-1.44,5.83-5.83,5.83q-40.35,0-80.7,0c-1.57,0-2.4.19-2.27,2a2.31,2.31,0,0,1-2.38,2.54,2.54,2.54,0,0,1-2.8-2.35,11.6,11.6,0,0,1-.06-1.77c0-11.92,0-23.83,0-35.75,0-1.44-.36-1.89-1.86-1.89q-23.79.09-47.6,0c-1.62,0-1.93.5-1.93,2Q27,154,27,180.79c0,1.48.26,2,1.91,2q23.79-.1,47.6,0c1.43,0,2-.29,1.87-1.82a28,28,0,0,1,0-3.89c.07-1.85,1.06-2.92,2.62-2.95A2.5,2.5,0,0,1,83.59,177c-.08,1.67.73,1.74,2,1.74q43.26,0,86.53,0a15,15,0,0,1,2.12.07,2.41,2.41,0,0,1,2.2,2.57,2.37,2.37,0,0,1-2,2.51A13.61,13.61,0,0,1,172,184q-43,0-86,0c-1.36,0-2.46,0-2.89,1.7-.31,1.25-1.64,1.76-2.71,2.36Zm131-78.15.4-.08V79.44c0-2.83.86-4.12,2.74-4.08s2.57,1.21,2.57,4v66.36c0,4.74-1.37,6.13-6.06,6.13h-69c-3.1,0-3,0-3.13,3-.08,1.71.43,2.17,2.14,2.17q39.65-.09,79.28,0c1.79,0,2.07-.57,2.07-2.2Q167,97,167.1,39c0-1.75-.48-2.09-2.15-2.09q-48,.08-96.09,0c-3.39,0-3.42,0-3.37,3.42,0,1-.5,2.26.34,3.06a32.4,32.4,0,0,1,4.64,5.46,4.5,4.5,0,0,0,.22-.71c.29-5,1.31-6,6.37-6h70.6c3.25,0,6.49,0,9.74,0a4.25,4.25,0,0,1,4.38,4.35c.07,2.06,0,4.13,0,6.19,0,4.19,0,8.38,0,12.57a2.6,2.6,0,0,1-1.48,2.6,2.54,2.54,0,0,1-2.83-.33,3.4,3.4,0,0,1-1-2.89c0-5.25,0-10.5,0-15.75,0-1.16-.33-1.48-1.48-1.48q-38.76,0-77.51,0c-1.29,0-1.55.44-1.54,1.62.05,6.67,0,13.33,0,20a2,2,0,0,0,1.16,2.08,8.32,8.32,0,0,1,3.36,11.55,34.23,34.23,0,0,1-2.75,4.74c-3,4-1.27,8.54-1.58,12.86a6.28,6.28,0,0,0,1.18-1.57L90.9,75.33c3.24-5.6,8.69-5.57,11.94.07l18.39,31.84c.32.56.66,1.1,1.08,1.79.45-.73.82-1.32,1.17-1.93q5-8.56,9.89-17.15a6.17,6.17,0,0,1,6.25-3.46c2.39.21,3.94,1.64,5.09,3.65Q150.38,100,156.1,109.89Zm-58.77,19c4,0,8,0,12,0a2.28,2.28,0,0,0,2.34-1.38c2.22-4,4.48-7.89,6.82-11.78a2.31,2.31,0,0,0,0-2.71Q108.31,95.54,98.21,78c-1.17-2-1.56-2-2.76.06C90,87.5,84.72,97,79,106.33a18.94,18.94,0,0,0-3,12c.1,1.2.35,1.75,1.6,1.59a7.69,7.69,0,0,1,1.59,0c2.83.2,4.37,1.82,4.47,4.67a24.29,24.29,0,0,1,0,2.83c-.09,1.15.32,1.53,1.5,1.51C89.19,128.85,93.26,128.89,97.33,128.89ZM51.78,109.53c2.56,0,4.27,0,6,0a1.74,1.74,0,0,0,1.8-1.06c1-1.91,2.16-3.78,3.25-5.66L75.43,81c1.83-3.19.54-5.48-3.09-5.5-1.82,0-3.65,0-5.48,0a4.93,4.93,0,0,0-3,.85c-6.48,4.1-13.38,4.78-20.13,1.19a17.11,17.11,0,0,0-9.38-2c-.41,0-.82,0-1.23,0-3.8,0-5.09,2.24-3.19,5.53,4.46,7.76,9.15,15.4,13.33,23.3C45.44,108.3,47.7,111,51.78,109.53Zm68.4,24.67c-11.62,0-23.24,0-34.85,0-1.27,0-1.78.25-1.73,1.64.11,3.07.07,6.14,0,9.2,0,1.06.17,1.59,1.43,1.58q35,0,70.05,0c1.06,0,1.44-.29,1.42-1.39-.06-3.07-.11-6.14,0-9.2.06-1.5-.41-1.84-1.86-1.83C143.17,134.23,131.67,134.2,120.18,134.2Zm-3.05-5.31h36c3.38,0,3.23,0,3.42-3.44a13.29,13.29,0,0,0-2.13-8c-4.77-8-9.33-16.08-14-24.14-1.26-2.18-1.61-2.19-2.86,0q-9.81,17-19.6,33.94C117.71,127.7,117.5,128.17,117.13,128.89ZM37.52,59.16A15.19,15.19,0,1,0,52.72,44,15.25,15.25,0,0,0,37.52,59.16Zm15.2,60.73c5.13,0,10.26,0,15.39,0,1.49,0,1.69-.54,1.33-1.79a4.23,4.23,0,0,0-4.14-3.24q-12.64-.09-25.29,0A4.18,4.18,0,0,0,36,118c-.43,1.32-.22,1.92,1.38,1.9C42.47,119.84,47.59,119.89,52.72,119.89Zm12.44-10.51a15.59,15.59,0,0,1,4.65,1.33c.57.34.89.16.89-.52V100.6l-.41-.09Z"/><path class="cls-1" d="M116.28,6.83h39.63c4,0,5.54,1.52,5.55,5.55v5.3c0,3.79-1.61,5.41-5.36,5.41q-11.67,0-23.35,0-12.82,0-25.65,0a6.85,6.85,0,0,1-1.93-.14,2.46,2.46,0,0,1-1.92-2.79,2.45,2.45,0,0,1,2.26-2.34,11.6,11.6,0,0,1,1.77,0c15.69,0,31.37,0,47.06,0,1.47,0,1.88-.38,1.85-1.85-.09-3.83,0-3.84-3.89-3.84q-37,0-74,0c-1.62,0-2.08.41-2,2,.11,3.65,0,3.65,3.73,3.65H92.79c2.09,0,3.26,1,3.27,2.62s-1.19,2.67-3.25,2.68c-5.6,0-11.21,0-16.81,0-3.2,0-4.89-1.73-4.94-4.93q0-3.18,0-6.37c0-3.3,1.73-5,5.06-5Z"/><path class="cls-1" d="M52.62,151.85c-3.53,0-7.07,0-10.6,0-3.14,0-4.49-1.4-4.5-4.56,0-3.48,0-6.95,0-10.43,0-2.83,1.42-4.3,4.2-4.31q11,0,21.91,0c2.78,0,4.23,1.48,4.26,4.28,0,3.59,0,7.19,0,10.78,0,2.78-1.5,4.21-4.31,4.23C59.93,151.88,56.27,151.85,52.62,151.85Zm.13-14c-2.88,0-5.76,0-8.65,0-1,0-1.32.32-1.29,1.31.06,2.06,0,4.12,0,6.18,0,.88.24,1.24,1.19,1.24q8.64,0,17.29,0c1,0,1.35-.31,1.32-1.32-.06-2-.06-4,0-6,0-1.07-.3-1.45-1.39-1.42C58.4,137.89,55.57,137.85,52.75,137.85Z"/><path class="cls-1" d="M128.17,76.53a12.13,12.13,0,1,1,12.2-12.1A12.21,12.21,0,0,1,128.17,76.53Zm.09-5.31a6.82,6.82,0,1,0-6.83-6.9A6.87,6.87,0,0,0,128.26,71.22Z"/><path class="cls-1" d="M47.55,52.65c1.3,0,2.6,0,3.89,0,2,.1,2.87,1,3,3,.06,1.71,0,3.42,0,5.13,0,.92.33,1.28,1.24,1.21a8.73,8.73,0,0,1,1.77,0,2.44,2.44,0,0,1,2.37,2.41,2.31,2.31,0,0,1-1.86,2.65,19.7,19.7,0,0,1-6.85,0,2.35,2.35,0,0,1-2-2.59,32.58,32.58,0,0,1,0-4.42c.23-1.9-.56-2.37-2.28-2.19a20.81,20.81,0,0,1-3.53,0,2.56,2.56,0,0,1-2.74-2.61c0-1.51,1-2.49,2.72-2.65l.36,0h3.89Z"/><path class="cls-1" d="M60.68,57.89a13.8,13.8,0,0,1-1.93,0,2.38,2.38,0,0,1-2.26-2.48,2.32,2.32,0,0,1,2.1-2.61,17.18,17.18,0,0,1,3.86-.05,2.4,2.4,0,0,1,2.35,2.58,2.5,2.5,0,0,1-2.54,2.6c-.52.05-1,0-1.58,0Z"/></svg>