<svg id="Capa_1" data-name="Capa 1" xmlns="http://www.w3.org/2000/svg" viewBox="0 0 212.43 178.47"><defs><style>.cls-1{fill:#c7895e;}</style></defs><path class="cls-1" d="M201.33,126.06a5.61,5.61,0,0,1-3.94,2.93q-43,11.4-86,22.82c-1.41.37-1.76.89-1.69,2.34.36,7.41-2.6,13.25-8.89,17.21a17.84,17.84,0,0,1-19.69.3c-11-6.49-12.75-20.48-4-29.8a2.1,2.1,0,0,0,.59-2.27Q67.95,103,58.25,66.42A4.72,4.72,0,0,0,57,64.24q-5.9-6-11.72-12c-.76-.8-1.23-.93-2.22-.21-3.14,2.27-6.76,1.78-9.79-1.23C28,45.64,22.85,40.4,17.66,35.18c-.82-.82-1.65-1.65-2.4-2.54a10.43,10.43,0,0,1,5.61-16.9c4-.94,7.46.33,10.36,3.27,5.61,5.68,11.26,11.31,16.89,17,.13.13.27.26.39.39,2.32,2.52,2.92,5.37,1.41,8.47A1.6,1.6,0,0,0,50.39,47c4.24,4.27,8.42,8.59,12.66,12.86a7.84,7.84,0,0,1,2,3.62q9.52,35.88,19.06,71.76c.4,1.55.95,1.84,2.34,1.31a24.66,24.66,0,0,1,3.37-.91c.82-.18,1.1-.45.85-1.38Q83.81,108.74,77,83.16c-.57-2.13-1.2-4.25-1.64-6.41-1-5.24,1.57-9.52,6.67-11.07,3-.9,3-.9,2.19-3.88q-4.5-16.95-9-33.92c-2-7.6,1.24-13.27,8.79-15.27L116.32,4c7.35-2,13.08,1.36,15,8.68,3.15,11.84,6.33,23.67,9.42,35.53.38,1.43.85,1.75,2.23,1.27a10.75,10.75,0,0,1,6-.66c4.09.91,6.37,3.6,7.41,7.55q7.27,27.45,14.58,54.89c.69,2.6.69,2.6,3.33,1.91,5.21-1.38,10.41-2.79,15.64-4.13,4.24-1.1,7.3.73,8.58,5,1,3.27,1.52,6.66,2.83,9.84Zm-89.12-53.5c0,2.42-1.12,3.85-2.81,4.2a3.37,3.37,0,0,1-4.06-2.05,43.12,43.12,0,0,1-1.58-5.46c-.28-1.21-.67-1.6-2-1.23-5.73,1.6-11.48,3.08-17.22,4.62-2,.55-2.4,1.16-1.87,3.18q2.2,8.37,4.44,16.7l10.05,37.85c.73,2.74,1.19,3,3.86,2.31,5.57-1.48,11.13-3,16.71-4.43,1.15-.29,1.61-.62,1.19-2-1-3.1-1.71-6.27-2.54-9.41-1.31-5-2.69-9.93-3.91-14.93-.72-3,1.54-5.29,4.34-4.62,2,.47,2.58,2.08,3,3.79,2,7.7,4.1,15.4,6.1,23.11.32,1.25.74,1.79,2.11,1.28s2.61-.7,3.9-1.06,3.11-.36,3.74-1.22c.74-1-.34-2.62-.69-4-4.79-18.13-9.63-36.24-14.4-54.38-.37-1.4-.89-1.73-2.27-1.29-2.15.69-4.36,1.22-6.57,1.74-1.07.25-1.37.68-1,1.76C111.36,69.1,111.83,71.13,112.21,72.56Zm51.88,41.62c-.05-.21-.15-.57-.24-.92q-7.32-27.51-14.63-55c-.57-2.14-1.19-2.47-3.32-1.91-5.68,1.5-11.35,3.06-17.05,4.5-1.29.33-1.6.73-1.23,2.08,3.19,11.76,6.3,23.54,9.43,35.32q2.88,10.83,5.76,21.65c.19.7.14,1.68,1.43,1.33,6.09-1.65,12.19-3.26,18.28-4.9A1.9,1.9,0,0,0,164.09,114.18Zm26.62,2.25-1.06.3-56.47,15q-14.39,3.81-28.76,7.66c-.57.15-1.46,0-1.62.63s.7,1,1.17,1.46A11.31,11.31,0,0,1,106.1,144c.67,1.16,1.46,1.27,2.74.93q39.84-10.67,79.72-21.23c5.12-1.36,5.16-1.48,3.19-6.52C191.54,116.66,191.35,116.29,190.71,116.43ZM134,51.1c-.81-3-1.64-6.09-2.47-9.16-.25-.9-.85-.43-1.33-.3q-19.79,5.24-39.57,10.48c-1,.27-1.17.69-.88,1.66.72,2.46,1.4,4.95,2,7.46.3,1.41.85,1.71,2.23,1.32,5.31-1.49,10.64-2.87,16-4.28,7.51-2,15-4,22.53-6C133,52.12,134,52.32,134,51.1ZM82,24.24c.18,1.75,1,3.76,1.42,5.85.25,1.26.73,1.37,1.89,1.05q19.52-5.25,39.08-10.38c1-.28,1.43-.64,1.08-1.74-.51-1.57-.87-3.19-1.34-4.78-.87-3-2.57-4-5.54-3.19-3.38.87-6.75,1.78-10.13,2.67l-22.56,6C83.09,20.45,82,21.66,82,24.24Zm8.61,142.7a11.75,11.75,0,0,0,11.92-11.65,11.94,11.94,0,0,0-11.8-11.85A11.75,11.75,0,0,0,79,155,11.64,11.64,0,0,0,90.58,166.94ZM85.84,39.26A41.66,41.66,0,0,1,87,43.76c.22,1.51.91,1.51,2.13,1.18q17.53-4.72,35.11-9.4c1.64-.44,4-.45,4.72-1.54.86-1.27-.67-3.28-.92-5-.2-1.38-.85-1.44-2-1.11-4.36,1.23-8.74,2.35-13.12,3.52q-12.86,3.43-25.71,6.88C86.67,38.43,85.71,38.21,85.84,39.26ZM23.52,22.85c-2.56,0-4.06,2.41-3,4.43A7.68,7.68,0,0,0,21.9,29q6.8,6.84,13.61,13.66c3.6,3.62,3.58,3.6,7.08-.24.59-.64.62-1,0-1.61Q34.18,32.45,25.82,24A3.27,3.27,0,0,0,23.52,22.85Z"/><path class="cls-1" d="M115.94,87.12a3.57,3.57,0,0,1-3.55,3.66,3.67,3.67,0,0,1-3.77-3.68,3.6,3.6,0,0,1,3.7-3.54A3.5,3.5,0,0,1,115.94,87.12Z"/><path class="cls-1" d="M149.3,86.51a3.79,3.79,0,0,1-2.93,3.83A3.44,3.44,0,0,1,142.28,88c-.72-2.15-1.23-4.37-1.82-6.55-.21-.77-.36-1.31-1.44-.79a3.24,3.24,0,0,1-4-1,3.42,3.42,0,0,1-.49-4.11c1.24-2.32,2.53-4.63,3.95-6.85,1.07-1.66,3-2,4.89-1s3.94,2.26,5.89,3.41a3.72,3.72,0,0,1,2.18,3.91,3.36,3.36,0,0,1-3.33,3.11c-.88,0-.79.46-.62,1.08.48,1.71.92,3.43,1.36,5.15C149,85.22,149.19,86,149.3,86.51Z"/></svg>