<svg id="Capa_1" data-name="Capa 1" xmlns="http://www.w3.org/2000/svg" viewBox="0 0 224.68 199.45"><defs><style>.cls-1{fill:#c7895e;}</style></defs><path class="cls-1" d="M114.53,171.49H50.07c-7,0-6.81,0-7.1-7.27-.51-13.06,2-25.16,10.2-35.67a40.57,40.57,0,0,1,11-10c2.93-1.76,3.85-4,3.8-7.41-.18-13.32.09-26.65-.13-40a29,29,0,0,1,4.43-16.8c9.87-15.87,27.12-22.8,44.76-16.75,3.35,1.15,5.3,1.54,6.69-2.57,1.09-3.21,3.06-7.22,6.86-7.07,3.38.14,4.81,4.14,6.42,7a8.67,8.67,0,0,1,1,2.27c.83,3.71,2.55,3.87,5.47,1.85A17.5,17.5,0,0,1,151,36.61c6.27-1,7.72.35,6.65,6.48-1.35,7.71-5.32,13.62-12.59,16.85-2.5,1.11-3.5,2.54-3.47,5.27.12,9.66.15,19.32,0,29-.07,3.56,1.24,3.3,3.85,2.33,9-3.33,16.63-1.22,22.31,5.91,5.15,6.45,5.34,15.21,0,22.74-1.9,2.69-1.78,3.55,1.31,4.81,12.25,5,17.55,14.63,17.74,27.48.22,14,.2,14-13.84,14Zm37.95-4.9c8.31,0,16.63,0,25,0,1.74,0,3.62.41,4.33-2.19,2.59-9.42-1.95-22.08-10-27.56-2.54-1.73-4.42-2.7-5.93,1.32-2.08,5.52-6.51,8.08-12.39,8.44-6.23.38-10.9-2.2-13.24-7.75-2-4.81-4.08-3.77-7.29-1.45-8.75,6.31-9.4,15.39-9.3,25,0,3.42,1.25,4.31,4.37,4.27C136.17,166.5,144.32,166.59,152.48,166.59Zm-48,0c2,0,4,0,6,0,9-.12,8.49,1.3,8.35-8.19-.1-6.14.51-12.09,4.23-17.1,2.6-3.51,1.92-5.9-1.25-8.28-.92-.69-1.6-1.71-2.52-2.41-3.45-2.63-3.75-5.14-.12-7.93,1.2-.93,3.17-1.94,2.16-4a5.8,5.8,0,0,0-4-3.46c-2.22-.36-2.51,1.81-3.4,3.09-4.89,7.11-13.46,7.17-18.14.1-.87-1.31-1.07-3.56-3.24-3.25a6.39,6.39,0,0,0-4.5,3.67c-1,2,1.24,2.87,2.36,3.85,2.77,2.41,3.79,4.81.36,7.27s-3.17,4.78,0,7.29c2.82,2.23,3,4.69-.07,6.88-3.53,2.52-3.29,4.78,0,7.29,2.91,2.18,2.79,4.47.08,7-1.19,1.1-3.81,2-2.68,4.18a6.6,6.6,0,0,0,6.38,4C97.8,166.52,101.14,166.63,104.46,166.64Zm.39-96.95c9.33,0,18.67-.08,28,0,2.87,0,3.66-1,3.68-3.8s-.88-3.83-3.7-3.72c-4,.16-8,.1-12,0-2.15-.07-5.43.87-5.42-2.58,0-3,3-2.32,5.09-2.53,1.17-.13,3.68.33,3.13-1.18-1.45-4-.73-9.19-4.24-11.85-11.06-8.39-34.73-2.27-41.07,10.2-.93,1.83-.79,2.84,1.51,2.83,3,0,6-.06,9,0,2.09,0,5-.51,5.15,2.47.15,3.13-2.77,2.67-4.87,2.71-3.66.06-7.33,0-11,0-2.67,0-5.34-.57-5.27,3.77s3,3.64,5.5,3.65C87.18,69.73,96,69.7,104.85,69.69Zm.1,4.87v0h-5.5c-13,0-13.5.51-12.54,13.56.66,8.86,8.89,16.44,17.82,16.42a17.84,17.84,0,0,0,17.61-16.44c.15-2.66,0-5.34.09-8,.15-3.85-1.91-5.46-5.49-5.5C112.94,74.52,109,74.56,105,74.56ZM57.44,166.62c2.34,0,4.67,0,7,0,1.3,0,2.76-.61,1.46-2-2.61-2.81-.79-4.61,1.18-6.18,2.82-2.25,3.4-4.23.21-6.61-3.54-2.63-3.38-5.37.07-8,2.86-2.14,2.81-4.2,0-6.24-3.79-2.72-3.12-5.33.11-8,1.66-1.34,2.87-2.63.83-4.86s-3.49-.94-5,.41c-9.54,8.51-15.09,19.06-15.31,31.92C47.75,168.07,46.46,166.47,57.44,166.62ZM166.56,114.1A13.73,13.73,0,0,0,153,99.86a13.93,13.93,0,0,0-14.19,13.68,14.11,14.11,0,0,0,13.64,14.27A13.82,13.82,0,0,0,166.56,114.1Zm-84.77,1.68c-2.48.89-4.93,1.87-7.44,2.64-2.87.88-3.84,2.11-1,4.22,3.84,2.88,3.52,5.59-.21,8.23-2.95,2.09-2.23,4.06.21,5.89,3.44,2.58,3.93,5.12.18,7.86-2.71,2-3.2,4.14-.18,6.26,4.08,2.87,3.34,5.67-.16,8.25-3.28,2.42-2,4.18.44,6.18s5.4,1.19,8.14,1.23c1.29,0,1.76-1.08.86-2-2.64-2.81-.51-4.62,1.37-6.19,2.66-2.24,3.65-4.12.19-6.54-3.62-2.53-3.47-5.32,0-7.92,2.92-2.16,2.68-4.25-.1-6.26-3.75-2.71-3.31-5.33.13-7.84,2.89-2.11,2.88-4,0-6.19C81.92,121.77,80.35,119.52,81.79,115.78ZM82,82.93a23.17,23.17,0,0,1,0-4.23c.54-3.1-.66-4.35-3.71-4.13-2.53.19-5.52-.76-5.46,3.64.14,10.47.08,20.94,0,31.41,0,2.58.6,3.77,3.5,2.7,4.24-1.56,8.76-1.8,13.21-2.34,1.36-.16,3.26.69,3.81-1.35.46-1.67-.7-2.87-2-3.73C83.79,99.62,81.56,92,82,82.93ZM136.49,90c0-4.16,0-8.31,0-12.46,0-4.85-3.65-2.57-5.83-2.93s-3.61.22-3.29,3.25c1.15,10.89-.24,21-10.26,27.84a2.57,2.57,0,0,0-1.19,3c.4,1.21,1.47,1.22,2.45,1.25a53.7,53.7,0,0,1,12.3,1.7c2.34.64,3.11-.63,4-2.52C137.49,103,136.42,96.44,136.49,90ZM126.41,116c2.84,3.75.9,5.7-1.21,7.7-.88.83-2.73,1.7-1.87,3.1,1.55,2.5,3.73,6,6.25,5.85,3.33-.18,6.53-2.71,9.76-4.27.13-.06.07-.59,0-.89C138.9,124,131.73,117.08,126.41,116Zm26.51,25.85a9.53,9.53,0,0,0,8.14-4.8c1.52-2.43,1.16-4.12-2.19-4.09s-6.64-.13-9.94.09c-1.78.12-4.47-1.32-5.15,1.38-.57,2.26,1.34,4,3.07,5.31A10,10,0,0,0,152.92,141.81ZM139.59,56.72c4.89-.12,12.24-7.41,12.82-12.56.24-2.11-.49-2.63-2.48-2.39-5.11.61-11.79,7.35-12.24,12.43C137.55,55.72,137.58,56.92,139.59,56.72Zm-5.22-11.66c0-.67,0-1.34-.09-2-.37-3.28-.85-7.91-4.07-8-2.54-.08-3.36,4.73-3.92,7.85a7.78,7.78,0,0,0-.14,2c.28,3.83.63,9.36,4.4,9.4C134,54.3,134.21,48.74,134.37,45.06Zm-29.56,63.8c-1.78,1.22-6.28-2-6,3.64.2,3.62,1.94,6.1,5.71,6.21,4.09.12,5.82-2.52,6.13-6.33C111.06,107.64,107.44,109.47,104.81,108.86Z"/></svg>