<svg id="Capa_1" data-name="Capa 1" xmlns="http://www.w3.org/2000/svg" viewBox="0 0 241.1 239.36"><defs><style>.cls-1{fill:#fdf3e1;}</style></defs><path class="cls-1" d="M31,194c3.88-1.06,4.54-3.81,4.05-7.35-.32-2.33.74-3.62,3.24-4.17,19.65-4.37,39.25-8.93,58.91-13.28,7.15-1.58,11,.32,14.73,6.73,1.32,2.24,2.56,4.53,4.15,7.34,1.61-2.92,2.88-5.33,4.27-7.68,3.63-6.18,7.69-8,14.92-6.34,14.6,3.26,29.19,6.62,43.79,9.93,4.78,1.08,9.55,2.3,14.37,3.18,2.83.51,4,2,3.64,4.66-.53,3.51.46,6,4.05,7v2.27c-1.23,1.61-3,1.58-4.76,1.58-22.17,0-44.34-.07-66.5.07-4.32,0-8.3-.47-11.64-3.36-1.7-1.47-3.07-1-4.64.18a13.31,13.31,0,0,1-8.3,3.14q-34.95-.1-69.89,0c-1.73,0-3.24-.22-4.39-1.61Zm127-1.37v0c10.32,0,20.65-.09,31,.06,2.68,0,3.06-1.07,3.06-3.33,0-2.55-2-2.31-3.39-2.64q-26.65-6.15-53.34-12.17c-6.48-1.47-7.91-.8-11.15,5.17-.84,1.55-1.75,3.06-2.59,4.61-2.46,4.53-.91,7.52,4.33,8.25a23.93,23.93,0,0,0,3.39.07Zm-83.89,0v0H86.14c6.42,0,12.84.13,19.26-.05,5.92-.17,7.79-3.53,5-8.52-1.16-2.09-2.31-4.19-3.45-6.28-1.72-3.14-4.28-4.52-7.85-3.71-18.76,4.25-37.52,8.56-56.31,12.71-2.55.56-2.78,1.95-2.68,4,.12,2.56,2,1.78,3.33,1.78C53.65,192.58,63.85,192.56,74.05,192.56Z"/><path class="cls-1" d="M127.88,111v1.89c.05,14.1-1.59,10.85,10.32,18.22,6.06,3.76,9.08,8.19,8.5,15.37-.41,5-.08,10.07-.08,15.1,0,1.94-.44,3.71-2.82,3.6-2.08-.1-2.51-1.72-2.5-3.53,0-5.92-.05-11.85,0-17.76a7.09,7.09,0,0,0-3.77-6.84c-3.26-1.91-6.44-4-9.54-6.11-1.45-1-2.34-1.11-3.87.1-5.36,4.2-10.72,4.18-16.23,0-1.5-1.14-2.42-1.13-3.9-.09-3.1,2.16-6.31,4.16-9.56,6.08a7.12,7.12,0,0,0-3.78,6.84c.11,5.79,0,11.58,0,17.38,0,1.85-.09,3.82-2.47,3.91-2.59.09-2.86-1.92-2.85-4,0-6.17,0-12.34,0-18.51,0-4.29,2.11-7.42,5.62-9.68,3.06-2,6.1-4,9.26-5.84a7.35,7.35,0,0,0,3.91-7.16c-.1-5.92-.06-11.84,0-17.76,0-7.3,5-12.6,11.68-12.66,7-.06,11.93,5.19,12,12.72,0,2.9,0,5.79,0,8.69Zm-5.27-3.79h.09c0-2,.14-4,0-6a6.63,6.63,0,0,0-6.76-6.26,6.38,6.38,0,0,0-6.47,6.12,103.61,103.61,0,0,0,0,11.69,6.6,6.6,0,0,0,6.46,6.15,6.75,6.75,0,0,0,6.63-6A50.66,50.66,0,0,0,122.61,107.22Zm-13.16,15.25c.69,4.59,3.75,6.91,7.63,6.33,3.7-.55,5.5-2.75,5-6.28C118,124.63,113.93,124.41,109.45,122.47Z"/><path class="cls-1" d="M162.06,62.4c8.56.6,16.51,5.32,20.86,15.13s2.67,18.82-4.21,26.68-15.7,10.49-25.6,7.46a16.1,16.1,0,0,0-11.49.26c-1.58.65-3.35,1.55-4.89-.11-1.4-1.5-.5-3.13.07-4.6a13.21,13.21,0,0,0-.34-10.72C129.63,80.37,142.34,62.29,162.06,62.4Zm-2.39,5.34c-15.19.24-24.4,16-17.2,29.51,1.08,2,1.71,3.82.86,6-.71,1.84-.11,2.78,1.89,1.88,2.45-1.1,4.52-.42,6.81.64,7.49,3.46,15.91,1.77,21.93-4.15a19.82,19.82,0,0,0,4.24-22A19.52,19.52,0,0,0,159.67,67.74Z"/><path class="cls-1" d="M33.78,106.32c2.47-26.65,14.94-46.93,39.31-58.47,23.76-11.25,47-8.78,68.75,6,.42.28.81.6,1.21.9,1.49,1.09,3,2.34,1.61,4.3-1.56,2.14-3.26.95-4.88-.23a67.23,67.23,0,0,0-15.5-8.52c-37.54-14.61-80.42,11.6-84.9,51.93-.25,2.25-.46,4.51-.56,6.77-.08,1.75-.21,3.53-2.38,3.62-2.43.09-2.68-1.8-2.66-3.69Z"/><path class="cls-1" d="M102,58.46a49.8,49.8,0,0,1,24,5.79c1.74.93,4.2,1.81,3,4.37s-3.35,1.33-5.18.38c-31.48-16.28-67.54,6.28-68.9,40.7-.07,1.88.1,4.19-2.6,4.18-3,0-2.54-2.51-2.54-4.48C49.77,81.89,73.64,58.65,102,58.46Z"/><path class="cls-1" d="M162.54,130.27c2.34,1.12,5.27.35,8.26.09a9.08,9.08,0,0,1,9.43,5.56c1.55,4,1,7.66-2.12,10.78-2.78,2.75-5.56,5.49-8.3,8.27-1.91,1.93-3.81,2.29-5.89.25-3-3-6.22-5.88-9.21-8.94a8.72,8.72,0,0,1-2.06-10.07C154.23,132.44,157.83,130.21,162.54,130.27Zm13.32,9.6a4.51,4.51,0,0,0-6.44-4c-2.16,1-3.79,1.17-5.89,0s-4.21-.34-5.57,1.64-.75,3.82.79,5.42c.87.9,1.81,1.73,2.72,2.6,5.33,5.07,5.34,5.09,10.6-.3C173.61,143.67,175.67,142.42,175.86,139.87Z"/><path class="cls-1" d="M103.05,76.94a38.81,38.81,0,0,1,11.12,1.77c1.77.57,3.59,1.4,2.92,3.62-.73,2.37-2.59,2-4.64,1.43C95.65,79,79.6,86.68,73.72,102.29a27.61,27.61,0,0,0-1.64,8.47c-.09,1.91-.73,3.29-2.83,3.15s-2.16-1.69-2.23-3.31c-.56-11.91,8.5-25.1,21-30.54A37.9,37.9,0,0,1,103.05,76.94Z"/><path class="cls-1" d="M65.24,146.51c-1.93-.12-2.67-1.37-3.18-2.64A16.14,16.14,0,0,0,53.32,135c-3.86-1.81-3.87-4.28,0-6,4.32-1.93,7-5,8.95-9.15,1.54-3.19,4-3.31,5.45-.15a19.83,19.83,0,0,0,9.86,9.79c2.77,1.36,2.79,3.76,0,5.06a18.93,18.93,0,0,0-10,10.16A2.83,2.83,0,0,1,65.24,146.51Zm6.36-14.72c-3.54-1.12-5-3.26-6.47-5.95-1.46,2.86-3.4,4.68-6.86,6.47,4,.69,5,3.56,7.15,5.7C66.54,135.14,68.49,133.46,71.6,131.79Z"/><path class="cls-1" d="M124,148c.27,3.46-.86,6.33-3.82,8.09-2.25,1.33-1.31,3.31-1.44,5-.14,2-.13,4.09-2.72,4.06s-2.82-2.17-2.62-4.12a5.9,5.9,0,0,0-2.64-6c-3.58-2.71-3.74-9.92-.79-13.42a7.61,7.61,0,0,1,10.79-1.22A8.15,8.15,0,0,1,124,148Zm-5.32-.28c.15-1.61-.23-3.43-2.5-3.52-2.57-.09-2.78,1.9-2.79,3.93s.24,3.78,2.51,3.85C118.43,152.05,118.73,150,118.66,147.7Z"/><path class="cls-1" d="M185.31,113c1.52.5,3.36.19,5.23,0a6.79,6.79,0,0,1,7.09,4,6.38,6.38,0,0,1-1.59,7.92c-9.38,8.73-7,8.37-16.48.06-2.43-2.12-2.88-5-1.68-8C178.89,114.52,181.89,112.88,185.31,113ZM193,120a2.1,2.1,0,0,0-2.91-1.66c-1.32.41-2.51,1-3.93.28-1.19-.63-2.55-.76-3.35.52-.95,1.52.66,2.11,1.45,3a7.12,7.12,0,0,0,1.38,1.26c.94.58,1.6,2.38,3.06,1.12S192.16,122,193,120Z"/><path class="cls-1" d="M94.14,120.11c-.16.27-.24.59-.43.68A14.53,14.53,0,0,0,87,127.56c-.47.91-1.37,0-1.64-.66A10,10,0,0,0,80,121.37c-1.67-.76-1.6-1.89,0-2.62a9.7,9.7,0,0,0,5.14-5.24c.43-1,1.43-2,2.14-.51a12.85,12.85,0,0,0,6.26,6.23C93.85,119.36,94,119.82,94.14,120.11Z"/><path class="cls-1" d="M51.38,143.82c0,1.13-.81,1.38-1.46,1.64a8.41,8.41,0,0,0-4.72,4.61c-.85,1.9-2,2.31-3,.07a8.6,8.6,0,0,0-4.64-4.67c-1.64-.7-2.3-1.81-.21-2.81a9.46,9.46,0,0,0,4.92-4.92c.47-1.08,1.51-2.24,2.42-.54a12.35,12.35,0,0,0,6.07,5.9C51,143.23,51.21,143.63,51.38,143.82Z"/></svg>